<svg width="562" height="606" viewBox="0 0 562 606" fill="none" xmlns="http://www.w3.org/2000/svg">
<path d="M349.126 330.95C349.472 333.436 349.82 336.15 350.163 339.114C350.729 344.114 351.241 349.775 351.67 355.957C351.879 359.049 352.009 362.269 352.191 365.608C352.327 368.946 352.391 372.396 352.481 375.95C352.56 383.05 352.51 390.55 352.163 398.32C351.979 402.207 351.809 406.153 351.454 410.153C351.128 414.153 350.854 418.204 350.304 422.283C349.824 426.36 349.381 430.483 348.655 434.608C348.026 438.608 347.396 442.622 346.762 446.65C346.013 450.75 345.624 454.487 345.062 458.382C344.575 462.315 344.09 466.23 343.607 470.126C343.344 472.075 343.192 474.044 342.984 475.989C342.76 477.937 342.538 479.874 342.317 481.801C341.899 485.659 341.59 489.491 341.143 493.249C339.643 508.394 338.236 522.531 337.033 534.649C336.363 540.749 335.75 546.339 335.206 551.294C334.619 556.259 334.094 560.594 333.62 564.175C333.168 567.752 332.714 570.575 332.459 572.494C332.165 574.42 332.008 575.447 332.008 575.447C332.008 575.447 331.743 574.436 331.332 572.535C330.947 570.635 330.3 567.84 329.679 564.274C328.379 557.145 326.834 546.927 325.66 534.604C325.075 528.444 324.589 521.757 324.237 514.671C323.912 507.585 323.725 500.098 323.765 492.341C323.832 484.584 324.056 476.549 324.653 468.379C324.753 467.121 324.853 465.856 324.953 464.593C328.979 454.001 332.308 443.157 334.92 432.13C341.71 404.239 346.5 369.975 349.126 330.95Z" fill="#020100"/>
<path d="M313.109 617.147C312.996 615.228 312.86 612.897 312.703 610.224C312.586 607.562 312.455 604.56 312.311 601.285C312.093 594.785 311.838 587.196 311.564 579.068C311.491 577.051 311.416 575.002 311.338 572.923C311.246 570.856 311.153 568.767 311.059 566.654C310.938 564.564 310.816 562.46 310.693 560.341C310.529 558.241 310.453 556.241 310.193 554.026C309.997 551.861 309.801 549.699 309.605 547.54C309.362 545.316 309.269 543.101 309.156 540.911C308.923 536.526 308.918 532.223 309.001 528.07C309.084 523.917 309.323 519.915 309.613 516.131C309.927 512.347 310.313 508.782 310.744 505.5C311.175 502.218 311.659 499.221 312.136 496.572C312.613 493.923 313.115 491.624 313.526 489.734C313.782 488.584 314.017 487.608 314.226 486.777C314.541 486.261 314.858 485.758 315.169 485.228C315.176 485.293 315.181 485.341 315.188 485.409C315.271 486.441 315.462 487.958 315.597 489.875C315.94 493.715 316.358 499.181 316.789 505.7C317.222 512.181 317.728 519.743 318.269 527.845C318.576 531.869 318.891 536.016 319.286 540.198C319.466 542.293 319.705 544.398 319.94 546.491L320.626 553.015C320.856 555.14 320.926 557.498 321.067 559.737C321.216 562.006 321.167 564.181 321.223 566.383C321.257 570.76 321.095 575.052 320.86 579.19C320.408 586.716 319.578 594.215 318.374 601.658C317.32 608.187 316.133 613.581 315.184 617.336C314.747 619.217 314.294 620.682 314.025 621.683C313.725 622.683 313.563 623.212 313.563 623.212C313.563 623.212 313.515 622.66 313.426 621.623C313.362 620.589 313.206 619.069 313.109 617.147Z" fill="#020100"/>
<path d="M209.19 600.716C209.227 598.505 209.53 596.116 209.72 593.768C209.876 592.659 210.033 591.544 210.191 590.423C210.362 589.29 210.533 588.15 210.706 587.003C211.371 582.617 211.977 578.037 212.525 573.471C213.638 564.286 214.751 555.1 215.794 546.489C216.872 537.86 217.93 529.8 218.925 522.894C219.436 519.441 219.903 516.275 220.318 513.47C220.772 510.67 221.166 508.22 221.492 506.206C222.184 502.181 222.619 499.881 222.619 499.881C222.619 499.881 222.784 502.215 222.974 506.298C223.041 508.338 223.123 510.816 223.217 513.657C223.255 516.497 223.299 519.701 223.348 523.196C223.432 537.179 222.972 555.774 221.392 574.404C220.935 579.068 220.542 583.722 219.838 588.373C219.529 590.622 219.222 592.85 218.917 595.056C218.706 597.167 218.465 599.175 218.304 601.314C217.904 605.514 217.723 609.637 217.464 613.552C217.296 616.952 217.136 620.179 216.985 623.212C216.961 623.695 216.937 624.185 216.914 624.657C216.734 628.125 216.569 631.304 216.423 634.121C216.201 636.955 216.136 639.421 215.943 641.473C215.8 643.519 215.675 645.132 215.563 646.237C215.451 647.342 215.4 647.937 215.4 647.937C215.4 647.937 215.186 647.379 214.861 646.318C214.516 645.259 214.061 643.698 213.545 641.699C212.985 639.699 212.494 637.257 211.883 634.446C211.324 631.631 210.772 628.44 210.321 624.937C210.246 624.376 210.178 623.793 210.108 623.216C209.742 620.193 209.449 616.968 209.256 613.563C209.064 609.496 208.958 605.2 209.19 600.716Z" fill="#020100"/>
<path d="M192.273 378.134C192.573 368.819 193.153 359.839 193.837 351.343C194.237 347.098 194.59 342.971 195.019 338.984C195.493 335.001 195.901 331.153 196.384 327.466C196.85 323.952 197.324 320.591 197.804 317.384C200.185 362.055 205.26 401.052 212.823 432.129C213.779 436.058 214.778 439.829 215.809 443.478C215.886 445.643 215.964 447.806 216.041 449.965C216.157 452.507 216.174 454.977 216.159 457.452C216.144 459.927 216.159 462.392 216.159 464.852C216.103 474.664 215.666 484.29 215.091 493.577C214.761 498.22 214.456 502.777 214.045 507.235C213.634 511.693 213.209 516.041 212.738 520.274C211.778 528.735 210.71 536.712 209.58 544.056C207.316 558.743 204.824 570.896 202.854 579.367C201.898 583.606 200.975 586.915 200.408 589.176C199.808 591.433 199.445 592.63 199.445 592.63L199.17 589.057C199.034 586.733 198.747 583.318 198.523 578.991C198.274 574.663 198.029 569.417 197.77 563.411C197.511 557.405 197.29 550.641 197.064 543.277C196.878 535.927 196.677 527.965 196.464 519.543C196.287 511.156 196.1 502.311 195.907 493.161C195.733 488.599 195.712 483.961 195.584 479.277C195.507 476.938 195.429 474.585 195.35 472.218C195.288 469.855 195.289 467.471 195.173 465.096C194.987 460.358 194.799 455.588 194.611 450.786C194.497 448.424 194.383 446.057 194.268 443.686L194.084 440.117L193.809 436.443C193.49 431.555 193.171 426.673 192.853 421.798C192.448 416.81 192.341 411.846 192.184 406.933C191.962 402.013 192.016 397.15 192.016 392.34C191.983 387.53 192.134 382.796 192.273 378.134Z" fill="#020100"/>
<path d="M268.037 31.1559C268.038 32.2799 268.364 33.3794 268.976 34.3222C269.588 35.265 270.459 36.0109 271.485 36.4699V59.2619C270.266 59.8083 269.272 60.7563 268.668 61.9474C268.064 63.1386 267.887 64.5008 268.166 65.8068C268.446 67.1128 269.164 68.2836 270.203 69.1235C271.241 69.9633 272.537 70.4213 273.872 70.4213C275.208 70.4213 276.503 69.9633 277.541 69.1235C278.58 68.2836 279.299 67.1128 279.578 65.8068C279.858 64.5008 279.68 63.1386 279.076 61.9474C278.472 60.7563 277.478 59.8083 276.259 59.2619V36.4699C277.215 36.0399 278.038 35.3598 278.641 34.5014C279.243 33.643 279.603 32.638 279.682 31.5922C279.762 30.5465 279.558 29.4989 279.091 28.5595C278.625 27.6201 277.914 26.8238 277.033 26.2546C276.153 25.6853 275.135 25.3642 274.087 25.3249C273.039 25.2856 271.999 25.5297 271.078 26.0314C270.157 26.5332 269.389 27.2739 268.854 28.1757C268.318 29.0776 268.036 30.1072 268.037 31.1559ZM273.718 32.593C273.802 31.679 273.873 31.1559 273.873 31.1559C273.873 31.1559 273.943 31.679 274.027 32.593C274.111 33.507 274.24 34.8119 274.327 36.3779C274.527 39.5109 274.661 43.6889 274.666 47.8659C274.671 52.0429 274.527 56.2209 274.325 59.3539C274.236 60.9199 274.093 62.2259 274.025 63.1389C273.94 64.0529 273.871 64.5749 273.871 64.5749C273.871 64.5749 273.8 64.0529 273.716 63.1389C273.648 62.2259 273.505 60.9199 273.416 59.3539C273.216 56.2209 273.082 52.0429 273.076 47.8659C273.07 43.6889 273.212 39.5109 273.414 36.3779C273.5 34.8119 273.65 33.506 273.718 32.593Z" fill="#020100"/>
<path d="M273.873 448.038C272.538 448.037 271.243 448.494 270.205 449.332C269.166 450.171 268.447 451.341 268.168 452.646C267.888 453.952 268.065 455.313 268.669 456.504C269.272 457.694 270.267 458.641 271.485 459.187V481.981C270.266 482.527 269.272 483.475 268.668 484.667C268.064 485.858 267.887 487.22 268.166 488.526C268.446 489.832 269.164 491.003 270.203 491.843C271.241 492.682 272.537 493.14 273.872 493.14C275.208 493.14 276.503 492.682 277.541 491.843C278.58 491.003 279.299 489.832 279.578 488.526C279.858 487.22 279.68 485.858 279.076 484.667C278.472 483.475 277.478 482.527 276.259 481.981V459.189C277.477 458.644 278.472 457.697 279.076 456.507C279.68 455.316 279.858 453.955 279.578 452.649C279.299 451.344 278.58 450.174 277.542 449.335C276.503 448.496 275.208 448.04 273.873 448.041V448.038ZM273.718 455.309C273.802 454.395 273.873 453.873 273.873 453.873C273.873 453.873 273.943 454.395 274.027 455.309C274.111 456.223 274.24 457.528 274.327 459.095C274.527 462.228 274.661 466.405 274.666 470.582C274.671 474.759 274.527 478.937 274.325 482.07C274.236 483.637 274.093 484.942 274.025 485.856C273.94 486.77 273.871 487.292 273.871 487.292C273.871 487.292 273.8 486.77 273.716 485.856C273.648 484.942 273.505 483.637 273.416 482.07C273.216 478.937 273.082 474.76 273.076 470.582C273.07 466.404 273.212 462.228 273.414 459.095C273.5 457.528 273.65 456.223 273.718 455.309Z" fill="#020100"/>
<path d="M227.4 375.201C228.9 376.534 231.183 376.385 233.2 375.232C234.148 376.292 235.137 377.361 236.2 378.445C236.532 378.782 236.984 378.974 237.458 378.978C237.692 378.979 237.925 378.935 238.142 378.847C238.36 378.759 238.557 378.629 238.724 378.465C238.891 378.3 239.024 378.104 239.116 377.888C239.207 377.673 239.255 377.441 239.257 377.206C239.259 376.972 239.214 376.739 239.126 376.522C239.038 376.305 238.908 376.107 238.744 375.94C237.716 374.896 236.765 373.866 235.854 372.845C236.852 371.477 237.417 369.841 237.476 368.149C237.535 366.457 237.086 364.786 236.186 363.351C232.055 355.951 227.137 350.192 222.824 352.251C222.417 351.211 222.073 350.149 221.792 349.068C221.691 348.606 221.41 348.202 221.011 347.947C220.612 347.691 220.129 347.604 219.666 347.706C219.204 347.807 218.8 348.087 218.545 348.486C218.289 348.885 218.203 349.369 218.304 349.831C218.736 351.561 219.304 353.253 220.004 354.893C214.676 362.597 223.612 371.837 227.4 375.201ZM233.624 373.694C232.505 372.601 231.291 371.24 230.038 369.736C228.785 368.232 227.573 366.528 226.412 364.789C225.302 363.068 224.289 361.286 223.379 359.451C222.583 357.85 221.889 356.202 221.301 354.514C220.896 353.318 220.557 352.101 220.284 350.868C220.182 350.4 220.103 349.928 220.048 349.453C220.048 349.453 220.232 349.942 220.576 350.777C220.92 351.612 221.476 352.777 222.135 354.169C222.835 355.542 223.643 357.14 224.605 358.802C225.052 359.649 225.613 360.472 226.105 361.35L227.737 363.928C228.846 365.649 230.032 367.317 231.142 368.888L232.789 371.121C233.328 371.821 233.837 372.485 234.308 373.097C235.234 374.336 236.046 375.342 236.608 376.053C237.17 376.764 237.473 377.193 237.473 377.193C237.473 377.193 237.073 376.866 236.386 376.265C235.72 375.646 234.692 374.831 233.622 373.694H233.624Z" fill="#020100"/>
<path d="M322.512 351.469C318.699 354.857 309.661 364.207 315.239 371.942C314.234 373.1 313.146 374.184 311.984 375.184C311.634 375.483 311.413 375.906 311.367 376.364C311.321 376.822 311.454 377.28 311.737 377.643C312.021 378.006 312.434 378.245 312.89 378.31C313.346 378.375 313.81 378.262 314.184 377.994C315.506 376.889 316.739 375.681 317.872 374.383C322.199 376.528 327.143 370.754 331.293 363.319C332.252 361.796 332.697 360.005 332.565 358.21C332.432 356.415 331.728 354.71 330.555 353.344C331.073 352.07 331.582 350.754 332.074 349.37C332.224 348.926 332.192 348.441 331.987 348.02C331.782 347.598 331.42 347.275 330.978 347.118C330.537 346.961 330.051 346.984 329.627 347.182C329.202 347.38 328.872 347.737 328.708 348.176C328.349 349.187 327.977 350.151 327.602 351.1C325.781 350.288 323.842 350.288 322.512 351.469ZM316.412 372.65C317.342 371.421 318.42 369.991 319.494 368.4C320.058 367.625 320.553 366.761 321.128 365.936L322.728 363.336C323.788 361.585 324.768 359.787 325.693 358.101C326.139 357.248 326.57 356.423 326.98 355.642L328.091 353.411C328.801 352.035 329.349 350.865 329.744 350.048C330.139 349.231 330.391 348.771 330.391 348.771C330.391 348.771 330.274 349.278 330.032 350.155C329.764 351.022 329.481 352.303 328.932 353.762C328.438 355.247 327.748 356.935 326.943 358.719C326.138 360.503 325.143 362.342 324.086 364.147C323.028 365.9 321.871 367.593 320.62 369.215C319.531 370.632 318.353 371.978 317.093 373.246C316.195 374.134 315.248 374.972 314.258 375.756C313.883 376.053 313.492 376.33 313.088 376.586C313.088 376.586 313.448 376.208 314.049 375.533C314.65 374.858 315.457 373.853 316.416 372.65H316.412Z" fill="#020100"/>
<path d="M390.56 316.419C389.537 318.349 387.434 320.184 384.56 321.798C375.267 325.398 358.634 319.47 349.893 319.275C348.087 319.243 346.283 319.403 344.511 319.753C344.785 318.987 344.982 318.196 345.1 317.391C345.177 316.974 345.219 316.55 345.223 316.125C345.254 315.751 345.254 315.376 345.223 315.002C345.206 314.453 345.135 313.907 345.013 313.371L344.895 312.771L344.806 313.371C344.746 313.891 344.635 314.404 344.475 314.902C344.389 315.232 344.274 315.554 344.134 315.865C344.005 316.215 343.845 316.553 343.656 316.874C343.286 317.57 342.839 318.221 342.323 318.817C341.682 319.572 340.952 320.248 340.151 320.83C334.943 322.367 329.64 324.462 321.966 324.33C316.334 324.23 312.306 323.156 307.738 322.02C307.873 321.263 308.022 320.389 308.174 319.4C308.666 316.225 309.186 311.979 309.428 307.717C309.535 305.584 309.594 303.452 309.563 301.455C309.527 300.455 309.535 299.493 309.463 298.58C309.391 297.667 309.354 296.807 309.274 296.015L309.018 293.861C308.976 293.472 308.918 293.128 308.852 292.806C318.863 293.85 331.759 295.495 341.521 301.527L342.059 301.86L342.67 301.725C351.525 299.755 362.955 297.981 373.542 301.366C374.56 302.375 375.852 303.74 377.06 305.208C378.219 306.607 379.269 308.093 380.2 309.652C380.567 310.305 380.873 310.86 381.051 311.265L381.351 311.898L381.251 311.198C381.197 310.745 381.065 310.114 380.898 309.348C380.442 307.482 379.846 305.653 379.115 303.877C378.657 302.753 378.157 301.66 377.672 300.657C378.846 298.647 384.208 288.976 384.804 278.839C385.268 270.958 385.538 261.805 385.661 256.91C386.831 256.679 388.014 256.522 389.203 256.44C391.974 256.228 394.821 256.253 394.821 256.253C394.821 256.253 392.262 254.994 389.553 253.936C388.369 253.465 387.157 253.065 385.926 252.736L385.949 252.661L385.707 252.077C383.52 246.826 383.113 242.508 384.619 240.529C386.151 238.512 389.754 238.744 392.51 239.295C396.365 240.064 398.821 241.45 399.81 243.415C401.41 246.587 399.358 251.535 397.549 255.904L396.899 257.48L396.973 257.967C400.42 280.323 399.084 308.137 390.883 315.982L390.689 316.169L390.56 316.419Z" fill="#00217A"/>
<path d="M292.733 285.943C291.274 289.943 286.509 297.352 271.781 292.116C258.095 287.251 256.295 272.14 256.45 263.479C256.841 262.819 257.28 262.188 257.764 261.593C258.172 261.075 258.612 260.582 259.082 260.118C259.608 259.605 260.168 259.128 260.759 258.692C261.388 258.22 262.062 257.81 262.77 257.468C263.499 257.094 264.261 256.787 265.046 256.551C265.84 256.319 266.67 256.202 267.488 256.046C268.315 256.025 269.145 255.946 269.952 255.966L272.291 256.206C273.028 256.35 273.721 256.544 274.371 256.694C274.969 256.812 275.554 256.988 276.118 257.22L277.447 257.72L278.613 258.162L277.546 257.506L276.312 256.747C275.786 256.404 275.228 256.111 274.646 255.873C274.015 255.593 273.337 255.255 272.595 254.956L270.174 254.223C269.315 254.033 268.4 253.935 267.466 253.786C266.506 253.744 265.545 253.755 264.587 253.816C263.612 253.912 262.648 254.097 261.707 254.368C260.831 254.601 259.978 254.915 259.16 255.306C259.775 254.72 260.426 254.173 261.108 253.666C264.549 251.13 268.208 250.157 271.676 250.848C281.02 252.715 291.253 266.498 293.199 279.807C293.192 281.861 293.036 283.912 292.733 285.943Z" fill="#00217A"/>
<path d="M156.6 195.467C158.035 193.651 160.948 193.167 165.264 194.026C168.859 194.745 171.064 195.947 171.827 197.601C173 200.153 170.974 204.192 169.015 208.101L168.287 209.559L168.468 210.209C172.507 224.767 175.322 241.291 177.378 253.359C177.733 255.441 178.064 257.38 178.372 259.144C177.624 259.95 176.945 260.817 176.342 261.736C175.662 262.768 175.127 263.888 174.751 265.064C174.632 265.442 174.542 265.829 174.481 266.22C174.435 266.495 174.409 266.653 174.409 266.653L174.67 266.309C174.89 266.013 175.132 265.735 175.395 265.476C176.159 264.731 177.028 264.099 177.972 263.601C178.882 263.122 179.836 262.734 180.822 262.441C181.068 262.369 181.275 262.316 181.46 262.271C190.004 263.094 199.78 266.871 210.575 273.589L211.111 273.924L211.722 273.788C217.022 272.635 227.384 271.009 237.301 273.116L237.601 273.179L237.901 273.123C241.164 272.439 244.486 272.073 247.82 272.031C247.785 272.25 247.747 272.459 247.72 272.685C247.359 274.901 247.169 277.141 247.154 279.385C247.099 282.095 247.357 284.801 247.923 287.452C248.538 290.488 249.668 293.397 251.263 296.052C252.986 298.9 255.269 301.368 257.975 303.306C260.727 305.212 263.801 306.604 267.049 307.417C267.847 307.628 268.656 307.797 269.472 307.923C269.906 307.98 270.228 308.041 270.751 308.094L271.907 308.194C273.619 308.298 275.338 308.19 277.024 307.872C280.307 307.265 283.385 305.839 285.971 303.727C288.417 301.748 290.375 299.234 291.696 296.378C292.886 293.877 293.645 291.193 293.942 288.439C294.214 286.175 294.231 283.889 293.992 281.621C293.962 281.257 293.92 280.914 293.878 280.571C296.114 281.755 298.141 284.18 300.106 286.544C301.994 288.82 303.778 290.969 305.863 292.251L306.168 292.439L307.797 292.605L309.562 292.787C309.577 293.127 309.593 293.487 309.577 293.905C309.562 294.543 309.544 295.263 309.525 296.048C309.491 296.83 309.41 297.679 309.348 298.571C309.286 299.463 309.148 300.403 309.041 301.371C308.793 303.307 308.441 305.357 308.041 307.393C307.214 311.463 306.125 315.46 305.219 318.415C304.91 319.423 304.629 320.29 304.387 321.015C298.599 319.789 292.693 319.205 286.777 319.274C267.477 319.28 243.36 303.249 234.717 301.984C233.293 301.752 231.913 301.307 230.623 300.664C232.051 297.94 233.311 295.131 234.395 292.252C235.077 290.416 235.659 288.544 236.136 286.644C236.325 285.725 236.508 284.838 236.681 283.995C236.786 283.142 236.881 282.336 236.981 281.595C237.028 280.847 237.028 280.158 237.049 279.555C237.064 279.033 237.039 278.511 236.974 277.993L236.853 276.646C236.853 276.646 236.822 277.136 236.767 277.994C236.753 278.506 236.699 279.017 236.605 279.52C236.493 280.103 236.392 280.761 236.237 281.465C236.037 282.165 235.827 282.912 235.601 283.708C235.313 284.479 235.009 285.293 234.694 286.134C233.965 287.853 233.141 289.53 232.226 291.157C230.732 293.787 229.07 296.319 227.251 298.735C222.285 295.468 217.004 290.661 209.232 288.073C209.396 287.845 209.563 287.619 209.712 287.373C210.113 286.706 210.431 285.993 210.658 285.248C210.765 284.913 210.842 284.569 210.886 284.22C210.941 283.917 210.966 283.609 210.964 283.301C210.982 282.855 210.945 282.408 210.851 281.971L210.765 281.492L210.644 281.964C210.556 282.366 210.417 282.755 210.23 283.121C210.122 283.361 209.992 283.59 209.84 283.804C209.689 284.044 209.515 284.269 209.321 284.475C208.922 284.913 208.469 285.298 207.972 285.62C207.045 286.184 206.035 286.595 204.978 286.839C204.905 286.855 204.848 286.864 204.778 286.878C190.629 283.878 173.938 277.8 168.387 263.416C163.927 251.859 159.218 224.58 157.454 213.744C157.565 213.644 157.68 213.532 157.82 213.414C158.698 212.675 159.65 212.028 160.661 211.484C161.712 210.915 162.818 210.452 163.961 210.102C164.911 209.802 165.575 209.669 165.575 209.669C165.575 209.669 164.929 209.485 163.918 209.312C162.658 209.089 161.379 208.992 160.1 209.023C159.229 209.047 158.36 209.128 157.5 209.265L157.4 209.006C155.046 202.733 154.758 197.799 156.6 195.467Z" fill="#00217A"/>
<path d="M1.71481 174.781C-2.96419 199.142 5.33382 203.236 35.2558 208.981C124.156 226.053 132.477 209.032 153.633 209.692C153.993 211.114 154.438 212.513 154.964 213.882C152.425 230.332 152.164 260.7 162.174 273.775C167.485 282.997 183.674 293.531 200.174 298.952C202.04 351.098 207.387 396.323 215.919 431.376C228.79 484.258 248.289 511.076 273.876 511.076C299.463 511.076 318.962 484.262 331.832 431.376C338.732 403.048 343.54 368.076 346.12 328.176C346.574 327.983 347.044 327.798 347.469 327.591C366.9 330.123 387.306 324.96 392.477 316.203C402.565 306.632 402.095 276.483 399.387 259.264L399.66 258.634C399.952 257.962 400.249 257.276 400.539 256.584C426.57 262.108 419.804 282.826 516.476 301.391C546.399 307.137 555.622 306.408 560.3 282.046C564.978 257.684 556.681 253.591 526.759 247.846C430.252 229.313 428.704 250.96 402.606 246.546C402.469 245.692 402.194 244.867 401.793 244.101C400.319 241.313 397.23 239.507 392.351 238.578C387.133 237.578 383.471 238.362 381.458 240.878C381.105 241.322 380.81 241.808 380.579 242.326L371.765 240.634L348.165 236.102C347.374 183.585 343.438 138.202 336.42 101.009C329.743 65.624 320.461 39.1209 309.578 24.3669C294.186 3.50094 286.446 0.134033 273.878 0.134033C261.31 0.134033 253.565 3.50092 238.173 24.3679C227.29 39.1209 218.008 65.624 211.331 101.009C205.61 131.325 201.944 167.095 200.351 207.715L192.184 206.147L175.837 203.008C175.748 202.308 175.549 201.626 175.245 200.989C174.015 198.435 171.145 196.762 166.478 195.873C161.016 194.834 157.118 195.647 154.893 198.292C135.807 190.837 133.124 172.251 45.5429 155.432C15.6159 149.691 6.39281 150.42 1.71481 174.781ZM115.287 183.119C115.287 183.119 113.721 182.926 110.992 182.532C108.268 182.114 104.363 181.584 99.7011 180.827C95.0341 180.088 89.6011 179.175 83.788 178.147L74.833 176.532L65.6001 174.802L56.3808 172.99C53.3388 172.405 50.3568 171.76 47.4648 171.174C41.6848 169.974 36.2989 168.813 31.6919 167.769C27.0799 166.747 23.2567 165.79 20.5717 165.169C17.8907 164.525 16.3662 164.123 16.3662 164.123C16.3662 164.123 17.9311 164.315 20.6611 164.71C23.3851 165.128 27.2901 165.654 31.9531 166.41C36.6191 167.148 42.0527 168.06 47.8637 169.091C50.7637 169.617 53.7768 170.123 56.8188 170.706L66.0532 172.438L75.27 174.251L84.187 176.069C89.967 177.269 95.3529 178.43 99.9599 179.469C104.571 180.493 108.395 181.447 111.08 182.069C113.761 182.719 115.287 183.119 115.287 183.119ZM389.823 314.431C388.811 316.251 386.73 317.982 383.888 319.504C374.688 322.897 358.23 317.304 349.58 317.125C347.794 317.094 346.009 317.245 344.254 317.575C344.525 316.855 344.72 316.108 344.837 315.348C344.913 314.954 344.954 314.555 344.959 314.154C344.989 313.802 344.989 313.447 344.959 313.095C344.942 312.577 344.872 312.061 344.751 311.557C344.677 311.198 344.634 310.993 344.634 310.993C344.634 310.993 344.602 311.201 344.546 311.564C344.486 312.055 344.376 312.539 344.218 313.007C344.133 313.319 344.02 313.623 343.881 313.915C343.753 314.246 343.595 314.565 343.408 314.867C343.04 315.526 342.597 316.141 342.089 316.699C341.45 317.415 340.728 318.053 339.939 318.599C334.786 320.048 329.539 322.024 321.939 321.899C317.176 321.734 312.449 321.003 307.859 319.72C307.992 319.006 308.14 318.182 308.291 317.249C308.777 314.255 309.291 310.249 309.532 306.231C309.632 304.219 309.696 302.209 309.665 300.325C309.629 299.382 309.637 298.476 309.565 297.614C309.493 296.752 309.457 295.942 309.378 295.195C309.299 294.448 309.2 293.768 309.124 293.164C309.083 292.797 309.024 292.472 308.96 292.164C318.867 293.148 331.629 294.7 341.29 300.389L341.823 300.702L342.423 300.575C351.185 298.717 362.497 297.044 372.974 300.237C373.982 301.188 375.26 302.476 376.456 303.86C377.599 305.174 378.638 306.575 379.563 308.051C379.926 308.666 380.229 309.19 380.405 309.572L380.705 310.172L380.605 309.513C380.551 309.086 380.421 308.491 380.256 307.768C379.802 306.005 379.212 304.28 378.491 302.608C378.038 301.548 377.543 300.518 377.063 299.571C378.225 297.671 383.531 288.556 384.121 278.996C384.58 271.563 384.848 262.931 384.97 258.314C386.127 258.097 387.296 257.949 388.47 257.872C391.212 257.672 394.029 257.695 394.029 257.695C394.029 257.695 391.497 256.508 388.816 255.51C387.642 255.066 386.444 254.689 385.227 254.38L385.249 254.309L385.009 253.759C382.845 248.806 382.442 244.734 383.933 242.868C385.449 240.968 389.015 241.185 391.742 241.704C395.557 242.429 397.987 243.736 398.967 245.589C400.548 248.581 398.519 253.247 396.728 257.367L396.085 258.854L396.159 259.313C399.57 280.397 398.248 306.628 390.132 314.027L389.94 314.202L389.823 314.431ZM381.237 252.868C381.437 253.421 381.648 253.96 381.865 254.48C378.125 266.366 375.853 280.502 374.188 290.867C373.839 293.037 373.519 295.034 373.214 296.819L373.077 296.939C364.44 294.508 355.455 295.07 347.665 296.347C348.098 283.357 348.317 269.963 348.321 256.165C348.321 252.927 348.303 249.727 348.281 246.539L369.834 250.678L381.237 252.868ZM233.962 224.581C231.957 236.933 230.583 249.379 229.845 261.871C229.669 264.501 229.532 267.037 229.428 269.496C223.518 269.311 217.607 269.809 211.811 270.979C211.096 270.56 210.401 270.187 209.696 269.791C209.611 263.77 209.545 257.744 209.596 251.779C209.677 243.916 209.617 236.046 209.813 228.307C209.882 225.521 209.952 222.752 210.021 219.983L227.921 223.421C227.878 224.721 227.869 225.446 227.869 225.446C227.869 225.446 228.099 224.764 228.486 223.529L233.962 224.581ZM291.032 284.741C289.589 288.51 284.873 295.501 270.298 290.564C256.754 285.975 254.973 271.724 255.126 263.556C255.514 262.931 255.948 262.337 256.426 261.778C256.831 261.287 257.267 260.822 257.731 260.386C258.253 259.901 258.808 259.452 259.39 259.041C260.016 258.595 260.682 258.209 261.38 257.887C262.104 257.534 262.858 257.244 263.633 257.022C264.418 256.803 265.239 256.693 266.05 256.546C266.868 256.526 267.689 256.454 268.487 256.471L270.802 256.697C271.532 256.832 272.217 257.016 272.86 257.157C273.451 257.268 274.03 257.436 274.59 257.657L275.905 258.131L277.059 258.547C277.059 258.547 276.675 258.323 276.003 257.928L274.781 257.213C274.258 256.888 273.706 256.612 273.133 256.389C272.509 256.124 271.833 255.806 271.103 255.524L268.703 254.833C267.853 254.654 266.948 254.561 266.024 254.42C265.098 254.408 264.133 254.365 263.174 254.448C262.211 254.539 261.257 254.714 260.324 254.969C259.459 255.188 258.616 255.484 257.804 255.854C258.415 255.3 259.059 254.783 259.732 254.307C261.203 253.176 262.889 252.358 264.687 251.901C266.485 251.444 268.358 251.358 270.19 251.65C279.437 253.41 289.564 266.409 291.49 278.961C291.485 280.898 291.332 282.832 291.032 284.746V284.741ZM172.879 212.851L190.25 216.187L199.988 218.057C199.62 230.346 199.432 243.046 199.424 256.157C199.424 259.032 199.435 261.89 199.456 264.729C193.922 262.307 188.046 260.757 182.037 260.135C181.716 258.396 181.371 256.468 181 254.389C178.983 243.107 176.231 227.719 172.283 213.982L172.407 213.749C172.564 213.457 172.722 213.157 172.879 212.856V212.851ZM319.248 240.959L342.048 245.338C342.077 248.905 342.097 252.5 342.097 256.16C342.097 269.916 341.867 283.507 341.408 296.824C335.268 293.543 328.235 291.702 321.463 290.553C321.91 280.993 321.782 271.415 321.079 261.871C320.572 254.24 319.959 247.294 319.248 240.964V240.959ZM214.9 367.681C213.325 353.018 212.27 337.804 211.366 322.333C211.024 316.285 210.753 310.186 210.518 304.07C214.843 307.047 219.442 309.605 224.252 311.71C224.307 312.351 224.364 312.998 224.421 313.668C224.655 315.299 224.85 317.024 225.227 318.808C225.902 322.726 226.987 326.563 228.465 330.254C230.145 334.558 232.573 338.532 235.636 341.991C237.298 343.875 239.184 345.548 241.252 346.974C243.354 348.463 245.627 349.695 248.021 350.646C252.763 352.473 257.758 353.557 262.83 353.86C267.79 354.217 272.53 354.15 277.2 354.069C281.926 354.06 286.643 353.65 291.3 352.844C295.846 352.051 300.221 350.476 304.229 348.188C305.175 347.64 306.091 347.043 306.973 346.397L309.438 344.397C310.195 343.691 310.866 342.92 311.555 342.208L312.555 341.131L313.406 339.974L315.035 337.743C315.51 336.985 315.919 336.213 316.323 335.468C316.727 334.723 317.131 334.008 317.469 333.289L318.092 331.752C319.866 331.844 321.62 331.899 323.334 331.899C328.842 331.955 334.339 331.394 339.721 330.224C333.06 428.767 312.151 504.85 273.872 504.85L272.424 504.739C271.833 504.705 271.244 504.633 270.662 504.524C269.857 504.417 269.06 504.259 268.275 504.05C263.146 502.714 258.433 500.113 254.569 496.486C249.469 491.98 244.605 485.148 240.287 476.699C235.601 467.11 231.813 457.108 228.973 446.82C225.622 434.856 222.887 422.728 220.78 410.483C224.848 417.39 229.793 423.743 235.49 429.383C239.465 433.314 243.976 436.661 248.89 439.326C254.015 442.092 259.611 443.878 265.39 444.593C266.836 444.787 268.293 444.887 269.752 444.893L270.843 444.928L271.115 444.937H271.184H271.323L271.453 444.931L271.975 444.906L274.058 444.806C275.412 444.788 276.922 444.529 278.358 444.371C279.819 444.228 281.183 443.849 282.589 443.598C288.024 442.366 293.222 440.251 297.973 437.338C302.377 434.641 306.424 431.4 310.019 427.692C313.2 424.386 316.086 420.808 318.644 416.999C320.811 413.807 322.757 410.471 324.469 407.014C325.774 404.351 326.913 401.61 327.879 398.806C328.744 396.374 329.411 393.876 329.872 391.337C329.872 391.337 328.757 393.921 326.572 398.26C325.483 400.43 324.134 403.044 322.479 405.97C320.656 409.255 318.659 412.439 316.497 415.511C313.943 419.123 311.079 422.505 307.936 425.618C304.442 429.052 300.53 432.033 296.292 434.491C291.797 437.104 286.903 438.96 281.806 439.986C279.204 440.504 276.565 440.814 273.914 440.912L271.829 440.963L271.307 440.976H271.177C271.177 440.976 271.059 440.976 271.186 440.976H271.123L270.874 440.961L269.874 440.902C268.545 440.866 267.219 440.745 265.906 440.541C260.658 439.808 255.593 438.102 250.97 435.511C246.46 432.972 242.332 429.805 238.712 426.105C232.263 419.396 226.795 411.809 222.471 403.568C220.879 400.611 219.519 397.807 218.341 395.204C217.055 386.291 215.908 377.116 214.9 367.681ZM314.552 331.503L314.494 331.596C314.071 332.196 313.578 332.77 313.11 333.378C312.621 333.972 312.175 334.617 311.664 335.23L309.964 336.978L309.1 337.878L308.115 338.672C307.444 339.193 306.801 339.765 306.091 340.267L303.851 341.672C303.067 342.123 302.259 342.531 301.43 342.894C297.866 344.459 294.08 345.463 290.209 345.87C285.876 346.307 281.519 346.463 277.165 346.338C272.565 346.243 267.875 346.272 263.44 345.904C259.141 345.668 254.896 344.835 250.827 343.43C247.058 342.061 243.623 339.904 240.754 337.103C237.991 334.36 235.683 331.195 233.915 327.727C232.219 324.497 230.796 321.131 229.661 317.663C229.178 316.217 228.753 314.813 228.361 313.449C230.007 314.106 231.685 314.743 233.415 315.349C241.48 341.323 259.671 341.449 275.461 341.449C287.1 341.449 300.04 341.373 309.272 330.935C311.047 331.166 312.806 331.355 314.55 331.503H314.552ZM157.3 200.363C158.72 198.65 161.6 198.19 165.874 199.004C169.432 199.682 171.617 200.815 172.374 202.375C173.535 204.782 171.53 208.592 169.591 212.275L168.871 213.65L169.05 214.263C173.05 227.992 175.833 243.576 177.867 254.957C178.219 256.921 178.546 258.75 178.851 260.413C178.114 261.17 177.441 261.987 176.842 262.857C176.172 263.824 175.643 264.881 175.268 265.996C175.151 266.352 175.061 266.716 175 267.086L174.929 267.495L175.188 267.17C175.406 266.89 175.645 266.627 175.904 266.385C176.666 265.678 177.526 265.083 178.455 264.617C179.358 264.163 180.302 263.797 181.275 263.523C181.519 263.455 181.724 263.404 181.906 263.362C190.362 264.139 200.036 267.702 210.719 274.036L211.25 274.352L211.85 274.224C217.091 273.136 227.35 271.602 237.163 273.59L237.463 273.649L237.763 273.596C240.996 272.951 244.282 272.606 247.579 272.567C247.545 272.773 247.507 272.967 247.479 273.183C247.122 275.271 246.935 277.384 246.919 279.502C246.866 282.059 247.121 284.614 247.68 287.11C248.295 289.989 249.413 292.736 250.986 295.224C252.712 297.931 254.972 300.259 257.628 302.064C260.372 303.871 263.411 305.183 266.608 305.942C267.4 306.142 268.201 306.301 269.008 306.418C269.436 306.472 269.756 306.53 270.273 306.58L271.417 306.671C273.111 306.77 274.811 306.67 276.481 306.371C279.707 305.808 282.746 304.466 285.335 302.461C287.735 300.621 289.674 298.249 291.001 295.531C292.175 293.185 292.927 290.651 293.223 288.044C293.494 285.91 293.51 283.752 293.273 281.614C293.243 281.271 293.202 280.948 293.16 280.623C295.373 281.74 297.379 284.023 299.323 286.257C300.931 288.337 302.854 290.153 305.023 291.639L305.323 291.816L306.936 291.973L308.683 292.144C308.698 292.465 308.713 292.808 308.698 293.199C308.683 293.799 308.665 294.479 308.646 295.22C308.627 295.961 308.532 296.758 308.471 297.599C308.41 298.44 308.271 299.327 308.171 300.24C307.925 302.066 307.571 303.999 307.18 305.919C306.362 309.758 305.28 313.527 304.388 316.319C304.082 317.269 303.803 318.087 303.564 318.77C297.829 317.614 291.988 317.063 286.137 317.128C267.037 317.134 243.17 302.015 234.617 300.822C233.213 300.605 231.848 300.185 230.565 299.577C231.977 297.014 233.224 294.364 234.299 291.643C234.973 289.915 235.548 288.15 236.021 286.356C236.208 285.489 236.389 284.656 236.561 283.856C236.661 283.056 236.761 282.291 236.854 281.589C236.901 280.883 236.9 280.233 236.921 279.665C236.936 279.173 236.911 278.68 236.847 278.192C236.771 277.384 236.727 276.922 236.727 276.922C236.727 276.922 236.696 277.384 236.642 278.193C236.628 278.676 236.574 279.158 236.482 279.632C236.371 280.182 236.271 280.802 236.118 281.466C235.923 282.121 235.712 282.831 235.488 283.581L234.588 285.869C233.864 287.493 233.049 289.075 232.145 290.606C230.662 293.093 229.018 295.481 227.222 297.753C222.307 294.672 217.081 290.139 209.39 287.698C209.552 287.483 209.717 287.27 209.864 287.041C210.26 286.417 210.574 285.745 210.801 285.041C210.906 284.726 210.982 284.401 211.026 284.072C211.08 283.787 211.106 283.497 211.104 283.206C211.122 282.785 211.084 282.363 210.992 281.951C210.937 281.663 210.906 281.499 210.906 281.499L210.787 281.945C210.699 282.325 210.562 282.692 210.378 283.036C210.27 283.263 210.141 283.478 209.991 283.68C209.842 283.907 209.67 284.119 209.478 284.312C209.08 284.727 208.631 285.09 208.142 285.392C207.22 285.926 206.221 286.314 205.18 286.542C205.107 286.557 205.051 286.566 204.98 286.579C190.98 283.753 174.46 278.017 168.966 264.452C164.553 253.552 159.893 227.827 158.147 217.607C158.257 217.507 158.37 217.407 158.509 217.296C159.382 216.596 160.324 215.986 161.32 215.475C162.364 214.939 163.457 214.503 164.584 214.175C165.523 213.893 166.184 213.767 166.184 213.767C166.184 213.767 165.544 213.593 164.544 213.431C163.296 213.22 162.031 213.128 160.766 213.158C159.903 213.18 159.042 213.256 158.189 213.386L158.089 213.141C155.764 207.215 155.479 202.562 157.3 200.363ZM210.257 209.625C210.297 208.183 210.336 206.74 210.404 205.304C210.552 201.508 210.7 197.736 210.847 193.988C210.921 192.115 210.995 190.248 211.07 188.388C211.182 186.532 211.293 184.683 211.405 182.841C211.845 175.474 212.262 168.225 212.859 161.15C213.134 157.609 213.405 154.109 213.673 150.65C214.022 147.198 214.367 143.79 214.707 140.425C215.195 135.517 215.738 130.721 216.337 126.037C217.86 122.751 219.747 119.025 222.099 115.037C226.648 107.12 232.373 99.9404 239.079 93.7439C242.86 90.3338 247.086 87.454 251.643 85.1831C256.336 82.8636 261.39 81.361 266.588 80.74C267.893 80.5729 269.206 80.4727 270.521 80.4399L271.507 80.384C271.718 80.376 272.154 80.395 272.466 80.3979L274.512 80.4431C277.132 80.535 279.741 80.814 282.321 81.2781C287.372 82.1756 292.259 83.8315 296.816 86.1899C304.938 90.5045 312.035 96.5172 317.626 103.819C319.891 106.735 321.994 109.772 323.926 112.919C325.65 115.736 327.094 118.241 328.188 120.359C329.266 122.482 330.136 124.152 330.657 125.324L331.471 127.124C331.471 127.124 331.336 126.448 330.977 125.209C330.596 123.98 330.077 122.151 329.159 119.92C326.703 113.693 323.419 107.824 319.397 102.473C313.764 94.7335 306.53 88.2988 298.186 83.6069C293.42 80.9911 288.287 79.1087 282.96 78.0229C280.214 77.4589 277.432 77.0915 274.634 76.9231L272.589 76.8291C272.219 76.8161 271.972 76.7911 271.501 76.7871L270.439 76.8181C269.019 76.8208 267.6 76.8954 266.188 77.042C260.541 77.6074 255.032 79.1356 249.9 81.5601C244.961 83.9111 240.365 86.9223 236.238 90.511C229.116 96.808 223.031 104.187 218.205 112.377C218.687 109.071 219.176 105.833 219.671 102.664C221.771 91.0641 223.771 80.4201 226.246 71.1641C228.26 63.1395 230.701 55.2283 233.558 47.4641C234.919 44.3131 236.006 41.425 237.151 39.01C238.359 36.629 239.305 34.5439 240.221 32.9419L243.17 28.092C258.462 7.36304 264.609 6.38599 273.87 6.38599C283.131 6.38599 289.277 7.36304 304.57 28.092C322.131 51.899 339.997 116.771 341.92 234.935L317.87 230.317C310.601 181.026 295.848 177.03 275.462 177.03C257.5 177.03 243.912 180.136 235.962 214.587L231.462 213.723C231.527 213.523 231.588 213.323 231.654 213.123C232.446 210.606 233.322 207.783 234.429 204.756C235.421 201.686 236.829 198.524 238.19 195.169C238.977 193.56 239.785 191.91 240.613 190.219C241.607 188.663 242.468 186.967 243.547 185.43C245.638 182.342 248.235 179.628 251.229 177.404C254.363 175.289 257.912 173.867 261.64 173.235C265.658 172.526 269.729 172.165 273.808 172.155L276.951 172.131L279.96 172.161C281.943 172.22 283.885 172.376 285.752 172.59C289.263 172.976 292.675 173.989 295.827 175.583C298.649 177.112 301.207 179.084 303.405 181.423C304.404 182.52 305.347 183.668 306.227 184.863C307.076 185.935 307.858 187.058 308.569 188.226C309.99 190.4 311.054 192.433 311.986 194.092C313.72 197.505 314.71 199.455 314.71 199.455C314.71 199.455 314.61 198.915 314.42 197.902C314.191 196.902 313.978 195.384 313.466 193.519C312.885 191.247 312.158 189.015 311.289 186.837C310.181 183.924 308.738 181.15 306.989 178.57C304.825 175.384 302.091 172.626 298.924 170.434C295.287 168.05 291.213 166.411 286.938 165.614C284.768 165.188 282.576 164.887 280.372 164.714L277.046 164.5L273.786 164.419C269.197 164.282 264.606 164.617 260.086 165.419C255.245 166.288 250.666 168.249 246.696 171.152C244.787 172.604 243.051 174.269 241.522 176.116C240.039 177.842 238.72 179.702 237.58 181.671C236.465 183.571 235.604 185.521 234.688 187.396C233.974 189.323 233.277 191.206 232.598 193.043C232.066 194.907 231.561 196.713 231.098 198.467C230.59 200.211 230.37 201.939 230.02 203.567C229.731 205.21 229.342 206.751 229.178 208.267C228.998 209.772 228.828 211.196 228.668 212.541C228.643 212.763 228.616 212.967 228.59 213.184L210.257 209.625ZM379.982 244.386C379.891 244.968 379.848 245.557 379.854 246.147C369.809 244.296 359.206 242.332 348.227 240.247L281.172 227.531L214.178 214.503C200.563 211.859 187.55 209.257 175.472 206.841C175.619 206.316 175.731 205.781 175.806 205.241C187.913 207.469 200.955 209.871 214.57 212.456L281.625 225.171L348.625 238.197C359.52 240.308 370.029 242.396 379.986 244.381L379.982 244.386ZM546.338 266.136C543.613 265.718 539.708 265.191 535.046 264.436C530.38 263.699 524.946 262.787 519.133 261.756C516.233 261.229 513.221 260.724 510.178 260.14L500.945 258.409L491.728 256.596L482.811 254.778C477.031 253.578 471.646 252.416 467.038 251.378C462.427 250.354 458.604 249.4 455.918 248.778C453.237 248.133 451.712 247.733 451.712 247.733C451.712 247.733 453.277 247.926 456.006 248.32C458.73 248.739 462.635 249.268 467.298 250.026C471.964 250.764 477.398 251.677 483.21 252.706L492.165 254.32L501.399 256.051L510.617 257.862C513.659 258.447 516.641 259.092 519.533 259.679C525.313 260.874 530.698 262.04 535.306 263.079C539.918 264.102 543.741 265.058 546.426 265.679C549.107 266.324 550.632 266.725 550.632 266.725C550.632 266.725 549.071 266.53 546.342 266.136H546.338ZM446.721 273.711C446.721 273.711 448.287 273.904 451.016 274.299C453.74 274.717 457.645 275.247 462.307 275.999C466.974 276.738 472.407 277.65 478.22 278.679L487.175 280.294L496.409 282.024L505.627 283.836C508.669 284.42 511.651 285.065 514.543 285.652C520.323 286.852 525.709 288.013 530.316 289.052C534.928 290.075 538.751 291.032 541.436 291.652C544.117 292.296 545.642 292.698 545.642 292.698C545.642 292.698 544.076 292.505 541.348 292.111C538.623 291.693 534.718 291.166 530.056 290.411C525.389 289.673 519.956 288.761 514.143 287.73C511.243 287.204 508.231 286.698 505.188 286.115L495.955 284.383L486.737 282.57L477.821 280.752C472.041 279.552 466.656 278.39 462.048 277.347C457.437 276.324 453.614 275.37 450.928 274.747C448.251 274.112 446.725 273.711 446.725 273.711H446.721ZM402.533 250.327C402.613 249.856 402.664 249.388 402.696 248.927L407.02 249.786C424.112 253.177 438.328 256.15 448.292 258.163L463.935 261.405L448.204 258.622C438.204 256.801 423.898 254.296 406.765 251.115L402.533 250.327ZM114.506 194.536L98.8628 191.295L114.594 194.079C124.076 195.806 137.433 198.151 153.394 201.099C153.266 201.518 153.166 201.945 153.094 202.377C137.2 199.207 123.947 196.442 114.51 194.536H114.506ZM11.372 190.108C11.372 190.108 12.937 190.3 15.666 190.695C18.391 191.113 22.296 191.64 26.958 192.395C31.624 193.133 37.0581 194.045 42.8711 195.076C45.7711 195.602 48.7822 196.108 51.8252 196.691L61.059 198.423L70.2758 200.236L79.1928 202.054C84.9718 203.254 90.3578 204.416 94.9658 205.454C99.5768 206.478 103.4 207.432 106.086 208.054C108.767 208.698 110.293 209.099 110.293 209.099C110.293 209.099 108.727 208.906 105.998 208.511C103.274 208.093 99.369 207.563 94.706 206.806C90.04 206.067 84.6059 205.154 78.7939 204.125L69.8379 202.511L60.6049 200.781L51.3881 198.969C48.3442 198.385 45.3642 197.74 42.4712 197.153C36.6912 195.953 31.3062 194.792 26.6982 193.748C22.0862 192.726 18.2631 191.769 15.5781 191.148C12.9001 190.51 11.3759 190.108 11.3759 190.108H11.372Z" fill="#020100"/>
</svg>
