<svg width="562" height="667" viewBox="0 0 562 667" fill="none" xmlns="http://www.w3.org/2000/svg">
<path d="M349.126 340.674C349.472 343.234 349.82 346.028 350.163 349.079C350.729 354.226 351.241 360.054 351.67 366.418C351.879 369.601 352.009 372.916 352.191 376.353C352.327 379.79 352.391 383.341 352.481 387C352.56 394.309 352.51 402.03 352.163 410.029C351.979 414.031 351.809 418.093 351.454 422.211C351.128 426.329 350.854 430.499 350.304 434.698C349.824 438.895 349.381 443.14 348.655 447.386C348.026 451.504 347.396 455.636 346.762 459.783C346.013 464.004 345.624 467.851 345.062 471.861C344.575 475.91 344.09 479.94 343.607 483.951C343.344 485.957 343.192 487.984 342.984 489.986C342.76 491.992 342.538 493.986 342.317 495.97C341.899 499.941 341.59 503.886 341.143 507.755C339.643 523.346 338.236 537.899 337.033 550.374C336.363 556.654 335.75 562.409 335.206 567.51C334.619 572.621 334.094 577.084 333.62 580.77C333.168 584.453 332.714 587.359 332.459 589.334C332.165 591.317 332.008 592.374 332.008 592.374C332.008 592.374 331.743 591.334 331.332 589.377C330.947 587.421 330.3 584.543 329.679 580.872C328.379 573.533 326.834 563.014 325.66 550.328C325.075 543.987 324.589 537.103 324.237 529.808C323.912 522.513 323.725 514.806 323.765 506.82C323.832 498.835 324.056 490.563 324.653 482.152C324.753 480.857 324.853 479.555 324.953 478.255C328.979 467.35 332.308 456.187 334.92 444.835C341.71 416.123 346.5 380.849 349.126 340.674Z" fill="#020100"/>
<path d="M313.109 635.303C312.996 633.327 312.86 630.928 312.703 628.176C312.586 625.436 312.455 622.345 312.311 618.974C312.093 612.282 311.838 604.47 311.564 596.102C311.491 594.025 311.416 591.917 311.338 589.776C311.246 587.649 311.153 585.497 311.059 583.322C310.938 581.171 310.816 579.005 310.693 576.823C310.529 574.662 310.453 572.603 310.193 570.323C309.997 568.093 309.801 565.868 309.605 563.645C309.362 561.356 309.269 559.075 309.156 556.821C308.923 552.307 308.918 547.877 309.001 543.602C309.084 539.326 309.323 535.207 309.613 531.311C309.927 527.416 310.313 523.745 310.744 520.367C311.175 516.988 311.659 513.903 312.136 511.176C312.613 508.449 313.115 506.082 313.526 504.136C313.782 502.952 314.017 501.948 314.226 501.092C314.541 500.561 314.858 500.043 315.169 499.498C315.176 499.564 315.181 499.614 315.188 499.684C315.271 500.746 315.462 502.308 315.597 504.281C315.94 508.235 316.358 513.862 316.789 520.573C317.222 527.245 317.728 535.029 318.269 543.37C318.576 547.513 318.891 551.782 319.286 556.087C319.466 558.244 319.705 560.411 319.94 562.565L320.626 569.281C320.856 571.469 320.926 573.897 321.067 576.202C321.216 578.538 321.167 580.777 321.223 583.043C321.257 587.549 321.095 591.968 320.86 596.228C320.408 603.976 319.578 611.695 318.374 619.358C317.32 626.079 316.133 631.632 315.184 635.497C314.747 637.434 314.294 638.942 314.025 639.973C313.725 641.002 313.563 641.547 313.563 641.547C313.563 641.547 313.515 640.978 313.426 639.911C313.362 638.846 313.206 637.282 313.109 635.303Z" fill="#020100"/>
<path d="M209.19 618.388C209.227 616.112 209.53 613.652 209.72 611.235C209.876 610.093 210.033 608.945 210.191 607.792C210.362 606.625 210.533 605.451 210.706 604.271C211.371 599.756 211.977 595.041 212.525 590.34C213.638 580.885 214.751 571.428 215.794 562.563C216.872 553.68 217.93 545.383 218.925 538.273C219.436 534.718 219.903 531.459 220.318 528.571C220.772 525.689 221.166 523.167 221.492 521.094C222.184 516.95 222.619 514.582 222.619 514.582C222.619 514.582 222.784 516.985 222.974 521.188C223.041 523.288 223.123 525.839 223.217 528.764C223.255 531.688 223.299 534.986 223.348 538.584C223.432 552.979 222.972 572.122 221.392 591.301C220.935 596.102 220.542 600.893 219.838 605.681C219.529 607.997 219.222 610.29 218.917 612.561C218.706 614.734 218.465 616.801 218.304 619.003C217.904 623.327 217.723 627.572 217.464 631.602C217.296 635.102 217.136 638.424 216.985 641.546C216.961 642.044 216.937 642.548 216.914 643.034C216.734 646.604 216.569 649.877 216.423 652.777C216.201 655.695 216.136 658.233 215.943 660.345C215.8 662.452 215.675 664.112 215.563 665.25C215.451 666.388 215.4 667 215.4 667C215.4 667 215.186 666.426 214.861 665.333C214.516 664.243 214.061 662.636 213.545 660.578C212.985 658.519 212.494 656.005 211.883 653.112C211.324 650.214 210.772 646.929 210.321 643.322C210.246 642.745 210.178 642.145 210.108 641.551C209.742 638.439 209.449 635.119 209.256 631.613C209.064 627.426 208.958 623.004 209.19 618.388Z" fill="#020100"/>
<path d="M192.273 389.248C192.573 379.659 193.153 370.414 193.837 361.668C194.237 357.298 194.59 353.049 195.019 348.945C195.493 344.845 195.901 340.883 196.384 337.088C196.85 333.47 197.324 330.011 197.804 326.709C200.185 372.696 205.26 412.842 212.823 444.834C213.779 448.879 214.778 452.761 215.809 456.518C215.886 458.747 215.964 460.973 216.041 463.196C216.157 465.813 216.174 468.355 216.159 470.903C216.144 473.451 216.159 475.989 216.159 478.521C216.103 488.622 215.666 498.532 215.091 508.092C214.761 512.872 214.456 517.564 214.045 522.153C213.634 526.742 213.209 531.218 212.738 535.576C211.778 544.286 210.71 552.498 209.58 560.059C207.316 575.178 204.824 587.689 202.854 596.41C201.898 600.774 200.975 604.18 200.408 606.508C199.808 608.831 199.445 610.064 199.445 610.064L199.17 606.385C199.034 603.993 198.747 600.477 198.523 596.023C198.274 591.567 198.029 586.167 197.77 579.984C197.511 573.801 197.29 566.838 197.064 559.257C196.878 551.69 196.677 543.494 196.464 534.823C196.287 526.189 196.1 517.084 195.907 507.664C195.733 502.968 195.712 498.193 195.584 493.371C195.507 490.964 195.429 488.541 195.35 486.104C195.288 483.672 195.289 481.217 195.173 478.772C194.987 473.895 194.799 468.984 194.611 464.041C194.497 461.609 194.383 459.173 194.268 456.732L194.084 453.057L193.809 449.275C193.49 444.243 193.171 439.218 192.853 434.199C192.448 429.064 192.341 423.954 192.184 418.896C191.962 413.831 192.016 408.825 192.016 403.873C191.983 398.921 192.134 394.048 192.273 389.248Z" fill="#020100"/>
<path d="M268.037 32.0481C268.038 33.2051 268.364 34.337 268.976 35.3076C269.588 36.2782 270.459 37.0461 271.485 37.5186V60.982C270.266 61.5445 269.272 62.5205 268.668 63.7467C268.064 64.973 267.887 66.3753 268.166 67.7198C268.446 69.0643 269.164 70.2696 270.203 71.1342C271.241 71.9987 272.537 72.4702 273.872 72.4702C275.208 72.4702 276.503 71.9987 277.541 71.1342C278.58 70.2696 279.299 69.0643 279.578 67.7198C279.858 66.3753 279.68 64.973 279.076 63.7467C278.472 62.5205 277.478 61.5445 276.259 60.982V37.5186C277.215 37.0759 278.038 36.3758 278.641 35.4921C279.243 34.6084 279.603 33.5737 279.682 32.4972C279.762 31.4207 279.558 30.3422 279.091 29.3751C278.625 28.4081 277.914 27.5883 277.033 27.0023C276.153 26.4163 275.135 26.0857 274.087 26.0452C273.039 26.0048 271.999 26.2561 271.078 26.7726C270.157 27.2891 269.389 28.0516 268.854 28.98C268.318 29.9085 268.036 30.9684 268.037 32.0481V32.0481ZM273.718 33.5274C273.802 32.5865 273.873 32.0481 273.873 32.0481C273.873 32.0481 273.943 32.5865 274.027 33.5274C274.111 34.4683 274.24 35.8117 274.327 37.4238C274.527 40.6491 274.661 44.9503 274.666 49.2503C274.671 53.5504 274.527 57.8515 274.325 61.0768C274.236 62.6889 274.093 64.0333 274.025 64.9732C273.94 65.9141 273.871 66.4516 273.871 66.4516C273.871 66.4516 273.8 65.9141 273.716 64.9732C273.648 64.0333 273.505 62.6889 273.416 61.0768C273.216 57.8515 273.082 53.5504 273.076 49.2503C273.07 44.9503 273.212 40.6491 273.414 37.4238C273.5 35.8117 273.65 34.4673 273.718 33.5274Z" fill="#020100"/>
<path d="M273.873 461.212C272.538 461.211 271.243 461.681 270.205 462.544C269.166 463.408 268.447 464.612 268.168 465.956C267.888 467.3 268.065 468.701 268.669 469.927C269.272 471.152 270.267 472.128 271.485 472.689V496.155C270.266 496.717 269.272 497.693 268.668 498.919C268.064 500.146 267.887 501.548 268.166 502.893C268.446 504.237 269.164 505.442 270.203 506.307C271.241 507.171 272.537 507.643 273.872 507.643C275.208 507.643 276.503 507.171 277.541 506.307C278.58 505.442 279.299 504.237 279.578 502.893C279.858 501.548 279.68 500.146 279.076 498.919C278.472 497.693 277.478 496.717 276.259 496.155V472.691C277.477 472.13 278.472 471.155 279.076 469.93C279.68 468.704 279.858 467.303 279.578 465.959C279.299 464.615 278.58 463.411 277.542 462.547C276.503 461.684 275.208 461.213 273.873 461.215V461.212ZM273.718 468.697C273.802 467.756 273.873 467.219 273.873 467.219C273.873 467.219 273.943 467.756 274.027 468.697C274.111 469.638 274.24 470.981 274.327 472.595C274.527 475.82 274.661 480.12 274.666 484.42C274.671 488.72 274.527 493.021 274.325 496.247C274.236 497.86 274.093 499.203 274.025 500.144C273.94 501.085 273.871 501.622 273.871 501.622C273.871 501.622 273.8 501.085 273.716 500.144C273.648 499.203 273.505 497.86 273.416 496.247C273.216 493.021 273.082 488.721 273.076 484.42C273.07 480.119 273.212 475.82 273.414 472.595C273.5 470.981 273.65 469.638 273.718 468.697V468.697Z" fill="#020100"/>
<path d="M227.4 386.229C228.9 387.601 231.183 387.448 233.2 386.261C234.148 387.352 235.137 388.453 236.2 389.569C236.532 389.916 236.984 390.113 237.458 390.117C237.692 390.119 237.925 390.073 238.142 389.982C238.36 389.892 238.557 389.758 238.724 389.589C238.891 389.419 239.024 389.218 239.116 388.996C239.207 388.773 239.255 388.535 239.257 388.293C239.259 388.052 239.214 387.813 239.126 387.589C239.038 387.365 238.908 387.162 238.744 386.99C237.716 385.915 236.765 384.855 235.854 383.803C236.852 382.395 237.417 380.711 237.476 378.969C237.535 377.227 237.086 375.507 236.186 374.03C232.055 366.412 227.137 360.483 222.824 362.603C222.417 361.532 222.073 360.438 221.792 359.326C221.691 358.85 221.41 358.435 221.011 358.172C220.612 357.908 220.129 357.819 219.666 357.923C219.204 358.028 218.8 358.317 218.545 358.727C218.289 359.137 218.203 359.635 218.304 360.112C218.736 361.892 219.304 363.635 220.004 365.323C214.676 373.254 223.612 382.766 227.4 386.229ZM233.624 384.678C232.505 383.552 231.291 382.151 230.038 380.603C228.785 379.055 227.573 377.3 226.412 375.51C225.302 373.738 224.289 371.904 223.379 370.015C222.583 368.367 221.889 366.67 221.301 364.932C220.896 363.701 220.557 362.448 220.284 361.179C220.182 360.698 220.103 360.212 220.048 359.722C220.048 359.722 220.232 360.226 220.576 361.085C220.92 361.945 221.476 363.144 222.135 364.577C222.835 365.991 223.643 367.636 224.605 369.347C225.052 370.219 225.613 371.066 226.105 371.97L227.737 374.624C228.846 376.395 230.032 378.113 231.142 379.73L232.789 382.029C233.328 382.749 233.837 383.433 234.308 384.063C235.234 385.338 236.046 386.374 236.608 387.106C237.17 387.838 237.473 388.28 237.473 388.28C237.473 388.28 237.073 387.943 236.386 387.324C235.72 386.687 234.692 385.848 233.622 384.678H233.624Z" fill="#020100"/>
<path d="M322.512 361.798C318.699 365.286 309.661 374.911 315.239 382.874C314.234 384.066 313.146 385.182 311.984 386.212C311.634 386.519 311.413 386.955 311.367 387.426C311.321 387.898 311.454 388.37 311.737 388.743C312.021 389.116 312.434 389.362 312.89 389.43C313.346 389.497 313.81 389.38 314.184 389.104C315.506 387.966 316.739 386.724 317.872 385.387C322.199 387.595 327.143 381.651 331.293 373.997C332.252 372.429 332.697 370.586 332.565 368.738C332.432 366.89 331.728 365.134 330.555 363.728C331.073 362.417 331.582 361.062 332.074 359.637C332.224 359.18 332.192 358.681 331.987 358.247C331.782 357.813 331.42 357.48 330.978 357.319C330.537 357.157 330.051 357.181 329.627 357.385C329.202 357.589 328.872 357.956 328.708 358.408C328.349 359.449 327.977 360.441 327.602 361.418C325.781 360.582 323.842 360.582 322.512 361.798ZM316.412 383.603C317.342 382.338 318.42 380.865 319.494 379.228C320.058 378.43 320.553 377.54 321.128 376.691L322.728 374.014C323.788 372.212 324.768 370.361 325.693 368.625C326.139 367.747 326.57 366.898 326.98 366.094L328.091 363.797C328.801 362.38 329.349 361.176 329.744 360.335C330.139 359.494 330.391 359.02 330.391 359.02C330.391 359.02 330.274 359.542 330.032 360.445C329.764 361.338 329.481 362.656 328.932 364.158C328.438 365.687 327.748 367.425 326.943 369.261C326.138 371.098 325.143 372.991 324.086 374.849C323.028 376.655 321.871 378.397 320.62 380.067C319.531 381.525 318.353 382.911 317.093 384.216C316.195 385.131 315.248 385.993 314.258 386.8C313.883 387.106 313.492 387.391 313.088 387.655C313.088 387.655 313.448 387.266 314.049 386.571C314.65 385.876 315.457 384.841 316.416 383.603H316.412Z" fill="#020100"/>
<path d="M390.56 325.715C389.537 327.702 387.434 329.591 384.56 331.253C375.267 334.959 358.634 328.856 349.893 328.655C348.087 328.622 346.283 328.787 344.511 329.148C344.785 328.359 344.982 327.545 345.1 326.716C345.177 326.286 345.219 325.85 345.223 325.413C345.254 325.028 345.254 324.641 345.223 324.257C345.206 323.691 345.135 323.129 345.013 322.578L344.895 321.96L344.806 322.578C344.746 323.113 344.635 323.641 344.475 324.154C344.389 324.494 344.274 324.825 344.134 325.145C344.005 325.505 343.845 325.853 343.656 326.184C343.286 326.9 342.839 327.571 342.323 328.184C341.682 328.961 340.952 329.657 340.151 330.256C334.943 331.839 329.64 333.995 321.966 333.86C316.334 333.757 312.306 332.651 307.738 331.481C307.873 330.702 308.022 329.802 308.174 328.784C308.666 325.516 309.186 321.145 309.428 316.757C309.535 314.561 309.594 312.366 309.563 310.311C309.527 309.281 309.535 308.291 309.463 307.351C309.391 306.411 309.354 305.526 309.274 304.71L309.018 302.493C308.976 302.092 308.918 301.738 308.852 301.407C318.863 302.481 331.759 304.175 341.521 310.385L342.059 310.728L342.67 310.589C351.525 308.561 362.955 306.734 373.542 310.219C374.56 311.258 375.852 312.663 377.06 314.174C378.219 315.614 379.269 317.144 380.2 318.749C380.567 319.421 380.873 319.993 381.051 320.409L381.351 321.061L381.251 320.341C381.197 319.874 381.065 319.225 380.898 318.436C380.442 316.515 379.846 314.632 379.115 312.804C378.657 311.647 378.157 310.522 377.672 309.489C378.846 307.42 384.208 297.464 384.804 287.028C385.268 278.915 385.538 269.492 385.661 264.453C386.831 264.215 388.014 264.054 389.203 263.969C391.974 263.751 394.821 263.777 394.821 263.777C394.821 263.777 392.262 262.481 389.553 261.392C388.369 260.907 387.157 260.494 385.926 260.156L385.949 260.079L385.707 259.478C383.52 254.072 383.113 249.627 384.619 247.59C386.151 245.513 389.754 245.752 392.51 246.319C396.365 247.111 398.821 248.538 399.81 250.561C401.41 253.826 399.358 258.92 397.549 263.418L396.899 265.04L396.973 265.541C400.42 288.556 399.084 317.189 390.883 325.265L390.689 325.458L390.56 325.715Z" fill="#00217A"/>
<path d="M292.733 294.342C291.274 298.459 286.509 306.087 271.781 300.696C258.095 295.688 256.295 280.132 256.45 271.216C256.841 270.536 257.28 269.887 257.764 269.274C258.172 268.74 258.612 268.233 259.082 267.756C259.608 267.227 260.168 266.737 260.759 266.288C261.388 265.802 262.062 265.38 262.77 265.028C263.499 264.643 264.261 264.327 265.046 264.084C265.84 263.845 266.67 263.724 267.488 263.564C268.315 263.542 269.145 263.461 269.952 263.481L272.291 263.728C273.028 263.877 273.721 264.076 274.371 264.231C274.969 264.352 275.554 264.533 276.118 264.772L277.447 265.287L278.613 265.742L277.546 265.067L276.312 264.285C275.786 263.932 275.228 263.631 274.646 263.386C274.015 263.097 273.337 262.749 272.595 262.442L270.174 261.687C269.315 261.491 268.4 261.39 267.466 261.237C266.506 261.194 265.545 261.205 264.587 261.268C263.612 261.367 262.648 261.557 261.707 261.836C260.831 262.076 259.978 262.399 259.16 262.802C259.775 262.199 260.426 261.635 261.108 261.114C264.549 258.503 268.208 257.501 271.676 258.212C281.02 260.134 291.253 274.324 293.199 288.025C293.192 290.139 293.036 292.25 292.733 294.342V294.342Z" fill="#00217A"/>
<path d="M156.6 201.2C158.035 199.33 160.948 198.832 165.264 199.717C168.859 200.457 171.064 201.694 171.827 203.397C173 206.024 170.974 210.182 169.015 214.206L168.287 215.707L168.468 216.376C172.507 231.363 175.322 248.374 177.378 260.797C177.733 262.941 178.064 264.937 178.372 266.753C177.624 267.582 176.945 268.475 176.342 269.421C175.662 270.484 175.127 271.636 174.751 272.847C174.632 273.237 174.542 273.634 174.481 274.037C174.435 274.32 174.409 274.483 174.409 274.483L174.67 274.129C174.89 273.825 175.132 273.538 175.395 273.272C176.159 272.504 177.028 271.854 177.972 271.341C178.882 270.848 179.836 270.448 180.822 270.147C181.068 270.073 181.275 270.018 181.46 269.972C190.004 270.819 199.78 274.708 210.575 281.624L211.111 281.968L211.722 281.828C217.022 280.641 227.384 278.967 237.301 281.136L237.601 281.201L237.901 281.144C241.164 280.439 244.486 280.063 247.82 280.02C247.785 280.245 247.747 280.46 247.72 280.693C247.359 282.974 247.169 285.28 247.154 287.59C247.099 290.38 247.357 293.166 247.923 295.895C248.538 299.02 249.668 302.015 251.263 304.748C252.986 307.68 255.269 310.22 257.975 312.216C260.727 314.177 263.801 315.611 267.049 316.448C267.847 316.665 268.656 316.839 269.472 316.969C269.906 317.028 270.228 317.09 270.751 317.145L271.907 317.248C273.619 317.355 275.338 317.243 277.024 316.917C280.307 316.291 283.385 314.823 285.971 312.649C288.417 310.612 290.375 308.023 291.696 305.084C292.886 302.509 293.645 299.746 293.942 296.911C294.214 294.581 294.231 292.226 293.992 289.892C293.962 289.517 293.92 289.164 293.878 288.811C296.114 290.03 298.141 292.526 300.106 294.96C301.994 297.303 303.778 299.515 305.863 300.835L306.168 301.029L307.797 301.2L309.562 301.387C309.577 301.737 309.593 302.108 309.577 302.538C309.562 303.195 309.544 303.936 309.525 304.744C309.491 305.549 309.41 306.423 309.348 307.341C309.286 308.26 309.148 309.228 309.041 310.224C308.793 312.217 308.441 314.327 308.041 316.423C307.214 320.613 306.125 324.728 305.219 327.77C304.91 328.808 304.629 329.7 304.387 330.447C298.599 329.185 292.693 328.584 286.777 328.654C267.477 328.66 243.36 312.157 234.717 310.855C233.293 310.616 231.913 310.158 230.623 309.496C232.051 306.692 233.311 303.8 234.395 300.836C235.077 298.946 235.659 297.019 236.136 295.063C236.325 294.117 236.508 293.204 236.681 292.336C236.786 291.458 236.881 290.628 236.981 289.865C237.028 289.095 237.028 288.386 237.049 287.765C237.064 287.228 237.039 286.69 236.974 286.157L236.853 284.771C236.853 284.771 236.822 285.275 236.767 286.158C236.753 286.685 236.699 287.211 236.605 287.729C236.493 288.329 236.392 289.007 236.237 289.732C236.037 290.452 235.827 291.221 235.601 292.041C235.313 292.834 235.009 293.672 234.694 294.538C233.965 296.308 233.141 298.034 232.226 299.709C230.732 302.417 229.07 305.023 227.251 307.51C222.285 304.147 217.004 299.198 209.232 296.534C209.396 296.299 209.563 296.067 209.712 295.814C210.113 295.127 210.431 294.392 210.658 293.626C210.765 293.281 210.842 292.927 210.886 292.568C210.941 292.255 210.966 291.939 210.964 291.622C210.982 291.162 210.945 290.702 210.851 290.252L210.765 289.759L210.644 290.245C210.556 290.659 210.417 291.059 210.23 291.436C210.122 291.683 209.992 291.919 209.84 292.139C209.689 292.387 209.515 292.618 209.321 292.83C208.922 293.281 208.469 293.677 207.972 294.009C207.045 294.589 206.035 295.013 204.978 295.264C204.905 295.28 204.848 295.289 204.778 295.304C190.629 292.216 173.938 285.959 168.387 271.151C163.927 259.253 159.218 231.171 157.454 220.015C157.565 219.912 157.68 219.797 157.82 219.676C158.698 218.915 159.65 218.249 160.661 217.689C161.712 217.103 162.818 216.626 163.961 216.266C164.911 215.957 165.575 215.82 165.575 215.82C165.575 215.82 164.929 215.631 163.918 215.453C162.658 215.223 161.379 215.123 160.1 215.155C159.229 215.18 158.36 215.263 157.5 215.404L157.4 215.138C155.046 208.68 154.758 203.601 156.6 201.2Z" fill="#00217A"/>
<path d="M1.71481 179.904C-2.96419 204.983 5.33382 209.198 35.2558 215.112C124.156 232.687 132.477 215.164 153.633 215.844C153.993 217.307 154.438 218.748 154.964 220.157C152.425 237.092 152.164 268.355 162.174 281.815C167.485 291.308 183.674 302.153 200.174 307.733C202.04 361.416 207.387 407.973 215.919 444.059C228.79 498.499 248.289 526.107 273.876 526.107C299.463 526.107 318.962 498.503 331.832 444.059C338.732 414.896 343.54 378.894 346.12 337.819C346.574 337.62 347.044 337.429 347.469 337.216C366.9 339.823 387.306 334.508 392.477 325.493C402.565 315.64 402.095 284.603 399.387 266.876L399.66 266.228C399.952 265.536 400.249 264.83 400.539 264.117C426.57 269.804 419.804 291.133 516.476 310.245C546.399 316.16 555.622 315.409 560.3 290.329C564.978 265.25 556.681 261.036 526.759 255.122C430.252 236.043 428.704 258.328 402.606 253.784C402.469 252.905 402.194 252.055 401.793 251.267C400.319 248.397 397.23 246.537 392.351 245.581C387.133 244.552 383.471 245.358 381.458 247.949C381.105 248.406 380.81 248.906 380.579 249.439L371.765 247.698L348.165 243.032C347.374 188.968 343.438 142.248 336.42 103.959C329.743 67.5316 320.461 40.2477 309.578 25.059C294.186 3.57829 286.446 0.112183 273.878 0.112183C261.31 0.112183 253.565 3.57826 238.173 25.06C227.29 40.2477 218.008 67.5316 211.331 103.959C205.61 135.168 201.944 171.992 200.351 213.809L192.184 212.194L175.837 208.963C175.748 208.242 175.549 207.54 175.245 206.885C174.015 204.255 171.145 202.533 166.478 201.618C161.016 200.548 157.118 201.385 154.893 204.108C135.807 196.433 133.124 177.3 45.5429 159.985C15.6159 154.075 6.39281 154.826 1.71481 179.904ZM115.287 188.488C115.287 188.488 113.721 188.289 110.992 187.884C108.268 187.453 104.363 186.908 99.7011 186.128C95.0341 185.368 89.601 184.428 83.788 183.37L74.833 181.707L65.6001 179.926L56.3808 178.061C53.3388 177.458 50.3568 176.794 47.4648 176.191C41.6848 174.956 36.2989 173.761 31.6919 172.686C27.0799 171.634 23.2567 170.648 20.5717 170.009C17.8907 169.346 16.3662 168.932 16.3662 168.932C16.3662 168.932 17.9311 169.13 20.6611 169.537C23.3851 169.967 27.2901 170.508 31.9531 171.287C36.6191 172.046 42.0527 172.985 47.8637 174.047C50.7637 174.588 53.7768 175.109 56.8188 175.709L66.0532 177.492L75.27 179.359L84.187 181.23C89.967 182.466 95.3529 183.661 99.9599 184.73C104.571 185.785 108.395 186.767 111.08 187.407C113.761 188.076 115.287 188.488 115.287 188.488ZM389.823 323.668C388.811 325.542 386.73 327.324 383.888 328.891C374.688 332.384 358.23 326.626 349.58 326.442C347.794 326.41 346.009 326.565 344.254 326.905C344.525 326.164 344.72 325.395 344.837 324.612C344.913 324.207 344.954 323.796 344.959 323.383C344.989 323.021 344.989 322.656 344.959 322.293C344.942 321.76 344.872 321.229 344.751 320.71C344.677 320.34 344.634 320.129 344.634 320.129C344.634 320.129 344.602 320.343 344.546 320.717C344.486 321.223 344.376 321.72 344.218 322.203C344.133 322.524 344.02 322.837 343.881 323.137C343.753 323.479 343.595 323.807 343.408 324.117C343.04 324.796 342.597 325.429 342.089 326.003C341.45 326.741 340.728 327.397 339.939 327.96C334.786 329.451 329.539 331.485 321.939 331.357C317.176 331.187 312.449 330.434 307.859 329.113C307.992 328.378 308.14 327.53 308.291 326.57C308.777 323.487 309.291 319.363 309.532 315.227C309.632 313.156 309.696 311.086 309.665 309.147C309.629 308.176 309.637 307.244 309.565 306.356C309.493 305.469 309.457 304.635 309.378 303.866C309.299 303.097 309.2 302.397 309.124 301.775C309.083 301.397 309.024 301.063 308.96 300.746C318.867 301.759 331.629 303.356 341.29 309.213L341.823 309.535L342.423 309.404C351.185 307.492 362.497 305.769 372.974 309.056C373.982 310.035 375.26 311.361 376.456 312.786C377.599 314.139 378.638 315.581 379.563 317.101C379.926 317.734 380.229 318.273 380.405 318.666L380.705 319.284L380.605 318.606C380.551 318.166 380.421 317.554 380.256 316.809C379.802 314.994 379.212 313.218 378.491 311.497C378.038 310.406 377.543 309.346 377.063 308.371C378.225 306.415 383.531 297.031 384.121 287.19C384.58 279.538 384.848 270.651 384.97 265.898C386.127 265.675 387.296 265.523 388.47 265.443C391.212 265.237 394.029 265.261 394.029 265.261C394.029 265.261 391.497 264.039 388.816 263.012C387.642 262.555 386.444 262.167 385.227 261.849L385.249 261.775L385.009 261.209C382.845 256.11 382.442 251.918 383.933 249.997C385.449 248.041 389.015 248.265 391.742 248.799C395.557 249.545 397.987 250.891 398.967 252.799C400.548 255.879 398.519 260.682 396.728 264.923L396.085 266.454L396.159 266.927C399.57 288.632 398.248 315.636 390.132 323.253L389.94 323.433L389.823 323.668ZM381.237 260.292C381.437 260.861 381.648 261.416 381.865 261.951C378.125 274.188 375.853 288.74 374.188 299.41C373.839 301.644 373.519 303.7 373.214 305.538L373.077 305.661C364.44 303.159 355.455 303.737 347.665 305.052C348.098 291.679 348.317 277.891 348.321 263.686C348.321 260.353 348.303 257.058 348.281 253.776L369.834 258.037L381.237 260.292ZM233.962 231.172C231.957 243.887 230.583 256.7 229.845 269.56C229.669 272.268 229.532 274.878 229.428 277.41C223.518 277.219 217.607 277.732 211.811 278.936C211.096 278.505 210.401 278.121 209.696 277.713C209.611 271.515 209.545 265.312 209.596 259.171C209.677 251.076 209.617 242.974 209.813 235.007C209.882 232.139 209.952 229.289 210.021 226.438L227.921 229.977C227.878 231.316 227.869 232.062 227.869 232.062C227.869 232.062 228.099 231.36 228.486 230.089L233.962 231.172ZM291.032 293.104C289.589 296.984 284.873 304.181 270.298 299.098C256.754 294.374 254.973 279.703 255.126 271.295C255.514 270.652 255.948 270.04 256.426 269.464C256.831 268.959 257.267 268.481 257.731 268.031C258.253 267.532 258.808 267.07 259.39 266.647C260.016 266.188 260.682 265.79 261.38 265.459C262.104 265.095 262.858 264.797 263.633 264.568C264.418 264.343 265.239 264.229 266.05 264.078C266.868 264.058 267.689 263.983 268.487 264.001L270.802 264.234C271.532 264.373 272.217 264.562 272.86 264.707C273.451 264.822 274.03 264.994 274.59 265.222L275.905 265.71L277.059 266.138C277.059 266.138 276.675 265.908 276.003 265.501L274.781 264.765C274.258 264.43 273.706 264.146 273.133 263.917C272.509 263.644 271.833 263.316 271.103 263.026L268.703 262.315C267.853 262.131 266.948 262.035 266.024 261.89C265.098 261.877 264.133 261.833 263.174 261.918C262.211 262.012 261.257 262.192 260.324 262.455C259.459 262.68 258.616 262.985 257.804 263.366C258.415 262.795 259.059 262.263 259.732 261.773C261.203 260.609 262.889 259.767 264.687 259.296C266.485 258.826 268.358 258.738 270.19 259.038C279.437 260.85 289.564 274.232 291.49 287.154C291.485 289.148 291.332 291.139 291.032 293.109V293.104ZM172.879 219.096L190.25 222.53L199.988 224.455C199.62 237.107 199.432 250.181 199.424 263.678C199.424 266.638 199.435 269.579 199.456 272.502C193.922 270.009 188.046 268.413 182.037 267.773C181.716 265.983 181.371 263.998 181 261.858C178.983 250.243 176.231 234.402 172.283 220.26L172.407 220.02C172.564 219.72 172.722 219.411 172.879 219.101V219.096ZM319.248 248.032L342.048 252.54C342.077 256.212 342.097 259.913 342.097 263.681C342.097 277.842 341.867 291.834 341.408 305.543C335.268 302.165 328.235 300.27 321.463 299.087C321.91 289.246 321.782 279.386 321.079 269.56C320.572 261.704 319.959 254.554 319.248 248.037V248.032ZM214.9 378.487C213.325 363.392 212.27 347.73 211.366 331.803C211.024 325.577 210.753 319.299 210.518 313.002C214.843 316.067 219.442 318.701 224.252 320.867C224.307 321.527 224.364 322.193 224.421 322.883C224.655 324.562 224.85 326.338 225.227 328.175C225.902 332.208 226.987 336.158 228.465 339.958C230.145 344.389 232.573 348.479 235.636 352.04C237.298 353.98 239.184 355.703 241.252 357.17C243.354 358.703 245.627 359.972 248.021 360.951C252.763 362.831 257.758 363.947 262.83 364.259C267.79 364.627 272.53 364.558 277.2 364.474C281.926 364.465 286.643 364.043 291.3 363.213C295.846 362.397 300.221 360.775 304.229 358.42C305.175 357.856 306.091 357.241 306.973 356.576L309.438 354.517C310.195 353.791 310.866 352.997 311.555 352.264L312.555 351.155L313.406 349.964L315.035 347.667C315.51 346.887 315.919 346.092 316.323 345.325C316.727 344.558 317.131 343.822 317.469 343.082L318.092 341.5C319.866 341.595 321.62 341.651 323.334 341.651C328.842 341.709 334.339 341.131 339.721 339.927C333.06 441.373 312.151 519.698 273.872 519.698L272.424 519.583C271.833 519.548 271.244 519.474 270.662 519.362C269.857 519.252 269.06 519.089 268.275 518.874C263.146 517.498 258.433 514.821 254.569 511.087C249.469 506.448 244.605 499.415 240.287 490.717C235.601 480.846 231.813 470.549 228.973 459.958C225.622 447.641 222.887 435.156 220.78 422.55C224.848 429.661 229.793 436.201 235.49 442.007C239.465 446.054 243.976 449.5 248.89 452.243C254.015 455.091 259.611 456.93 265.39 457.665C266.836 457.865 268.293 457.968 269.752 457.974L270.843 458.01L271.115 458.019H271.184H271.323L271.453 458.013L271.975 457.987L274.058 457.884C275.412 457.866 276.922 457.599 278.358 457.437C279.819 457.29 281.183 456.899 282.589 456.641C288.024 455.373 293.222 453.195 297.973 450.196C302.377 447.42 306.424 444.083 310.019 440.266C313.2 436.863 316.086 433.18 318.644 429.258C320.811 425.973 322.757 422.538 324.469 418.979C325.774 416.238 326.913 413.416 327.879 410.529C328.744 408.026 329.411 405.455 329.872 402.84C329.872 402.84 328.757 405.5 326.572 409.967C325.483 412.201 324.134 414.892 322.479 417.904C320.656 421.286 318.659 424.564 316.497 427.726C313.943 431.445 311.079 434.926 307.936 438.131C304.442 441.666 300.53 444.735 296.292 447.266C291.797 449.955 286.903 451.866 281.806 452.923C279.204 453.456 276.565 453.775 273.914 453.876L271.829 453.928L271.307 453.942H271.177C271.177 453.942 271.059 453.942 271.186 453.942H271.123L270.874 453.926L269.874 453.866C268.545 453.828 267.219 453.704 265.906 453.494C260.658 452.739 255.593 450.983 250.97 448.316C246.46 445.702 242.332 442.441 238.712 438.633C232.263 431.726 226.795 423.915 222.471 415.432C220.879 412.388 219.519 409.501 218.341 406.821C217.055 397.645 215.908 388.201 214.9 378.487ZM314.552 341.243L314.494 341.339C314.071 341.957 313.578 342.548 313.11 343.174C312.621 343.785 312.175 344.449 311.664 345.08L309.964 346.88L309.1 347.806L308.115 348.624C307.444 349.16 306.801 349.749 306.091 350.266L303.851 351.712C303.067 352.177 302.259 352.596 301.43 352.97C297.866 354.581 294.08 355.615 290.209 356.034C285.876 356.484 281.519 356.645 277.165 356.515C272.565 356.418 267.875 356.448 263.44 356.069C259.141 355.826 254.896 354.969 250.827 353.522C247.058 352.113 243.623 349.893 240.754 347.009C237.991 344.185 235.683 340.927 233.915 337.356C232.219 334.031 230.796 330.566 229.661 326.996C229.178 325.507 228.753 324.062 228.361 322.658C230.007 323.334 231.685 323.99 233.415 324.614C241.48 351.353 259.671 351.483 275.461 351.483C287.1 351.483 300.04 351.404 309.272 340.659C311.047 340.896 312.806 341.091 314.55 341.243H314.552ZM157.3 206.24C158.72 204.477 161.6 204.003 165.874 204.841C169.432 205.539 171.617 206.705 172.374 208.311C173.535 210.789 171.53 214.711 169.591 218.503L168.871 219.918L169.05 220.549C173.05 234.683 175.833 250.726 177.867 262.442C178.219 264.464 178.546 266.347 178.851 268.059C178.114 268.838 177.441 269.68 176.842 270.575C176.172 271.571 175.643 272.659 175.268 273.807C175.151 274.173 175.061 274.548 175 274.929L174.929 275.35L175.188 275.015C175.406 274.727 175.645 274.457 175.904 274.207C176.666 273.48 177.526 272.867 178.455 272.387C179.358 271.92 180.302 271.543 181.275 271.261C181.519 271.191 181.724 271.138 181.906 271.095C190.362 271.895 200.036 275.563 210.719 282.083L211.25 282.409L211.85 282.277C217.091 281.157 227.35 279.578 237.163 281.624L237.463 281.685L237.763 281.631C240.996 280.966 244.282 280.611 247.579 280.571C247.545 280.783 247.507 280.983 247.479 281.205C247.122 283.355 246.935 285.53 246.919 287.711C246.866 290.343 247.121 292.973 247.68 295.543C248.295 298.506 249.414 301.334 250.986 303.896C252.712 306.683 254.972 309.079 257.628 310.937C260.372 312.797 263.411 314.148 266.608 314.929C267.4 315.135 268.201 315.299 269.008 315.419C269.436 315.475 269.756 315.535 270.273 315.586L271.417 315.68C273.111 315.782 274.811 315.679 276.481 315.371C279.707 314.792 282.746 313.41 285.335 311.346C287.735 309.452 289.674 307.009 291.001 304.212C292.175 301.797 292.927 299.188 293.223 296.504C293.494 294.307 293.51 292.086 293.273 289.885C293.243 289.532 293.202 289.199 293.16 288.865C295.373 290.015 297.379 292.365 299.323 294.665C300.931 296.806 302.854 298.675 305.023 300.205L305.323 300.387L306.936 300.549L308.683 300.725C308.698 301.055 308.713 301.409 308.698 301.811C308.683 302.429 308.665 303.129 308.646 303.892C308.627 304.654 308.532 305.475 308.471 306.341C308.41 307.207 308.271 308.12 308.171 309.059C307.925 310.939 307.571 312.929 307.18 314.906C306.362 318.858 305.28 322.738 304.388 325.612C304.082 326.59 303.803 327.432 303.564 328.135C297.829 326.945 291.988 326.378 286.137 326.445C267.037 326.451 243.17 310.887 234.617 309.659C233.213 309.435 231.848 309.003 230.565 308.377C231.977 305.739 233.224 303.011 234.299 300.209C234.973 298.43 235.548 296.613 236.021 294.766C236.208 293.874 236.389 293.016 236.561 292.193C236.661 291.369 236.761 290.582 236.854 289.859C236.901 289.132 236.9 288.463 236.921 287.878C236.936 287.372 236.911 286.864 236.847 286.362C236.771 285.53 236.727 285.055 236.727 285.055C236.727 285.055 236.696 285.53 236.642 286.363C236.628 286.861 236.574 287.356 236.482 287.844C236.371 288.411 236.271 289.049 236.118 289.732C235.923 290.407 235.712 291.138 235.488 291.91L234.588 294.265C233.864 295.937 233.049 297.565 232.145 299.142C230.662 301.702 229.018 304.16 227.222 306.499C222.307 303.327 217.081 298.661 209.39 296.148C209.552 295.927 209.717 295.707 209.864 295.472C210.26 294.829 210.574 294.137 210.801 293.413C210.906 293.088 210.982 292.754 211.026 292.415C211.08 292.121 211.106 291.823 211.104 291.524C211.122 291.09 211.084 290.655 210.992 290.232C210.937 289.935 210.906 289.766 210.906 289.766L210.787 290.226C210.699 290.617 210.562 290.994 210.378 291.349C210.27 291.582 210.141 291.804 209.991 292.012C209.842 292.246 209.67 292.464 209.478 292.662C209.08 293.09 208.631 293.463 208.142 293.774C207.22 294.324 206.221 294.723 205.18 294.958C205.107 294.973 205.051 294.983 204.98 294.996C190.98 292.087 174.46 286.182 168.966 272.217C164.553 260.996 159.893 234.513 158.147 223.992C158.257 223.889 158.37 223.786 158.509 223.672C159.382 222.951 160.324 222.323 161.32 221.797C162.364 221.245 163.457 220.797 164.584 220.459C165.523 220.169 166.184 220.039 166.184 220.039C166.184 220.039 165.544 219.86 164.544 219.693C163.296 219.476 162.031 219.382 160.766 219.412C159.903 219.434 159.042 219.513 158.189 219.647L158.089 219.395C155.764 213.294 155.479 208.504 157.3 206.24ZM210.257 215.775C210.297 214.29 210.336 212.805 210.404 211.327C210.552 207.419 210.7 203.536 210.847 199.677C210.921 197.749 210.995 195.827 211.07 193.912C211.182 192.002 211.293 190.098 211.405 188.202C211.845 180.618 212.262 173.155 212.859 165.872C213.134 162.226 213.405 158.623 213.673 155.062C214.022 151.509 214.367 148 214.707 144.536C215.195 139.484 215.738 134.546 216.337 129.724C217.86 126.342 219.747 122.506 222.099 118.4C226.648 110.25 232.373 102.859 239.079 96.4799C242.86 92.9693 247.086 90.0046 251.643 87.6669C256.336 85.2791 261.39 83.7322 266.588 83.0929C267.893 82.9209 269.206 82.8177 270.521 82.784L271.507 82.7264C271.718 82.7182 272.154 82.7376 272.466 82.7407L274.512 82.7872C277.132 82.8818 279.741 83.1691 282.321 83.6468C287.372 84.5708 292.259 86.2755 296.816 88.7034C304.937 93.145 312.035 99.3349 317.626 106.852C319.891 109.853 321.994 112.981 323.926 116.22C325.65 119.12 327.094 121.699 328.188 123.879C329.266 126.065 330.136 127.784 330.657 128.99L331.471 130.843C331.471 130.843 331.336 130.147 330.977 128.872C330.596 127.607 330.077 125.724 329.159 123.427C326.703 117.016 323.419 110.975 319.397 105.466C313.764 97.4986 306.53 90.8744 298.186 86.0443C293.42 83.3514 288.287 81.4135 282.96 80.2958C280.214 79.7151 277.432 79.3369 274.634 79.1635L272.589 79.0667C272.219 79.0534 271.972 79.0276 271.501 79.0235L270.439 79.0554C269.019 79.0582 267.6 79.135 266.188 79.2859C260.541 79.868 255.032 81.4412 249.9 83.9371C244.961 86.3574 240.365 89.4573 236.238 93.1517C229.116 99.6342 223.031 107.231 218.205 115.662C218.687 112.258 219.176 108.926 219.671 105.663C221.771 93.7211 223.771 82.7635 226.246 73.2348C228.26 64.9739 230.701 56.8296 233.558 48.8366C234.919 45.5928 236.006 42.6196 237.151 40.1335C238.359 37.6823 239.305 35.5358 240.221 33.8866L243.17 28.8939C258.462 7.55416 264.609 6.54832 273.87 6.54832C283.131 6.54832 289.277 7.55416 304.57 28.8939C322.131 53.4022 339.997 120.185 341.92 241.831L317.87 237.076C310.601 186.333 295.848 182.22 275.462 182.22C257.5 182.22 243.912 185.417 235.962 220.883L231.462 219.994C231.527 219.788 231.588 219.582 231.654 219.376C232.446 216.785 233.322 213.879 234.429 210.763C235.421 207.602 236.829 204.347 238.19 200.893C238.977 199.237 239.785 197.538 240.613 195.797C241.607 194.195 242.468 192.449 243.547 190.867C245.638 187.688 248.235 184.894 251.229 182.605C254.363 180.427 257.912 178.964 261.64 178.313C265.658 177.583 269.729 177.211 273.808 177.201L276.951 177.176L279.96 177.207C281.943 177.268 283.885 177.429 285.752 177.649C289.263 178.046 292.675 179.089 295.827 180.73C298.649 182.304 301.207 184.334 303.405 186.742C304.404 187.871 305.347 189.053 306.227 190.283C307.076 191.387 307.858 192.543 308.569 193.746C309.99 195.984 311.054 198.076 311.986 199.784C313.72 203.298 314.71 205.305 314.71 205.305C314.71 205.305 314.61 204.749 314.42 203.707C314.191 202.677 313.978 201.114 313.466 199.194C312.885 196.856 312.158 194.558 311.289 192.315C310.181 189.317 308.738 186.461 306.989 183.805C304.825 180.525 302.091 177.686 298.924 175.429C295.287 172.975 291.213 171.288 286.938 170.467C284.768 170.028 282.576 169.719 280.372 169.541L277.046 169.321L273.786 169.237C269.197 169.096 264.606 169.441 260.086 170.267C255.245 171.161 250.666 173.18 246.696 176.169C244.787 177.663 243.051 179.377 241.522 181.279C240.039 183.056 238.72 184.97 237.58 186.997C236.465 188.953 235.604 190.961 234.688 192.891C233.974 194.875 233.277 196.813 232.598 198.704C232.066 200.623 231.561 202.483 231.098 204.288C230.59 206.084 230.37 207.862 230.02 209.538C229.731 211.23 229.342 212.816 229.178 214.377C228.998 215.926 228.828 217.393 228.668 218.777C228.643 219.005 228.616 219.215 228.59 219.439L210.257 215.775ZM379.982 251.56C379.891 252.16 379.848 252.766 379.854 253.373C369.809 251.467 359.206 249.446 348.227 247.299L281.172 234.208L214.178 220.797C200.563 218.075 187.55 215.396 175.472 212.909C175.619 212.368 175.731 211.818 175.806 211.262C187.913 213.555 200.955 216.028 214.57 218.689L281.625 231.779L348.625 245.189C359.52 247.362 370.029 249.511 379.986 251.555L379.982 251.56ZM546.338 273.951C543.613 273.52 539.708 272.978 535.046 272.201C530.38 271.442 524.946 270.503 519.133 269.442C516.233 268.899 513.221 268.379 510.178 267.778L500.945 265.996L491.728 264.13L482.811 262.258C477.031 261.023 471.646 259.827 467.038 258.758C462.427 257.704 458.604 256.722 455.918 256.081C453.237 255.417 451.712 255.006 451.712 255.006C451.712 255.006 453.277 255.204 456.006 255.61C458.73 256.041 462.635 256.586 467.298 257.366C471.964 258.126 477.398 259.066 483.21 260.125L492.165 261.787L501.399 263.569L510.617 265.433C513.659 266.035 516.641 266.699 519.533 267.304C525.313 268.534 530.698 269.734 535.306 270.804C539.918 271.857 543.741 272.841 546.426 273.48C549.107 274.144 550.632 274.557 550.632 274.557C550.632 274.557 549.071 274.356 546.342 273.951H546.338ZM446.721 281.749C446.721 281.749 448.287 281.948 451.016 282.354C453.74 282.785 457.645 283.33 462.307 284.104C466.974 284.865 472.407 285.804 478.22 286.863L487.175 288.526L496.409 290.307L505.627 292.172C508.669 292.773 511.651 293.438 514.543 294.042C520.323 295.277 525.709 296.472 530.316 297.542C534.928 298.595 538.751 299.58 541.436 300.219C544.117 300.882 545.642 301.295 545.642 301.295C545.642 301.295 544.076 301.097 541.348 300.691C538.623 300.261 534.718 299.718 530.056 298.941C525.389 298.181 519.956 297.242 514.143 296.181C511.243 295.639 508.231 295.119 505.188 294.518L495.955 292.735L486.737 290.869L477.821 288.997C472.041 287.762 466.656 286.566 462.048 285.492C457.437 284.439 453.614 283.457 450.928 282.816C448.251 282.162 446.725 281.749 446.725 281.749H446.721ZM402.533 257.676C402.613 257.191 402.664 256.709 402.696 256.235L407.02 257.119C424.112 260.61 438.328 263.671 448.292 265.743L463.935 269.08L448.204 266.215C438.204 264.341 423.898 261.762 406.765 258.487L402.533 257.676ZM114.506 200.241L98.8628 196.905L114.594 199.771C124.076 201.549 137.433 203.963 153.394 206.998C153.266 207.429 153.166 207.869 153.094 208.313C137.2 205.05 123.947 202.203 114.51 200.241H114.506ZM11.372 195.683C11.372 195.683 12.937 195.881 15.666 196.287C18.391 196.718 22.296 197.26 26.958 198.037C31.624 198.797 37.0581 199.736 42.8711 200.797C45.7711 201.339 48.7822 201.86 51.8252 202.46L61.059 204.243L70.2758 206.109L79.1928 207.981C84.9718 209.216 90.3578 210.413 94.9658 211.481C99.5768 212.535 103.4 213.517 106.086 214.158C108.767 214.821 110.293 215.234 110.293 215.234C110.293 215.234 108.727 215.035 105.998 214.628C103.274 214.198 99.369 213.652 94.706 212.873C90.04 212.112 84.6059 211.172 78.7939 210.113L69.8379 208.451L60.6049 206.67L51.3881 204.805C48.3441 204.204 45.3642 203.54 42.4712 202.936C36.6912 201.7 31.3062 200.505 26.6982 199.43C22.0862 198.378 18.2631 197.393 15.5781 196.754C12.9001 196.097 11.3759 195.683 11.3759 195.683H11.372Z" fill="#020100"/>
</svg>
