<svg id="Capa_1" data-name="Capa 1" xmlns="http://www.w3.org/2000/svg" viewBox="0 0 81.33 136.67">
    <defs>
        <style>
            .cls-1{fill:#0e2233;}
        </style>
    </defs>
    <path class="cls-1" d="M54.45,58c5.45-2.26,9.84-6.12,11.8-11.8s2.88-13.25.63-19c-4.26-10.9-15.73-18.9-27.26-17-8.48.59-17.25,4.17-21.85,10.47-7.08,9.69-4.87,23.85,3,32.45S44.36,62.15,54.45,58M16.29,28.79c3.09-12,15.83-16.46,27.42-16.64A22.58,22.58,0,0,1,56,16.49C61.45,20.54,65.81,27,65.9,34,66,41.19,64.23,49.19,58,53.55c-5.42,3.81-12.63,5.08-19.13,4.58-7.61-.58-14.88-3.31-19.06-10-3.56-5.68-5.25-12.77-3.56-19.36"/>
    <path class="cls-1" d="M28.58,27a5.1,5.1,0,0,0,1.1,2.31,5.94,5.94,0,0,0,3,2.66.83.83,0,0,0,.92-.23,3.46,3.46,0,0,0,2-.76c.41-.3.79-.66,1.17-1a3.39,3.39,0,0,1,.71-.56c0,5.21-.13,10.42-.2,15.63-1.43-.09-2.9,0-4.31,0a.73.73,0,0,0-.42.13,1.64,1.64,0,0,0-1.44,1.06,6.53,6.53,0,0,0-.18,2.47A20.16,20.16,0,0,0,31,51.79a.65.65,0,0,0,.28.47.61.61,0,0,0,.3.42c1.93,1.05,5.64.49,7.8.52,3.84.06,7.68,0,11.52-.19a.82.82,0,0,0,.76-1,.66.66,0,0,0,.1-.22A13.17,13.17,0,0,0,52,48.52a4.87,4.87,0,0,0-.32-2.22,2.16,2.16,0,0,0-2.52-1.07,11.69,11.69,0,0,0-1.56-.06h-1c0-8.74.1-17.54-.35-26.27-.26-5-4.79-5.07-8.86-3.84a.67.67,0,0,0-.67.2.51.51,0,0,0-.71.16,9.91,9.91,0,0,0-.57,2.33,6.64,6.64,0,0,1-.2.66q-.38.72-.81,1.39l0,.05a.62.62,0,0,0-.13.2A16.33,16.33,0,0,1,29.41,25a1,1,0,0,0-.4.47A1.86,1.86,0,0,0,28.58,27m9-10.78a13.71,13.71,0,0,1,4.6-.12c2.4.54,2.22,1.6,2.56,3.66.46,2.72.12,5.87.17,8.64.09,5.76.11,11.52.15,17.28a.71.71,0,0,0,.71.73,7.51,7.51,0,0,0,1.79.13c.39,0,.76,0,1.14,0a.5.5,0,0,0,.25,0h0c.19,0,.37,0,.56-.06.79.12.76,1.3.73,2.06a16.6,16.6,0,0,0,0,2.87c-2.91.14-5.82.23-8.73.24-.93,0-8,.49-9,0a.57.57,0,0,0,0-.1,17.3,17.3,0,0,0,0-2.62,8.14,8.14,0,0,1,.1-2.36.79.79,0,0,0,.34.07,36.63,36.63,0,0,0,5.53-.13.68.68,0,0,0,.43-1,.78.78,0,0,0,0-.21c0-3.15.09-6.29.12-9.44a34.4,34.4,0,0,0-.22-6.75.73.73,0,0,0,.18-.29l0-.14a.87.87,0,0,0-.4-1,2.07,2.07,0,0,0-2.34.34c-1,.71-1.72,1.75-2.83,2.19a.82.82,0,0,0-.1-.09,5.28,5.28,0,0,1-2.09-1.89,7.53,7.53,0,0,1-.65-1.7A16.93,16.93,0,0,0,37.6,16.25"/>
    <path class="cls-1" d="M73.41,91.38a53.14,53.14,0,0,1-8.88-14.06c-1.61-3.57-2.77-7.44-4.32-11.07a.83.83,0,0,0,.19-.06C80.72,55.39,81.28,25.1,63.94,11.25l-.48-.45c-8.94-8-21.57-8.95-32.61-5.31a26.42,26.42,0,0,0-11.51,5.22A31.19,31.19,0,0,0,8.76,29.14a31.1,31.1,0,0,0,0,12.12C10,49,13.61,58,19.67,62.81c-1.71,4.28-3.25,8.63-5.21,12.81a124.11,124.11,0,0,1-9.13,16A1,1,0,0,0,5.54,93a.58.58,0,0,0,.38.21,1.17,1.17,0,0,0,.84,0,14.78,14.78,0,0,0,6-1.71,23.34,23.34,0,0,1,0,5.25.85.85,0,0,0,1,1,.47.47,0,0,0,.3,0c1.21-.36,2.22-1.12,3.39-1.55.92-.34.57-.25.92.82A9.44,9.44,0,0,0,19,98.64c.83,1.43,2.93.92,4.55.55q-.84,10.57-1.8,21.13a.89.89,0,0,0,.42.9c-.16.35.12.89.56.73a16.39,16.39,0,0,0,3.64-2.5c.88-.65,2-1.26,2.92-2a25.21,25.21,0,0,0,1.47,4.1c.94,2.65,2,5.25,3.05,7.85a.92.92,0,0,0,1.52.4c2.83-2.73,6.23-5.13,8.91-8,.94,1.51,2.56,4.81,4.13,5a1.85,1.85,0,0,0,1.31-.5c.92-.61,1.33-1.83,2.73-1.58.82.15,2.11,1.58,2.75,2.06a.92.92,0,0,0,1.34-.55c.15-.69.5-4.34,1-4.66s3.83.79,4.56.94a1,1,0,0,0,1.17-.81,1.07,1.07,0,0,0,.34-1l-3.21-19.32a1.09,1.09,0,0,0,.44-.61A5.25,5.25,0,0,1,61.51,99q.63-1.1,1.59-.33c.66,0,1.35.44,2,.38a1.46,1.46,0,0,0,1.49-1.15c.43-1.36-.78-3.51.56-4.3.39-.23,2.39.24,2.91.25A19.08,19.08,0,0,0,73,93.69a.48.48,0,0,0,.37-.56,1.27,1.27,0,0,0,0-1.74M65,84.19a106.25,106.25,0,0,0-5.93,9.36l-.12-.75-.35-2.13a.64.64,0,0,0,.19-.21c1.69-2.89,3.26-5.88,4.76-8.89.47.89,1,1.76,1.46,2.61m-10-15-.09-.53A34.84,34.84,0,0,0,57.78,65q.16,1,.37,2A47.75,47.75,0,0,0,55.25,71c-.1-.59-.2-1.18-.3-1.77m.62,3.73c1-1.47,1.91-3,2.91-4.42.22.91.46,1.82.74,2.73A43.54,43.54,0,0,0,56,75.62q-.24-1.35-.47-2.71m-1-5.93c0-.11,0-.22-.07-.33,0-.47,0-.95,0-1.43a23.32,23.32,0,0,0,2.26-.78c-.75.82-1.5,1.66-2.19,2.53m5.1,5.71c.29.87.6,1.73.93,2.6-1.21,2-2.37,4.06-3.62,6.07l-.34-2.05c-.09-.53-.19-1.07-.28-1.6,1.18-1.6,2.26-3.3,3.3-5M57.52,83a23,23,0,0,0,3.78-6.12c.48,1.14,1,2.27,1.57,3.39-1.61,2.76-3.18,5.58-4.62,8.43l-.93-5.56a.58.58,0,0,0,.19-.15m1.36-19.56.84-.47a4.59,4.59,0,0,1,.53,1.43c-.22.12-.44.25-.67.37l0,0c-.21-.46-.45-.91-.68-1.35m5.26-3.88a8.66,8.66,0,0,0,1,1.18.53.53,0,0,0,.18.11q-.73.66-1.51,1.27v0a15.86,15.86,0,0,0-.84-1.43c.41-.35.81-.72,1.2-1.1m-2.06,1.8a14,14,0,0,0,.79,1.27.59.59,0,0,0,.11.11c-.57.41-1.16.78-1.77,1.15a4.85,4.85,0,0,0-.61-1.46q.76-.5,1.47-1.06M66,60.24a.58.58,0,0,0,0-.12,9.73,9.73,0,0,0-1-1.31c.64-.68,1.27-1.4,1.87-2.17a12.3,12.3,0,0,0,.9,1.51.58.58,0,0,0,.12.12c-.57.68-1.17,1.35-1.81,2M73.4,42.7a3.82,3.82,0,0,0,.76.47.62.62,0,0,0,.33,0q-.18,1.16-.44,2.29A12.75,12.75,0,0,1,73,44.68l0,0c.17-.65.32-1.3.45-2m1.24-.61a5.63,5.63,0,0,0-1-.69c.12-.74.22-1.49.29-2.24a3.43,3.43,0,0,0,.9.33q0,1.3-.19,2.6m.07-3.86a6.59,6.59,0,0,1-.68-.35c0-.82.07-1.65.06-2.47a5.08,5.08,0,0,0,.64.15c.08.9.12,1.8.12,2.72l-.15,0m-.64-4a35.89,35.89,0,0,0-.7-5.74,33.49,33.49,0,0,1,1.25,5.83,5.47,5.47,0,0,0-.55-.09M72.6,45.87a6,6,0,0,0,1.14.93c-.21.76-.44,1.5-.7,2.24a8.44,8.44,0,0,0-1.14-1l-.06,0c.28-.71.54-1.44.76-2.17m-1.23,3.3a6.48,6.48,0,0,0,1.2,1.13A30.29,30.29,0,0,1,71,53.55h0a6.77,6.77,0,0,0-1.11-1.47,30.23,30.23,0,0,0,1.45-2.9m-2.54,4.67c.16-.23.3-.47.45-.71a5.52,5.52,0,0,0,.91,1.05.56.56,0,0,0,.41.14,28.76,28.76,0,0,1-2.07,3.08,15,15,0,0,0-1-1.68h0c.45-.6.89-1.23,1.33-1.87M10.47,35.14a32.83,32.83,0,0,1,7-19.55A36,36,0,0,1,32.44,7.07c2.56-.55,5.2-.9,7.84-1.22a.69.69,0,0,0,.25-.08A34.37,34.37,0,0,1,56.83,9.12C70.19,15.5,76.14,33.93,70.7,47.33c-2.73,6.72-7.4,12.85-14.4,15.28-6.09,2.11-14.56,3.36-20.89,2a33.26,33.26,0,0,1-13-6,.73.73,0,0,0-.29-.23C15,52.85,10.22,44.53,10.47,35.14m13.7,55.71c0,.6-.1,1.21-.14,1.81-.73.52-1.46,1-2.2,1.55s-1.34.85-2,1.3a2.33,2.33,0,0,0-1.23-1.43,60,60,0,0,0,5.68-5c0,.58-.07,1.16-.11,1.74m-15.68.1c.56-.85,1.12-1.72,1.68-2.6a.6.6,0,0,0,.37-.1c4.82-3.25,10-6.32,14.39-10.2q-.12,1.92-.22,3.84a109.21,109.21,0,0,1-10.1,7.67.83.83,0,0,0-.76-.72h-.12a1.22,1.22,0,0,0-.65.2L8.49,90.94m15.92-3.69c-3.18,2.56-6.26,5.27-9.44,7.83a24.88,24.88,0,0,0-.15-4,81.34,81.34,0,0,0,9.8-7.51q-.1,1.85-.21,3.7M22.16,61.06q1.14.78,2.36,1.48c-1.07.78-2.18,1.55-3.27,2.35.35-1.27.66-2.55.92-3.83M18.9,71.75c1.14-.78,2.38-1.47,3.49-2.26s2.38-1.81,3.52-2.79c-.17,1.34-.31,2.69-.44,4-3.05,2.16-6.11,4.34-9.08,6.61.91-1.84,1.75-3.71,2.51-5.6m7.24-6.67a49.36,49.36,0,0,1-5.55,4.17c-.3.19-.62.38-.93.56q.49-1.33.92-2.68c1.69-1.26,3.29-2.71,4.91-4l0,0,.86.44c-.08.52-.16,1-.23,1.56M16.7,56.4c0,.29,0,.58,0,.86a30.8,30.8,0,0,1-2.21-3.47A32.63,32.63,0,0,0,16.7,56.4m1.09,2.23a4.83,4.83,0,0,0,.14-1c.25.24.5.47.76.7,0,0,0,0,0,0,0,.41,0,.82,0,1.22-.3-.31-.6-.62-.88-1m1.86,1.88a.54.54,0,0,0,.11-.3c0-.32,0-.63,0-1q.51.42,1,.82l-.44,1c-.24-.19-.48-.4-.71-.6M15.25,79.6a.54.54,0,0,0,.48-.08c3.27-2.29,6.45-4.76,9.61-7.21q-.17,2.07-.31,4.16c-4.23,3.39-8.78,6.34-13.29,9.34,1.22-2,2.4-4.09,3.51-6.21m5.35,18c-.11-.26-.21-.55-.31-.85A27.24,27.24,0,0,0,22.78,95c.38-.28.75-.56,1.12-.84-.07.93-.15,1.85-.22,2.78a21.31,21.31,0,0,1-3.09.64m35.86,22.26c-1.06.66-1.34,2.71-1.54,4.32-1.26-1.11-2.78-2.41-4.18-1.84-.34.14-.64.61-.86.83l-1.35,1.59-.36-.65c-1-.44-2.23-2.81-3-3.59a.69.69,0,0,0-.48-.2.68.68,0,0,0-.89-.16c-3.23,1.77-6.11,4.72-8.78,7.37-.73-1.81-1.44-3.62-2.16-5.43s-1.93-3.81-2.35-5.67l0-.06a.54.54,0,0,0-.24-.6l-.12-.06a.64.64,0,0,0-.14,0,.7.7,0,0,0-.74-.23c-1.38.34-2.7,1.56-3.79,2.44-.43.35-.93.72-1.41,1.12q1.28-13.64,2.3-27.3c.26-3.5.58-7,.86-10.58a.47.47,0,0,0,0-.47,137,137,0,0,0,.48-16.5c.61.28,1.24.54,1.87.79a35.79,35.79,0,0,0,15.89,1.81c.44,7.41,1.65,14.79,2.76,22.11.12.81,1.53.63,1.44-.19-.8-7.35-1.52-14.78-3-22,1.88-.21,3.75-.5,5.58-.86a5.71,5.71,0,0,0,.45,2.32c.18,2,.76,4.24,1,5.84.78,5.37,1.73,10.71,2.62,16.05l5.05,30.32c-1.62-.46-3.82-1.13-4.93-.44m3.3-22.11-.4-2.39a.68.68,0,0,0,.25-.21,91,91,0,0,0,6-9.89c.5.8,1,1.58,1.54,2.35a67.68,67.68,0,0,0-5.35,7.65A.56.56,0,0,0,62,96l-.27.35a3.37,3.37,0,0,0-1.92,1.44m5-1.13c-.11,1.51.18.45-.65.26a8.67,8.67,0,0,1-1-.36A12.47,12.47,0,0,0,64,95a.54.54,0,0,0,0-.53l.78-1.06c0,.5,0,1,0,1.5s0,1.16,0,1.73m4.44-4.48c-.91-.12-2.29-.64-3.23-.44h0c.69-1,1.35-2,2-3.09,1,1.32,1.95,2.56,3,3.74l-1.69-.21"/>
    <path class="cls-1" d="M36,67.45c-.06,14.76.11,29.52.65,44.27a.63.63,0,0,0,1.27,0C38,97,37.71,82.2,37.19,67.45a.58.58,0,0,0-1.16,0"/>
</svg>