<svg id="Capa_1" data-name="Capa 1" xmlns="http://www.w3.org/2000/svg" viewBox="0 0 100.77 133.77">
    <path d="M50.4,124.46a15.39,15.39,0,0,1-.17,2.94c-.09.61,2,.6,2.07,0,.37-2.09-.06-4.22-.21-6.31s-.27-4-.44-6L50.6,102.73c-.7-8.22-1.4-16.45-2.17-24.67L43.79,28.72Q42.48,14.81,41.12.9C41-.3,36.9-.3,37,.9q2.39,24.81,4.85,49.63c1.63,16.45,3.23,32.9,5,49.34l1.48,13.77c.25,2.3.53,4.59.81,6.89s.25,4.71,1.11,7l2-.25a17,17,0,0,1-.93-2.82c-.06-.27-1-.28-.94,0"/>
    <path d="M19.66,44.37a3.16,3.16,0,0,0-3-2.75,1.13,1.13,0,0,0-.75,2,43.1,43.1,0,0,0,4.52,2.64c1.58.9,3.18,1.77,4.78,2.65l9.38,5.17q0-1.22-.1-2.44c-2.9,3.05-5.91,6-9.09,8.77q-2.34,2-4.79,4a21.4,21.4,0,0,1-2.38,1.82,1.57,1.57,0,0,1-.78.28c-.08,0-.77,0-.57,0l.84.45.15.4a1.05,1.05,0,0,0-1.7-.9,1.72,1.72,0,0,0-.48,2.11,2.55,2.55,0,0,0,2.68,1.13,6.48,6.48,0,0,0,3-1.71q1.69-1.32,3.33-2.69a120.64,120.64,0,0,0,12-11.56c.74-.82,0-1.92-.73-2.32l-9.5-4.93c-1.55-.8-3.1-1.62-4.66-2.41a44.64,44.64,0,0,0-4.89-2.39c0,.69,0,1.38.07,2.07a1.57,1.57,0,0,1,2,.83.36.36,0,0,0,.68-.2"/>
    <path d="M17.12,43.64h0a1.23,1.23,0,0,1,1.23,1.23V68.46a1.23,1.23,0,1,1-2.46,0V44.86a1.23,1.23,0,0,1,1.23-1.23"/>
    <path d="M69.8,62.56a3.16,3.16,0,0,0,3,2.76,1.13,1.13,0,0,0,.74-2A43.11,43.11,0,0,0,69,60.64c-1.58-.9-3.18-1.77-4.78-2.65L54.9,52.83l.1,2.44c2.9-3.05,5.91-6,9.09-8.77q2.34-2,4.79-4a21.3,21.3,0,0,1,2.38-1.82,1.57,1.57,0,0,1,.78-.28c.08,0,.77,0,.57,0L71.76,40l-.15-.4a1.05,1.05,0,0,0,1.7.9,1.72,1.72,0,0,0,.48-2.11,2.55,2.55,0,0,0-2.68-1.12,6.48,6.48,0,0,0-3,1.71q-1.69,1.32-3.33,2.69a120.64,120.64,0,0,0-12,11.56c-.74.82,0,1.92.73,2.32L63,60.45c1.55.8,3.1,1.63,4.66,2.41a44.55,44.55,0,0,0,4.89,2.39l-.07-2.07a1.57,1.57,0,0,1-2-.83.36.36,0,0,0-.68.2"/>
    <path d="M72.34,63.29h0a1.23,1.23,0,0,1-1.23-1.23V38.47a1.23,1.23,0,1,1,2.45,0V62.06a1.23,1.23,0,0,1-1.23,1.23"/>
</svg>