<svg id="Capa_1" data-name="Capa 1" xmlns="http://www.w3.org/2000/svg" viewBox="0 0 114 86.6">
    <path d="M78.09,35a6.13,6.13,0,0,0-3.77-2.18c-.84,0-.87,0-.72-1.32.09-.73.24-4.35.35-8,.26-8.94-.21-11.8-2.22-13.37a2.17,2.17,0,0,0-2.86-.16c-.8.56-.62,1.19.25.92a1.8,1.8,0,0,1,1.21.15c1.36.73,1.4,1.44,1.31,23.84-.08,20.09.24,33.16.88,35.54.52,2-.87,2.28-1.66.37-.59-1.41-1.09-5.92-1.45-12.83-.16-3.21-.38-6-.47-6.14-.41-.66-.76.22-.76,1.9a18.85,18.85,0,0,1-2.33,7.82,9.45,9.45,0,0,1-1.78,1.93l-1,.78-3.27-1.61a54.08,54.08,0,0,0-13.3-4.42,70.81,70.81,0,0,0-11.24-1.39c-1.44,0-1.62-.09-3-1.56-1.92-2-3-4.39-3.56-8a14.5,14.5,0,0,1-.12-5.54c.37-2.55,1.81-8.17,2.21-8.63a40.21,40.21,0,0,1,5-1.46c2.65-.67,6.28-1.74,8.08-2.37,7.22-2.55,15.16-6.95,19.37-10.73C66,16,69.13,11,67.94,11a5.27,5.27,0,0,0-1.14,1.46c-4,6.3-15.34,13-28.27,16.73a90,90,0,0,1-21.46,3.29c-4.55,0-6.29.91-7.94,4.14-2.66,5.21-2.66,14.17,0,19.68,1.33,2.74,2.5,4,3.42,3.76a7.79,7.79,0,0,1,5.42.13c3.23,1.38,3.64,2.62,2.71,8.26-.88,5.36-.38,8.15,1.84,10.29,1.6,1.54,3.46,2.13,6.7,2.11,2.9,0,7.63-.84,8.63-1.5s.95-2.33-.73-7.5l-1.45-4.48.76-.81c.7-.74.76-1.06.76-3.67,0-3.43.28-4,2-3.72,14,1.94,23,5.8,28.92,12.41,1.87,2.09,3,2.65,4.44,2.19s1.6-.88,1.11-10.13c-.25-4.7-.46-10.55-.46-13V46.24l1-.23a7.16,7.16,0,0,0,4.16-2.73,5.57,5.57,0,0,0,1-3.4A6.5,6.5,0,0,0,78.09,35M33.41,58.64a6.26,6.26,0,0,1,1.35.19c.6.16.64.28.34.93a3.64,3.64,0,0,0,0,2.4,5.67,5.67,0,0,1,.13,2.32c-.2.53-.48,0-1.39-2.58-1.11-3.18-1.12-3.26-.47-3.26m-6-25.32c1.68-.27,1.93-.23,1.75.25a74.47,74.47,0,0,0-2.39,8.69c-.82,4.79.46,10.53,3,13.55l.81,1h-.93c-1.13,0-2.18-1.12-3.47-3.71a20.82,20.82,0,0,1-2-9.53,16.29,16.29,0,0,1,1.6-8.16c.66-1.53,1-2,1.61-2.06M17.26,56.18c-4.17,1.95-4,2-5.43-1A16.74,16.74,0,0,1,10,48.72a18.63,18.63,0,0,1-.17-6.24c.45-3.05,1.45-5.7,2.57-6.82.85-.85,1-.88,6.12-1.26,2.9-.21,5.3-.45,5.37-.53a.88.88,0,0,1,.53-.14c.27,0,.16.44-.34,1.34-1.69,3-2.49,9.41-1.71,13.67a4.19,4.19,0,0,1-.16,2.83c-.82,2-2.33,3.37-5,4.61m19,21.06c0,.05-1.73.38-3.75.72-5.73,1-8,.37-9.3-2.43-.59-1.32-.62-1.77-.38-5.67.32-5.23.24-7.73-.3-9.5L22.15,59l1.29-.12c.7-.07,2.62-.11,4.2-.09l2.91,0,1.08,3.54c.59,2,1.9,6.06,2.91,9.17s1.8,5.68,1.76,5.73m41-36.85a4.13,4.13,0,0,1-2.9,2.07c-.94.26-.94.26-.76-.89.1-.65.27-1.84.39-2.71.36-2.58,2.29-3.94,3.71-2.6.55.52.3,2.95-.43,4.13m-9.13,4.77c-.1-7.32.08-29.92.24-30.18.46-.76.7.13.91,3.4.34,5.36-.36,30.93-.84,30.93a17.63,17.63,0,0,1-.3-4.14"/>
    <path d="M79.95,17.95c-.29-.18.9-4.81,1.46-5.68a1.44,1.44,0,0,1,.94-.69c.72,0,.43,1.93-.64,4.27-.8,1.74-1.33,2.38-1.76,2.1m14.12,4.71c.9-1.85,0-2.44-1.89-1.27S85.18,27.26,85,28c-.35,1.27.61.88,5.23-2.14,2.36-1.54,3.52-2.5,3.85-3.2m-2,15.83c-4.17.88-5.14,1.23-5.14,1.86,0,.43.53.48,4.11.38,4.27-.12,5.95-.56,6.38-1.66.5-1.27-1.2-1.46-5.35-.59M89.55,55.38c-3.08-1.63-3.08-1.63-3.37-1.16-.52.85,6.55,5.92,8.26,5.92,1.91,0-.72-2.55-4.89-4.76M80,61c-.31.5,2,6.42,2.75,7.15,1,.93,1.58.42,1.36-1.2C83.83,65,80.5,60.19,80,61"/>
</svg>