<svg id="Capa_1" data-name="Capa 1" xmlns="http://www.w3.org/2000/svg" viewBox="0 0 108.67 95.33">
    <path d="M13.74,59.07c-.45-1.49,1.42-2.71,2.43-3.47q2-1.5,4-3,4-2.94,8.1-5.76Q36.46,41.23,44.93,36a359,359,0,0,1,35-18.92q10.17-4.79,20.62-8.93l-1.19-2C91.8,14.56,85.78,24.18,80.15,34c-6,10.46-11.87,21-17.83,31.49L51.95,83.74l2.53.33q-2-12.1-4.05-24.2c-.31-1.84-3.13-1.07-2.81.78q2.09,12.08,4.19,24.16a1.4,1.4,0,0,0,2.54.33l18-32.34c5.56-10,11-20.08,17.21-29.67A124.42,124.42,0,0,1,101.07,7.85c.73-.82,0-2.53-1.19-2A362.55,362.55,0,0,0,62.21,23.29a349.18,349.18,0,0,0-35.46,21.8Q21.91,48.49,17.19,52c-2.25,1.69-6.69,4.14-5.5,7.6.44,1.28,2.45.76,2.05-.57"/>
    <path d="M12.18,59.16a20.4,20.4,0,0,0,5,1c1.78.22,3.57.44,5.36.64,3,.34,6.37,1.06,9.33,0,2.8-1,5-3.39,7.16-5.32q3.77-3.31,7.59-6.56Q61.81,36,78,24.33c6.12-4.4,12.53-8.43,18.57-12.93,1-.76.14-2.4-1-1.74A191.83,191.83,0,0,0,79.22,20.54q-8,5.65-15.67,11.62T48.26,44.46q-3.76,3.15-7.44,6.39c-2.37,2.1-4.64,4.36-7.1,6.34a8.27,8.27,0,0,1-4.8,2,34.3,34.3,0,0,1-5.43-.35q-2.9-.29-5.8-.55a22,22,0,0,0-5.49-.1c-.55.09-.41.82,0,1"/>
    <path d="M46.46,60.13c-.08.12-.66,1.12-.46,1.11l.5.38c.05.22,1.6-1,1.81-1.22.86-.71,1.64-1.52,2.45-2.29q2.4-2.29,4.82-4.56c3.31-3.11,6.64-6.21,9.92-9.36,6.58-6.31,13.1-12.71,19.22-19.47q2.41-2.66,4.73-5.4,1.13-1.34,2.23-2.71a7.32,7.32,0,0,0,1.79-3,.74.74,0,0,0-1.07-.82c-1.81.88-3.06,3.12-4.33,4.64Q85.91,20,83.64,22.5C80.53,26,77.31,29.32,74,32.62c-6.68,6.73-13.59,13.23-20.41,19.82q-2.74,2.64-5.45,5.31a22.84,22.84,0,0,0-2.35,2.64c-.37.49-.81,1.23-.18,1.74a.54.54,0,0,0,.74,0c.38-.33.48-1.2.7-1.64a.35.35,0,0,0-.61-.35"/>
    <path d="M33.31,59.17c-.14,0-.39,6.5-.41,7q-.11,3.19-.31,6.37-.42,6.6-1.22,13.17c-.14,1.14,1.68,1.58,2.16.59,2.46-5,5.05-10,7.84-14.89q2-3.56,4.21-7c1.46-2.35,3.3-4.67,4.34-7.25.39-1-1-1.61-1.66-1C46.35,58.05,45,60.69,43.58,63s-2.91,4.8-4.29,7.24c-2.77,4.88-5.38,9.86-7.76,14.94l2.17.59q1-9.85,1.22-19.77c0-1.59.08-3.2,0-4.78-.06-1,0-2.37-1.1-2.8-1.44-.58-2.17,1.88-.65,1.93a.59.59,0,0,0,.16-1.16"/>
    <path d="M33.29,86.47c3.47-2.22,6.1-5.67,8.86-8.71L46.46,73a60.94,60.94,0,0,0,4.12-4.67c.73-1-.8-2-1.63-1.26a63.58,63.58,0,0,0-4.3,4.77L40.56,76.5c-2.67,3-5.78,6-7.58,9.66-.09.19.1.44.31.31"/>
</svg>