<svg id="Capa_1" data-name="Capa 1" xmlns="http://www.w3.org/2000/svg" viewBox="0 0 85.33 80.88">
    <defs>
        <style>
            .cls-1{fill:#0e2233;}
        </style>
    </defs>
    <path class="cls-1" d="M33.19,46.66c.1.07.21.11.32.17-.77.47-.26,1.84.78,1.66a107.43,107.43,0,0,1,20.09-1.6c3.84.08,4.72.07,5.29-3.85a1.09,1.09,0,0,0-.16-.76,2.28,2.28,0,0,0-2-2.49c-5.2-.6-10.25.47-15.35,1.2-.83-7.49-.16-15.21-1.89-22.57a1,1,0,0,0-1.49-.61h-.1a22.26,22.26,0,0,0-4,1.71.75.75,0,0,0-.56.34.84.84,0,0,0-.15.67c-1,6.1-.44,12.61,0,18.89a3.59,3.59,0,0,0-1.59,1.09,4.23,4.23,0,0,0,.8,6.13m5.28-26.52c0,.06,0,.12,0,.18a1,1,0,0,0-.53.11c-.63.34-1.23.72-1.83,1.1L36,21.05c.82-.28,1.67-.56,2.45-.91m.64,10.64h0a17,17,0,0,0-1.39,1c-.09-1.2-.21-2.4-.35-3.59A1.21,1.21,0,0,0,38,27.9l1.05-.82c0,1.23,0,2.46,0,3.7M39,24.66c-.65.5-1.28,1-1.91,1.53-.13-.9-.29-1.78-.47-2.66a.84.84,0,0,0,.16-.06c.67-.41,1.36-.8,2-1.24q.14,1.21.21,2.43m-1.16,9.43c.45-.3.88-.61,1.32-.92,0,1,.07,1.93.14,2.89-.42.3-.85.59-1.3.85,0-.94-.1-1.87-.15-2.82M39.05,45.7l.08-.11,0-.08c2.21-.21,4.42-.56,6.61-.89l.06.25-.35,0c-2.17.17-4.32.45-6.45.81M50.95,44c.51,0,1-.09,1.52-.12a7.16,7.16,0,0,0-.07,1c-.5,0-1,0-1.52,0a6.68,6.68,0,0,0,.06-1m-2.06.93-1.05,0a1.06,1.06,0,0,0,0-.19c0-.12-.06-.24-.09-.36l1.08-.14a5.82,5.82,0,0,0,.06.71m7.68-1a6,6,0,0,1-2,.73c0-.27.07-.56.08-.84.65,0,1.29.06,1.94.11M39,41.4a3.74,3.74,0,0,0-.79-.81c0-.52-.05-1-.08-1.58a11.3,11.3,0,0,0,1.43-.72,27.59,27.59,0,0,0,.56,3L39,41.4"/>
    <path class="cls-1" d="M38.44,77.82c15.06.58,31.83-5.75,38.1-20.44,5.54-13,1.67-30.47-7.85-40.63C61.2,8.76,51,5.19,40.69,5.46c-10.59-.63-21.7,3-27.27,11.29a1.65,1.65,0,0,0-.3.88c-4.53,4.59-7.35,10.84-8,19a37,37,0,0,0,5.8,23.5c2.89,11.16,16.82,17.24,27.49,17.65m-2.83-4.46a4.6,4.6,0,0,0,.46.93,28.62,28.62,0,0,1-8.29-2.12,35.17,35.17,0,0,0,7.83,1.18m4,1.14a5.15,5.15,0,0,1-1.38-1.12A42.48,42.48,0,0,0,43,73q.47.65,1,1.28l-1.09.11c-1.12.08-2.22.1-3.3.1m24.36-10.8a8.45,8.45,0,0,0,1.81,1.81A33.34,33.34,0,0,1,63,67.6C62.51,67,62,66.5,61.49,66l-.15-.15a31.65,31.65,0,0,0,2.57-2.1m-4.34,3.35.39.43c.39.44.78.86,1.18,1.27-1,.57-2,1.11-3,1.59-.41-.58-.85-1.16-1.33-1.71q1.4-.74,2.73-1.58m-4.74,2.57c.43.56.88,1.1,1.36,1.61-1.18.49-2.38.93-3.6,1.31l-1-1.61c1.09-.39,2.16-.83,3.2-1.31m-5.32,2a17.38,17.38,0,0,0,.88,1.57c-1.32.34-2.65.59-4,.8-.32-.46-.66-.9-1-1.34,1.39-.27,2.76-.63,4.12-1m17.76-7.49c-.61-.65-1.2-1.3-1.76-2a27.28,27.28,0,0,0,2.18-2.62c.1.13.18.25.28.38a10.51,10.51,0,0,0,1.61,1.73,28.54,28.54,0,0,1-2.31,2.5m3.05-39.32a36.77,36.77,0,0,1,1.79,3.49c-.6-.2-1.2-.38-1.79-.57q-.54-1.39-1.19-2.74l.94-.11a1.05,1.05,0,0,0,.25-.08M74,53.38A10,10,0,0,1,71.82,51a31.35,31.35,0,0,0,.8-3.4A13.34,13.34,0,0,0,74,48.93a1,1,0,0,0,1,.19,30.41,30.41,0,0,1-.66,3.17c-.1.37-.24.73-.36,1.09m-1.09-8.29h0a35,35,0,0,0,.13-4.26,4.59,4.59,0,0,0,2.35.83,34.79,34.79,0,0,1-.11,5.75,26.38,26.38,0,0,0-2.35-2.3m2.26-5.6a6,6,0,0,1-.82-.29,5.7,5.7,0,0,1-1.42-1l-.08,0c-.08-.83-.2-1.67-.34-2.49a13,13,0,0,0,1.88.48.93.93,0,0,0,.24,0c.23,1.1.4,2.2.54,3.31m-3.13-6.1q-.37-1.62-.87-3.2a11.38,11.38,0,0,0,1.93.63h0c.37,1,.7,2.07,1,3.13-.67-.21-1.37-.39-2.06-.56M69.84,56.09c.43-.86.82-1.73,1.16-2.62a6.05,6.05,0,0,0,2.08,1.7,1.34,1.34,0,0,0,.28.09,25.15,25.15,0,0,1-2.46,4.56c-.42-.47-.89-.9-1.29-1.37-.23-.27-.44-.56-.67-.84.3-.5.62-1,.89-1.52m-.59-33-1,.17A39,39,0,0,0,64.09,17l.16.14a31.94,31.94,0,0,1,5,5.93M15.11,20.64c5-5.56,12.42-8.27,19.48-10a1.33,1.33,0,0,0,.48-.22C45,9,55,12.11,61.65,21.75,72.85,38,69.58,59,50.08,66.13,36.64,71,20.81,67.85,13.46,56c-.16-.45-.33-.89-.47-1.35a1.24,1.24,0,0,0-.72-.81,27.19,27.19,0,0,1-2-5.54c-2.1-8.5-1.16-21,4.86-27.69"/>
    <path class="cls-1" d="M13.89,46.17a13.22,13.22,0,0,0,2.69-.39,6,6,0,0,0,2.55-.88c.72-.55.86-2-.29-2.2A6.07,6.07,0,0,0,16,43a13.94,13.94,0,0,0-2.71,1,1.17,1.17,0,0,0,.59,2.17"/>
    <path class="cls-1" d="M41.27,60c-.38-.85-1.54-.47-1.8.23A7,7,0,0,0,39,61.73a6.46,6.46,0,0,0,0,1.93,1.57,1.57,0,0,0,1.74,1.14,1.61,1.61,0,0,0,1.38-1.56,5.52,5.52,0,0,0-.16-1.77A8.81,8.81,0,0,0,41.27,60"/>
    <path class="cls-1" d="M28.88,59.67a1.34,1.34,0,0,0,0-2.69,1.34,1.34,0,0,0,0,2.69"/>
    <path class="cls-1" d="M21.56,52.8l-.11.21a1.33,1.33,0,1,0,2.29,0l-.11-.21a1.21,1.21,0,0,0-2.08,0"/>
    <path class="cls-1" d="M16.33,32.8a1.22,1.22,0,0,0,0-2.44,1.22,1.22,0,0,0,0,2.44"/>
    <path class="cls-1" d="M22.38,22v-.27c.07-1.48-2.37-1.48-2.3,0,0,.09,0,.18,0,.27a1.14,1.14,0,0,0,2.27,0"/>
    <path class="cls-1" d="M37.3,15.49a9.08,9.08,0,0,0-.56-3.56,1,1,0,0,0-2,.27,9,9,0,0,0,.34,3.59,1.11,1.11,0,0,0,2.18-.3"/>
    <path class="cls-1" d="M50.44,19.65a1.16,1.16,0,0,0,0-2.33,1.16,1.16,0,0,0,0,2.33"/>
    <path class="cls-1" d="M56.16,26.81a1.57,1.57,0,0,1,.29-.19,1.38,1.38,0,0,0,.61-1.5L57,25a1.22,1.22,0,0,0-1.77-.72l-.15.08a1.29,1.29,0,0,0-.66,1.14,1.76,1.76,0,0,1,0,.36,1.13,1.13,0,0,0,1.69,1"/>
    <path class="cls-1" d="M62.14,42.05A3.91,3.91,0,0,0,64,42a9.47,9.47,0,0,0,1.71-.46,1,1,0,0,0-.27-2,9.8,9.8,0,0,0-1.83.09,3.76,3.76,0,0,0-1.73.48,1.1,1.1,0,0,0,.26,2"/>
    <path class="cls-1" d="M62.71,47.77a1.28,1.28,0,0,0,0,2.55,1.28,1.28,0,0,0,0-2.55"/>
    <path class="cls-1" d="M56.82,56.14a1.09,1.09,0,0,0-1.86,0l-.11.21a1.2,1.2,0,1,0,2.08,0l-.11-.21"/>
</svg>