<svg id="Capa_1" data-name="Capa 1" xmlns="http://www.w3.org/2000/svg" viewBox="0 0 120 80.79">
    <path d="M79,15.26c-5.16,0-7.84,5.52-8.46,9.95C70.18,28,70.25,31,72,33.34s4.72,3.31,7.48,3.68c5.7.75,11.71-1.72,14.31-7a11.77,11.77,0,0,0,1-8,11.68,11.68,0,0,0-4.39-6.45c-5.21-4-13.27-3.45-17.68,1.51a.44.44,0,0,0,.53.69c4.31-2.09,9.53-3.68,14.08-1.37,4.08,2.07,6.54,6.43,5.32,11-1.28,4.79-5.82,7.76-10.64,8a12.49,12.49,0,0,1-7.23-1.71c-2.24-1.43-2.92-3.9-2.85-6.43.13-4.38,2.14-10.56,7.07-11.48.26,0,.19-.45-.06-.45"/>
    <path d="M67.94,39.49a23.53,23.53,0,0,0,21,2.27,28.79,28.79,0,0,0,4.88-2.55,2.16,2.16,0,0,1,2.56-.08,17.46,17.46,0,0,1,2.23,1.56,24.24,24.24,0,0,1,8.48,14.25,22.24,22.24,0,0,1,.35,2.89c0,.53,0,1.05,0,1.58a4.5,4.5,0,0,0,0,.58c-.15.42.19.56,1,.41-.1-.34-.26-.14-.47.58l-.56-.07.05,0c.51.24,1.27-.15,1-.77A.89.89,0,0,0,107,60a1.12,1.12,0,0,0,1,1.75c1.14-.11,1.37-1.32,1.39-2.24a23.27,23.27,0,0,0-.16-3.16,26.09,26.09,0,0,0-4.5-11.86,25.43,25.43,0,0,0-4.31-4.79c-1.48-1.27-3.57-3.17-5.67-2.88a8.06,8.06,0,0,0-3,1.51,20.24,20.24,0,0,1-2.84,1.48,22.51,22.51,0,0,1-20.26-1.55c-.77-.48-1.45.71-.7,1.21"/>
    <path d="M68.74,39.12c-3,.68-5.08,3.33-6.82,5.69a50.85,50.85,0,0,0-5.05,8.52,55.41,55.41,0,0,0-3.42,9.27c-.42,1.58-.78,3.17-1.05,4.78-.25,1.45-.18,3.07,1.52,3.51a7.39,7.39,0,0,0,2.18.05L59,70.82l5.61-.25,11.51-.5,22.71-1c2.12-.09,4.24-.12,6.36-.28a5.49,5.49,0,0,0,4.26-2.15c2.21-3,2.24-7.36.82-10.63-.39-.91-1.85-.26-1.58.67.8,2.73,1,6.14-.66,8.62-.86,1.31-2.13,1.53-3.6,1.61l-5,.23-20.65.93L58.15,69l-2.51.11c-.47,0-1.39.24-1.55-.34a5,5,0,0,1,.27-1.91c.15-.76.31-1.51.49-2.27A55.91,55.91,0,0,1,57.62,56a58.51,58.51,0,0,1,4.71-8.89c1.72-2.71,3.64-5.6,6.72-6.87a.59.59,0,0,0-.32-1.15"/>
    <path d="M63.44,48.85c0-.2,1-.72,1.14-.83l.93-.68,2.1-1.52,2-1.44A7.84,7.84,0,0,0,71.3,43c.2-.26-.14-.68-.44-.57a7.38,7.38,0,0,0-1.76,1.16l-1.85,1.38c-1.1.83-2.23,1.63-3.31,2.49-.3.23-1.73,1.33-.89,1.82.32.18.91-.14.67-.52a.16.16,0,0,0-.29.12"/>
    <path d="M57.81,56.33c3-2,6-4.07,8.88-6.22,1.42-1,2.82-2.12,4.23-3.18a38,38,0,0,0,4.3-3.35.59.59,0,0,0-.71-.92,38.1,38.1,0,0,0-4.39,3.2c-1.41,1.07-2.84,2.13-4.24,3.21-2.86,2.21-5.65,4.49-8.42,6.81-.25.21.08.64.35.46"/>
    <path d="M55.86,61.05A56.79,56.79,0,0,0,62.13,57l6.14-4.31c2-1.4,4-2.83,6-4.25L77.4,46.2A9.47,9.47,0,0,0,80,43.91a.42.42,0,0,0-.47-.61,9.69,9.69,0,0,0-3.12,1.84l-3,2.14c-2,1.46-4.07,2.91-6.1,4.38l-6,4.33a56.9,56.9,0,0,0-5.89,4.6c-.25.24.07.61.35.46"/>
    <path d="M55.71,65c4.21-2.52,8.1-5.6,12.1-8.42S76,50.89,80.12,48.13l3.44-2.28a9.52,9.52,0,0,0,3-2.47c.15-.24-.1-.46-.33-.43a8.32,8.32,0,0,0-3.14,1.53l-3.09,2q-3.08,2-6.12,4.14-6.13,4.26-12.12,8.72a67.36,67.36,0,0,0-6.35,5.21.24.24,0,0,0,.29.38"/>
    <path d="M55.2,68.7c10.86-6.94,21.33-14.48,31.9-21.84l4.36-3c.77-.54,1.52-1.09,2.27-1.65a6.59,6.59,0,0,0,1.77-1.7.37.37,0,0,0-.41-.54c-1.45.29-2.86,1.48-4,2.31l-3.87,2.71-7.87,5.5q-7.87,5.5-15.71,11c-3,2.11-5.91,4.28-8.82,6.49-.42.32,0,1,.43.74"/>
    <path d="M59,70.14c5.54-3.57,10.88-7.44,16.23-11.29L91.24,47.27a81.23,81.23,0,0,0,8.76-6.8c.35-.33-.1-.87-.51-.65a72.64,72.64,0,0,0-8.21,5.48l-8,5.82c-5.34,3.88-10.7,7.75-16,11.67-3,2.2-5.9,4.42-8.78,6.74-.33.27.1.82.46.59"/>
    <path d="M64.78,70C69.6,66.73,74.36,63.42,79,60s9.3-7,13.91-10.52c1.28-1,2.56-2,3.82-3a29.43,29.43,0,0,0,3.72-3.21.46.46,0,0,0-.56-.72A27,27,0,0,0,96.37,45c-1.13.86-2.24,1.73-3.35,2.61Q89.53,50.36,86,53c-4.62,3.54-9.27,7-13.91,10.56-2.57,2-5.1,4-7.65,6-.23.18.07.57.32.41"/>
    <path d="M72.25,68.45a237.89,237.89,0,0,0,27.88-19.36c.65-.52,1.35-1,2-1.57a1.52,1.52,0,0,0,.64-1.44c-.19-.74-1.28-1.09-1.61-.28-.11.26.23.46.44.34,0,0-.08-.11-.18-.06a2,2,0,0,0-.22.23c-.19.17-.4.31-.59.47L99,48c-.95.76-1.9,1.51-2.85,2.25q-2.9,2.26-5.85,4.45Q84.58,59,78.66,63.09c-2.26,1.57-4.5,3.17-6.77,4.72-.38.26,0,.87.37.63"/>
    <path d="M80.21,68.22q6.09-4.14,11.92-8.61,2.85-2.19,5.67-4.42l2.89-2.34a17.56,17.56,0,0,0,2.83-2.4.66.66,0,0,0-.79-1,18.12,18.12,0,0,0-2.83,2.24L97,54q-2.84,2.29-5.7,4.55-5.76,4.56-11.55,9.09c-.32.26.1.81.44.57"/>
    <path d="M84.82,69.2a131.09,131.09,0,0,0,11.7-8.4q2.83-2.3,5.59-4.67,1.38-1.19,2.74-2.39l1.25-1.12a2.72,2.72,0,0,0,1-1.32c.06-.3-.14-.71-.51-.67-1,.11-1.86,1.22-2.6,1.88q-1.35,1.22-2.73,2.41-2.74,2.39-5.56,4.7c-3.74,3.07-7.45,6.16-11.2,9.21-.21.17.06.52.29.38"/>
    <path d="M91,69.32c3-2.39,6-4.79,8.92-7.22,1.43-1.18,2.85-2.39,4.28-3.59l2.24-1.9c.59-.5,1.61-1.08,1.72-1.9a.46.46,0,0,0-.43-.57c-.82,0-1.48.78-2.07,1.28l-2.23,1.91c-1.45,1.24-2.91,2.47-4.35,3.73-2.91,2.54-5.78,5.12-8.65,7.7-.38.35.17.87.56.56"/>
    <path d="M95.68,69.42a91.26,91.26,0,0,0,7.41-5.74q1.78-1.54,3.53-3.12L108.31,59A10.7,10.7,0,0,0,110,57.31c.37-.55-.35-1.2-.88-.88a10,10,0,0,0-1.62,1.43l-1.77,1.65q-1.73,1.6-3.48,3.16c-2.34,2.08-4.62,4.22-6.9,6.36-.2.19.07.56.31.39"/>
    <path d="M73,24.08a75.23,75.23,0,0,1,5.93-5.27c1.06-.84,2.15-1.65,3.27-2.42a11,11,0,0,0,2.88-2.26c.23-.31-.14-.63-.45-.58a8.86,8.86,0,0,0-3.3,1.87q-1.62,1.17-3.16,2.45a51.85,51.85,0,0,0-5.78,5.61c-.36.41.21,1,.6.61"/>
    <path d="M73,27.68a13.73,13.73,0,0,0,1.8-1.54l1.81-1.61c1.27-1.14,2.55-2.27,3.86-3.36s2.64-2.14,4-3.16c.62-.46,1.25-.9,1.87-1.37S87.82,15.75,88,15a.38.38,0,0,0-.26-.46c-.72-.1-1.27.45-1.85.83s-1.39,1-2.06,1.52q-2,1.57-4,3.23c-1.3,1.1-2.57,2.23-3.79,3.42-.61.59-1.2,1.2-1.79,1.83a11.42,11.42,0,0,0-1.62,1.9.27.27,0,0,0,.37.37"/>
    <path d="M74.73,30.56c2.39-2.47,4.91-4.84,7.53-7.06q2-1.66,4-3.19a35.6,35.6,0,0,0,4.15-3.11c.37-.37,0-1.16-.55-.94a19.76,19.76,0,0,0-4.31,2.84q-2.07,1.58-4,3.28a67.55,67.55,0,0,0-7.44,7.53c-.37.45.23,1.08.65.65"/>
    <path d="M76.06,33.28a15.82,15.82,0,0,0,4-2.69q2.11-1.64,4.14-3.38t3.93-3.41a19.75,19.75,0,0,0,3.59-3.7c.23-.35-.22-.75-.55-.56a23.05,23.05,0,0,0-3.9,3.2q-1.93,1.75-3.89,3.45c-1.27,1.1-2.56,2.19-3.83,3.29A19.23,19.23,0,0,0,75.81,33a.22.22,0,0,0,.25.32"/>
    <path d="M77.84,37.21c2.53-2.21,5.07-4.42,7.55-6.69s5-4.44,7.42-6.81c.56-.56-.27-1.35-.86-.85C89.41,25,87,27.43,84.58,29.72s-4.84,4.65-7.24,7c-.33.32.16.8.5.5"/>
    <path d="M81.83,37.63c2.17-2,4.4-3.84,6.54-5.83l3.15-2.92a20.08,20.08,0,0,0,3.08-3c.33-.48-.31-1.07-.78-.78a10.14,10.14,0,0,0-1.66,1.48L90.67,28l-3.09,3c-2.09,2-4.1,4.15-6.16,6.2-.27.27.14.66.41.41"/>
    <path d="M86.7,37.17q1.89-1.77,3.77-3.55A22.42,22.42,0,0,0,94,30a.54.54,0,0,0-.73-.73,22.35,22.35,0,0,0-3.58,3.52q-1.78,1.88-3.55,3.77a.4.4,0,0,0,.56.56"/>
    <path d="M30,10.84c.08,5.6.54,11.2.87,16.79s.68,11.19,1,16.78a.94.94,0,0,0,.89,1,70.72,70.72,0,0,1,14.41,1.35L46.5,46c.18,1.07-.93,2-1.65,2.64-.92.81-1.84,1.62-2.72,2.48a56,56,0,0,0-4.92,5.51,53.67,53.67,0,0,0-7.4,12.76L31.49,69Q25,63.2,18.53,57.43c-4.32-3.84-8.73-7.61-13-11.55L5.06,47.6a47,47,0,0,1,13.81.48c.6.12,1.49-.22,1.42-1-1.17-11.85-2.51-23.69-3.64-35.55l-1.06,1,15.23.54a1.09,1.09,0,0,0,.07-2.19l-15.24-.41a1,1,0,0,0-1,1.27c1.25,11.84,2.29,23.71,3.51,35.56L19.52,46a44.72,44.72,0,0,0-14.95-.41,1,1,0,0,0-.51,1.71C8.47,51,12.73,55,17,58.81S25.7,66.5,30,70.33A1,1,0,0,0,31.71,70a51.62,51.62,0,0,1,7.73-13.11,49.77,49.77,0,0,1,5.27-5.53c1.72-1.56,4.24-3.14,3.78-5.81a1,1,0,0,0-.69-.74,69.9,69.9,0,0,0-15-1.26l.89,1Q33.13,36,32.56,27.53c-.38-5.61-.63-11.24-1.23-16.83-.08-.77-1.37-.63-1.36.14"/>
    <path d="M25.51,14.12a16.06,16.06,0,0,1-1.24-2.33l-.48.26c1.14,1.14,2.28,2.28,3.43,3.41a39.71,39.71,0,0,0,3.36,3.16c.22.17.46-.16.3-.36a40.34,40.34,0,0,0-3.3-3.33c-1.12-1.09-2.26-2.17-3.39-3.25-.26-.25-.66.12-.41.38a16.05,16.05,0,0,1,1.63,2.11s.12,0,.08,0"/>
    <path d="M19.95,12.42c1.89,1.73,3.75,3.5,5.51,5.37.86.92,1.71,1.86,2.53,2.81L29.22,22a6.3,6.3,0,0,0,1.23,1.3c.11.08.3,0,.26-.18a5.47,5.47,0,0,0-.95-1.44c-.38-.51-.77-1-1.18-1.48q-1.27-1.5-2.62-2.91A63.37,63.37,0,0,0,20.28,12c-.23-.19-.56.2-.33.41"/>
    <path d="M17.73,13.92c2,2.68,4.31,5.11,6.51,7.6l3.21,3.64a28.32,28.32,0,0,0,3.37,3.57c.18.14.43-.11.31-.29a27.35,27.35,0,0,0-3-3.67L24.76,21c-2.2-2.49-4.33-5.1-6.74-7.39a.2.2,0,0,0-.3.28"/>
    <path d="M16.2,17.63c2.55,2.45,5.05,5,7.46,7.56,1.19,1.28,2.36,2.58,3.52,3.89.58.65,1.15,1.31,1.72,2a12.25,12.25,0,0,0,1.72,1.84c.13.1.28-.08.22-.21a10.1,10.1,0,0,0-1.41-1.94c-.56-.68-1.12-1.35-1.68-2-1.16-1.37-2.37-2.69-3.6-4q-3.64-3.87-7.6-7.43c-.22-.2-.55.11-.34.31"/>
    <path d="M17.74,23.65c2.27,2.54,4.6,5,6.94,7.49,1.15,1.22,2.3,2.44,3.47,3.65a33.24,33.24,0,0,0,3.52,3.46c.14.11.36-.09.26-.24a32.14,32.14,0,0,0-3.16-3.6c-1.17-1.27-2.36-2.52-3.55-3.77-2.35-2.47-4.69-4.93-7.1-7.34a.26.26,0,0,0-.37.35"/>
    <path d="M19.85,30.29c2.15,2.62,4.63,5,7,7.47C28,39,29.12,40.19,30.28,41.4a36.93,36.93,0,0,0,3.54,3.43c.13.11.35-.09.25-.23A36.48,36.48,0,0,0,30.92,41c-1.18-1.26-2.38-2.5-3.57-3.75-2.35-2.45-4.61-5-7.13-7.31a.25.25,0,0,0-.36.34"/>
    <path d="M19.12,35c3.17,2.64,6.26,5.39,9.18,8.3q2.19,2.18,4.29,4.46c1.39,1.52,2.69,3.13,4.13,4.61.19.2.58-.05.41-.3a47,47,0,0,0-3.93-4.71Q31.07,45,28.82,42.81a107.59,107.59,0,0,0-9.35-8.23c-.25-.19-.6.22-.35.43"/>
    <path d="M19.6,39.7c1.28,1.49,2.75,2.83,4.14,4.21s2.89,2.82,4.33,4.23c2.85,2.78,5.62,5.68,8.61,8.32.27.24.68-.12.42-.4-2.75-2.95-5.76-5.67-8.66-8.47-1.42-1.37-2.82-2.75-4.25-4.11s-2.83-2.81-4.37-4.06c-.17-.14-.36.13-.23.28"/>
    <path d="M17,43.89c1.32,1.5,2.95,2.76,4.39,4.14s2.82,2.74,4.21,4.14,2.74,2.83,4.07,4.28q1,1.12,2,2.25a25.51,25.51,0,0,0,2,2.24c.2.18.58,0,.41-.3a33.46,33.46,0,0,0-3.78-4.44q-2.08-2.29-4.26-4.48c-1.42-1.43-2.88-2.82-4.37-4.18a36.48,36.48,0,0,0-4.54-3.86.14.14,0,0,0-.18.22"/>
    <path d="M13,47.09A133.28,133.28,0,0,1,32.19,65.78c.28.34.77-.12.5-.46A99,99,0,0,0,13.16,46.78c-.2-.14-.38.17-.2.32"/>
    <path d="M9.3,48.15q4.56,4.74,9.14,9.46L23,62.27l2.28,2.32a21.8,21.8,0,0,0,2.3,2.18c.18.13.46-.12.32-.3a40.91,40.91,0,0,0-4.3-4.56l-4.67-4.74q-4.62-4.69-9.28-9.32c-.2-.21-.53.1-.33.31"/>
    <path d="M33.75,45.49c2.94,2.39,5.63,5,8.51,7.48.24.2.59-.1.36-.34A69.55,69.55,0,0,0,34,45.16c-.2-.15-.4.17-.21.33"/>
    <path d="M38.51,45.56a57.39,57.39,0,0,0,5.78,5.57c.17.12.33-.12.22-.26a57.27,57.27,0,0,0-5.61-5.66c-.24-.23-.62.12-.38.36"/>
</svg>