<svg width="195" height="207" viewBox="0 0 195 207" fill="none" xmlns="http://www.w3.org/2000/svg">
<path d="M56.1441 117.69C59.3756 127.443 65.7947 135.826 74.3682 141.489C76.3962 142.789 79.6299 143.69 80.9879 145.764C82.3189 147.794 81.651 151.241 81.588 153.497C81.388 160.582 81.1902 167.667 80.9942 174.752C80.8652 179.352 88.0151 179.325 88.1431 174.722C88.3085 168.818 88.4751 162.914 88.6431 157.01C88.7751 152.266 89.7431 146.532 87.2061 142.228C84.7631 138.088 79.5701 136.657 75.8961 133.888C72.6778 131.433 69.8967 128.453 67.67 125.073C58.734 111.573 57.8101 92.6031 68.2701 79.6301C78.6991 66.7001 97.3582 61.0379 113.117 66.4689C128.51 71.7689 138.976 87.9048 139.699 103.851C140.173 114.313 136.635 125.182 127.962 131.538C125.474 133.361 123.27 135.397 122.714 138.581C122.185 141.604 122.795 144.852 123.033 147.882C123.567 154.682 124.1 161.481 124.633 168.281C124.65 168.416 124.674 168.55 124.704 168.682L100.334 171.581C99.3949 171.613 98.5035 172.003 97.8419 172.67C97.1802 173.337 96.7982 174.233 96.774 175.172C96.783 176.934 98.4358 178.96 100.364 178.732L130.049 175.201C130.988 175.169 131.879 174.78 132.541 174.112C133.202 173.445 133.584 172.551 133.608 171.612C133.577 170.982 133.395 170.368 133.076 169.824C132.757 169.28 132.311 168.821 131.777 168.487C131.777 168.408 131.789 168.338 131.782 168.256C131.283 161.901 130.783 155.546 130.282 149.191C130.154 147.565 130.026 145.939 129.899 144.313C129.671 142.967 129.596 141.599 129.676 140.237C130.061 137.849 133.656 136.311 135.327 134.801C142.991 127.875 146.593 117.067 146.873 106.948C147.373 88.9374 137.111 70.5004 121.006 62.1574C104.343 53.5254 83.572 56.8976 69.253 68.5646C54.761 80.3656 50.1061 100.235 56.1441 117.69Z" fill="#17212B"/>
<path d="M121.066 183.476C119.146 183.907 107.217 184.297 105.279 184.637C104.311 184.807 103.34 184.965 102.366 185.111C101.909 185.18 101.45 185.244 100.992 185.312L100.925 185.321L100.865 185.328C100.579 185.364 100.292 185.403 100.004 185.438C96.0979 185.915 92.1752 186.201 88.2359 186.296C87.2877 186.3 86.38 186.68 85.7124 187.354C85.0449 188.027 84.6722 188.938 84.6763 189.886C84.6804 190.834 85.0611 191.742 85.7344 192.409C86.4078 193.077 87.319 193.45 88.2671 193.445C96.5511 193.235 114.824 192.202 122.909 190.384C123.821 190.133 124.598 189.534 125.071 188.715C125.545 187.896 125.677 186.924 125.44 186.009C125.179 185.104 124.577 184.334 123.762 183.862C122.947 183.39 121.981 183.252 121.066 183.476Z" fill="#17212B"/>
<path d="M84.5469 202.665C84.5633 203.609 84.9479 204.511 85.6187 205.176C86.2894 205.841 87.1937 206.217 88.1382 206.225C96.5052 205.669 114.872 205.115 123.238 204.56C123.712 204.566 124.183 204.477 124.623 204.299C125.062 204.12 125.462 203.856 125.798 203.522C126.135 203.188 126.402 202.791 126.583 202.352C126.764 201.914 126.857 201.444 126.854 200.97C126.852 200.495 126.756 200.026 126.571 199.59C126.386 199.153 126.115 198.758 125.775 198.427C125.436 198.095 125.034 197.834 124.593 197.66C124.152 197.486 123.68 197.401 123.206 197.411C114.84 197.967 96.472 198.521 88.106 199.075C87.1636 199.097 86.2662 199.484 85.6025 200.153C84.9389 200.823 84.5606 201.722 84.5469 202.665Z" fill="#17212B"/>
<path d="M112.8 72.3126C112.122 71.6607 111.221 71.2929 110.28 71.2853C109.34 71.2777 108.432 71.6308 107.744 72.2716C106.477 73.5196 106.209 76.0883 107.703 77.3263C115.522 83.7297 121.629 91.9732 125.479 101.318C126.2 103.107 127.828 104.391 129.854 103.85C131.542 103.399 133.111 101.276 132.385 99.4747C128.216 88.9335 121.484 79.5979 112.8 72.3126Z" fill="#17212B"/>
<path d="M157.1 53.5842C157.924 54.0384 158.891 54.161 159.802 53.925C160.713 53.689 161.5 53.1129 162 52.3156L174.391 36.0744C175.529 34.5834 174.686 32.0118 173.123 31.1818C172.299 30.7275 171.332 30.6052 170.421 30.841C169.51 31.0768 168.723 31.6523 168.223 32.4494L155.832 48.6906C154.694 50.1816 155.537 52.7542 157.1 53.5842Z" fill="#17212B"/>
<path d="M58.9619 5.35661C62.4719 13.0539 65.9825 20.7511 69.4932 28.4484C69.8323 29.326 70.495 30.0407 71.3452 30.4435C72.1955 30.8464 73.1681 30.9068 74.062 30.6134C74.9498 30.2877 75.6739 29.6263 76.0786 28.7717C76.4834 27.917 76.5365 26.9373 76.2261 26.0441L65.6948 2.95232C65.3556 2.07484 64.6925 1.36102 63.8423 0.958175C62.9921 0.55533 62.0199 0.494159 61.126 0.787276C60.2383 1.11302 59.5142 1.77446 59.1094 2.62907C58.7046 3.48368 58.6515 4.46339 58.9619 5.35661Z" fill="#17212B"/>
<path d="M115.716 35.4091C115.718 35.8786 115.812 36.3433 115.994 36.7763C116.175 37.2093 116.441 37.6019 116.774 37.9325C117.447 38.6001 118.358 38.9736 119.306 38.9696C119.776 38.9677 120.24 38.8728 120.673 38.6913C121.106 38.5098 121.499 38.2454 121.83 37.912C122.16 37.5786 122.422 37.1834 122.6 36.7489C122.778 36.3144 122.868 35.8493 122.866 35.3798C122.797 27.2696 124.361 19.2279 127.466 11.7353C128.196 9.94725 126.6 7.81497 124.91 7.37197C122.841 6.82997 121.281 8.13559 120.548 9.92959C117.269 18.02 115.626 26.6798 115.716 35.4091Z" fill="#17212B"/>
<path d="M175.479 96.12C175.258 97.0365 175.401 98.0029 175.877 98.8163C176.354 99.6298 177.127 100.227 178.034 100.483L189.796 103.803C190.25 103.921 190.723 103.949 191.188 103.885C191.653 103.821 192.102 103.666 192.507 103.429C192.912 103.191 193.266 102.876 193.55 102.502C193.833 102.128 194.04 101.701 194.159 101.247C194.278 100.793 194.306 100.32 194.242 99.8544C194.177 99.3893 194.022 98.9422 193.785 98.537C193.548 98.1319 193.233 97.7776 192.859 97.4941C192.484 97.2106 192.058 97.0034 191.604 96.8847L179.842 93.5654C178.925 93.3356 177.955 93.4744 177.139 93.9521C176.323 94.4298 175.727 95.208 175.479 96.12Z" fill="#17212B"/>
<path d="M27.7551 125.541C27.4927 124.638 26.8953 123.871 26.0852 123.394C25.275 122.918 24.3135 122.769 23.3972 122.978L3.1511 125.7C1.2921 125.95 0.0681352 128.365 0.587135 130.058C0.849734 130.961 1.44745 131.728 2.25755 132.205C3.06764 132.681 4.02879 132.83 4.94505 132.621L25.1911 129.898C27.0501 129.649 28.2741 127.234 27.7551 125.541Z" fill="#17212B"/>
<path d="M30.1783 70.8652C30.9828 70.3735 31.5655 69.589 31.8038 68.6767C32.0421 67.7644 31.9174 66.7959 31.4561 65.9736C29.4661 62.4196 27.4762 58.8648 25.4869 55.3095C25.0078 54.4913 24.2235 53.8969 23.3062 53.6572C22.3889 53.4174 21.414 53.5521 20.5958 54.0312C19.7776 54.5103 19.1832 55.2945 18.9434 56.2119C18.7037 57.1292 18.8378 58.1046 19.317 58.9228L25.2862 69.5869C25.772 70.3978 26.5561 70.9854 27.4708 71.2245C28.3854 71.4637 29.3577 71.3346 30.1783 70.8652Z" fill="#17212B"/>
</svg>
