<svg width="287" height="361" viewBox="0 0 287 361" fill="none" xmlns="http://www.w3.org/2000/svg">
<path d="M279.328 350.925L285.128 327.196C285.128 327.196 281.676 288.261 282.228 288.158C282.78 288.055 282.228 222.458 282.228 222.458C282.228 222.458 281.676 34.7733 282.228 33.4062C282.78 32.0392 282.228 16.0723 282.228 16.0723L275.492 6.89062L261.825 2.43066H253.425L21.7521 6.89062L10.3629 9.70801L4.89809 16.0713V46.6162C4.89809 46.6162 5.35309 270.377 4.89809 272.385C4.44309 274.393 5.89027 286.436 5.89027 286.436L20.2389 350.893L70.254 356.448L93.2931 360.291L255.65 356.448H274.127L279.328 350.925Z" fill="white"/>
<path d="M1.85483 150.077C1.84283 172.556 1.84283 195.035 1.85483 217.513C1.85483 236.013 0.407025 255.422 2.43003 273.958C1.93003 280.996 3.17884 313.466 4.81284 320.896C9.70184 343.132 10.872 347.741 20.243 356.896C23.183 359.767 67.8698 357.517 70.8978 358.596C71.1627 358.838 71.4916 358.999 71.8451 359.059C87.2631 361.469 103.553 359.691 119.123 359.579C136.388 359.453 153.652 359.44 170.917 359.433C204.577 359.421 238.597 361.079 272.207 359.083C273.535 359.509 274.946 359.613 276.322 359.384C277.556 359.068 278.713 358.503 279.723 357.725C280.732 356.948 281.572 355.972 282.192 354.859C284.715 350.54 284.974 344.512 284.478 339.331C287.735 286.966 285.366 233.738 285.348 181.343C285.33 129.649 287.28 77.442 285.004 25.742C286.574 20.029 285.653 13.3121 282.004 8.86112C277.904 3.84712 271.704 1.70089 265.448 1.82889C258.894 0.410008 252.136 0.19633 245.505 1.19803C233.287 0.780033 220.951 1.3464 208.852 1.3494L145.996 1.36112C106.987 1.36912 67.59 0.0202285 28.596 2.14823C28.4992 2.10366 28.3986 2.06683 28.2957 2.03885C21.6257 0.922853 9.53667 0.561588 5.86167 7.71659C5.12187 9.32574 4.64731 11.0438 4.4559 12.8045C3.95552 12.9799 3.5204 13.3035 3.20835 13.7322C2.89629 14.1609 2.72201 14.6738 2.70883 15.2039C-0.600166 59.8029 1.87783 105.365 1.85483 150.077ZM17.5897 9.0369C20.0167 8.5579 22.2451 8.02165 24.4901 7.38065C64.8221 9.84665 105.614 8.38828 145.995 8.39628L208.851 8.40799C227.129 8.40799 245.941 9.66139 264.076 6.89139C268.276 8.32539 273.247 9.64097 276.33 12.659C277.858 14.1779 278.882 16.1305 279.262 18.2517C276.426 72.3887 278.599 127.153 278.581 181.344C278.563 233.12 276.242 285.709 279.329 337.476C278.029 341.74 278.206 346.312 276.764 350.476C275.883 353.021 273.891 353.62 271.79 354.208C238.313 352.25 204.435 353.895 170.913 353.881C154.513 353.874 138.113 353.829 121.713 353.748C109.213 353.667 96.2228 352.544 83.5628 353.132C79.7508 350.232 24.114 350.698 23.576 347.561C23.034 344.392 7.45773 293.461 10.7757 260.324C10.8407 259.673 9.86308 259.446 9.26108 259.287C9.65508 245.348 8.87583 231.196 8.87583 217.515C8.87583 195.036 8.87397 172.557 8.86997 150.079C8.84797 108.001 10.9789 65.1742 8.47885 23.1062C8.70765 19.9874 9.29294 16.9045 10.223 13.9187C11.5 9.96474 13.7837 9.7869 17.5897 9.0369Z" fill="#020100"/>
</svg>
