<svg width="154" height="152" viewBox="0 0 154 152" fill="none" xmlns="http://www.w3.org/2000/svg">
<path d="M6.84082 145.482C18.5495 131.224 30.2575 116.966 41.9648 102.71C47.7648 95.6502 53.5652 88.5899 59.3652 81.5279C60.5127 80.0131 61.8018 78.6118 63.2158 77.3423C63.3219 77.2596 63.4166 77.163 63.4971 77.0552C63.5091 77.0622 63.5118 77.0697 63.5278 77.0757C64.1868 77.3757 64.9498 79.3577 65.3428 79.9927L67.3428 83.2271C61.1656 91.1645 55.5037 99.4894 50.3911 108.151C49.8739 109.064 49.7368 110.144 50.0098 111.157C50.2828 112.17 50.9437 113.035 51.8496 113.565C52.7555 114.095 53.8337 114.246 54.8506 113.987C55.8674 113.728 56.7414 113.079 57.2832 112.18C61.7011 104.66 66.548 97.3993 71.8008 90.4361C72.1628 91.0228 72.5255 91.6089 72.8882 92.1949C74.3942 94.6309 78.3508 94.9389 79.7808 92.1949C81.6318 88.6389 85.3029 87.0724 89.1089 86.9244C86.8029 90.6404 83.7268 94.0703 81.3418 97.5953C77.5414 103.228 74.2253 109.173 71.4282 115.366C70.9248 116.287 70.7924 117.366 71.0586 118.381C71.3248 119.397 71.9693 120.271 72.8599 120.827C74.5719 121.827 77.4268 121.369 78.3208 119.395C81.2009 113.017 84.6329 106.902 88.5771 101.121C91.4182 96.9677 94.701 93.0985 97.127 88.7085C101.083 90.7085 104.337 94.0631 107.195 97.6011C102.409 106.144 97.495 114.616 92.751 123.183C92.2337 124.096 92.0966 125.176 92.3696 126.189C92.6426 127.202 93.3036 128.068 94.2095 128.597C95.1154 129.127 96.1936 129.278 97.2104 129.019C98.2273 128.76 99.1012 128.111 99.6431 127.212C103.843 119.62 108.174 112.1 112.443 104.542C123.57 119.628 134.667 134.736 145.736 149.864C146.293 150.753 147.168 151.396 148.183 151.663C149.197 151.929 150.275 151.799 151.197 151.297C152.921 150.315 153.897 147.568 152.628 145.835L132.705 118.715C126.922 110.841 121.305 102.781 115.278 95.0884C115.155 94.8993 115.016 94.7208 114.863 94.5552C114.463 94.0442 114.075 93.5222 113.668 93.0152C109.237 87.4942 103.809 82.4902 97.1309 80.2242C96.8483 80.0462 96.5431 79.9075 96.2231 79.8121C96.0207 79.762 95.8146 79.7265 95.6069 79.7066C94.5328 79.4208 93.4397 79.2116 92.3359 79.0806C89.5935 78.7195 86.8067 78.9127 84.1401 79.648C81.4736 80.3833 78.9817 81.6462 76.812 83.3619L75.5381 81.3023C75.5281 81.2843 75.5178 81.2675 75.5068 81.2505C74.8128 80.1259 74.1179 79.0028 73.4219 77.8794C73.4941 77.5131 73.5153 77.1383 73.4849 76.7662C72.6269 66.6228 72.2554 56.463 72.3701 46.2876C86.0641 39.5396 102.07 41.5877 116.597 44.2447C119.136 44.7087 121.617 43.167 121.649 40.397C121.743 32.3737 121.837 24.3503 121.93 16.3277C121.969 13.0057 122.61 8.99517 121.464 5.80717C120.106 2.03217 116.464 1.39414 112.951 0.975142C98.2404 -0.718652 83.3376 1.12212 69.481 6.34428C68.5214 6.64239 67.7042 7.28106 67.1831 8.14018C66.662 8.99931 66.4728 10.0196 66.6519 11.0083C64.3382 30.3243 63.7729 49.8095 64.9629 69.2271C63.5708 68.9641 62.1324 69.1145 60.8252 69.6607C56.4102 71.3937 53.5939 76.0423 50.7129 79.5523L41 91.3648L1.19287 139.84C0.472711 140.604 0.0717773 141.613 0.0717773 142.663C0.0717773 143.712 0.472711 144.722 1.19287 145.485C2.59187 146.908 5.47782 147.143 6.84082 145.482ZM114.272 9.22319C114.349 9.24077 114.429 9.24077 114.507 9.22319C114.491 9.23876 114.473 9.25088 114.453 9.25932C114.433 9.26776 114.412 9.27202 114.39 9.27202C114.368 9.27202 114.346 9.26776 114.326 9.25932C114.306 9.25088 114.287 9.23876 114.272 9.22319ZM108.514 8.53959C109.991 8.6396 111.475 8.75763 112.943 8.95463C113.055 8.97163 113.594 9.10515 114.013 9.18315C114.013 9.30315 114.013 9.4124 114.013 9.5894C114.052 12.9554 113.934 16.3298 113.895 19.6968C113.834 25.0262 113.772 30.3558 113.709 35.6851C99.93 33.4361 85.617 32.4606 72.561 37.4966C72.863 29.3386 73.475 21.1956 74.397 13.0669C85.3573 9.31342 96.9543 7.7746 108.514 8.54057V8.53959Z" fill="#17212B"/>
</svg>
