<svg width="286" height="361" viewBox="0 0 286 361" fill="none" xmlns="http://www.w3.org/2000/svg">
<path d="M7.41309 9.98828L1.61279 33.7168C1.61279 33.7168 5.06518 72.6519 4.51318 72.7549C3.96118 72.8579 4.51318 138.454 4.51318 138.454C4.51318 138.454 5.06518 326.141 4.51318 327.508C3.96118 328.875 4.51318 344.842 4.51318 344.842L11.249 354.023L24.916 358.483H33.3159L264.988 354.023L276.377 351.204L281.843 344.843V314.296C281.843 314.296 281.388 90.5343 281.843 88.5273C282.298 86.5203 280.851 74.4766 280.851 74.4766L267.782 57.3223L216.482 4.46484L193.444 0.620117L31.0859 4.46484H12.6099L7.41309 9.98828Z" fill="white"/>
<path d="M284.887 210.835C284.898 188.357 284.898 165.88 284.887 143.4C284.887 124.9 286.335 105.491 284.312 86.9539C284.812 79.9159 281.319 74.5546 276.703 68.5096C268.68 57.9996 259.903 47.9639 251.175 38.0389C242.529 28.2079 233.794 18.3061 224.423 9.15412C221.483 6.28312 218.872 3.3992 215.844 2.3172C215.579 2.07534 215.25 1.91475 214.897 1.85431C199.478 -0.555689 183.188 1.22183 167.619 1.33283C150.354 1.45883 133.089 1.47331 115.825 1.47931C82.165 1.49131 48.145 -0.167056 14.534 1.82794C13.2062 1.40156 11.7954 1.29889 10.4198 1.52814C9.18533 1.84394 8.02811 2.40853 7.01888 3.18634C6.00965 3.96415 5.16946 4.93929 4.54964 6.05255C2.02664 10.3706 1.76802 16.3989 2.26302 21.5789C-0.992984 73.9449 1.3759 127.174 1.3929 179.569C1.4109 231.263 -0.539351 283.469 1.73665 335.164C0.167649 340.878 1.08865 347.596 4.73665 352.047C8.84165 357.061 15.0368 359.205 21.2938 359.077C27.8477 360.496 34.6052 360.71 41.2357 359.708C53.4547 360.127 65.791 359.561 77.89 359.558L140.746 359.547C179.755 359.538 219.146 360.888 258.146 358.76C258.243 358.804 258.343 358.839 258.446 358.867C265.116 359.984 277.205 360.346 280.88 353.19C281.62 351.582 282.095 349.864 282.285 348.103C282.786 347.928 283.22 347.604 283.533 347.176C283.845 346.747 284.019 346.233 284.032 345.703C287.34 301.109 284.864 255.547 284.887 210.835ZM278.242 88.7039C278.123 89.9159 278.054 91.1402 277.963 92.3572C275.038 88.8442 270.142 87.345 264.707 86.699C264.189 86.637 263.665 86.5997 263.146 86.5477C266.985 82.7177 270.591 78.6373 274.036 74.4783C276.683 79.2653 278.339 84.0739 278.242 88.7039ZM240.837 85.8436C249.062 78.4259 256.782 70.4669 263.947 62.0203C264.208 61.7191 264.351 61.3325 264.347 60.9334C267.241 64.287 269.9 67.8372 272.303 71.5584C272.062 71.6577 271.849 71.8143 271.683 72.0145C267.449 76.9795 262.894 81.5839 258.283 86.1649C252.5 85.8439 246.633 85.8936 240.837 85.8426V85.8436ZM218.097 45.9295C223.329 39.7405 228.672 33.6958 234.312 27.8758C236.393 30.1568 238.444 32.4654 240.501 34.7684C240.433 34.8077 240.369 34.8519 240.309 34.9012C232.928 42.5372 225.368 49.948 217.752 57.324C217.842 53.582 217.977 49.7735 218.1 45.9285L218.097 45.9295ZM262.854 59.2195C262.627 59.2039 262.399 59.2402 262.188 59.327C261.978 59.4137 261.79 59.5484 261.64 59.7195C253.061 68.5335 244.204 77.0567 235.514 85.7557C235.374 85.7497 235.232 85.7489 235.093 85.7449C229.01 85.5529 225.74 86.4448 221.257 81.7068C220.909 81.3389 220.657 80.9772 220.369 80.6072C220.417 80.5842 220.463 80.5577 220.507 80.5281C231.984 70.6081 242.707 59.722 253.596 49.159C256.556 52.289 259.755 55.6776 262.854 59.2186V59.2195ZM251.326 46.7488C240.301 56.8488 228.981 66.7699 218.526 77.4539C217.137 73.8679 217.744 70.1443 217.681 65.3543C217.669 64.3973 217.689 63.4064 217.693 62.4324C226.479 54.5067 234.771 46.0503 242.524 37.1111C242.541 37.0931 242.543 37.0715 242.558 37.0535C244.058 38.7535 245.615 40.407 247.107 42.116C248.365 43.565 249.8 45.1158 251.326 46.7488ZM232.049 25.3592C227.155 29.9601 222.547 34.8554 218.249 40.0174C218.316 35.9594 218.283 31.9171 218.074 27.9481C218.18 28.1606 218.336 28.3439 218.529 28.4822C218.722 28.6206 218.946 28.71 219.181 28.742C219.417 28.774 219.656 28.7485 219.879 28.6668C220.102 28.5851 220.302 28.4498 220.461 28.2733C222.948 25.7083 225.315 23.0181 227.71 20.3631C228.804 21.6861 229.798 22.8795 230.655 23.8055C231.127 24.3165 231.578 24.8462 232.049 25.3592ZM225.596 17.827C223.118 20.543 220.596 23.2272 218.216 26.0272C218.118 26.1545 218.039 26.2953 217.981 26.4451C217.757 22.5622 217.26 18.7003 216.492 14.8875C215.927 12.0002 214.74 9.27047 213.015 6.88751L213.215 6.8631C217.579 8.7381 221.969 13.517 225.6 17.827H225.596ZM269.152 351.875C266.725 352.354 264.497 352.892 262.252 353.533C221.92 351.067 181.128 352.525 140.752 352.517L77.8958 352.506C59.6178 352.506 40.8058 351.25 22.6698 354.022C18.4648 352.588 13.4998 351.273 10.4168 348.255C8.88719 346.736 7.86316 344.782 7.4847 342.66C10.3207 288.524 8.14685 233.76 8.16585 179.57C8.18385 127.793 10.5048 75.2033 7.41683 23.4373C8.71683 19.1733 8.54077 14.6013 9.98177 10.4373C10.8638 7.89232 12.8559 7.29192 14.9569 6.70392C48.4329 8.66192 82.3108 7.01902 115.834 7.03302C132.234 7.03769 148.634 7.08121 165.034 7.16388C177.529 7.24488 190.524 8.36905 203.184 7.78205C206.995 10.682 210.398 19.1821 210.935 22.3201C211.478 25.4881 210.997 29.2251 211.026 32.4451L211.206 52.6961C211.289 62.0081 208.449 76.6219 212.519 85.2869C215.396 91.4099 221.257 91.6126 227.278 91.9666C233.895 92.3576 244.959 91.35 255.078 92.119C255.333 92.3048 255.634 92.4159 255.948 92.4402C256.262 92.4646 256.577 92.4019 256.858 92.2576C265.113 93.0756 272.501 95.2486 275.967 100.591C276.323 101.114 276.864 101.484 277.482 101.626C277.082 115.566 277.867 129.718 277.867 143.399C277.867 165.879 277.869 188.356 277.873 210.834C277.895 252.912 275.764 295.74 278.264 337.808C278.034 340.927 277.449 344.008 276.52 346.994C275.236 350.944 272.957 351.125 269.152 351.875Z" fill="#020100"/>
</svg>
