<svg width="239" height="140" viewBox="0 0 239 140" fill="none" xmlns="http://www.w3.org/2000/svg">
<path d="M69.2338 36.5963C68.9745 36.5476 68.7119 36.5214 68.4481 36.5182H32.9647C32.3725 36.4971 31.7838 36.6153 31.2455 36.8629C30.7071 37.1106 30.2344 37.4805 29.8651 37.944C29.5129 38.304 29.2371 38.7322 29.055 39.2018C28.873 39.6714 28.7885 40.173 28.806 40.6764C29.1985 47.3864 28.8275 54.1185 27.7001 60.7448C25.754 59.7865 23.6726 59.1316 21.5287 58.8014C18.3647 58.3214 15.2047 58.3219 12.2777 59.7789C9.20263 61.4235 6.59823 63.8261 4.71081 66.7584C2.84421 69.5544 1.62241 72.7302 1.13366 76.0563C0.644917 79.3824 0.901274 82.7751 1.88464 85.9899C2.91372 89.3011 4.95842 92.2046 7.72888 94.2897C10.0804 95.9752 12.786 97.1012 15.639 97.5817C20.4012 98.4434 25.2958 98.2244 29.9618 96.9401C29.5218 104.465 29.081 111.989 28.639 119.513C28.6331 119.719 28.6462 119.925 28.6781 120.129C28.66 120.504 28.6966 120.878 28.787 121.243C29.437 123.607 31.6767 124.503 33.9027 124.148C44.2917 122.496 54.6109 120.448 64.9799 118.68C64.7289 120.027 64.3309 121.42 64.1669 122.762C63.8124 125.665 64.402 128.605 65.848 131.147C67.3638 133.676 69.5084 135.77 72.0731 137.224C74.6379 138.679 77.5353 139.444 80.4838 139.447C86.8838 139.505 92.9038 136.385 97.6268 132.274C101.938 128.524 105.627 122.822 105.146 116.874C105.078 116.057 104.939 115.249 104.73 114.457C105.323 114.478 105.918 114.504 106.505 114.524C111.62 114.804 116.747 114.788 121.86 114.474C122.038 114.455 122.215 114.427 122.39 114.389C122.582 114.38 122.774 114.359 122.964 114.327C134.569 111.951 146.576 112.414 157.964 115.674C161.944 116.866 164.964 111.594 162.009 108.724C155.409 102.312 158.578 90.8734 167.909 89.5524C176.732 88.3024 183.275 97.8431 179.17 105.729C177.405 109.12 180.298 112.472 183.865 111.838C193.288 110.204 202.966 110.888 212.065 113.83C212.579 114.015 213.129 114.084 213.673 114.031C214.218 113.978 214.743 113.804 215.212 113.522L215.268 113.495L215.296 113.476C215.781 113.219 216.202 112.856 216.528 112.415C216.854 111.973 217.078 111.465 217.181 110.925C219.403 101.444 218.632 91.5465 217.795 81.8795C222.638 81.931 227.429 80.8722 231.801 78.7858C234.696 77.3372 236.916 74.8204 237.991 71.7662C239.065 68.7121 238.911 65.3593 237.561 62.4166C235.814 58.5686 231.183 56.4276 227.337 55.3336C224.034 54.3738 220.549 54.2133 217.172 54.8649V28.8385C217.194 28.2225 217.065 27.61 216.796 27.0553C216.527 26.5006 216.126 26.02 215.629 25.6559C214.898 25.034 213.973 24.6884 213.014 24.6783H189.346C190.017 22.3266 190.322 19.8855 190.251 17.441C190.1 11.969 188.151 6.94066 183.671 3.62366C181.569 2.09437 179.132 1.09084 176.563 0.695927C173.994 0.301017 171.368 0.52667 168.904 1.35413C166.384 2.29928 164.157 3.88673 162.441 5.9596C160.726 8.03247 159.582 10.519 159.125 13.1705C158.444 17.3469 158.708 21.6224 159.898 25.6832C146.251 27.8832 132.681 30.5395 119.016 32.6315C118.906 32.6475 118.798 32.6582 118.691 32.6842C118.66 32.6842 118.631 32.6938 118.601 32.6998C107.478 31.8062 96.2853 32.9751 85.5868 36.1471C84.493 36.4908 83.5782 37.2506 83.0389 38.2623C83.0089 38.3173 82.9869 38.3801 82.9579 38.4371C82.8829 38.5795 82.8159 38.7256 82.7577 38.8756C82.7337 38.9356 82.7021 38.9884 82.6791 39.0524C81.9242 41.4393 81.7753 43.9764 82.246 46.4352C82.375 47.3032 82.557 48.1612 82.746 49.0172C82.838 49.4402 82.931 49.8627 83.017 50.2877C83.05 50.4567 83.0831 50.6246 83.1171 50.7936C83.1251 50.8336 83.131 50.8757 83.139 50.9157C83.151 51.2597 83.216 51.6156 83.222 51.9576C83.222 52.1446 83.2158 52.3312 83.2098 52.5182C83.2261 52.467 83.2472 52.417 83.2728 52.3698C83.2454 52.4378 83.224 52.508 83.2089 52.5797C83.2089 52.6247 83.2089 52.6704 83.2089 52.7164C83.2089 52.9864 83.1398 52.9832 83.1298 52.8512C83.0708 53.1302 83.0299 53.4242 82.9589 53.6422C82.9499 53.6562 82.9479 53.6575 82.9379 53.6735C82.7889 53.9095 82.669 54.1611 82.516 54.3951C82.489 54.4381 82.4159 54.523 82.3529 54.611C82.3299 54.639 82.3071 54.6689 82.2821 54.695C82.0631 54.935 81.8219 55.1488 81.5819 55.3668C81.6185 55.3478 81.656 55.3313 81.6947 55.317C81.6379 55.3439 81.5848 55.3771 81.536 55.4166C81.496 55.4536 81.4588 55.491 81.4188 55.528C81.2868 55.649 81.2386 55.6498 81.2386 55.6158C81.1916 55.6528 81.139 55.6983 81.098 55.7233C80.761 55.9333 80.3977 56.0908 80.0507 56.2848C79.9296 56.3258 79.8098 56.3708 79.6888 56.4088C79.3082 56.5298 78.9211 56.6297 78.5297 56.7086L78.6669 56.7164C78.5057 56.7219 78.3451 56.7371 78.1859 56.7623C77.704 56.7979 77.22 56.801 76.7377 56.7721C76.6827 56.7721 76.5247 56.749 76.4017 56.733C76.0144 56.6562 75.632 56.5562 75.2567 56.4332C75.1977 56.4142 75.0888 56.3658 74.9808 56.3258L74.9247 56.2994C74.6037 56.1344 74.3116 55.9279 74.0096 55.7369C73.9556 55.6879 73.9039 55.6375 73.8539 55.5905C73.8039 55.5435 73.7327 55.4613 73.6727 55.3903C73.4367 54.9383 73.173 54.4838 72.909 54.0338C72.7996 53.8242 72.7015 53.6094 72.6151 53.3893C72.4971 53.0326 72.3917 52.6729 72.2997 52.3102C72.2077 51.9475 72.125 51.5734 72.0516 51.1881C72.0256 51.0511 72.0048 50.915 71.9808 50.778C71.8958 49.8863 71.8623 48.9909 71.8807 48.0953C71.8937 47.7103 71.9288 47.3289 71.9608 46.9459C71.9468 47.0099 71.9349 47.0651 71.9159 47.1461C71.9399 47.0461 71.9531 46.9463 71.9691 46.8463C71.9691 46.8043 71.9689 46.7623 71.9779 46.7203C71.985 46.6215 72.0062 46.5241 72.0409 46.4313C72.0409 46.4133 72.0467 46.3975 72.0497 46.3815C72.1277 45.9905 72.2209 45.6043 72.3329 45.2213C72.4509 44.8163 73.0527 43.5992 72.4007 44.8522C72.5817 44.5042 72.7299 44.1522 72.9349 43.8102C72.9979 43.7052 73.0806 43.6008 73.1346 43.4928L73.142 43.4782C73.8567 42.6865 74.244 41.653 74.2255 40.5866C74.2069 39.5201 73.7837 38.5003 73.0419 37.734C72.5306 37.2748 71.9239 36.9347 71.2655 36.7379C70.6071 36.5412 69.9131 36.493 69.2338 36.5963ZM19.6449 66.8717C19.9199 66.9077 20.2449 66.9797 19.6449 66.8717V66.8717ZM175.401 8.92347C175.39 8.91447 175.008 8.84088 174.89 8.82288C175.066 8.815 175.24 8.84988 175.4 8.92347H175.401ZM167.121 15.4508C167.122 15.4345 167.122 15.4183 167.121 15.402C167.147 15.282 167.181 15.1572 167.191 15.1022C167.284 14.6302 167.399 14.1618 167.538 13.7018C167.594 13.5188 167.652 13.3388 167.715 13.1578C167.778 12.9768 167.844 12.8016 167.915 12.6256C167.848 12.7829 167.781 12.9409 167.715 13.0983C167.65 12.8653 168.234 12.0823 168.377 11.8483C168.477 11.6883 168.588 11.5337 168.683 11.3707C168.7 11.3447 168.701 11.3381 168.714 11.3151L168.725 11.3043C168.99 11.0203 169.242 10.7266 169.525 10.4586C169.666 10.3236 169.814 10.1999 169.96 10.0729C170.072 9.99488 170.185 9.91934 170.301 9.84534C170.475 9.73634 171.129 9.22458 171.31 9.29358L170.841 9.48206C171.017 9.41106 171.197 9.34387 171.378 9.28187C171.559 9.21986 171.741 9.16297 171.925 9.11097C172.237 9.02297 173.047 8.69516 173.325 8.81116C173.316 8.81116 172.253 8.88087 173.079 8.86487C173.37 8.85887 173.657 8.83362 173.948 8.83362C174.111 8.83362 174.516 8.80795 174.868 8.81995C174.836 8.81995 174.891 8.83805 175.157 8.89905C175.347 8.94305 175.54 8.97517 175.729 9.01917C176.208 9.13117 176.664 9.29026 177.129 9.43226C177.218 9.45926 177.282 9.47785 177.329 9.49085C177.518 9.59085 177.705 9.69082 177.869 9.78382C178.257 9.99282 178.615 10.2384 178.99 10.4684L179.022 10.4869C179.174 10.6359 179.354 10.7687 179.506 10.9127C179.79 11.1817 180.042 11.4755 180.306 11.7575L180.32 11.7828C180.451 12.0068 180.6 12.218 180.728 12.442C180.815 12.594 180.897 12.7509 180.976 12.9059C181.006 12.9699 181.038 13.0333 181.068 13.0973C181.107 13.1973 181.148 13.3058 181.184 13.4098C181.245 13.5858 181.302 13.764 181.356 13.941C181.494 14.394 181.609 14.8549 181.703 15.3209C181.742 15.5109 181.772 15.7022 181.81 15.8922L181.819 15.9323V15.9528C181.917 17.0532 181.941 18.1597 181.889 19.2633C181.877 19.4633 181.863 19.6645 181.846 19.8678C181.834 19.9978 181.82 20.1275 181.807 20.2565C181.72 20.7565 181.638 21.2469 181.523 21.7379C181.408 22.2289 181.282 22.6898 181.133 23.1578C181.06 23.3868 180.973 23.6134 180.9 23.8434C180.875 23.9204 180.866 23.9575 180.852 24.0075L180.84 24.028C180.64 24.439 180.44 24.8488 180.214 25.2438C180.049 25.5268 179.014 26.918 179.83 25.901C179.768 25.978 179.719 26.0651 179.662 26.1451C178.995 26.8875 178.621 27.8475 178.611 28.8453C178.615 29.0804 178.64 29.3148 178.685 29.5455C178.78 30.4055 179.188 31.2 179.83 31.7799C179.95 31.8822 180.075 31.9775 180.206 32.0651C180.928 32.6602 181.833 32.9897 182.769 32.9996H208.838V60.9518C208.813 61.5977 208.955 62.2392 209.251 62.8141C209.546 63.389 209.985 63.8782 210.525 64.234C211.131 64.81 211.92 65.1561 212.754 65.2125C213.588 65.269 214.416 65.0317 215.094 64.5426C216.38 63.717 217.819 63.1587 219.326 62.901C220.832 62.6433 222.374 62.6915 223.862 63.0426C225.289 63.3238 226.669 63.8062 227.962 64.4742C228.554 64.7906 229.127 65.1426 229.677 65.5289C229.296 65.2619 229.777 65.8133 229.965 65.9293C230.044 66.1915 230.141 66.4471 230.258 66.695C230.451 67.5139 230.409 68.3707 230.136 69.1666C229.593 70.7826 228.207 71.3814 226.719 71.9674C222.792 73.526 218.528 74.0427 214.343 73.4674C211.921 73.1164 208.835 74.4892 209.079 77.4762C209.808 86.3202 211.086 95.6881 209.879 104.605C202.867 102.919 195.63 102.367 188.444 102.969C189.041 98.3404 187.991 93.649 185.477 89.7164C183.456 86.7387 180.648 84.3805 177.366 82.9049C174.083 81.4293 170.456 80.8941 166.888 81.359C163.319 81.8239 159.95 83.2704 157.155 85.5377C154.361 87.805 152.25 90.8037 151.06 94.1998C149.885 97.8884 149.815 101.84 150.86 105.568C142.613 104.29 134.223 104.235 125.96 105.405C126.739 100.074 126.883 94.67 126.388 89.3053C126.332 88.5795 126.112 87.8755 125.743 87.2477C125.374 86.6199 124.868 86.0848 124.261 85.6823C123.868 85.1613 123.364 84.7332 122.786 84.4293C122.209 84.1254 121.571 83.9534 120.919 83.9244C120.746 83.9104 120.57 83.8926 120.393 83.8766C120.333 83.8656 120.273 83.8563 120.214 83.8453C119.61 83.733 119.015 83.5844 118.429 83.401C118.179 83.322 117.929 83.2311 117.684 83.1461L117.652 83.1364C117.119 82.8889 116.601 82.6117 116.099 82.3063C115.883 82.1723 115.677 82.0284 115.467 81.8864C115.024 81.4924 114.613 81.086 114.209 80.652L114.193 80.6364C114.065 80.4464 113.935 80.2581 113.817 80.0621C113.686 79.8431 113.574 79.6172 113.451 79.3942L113.444 79.3766C113.414 79.2946 113.386 79.2238 113.38 79.2008C113.307 78.9828 113.243 78.7617 113.192 78.5368C113.214 78.1367 113.16 77.6828 113.172 77.2828C113.227 77.0688 113.272 76.8513 113.327 76.6383C113.382 76.4253 113.459 76.229 113.527 76.025L113.535 76.0123C113.555 75.9743 113.59 75.9322 113.614 75.8932C113.714 76.0342 113.804 76.1771 113.914 76.3121C115.935 78.6581 119.748 78.2963 121.807 76.2213C122.607 75.434 123.162 74.432 123.406 73.3366C123.65 72.2411 123.573 71.099 123.183 70.0465C124.011 60.1319 124.226 50.1752 123.829 40.234C137.736 38.029 151.558 35.3057 165.475 33.1617C165.824 33.1553 166.17 33.0988 166.503 32.9938C167.048 32.8878 167.56 32.6527 167.996 32.3082C168.432 31.9638 168.779 31.5204 169.009 31.0143C169.33 30.5661 169.535 30.0448 169.605 29.4977C169.675 28.9506 169.608 28.3951 169.409 27.8805C168.598 25.9747 167.959 23.9998 167.5 21.9801C167.408 21.5721 167.325 21.1613 167.252 20.7487C167.21 20.5157 167.177 20.2804 167.136 20.0494C167.136 20.0294 167.136 20.0265 167.136 20.0035C167.03 18.9882 166.985 17.9667 167.002 16.9459C167.037 16.4439 167.081 15.9498 167.121 15.4518V15.4508ZM115.99 73.8463L116.031 73.859L116.085 73.9059C116.041 73.889 115.998 73.8697 115.957 73.8473L115.99 73.8463ZM80.953 64.691C85.661 63.622 90.0829 59.9213 91.1849 55.0983C91.6657 52.3412 91.5198 49.5111 90.7587 46.818C90.6297 46.218 90.497 45.6182 90.389 45.0182C90.38 44.9742 90.3731 44.9294 90.3651 44.8854C90.3541 44.6434 90.303 44.379 90.288 44.153C90.288 44.087 90.295 43.7992 90.307 43.4742C98.5429 41.3204 107.059 40.4359 115.562 40.8512C115.866 49.0938 115.747 57.3462 115.208 65.5768C113.541 65.6999 111.935 66.2516 110.544 67.1774C108.929 68.2917 107.584 69.7537 106.607 71.4557C105.631 73.1577 105.048 75.0566 104.901 77.0133C104.793 78.9238 105.11 80.8344 105.828 82.608C106.546 84.3817 107.648 85.9743 109.054 87.2721C111.614 89.6588 114.808 91.2556 118.254 91.8717C118.407 94.2547 118.429 96.6445 118.321 99.0299C118.239 100.555 118.089 102.073 117.911 103.589C117.884 103.794 117.839 104.144 117.832 104.188C117.776 104.566 117.715 104.943 117.651 105.319C117.591 105.675 117.515 106.028 117.451 106.383C113.938 106.464 110.41 106.361 106.916 106.237C104.077 106.137 101.239 105.994 98.4071 105.762C98.3601 105.762 98.314 105.751 98.267 105.747C96.4423 104.7 94.3437 104.23 92.2469 104.398C91.154 104.475 90.1199 104.922 89.3168 105.668C88.5005 106.195 87.9069 107.004 87.6488 107.941C87.3669 109.003 87.5129 110.134 88.055 111.09C88.5972 112.047 89.4923 112.752 90.5487 113.055C92.0857 113.391 93.6489 113.622 95.2289 113.814L95.4291 114.014C95.8563 114.511 96.2056 115.069 96.4657 115.671C96.4557 115.7 96.6769 116.341 96.7059 116.452C96.7639 116.668 96.8159 116.889 96.8539 117.108L96.8617 117.153C96.8617 117.19 96.8617 117.245 96.8617 117.331C96.9067 120.914 94.5009 124.058 91.5619 126.569C88.5099 129.175 84.4621 131.174 80.4921 131.139C78.9152 131.165 77.3624 130.75 76.0082 129.942C74.6539 129.134 73.552 127.964 72.826 126.564C72.831 126.574 72.7399 126.364 72.6869 126.245C72.6529 126.116 72.5427 125.76 72.5277 125.705C72.4787 125.525 72.4368 125.344 72.3988 125.16C72.3816 125.052 72.3706 124.943 72.3651 124.835C72.3714 123.783 72.5023 122.738 72.7557 121.717C73.3957 118.738 74.0067 115.681 72.9457 112.717C72.8113 112.186 72.5648 111.69 72.2225 111.262C71.8803 110.835 71.4504 110.485 70.9618 110.238C70.4975 109.955 69.9796 109.771 69.4408 109.698C68.902 109.625 68.354 109.663 67.8309 109.812C57.5969 111.439 47.4307 113.451 37.2167 115.202C37.696 107.01 38.1764 98.8199 38.6571 90.6285C38.6872 89.9127 38.4996 89.2043 38.119 88.5973C38.107 88.5763 38.1008 88.5519 38.0878 88.5299C38.0781 88.5142 38.0677 88.4992 38.056 88.485C37.9733 88.3569 37.8828 88.2338 37.785 88.1168C37.6829 87.9801 37.5716 87.8508 37.452 87.7291C37.431 87.7081 37.4081 87.6896 37.3871 87.6676C37.2077 87.496 37.0135 87.3406 36.807 87.2028C36.788 87.1908 36.7679 87.1816 36.7489 87.1686C36.4272 86.9575 36.0761 86.7956 35.7069 86.6871C35.6389 86.6661 35.5727 86.6397 35.5067 86.6217C35.1812 86.5288 34.8451 86.479 34.5067 86.4723C34.3452 86.4787 34.1843 86.4946 34.0248 86.5201L33.9247 86.5309C33.7215 86.5609 33.5213 86.6061 33.3251 86.6666C33.2381 86.6916 33.1518 86.7187 33.0668 86.7477C32.9368 86.7987 32.8109 86.8556 32.6879 86.9176C32.5989 86.9616 32.5048 86.9887 32.4178 87.0387C31.9278 87.3227 31.4298 87.5906 30.9178 87.8336C30.8118 87.8856 30.705 87.9341 30.598 87.9811C30.521 88.0091 30.0887 88.1901 29.9847 88.2291C28.8261 88.6548 27.6403 89.002 26.4349 89.2682C25.8719 89.3922 25.3057 89.4855 24.7347 89.5905L24.642 89.609H24.6361C24.3481 89.626 24.0579 89.6738 23.7699 89.6998C22.5032 89.8136 21.2302 89.841 19.9598 89.7819C19.5058 89.7609 19.052 89.7165 18.598 89.6715C18.427 89.6505 18.124 89.6152 18.035 89.6002C17.762 89.5522 17.4921 89.5 17.2211 89.441C16.6891 89.326 16.162 89.1908 15.642 89.0328C15.386 88.9548 15.1318 88.8715 14.8798 88.7828C14.7518 88.7378 14.6258 88.6882 14.5008 88.6412C14.0378 88.3662 13.5258 88.1634 13.0648 87.8834C12.8138 87.7294 11.9716 87.0251 12.2176 87.2741C11.9286 87.0111 11.637 86.7555 11.371 86.4655C11.355 86.4475 11.2638 86.3342 11.1708 86.2262C11.0488 86.0372 10.8161 85.6963 10.7831 85.6383C10.5428 85.222 10.3254 84.7925 10.1327 84.3522C10.0717 84.1822 9.9467 83.8518 9.9237 83.7828C9.8497 83.5608 9.78067 83.3369 9.71667 83.1119C9.55567 82.5469 9.44702 81.975 9.32702 81.401C9.31402 81.338 9.30775 81.3161 9.29675 81.2721C9.28575 81.2281 9.29675 81.1899 9.29675 81.1129C9.27875 80.7619 9.24378 80.4132 9.23278 80.0602C9.214 79.4135 9.22864 78.7659 9.27673 78.1207C9.28973 77.9567 9.31005 77.7945 9.32605 77.6315C9.34904 77.5145 9.41984 77.0429 9.43884 76.9489C9.55284 76.3695 9.69369 75.7965 9.86169 75.2291C9.92869 75.0021 10.0011 74.7774 10.0751 74.5534C10.1131 74.4404 10.3747 73.7823 10.4227 73.6383C10.8696 72.6524 11.4016 71.707 12.0121 70.8131C12.0731 70.7231 12.544 70.1328 12.412 70.2858C12.495 70.1858 12.576 70.086 12.663 69.986C13.1265 69.4585 13.623 68.9609 14.1498 68.4967C14.2218 68.4327 14.7177 68.0532 14.6957 68.0582C14.7897 67.9922 14.8819 67.924 14.9769 67.858C15.4059 67.571 16.0767 67.3327 16.4847 66.9977C16.6157 66.9687 16.7469 66.9341 16.8749 66.8981C16.8389 66.8861 16.8029 66.8978 16.7689 66.8698C16.8125 66.8866 16.859 66.8942 16.9056 66.8912C16.9246 66.8852 16.9477 66.8807 16.9667 66.8737C17.2617 66.7857 17.307 66.8209 17.267 66.8659C17.467 66.8399 17.661 66.8044 17.746 66.8024C18.346 66.7824 18.9317 66.825 19.5267 66.861C19.5607 66.861 19.6019 66.8667 19.6439 66.8717C19.9599 66.9297 20.2747 66.9814 20.5887 67.0504C21.2127 67.1861 21.8296 67.353 22.4369 67.5504C22.6879 67.6324 22.9369 67.7302 23.1849 67.8112C23.2539 67.8332 23.285 67.8412 23.326 67.8522C23.367 67.8632 23.4069 67.8972 23.4789 67.9342C24.0124 68.1926 24.5323 68.4781 25.036 68.7907C25.094 68.8277 25.148 68.8679 25.204 68.9069C25.045 68.8069 25.531 69.165 25.684 69.316C25.708 69.3391 25.7836 69.409 25.8636 69.485L25.8827 69.5143C25.9037 69.5443 25.9189 69.577 25.9379 69.609C25.9449 69.7447 25.9596 69.8802 25.9818 70.0143C25.9818 70.0303 25.9818 70.0442 25.9818 70.0602C26.0171 70.298 26.0733 70.5325 26.1498 70.7604C26.1618 70.7954 26.1719 70.8318 26.1849 70.8678C26.2516 71.0512 26.3309 71.2298 26.4227 71.402C26.4677 71.49 26.5129 71.5758 26.5619 71.6598C26.6379 71.7818 26.721 71.8973 26.807 72.0133C26.893 72.1293 26.9728 72.2297 27.0658 72.3307C27.1561 72.429 27.2517 72.5228 27.3519 72.611C27.4429 72.695 27.5337 72.7762 27.6327 72.8522C27.7819 72.9624 27.9385 73.0624 28.1009 73.152C28.1539 73.181 28.2007 73.2139 28.2567 73.2399C28.4862 73.3577 28.7274 73.4521 28.9759 73.5211C29.2146 73.5875 29.4596 73.6284 29.7069 73.6432C29.7569 73.6432 29.8068 73.651 29.8578 73.653C29.9318 73.653 30.0049 73.6745 30.0809 73.6715C30.1569 73.6685 30.2551 73.6454 30.3441 73.6354C30.512 73.6228 30.679 73.5997 30.8441 73.567C30.8861 73.558 30.9271 73.5468 30.9691 73.5368C31.9905 73.3038 32.8899 72.7025 33.495 71.8473C33.51 71.8263 33.521 71.8048 33.536 71.7838C33.6623 71.5976 33.7725 71.401 33.8651 71.1959C33.8991 71.1189 33.9249 71.0376 33.9559 70.9586C33.9979 70.8456 34.0558 70.7388 34.0858 70.6188C36.309 62.2073 37.3827 53.5333 37.2777 44.8336H63.8929C63.6127 46.3759 63.5056 47.9453 63.5731 49.5114C63.7411 53.6914 64.873 58.0316 67.722 61.2116C70.939 64.8136 76.417 65.721 80.953 64.691Z" fill="#17212B"/>
</svg>
