<svg width="145" height="258" viewBox="0 0 145 258" fill="none" xmlns="http://www.w3.org/2000/svg">
<path d="M119.318 13.3588C118.846 11.8333 117.904 10.4959 116.626 9.53848C115.348 8.5811 113.8 8.05278 112.203 8.02871C108.658 7.81971 106.347 10.1397 105.08 13.1547C103.337 17.2987 101.857 21.5659 100.492 25.8549C98.5991 31.7999 96.474 37.6365 94.202 43.4545C84.718 67.7415 65.2823 78.7035 41.1923 82.9965C35.2923 84.0485 30.5731 86.2512 26.7841 90.3412C20.6131 96.9992 15.7559 104.554 13.2489 113.452C8.41091 130.622 7.69109 148.28 7.01209 165.93C6.89409 169.003 7.6669 172.124 8.1449 175.204C8.6499 178.462 9.98693 181.957 13.4979 181.94C18.0159 181.917 16.7259 177.44 17.0819 174.733C19.1579 158.939 20.9821 143.112 22.9691 127.306C23.4691 123.306 23.6691 119.125 28.2001 114.413C30.3711 122.713 28.5362 129.145 27.3422 135.314C21.9362 163.246 21.1992 191.484 21.4662 219.754C21.5432 227.959 19.6481 252.821 33.8661 252.781C40.1451 252.821 40.0483 244.224 41.3803 238.024C42.8683 212.795 44.2161 198.098 46.5521 178.162C46.9906 175.42 47.9023 172.776 49.247 170.347C51.741 165.456 57.1223 164.515 61.3593 168.039C63.7597 170.106 65.324 172.977 65.7592 176.115C66.9032 182.934 68.4881 227.868 70.5731 243.393C71.1841 247.944 72.5281 251.593 77.7011 252.105C81.5301 252.486 86.1339 248.604 87.0009 243.804C88.0446 238.709 88.5915 233.526 88.6332 228.326C88.0702 195.773 87.5713 163.212 86.3593 130.68C85.8053 115.808 89.8241 102.692 97.5961 90.3744C106.478 76.2944 126.534 35.3178 119.318 13.3588Z" fill="white"/>
<path d="M69.604 47.9017C69.073 32.0297 61.9362 15.715 40.0103 16.14C19.7043 16.077 7.82708 29.9215 7.66308 49.2855C7.53208 64.7395 20.6533 78.6859 38.0933 78.8519C55.9823 80.0009 70.104 62.8137 69.604 47.9017Z" fill="white"/>
<path d="M124.429 11.2087C122.922 5.48465 115.553 -0.0697868 110.544 0.185213C104.333 0.499213 101.874 5.26787 99.7908 10.1579C98.8438 12.3809 98.2911 14.7715 97.5671 17.0895C94.5671 26.6825 92.1371 36.4593 87.5671 45.5133C83.1671 54.2373 80.1051 57.8869 74.2751 60.6999C79.5411 36.4259 68.2659 18.0309 50.1829 12.8239C35.1359 8.49088 13.983 13.7121 5.44605 31.5241C-3.35395 49.8861 1.83878 68.3592 24.9988 83.6862C24.6252 84.6268 24.1241 85.5113 23.509 86.3151C13.768 95.9151 8.90876 107.661 5.87476 120.946C2.43876 135.998 1.8748 151.205 1.0398 166.383C0.612799 174.166 1.50419 183.224 10.4402 186.736C15.8492 188.862 15.7399 192.329 15.5579 196.487C15.0579 207.954 15.7401 219.382 16.2981 230.827C16.5921 236.861 16.9738 242.427 18.9978 247.941C21.2078 253.967 30.0851 258.541 35.9211 257.896C41.3871 257.288 44.5209 252.969 45.3469 244.79C45.5569 242.721 48.0832 202.601 51.1902 184.822C51.6121 182.086 52.2626 179.39 53.135 176.762C53.4558 175.94 54.0494 175.254 54.8162 174.817C55.5829 174.38 56.4761 174.22 57.3469 174.363C58.0318 174.507 58.6589 174.851 59.1492 175.35C59.6395 175.85 59.9711 176.483 60.1028 177.171C60.9274 179.455 61.5651 181.803 62.009 184.19C63.253 194.522 64.1408 234.752 64.6668 244.442C65.1357 253.072 68.2441 256.421 75.2371 257.632C81.7631 258.762 87.4588 255.331 90.7468 249.132C93.3735 244.153 94.6533 238.575 94.4597 232.949C93.6147 202.107 93.2509 171.239 91.6599 140.433C90.7459 122.733 94.1438 106.97 104.205 92.2194C114.004 77.8494 130.651 37.3637 124.429 11.2087ZM7.66285 49.2848C7.82685 29.9218 19.704 16.0763 40.01 16.1393C61.936 15.7143 69.0728 32.029 69.6038 47.901C70.1038 62.813 55.982 80.0012 38.093 78.8512C20.653 78.6872 7.53185 64.7388 7.66285 49.2868V49.2848ZM86.3499 130.69C87.5619 163.221 88.0608 195.782 88.6238 228.335C88.5821 233.535 88.0357 238.719 86.9919 243.814C86.1269 248.614 81.5231 252.493 77.6921 252.114C72.5191 251.599 71.1747 247.953 70.5637 243.402C68.4787 227.877 66.8938 182.943 65.7498 176.124C65.3146 172.986 63.7503 170.115 61.3499 168.048C57.1129 164.524 51.732 165.466 49.238 170.357C47.8934 172.786 46.9812 175.429 46.5427 178.171C44.2067 198.108 42.8589 212.805 41.3709 238.033C40.0389 244.233 40.1362 252.833 33.8572 252.79C19.6432 252.83 21.5378 227.968 21.4568 219.763C21.1898 191.492 21.9268 163.254 27.3328 135.323C28.5268 129.151 30.3622 122.723 28.1912 114.423C23.6612 119.135 23.4617 123.316 22.9597 127.316C20.9727 143.122 19.149 158.948 17.073 174.742C16.717 177.452 18.007 181.926 13.489 181.949C9.97802 181.966 8.64099 178.47 8.13599 175.213C7.65799 172.133 6.88518 169.013 7.00318 165.94C7.68218 148.291 8.40299 130.631 13.24 113.461C15.747 104.561 20.6042 97.0092 26.7752 90.3512C30.5641 86.2612 35.2809 84.0575 41.1829 83.0055C65.2729 78.7125 84.7091 67.7505 94.1931 43.4635C96.4651 37.6425 98.5932 31.8059 100.483 25.8639C101.848 21.5769 103.328 17.3087 105.071 13.1637C106.338 10.1487 108.649 7.82875 112.194 8.03775C113.791 8.06182 115.339 8.59014 116.617 9.54752C117.895 10.5049 118.837 11.8423 119.309 13.3678C126.525 35.3268 106.469 76.3042 97.5779 90.3942C89.8149 102.702 85.7959 115.818 86.3499 130.687V130.69Z" fill="black"/>
<path d="M142.088 49.3587C139.677 49.5467 140.004 51.6645 140.04 53.3225C140.385 69.2355 134.619 82.7643 124.702 94.9133C139.246 85.0433 144.502 70.5133 144.856 53.6253C144.898 51.6283 145.265 49.1117 142.088 49.3587Z" fill="black"/>
</svg>
