<svg width="147" height="175" viewBox="0 0 147 175" fill="none" xmlns="http://www.w3.org/2000/svg">
<path d="M29.9045 95.9352C30.9894 98.359 31.3788 101.036 31.0295 103.669C30.6802 106.301 29.6059 108.784 27.9264 110.841C27.5333 111.262 27.2694 111.787 27.1667 112.354C27.0639 112.921 27.1269 113.506 27.3473 114.038C27.5677 114.57 27.9365 115.027 28.4098 115.355C28.8831 115.683 29.4407 115.868 30.0163 115.887C32.7531 115.92 35.4747 115.477 38.0592 114.576C39.3992 118.652 40.9274 122.676 42.5114 126.654C44.5434 131.759 46.5404 137.254 49.6784 141.813C51.7619 145.542 55.1064 148.407 59.1115 149.892L59.1003 149.946C58.8853 150.924 58.6282 151.892 58.3512 152.853C57.7652 154.89 57.0863 156.903 56.3683 158.898C55.0683 162.509 53.5274 166.346 52.1374 169.567C51.8288 170.137 51.7073 170.789 51.7902 171.432C51.8731 172.075 52.1562 172.676 52.5993 173.149C53.0619 173.61 53.6639 173.905 54.3117 173.989C54.9595 174.072 55.6168 173.94 56.1813 173.611C61.1523 169.911 65.8375 165.853 70.7545 162.088C75.4285 158.509 80.5361 154.606 86.1051 152.715C86.3541 152.629 86.5915 152.513 86.8122 152.369C91.941 151.808 97.0049 150.761 101.935 149.241C102.598 149.262 103.25 149.063 103.789 148.676C106.557 147.759 109.275 146.698 111.933 145.5C114.689 144.249 117.369 142.838 119.96 141.273C120.226 141.169 120.472 141.02 120.688 140.834C137.088 130.734 152.61 113.073 144.497 93.5133C140.591 84.0933 132.415 77.3386 123.244 73.2526C122.847 72.97 122.394 72.7751 121.915 72.6813C121.876 72.6653 121.837 72.6514 121.798 72.6334C124.287 67.0361 125.217 60.8711 124.492 54.7887C123.682 48.8245 122.027 43.0056 119.577 37.5074C117.369 32.0422 114.735 26.7595 111.698 21.7076C106.259 12.9188 97.8144 6.40327 87.9333 3.3717C78.1592 0.449944 67.7812 0.199993 57.8776 2.64709C46.7716 5.24709 36.4394 10.5795 26.9264 16.7555C17.9344 22.5955 7.73113 29.1835 3.14713 39.2975C-1.30187 49.1185 -0.668481 60.4432 3.54752 70.2272C7.68052 79.8172 15.9594 86.7794 24.4474 92.4654C26.2394 93.6694 28.0665 94.8132 29.9045 95.9352ZM54.1115 98.1529C55.8575 98.2583 57.6185 98.3525 59.3952 98.4352C56.2585 108.297 52.8865 118.078 49.2785 127.777C48.8685 126.75 48.4666 125.724 48.0666 124.714C46.4056 120.523 44.8102 116.282 43.4342 111.983C48.5411 108.807 52.3324 103.897 54.1125 98.1529H54.1115ZM54.7834 138.829C54.0282 137.722 53.3349 136.575 52.7072 135.392C57.3585 123.268 61.635 111.013 65.5363 98.6295C69.2493 98.6935 72.9804 98.643 76.6794 98.401C72.8821 114.116 67.5625 129.423 60.7956 144.106C58.2504 143.081 56.1301 141.22 54.7843 138.829H54.7834ZM117.562 79.7838C112.663 101.395 106.721 122.728 99.7345 143.784C96.1869 144.841 92.5656 145.633 88.9005 146.154C92.5661 127.851 97.2887 109.776 103.045 92.0192C103.073 91.9342 103.078 91.856 103.098 91.774C107.445 89.5178 111.394 86.5645 114.786 83.0319C115.773 82.0037 116.7 80.9202 117.563 79.7867L117.562 79.7838ZM82.7624 146.784C77.4532 147.159 72.1183 146.876 66.8786 145.942C66.7406 145.915 66.6006 145.88 66.4616 145.851C73.5231 130.417 79.0323 114.317 82.9084 97.7926C87.3491 97.2355 91.7236 96.2394 95.9674 94.818C90.6068 111.883 86.1977 129.233 82.7604 146.787L82.7624 146.784ZM68.1486 156.697C65.8976 158.409 63.6982 160.188 61.4992 161.968C61.6852 161.468 61.8904 160.968 62.0714 160.468C63.1655 157.581 64.0672 154.626 64.7711 151.62C67.6948 152.217 70.6617 152.58 73.6432 152.704C71.7632 153.987 69.9352 155.337 68.1461 156.697H68.1486ZM135.837 119.074C133.277 122.868 130.202 126.289 126.701 129.238C128.701 124.6 130.471 119.85 132.157 115.128C134.54 108.45 136.722 101.691 138.657 94.8649C142.317 102.922 140.704 111.674 135.834 119.074H135.837ZM134.337 88.2594C132.137 96.6154 129.536 104.876 126.646 113.019C123.816 120.988 120.773 129.01 116.62 136.403C115.32 137.168 114.008 137.903 112.688 138.588C110.759 139.588 108.776 140.481 106.762 141.306C113.322 121.125 118.929 100.669 123.583 79.9381C127.652 82.022 131.299 84.8432 134.338 88.2594H134.337ZM12.2443 73.6647C9.53191 69.8568 7.63898 65.5275 6.68473 60.9508C5.73048 56.374 5.73571 51.6494 6.70035 47.0748C8.98435 37.2408 16.6482 31.0032 24.5612 25.4752C33.1192 19.4962 42.1964 13.9656 52.0924 10.5026C68.7664 4.66856 89.7423 5.1764 102.43 19.0924C106.07 23.0844 108.613 27.9578 110.957 32.7828C113.396 37.5878 115.429 42.5884 117.035 47.732C118.656 52.7281 119.182 58.0147 118.576 63.232C117.885 67.6209 116.157 71.7814 113.537 75.3697C107.89 83.2977 98.7601 88.3332 89.4801 90.6832C77.1981 93.7952 64.3334 92.9063 51.8234 92.0983C51.1763 92.0992 50.5472 92.3127 50.0324 92.7047C49.5176 93.0967 49.1453 93.6466 48.9723 94.2701C48.3018 97.7328 46.7027 100.947 44.3463 103.572C41.99 106.196 38.9651 108.131 35.5944 109.17C36.6304 106.539 37.1078 103.721 36.9963 100.896C36.8847 98.0709 36.1866 95.2994 34.9464 92.7584C34.9264 92.7064 34.8991 92.659 34.8761 92.608C34.8421 92.541 34.8155 92.4708 34.7765 92.4078C34.7375 92.3448 34.7123 92.3133 34.6833 92.2613C34.6673 92.2383 34.6534 92.214 34.6364 92.192C34.3219 91.6397 33.8103 91.2262 33.2043 91.0348C25.5133 86.3578 17.5303 81.0987 12.2453 73.6647H12.2443Z" fill="#020100"/>
<path d="M34.0454 59.4932L34.645 59.0313C35.0065 58.671 35.2686 58.2233 35.4052 57.7315C35.4399 57.4688 35.4752 57.2067 35.5112 56.9453C35.5056 56.7337 35.4777 56.5233 35.4282 56.3174C35.4985 56.2444 35.5635 56.1661 35.623 56.084C35.8753 55.7856 36.0588 55.4352 36.1596 55.0576C36.2604 54.68 36.276 54.2849 36.206 53.9004C36.1891 53.509 36.0678 53.1287 35.855 52.7998C35.701 52.5998 35.5471 52.4002 35.3921 52.2002C35.0318 51.8386 34.5841 51.577 34.0923 51.4405L33.3071 51.334C32.783 51.332 32.2682 51.4705 31.8154 51.7344C31.7544 51.7714 31.6971 51.8115 31.6411 51.8535C31.392 52.0289 31.1523 52.2163 30.9223 52.416C30.661 52.6827 30.4264 52.9746 30.2221 53.2871C30.1422 53.3956 30.0729 53.5111 30.0151 53.6328C29.6468 54.3034 29.4411 55.0518 29.415 55.8164C29.3999 55.9559 29.3983 56.0965 29.4101 56.2364C29.4317 56.6169 29.4872 56.9946 29.5761 57.3653C29.6861 57.734 29.8328 58.0903 30.0141 58.4297C30.4287 59.0722 31.0527 59.552 31.7802 59.7871C32.1615 59.9097 32.5683 59.9278 32.959 59.8399C33.3452 59.8219 33.7203 59.7025 34.0454 59.4932Z" fill="#020100"/>
<path d="M52.1962 59.561C52.3514 60.1208 52.6677 60.6225 53.1063 61.0034C53.5449 61.3843 54.086 61.6273 54.662 61.7027C55.238 61.778 55.8238 61.6816 56.3456 61.4263C56.8673 61.1709 57.3021 60.7682 57.5961 60.2671C57.9666 59.5685 58.0729 58.7595 57.8959 57.9888C57.4899 55.9108 57.0844 53.8321 56.6791 51.7534C56.5238 51.1937 56.207 50.692 55.7684 50.311C55.3298 49.9301 54.7888 49.6871 54.2128 49.6118C53.6368 49.5365 53.0514 49.6328 52.5297 49.8882C52.0079 50.1436 51.5731 50.5463 51.2792 51.0474C50.9087 51.746 50.8019 52.555 50.9789 53.3257C51.3849 55.4037 51.7908 57.4824 52.1962 59.561Z" fill="#020100"/>
<path d="M76.6889 53.022C76.7597 53.2365 76.8184 53.4542 76.8642 53.6754C76.8828 53.9618 76.8798 54.2496 76.8559 54.5357C76.69 55.2763 76.8007 56.0517 77.167 56.7164C77.3629 57.0516 77.6233 57.3449 77.9326 57.5797C78.2419 57.8144 78.5941 57.986 78.9697 58.0845C79.3453 58.1831 79.7368 58.2066 80.1216 58.1539C80.5063 58.1012 80.8771 57.9738 81.2124 57.7779C81.8784 57.3884 82.3657 56.7533 82.5703 56.0093C82.868 54.7613 82.8777 53.462 82.5991 52.2095C82.5265 51.8292 82.4176 51.4565 82.2734 51.0972C82.0532 50.4938 81.7704 49.9155 81.4302 49.3707C81.0274 48.7171 80.399 48.2332 79.664 48.0113C79.2827 47.889 78.8759 47.8713 78.4853 47.9595C78.094 47.9758 77.714 48.0973 77.3852 48.3101C76.7085 48.7062 76.2168 49.3544 76.018 50.1129C75.8193 50.8713 75.9297 51.678 76.3252 52.355C76.4612 52.569 76.5826 52.7919 76.6889 53.022Z" fill="#020100"/>
<path d="M96.2042 52.1979C96.3082 52.5025 96.3911 52.8136 96.4522 53.1296C96.4786 53.4834 96.4786 53.8392 96.4522 54.1931C96.3795 54.5742 96.2748 54.9487 96.1392 55.3122C96.0357 55.6927 96.0091 56.0893 96.0606 56.4802C96.1121 56.8711 96.2405 57.2479 96.439 57.5886C96.6348 57.9239 96.895 58.218 97.2042 58.4528C97.5134 58.6877 97.8657 58.8592 98.2413 58.9577C98.6169 59.0562 99.0085 59.0798 99.3931 59.027C99.7778 58.9743 100.148 58.8461 100.483 58.6501L101.083 58.1882C101.445 57.8281 101.707 57.3793 101.843 56.8874C102.106 56.1335 102.274 55.3498 102.343 54.5544C102.413 53.99 102.416 53.4204 102.354 52.8552C102.221 51.2662 101.71 49.7315 100.863 48.3806C100.461 47.7269 99.8317 47.2445 99.0963 47.0241C98.3274 46.8197 97.5091 46.9273 96.8194 47.3239C96.4841 47.5197 96.1905 47.7794 95.9556 48.0886C95.7208 48.3978 95.5493 48.7501 95.4508 49.1257C95.3522 49.5012 95.3286 49.8924 95.3814 50.277C95.4342 50.6617 95.5623 51.0327 95.7584 51.3679C95.9257 51.6341 96.0745 51.9115 96.2042 52.1979Z" fill="#020100"/>
</svg>
