<svg width="326" height="695" viewBox="0 0 326 695" fill="none" xmlns="http://www.w3.org/2000/svg">
<path d="M171.534 20.6807C171.543 21.3883 171.362 22.0844 171.012 22.6895C170.661 23.2945 170.155 23.7851 169.551 24.1035V38.7773C170.155 39.0953 170.661 39.5845 171.012 40.1895C171.362 40.7944 171.544 41.4907 171.534 42.1982C171.564 42.6788 171.5 43.1608 171.345 43.6143C171.19 44.0677 170.947 44.4825 170.633 44.834C170.318 45.1855 169.938 45.4657 169.516 45.6572C169.093 45.8488 168.638 45.9482 168.178 45.9482C167.717 45.9482 167.262 45.8488 166.839 45.6572C166.417 45.4657 166.037 45.1855 165.722 44.834C165.408 44.4825 165.165 44.0677 165.01 43.6143C164.855 43.1608 164.791 42.6788 164.821 42.1982C164.811 41.4906 164.992 40.7945 165.343 40.1895C165.694 39.5844 166.201 39.0952 166.805 38.7773V24.1035C166.201 23.7852 165.694 23.2955 165.343 22.6904C164.992 22.0853 164.811 21.3883 164.821 20.6807C164.791 20.2001 164.855 19.7191 165.01 19.2656C165.165 18.8122 165.408 18.3964 165.722 18.0449C166.037 17.6934 166.417 17.4132 166.839 17.2217C167.262 17.0301 167.717 16.9316 168.178 16.9316C168.638 16.9316 169.093 17.0301 169.516 17.2217C169.938 17.4132 170.318 17.6934 170.633 18.0449C170.947 18.3964 171.19 18.8122 171.345 19.2656C171.5 19.7191 171.564 20.2001 171.534 20.6807V20.6807ZM168.266 21.6064C168.218 21.0184 168.177 20.6807 168.177 20.6807C168.177 20.6807 168.137 21.0184 168.088 21.6064C168.039 22.1944 167.966 23.0349 167.914 24.0439C167.797 26.0619 167.723 28.7503 167.723 31.4443C167.723 34.1383 167.802 36.8228 167.914 38.8438C167.965 39.8518 168.047 40.6942 168.087 41.2822C168.127 41.8702 168.175 42.207 168.175 42.207C168.175 42.207 168.215 41.8702 168.264 41.2822C168.313 40.6942 168.386 39.8517 168.437 38.8447C168.553 36.8277 168.628 34.1383 168.633 31.4453C168.637 28.7523 168.555 26.0659 168.442 24.0449C168.389 23.0339 168.305 22.1935 168.266 21.6055V21.6064Z" fill="#020100"/>
<path d="M259.402 118.52C259.402 118.52 260.302 118.395 261.873 118.14C263.443 117.885 265.686 117.531 268.372 117.04C271.057 116.549 274.182 115.978 277.525 115.315L282.677 114.275L287.988 113.161L293.291 111.995C295.041 111.618 296.755 111.203 298.419 110.825C301.745 110.056 304.843 109.305 307.493 108.633C310.146 107.976 312.345 107.36 313.89 106.959C315.435 106.558 316.309 106.286 316.309 106.286C316.309 106.286 315.408 106.409 313.838 106.663C312.272 106.933 310.025 107.272 307.34 107.763C304.654 108.254 301.529 108.826 298.186 109.49C296.515 109.829 294.785 110.154 293.035 110.53L287.723 111.646L282.421 112.812L277.292 113.983C273.967 114.753 270.869 115.503 268.218 116.174C265.568 116.845 263.367 117.447 261.822 117.847C260.278 118.247 259.402 118.52 259.402 118.52ZM101.477 203.062C102.305 204.46 103.487 205.59 104.892 206.328C110.183 208.512 119.651 204.914 124.627 204.796C125.655 204.776 126.683 204.874 127.691 205.086C127.535 204.621 127.422 204.141 127.355 203.652C127.311 203.398 127.288 203.14 127.285 202.882C127.268 202.655 127.268 202.428 127.285 202.201C127.295 201.868 127.335 201.536 127.404 201.21L127.472 200.848C127.472 200.848 127.49 200.982 127.523 201.215C127.558 201.531 127.622 201.843 127.714 202.146C127.83 202.561 127.986 202.962 128.18 203.345C128.39 203.766 128.645 204.163 128.939 204.525C129.304 204.983 129.719 205.393 130.176 205.748C133.138 206.681 136.159 207.953 140.528 207.873C143.273 207.767 145.995 207.297 148.627 206.473C148.55 206.014 148.466 205.484 148.379 204.882C148.099 202.954 147.805 200.376 147.665 197.789C147.604 196.489 147.569 195.199 147.588 193.989C147.608 193.382 147.605 192.798 147.644 192.243C147.683 191.688 147.706 191.168 147.751 190.686C147.796 190.204 147.854 189.767 147.897 189.377C147.921 189.141 147.957 188.932 147.993 188.737C142.294 189.37 134.952 190.369 129.395 194.032L129.089 194.232L128.741 194.15C123.7 192.95 117.194 191.877 111.167 193.931C110.587 194.544 109.852 195.373 109.16 196.264C108.499 197.114 107.902 198.017 107.373 198.964C107.164 199.364 106.991 199.698 106.888 199.944L106.717 200.328L106.776 199.904C106.806 199.629 106.881 199.246 106.976 198.78C107.236 197.648 107.575 196.538 107.991 195.458C108.252 194.776 108.537 194.112 108.813 193.503C108.144 192.283 105.093 186.411 104.752 180.256C104.489 175.47 104.335 169.913 104.265 166.941C103.6 166.801 102.926 166.706 102.248 166.656C100.671 166.527 99.0509 166.543 99.0509 166.543C99.0509 166.543 100.507 165.778 102.05 165.136C102.723 164.85 103.413 164.608 104.114 164.409L104.101 164.363L104.239 164.008C105.481 160.821 105.716 158.198 104.857 156.996C103.986 155.771 101.935 155.913 100.366 156.247C98.1679 156.714 96.7734 157.556 96.2105 158.747C95.3006 160.673 96.4677 163.677 97.4979 166.33L97.8675 167.287L97.8255 167.582C95.8625 181.157 96.6232 198.046 101.292 202.81L101.403 202.922L101.477 203.062ZM106.416 163.425C106.302 163.78 106.18 164.125 106.055 164.463C108.207 172.115 109.514 181.216 110.471 187.89C110.672 189.29 110.853 190.573 111.031 191.721L111.11 191.799C116.08 190.235 121.248 190.599 125.733 191.418C125.483 183.054 125.356 174.43 125.351 165.547C125.351 163.462 125.36 161.403 125.373 159.347L112.975 162.011C110.605 162.526 108.413 162.997 106.42 163.426L106.416 163.425ZM191.136 145.216C192.138 151.742 192.931 159.65 193.504 169.227C193.605 170.918 193.685 172.553 193.744 174.133C197.145 174.015 200.547 174.336 203.874 175.088C204.285 174.818 204.685 174.578 205.091 174.324C205.139 170.447 205.177 166.567 205.148 162.724C205.102 157.661 205.136 152.593 205.023 147.612C204.983 145.818 204.943 144.035 204.904 142.253L194.606 144.466C194.631 145.303 194.637 145.766 194.637 145.766C194.637 145.766 194.505 145.327 194.283 144.532C193.243 144.76 192.194 144.988 191.136 145.217V145.216ZM158.307 183.949C159.136 186.375 161.849 190.876 170.234 187.697C178.024 184.743 179.049 175.569 178.961 170.31C178.739 169.909 178.489 169.525 178.213 169.163C177.981 168.847 177.73 168.546 177.462 168.263C177.163 167.952 176.843 167.663 176.507 167.397C176.148 167.111 175.764 166.862 175.36 166.654C174.945 166.428 174.511 166.24 174.064 166.097C173.613 165.956 173.14 165.884 172.674 165.79C172.203 165.777 171.731 165.73 171.272 165.742L169.94 165.888C169.52 165.975 169.127 166.088 168.756 166.188C168.415 166.26 168.082 166.366 167.761 166.507L167.005 166.813L166.336 167.081C166.336 167.081 166.557 166.937 166.944 166.681L167.646 166.219C167.946 166.011 168.264 165.835 168.596 165.69C168.954 165.52 169.34 165.315 169.762 165.132L171.14 164.688C171.63 164.573 172.151 164.513 172.682 164.421C173.228 164.397 173.775 164.403 174.321 164.44C174.876 164.499 175.426 164.612 175.961 164.776C176.461 164.918 176.946 165.108 177.411 165.346C177.061 164.989 176.691 164.655 176.301 164.346C175.476 163.623 174.51 163.097 173.472 162.802C172.434 162.506 171.346 162.448 170.285 162.634C164.966 163.768 159.141 172.134 158.033 180.218C158.039 181.467 158.13 182.715 158.307 183.95V183.949ZM226.272 137.664L216.28 139.812L210.678 141.011C210.89 148.924 210.999 157.102 211.003 165.543C211.003 167.396 210.997 169.236 210.984 171.063C214.147 169.51 217.532 168.511 221.005 168.106C221.189 166.986 221.387 165.744 221.601 164.406C222.761 157.143 224.345 147.235 226.616 138.391L226.545 138.241L226.272 137.664ZM142.076 155.764L128.958 158.583C128.942 160.883 128.93 163.194 128.93 165.55C128.93 174.407 129.062 183.157 129.327 191.732C132.907 189.722 136.786 188.357 140.8 187.694C140.543 181.54 140.616 175.375 141.021 169.229C141.314 164.309 141.666 159.837 142.075 155.762L142.076 155.764ZM123.559 251.447C123.081 235.676 125.165 230.218 126.617 211.916C126.355 211.792 126.085 211.673 125.84 211.54C114.663 213.17 102.924 209.846 99.9502 204.208C94.1472 198.045 94.4166 178.634 95.9743 167.548L95.8175 167.144C95.6493 166.711 95.4785 166.269 95.3122 165.824C80.3384 169.38 84.226 182.724 28.6201 194.672C11.4081 198.372 6.10215 197.902 3.41092 182.218C0.719699 166.534 5.49239 163.898 22.7053 160.198C78.2205 148.265 79.1102 162.198 94.1232 159.36C94.2008 158.814 94.3587 158.283 94.5907 157.786C95.4384 155.991 97.2147 154.828 100.022 154.23C103.023 153.589 105.13 154.09 106.288 155.713C106.492 156.001 106.663 156.315 106.794 156.646L111.865 155.555L125.436 152.637C125.89 118.826 128.155 89.6082 132.192 65.6602C136.033 42.8782 141.373 25.8154 147.633 16.3164C156.487 2.88041 160.939 0.71582 168.171 0.71582C175.403 0.71582 179.856 2.88341 188.71 16.3164C194.971 25.8164 200.31 42.8782 204.151 65.6602C207.441 85.1792 209.551 108.209 210.467 134.36L215.165 133.351L224.568 131.329C224.619 130.88 224.733 130.442 224.909 130.029C225.617 128.384 227.266 127.307 229.952 126.736C233.094 126.066 235.336 126.59 236.617 128.293C247.595 123.493 249.136 111.527 299.518 100.699C316.731 96.9992 322.036 97.4683 324.727 113.153C327.419 128.838 322.646 131.472 305.433 135.173C254.297 146.164 249.508 135.205 237.338 135.63C237.132 136.544 236.877 137.446 236.574 138.33C238.035 148.921 238.184 168.473 232.427 176.891C229.369 182.829 220.059 189.612 210.57 193.102C210.098 207.833 209.242 221.701 208.014 234.544L202.241 235.825C203.069 226.857 203.639 217.579 204.131 208.154C204.326 204.259 204.489 200.339 204.618 196.395C202.146 198.303 199.5 199.951 196.719 201.314C196.686 201.726 196.653 202.142 196.623 202.575C196.488 203.624 196.375 204.735 196.159 205.884C195.773 208.398 195.149 210.867 194.297 213.253C193.344 216 191.948 218.556 190.171 220.811C188.245 223.226 185.805 225.133 183.046 226.382C180.334 227.554 177.457 228.254 174.529 228.452C171.675 228.681 168.947 228.639 166.262 228.586C163.541 228.58 160.826 228.316 158.151 227.797C155.518 227.279 152.997 226.262 150.713 224.797C150.167 224.443 149.64 224.059 149.135 223.645L147.716 222.359C147.282 221.905 146.896 221.408 146.499 220.949L145.926 220.256L145.436 219.511L144.499 218.075C144.226 217.586 143.99 217.09 143.758 216.61C143.526 216.13 143.294 215.67 143.099 215.21L142.741 214.221C141.719 214.281 140.711 214.316 139.725 214.316C136.553 214.352 133.389 213.99 130.299 213.238C128.93 229.561 127.814 236.481 127.05 251.45L123.559 251.447ZM144.783 214.059L144.816 214.119C145.06 214.505 145.342 214.875 145.612 215.266C145.881 215.657 146.15 216.066 146.443 216.458L147.418 217.583L147.915 218.161L148.482 218.673C148.869 219.008 149.238 219.373 149.647 219.699L150.935 220.599C151.385 220.888 151.85 221.151 152.328 221.386C154.365 222.39 156.545 223.037 158.783 223.302C161.274 223.583 163.782 223.684 166.287 223.603C168.933 223.541 171.631 223.56 174.181 223.323C176.662 223.169 179.107 222.633 181.437 221.73C183.63 220.832 185.608 219.442 187.232 217.657C188.834 215.871 190.161 213.834 191.166 211.62C192.144 209.531 192.962 207.364 193.613 205.14C193.89 204.209 194.135 203.305 194.361 202.427C193.414 202.851 192.45 203.26 191.453 203.648C186.814 220.372 176.353 220.454 167.266 220.454C160.572 220.454 153.128 220.406 147.817 213.686C146.794 213.837 145.781 213.959 144.778 214.053L144.783 214.059ZM235.237 129.626C234.42 128.526 232.762 128.226 230.304 128.751C228.258 129.189 227.001 129.917 226.568 130.922C225.899 132.471 227.054 134.922 228.17 137.295L228.584 138.18L228.481 138.58C226.181 147.419 224.579 157.453 223.409 164.78C223.207 166.044 223.018 167.221 222.842 168.293C223.269 168.782 223.656 169.309 223.999 169.866C224.386 170.494 224.691 171.173 224.904 171.887C224.971 172.116 225.022 172.35 225.057 172.587C225.083 172.754 225.099 172.851 225.099 172.851L224.95 172.641C224.825 172.463 224.687 172.296 224.538 172.141C224.103 171.689 223.609 171.305 223.07 171.002C222.552 170.712 222.008 170.478 221.445 170.302C221.305 170.258 221.187 170.226 221.082 170.202C216.219 170.702 210.653 172.997 204.508 177.074L204.203 177.274L203.854 177.192C200.839 176.492 194.939 175.505 189.293 176.783L189.123 176.821L188.952 176.788C187.095 176.373 185.204 176.151 183.305 176.126C183.324 176.259 183.346 176.385 183.365 176.526C183.57 177.872 183.679 179.231 183.688 180.594C183.718 182.239 183.571 183.883 183.25 185.494C182.901 187.335 182.258 189.101 181.348 190.719C180.371 192.441 179.071 193.938 177.525 195.119C175.965 196.275 174.216 197.122 172.365 197.619C171.91 197.747 171.45 197.849 170.985 197.926C170.738 197.961 170.555 197.997 170.256 198.026L169.599 198.086C168.624 198.147 167.645 198.08 166.686 197.886C164.812 197.513 163.059 196.647 161.593 195.369C160.196 194.161 159.081 192.634 158.333 190.906C157.655 189.385 157.223 187.756 157.055 186.086C156.9 184.711 156.891 183.323 157.027 181.946C157.043 181.725 157.068 181.518 157.092 181.309C155.71 182.283 154.509 183.512 153.546 184.936C152.633 186.263 151.527 187.432 150.268 188.4L150.095 188.514L149.167 188.614L148.163 188.723C148.154 188.93 148.146 189.151 148.154 189.402C148.163 189.791 148.173 190.227 148.184 190.702C148.194 191.177 148.25 191.692 148.279 192.233C148.309 192.774 148.395 193.347 148.455 193.934C148.596 195.109 148.798 196.353 149.029 197.589C149.499 200.06 150.119 202.489 150.635 204.281C150.811 204.892 150.971 205.42 151.113 205.86C154.406 205.116 157.769 204.76 161.138 204.801C172.123 204.801 185.854 195.072 190.774 194.301C191.586 194.16 192.372 193.89 193.105 193.501C192.292 191.845 191.574 190.14 190.958 188.394C190.569 187.28 190.238 186.144 189.967 184.993C189.86 184.434 189.755 183.893 189.657 183.384C189.597 182.867 189.54 182.377 189.488 181.925C189.461 181.471 189.461 181.053 189.45 180.687C189.44 180.37 189.454 180.053 189.492 179.739C189.536 179.218 189.561 178.921 189.561 178.921C189.561 178.921 189.579 179.221 189.61 179.739C189.619 180.05 189.651 180.36 189.706 180.666C189.77 181.02 189.827 181.419 189.915 181.847C190.027 182.269 190.149 182.725 190.277 183.209L190.793 184.682C191.208 185.724 191.677 186.743 192.198 187.732C193.048 189.327 193.994 190.863 195.031 192.332C197.858 190.348 200.86 187.432 205.288 185.857C205.192 185.719 205.097 185.584 205.015 185.435C204.786 185.029 204.606 184.596 204.477 184.145C204.415 183.941 204.372 183.732 204.347 183.521C204.316 183.336 204.301 183.149 204.302 182.962C204.292 182.691 204.314 182.42 204.367 182.155C204.398 181.968 204.416 181.863 204.416 181.863L204.484 182.149C204.534 182.392 204.613 182.627 204.72 182.849C204.781 182.994 204.856 183.132 204.942 183.263C205.027 183.409 205.126 183.546 205.238 183.671C205.463 183.938 205.719 184.173 206.002 184.371C206.528 184.713 207.103 184.963 207.706 185.11C207.748 185.121 207.78 185.127 207.819 185.134C215.874 183.314 225.376 179.622 228.535 170.888C231.075 163.871 233.756 147.308 234.76 140.729C234.696 140.667 234.631 140.599 234.55 140.528C234.052 140.08 233.51 139.687 232.934 139.355C232.336 139.011 231.708 138.729 231.057 138.516C230.516 138.334 230.138 138.253 230.138 138.253C230.138 138.253 230.506 138.142 231.081 138.037C231.798 137.901 232.526 137.842 233.255 137.86C233.751 137.875 234.247 137.924 234.737 138.007L234.792 137.851C236.118 134.034 236.282 131.037 235.232 129.621L235.237 129.626ZM204.774 135.589C204.75 134.661 204.728 133.733 204.689 132.807C204.604 130.363 204.52 127.936 204.435 125.523C204.392 124.317 204.349 123.115 204.307 121.918C204.243 120.722 204.18 119.531 204.116 118.346C203.863 113.603 203.623 108.936 203.279 104.38C203.121 102.101 202.965 99.8465 202.811 97.6172C202.61 95.3945 202.412 93.2002 202.216 91.0342C201.935 87.8742 201.622 84.7865 201.278 81.7705C200.403 79.6555 199.317 77.2556 197.964 74.6846C195.378 69.6319 192.085 65.0113 188.196 60.9756C186.043 58.7966 183.61 56.9408 180.969 55.4629C178.289 53.9769 175.375 53.0087 172.368 52.6035C171.618 52.4939 170.862 52.4269 170.105 52.4033L169.538 52.3672C169.416 52.3672 169.166 52.374 168.986 52.377L167.81 52.4053C166.302 52.4647 164.8 52.6446 163.318 52.9434C160.396 53.527 157.581 54.5945 154.98 56.1055C150.251 58.9377 146.166 62.8102 143.009 67.4561C141.702 69.339 140.492 71.2942 139.385 73.3125C138.393 75.1255 137.563 76.7385 136.933 78.1025C136.303 79.4665 135.813 80.5428 135.513 81.3018C135.213 82.0608 135.045 82.458 135.045 82.458C135.045 82.458 135.122 82.0236 135.332 81.2256C135.541 80.4276 135.85 79.2562 136.377 77.8252C137.777 73.8429 139.664 70.0667 141.992 66.5918C145.173 61.6688 149.336 57.5256 154.194 54.4463C156.913 52.7692 159.87 51.5535 162.953 50.8457C164.53 50.4837 166.131 50.2473 167.742 50.1387L168.919 50.0781C169.132 50.0701 169.273 50.0538 169.544 50.0508L170.155 50.0723C170.972 50.0744 171.789 50.122 172.601 50.2158C175.865 50.5862 179.038 51.572 181.966 53.125C184.829 54.6548 187.475 56.5941 189.826 58.8877C193.959 62.991 197.458 67.7403 200.199 72.9658C199.922 70.8378 199.641 68.7536 199.356 66.7129C198.146 59.2459 196.996 52.3906 195.574 46.4316C194.419 41.2737 193.015 36.1804 191.368 31.1709C190.586 29.1419 189.961 27.2825 189.302 25.7285C188.607 24.1965 188.059 22.8523 187.536 21.8223L185.839 18.6992C177.047 5.35222 173.511 4.72266 168.18 4.72266C162.849 4.72266 159.317 5.35222 150.521 18.6992C140.419 34.0272 130.141 75.7931 129.036 151.871L142.869 148.897C147.051 117.163 155.538 114.59 167.264 114.59C177.597 114.59 185.414 116.591 189.987 138.771L192.576 138.213C192.537 138.083 192.503 137.959 192.465 137.826C192.009 136.206 191.509 134.388 190.869 132.438C190.295 130.461 189.487 128.426 188.705 126.265C188.253 125.229 187.788 124.168 187.311 123.079C186.738 122.079 186.244 120.985 185.623 119.995C184.437 118.026 182.943 116.279 181.204 114.828C179.425 113.476 177.378 112.559 175.215 112.144C172.908 111.687 170.565 111.454 168.216 111.449L166.408 111.432L164.677 111.452C163.536 111.49 162.419 111.592 161.345 111.729C159.314 111.981 157.347 112.635 155.549 113.655C153.911 114.653 152.439 115.923 151.19 117.415C150.613 118.124 150.071 118.863 149.566 119.63C149.076 120.323 148.626 121.046 148.219 121.795C147.401 123.195 146.785 124.504 146.253 125.572C145.255 127.772 144.686 129.025 144.686 129.025L144.853 128.025C144.985 127.379 145.108 126.404 145.402 125.203C145.735 123.744 146.153 122.308 146.655 120.903C147.287 119.038 148.116 117.253 149.127 115.58C150.353 113.551 151.926 111.775 153.767 110.343C155.834 108.819 158.182 107.764 160.661 107.243C161.908 106.968 163.17 106.774 164.439 106.661C165.073 106.616 165.71 106.57 166.351 106.522L168.227 106.47C170.868 106.381 173.51 106.596 176.106 107.111C178.918 107.683 181.559 108.948 183.809 110.802C184.915 111.746 185.913 112.82 186.785 114.002C187.642 115.12 188.401 116.317 189.052 117.578C189.694 118.802 190.189 120.057 190.717 121.264C191.127 122.505 191.527 123.718 191.919 124.9C192.225 126.1 192.515 127.264 192.779 128.393C193.072 129.516 193.199 130.627 193.399 131.677C193.566 132.735 193.789 133.727 193.884 134.701C193.979 135.675 194.085 136.59 194.177 137.453C194.192 137.596 194.207 137.727 194.222 137.868L204.774 135.589ZM107.141 157.97C107.193 158.345 107.218 158.725 107.214 159.104C112.993 157.913 119.092 156.648 125.408 155.304L163.981 147.117L202.518 138.729C210.349 137.029 217.836 135.351 224.786 133.795C224.702 133.457 224.638 133.113 224.595 132.766C217.631 134.201 210.129 135.747 202.296 137.412L163.723 145.598L125.185 153.986C118.909 155.339 112.863 156.687 107.136 157.965L107.141 157.97ZM11.4466 171.97C13.0139 171.701 15.2605 171.362 17.9451 170.87C20.6296 170.378 23.7548 169.809 27.0988 169.145C28.7684 168.805 30.4993 168.48 32.2501 168.104L37.5605 166.989L42.863 165.822L47.9919 164.652C51.3168 163.881 54.4153 163.131 57.0654 162.46C59.7155 161.789 61.9173 161.187 63.4617 160.787C65.0042 160.372 65.8817 160.114 65.8817 160.114C65.8817 160.114 64.9815 160.238 63.4123 160.492C61.8449 160.762 59.5978 161.103 56.9133 161.592C54.2287 162.081 51.104 162.655 47.76 163.319L42.6087 164.358L37.2969 165.471L31.9949 166.637C30.244 167.014 28.5293 167.429 26.8655 167.807C23.5406 168.578 20.4421 169.328 17.792 169.999C15.1419 170.67 12.9401 171.273 11.3957 171.673C9.85322 172.088 8.97614 172.346 8.97614 172.346C8.97614 172.346 9.87123 172.222 11.4414 171.968L11.4466 171.97ZM68.7497 176.847C68.7497 176.847 67.8495 176.972 66.2793 177.226C64.712 177.497 62.4658 177.836 59.7803 178.325C57.0949 178.814 53.9701 179.387 50.6271 180.05L45.4758 181.089L40.164 182.203L34.861 183.37C33.1111 183.746 31.3964 184.161 29.7326 184.539C26.4077 185.309 23.3092 186.059 20.6591 186.731C18.0061 187.388 15.8072 188.004 14.2628 188.405C12.7184 188.806 11.8432 189.079 11.8432 189.079C11.8432 189.079 12.7434 188.955 14.3136 188.701C15.88 188.431 18.1267 188.094 20.8122 187.602C23.4976 187.11 26.6229 186.539 29.9659 185.874C31.6364 185.536 33.3673 185.21 35.1172 184.834L40.4285 183.719L45.731 182.552C47.478 182.152 49.1961 181.761 50.8599 181.382C54.1848 180.611 57.2823 179.861 59.9334 179.191C62.5845 178.521 64.7853 177.918 66.3297 177.519C67.8674 177.104 68.7451 176.845 68.7451 176.845L68.7497 176.847ZM94.1712 161.792C94.1244 161.492 94.0956 161.193 94.0756 160.893L91.5907 161.446C81.7585 163.63 73.5809 165.546 67.8496 166.839L58.8508 168.927L67.9 167.135C73.6523 165.963 81.8816 164.35 91.7367 162.302L94.1712 161.792ZM259.855 125.872L268.854 123.785L259.806 125.577C254.351 126.689 246.668 128.199 237.485 130.097C237.559 130.367 237.616 130.642 237.657 130.92C246.795 128.877 254.42 127.097 259.849 125.87L259.855 125.872ZM319.183 123.021C319.183 123.021 318.283 123.145 316.712 123.398C315.145 123.668 312.899 124.006 310.213 124.498C307.528 124.99 304.404 125.56 301.061 126.224C299.39 126.564 297.66 126.888 295.91 127.264L290.598 128.379L285.296 129.546L280.166 130.717C276.842 131.488 273.744 132.238 271.093 132.909C268.443 133.58 266.241 134.181 264.697 134.582C263.152 134.983 262.276 135.254 262.276 135.254C262.276 135.254 263.177 135.13 264.747 134.876C266.316 134.622 268.56 134.266 271.245 133.776C273.931 133.286 277.055 132.713 280.399 132.049L285.55 131.01L290.862 129.897L296.164 128.731C297.915 128.354 299.629 127.94 301.293 127.562C304.618 126.792 307.716 126.04 310.366 125.369C313.017 124.698 315.218 124.095 316.763 123.695C318.307 123.295 319.176 123.02 319.176 123.02L319.183 123.021Z" fill="#020100"/>
<path d="M123.004 490.172C122.805 491.772 122.604 493.518 122.408 495.428C122.082 498.652 121.787 502.292 121.541 506.274C121.42 508.263 121.349 510.337 121.241 512.487C121.162 514.635 121.129 516.859 121.074 519.146C121.029 523.718 121.057 528.545 121.257 533.545C121.363 536.045 121.46 538.588 121.665 541.163C121.856 543.739 122.013 546.347 122.326 548.974C122.603 551.599 122.857 554.254 123.274 556.909C123.637 559.487 124 562.071 124.364 564.662C124.795 567.302 125.018 569.708 125.341 572.216C125.622 574.749 125.901 577.27 126.179 579.778C126.33 581.033 126.418 582.3 126.537 583.552C126.656 584.804 126.794 586.052 126.919 587.294C127.159 589.778 127.337 592.245 127.594 594.664L129.958 621.318C130.341 625.245 130.697 628.844 131.01 632.035C131.347 635.235 131.649 638.025 131.922 640.328C132.194 642.631 132.443 644.447 132.59 645.685L132.85 647.584C132.85 647.584 133.002 646.935 133.239 645.709C133.46 644.484 133.833 642.689 134.189 640.393C134.935 635.802 135.827 629.222 136.501 621.292C136.839 617.325 137.118 613.021 137.32 608.458C137.507 603.896 137.614 599.076 137.591 594.081C137.553 589.087 137.424 583.914 137.081 578.654C137.023 577.843 136.966 577.029 136.907 576.216C134.586 569.379 132.671 562.4 131.173 555.316C127.27 537.358 124.518 515.298 123.004 490.172Z" fill="#020100"/>
<path d="M143.723 674.436C143.788 673.2 143.866 671.699 143.956 669.978C144.024 668.264 144.099 666.331 144.182 664.221C144.307 660.035 144.454 655.151 144.612 649.921C144.654 648.621 144.698 647.301 144.742 645.964C144.786 644.627 144.849 643.286 144.902 641.928C144.972 640.582 145.042 639.228 145.112 637.864C145.208 636.514 145.251 635.222 145.399 633.799C145.512 632.405 145.625 631.013 145.738 629.622C145.877 628.191 145.928 626.765 145.995 625.355C146.129 622.532 146.132 619.76 146.084 617.086C146.036 614.412 145.899 611.836 145.732 609.4C145.551 606.963 145.328 604.668 145.082 602.554C144.835 600.44 144.555 598.511 144.281 596.806C144.006 595.101 143.717 593.62 143.481 592.406C143.334 591.666 143.199 591.037 143.08 590.506C142.898 590.175 142.716 589.85 142.537 589.506L142.526 589.623C142.478 590.287 142.367 591.264 142.291 592.498C142.093 594.97 141.852 598.491 141.605 602.687C141.356 606.861 141.065 611.727 140.753 616.944C140.577 619.535 140.396 622.205 140.169 624.898C140.065 626.246 139.928 627.598 139.792 628.949C139.661 630.346 139.529 631.746 139.397 633.149C139.265 634.516 139.225 636.036 139.144 637.477C139.058 638.938 139.085 640.337 139.054 641.755C139.035 644.573 139.128 647.336 139.263 650C139.55 655.329 140.084 660.262 140.697 664.466C141.309 668.67 141.986 672.143 142.532 674.561C142.784 675.773 143.044 676.714 143.201 677.36L143.468 678.343C143.468 678.343 143.495 677.988 143.546 677.321C143.596 676.654 143.667 675.673 143.723 674.436Z" fill="#020100"/>
<path d="M203.501 663.856C203.48 662.433 203.305 660.895 203.196 659.382C203.106 658.668 203.016 657.951 202.926 657.229C202.835 656.508 202.736 655.775 202.629 655.029C202.247 652.205 201.898 649.257 201.578 646.317L199.697 628.945C199.077 623.388 198.468 618.2 197.896 613.754C197.602 611.531 197.334 609.492 197.095 607.688C196.834 605.88 196.607 604.306 196.42 603.01C196.022 600.418 195.772 598.938 195.772 598.938C195.772 598.938 195.676 600.438 195.567 603.07C195.528 604.383 195.482 605.978 195.427 607.807C195.405 609.635 195.38 611.699 195.352 613.949C195.304 622.949 195.568 634.924 196.477 646.919C196.739 649.919 196.966 652.919 197.371 655.912C197.549 657.36 197.725 658.793 197.9 660.212C198.023 661.571 198.161 662.864 198.253 664.241C198.483 666.941 198.588 669.6 198.737 672.12C198.832 674.309 198.928 676.387 199.012 678.34C199.026 678.652 199.04 678.966 199.053 679.271C199.157 681.503 199.252 683.549 199.34 685.365C199.467 687.189 199.504 688.778 199.615 690.097C199.698 691.414 199.77 692.453 199.834 693.164C199.898 693.875 199.929 694.256 199.929 694.256C199.929 694.256 200.053 693.898 200.24 693.214C200.427 692.53 200.701 691.527 200.997 690.24C201.319 688.955 201.601 687.38 201.953 685.57C202.275 683.758 202.592 681.703 202.851 679.448C202.895 679.086 202.933 678.711 202.974 678.34C203.184 676.394 203.357 674.318 203.464 672.125C203.574 669.509 203.635 666.743 203.501 663.856Z" fill="#020100"/>
<path d="M213.233 520.551C213.063 514.551 212.726 508.773 212.332 503.302C212.101 500.57 211.899 497.912 211.653 495.345C211.379 492.781 211.146 490.303 210.867 487.929C210.6 485.667 210.328 483.504 210.05 481.439C208.681 510.199 205.762 535.306 201.411 555.316C200.861 557.844 200.287 560.273 199.69 562.623C199.646 564.016 199.602 565.407 199.558 566.799C199.491 568.437 199.481 570.027 199.489 571.619C199.496 573.211 199.489 574.8 199.489 576.381C199.521 582.699 199.776 588.897 200.103 594.881C200.294 597.87 200.468 600.804 200.704 603.674C200.94 606.544 201.182 609.344 201.457 612.074C202.009 617.521 202.623 622.657 203.272 627.385C204.575 636.842 206.009 644.666 207.141 650.12C207.692 652.849 208.222 654.98 208.548 656.435C208.891 657.888 209.102 658.659 209.102 658.659C209.102 658.659 209.158 657.859 209.261 656.359C209.338 654.859 209.504 652.665 209.633 649.879C209.776 647.093 209.919 643.715 210.066 639.848C210.213 635.981 210.343 631.626 210.473 626.885C210.579 622.153 210.694 617.027 210.818 611.605C210.919 606.205 211.027 600.51 211.138 594.62C211.233 591.683 211.25 588.697 211.323 585.681C211.368 584.175 211.413 582.66 211.458 581.136C211.494 579.615 211.493 578.08 211.559 576.551C211.667 573.5 211.775 570.429 211.883 567.337C211.947 565.816 212.013 564.294 212.08 562.769L212.186 560.468L212.345 558.103C212.528 554.956 212.712 551.812 212.895 548.673C213.128 545.462 213.189 542.267 213.277 539.104C213.404 535.936 213.372 532.803 213.372 529.708C213.399 526.6 213.312 523.552 213.233 520.551Z" fill="#020100"/>
<path d="M166.293 565.557C167.214 565.59 168.085 566.005 168.714 566.71C169.344 567.414 169.681 568.352 169.651 569.315C169.66 570.023 169.478 570.718 169.128 571.323C168.777 571.928 168.271 572.418 167.667 572.736V587.41C168.271 587.728 168.777 588.217 169.128 588.822C169.479 589.427 169.66 590.123 169.651 590.831C169.683 591.313 169.62 591.797 169.465 592.252C169.311 592.707 169.069 593.124 168.754 593.478C168.439 593.831 168.059 594.112 167.635 594.305C167.212 594.497 166.755 594.597 166.294 594.597C165.832 594.597 165.375 594.497 164.952 594.305C164.529 594.112 164.148 593.831 163.833 593.478C163.518 593.124 163.276 592.707 163.122 592.252C162.968 591.797 162.905 591.313 162.937 590.831C162.927 590.124 163.108 589.427 163.459 588.822C163.809 588.217 164.316 587.728 164.92 587.41V572.736C164.316 572.418 163.809 571.928 163.459 571.323C163.108 570.718 162.927 570.023 162.937 569.315C162.906 568.352 163.243 567.414 163.872 566.71C164.501 566.005 165.372 565.59 166.293 565.557V565.557ZM166.382 570.24C166.334 569.651 166.293 569.315 166.293 569.315C166.293 569.315 166.253 569.651 166.204 570.24C166.155 570.829 166.082 571.668 166.03 572.677C165.914 574.695 165.839 577.383 165.839 580.077C165.839 582.771 165.919 585.457 166.03 587.478C166.082 588.488 166.164 589.327 166.203 589.915C166.242 590.503 166.292 590.839 166.292 590.839C166.292 590.839 166.332 590.503 166.381 589.915C166.43 589.327 166.502 588.487 166.554 587.478C166.67 585.461 166.745 582.77 166.75 580.077C166.755 577.384 166.671 574.698 166.559 572.677C166.505 571.667 166.421 570.827 166.382 570.239V570.24Z" fill="#020100"/>
<path d="M193.027 518.662C192.553 519.056 191.967 519.272 191.363 519.276C190.759 519.279 190.171 519.071 189.693 518.684C189.148 519.366 188.578 520.052 187.965 520.75C187.874 520.857 187.763 520.943 187.638 521.002C187.514 521.061 187.378 521.093 187.242 521.094C187.105 521.095 186.969 521.066 186.844 521.009C186.718 520.952 186.605 520.868 186.512 520.763C186.317 520.542 186.208 520.253 186.206 519.952C186.204 519.652 186.309 519.361 186.501 519.137C187.093 518.465 187.639 517.803 188.164 517.146C187.588 516.248 187.264 515.199 187.23 514.118C187.197 513.038 187.454 511.968 187.973 511.033C190.35 506.269 193.178 502.561 195.659 503.887C195.894 503.216 196.092 502.532 196.253 501.838C196.276 501.695 196.326 501.559 196.4 501.438C196.475 501.316 196.572 501.211 196.686 501.129C196.8 501.047 196.929 500.991 197.064 500.962C197.199 500.933 197.339 500.933 197.474 500.962C197.71 501.027 197.918 501.173 198.064 501.376C198.211 501.58 198.288 501.829 198.283 502.084C198.283 502.166 198.275 502.249 198.26 502.329C198.011 503.44 197.683 504.529 197.279 505.589C200.345 510.547 195.204 516.496 193.027 518.662ZM189.447 517.693C190.091 516.993 190.785 516.113 191.51 515.145C192.234 514.177 192.928 513.079 193.595 511.958C194.236 510.847 194.819 509.7 195.34 508.522C195.799 507.488 196.198 506.426 196.536 505.342C196.768 504.57 196.963 503.787 197.12 502.994C197.228 502.418 197.256 502.083 197.256 502.083C197.256 502.083 197.15 502.399 196.952 502.938C196.755 503.477 196.435 504.226 196.056 505.12C195.653 506.004 195.188 507.034 194.635 508.104C194.378 508.65 194.055 509.177 193.775 509.744C193.465 510.291 193.151 510.844 192.836 511.404C192.198 512.51 191.517 513.586 190.878 514.596L189.93 516.034C189.62 516.486 189.327 516.912 189.056 517.305C188.524 518.105 188.057 518.751 187.733 519.205C187.409 519.659 187.235 519.94 187.235 519.94C187.235 519.94 187.467 519.728 187.86 519.339C188.253 518.95 188.832 518.425 189.447 517.693Z" fill="#020100"/>
<path d="M138.313 503.387C140.507 505.569 145.707 511.588 142.497 516.57C143.072 517.312 143.698 518.01 144.37 518.657C144.494 518.769 144.594 518.906 144.661 519.062C144.729 519.217 144.764 519.386 144.762 519.557C144.764 519.811 144.687 520.059 144.544 520.265C144.466 520.383 144.365 520.482 144.248 520.557C144.131 520.632 144.001 520.68 143.865 520.698C143.729 520.717 143.591 520.706 143.46 520.666C143.329 520.626 143.207 520.557 143.102 520.465C142.338 519.749 141.629 518.972 140.981 518.14C138.496 519.522 135.647 515.803 133.26 511.016C132.707 510.024 132.452 508.882 132.527 507.737C132.603 506.591 133.006 505.496 133.685 504.594C133.387 503.775 133.094 502.927 132.81 502.035C132.717 501.753 132.73 501.445 132.846 501.172C132.962 500.899 133.173 500.683 133.436 500.568C133.565 500.519 133.703 500.499 133.841 500.508C133.979 500.517 134.113 500.556 134.236 500.621C134.359 500.687 134.468 500.778 134.556 500.889C134.644 501 134.709 501.129 134.748 501.268C134.953 501.919 135.168 502.539 135.383 503.151C135.835 502.868 136.359 502.739 136.884 502.781C137.409 502.824 137.908 503.035 138.313 503.387V503.387ZM141.821 517.026C141.286 516.234 140.665 515.313 140.048 514.289C139.723 513.789 139.438 513.234 139.108 512.702C138.804 512.151 138.496 511.591 138.187 511.03C137.577 509.903 137.014 508.745 136.482 507.659L135.741 506.076L135.102 504.639C134.693 503.753 134.379 502.999 134.151 502.473C133.924 501.947 133.779 501.653 133.779 501.653C133.779 501.653 133.846 501.977 133.986 502.543C134.14 503.101 134.302 503.926 134.621 504.866C134.908 505.821 135.303 506.909 135.768 508.056C136.234 509.203 136.804 510.388 137.411 511.556C138.018 512.681 138.684 513.772 139.406 514.821C140.03 515.729 140.707 516.595 141.434 517.415C141.949 517.985 142.493 518.525 143.065 519.031C143.278 519.222 143.502 519.4 143.734 519.565C143.734 519.565 143.527 519.322 143.181 518.887C142.836 518.452 142.372 517.795 141.821 517.021V517.026Z" fill="#020100"/>
<path d="M208.589 410.833L213.287 409.823C216.844 409.059 220.013 408.377 222.69 407.801C222.74 407.353 222.855 406.914 223.031 406.502C223.739 404.858 225.388 403.781 228.074 403.208C231.216 402.539 233.458 403.062 234.738 404.765C245.717 399.965 247.257 388 297.64 377.171C314.852 373.471 320.158 373.942 322.849 389.626C325.541 405.31 320.768 407.946 303.555 411.646C252.419 422.637 247.63 411.678 235.46 412.104C235.254 413.018 234.999 413.919 234.696 414.803C236.157 425.395 236.306 444.948 230.549 453.365C227.49 459.303 218.18 466.085 208.691 469.576C207.618 503.148 204.542 532.265 199.634 554.834C192.231 588.882 181.013 606.145 166.295 606.145C151.576 606.145 140.36 588.882 132.956 554.834C128.99 536.596 126.221 514.078 124.737 488.392C124.475 488.268 124.204 488.149 123.96 488.015C112.778 489.646 101.044 486.323 98.0689 480.684C92.2669 474.522 92.5367 455.111 94.0944 444.025L93.9377 443.62C93.7695 443.186 93.5981 442.745 93.4318 442.299C78.458 445.856 82.3461 459.2 26.7402 471.149C9.52724 474.849 4.22227 474.378 1.53104 458.694C-1.16018 443.01 3.6125 440.373 20.8254 436.673C76.3406 424.741 77.2303 438.674 92.2433 435.836C92.3209 435.289 92.4783 434.758 92.7104 434.261C93.5581 432.466 95.3348 431.304 98.1426 430.706C101.143 430.065 103.25 430.567 104.408 432.189C104.612 432.478 104.782 432.79 104.914 433.122L109.985 432.032C113.95 431.178 118.537 430.194 123.555 429.114L208.589 410.833ZM257.517 394.999C257.517 394.999 258.417 394.875 259.987 394.621C261.553 394.351 263.8 394.01 266.486 393.521C269.171 393.032 272.296 392.458 275.639 391.794L280.791 390.755L286.102 389.64L291.404 388.473C293.155 388.097 294.87 387.682 296.533 387.304C299.858 386.534 302.957 385.785 305.607 385.114C308.257 384.443 310.459 383.84 312.003 383.44C313.546 383.025 314.423 382.765 314.423 382.765C314.423 382.765 313.523 382.889 311.953 383.143C310.385 383.413 308.139 383.752 305.454 384.243C302.768 384.734 299.644 385.304 296.301 385.968C294.631 386.307 292.9 386.632 291.15 387.008L285.838 388.124L280.536 389.291L275.407 390.461C272.082 391.232 268.984 391.982 266.334 392.654C263.684 393.326 261.482 393.926 259.937 394.326C258.396 394.736 257.515 394.994 257.515 394.994L257.517 394.999ZM99.5915 479.542C100.419 480.94 101.601 482.071 103.006 482.808C108.297 484.993 117.765 481.394 122.741 481.277C123.77 481.257 124.797 481.354 125.805 481.567C125.648 481.101 125.537 480.62 125.47 480.131C125.426 479.878 125.402 479.621 125.399 479.363C125.382 479.136 125.382 478.907 125.399 478.68C125.409 478.347 125.449 478.016 125.518 477.691C125.561 477.46 125.586 477.328 125.586 477.328C125.586 477.328 125.604 477.462 125.637 477.695C125.672 478.011 125.736 478.322 125.828 478.625C125.876 478.825 125.94 479.02 126.019 479.21C126.092 479.422 126.184 479.627 126.292 479.822C126.502 480.243 126.756 480.639 127.049 481.002C127.414 481.459 127.829 481.869 128.287 482.223C131.25 483.158 134.271 484.43 138.639 484.35C141.385 484.244 144.106 483.773 146.739 482.95C146.661 482.491 146.577 481.96 146.49 481.359C146.21 479.43 145.916 476.851 145.776 474.264C145.715 472.964 145.681 471.674 145.7 470.464C145.72 469.857 145.715 469.273 145.755 468.718C145.795 468.163 145.817 467.643 145.862 467.162C145.907 466.681 145.965 466.243 146.008 465.853C146.032 465.618 146.069 465.409 146.104 465.213C140.405 465.846 133.064 466.844 127.506 470.507L127.201 470.708L126.852 470.626C121.811 469.426 115.304 468.352 109.278 470.408C108.698 471.02 107.963 471.849 107.272 472.741C106.611 473.592 106.013 474.495 105.484 475.441C105.275 475.841 105.102 476.175 104.999 476.421L104.828 476.804L104.887 476.38C104.918 476.106 104.992 475.722 105.088 475.256C105.347 474.125 105.687 473.015 106.103 471.935C106.364 471.253 106.647 470.589 106.923 469.98C106.254 468.76 103.203 462.888 102.864 456.733C102.6 451.948 102.446 446.39 102.376 443.418C101.71 443.278 101.037 443.182 100.36 443.132C98.7818 443.003 97.1622 443.019 97.1622 443.019C97.1622 443.019 98.6174 442.255 100.161 441.614C100.834 441.327 101.524 441.083 102.225 440.884L102.212 440.839L102.35 440.485C103.593 437.296 103.827 434.673 102.969 433.471C102.097 432.246 100.045 432.388 98.4772 432.722C96.2791 433.189 94.8846 434.032 94.3217 435.222C93.4119 437.148 94.5789 440.154 95.6092 442.806L95.9788 443.763L95.9368 444.059C93.9738 457.634 94.7345 474.522 99.403 479.287L99.5141 479.399L99.5915 479.542ZM104.531 439.906C104.416 440.26 104.295 440.606 104.169 440.944C106.321 448.595 107.628 457.697 108.586 464.37C108.786 465.77 108.968 467.053 109.146 468.202L109.225 468.28C114.195 466.715 119.362 467.08 123.847 467.899C123.597 459.535 123.47 450.911 123.465 442.028C123.465 439.943 123.474 437.882 123.488 435.828L111.089 438.493L104.531 439.906ZM189.25 421.697C190.252 428.222 191.045 436.129 191.618 445.705C191.719 447.398 191.797 449.031 191.858 450.614C195.259 450.495 198.662 450.816 201.988 451.569C202.399 451.298 202.799 451.057 203.204 450.802C203.253 446.925 203.292 443.047 203.263 439.203C203.216 434.14 203.25 429.072 203.137 424.09C203.097 422.296 203.057 420.511 203.018 418.733C199.743 419.433 196.291 420.177 192.721 420.946C192.745 421.783 192.751 422.246 192.751 422.246C192.751 422.246 192.618 421.806 192.396 421.01L189.25 421.697ZM156.421 460.428C157.25 462.855 159.963 467.356 168.347 464.176C176.138 461.222 177.163 452.048 177.075 446.789C176.655 446.048 176.152 445.363 175.576 444.748C175.277 444.437 174.958 444.147 174.621 443.881C174.263 443.595 173.879 443.346 173.474 443.138C173.059 442.912 172.626 442.726 172.178 442.582C171.727 442.441 171.254 442.37 170.789 442.276C170.317 442.262 169.845 442.215 169.385 442.226L168.054 442.372C167.635 442.459 167.24 442.577 166.87 442.672C166.529 442.744 166.196 442.851 165.875 442.992L165.119 443.292L164.455 443.561L165.063 443.161L165.765 442.7C166.064 442.492 166.382 442.314 166.713 442.17C167.073 441.999 167.459 441.794 167.881 441.613C168.319 441.47 168.782 441.322 169.259 441.168C169.749 441.053 170.269 440.993 170.801 440.902C171.347 440.878 171.894 440.883 172.44 440.92C172.995 440.978 173.544 441.091 174.08 441.256C174.579 441.397 175.065 441.588 175.53 441.825C175.18 441.468 174.809 441.134 174.42 440.825C173.594 440.103 172.629 439.576 171.591 439.281C170.552 438.986 169.465 438.929 168.404 439.114C163.085 440.248 157.26 448.614 156.152 456.698C156.157 457.945 156.247 459.19 156.422 460.424L156.421 460.428ZM224.387 414.144L214.394 416.291L208.793 417.491C209.004 425.403 209.112 433.58 209.118 442.023C209.118 443.874 209.111 445.713 209.098 447.542C212.261 445.988 215.646 444.989 219.119 444.584C219.303 443.465 219.501 442.222 219.715 440.883C220.875 433.619 222.459 423.713 224.73 414.869L224.658 414.718C224.57 414.526 224.478 414.332 224.389 414.139L224.387 414.144ZM140.19 432.244L127.072 435.062C127.056 437.362 127.044 439.673 127.044 442.03C127.044 450.886 127.177 459.636 127.441 468.211C131.02 466.2 134.897 464.835 138.91 464.172C138.653 458.018 138.727 451.853 139.131 445.707C139.43 440.787 139.782 436.312 140.191 432.237L140.19 432.244ZM200.217 513.828C201.123 504.388 201.73 494.592 202.25 484.628C202.446 480.734 202.602 476.808 202.737 472.87C200.264 474.777 197.618 476.424 194.837 477.789C194.805 478.202 194.773 478.617 194.741 479.049C194.607 480.098 194.495 481.21 194.279 482.359C193.892 484.874 193.268 487.342 192.416 489.728C191.462 492.475 190.067 495.031 188.29 497.286C186.364 499.7 183.924 501.609 181.165 502.858C178.453 504.03 175.576 504.728 172.647 504.925C169.794 505.155 167.066 505.114 164.382 505.061C161.66 505.055 158.946 504.791 156.27 504.273C153.637 503.754 151.117 502.738 148.832 501.273C148.286 500.919 147.76 500.533 147.254 500.119C146.774 499.683 146.301 499.255 145.835 498.834C145.4 498.379 145.014 497.882 144.618 497.423L144.045 496.732L143.555 495.987L142.618 494.549C142.345 494.062 142.109 493.567 141.877 493.086C141.645 492.605 141.413 492.147 141.218 491.686L140.859 490.697C139.839 490.757 138.83 490.792 137.844 490.792C134.672 490.827 131.508 490.465 128.418 489.714C132.249 553.159 144.277 602.143 166.297 602.143L167.13 602.073C167.47 602.05 167.809 602.004 168.143 601.934C168.607 601.865 169.066 601.762 169.517 601.628C172.504 600.747 175.22 599.069 177.4 596.757C180.333 593.857 183.134 589.458 185.619 584.019C188.324 577.819 190.501 571.382 192.127 564.783C193.967 557.644 195.502 549.767 196.84 541.382C194.523 545.797 191.679 549.886 188.378 553.551C186.115 556.061 183.519 558.217 180.669 559.952C177.748 561.723 174.522 562.875 171.175 563.342C170.344 563.466 169.506 563.531 168.666 563.534L168.039 563.555L167.882 563.562H167.843H167.763H167.688L167.388 563.546L166.19 563.48C165.411 563.469 164.542 563.302 163.718 563.201C162.878 563.109 162.093 562.865 161.284 562.701C158.136 561.897 155.143 560.533 152.435 558.67C149.883 556.916 147.554 554.83 145.506 552.46C143.666 550.318 142.006 548.015 140.544 545.575C139.295 543.511 138.178 541.364 137.199 539.147C136.447 537.427 135.791 535.662 135.237 533.862C134.738 532.292 134.355 530.684 134.09 529.052C134.09 529.052 134.732 530.715 135.987 533.509C136.613 534.909 137.389 536.589 138.341 538.473C139.386 540.582 140.534 542.633 141.781 544.617C143.241 546.93 144.888 549.107 146.706 551.124C148.697 553.319 150.948 555.239 153.404 556.837C155.966 558.509 158.785 559.706 161.737 560.375C163.231 560.709 164.75 560.91 166.277 560.975L167.476 561.007L167.776 561.015H167.852C167.852 561.015 167.92 561.015 167.846 561.015H167.882L168.026 561.005L168.599 560.967C169.364 560.944 170.127 560.867 170.882 560.736C173.921 560.257 176.841 559.156 179.474 557.498C182.09 555.844 184.465 553.805 186.525 551.442C190.262 547.078 193.406 542.194 195.868 536.931C196.783 535.031 197.566 533.222 198.244 531.546C198.98 525.803 199.638 519.895 200.218 513.821L200.217 513.828ZM142.893 490.535L142.926 490.594C143.17 490.98 143.453 491.351 143.722 491.743C143.992 492.135 144.26 492.543 144.554 492.933L145.529 494.059L146.026 494.636L146.592 495.15C146.974 495.485 147.348 495.849 147.757 496.174L149.046 497.08C149.495 497.369 149.96 497.632 150.438 497.867C152.476 498.869 154.656 499.517 156.893 499.783C159.385 500.064 161.892 500.164 164.397 500.083C167.043 500.022 169.741 500.039 172.292 499.803C174.772 499.65 177.217 499.113 179.547 498.211C181.74 497.313 183.718 495.922 185.342 494.137C186.945 492.351 188.271 490.315 189.275 488.101C190.254 486.013 191.073 483.846 191.723 481.622C192 480.691 192.245 479.787 192.47 478.909C191.523 479.332 190.559 479.742 189.563 480.129C184.923 496.852 174.463 496.935 165.376 496.935C158.687 496.935 151.238 496.886 145.927 490.166C144.908 490.313 143.897 490.434 142.894 490.528L142.893 490.535ZM233.347 406.102C232.53 405.002 230.872 404.702 228.415 405.227C226.369 405.665 225.111 406.393 224.679 407.399C224.01 408.948 225.165 411.399 226.28 413.771L226.694 414.657L226.591 415.051C224.292 423.89 222.689 433.924 221.519 441.252C221.317 442.516 221.128 443.693 220.953 444.763C221.379 445.253 221.765 445.78 222.108 446.338C222.496 446.965 222.801 447.646 223.014 448.359C223.082 448.588 223.133 448.822 223.168 449.059C223.194 449.226 223.209 449.323 223.209 449.323L223.06 449.114C222.935 448.936 222.798 448.769 222.648 448.614C222.214 448.161 221.72 447.777 221.18 447.473C220.662 447.184 220.118 446.95 219.555 446.774C219.415 446.73 219.298 446.697 219.192 446.673C214.329 447.173 208.764 449.468 202.618 453.546L202.313 453.746L201.965 453.663C198.95 452.963 193.049 451.976 187.403 453.255L187.233 453.293L187.062 453.258C185.205 452.843 183.314 452.621 181.416 452.596C181.435 452.728 181.457 452.856 181.475 452.997C181.681 454.342 181.789 455.702 181.798 457.064C181.828 458.709 181.681 460.353 181.36 461.964C181.011 463.804 180.368 465.571 179.458 467.188C178.482 468.91 177.181 470.406 175.636 471.588C174.076 472.743 172.327 473.591 170.475 474.088C170.021 474.216 169.56 474.319 169.095 474.395C168.849 474.43 168.665 474.467 168.367 474.495L167.709 474.553C166.734 474.616 165.755 474.549 164.796 474.354C162.922 473.982 161.169 473.116 159.703 471.837C158.306 470.628 157.191 469.102 156.443 467.374C155.765 465.852 155.333 464.223 155.165 462.553C155.009 461.179 155 459.791 155.137 458.415C155.154 458.193 155.178 457.985 155.202 457.777C153.82 458.751 152.619 459.98 151.657 461.404C150.743 462.731 149.637 463.9 148.378 464.869L148.206 464.982L147.278 465.082L146.273 465.192C146.264 465.399 146.256 465.62 146.265 465.871C146.273 466.259 146.284 466.696 146.294 467.171C146.305 467.646 146.36 468.162 146.39 468.703C146.419 469.244 146.505 469.816 146.565 470.403C146.706 471.579 146.909 472.824 147.138 474.059C147.608 476.531 148.229 478.959 148.745 480.751C148.921 481.363 149.08 481.89 149.217 482.33C152.511 481.585 155.874 481.23 159.243 481.272C170.228 481.272 183.959 471.542 188.879 470.772C189.69 470.632 190.476 470.361 191.21 469.971C190.395 468.317 189.679 466.612 189.062 464.866C188.673 463.751 188.342 462.614 188.071 461.461C187.963 460.903 187.859 460.361 187.761 459.852C187.701 459.335 187.645 458.845 187.593 458.393C187.566 457.94 187.566 457.52 187.553 457.155C187.545 456.838 187.559 456.521 187.596 456.207C187.64 455.686 187.665 455.388 187.665 455.388C187.665 455.388 187.683 455.689 187.714 456.207C187.723 456.518 187.755 456.827 187.81 457.133C187.874 457.487 187.931 457.887 188.019 458.316C188.13 458.738 188.252 459.193 188.381 459.675C188.545 460.144 188.718 460.639 188.897 461.15C189.312 462.193 189.781 463.211 190.302 464.2C191.151 465.795 192.097 467.331 193.134 468.799C195.961 466.816 198.964 463.9 203.392 462.326C203.296 462.187 203.201 462.05 203.119 461.903C202.889 461.498 202.709 461.064 202.581 460.613C202.52 460.409 202.476 460.201 202.451 459.989C202.42 459.804 202.405 459.617 202.406 459.429C202.396 459.159 202.418 458.888 202.471 458.623C202.502 458.436 202.519 458.331 202.519 458.331L202.588 458.618C202.639 458.86 202.718 459.096 202.823 459.318C202.885 459.463 202.96 459.602 203.046 459.732C203.131 459.878 203.23 460.013 203.341 460.138C203.566 460.405 203.823 460.641 204.106 460.839C204.632 461.18 205.208 461.43 205.81 461.579C205.852 461.589 205.883 461.594 205.922 461.602C213.977 459.783 223.479 456.089 226.639 447.357C229.178 440.339 231.859 423.776 232.862 417.196C232.799 417.133 232.734 417.068 232.654 416.996C232.156 416.547 231.614 416.155 231.037 415.824C230.44 415.479 229.811 415.198 229.16 414.985C228.619 414.802 228.241 414.72 228.241 414.72C228.241 414.72 228.61 414.61 229.185 414.505C229.902 414.368 230.63 414.309 231.358 414.329C231.855 414.343 232.35 414.392 232.84 414.475L232.896 414.318C234.234 410.508 234.398 407.511 233.348 406.095L233.347 406.102ZM105.251 434.446C105.303 434.822 105.328 435.201 105.325 435.581C111.104 434.389 117.203 433.124 123.518 431.781L162.091 423.593L200.629 415.206C208.46 413.506 215.946 411.828 222.897 410.272C222.812 409.934 222.748 409.59 222.705 409.243C215.741 410.678 208.239 412.222 200.406 413.888L161.834 422.076L123.295 430.462C117.028 431.814 110.979 433.159 105.252 434.439L105.251 434.446ZM9.55688 448.446C11.1242 448.176 13.3699 447.836 16.0554 447.345C18.7409 446.854 21.8652 446.284 25.2082 445.62C26.8787 445.281 28.6096 444.956 30.3604 444.58L35.6709 443.464L40.9734 442.297L46.1023 441.128C49.4271 440.357 52.5256 439.607 55.1757 438.937C57.8258 438.267 60.0276 437.662 61.572 437.262C63.1145 436.847 63.9921 436.589 63.9921 436.589C63.9921 436.589 63.0918 436.713 61.5216 436.967C59.9553 437.238 57.7081 437.578 55.0227 438.068C52.3372 438.558 49.2124 439.131 45.8694 439.794L40.7181 440.833L35.4063 441.947L30.1042 443.113C28.3534 443.49 26.6387 443.905 24.9749 444.283C21.65 445.053 18.5515 445.802 15.9014 446.473C13.2513 447.144 11.0495 447.748 9.50509 448.149C7.96069 448.55 7.08553 448.822 7.08553 448.822C7.08553 448.822 7.98379 448.696 9.55782 448.443L9.55688 448.446ZM66.8601 453.323C66.8601 453.323 65.9598 453.447 64.3896 453.701C62.8223 453.971 60.5762 454.311 57.8907 454.8C55.2052 455.289 52.0804 455.864 48.7374 456.528L43.5861 457.567C41.8334 457.933 40.0499 458.306 38.2743 458.679L32.9713 459.846C31.2214 460.222 29.5058 460.637 27.8429 461.015C24.5171 461.786 21.42 462.537 18.7699 463.208C16.1197 463.879 13.9175 464.481 12.3722 464.881C10.8306 465.296 9.9526 465.554 9.9526 465.554C9.9526 465.554 10.8538 465.431 12.423 465.177C13.9923 464.923 16.237 464.571 18.9215 464.078C21.6061 463.585 24.7323 463.016 28.0753 462.352C29.7458 462.012 31.4767 461.688 33.2266 461.312L38.5379 460.197L43.8404 459.03L48.9693 457.859C52.2942 457.088 55.3917 456.338 58.0428 455.667C60.6939 454.996 62.8947 454.395 64.4391 453.995C65.9835 453.578 66.861 453.32 66.861 453.32L66.8601 453.323ZM92.2815 438.267C92.2357 437.967 92.2059 437.667 92.1859 437.367L89.701 437.92C79.8688 440.104 71.6912 442.02 65.9599 443.313L56.9611 445.402L66.0103 443.61C71.7626 442.437 79.992 440.825 89.847 438.777L92.2815 438.267ZM257.966 402.345C263.693 401.019 266.965 400.259 266.965 400.259L257.916 402.051C252.462 403.163 244.778 404.674 235.596 406.573C235.669 406.843 235.726 407.118 235.768 407.396C244.911 405.352 252.536 403.57 257.965 402.343L257.966 402.345ZM317.294 399.496C317.294 399.496 316.394 399.619 314.824 399.873C313.253 400.127 311.01 400.481 308.325 400.972C305.64 401.463 302.515 402.036 299.171 402.7C297.501 403.039 295.771 403.364 294.02 403.74L288.709 404.854L283.407 406.021L278.278 407.192C274.953 407.963 271.855 408.712 269.205 409.382C266.555 410.052 264.352 410.656 262.807 411.056C261.262 411.456 260.387 411.729 260.387 411.729C260.387 411.729 261.289 411.606 262.858 411.351C264.427 411.096 266.671 410.742 269.356 410.251C272.042 409.76 275.166 409.189 278.51 408.525L283.661 407.486L288.973 406.372L294.275 405.206C296.026 404.829 297.741 404.414 299.405 404.036C302.729 403.265 305.827 402.514 308.478 401.843C311.129 401.172 313.33 400.571 314.874 400.17C316.419 399.769 317.292 399.494 317.292 399.494L317.294 399.496Z" fill="#020100"/>
<path d="M208.589 233.168L213.287 232.159L222.69 230.136C222.74 229.688 222.855 229.249 223.031 228.837C223.739 227.194 225.388 226.116 228.074 225.544C231.216 224.875 233.458 225.398 234.738 227.102C245.717 222.302 247.257 210.335 297.64 199.507C314.852 195.807 320.158 196.278 322.849 211.961C325.541 227.644 320.768 230.281 303.555 233.982C252.419 244.972 247.63 234.014 235.46 234.439C235.254 235.353 234.999 236.254 234.696 237.138C236.157 247.73 236.306 267.283 230.549 275.701C227.491 281.638 218.18 288.42 208.691 291.911C208.368 302.011 208.787 316.292 208.103 325.525C208.103 325.525 202.026 330.497 202.368 325.245C202.667 320.73 202.007 311.568 202.248 306.964C202.444 303.069 202.6 299.143 202.735 295.205C200.263 297.112 197.616 298.76 194.834 300.124C194.803 300.537 194.771 300.952 194.739 301.384C194.605 302.434 194.492 303.545 194.276 304.695C193.89 307.21 193.266 309.678 192.414 312.064C191.461 314.811 190.065 317.366 188.288 319.621C187.342 320.825 186.256 321.902 185.058 322.829C183.857 323.781 182.55 324.576 181.164 325.193C178.451 326.365 175.574 327.063 172.645 327.261C169.792 327.49 167.064 327.45 164.38 327.397C161.659 327.39 158.943 327.126 156.268 326.608C153.635 326.089 151.115 325.073 148.831 323.608C148.285 323.254 147.758 322.869 147.252 322.455L145.833 321.169C145.399 320.715 145.013 320.217 144.616 319.759L144.042 319.067C143.877 318.817 143.715 318.567 143.553 318.323L142.616 316.885C142.343 316.398 142.108 315.902 141.875 315.421C141.643 314.94 141.41 314.482 141.215 314.021L140.857 313.033C139.836 313.092 138.828 313.127 137.842 313.127C134.67 313.162 131.506 312.8 128.416 312.049C128.602 315.12 126.823 339.204 127.047 342.203L123.454 342.394C123.196 338.919 124.945 314.332 124.738 310.729C124.476 310.605 124.205 310.487 123.961 310.353C112.779 311.984 101.045 308.66 98.0698 303.021C92.2678 296.859 92.5376 277.449 94.0954 266.363L93.9386 265.957C93.7704 265.524 93.5995 265.082 93.4333 264.636C78.4595 268.193 82.3471 281.537 26.7412 293.486C9.52822 297.186 4.22324 296.715 1.53202 281.032C-1.15921 265.349 3.61348 262.71 20.8264 259.01C76.3415 247.078 77.2313 261.011 92.2442 258.173C92.322 257.626 92.4794 257.095 92.7114 256.598C93.559 254.803 95.3358 253.641 98.1436 253.043C101.144 252.403 103.251 252.904 104.409 254.527C104.613 254.815 104.783 255.128 104.915 255.459L109.986 254.369L123.556 251.451L208.589 233.168ZM257.518 217.336C257.518 217.336 258.418 217.212 259.988 216.958C261.554 216.688 263.801 216.348 266.487 215.858C269.172 215.368 272.297 214.795 275.64 214.132L280.792 213.091L286.103 211.978L291.405 210.813C293.156 210.435 294.87 210.02 296.534 209.642C299.859 208.873 302.958 208.122 305.608 207.452C308.258 206.782 310.46 206.177 312.004 205.777C313.547 205.362 314.424 205.103 314.424 205.103C314.424 205.103 313.524 205.226 311.954 205.482C310.384 205.738 308.14 206.089 305.455 206.582C302.769 207.075 299.645 207.644 296.302 208.308C294.632 208.647 292.901 208.971 291.151 209.347L285.839 210.463L280.537 211.63L275.408 212.8C272.083 213.571 268.985 214.322 266.335 214.993C263.685 215.664 261.482 216.265 259.938 216.666C258.394 217.067 257.515 217.329 257.515 217.329L257.518 217.336ZM99.5925 301.879C100.42 303.277 101.602 304.408 103.007 305.145C108.298 307.33 117.766 303.733 122.742 303.614C123.771 303.594 124.798 303.691 125.806 303.904C125.649 303.438 125.538 302.957 125.471 302.468C125.427 302.215 125.403 301.958 125.4 301.7C125.383 301.473 125.383 301.245 125.4 301.018C125.41 300.685 125.45 300.353 125.519 300.028C125.562 299.798 125.587 299.666 125.587 299.666L125.638 300.033C125.673 300.348 125.737 300.659 125.829 300.962C125.877 301.162 125.941 301.357 126.02 301.547C126.093 301.759 126.185 301.964 126.293 302.16C126.503 302.581 126.757 302.976 127.05 303.339C127.415 303.796 127.83 304.207 128.288 304.562C131.251 305.496 134.272 306.767 138.64 306.687C141.386 306.581 144.107 306.11 146.74 305.287C146.662 304.828 146.578 304.297 146.491 303.696C146.211 301.768 145.918 299.189 145.777 296.602C145.716 295.302 145.682 294.011 145.701 292.801C145.721 292.195 145.716 291.61 145.756 291.056C145.796 290.502 145.818 289.98 145.863 289.499C145.908 289.018 145.966 288.581 146.009 288.19C146.033 287.955 146.07 287.745 146.105 287.549C140.406 288.182 133.065 289.181 127.507 292.844L127.202 293.045L126.853 292.963C121.812 291.763 115.305 290.69 109.279 292.746C108.573 293.487 107.904 294.266 107.273 295.078C106.612 295.929 106.014 296.832 105.485 297.778C105.276 298.178 105.103 298.511 105.001 298.757L104.829 299.14L104.888 298.716C104.919 298.441 104.993 298.058 105.089 297.593C105.348 296.461 105.688 295.351 106.104 294.271C106.365 293.589 106.648 292.925 106.924 292.316C106.255 291.096 103.204 285.224 102.865 279.07C102.601 274.285 102.447 268.726 102.377 265.754C101.711 265.614 101.038 265.519 100.361 265.469C98.7828 265.339 97.1632 265.356 97.1632 265.356C97.1632 265.356 98.6184 264.592 100.162 263.95C100.835 263.663 101.525 263.42 102.226 263.221L102.213 263.175L102.351 262.822C103.594 259.634 103.828 257.011 102.97 255.81C102.099 254.585 100.046 254.726 98.4782 255.06C96.2801 255.527 94.8856 256.37 94.3227 257.56C93.4129 259.487 94.5799 262.491 95.6102 265.143L95.9797 266.1L95.9377 266.395C93.9748 279.97 94.7354 296.858 99.404 301.623L99.515 301.736L99.5925 301.879ZM104.531 262.243C104.417 262.597 104.296 262.943 104.17 263.281C106.322 270.932 107.629 280.034 108.587 286.708C108.787 288.108 108.969 289.391 109.147 290.54L109.226 290.617C114.196 289.052 119.363 289.417 123.848 290.236C123.598 281.872 123.471 273.248 123.466 264.365C123.466 262.28 123.475 260.22 123.489 258.165L111.09 260.83L104.531 262.243ZM189.251 244.034C190.253 250.559 191.046 258.466 191.619 268.043C191.72 269.735 191.8 271.372 191.859 272.951C195.26 272.832 198.663 273.153 201.989 273.907C202.4 273.636 202.799 273.394 203.205 273.14C203.254 269.263 203.293 265.384 203.264 261.541C203.217 256.479 203.252 251.41 203.139 246.428C203.099 244.634 203.059 242.854 203.019 241.071L192.721 243.284C192.746 244.121 192.752 244.584 192.752 244.584C192.752 244.584 192.619 244.146 192.397 243.351L189.251 244.034ZM156.422 282.765C157.251 285.192 159.964 289.693 168.348 286.514C176.139 283.559 177.164 274.385 177.076 269.126C176.656 268.385 176.153 267.701 175.577 267.086C175.278 266.774 174.959 266.484 174.622 266.218C174.263 265.933 173.88 265.684 173.475 265.476C173.06 265.25 172.627 265.062 172.179 264.919C171.728 264.779 171.255 264.707 170.79 264.613C170.318 264.599 169.846 264.552 169.386 264.565L168.055 264.71C167.636 264.797 167.241 264.914 166.871 265.009C166.53 265.082 166.197 265.189 165.876 265.33L165.12 265.63L164.456 265.9L165.064 265.5L165.767 265.039C166.066 264.831 166.383 264.653 166.714 264.508C167.074 264.338 167.46 264.134 167.882 263.952L169.26 263.507C169.75 263.392 170.27 263.332 170.802 263.241C171.348 263.217 171.895 263.222 172.441 263.259C172.996 263.318 173.545 263.43 174.081 263.594C174.58 263.736 175.066 263.927 175.531 264.165C175.181 263.808 174.81 263.474 174.421 263.165C173.595 262.443 172.63 261.916 171.592 261.621C170.553 261.325 169.466 261.268 168.405 261.454C163.086 262.587 157.261 270.954 156.153 279.038C156.158 280.284 156.248 281.527 156.423 282.759L156.422 282.765ZM224.388 236.482L214.395 238.628L208.794 239.828C209.005 247.741 209.113 255.919 209.118 264.36C209.118 266.211 209.112 268.051 209.099 269.879C212.262 268.326 215.647 267.327 219.12 266.922C219.304 265.802 219.502 264.56 219.716 263.221C220.876 255.958 222.46 246.051 224.731 237.207L224.659 237.056C224.57 236.861 224.478 236.668 224.389 236.475L224.388 236.482ZM140.191 254.582L127.073 257.4C127.057 259.7 127.045 262.011 127.045 264.368C127.045 273.224 127.178 281.974 127.442 290.549C131.022 288.539 134.898 287.174 138.911 286.51C138.654 280.356 138.727 274.191 139.132 268.046C139.43 263.119 139.782 258.647 140.191 254.572V254.582ZM142.894 312.874L142.927 312.933C143.171 313.321 143.454 313.689 143.723 314.081C143.993 314.473 144.261 314.881 144.555 315.272L145.53 316.397L146.027 316.975L146.594 317.488C146.976 317.823 147.349 318.187 147.758 318.512L149.047 319.418C149.496 319.707 149.961 319.97 150.439 320.205C152.476 321.208 154.657 321.855 156.894 322.121C159.386 322.402 161.893 322.502 164.398 322.421C167.044 322.36 169.742 322.379 172.293 322.142C174.773 321.989 177.218 321.452 179.548 320.549C181.741 319.651 183.719 318.261 185.343 316.476C186.946 314.69 188.273 312.653 189.276 310.439C190.255 308.351 191.074 306.184 191.724 303.96C192.001 303.028 192.246 302.124 192.471 301.247C191.524 301.669 190.56 302.079 189.564 302.466C184.924 319.19 174.464 319.272 165.377 319.272C158.688 319.272 151.239 319.223 145.928 312.503C144.909 312.65 143.897 312.771 142.894 312.864V312.874ZM233.348 228.44C232.531 227.34 230.873 227.04 228.416 227.566C226.37 228.003 225.112 228.731 224.68 229.737C224.011 231.287 225.166 233.737 226.281 236.11L226.695 236.995L226.593 237.389C224.293 246.228 222.69 256.263 221.52 263.59C221.318 264.854 221.129 266.032 220.954 267.103C221.38 267.593 221.767 268.118 222.109 268.675C222.496 269.303 222.801 269.984 223.015 270.697C223.082 270.926 223.134 271.16 223.169 271.397C223.195 271.564 223.21 271.661 223.21 271.661L223.061 271.452C222.936 271.274 222.798 271.107 222.649 270.952C222.215 270.5 221.721 270.116 221.181 269.812C220.663 269.523 220.119 269.288 219.556 269.112C219.416 269.068 219.299 269.036 219.193 269.011C214.33 269.511 208.765 271.805 202.619 275.883L202.314 276.084L201.966 276.002C198.951 275.302 193.05 274.313 187.404 275.592L187.234 275.632L187.063 275.596C185.206 275.181 183.315 274.961 181.417 274.935C181.436 275.068 181.458 275.194 181.476 275.335C181.682 276.68 181.79 278.04 181.799 279.402C181.829 281.047 181.682 282.691 181.361 284.301C181.012 286.142 180.369 287.909 179.459 289.526C178.483 291.248 177.182 292.745 175.637 293.925C174.076 295.081 172.328 295.928 170.476 296.425C170.021 296.553 169.561 296.656 169.096 296.732C168.85 296.767 168.666 296.804 168.368 296.837L167.71 296.895C166.735 296.957 165.756 296.89 164.797 296.695C162.923 296.323 161.17 295.456 159.704 294.177C158.307 292.969 157.192 291.443 156.444 289.716C155.766 288.194 155.334 286.565 155.166 284.895C155.01 283.521 155.001 282.132 155.138 280.756C155.155 280.535 155.179 280.327 155.203 280.118C153.821 281.092 152.62 282.321 151.658 283.745C150.745 285.072 149.638 286.241 148.379 287.21L148.207 287.324L147.279 287.424L146.274 287.534C146.265 287.741 146.257 287.962 146.265 288.214C146.274 288.601 146.285 289.037 146.295 289.513C146.306 289.989 146.361 290.505 146.391 291.047C146.42 291.589 146.506 292.159 146.566 292.747C146.707 293.922 146.91 295.167 147.139 296.402C147.609 298.874 148.23 301.301 148.746 303.093C148.922 303.705 149.081 304.233 149.218 304.673C152.512 303.928 155.875 303.574 159.244 303.615C170.229 303.615 183.96 293.886 188.88 293.115C189.691 292.974 190.477 292.705 191.21 292.315C190.396 290.66 189.679 288.954 189.063 287.208C188.674 286.092 188.343 284.956 188.072 283.802C187.964 283.244 187.86 282.703 187.762 282.194C187.702 281.677 187.646 281.187 187.594 280.735C187.567 280.282 187.567 279.862 187.554 279.497C187.546 279.18 187.56 278.863 187.597 278.549L187.666 277.731C187.666 277.731 187.684 278.03 187.715 278.549C187.724 278.86 187.756 279.171 187.811 279.476C187.875 279.83 187.932 280.229 188.02 280.658C188.131 281.08 188.253 281.537 188.382 282.019C188.546 282.487 188.719 282.981 188.898 283.493C189.313 284.536 189.782 285.553 190.303 286.543C191.152 288.138 192.098 289.675 193.135 291.143C195.962 289.161 198.965 286.243 203.393 284.669C203.297 284.531 203.202 284.394 203.12 284.246C202.89 283.841 202.71 283.407 202.582 282.956C202.52 282.752 202.477 282.543 202.452 282.332C202.421 282.147 202.406 281.96 202.407 281.773C202.397 281.502 202.418 281.231 202.472 280.966C202.503 280.78 202.52 280.674 202.52 280.674L202.589 280.962C202.639 281.204 202.718 281.44 202.824 281.662C202.96 281.959 203.134 282.236 203.342 282.483C203.567 282.75 203.824 282.986 204.107 283.183C204.633 283.525 205.208 283.775 205.811 283.924L205.923 283.946C213.978 282.127 223.48 278.434 226.64 269.701C229.179 262.683 231.86 246.121 232.863 239.541C232.8 239.478 232.735 239.412 232.655 239.341C232.157 238.892 231.615 238.499 231.038 238.168C230.441 237.823 229.812 237.542 229.161 237.329C228.62 237.146 228.242 237.065 228.242 237.065C228.242 237.065 228.611 236.954 229.186 236.848C229.903 236.712 230.631 236.654 231.359 236.673C231.856 236.687 232.351 236.736 232.841 236.819L232.897 236.663C234.234 232.843 234.398 229.846 233.348 228.43V228.44ZM105.252 256.785C105.304 257.16 105.329 257.539 105.326 257.919C111.105 256.727 117.204 255.462 123.519 254.119L162.092 245.931L200.63 237.544C208.461 235.844 215.947 234.167 222.898 232.611C222.813 232.273 222.749 231.929 222.706 231.582C215.742 233.016 208.24 234.562 200.407 236.227L161.835 244.414L123.296 252.8C117.028 254.148 110.979 255.494 105.252 256.775V256.785ZM9.55786 270.785C11.1252 270.515 13.3709 270.177 16.0564 269.685C18.7419 269.193 21.8662 268.623 25.2092 267.959C26.8797 267.62 28.6106 267.295 30.3614 266.919L35.6718 265.803L40.9743 264.636L46.1032 263.466C49.4281 262.695 52.5266 261.946 55.1767 261.276C57.8268 260.606 60.0286 260.002 61.573 259.602C63.1174 259.202 63.993 258.928 63.993 258.928C63.993 258.928 63.0928 259.053 61.5226 259.306C59.9562 259.577 57.7091 259.918 55.0236 260.407C52.3381 260.896 49.2134 261.469 45.8704 262.132L40.7191 263.172L35.4072 264.286L30.1052 265.453C28.3544 265.829 26.6397 266.244 24.9758 266.622C21.651 267.392 18.553 268.142 15.9028 268.814C13.2498 269.471 11.0505 270.087 9.50606 270.488C7.96167 270.889 7.0865 271.161 7.0865 271.161C7.0865 271.161 7.98384 271.032 9.55786 270.778V270.785ZM66.861 275.662C66.861 275.662 65.9608 275.787 64.3906 276.041C62.8204 276.295 60.5771 276.65 57.8916 277.14C55.2061 277.63 52.0814 278.204 48.7384 278.867L43.5871 279.906L38.2752 281.019L32.9723 282.186C31.2224 282.562 29.5067 282.977 27.8438 283.355C24.518 284.126 21.421 284.876 18.7709 285.547C16.1207 286.218 13.9185 286.821 12.3731 287.22C10.8316 287.635 9.95358 287.895 9.95358 287.895C9.95358 287.895 10.8548 287.771 12.424 287.517C13.9932 287.263 16.238 286.91 18.9225 286.417C21.607 285.924 24.7332 285.355 28.0762 284.691C29.7468 284.352 31.4777 284.027 33.2275 283.652C34.9774 283.277 36.7585 282.91 38.5389 282.536L43.8414 281.369L48.9703 280.199C52.2952 279.428 55.3927 278.678 58.0438 278.007C60.6949 277.336 62.8957 276.734 64.4401 276.334C65.9835 275.913 66.861 275.655 66.861 275.655V275.662ZM92.2825 260.607C92.2366 260.307 92.2069 260.002 92.1868 259.707L89.702 260.259C79.8698 262.444 71.6922 264.36 65.9609 265.655L56.9621 267.742L66.0113 265.951C71.7636 264.777 79.9929 263.165 89.848 261.117L92.2825 260.607ZM257.967 224.686L266.966 222.598L257.917 224.39C252.463 225.502 244.779 227.013 235.597 228.912C235.67 229.182 235.727 229.457 235.769 229.735C244.911 227.687 252.536 225.906 257.965 224.679L257.967 224.686ZM317.295 221.835C317.295 221.835 316.395 221.959 314.825 222.212C313.257 222.483 311.011 222.821 308.326 223.312C305.641 223.803 302.516 224.375 299.172 225.039C297.502 225.378 295.772 225.703 294.021 226.079L288.71 227.194L283.408 228.361L278.279 229.532C274.954 230.302 271.856 231.051 269.206 231.722C266.556 232.393 264.353 232.996 262.808 233.396C261.266 233.811 260.388 234.069 260.388 234.069C260.388 234.069 261.29 233.945 262.859 233.69C264.428 233.435 266.672 233.081 269.357 232.59C272.043 232.099 275.167 231.528 278.511 230.864L283.662 229.825L288.974 228.711L294.276 227.545C296.027 227.168 297.742 226.753 299.406 226.376C302.73 225.605 305.828 224.855 308.479 224.184C311.13 223.513 313.331 222.909 314.875 222.509C316.414 222.086 317.292 221.829 317.292 221.829L317.295 221.835Z" fill="#020100"/>
<path d="M207.895 325.555L212.593 324.545C216.15 323.78 219.32 323.1 221.997 322.525C222.047 322.076 222.162 321.637 222.338 321.224C223.045 319.58 224.694 318.502 227.38 317.93C230.522 317.261 232.765 317.785 234.045 319.488C245.024 314.688 246.564 302.722 296.946 291.895C314.159 288.195 319.465 288.664 322.156 304.347C324.846 320.03 320.074 322.668 302.862 326.368C251.725 337.359 246.936 326.401 234.766 326.825C234.56 327.74 234.305 328.641 234.002 329.526C235.462 340.117 235.611 359.668 229.854 368.086C226.796 374.024 217.486 380.806 207.997 384.296C207.675 394.396 207.17 404.085 206.49 413.318C206.49 413.318 200.413 418.29 200.756 413.039C201.055 408.524 201.321 403.96 201.554 399.349C201.751 395.455 201.907 391.529 202.042 387.591C199.569 389.497 196.923 391.144 194.142 392.509C194.11 392.922 194.078 393.34 194.046 393.772C193.912 394.822 193.8 395.931 193.583 397.08C193.196 399.595 192.572 402.064 191.72 404.45C190.767 407.197 189.372 409.752 187.595 412.006C185.669 414.42 183.229 416.329 180.471 417.578C177.758 418.751 174.88 419.451 171.952 419.649C169.099 419.878 166.371 419.835 163.686 419.783C160.965 419.776 158.25 419.512 155.574 418.994C152.941 418.476 150.421 417.459 148.137 415.994C147.591 415.64 147.065 415.255 146.559 414.841C146.079 414.406 145.606 413.977 145.141 413.555C144.705 413.101 144.319 412.606 143.922 412.148C143.731 411.913 143.54 411.682 143.349 411.454L142.859 410.709C142.54 410.219 142.228 409.741 141.921 409.273C141.649 408.785 141.414 408.287 141.181 407.807C140.949 407.327 140.716 406.867 140.521 406.407C140.399 406.067 140.281 405.743 140.164 405.417C139.143 405.476 138.134 405.512 137.147 405.512C133.975 405.547 130.811 405.186 127.721 404.434C127.907 407.505 126.822 423.867 127.046 426.866L123.453 427.057C123.195 423.582 124.251 406.717 124.043 403.116C123.782 402.991 123.512 402.873 123.267 402.739C112.085 404.369 100.351 401.045 97.3764 395.407C91.5735 389.245 91.8438 369.834 93.4006 358.748L93.2438 358.343C93.0766 357.91 92.9057 357.469 92.7384 357.023C77.7647 360.581 81.6523 373.922 26.0463 385.871C8.83435 389.571 3.52842 389.101 0.837194 373.417C-1.85403 357.733 2.91866 355.098 20.1316 351.397C75.6467 339.465 76.5374 353.403 91.5494 350.559C91.6278 350.013 91.7852 349.482 92.0165 348.985C92.8652 347.19 94.6419 346.028 97.4488 345.428C100.451 344.788 102.557 345.289 103.714 346.912C103.919 347.2 104.088 347.513 104.221 347.844L109.291 346.754L122.862 343.837L207.895 325.555ZM256.822 309.722C256.822 309.722 257.722 309.597 259.292 309.343C260.863 309.089 263.105 308.734 265.791 308.243C268.476 307.752 271.602 307.181 274.945 306.518C276.616 306.181 278.342 305.833 280.097 305.478L285.408 304.365L290.711 303.198C292.461 302.822 294.176 302.406 295.84 302.029C299.164 301.258 302.262 300.508 304.913 299.837C307.564 299.166 309.765 298.563 311.309 298.163C312.851 297.748 313.729 297.489 313.729 297.489C313.729 297.489 312.828 297.613 311.259 297.867C309.69 298.121 307.445 298.474 304.76 298.967C302.076 299.46 298.95 300.03 295.607 300.694C293.936 301.032 292.206 301.359 290.455 301.734L285.145 302.848L279.842 304.015L274.713 305.186C271.388 305.957 268.29 306.706 265.64 307.377C262.99 308.048 260.788 308.65 259.242 309.05C257.706 309.458 256.825 309.716 256.825 309.716L256.822 309.722ZM98.8977 394.265C99.7256 395.663 100.907 396.794 102.311 397.532C107.602 399.716 117.071 396.118 122.047 396C123.075 395.98 124.102 396.077 125.111 396.29C124.955 395.824 124.842 395.344 124.775 394.856C124.731 394.602 124.708 394.344 124.705 394.086C124.688 393.859 124.688 393.631 124.705 393.404C124.716 393.071 124.756 392.74 124.825 392.414L124.893 392.051C124.893 392.051 124.911 392.185 124.943 392.418C124.978 392.734 125.042 393.045 125.134 393.348C125.182 393.548 125.246 393.743 125.325 393.932C125.398 394.144 125.49 394.35 125.598 394.545C125.808 394.967 126.063 395.363 126.357 395.726C126.721 396.183 127.136 396.593 127.593 396.948C130.556 397.881 133.577 399.153 137.945 399.073C140.691 398.967 143.412 398.496 146.045 397.673C145.968 397.213 145.883 396.682 145.796 396.082C145.517 394.154 145.223 391.576 145.083 388.988C145.022 387.693 144.987 386.398 145.006 385.189C145.026 384.582 145.022 383.999 145.062 383.443C145.101 382.887 145.124 382.366 145.169 381.885C145.215 381.404 145.271 380.966 145.315 380.577C145.339 380.341 145.375 380.133 145.411 379.936C139.712 380.571 132.372 381.569 126.814 385.235L126.508 385.436L126.16 385.353C121.119 384.153 114.612 383.08 108.586 385.135C108.006 385.747 107.271 386.576 106.579 387.467C105.918 388.318 105.321 389.221 104.791 390.167C104.582 390.567 104.409 390.9 104.307 391.147L104.135 391.532L104.194 391.107C104.225 390.833 104.3 390.45 104.395 389.984C104.655 388.852 104.995 387.742 105.411 386.662C105.671 385.978 105.955 385.315 106.232 384.707C105.563 383.485 102.511 377.614 102.172 371.459C101.908 366.674 101.753 361.117 101.684 358.145C101.018 358.004 100.345 357.909 99.6672 357.859C98.0903 357.73 96.4693 357.746 96.4693 357.746C96.4693 357.746 97.9259 356.981 99.4684 356.339C100.142 356.054 100.831 355.812 101.532 355.611L101.52 355.566L101.658 355.211C102.9 352.022 103.134 349.4 102.277 348.199C101.405 346.973 99.3535 347.115 97.7852 347.449C95.5871 347.916 94.1926 348.758 93.6297 349.949C92.7199 351.875 93.887 354.879 94.9172 357.532L95.2873 358.49L95.2453 358.785C93.2832 372.358 94.0429 389.248 98.7124 394.011L98.8221 394.124L98.8977 394.265ZM103.836 354.628C103.721 354.984 103.6 355.328 103.475 355.666C105.627 363.318 106.933 372.42 107.891 379.093C108.092 380.493 108.273 381.777 108.452 382.925L108.53 383.002C113.5 381.437 118.667 381.802 123.152 382.621C122.903 374.258 122.776 365.634 122.77 356.751C122.77 354.666 122.78 352.606 122.793 350.551L110.394 353.215L103.836 354.628ZM188.555 336.419C189.557 342.945 190.352 350.852 190.923 360.428C191.024 362.121 191.104 363.754 191.163 365.337C194.564 365.218 197.967 365.539 201.293 366.292C201.705 366.021 202.105 365.782 202.51 365.527C202.559 361.65 202.597 357.769 202.568 353.927C202.521 348.865 202.556 343.798 202.443 338.817C202.403 337.023 202.364 335.24 202.324 333.457L192.027 335.67C192.051 336.508 192.057 336.97 192.057 336.97C192.057 336.97 191.925 336.532 191.702 335.737L188.555 336.419ZM155.726 375.152C156.556 377.579 159.269 382.08 167.653 378.901C175.444 375.947 176.469 366.771 176.381 361.512C176.159 361.111 175.909 360.729 175.633 360.367C175.144 359.701 174.57 359.109 173.928 358.606C173.57 358.32 173.186 358.071 172.781 357.862C172.366 357.636 171.933 357.448 171.485 357.304C171.033 357.163 170.561 357.092 170.095 356.997C169.625 356.984 169.152 356.938 168.693 356.949L167.362 357.095C166.941 357.182 166.547 357.301 166.177 357.396C165.836 357.467 165.503 357.573 165.182 357.714L164.426 358.021L163.762 358.289L164.369 357.889L165.072 357.429C165.371 357.22 165.689 357.043 166.021 356.899C166.379 356.729 166.765 356.523 167.188 356.342L168.567 355.897C169.055 355.783 169.576 355.721 170.107 355.631C170.654 355.606 171.201 355.613 171.747 355.65C172.302 355.708 172.851 355.821 173.386 355.985C173.885 356.127 174.371 356.317 174.836 356.554C174.486 356.197 174.115 355.863 173.726 355.554C172.901 354.832 171.936 354.306 170.897 354.011C169.859 353.716 168.772 353.658 167.711 353.843C162.392 354.976 156.566 363.343 155.458 371.427C155.464 372.672 155.554 373.915 155.729 375.147L155.726 375.152ZM223.692 328.867L213.7 331.014L208.098 332.214C208.31 340.126 208.418 348.304 208.423 356.746C208.423 358.597 208.417 360.436 208.405 362.265C211.567 360.711 214.952 359.712 218.424 359.307C218.608 358.189 218.806 356.948 219.02 355.608C220.181 348.344 221.764 338.437 224.035 329.591L223.964 329.443L223.692 328.867ZM139.495 346.967C134.924 347.95 130.521 348.896 126.378 349.786C126.361 352.086 126.35 354.397 126.35 356.754C126.35 365.61 126.482 374.361 126.747 382.936C130.326 380.926 134.203 379.561 138.215 378.898C137.957 372.743 138.031 366.577 138.436 360.431C138.736 355.506 139.088 351.033 139.497 346.958L139.495 346.967ZM142.198 405.259L142.231 405.32C142.475 405.706 142.758 406.076 143.027 406.466C143.297 406.856 143.566 407.266 143.859 407.658C144.178 408.024 144.503 408.4 144.835 408.784L145.332 409.362L145.899 409.873C146.281 410.208 146.654 410.574 147.063 410.9L148.352 411.804C148.801 412.093 149.266 412.356 149.743 412.591C151.78 413.594 153.961 414.241 156.198 414.506C158.69 414.787 161.197 414.887 163.702 414.806C166.349 414.745 169.046 414.763 171.597 414.527C174.077 414.373 176.523 413.837 178.853 412.935C181.045 412.036 183.023 410.646 184.647 408.861C186.25 407.075 187.577 405.038 188.581 402.824C189.56 400.736 190.379 398.569 191.028 396.345C191.306 395.414 191.55 394.51 191.777 393.632C190.829 394.055 189.865 394.466 188.868 394.853C184.23 411.577 173.768 411.659 164.683 411.659C157.987 411.659 150.543 411.61 145.232 404.888C144.214 405.035 143.204 405.156 142.2 405.25L142.198 405.259ZM232.653 320.827C231.836 319.727 230.178 319.427 227.721 319.952C225.674 320.388 224.417 321.118 223.984 322.122C223.316 323.672 224.47 326.122 225.585 328.496L226 329.381L225.897 329.781C223.597 338.62 221.995 348.653 220.825 355.982C220.622 357.248 220.434 358.423 220.259 359.495C220.685 359.985 221.071 360.512 221.414 361.068C221.802 361.696 222.106 362.376 222.319 363.089C222.387 363.318 222.439 363.552 222.474 363.789C222.5 363.956 222.515 364.052 222.515 364.052L222.366 363.843C222.241 363.663 222.104 363.494 221.954 363.337C221.52 362.885 221.026 362.502 220.487 362.199C219.969 361.908 219.424 361.672 218.862 361.494C218.721 361.451 218.603 361.419 218.499 361.395C213.634 361.895 208.069 364.188 201.924 368.266L201.618 368.466L201.27 368.384C198.256 367.684 192.355 366.698 186.709 367.977L186.538 368.014L186.367 367.981C184.511 367.565 182.62 367.343 180.721 367.318C180.741 367.452 180.763 367.578 180.781 367.717C180.986 369.062 181.094 370.423 181.103 371.785C181.134 373.431 180.987 375.075 180.666 376.686C180.316 378.526 179.673 380.291 178.764 381.908C177.787 383.632 176.487 385.131 174.941 386.314C173.379 387.47 171.629 388.317 169.776 388.814C169.321 388.941 168.861 389.044 168.396 389.12C168.149 389.155 167.965 389.192 167.668 389.22L167.01 389.279C166.035 389.343 165.056 389.277 164.097 389.085C162.222 388.713 160.469 387.846 159.004 386.567C157.606 385.359 156.492 383.833 155.745 382.105C155.066 380.584 154.634 378.955 154.466 377.285C154.311 375.91 154.302 374.522 154.438 373.145C154.455 372.924 154.479 372.715 154.503 372.506C153.121 373.481 151.92 374.709 150.957 376.133C150.045 377.46 148.939 378.629 147.68 379.598L147.506 379.712L146.579 379.813L145.574 379.923C145.565 380.129 145.557 380.351 145.565 380.603C145.574 380.99 145.584 381.426 145.595 381.902C145.605 382.378 145.66 382.893 145.696 383.435C145.731 383.977 145.812 384.546 145.871 385.134C146.012 386.31 146.214 387.554 146.444 388.79C146.915 391.262 147.536 393.691 148.051 395.483C148.227 396.095 148.387 396.623 148.529 397.061C151.822 396.317 155.184 395.961 158.553 396.003C169.538 396.003 183.269 386.273 188.19 385.503C189.001 385.362 189.787 385.093 190.52 384.703C189.706 383.048 188.989 381.341 188.372 379.595C187.984 378.481 187.653 377.347 187.381 376.195C187.274 375.637 187.17 375.095 187.072 374.587C187.012 374.068 186.955 373.579 186.902 373.127C186.876 372.673 186.877 372.255 186.864 371.889C186.856 371.572 186.87 371.255 186.906 370.941L186.975 370.123C186.975 370.123 186.993 370.424 187.025 370.942C187.034 371.252 187.066 371.562 187.12 371.867C187.184 372.221 187.242 372.622 187.33 373.05C187.443 373.471 187.564 373.928 187.693 374.41C187.856 374.88 188.029 375.373 188.209 375.884C188.624 376.927 189.092 377.946 189.614 378.935C190.463 380.53 191.408 382.066 192.445 383.534C195.272 381.551 198.275 378.635 202.703 377.061C202.608 376.922 202.512 376.784 202.431 376.637C202.201 376.231 202.02 375.798 201.892 375.347C201.831 375.143 201.787 374.934 201.761 374.723C201.731 374.539 201.716 374.352 201.718 374.165C201.707 373.894 201.728 373.622 201.781 373.357L201.831 373.066L201.9 373.353C201.95 373.596 202.029 373.83 202.135 374.052C202.196 374.197 202.27 374.337 202.357 374.467C202.443 374.612 202.542 374.749 202.652 374.874C202.877 375.139 203.135 375.373 203.417 375.568C203.943 375.911 204.519 376.161 205.122 376.31L205.234 376.333C213.289 374.513 222.79 370.819 225.95 362.086C228.489 355.068 231.17 338.506 232.175 331.926C232.112 331.863 232.045 331.799 231.966 331.727C231.467 331.279 230.925 330.885 230.348 330.554C229.751 330.209 229.122 329.928 228.471 329.715C227.931 329.533 227.553 329.452 227.553 329.452C227.553 329.452 227.921 329.341 228.496 329.235C229.213 329.099 229.941 329.041 230.669 329.06C231.166 329.074 231.661 329.122 232.152 329.205L232.207 329.048C233.541 325.229 233.705 322.233 232.655 320.818L232.653 320.827ZM104.557 349.17C104.609 349.546 104.634 349.924 104.631 350.304C110.409 349.113 116.508 347.847 122.824 346.504L161.396 338.317L199.934 329.929C207.766 328.229 215.252 326.551 222.202 324.996C222.118 324.657 222.054 324.313 222.011 323.966C215.046 325.402 207.544 326.947 199.712 328.612L161.14 336.798L122.601 345.186C116.331 346.537 110.287 347.88 104.559 349.161L104.557 349.17ZM8.8621 363.17C10.4294 362.901 12.6761 362.562 15.3606 362.07C18.0452 361.578 21.1713 361.008 24.5143 360.344C26.1849 360.005 27.9148 359.68 29.6656 359.304L34.9775 358.191L40.2795 357.024L45.4084 355.852C48.7333 355.081 51.8308 354.33 54.4819 353.66C57.133 352.99 59.3328 352.387 60.8782 351.987C62.4197 351.572 63.2982 351.316 63.2982 351.316C63.2982 351.316 62.397 351.439 60.8278 351.693C59.2586 351.947 57.0148 352.302 54.3293 352.793C51.6438 353.284 48.5195 353.857 45.1765 354.519C43.5059 354.857 41.7789 355.205 40.0243 355.557L34.7134 356.672L29.4104 357.838C27.6605 358.214 25.9449 358.63 24.282 359.007C20.9561 359.778 17.8591 360.528 15.208 361.199C12.5569 361.87 10.3566 362.473 8.81124 362.873C7.26971 363.288 6.39168 363.547 6.39168 363.547C6.39168 363.547 7.29473 363.418 8.86397 363.164L8.8621 363.17ZM66.1653 368.048C66.1653 368.048 65.265 368.172 63.6958 368.426C62.1285 368.696 59.8818 369.036 57.1973 369.526C54.5128 370.016 51.3875 370.589 48.0436 371.251L42.8923 372.291L37.5804 373.405C35.8038 373.796 34.0273 374.185 32.2784 374.571C30.5295 374.957 28.8129 375.363 27.149 375.74C23.8242 376.51 20.7262 377.261 18.076 377.931C15.4259 378.601 13.2236 379.207 11.6792 379.607C10.1368 380.022 9.25969 380.28 9.25969 380.28C9.25969 380.28 10.1599 380.156 11.7301 379.902C13.2974 379.632 15.5431 379.294 18.2286 378.802C20.9141 378.31 24.0384 377.74 27.3814 377.076C29.052 376.737 30.7828 376.412 32.5337 376.036L37.8446 374.921L43.1466 373.754L48.2755 372.583C51.6003 371.813 54.6988 371.063 57.349 370.391C59.9991 369.719 62.2009 369.119 63.7453 368.718C65.2897 368.317 66.1672 368.042 66.1672 368.042L66.1653 368.048ZM91.5868 352.992C91.5409 352.692 91.5112 352.392 91.4911 352.092L89.0062 352.646C79.1741 354.83 70.9964 356.745 65.2651 358.039L56.2663 360.126L65.3155 358.335C71.0688 357.162 79.2976 355.55 89.1537 353.502L91.5868 352.992ZM257.272 317.072L266.27 314.985L257.221 316.778C251.766 317.889 244.083 319.399 234.901 321.298C234.974 321.568 235.032 321.843 235.073 322.12C244.217 320.073 251.843 318.294 257.272 317.067V317.072ZM316.598 314.22C316.598 314.22 315.698 314.344 314.128 314.598C312.561 314.868 310.315 315.206 307.629 315.698C304.944 316.19 301.82 316.76 298.477 317.423C296.806 317.762 295.075 318.088 293.325 318.464L288.013 319.578L282.711 320.746L277.583 321.916C274.258 322.687 271.159 323.438 268.509 324.109C265.859 324.78 263.657 325.381 262.113 325.781C260.57 326.196 259.693 326.454 259.693 326.454C259.693 326.454 260.593 326.33 262.163 326.076C263.73 325.805 265.976 325.466 268.662 324.977C271.347 324.488 274.472 323.914 277.815 323.251L282.967 322.212L288.279 321.098L293.581 319.931C295.331 319.555 297.046 319.139 298.71 318.762C302.035 317.992 305.133 317.242 307.783 316.571C310.433 315.9 312.635 315.297 314.181 314.897C315.716 314.475 316.598 314.215 316.598 314.215V314.22Z" fill="#020100"/>
<path d="M101.466 203.749C102.294 205.146 103.475 206.276 104.88 207.013C110.171 209.199 119.639 205.602 124.615 205.484C125.644 205.464 126.671 205.561 127.679 205.774C127.523 205.308 127.411 204.827 127.344 204.339C127.3 204.085 127.276 203.828 127.274 203.57C127.257 203.343 127.257 203.114 127.274 202.886C127.284 202.554 127.324 202.223 127.393 201.898C127.436 201.667 127.462 201.535 127.462 201.535C127.462 201.535 127.479 201.669 127.512 201.902C127.547 202.218 127.611 202.529 127.703 202.832C127.751 203.032 127.815 203.227 127.894 203.416C127.967 203.628 128.059 203.834 128.167 204.029C128.377 204.451 128.632 204.846 128.925 205.209C129.289 205.666 129.705 206.076 130.162 206.43C133.125 207.364 136.146 208.635 140.514 208.555C143.26 208.449 145.981 207.98 148.614 207.156C148.537 206.697 148.452 206.166 148.365 205.566C148.085 203.637 147.792 201.058 147.651 198.47C147.591 197.175 147.556 195.881 147.575 194.671C147.595 194.064 147.591 193.481 147.63 192.925C147.67 192.369 147.692 191.848 147.738 191.368C147.784 190.888 147.84 190.449 147.883 190.059C147.908 189.824 147.944 189.615 147.979 189.418C142.28 190.052 134.939 191.051 129.382 194.718L129.076 194.918L128.728 194.835C123.686 193.635 117.18 192.562 111.154 194.618C110.574 195.23 109.839 196.058 109.147 196.95C108.486 197.801 107.888 198.704 107.359 199.65C107.15 200.05 106.977 200.382 106.875 200.629L106.703 201.013L106.762 200.589C106.793 200.315 106.867 199.931 106.963 199.466C107.223 198.334 107.562 197.224 107.978 196.144C108.239 195.461 108.523 194.798 108.799 194.19C108.13 192.968 105.079 187.096 104.739 180.942C104.475 176.157 104.321 170.598 104.251 167.627C103.586 167.486 102.912 167.391 102.235 167.342C100.657 167.213 99.0372 167.228 99.0372 167.228C99.0372 167.228 100.494 166.464 102.036 165.822C102.71 165.537 103.399 165.293 104.1 165.094L104.087 165.048L104.226 164.694C105.468 161.505 105.702 158.882 104.844 157.68C103.973 156.455 101.921 156.596 100.352 156.93C98.1541 157.398 96.7596 158.24 96.1967 159.43C95.2869 161.357 96.454 164.361 97.4842 167.013L97.8543 167.971L97.8118 168.267C95.8498 181.841 96.6099 198.731 101.278 203.494L101.389 203.607L101.466 203.749Z" fill="white"/>
<path d="M158.295 184.636C159.125 187.064 161.838 191.565 170.222 188.385C178.013 185.431 179.037 176.256 178.95 170.996C178.53 170.256 178.026 169.571 177.451 168.956C177.151 168.645 176.832 168.355 176.495 168.09C176.137 167.804 175.753 167.555 175.348 167.347C174.934 167.12 174.5 166.934 174.053 166.79C173.601 166.649 173.128 166.578 172.662 166.483C172.191 166.469 171.718 166.423 171.26 166.435L169.927 166.581C169.508 166.668 169.114 166.786 168.744 166.881C168.403 166.952 168.07 167.059 167.749 167.2L166.993 167.506L166.329 167.775L166.936 167.375L167.639 166.915C167.938 166.706 168.256 166.528 168.588 166.384C168.946 166.214 169.332 166.009 169.755 165.828L171.133 165.382C171.622 165.267 172.143 165.207 172.674 165.117C173.22 165.092 173.768 165.098 174.313 165.135C174.869 165.193 175.418 165.305 175.953 165.47C176.452 165.612 176.938 165.803 177.403 166.04C177.053 165.683 176.683 165.349 176.293 165.04C175.468 164.318 174.503 163.791 173.465 163.496C172.426 163.201 171.34 163.144 170.278 163.329C164.959 164.462 159.133 172.829 158.026 180.913C158.031 182.159 158.121 183.403 158.295 184.636V184.636Z" fill="white"/>
<path d="M235.221 130.309C234.404 129.209 232.745 128.909 230.289 129.434C228.242 129.87 226.985 130.599 226.552 131.604C225.883 133.154 227.038 135.604 228.153 137.978L228.568 138.862L228.465 139.261C226.165 148.1 224.563 158.133 223.393 165.461C223.19 166.726 223.002 167.903 222.827 168.974C223.253 169.464 223.639 169.991 223.982 170.548C224.37 171.176 224.674 171.856 224.887 172.57C224.955 172.799 225.006 173.033 225.041 173.27C225.068 173.438 225.082 173.534 225.082 173.534L224.934 173.325C224.81 173.145 224.671 172.976 224.521 172.819C224.088 172.366 223.594 171.982 223.054 171.679C222.537 171.388 221.992 171.152 221.43 170.974C221.29 170.93 221.172 170.899 221.067 170.874C216.203 171.374 210.638 173.668 204.493 177.746L204.187 177.947L203.839 177.865C200.825 177.165 194.923 176.176 189.278 177.456L189.107 177.495L188.936 177.46C187.08 177.045 185.189 176.822 183.29 176.797C183.31 176.93 183.331 177.058 183.349 177.198C183.555 178.543 183.663 179.902 183.672 181.264C183.703 182.909 183.556 184.554 183.235 186.164C182.885 188.005 182.242 189.77 181.333 191.387C180.356 193.109 179.055 194.606 177.51 195.788C175.948 196.944 174.198 197.791 172.344 198.288C171.89 198.415 171.429 198.517 170.965 198.594C170.718 198.629 170.534 198.667 170.236 198.695L169.579 198.753C168.604 198.815 167.625 198.747 166.666 198.553C164.791 198.181 163.038 197.315 161.573 196.036C160.176 194.827 159.061 193.301 158.313 191.574C157.635 190.052 157.203 188.423 157.035 186.753C156.88 185.379 156.87 183.991 157.007 182.614C157.024 182.393 157.048 182.185 157.072 181.976C155.69 182.951 154.488 184.179 153.526 185.603C152.613 186.93 151.507 188.099 150.249 189.068L150.075 189.181L149.148 189.282L148.142 189.393C148.134 189.599 148.125 189.82 148.134 190.072C148.143 190.459 148.153 190.895 148.163 191.371C148.174 191.847 148.229 192.362 148.259 192.904C148.289 193.446 148.376 194.016 148.435 194.604C148.575 195.779 148.778 197.023 149.008 198.258C149.479 200.731 150.099 203.159 150.615 204.952C150.791 205.564 150.952 206.091 151.093 206.53C154.386 205.786 157.748 205.43 161.117 205.472C172.102 205.472 185.833 195.742 190.753 194.972C191.564 194.832 192.351 194.562 193.084 194.172C192.27 192.517 191.553 190.812 190.937 189.066C190.548 187.952 190.217 186.817 189.945 185.665C189.838 185.107 189.734 184.565 189.636 184.057C189.575 183.538 189.519 183.048 189.467 182.596C189.44 182.143 189.44 181.726 189.428 181.36C189.419 181.043 189.433 180.725 189.47 180.411L189.539 179.592C189.539 179.592 189.557 179.893 189.589 180.412C189.598 180.722 189.63 181.032 189.685 181.337C189.749 181.691 189.806 182.092 189.894 182.521C190.006 182.942 190.128 183.398 190.256 183.88C190.421 184.347 190.593 184.839 190.772 185.355C191.187 186.398 191.656 187.416 192.177 188.405C193.026 190 193.972 191.536 195.009 193.004C197.836 191.022 200.839 188.105 205.267 186.532C205.171 186.393 205.076 186.256 204.995 186.109C204.765 185.703 204.585 185.27 204.456 184.819C204.395 184.615 204.351 184.406 204.326 184.195C204.295 184.01 204.28 183.823 204.281 183.635C204.271 183.364 204.293 183.093 204.346 182.828C204.377 182.643 204.395 182.537 204.395 182.537L204.464 182.824C204.513 183.067 204.593 183.302 204.699 183.524C204.76 183.669 204.835 183.808 204.921 183.939C205.007 184.084 205.106 184.219 205.216 184.344C205.441 184.611 205.698 184.847 205.981 185.044C206.507 185.386 207.082 185.637 207.685 185.786C207.727 185.795 207.76 185.801 207.798 185.81C215.852 183.99 225.355 180.296 228.514 171.563C231.053 164.545 233.734 147.983 234.739 141.403C234.675 141.34 234.61 141.275 234.529 141.203C234.031 140.754 233.489 140.362 232.912 140.031C232.315 139.685 231.687 139.404 231.035 139.192C230.734 139.088 230.427 138.999 230.117 138.927C230.117 138.927 230.485 138.816 231.06 138.71C231.777 138.575 232.505 138.516 233.233 138.536C233.73 138.55 234.225 138.598 234.716 138.681L234.771 138.526C236.107 134.72 236.271 131.724 235.221 130.309Z" fill="white"/>
</svg>
