<svg width="195" height="274" viewBox="0 0 195 274" fill="none" xmlns="http://www.w3.org/2000/svg">
<path d="M69.5182 62.8578C75.8822 66.5928 82.8813 67.6672 90.0753 68.2572C103.165 69.3292 119.783 59.6851 119.75 40.0111C117.89 15.1851 112.797 14.8255 100.316 8.28452C83.4345 3.37252 70.0702 7.74656 61.9152 17.1996C59.0343 20.5463 56.9245 24.4851 55.7345 28.7376C54.5445 32.9902 54.3036 37.452 55.0289 41.808C55.7543 46.1639 57.4279 50.3073 59.9318 53.9447C62.4356 57.5821 65.7082 60.6252 69.5182 62.8578Z" fill="white"/>
<path d="M126.311 78.9005C118.864 72.0835 109.971 71.727 100.511 72.587C91.3853 73.416 82.6342 73.7553 73.9722 70.8643C64.1152 67.5753 55.7354 70.1756 48.2354 76.7306C43.0564 81.2556 37.8954 85.8102 32.9024 90.5372C24.9996 97.8544 17.5935 105.691 10.7334 113.993C7.78545 117.642 5.75714 121.554 8.51714 126.293C16.8271 140.566 24.6354 153.753 37.7354 164.239C43.2514 168.654 47.8724 169.667 52.4424 165.156C60.5364 157.169 42.4684 140.656 38.4874 133.556C32.9874 123.761 36.8482 114.814 47.6402 112.573C51.1402 111.846 52.8983 112.96 53.3003 116.234C53.5523 118.288 52.6225 139.346 52.1915 141.354C52.1915 141.354 52.041 143.72 58.606 153.31C62.106 158.421 61.0064 164.764 56.0684 169.428C53.4034 171.947 54.0524 174.273 53.9224 177.71C53.0164 201.636 51.9492 225.554 50.9332 249.474H50.8003C50.8003 252.761 50.1403 267.388 60.3003 267.398C67.8263 267.978 72.8361 265.951 73.271 257.197C73.303 244.411 75.6441 201.397 78.1241 187.497C79.2521 181.174 83.3733 176.584 88.6973 175.843C93.6893 175.149 96.9502 178.092 99.7232 185.605C102.447 192.981 103.301 200.705 104.123 208.437C105.572 222.13 106.833 235.843 108.356 249.529C108.817 253.67 109.512 257.866 111.607 261.588C114.201 266.195 118.639 267.456 124.678 265.832C137.724 264.505 133.538 247.095 127.512 180.851C127.161 175.488 126.904 170.198 122.188 166.174C117.034 153.083 124.688 145.432 124.688 145.432C123.425 140.206 117.921 110.056 123.237 110.246C130.454 109.767 143.33 120.963 143.571 128.136C143.688 131.627 141.712 134.445 139.881 137.143C137.533 140.602 126.775 152.415 126.1 156.417C125.635 166.369 136.8 165.2 138.521 164.064C150.187 156.364 157.435 143.975 163.558 131.792C166.228 126.479 164.958 122.007 161.38 117.744C150.596 104.887 138.691 90.2345 126.311 78.9005Z" fill="white"/>
<path d="M113.713 66.0355C128.229 49.9355 127.647 26.6281 118.75 14.5951C108.189 -1.34395 76.436 -1.87862 67.663 4.70638C53.475 15.3564 46.796 24.278 48.974 41.64C50.024 50.016 53.6073 56.9465 59.8803 63.9085C52.9473 67.3805 46.8379 69.7733 42.0639 74.4613C36.0999 80.3203 29.5242 85.5813 23.8192 91.6693C16.6912 99.2753 8.30818 105.731 2.80018 114.878C-0.171817 119.816 -0.306825 124.27 2.59218 129.153C11.3498 144.146 22.182 157.827 34.768 169.789C36.995 171.882 39.4019 173.838 42.5009 173.99C47.8939 174.255 48.6373 177.244 48.0873 181.795C47.4783 186.831 47.3293 191.927 47.0873 197.002C46.1143 217.614 45.2632 238.231 44.1972 258.838C43.7622 267.253 52.7069 271.805 60.9159 273.03C78.6799 274.989 78.9423 259.156 78.8773 256.512C78.5383 242.721 81.2201 229.113 81.0311 215.313C80.9311 208.167 81.9893 201.003 82.5053 193.846C82.6749 190.536 83.7716 187.34 85.6703 184.623C88.2773 181.023 92.1701 181.342 94.1781 185.376C95.4513 188.079 96.3727 190.934 96.9193 193.87C99.1573 204.737 99.47 215.828 100.535 226.833C101.572 237.546 102.377 248.295 103.868 258.946C105.027 267.216 109.642 271.733 117.183 272.468C122.209 272.958 140.883 273.903 139.012 250.758C137.285 220.566 132.033 171.059 132.033 171.059C135.656 171.267 139.241 170.229 142.192 168.118C153.993 158.389 163.286 145.971 169.292 131.906C172.216 125.006 171.398 118.593 166.356 113.617C149.488 96.9715 135.623 76.9725 113.713 66.0355ZM61.913 17.1986C70.069 7.74557 83.4329 3.37153 100.313 8.28353C112.794 14.8245 117.888 15.1831 119.748 40.0101C119.781 59.6841 103.163 69.3282 90.0731 68.2562C82.8791 67.6672 75.88 66.5938 69.516 62.8568C65.7061 60.6241 62.4338 57.5811 59.9301 53.9437C57.4263 50.3062 55.7525 46.1629 55.0272 41.807C54.302 37.4511 54.5427 32.9891 55.7328 28.7367C56.9229 24.4842 59.033 20.5452 61.914 17.1986H61.913ZM163.551 131.787C157.428 143.971 150.18 156.356 138.514 164.059C136.793 165.195 125.628 166.364 126.093 156.412C126.768 152.412 137.526 140.596 139.874 137.137C141.705 134.437 143.681 131.622 143.564 128.131C143.323 120.958 130.447 109.764 123.23 110.242C117.914 110.052 123.418 140.201 124.681 145.427C124.681 145.427 117.03 153.078 122.181 166.169C126.897 170.192 127.154 175.482 127.505 180.845C133.531 247.089 137.717 264.5 124.671 265.827C118.632 267.451 114.194 266.19 111.6 261.583C109.505 257.861 108.81 253.666 108.349 249.525C106.826 235.839 105.565 222.124 104.116 208.431C103.299 200.702 102.445 192.975 99.7162 185.599C96.9432 178.086 93.6823 175.144 88.6903 175.838C83.3663 176.579 79.2451 181.17 78.1171 187.493C75.6371 201.393 73.2961 244.407 73.2641 257.193C72.8291 265.95 67.8189 267.976 60.2929 267.393C50.1359 267.383 50.7929 252.756 50.7929 249.469H50.9262C51.9422 225.549 53.0089 201.631 53.9149 177.705C54.0449 174.268 53.3959 171.941 56.0609 169.423C60.9969 164.759 62.099 158.415 58.599 153.304C52.034 143.714 52.184 141.348 52.184 141.348C52.615 139.34 53.5449 118.284 53.2929 116.23C52.8929 112.956 51.1312 111.842 47.6332 112.569C36.8412 114.81 32.9809 123.756 38.4799 133.551C42.4609 140.643 60.5289 157.16 52.4349 165.152C47.8649 169.663 43.2439 168.652 37.7279 164.235C24.6279 153.749 16.8201 140.561 8.51014 126.288C5.75014 121.547 7.77796 117.637 10.726 113.989C17.586 105.686 24.9921 97.8498 32.8949 90.5326C37.8879 85.8056 43.0489 81.2519 48.2279 76.7259C55.7279 70.1699 64.1082 67.5707 73.9652 70.8597C82.6272 73.7507 91.3783 73.4114 100.504 72.5824C109.96 71.7234 118.853 72.0828 126.304 78.8958C138.684 90.2298 150.589 104.88 161.366 117.738C164.946 122.006 166.221 126.476 163.551 131.787ZM126.783 117.797C140.396 121.084 140.483 131.019 128.743 141.358C127.934 131.863 126.783 124.777 126.783 117.8V117.797ZM46.558 133.742C39.411 127.216 39.8631 121.966 47.6981 118.871C48.8041 123.939 47.643 128.702 46.558 133.744V133.742Z" fill="black"/>
<path d="M184.836 92.6424C182.755 93.9244 183.805 95.6768 184.859 97.2098C192.248 107.962 190.765 119.148 186.474 130.465C185.761 132.347 184.305 134.102 185.932 137.177C190.397 130.213 193.945 123.459 194.573 115.618C195.179 108.039 193.892 100.738 189.303 94.368C188.215 92.859 186.718 91.4874 184.836 92.6424Z" fill="black"/>
</svg>
