<svg width="343" height="695" viewBox="0 0 343 695" fill="none" xmlns="http://www.w3.org/2000/svg">
<path d="M162.2 20.681C162.198 21.4008 162.393 22.1066 162.764 22.7133C163.134 23.3199 163.663 23.8027 164.288 24.1039V38.7777C163.549 39.1239 162.946 39.7245 162.58 40.4799C162.214 41.2352 162.106 42.0988 162.275 42.9271C162.444 43.7554 162.88 44.498 163.509 45.0306C164.139 45.5633 164.923 45.8539 165.733 45.8539C166.542 45.8539 167.328 45.5633 167.957 45.0306C168.586 44.498 169.022 43.7554 169.191 42.9271C169.36 42.0988 169.253 41.2352 168.887 40.4799C168.52 39.7245 167.917 39.1239 167.179 38.7777V24.1039C167.773 23.8381 168.287 23.408 168.667 22.8607C169.046 22.3134 169.277 21.669 169.334 20.9955C169.391 20.3219 169.272 19.6443 168.991 19.0355C168.71 18.4268 168.276 17.9097 167.736 17.5385C167.196 17.1672 166.569 16.9565 165.924 16.9281C165.278 16.8997 164.637 17.0549 164.069 17.3773C163.501 17.6998 163.027 18.1773 162.698 18.7592C162.369 19.341 162.197 20.0048 162.2 20.681ZM165.64 21.6068C165.692 21.0188 165.735 20.681 165.735 20.681C165.735 20.681 165.778 21.0188 165.831 21.6068C165.884 22.1948 165.959 23.0353 166.013 24.0443C166.136 26.0623 166.215 28.7507 166.218 31.4447C166.221 34.1387 166.134 36.8231 166.012 38.8441C165.958 39.8521 165.871 40.6946 165.83 41.2826C165.789 41.8706 165.734 42.2074 165.734 42.2074C165.734 42.2074 165.693 41.8706 165.639 41.2826C165.586 40.6946 165.511 39.8521 165.456 38.8451C165.335 36.8281 165.254 34.1387 165.25 31.4457C165.246 28.7527 165.333 26.0663 165.455 24.0453C165.514 23.0343 165.602 22.1938 165.64 21.6058V21.6068Z" fill="#020100"/>
<path d="M69.7045 118.52C69.7045 118.52 68.7568 118.395 67.1034 118.14C65.4501 117.885 63.0892 117.531 60.2661 117.04C57.443 116.549 54.1497 115.978 50.6299 115.315L45.2075 114.275L39.6156 113.161L34.0336 111.995C32.1911 111.618 30.3854 111.203 28.6345 110.825C25.1338 110.056 21.8734 109.305 19.0828 108.633C16.2902 107.976 13.9756 107.36 12.35 106.959C10.7244 106.558 9.80211 106.286 9.80211 106.286C9.80211 106.286 10.7498 106.409 12.4032 106.663C14.0527 106.933 16.4174 107.272 19.2414 107.763C22.0655 108.254 25.3579 108.826 28.8767 109.49C30.6352 109.829 32.4566 110.154 34.2991 110.53L39.89 111.646L45.472 112.812L50.8716 113.983C54.3713 114.753 57.6332 115.503 60.4229 116.174C63.2126 116.845 65.531 117.447 67.1566 117.847C68.7822 118.247 69.7045 118.52 69.7045 118.52ZM235.951 203.062C235.063 204.476 233.82 205.606 232.358 206.328C226.788 208.512 216.82 204.914 211.582 204.796C210.5 204.776 209.419 204.874 208.356 205.086C208.52 204.622 208.639 204.142 208.71 203.652C208.756 203.398 208.78 203.14 208.784 202.882C208.802 202.655 208.802 202.428 208.784 202.201C208.773 201.867 208.731 201.535 208.658 201.21C208.612 200.98 208.587 200.848 208.587 200.848L208.534 201.215C208.497 201.531 208.431 201.843 208.335 202.146C208.283 202.346 208.215 202.542 208.131 202.73C208.053 202.943 207.957 203.147 207.844 203.342C207.621 203.766 207.354 204.162 207.046 204.522C206.659 204.982 206.222 205.392 205.743 205.745C202.623 206.678 199.445 207.95 194.849 207.87C191.963 207.765 189.099 207.295 186.322 206.47C186.402 206.011 186.492 205.481 186.582 204.879C186.877 202.951 187.189 200.373 187.335 197.786C187.399 196.486 187.43 195.196 187.415 193.986C187.394 193.379 187.398 192.795 187.357 192.24C187.316 191.685 187.292 191.164 187.243 190.682C187.195 190.2 187.135 189.764 187.089 189.374C187.064 189.138 187.027 188.929 186.994 188.734C192.992 189.367 200.72 190.366 206.571 194.029L206.893 194.229L207.26 194.147C212.566 192.947 219.415 191.874 225.76 193.928C226.37 194.541 227.144 195.37 227.869 196.261C228.561 197.109 229.191 198.012 229.75 198.961C229.97 199.361 230.154 199.695 230.26 199.941L230.44 200.325L230.379 199.901C230.346 199.626 230.268 199.243 230.167 198.777C229.893 197.643 229.536 196.532 229.099 195.455C228.824 194.773 228.525 194.109 228.233 193.5C228.938 192.28 232.152 186.408 232.507 180.253C232.786 175.467 232.948 169.91 233.022 166.938C233.723 166.798 234.432 166.703 235.144 166.653C236.805 166.524 238.51 166.54 238.51 166.54C238.51 166.54 236.981 165.775 235.356 165.133C234.646 164.847 233.92 164.604 233.183 164.406L233.197 164.36L233.051 164.005C231.741 160.818 231.497 158.195 232.401 156.993C233.318 155.768 235.477 155.91 237.129 156.244C239.439 156.711 240.911 157.553 241.503 158.744C242.459 160.67 241.233 163.674 240.148 166.327L239.758 167.284L239.803 167.579C241.869 181.154 241.068 198.042 236.153 202.806L236.037 202.919L235.951 203.062ZM230.752 163.425C230.873 163.78 231 164.125 231.134 164.463C228.869 172.115 227.494 181.216 226.485 187.89C226.274 189.29 226.08 190.573 225.895 191.721L225.812 191.799C220.582 190.235 215.141 190.599 210.425 191.418C210.688 183.054 210.82 174.43 210.823 165.547C210.823 163.462 210.812 161.403 210.799 159.347L223.85 162.011C226.342 162.526 228.651 162.997 230.752 163.426V163.425ZM141.569 145.216C140.354 153.17 139.522 161.185 139.075 169.227C138.968 170.918 138.884 172.553 138.823 174.133C135.244 174.014 131.663 174.335 128.155 175.088C127.722 174.818 127.301 174.578 126.874 174.324C126.824 170.447 126.779 166.567 126.813 162.724C126.862 157.661 126.826 152.593 126.945 147.612C126.987 145.818 127.029 144.035 127.07 142.253L137.91 144.466C137.884 145.303 137.879 145.766 137.879 145.766C137.879 145.766 138.017 145.327 138.252 144.532L141.569 145.216ZM176.127 183.949C175.254 186.375 172.4 190.876 163.573 187.697C155.37 184.743 154.292 175.569 154.384 170.31C154.619 169.907 154.882 169.524 155.172 169.163C155.417 168.846 155.681 168.545 155.963 168.263C156.278 167.951 156.614 167.662 156.967 167.397C157.345 167.11 157.749 166.861 158.172 166.654C158.61 166.427 159.066 166.24 159.536 166.097C160.014 165.956 160.509 165.884 161 165.79C161.495 165.777 161.992 165.73 162.476 165.742L163.877 165.888C164.319 165.975 164.737 166.088 165.12 166.188C165.479 166.26 165.831 166.366 166.171 166.507L166.967 166.813L167.666 167.081L167.026 166.681C166.822 166.552 166.572 166.398 166.287 166.219C165.97 166.01 165.636 165.834 165.289 165.69C164.907 165.52 164.504 165.315 164.06 165.132L162.608 164.688C162.094 164.573 161.546 164.513 160.984 164.421C160.408 164.397 159.832 164.403 159.258 164.44C158.674 164.499 158.096 164.611 157.531 164.776C157.006 164.917 156.495 165.107 156.003 165.346C156.372 164.988 156.762 164.654 157.17 164.346C158.056 163.619 159.076 163.092 160.166 162.797C161.255 162.502 162.391 162.447 163.503 162.634C169.103 163.768 175.235 172.134 176.404 180.218C176.402 181.467 176.309 182.715 176.127 183.95V183.949ZM104.58 137.664L115.099 139.812L120.995 141.011C120.773 148.924 120.659 157.102 120.653 165.543C120.653 167.396 120.66 169.236 120.673 171.063C117.327 169.505 113.768 168.508 110.125 168.106C109.934 166.986 109.722 165.744 109.498 164.406C108.275 157.143 106.61 147.235 104.219 138.391L104.294 138.241C104.389 138.051 104.485 137.858 104.58 137.665V137.664ZM193.214 155.764L207.023 158.583C207.04 160.883 207.053 163.194 207.053 165.55C207.053 174.407 206.914 183.157 206.635 191.732C202.844 189.714 198.765 188.351 194.558 187.694C194.829 181.54 194.751 175.374 194.325 169.229C194.016 164.309 193.642 159.837 193.214 155.762V155.764ZM212.71 251.447C213.216 235.676 211.019 230.218 209.487 211.916C209.762 211.792 210.047 211.673 210.305 211.54C222.07 213.17 234.428 209.846 237.559 204.208C243.668 198.045 243.383 178.634 241.743 167.548L241.908 167.144C242.085 166.711 242.266 166.269 242.441 165.824C258.204 169.38 254.107 182.724 312.648 194.672C330.767 198.372 336.349 197.902 339.185 182.218C342.022 166.534 336.994 163.898 318.874 160.198C260.434 148.265 259.496 162.198 243.693 159.36C243.61 158.812 243.444 158.28 243.201 157.786C242.308 155.991 240.438 154.828 237.483 154.23C234.323 153.589 232.106 154.09 230.889 155.713C230.675 155.999 230.496 156.313 230.356 156.646L225.019 155.555L210.729 152.637C210.251 118.826 207.862 89.6082 203.617 65.6602C199.573 42.8782 193.953 25.8154 187.363 16.3164C178.042 2.88041 173.355 0.71582 165.741 0.71582C158.127 0.71582 153.44 2.88341 144.121 16.3164C137.526 25.8164 131.909 42.8782 127.866 65.6602C124.401 85.1792 122.181 108.209 121.216 134.36L116.272 133.351L106.373 131.329C106.319 130.879 106.198 130.44 106.014 130.029C105.269 128.384 103.529 127.307 100.705 126.736C97.3975 126.066 95.0371 126.59 93.6896 128.293C82.1325 123.493 80.5077 111.527 27.4726 100.699C9.35269 96.9992 3.77139 97.4683 0.934902 113.153C-1.90159 128.838 3.12623 131.472 21.2461 135.173C75.0773 146.164 80.117 135.205 92.9299 135.63C93.1481 136.546 93.4172 137.447 93.7363 138.33C92.1986 148.921 92.0408 168.473 98.1018 176.891C101.318 182.829 111.121 189.612 121.111 193.102C121.607 207.833 122.508 221.701 123.8 234.544L129.878 235.825C129.007 226.857 128.407 217.579 127.889 208.154C127.683 204.259 127.511 200.339 127.375 196.395C129.989 198.31 132.773 199.957 135.689 201.314C135.723 201.726 135.757 202.142 135.791 202.575C135.933 203.624 136.052 204.735 136.28 205.884C136.688 208.405 137.344 210.874 138.24 213.253C139.254 216.018 140.724 218.577 142.583 220.811C143.587 222.022 144.729 223.099 145.984 224.019C147.254 224.976 148.631 225.769 150.083 226.382C152.951 227.557 155.976 228.256 159.05 228.452C162.054 228.681 164.926 228.639 167.747 228.586C170.61 228.58 173.467 228.316 176.286 227.797C179.043 227.284 181.694 226.269 184.115 224.797C184.689 224.444 185.243 224.06 185.777 223.645L187.27 222.359C187.729 221.905 188.135 221.408 188.552 220.949L189.158 220.256C189.332 220.006 189.504 219.757 189.674 219.511C190.01 219.023 190.339 218.545 190.66 218.075C190.947 217.586 191.196 217.09 191.44 216.61C191.685 216.13 191.93 215.67 192.134 215.21C192.264 214.871 192.388 214.546 192.517 214.221C193.591 214.281 194.653 214.316 195.691 214.316C199.027 214.353 202.356 213.991 205.613 213.238C207.054 229.561 208.234 236.481 209.037 251.45L212.71 251.447ZM190.371 214.059L190.336 214.119C190.08 214.505 189.781 214.875 189.498 215.266C189.214 215.657 188.931 216.066 188.622 216.458L187.596 217.583C187.424 217.774 187.249 217.967 187.073 218.161L186.476 218.673C186.069 219.008 185.681 219.373 185.251 219.699L183.893 220.599C183.419 220.889 182.93 221.152 182.428 221.386C180.273 222.393 177.98 223.039 175.634 223.302C173.009 223.583 170.37 223.684 167.734 223.603C164.948 223.541 162.108 223.56 159.419 223.323C156.814 223.171 154.243 222.635 151.781 221.73C149.493 220.845 147.412 219.456 145.681 217.657C144.004 215.887 142.607 213.849 141.54 211.62C140.511 209.538 139.648 207.37 138.96 205.14C138.668 204.209 138.41 203.305 138.173 202.427C139.17 202.851 140.186 203.26 141.232 203.648C146.116 220.372 157.131 220.454 166.693 220.454C173.74 220.454 181.577 220.406 187.167 213.686C188.246 213.837 189.314 213.959 190.369 214.053L190.371 214.059ZM95.1498 129.626C96.0099 128.526 97.7551 128.226 100.342 128.751C102.496 129.189 103.82 129.917 104.275 130.922C104.978 132.471 103.764 134.922 102.59 137.295L102.153 138.18L102.262 138.58C104.462 147.214 106.245 155.958 107.602 164.78C107.815 166.044 108.013 167.221 108.197 168.293C107.75 168.78 107.343 169.307 106.98 169.866C106.573 170.49 106.252 171.17 106.024 171.887C105.953 172.115 105.899 172.35 105.862 172.587C105.835 172.754 105.819 172.851 105.819 172.851L105.976 172.641C106.108 172.463 106.253 172.296 106.41 172.141C106.871 171.686 107.391 171.303 107.955 171.002C108.501 170.712 109.073 170.477 109.662 170.302C109.81 170.258 109.934 170.226 110.044 170.202C115.165 170.702 121.023 172.997 127.493 177.074L127.814 177.274L128.18 177.192C131.353 176.492 137.565 175.505 143.509 176.783L143.688 176.821L143.868 176.788C145.825 176.373 147.816 176.151 149.813 176.126C149.792 176.259 149.769 176.385 149.75 176.526C149.533 177.871 149.419 179.23 149.41 180.594C149.377 182.24 149.532 183.886 149.871 185.494C150.241 187.345 150.919 189.113 151.873 190.719C152.914 192.456 154.283 193.954 155.895 195.119C157.553 196.281 159.393 197.128 161.332 197.619C161.811 197.747 162.296 197.849 162.785 197.926C163.044 197.961 163.238 197.997 163.55 198.026L164.242 198.086C165.268 198.147 166.297 198.08 167.308 197.886C169.196 197.532 170.978 196.715 172.506 195.502C174.034 194.289 175.266 192.714 176.101 190.907C176.813 189.394 177.268 187.763 177.447 186.087C177.61 184.713 177.62 183.324 177.477 181.947C177.459 181.726 177.434 181.519 177.408 181.31C178.851 182.273 180.116 183.502 181.141 184.937C182.111 186.273 183.275 187.442 184.591 188.401L184.774 188.515L185.75 188.615L186.808 188.724C186.817 188.931 186.826 189.152 186.817 189.403C186.807 189.792 186.797 190.228 186.785 190.703C186.774 191.178 186.716 191.693 186.679 192.234C186.642 192.775 186.558 193.348 186.495 193.935C186.347 195.11 186.134 196.354 185.896 197.59C185.4 200.061 184.749 202.49 184.204 204.282C184.02 204.893 183.85 205.421 183.706 205.861C180.234 205.116 176.696 204.76 173.152 204.802C161.589 204.802 147.134 195.073 141.955 194.302C141.104 194.162 140.277 193.893 139.501 193.502C140.356 191.85 141.111 190.145 141.762 188.395C142.17 187.283 142.519 186.147 142.805 184.994C142.918 184.435 143.028 183.894 143.131 183.385C143.194 182.868 143.254 182.378 143.309 181.926C143.338 181.472 143.337 181.053 143.35 180.688C143.359 180.371 143.344 180.054 143.305 179.74C143.258 179.219 143.232 178.922 143.232 178.922C143.232 178.922 143.214 179.222 143.181 179.74C143.173 180.051 143.141 180.361 143.085 180.667C143.019 181.021 142.958 181.42 142.866 181.848C142.747 182.27 142.619 182.726 142.484 183.21L141.94 184.684C141.503 185.729 141.009 186.747 140.461 187.733C139.564 189.333 138.569 190.869 137.48 192.333C134.504 190.349 131.339 187.433 126.681 185.858C126.777 185.72 126.879 185.585 126.968 185.436C127.208 185.032 127.398 184.599 127.535 184.146C127.599 183.942 127.645 183.734 127.671 183.521C127.703 183.337 127.719 183.15 127.718 182.963C127.729 182.692 127.706 182.421 127.65 182.156C127.617 181.969 127.598 181.864 127.598 181.864L127.526 182.15C127.473 182.394 127.39 182.63 127.278 182.851C127.214 182.996 127.135 183.134 127.044 183.264C126.954 183.41 126.85 183.547 126.734 183.672C126.494 183.94 126.221 184.176 125.924 184.372C125.367 184.716 124.762 184.965 124.13 185.111C124.086 185.122 124.053 185.128 124.012 185.135C115.533 183.315 105.53 179.623 102.204 170.889C99.5281 163.872 96.7084 147.308 95.6514 140.729C95.7183 140.667 95.7871 140.6 95.8712 140.529C96.399 140.079 96.9695 139.686 97.5735 139.356C98.2048 139.011 98.8666 138.73 99.5498 138.518C100.123 138.336 100.517 138.254 100.517 138.254C100.517 138.254 100.129 138.143 99.5241 138.038C98.7687 137.902 98.0024 137.843 97.2361 137.861C96.7135 137.876 96.1924 137.925 95.6757 138.008L95.6173 137.852C94.2153 134.034 94.0431 131.037 95.1479 129.621L95.1498 129.626ZM127.221 135.587C127.246 134.659 127.269 133.731 127.31 132.805C127.399 130.361 127.489 127.934 127.578 125.521C127.623 124.315 127.668 123.113 127.713 121.916C127.781 120.72 127.849 119.529 127.917 118.344C128.182 113.601 128.436 108.934 128.797 104.378C128.963 102.099 129.127 99.8446 129.289 97.6152C129.501 95.3926 129.71 93.1982 129.916 91.0322C130.211 87.8722 130.541 84.7846 130.903 81.7686C131.825 79.6536 132.967 77.2526 134.392 74.6816C137.139 69.5954 140.606 64.9734 144.675 60.9727C146.959 58.7814 149.518 56.9272 152.282 55.4609C155.119 53.9702 158.181 53.0033 161.332 52.6016C162.122 52.4919 162.917 52.4249 163.714 52.4014L164.311 52.3652C164.439 52.3652 164.703 52.372 164.892 52.375L166.135 52.4033C167.721 52.4626 169.302 52.6425 170.864 52.9414C173.926 53.5201 176.886 54.5866 179.641 56.1035C184.573 58.8939 188.872 62.7654 192.243 67.4541C193.616 69.3319 194.889 71.2872 196.057 73.3105C197.101 75.1235 197.976 76.7366 198.638 78.1006C199.3 79.4646 199.817 80.5408 200.132 81.2998C200.448 82.0588 200.626 82.4561 200.626 82.4561C200.626 82.4561 200.544 82.0207 200.327 81.2227C200.109 80.4247 199.78 79.2542 199.225 77.8232C197.742 73.8203 195.754 70.0422 193.315 66.5898C189.919 61.6207 185.537 57.4781 180.47 54.4443C177.589 52.7602 174.48 51.5456 171.249 50.8438C169.587 50.4815 167.903 50.2452 166.208 50.1367L164.966 50.0762C164.742 50.0682 164.592 50.0518 164.308 50.0488L163.664 50.0703C162.804 50.0724 161.945 50.12 161.09 50.2139C157.666 50.5799 154.329 51.5643 151.227 53.123C148.231 54.6407 145.447 56.5793 142.953 58.8857C138.632 62.9518 134.948 67.7024 132.034 72.9639C132.326 70.8359 132.621 68.7516 132.921 66.7109C134.195 59.2439 135.406 52.3887 136.903 46.4297C138.121 41.2648 139.6 36.171 141.331 31.1689C142.155 29.1399 142.813 27.2806 143.507 25.7266C144.238 24.1946 144.81 22.8503 145.365 21.8203L147.151 18.6973C156.411 5.35027 160.134 4.7207 165.741 4.7207C171.348 4.7207 175.071 5.35027 184.331 18.6973C194.966 34.0253 205.784 75.7911 206.948 151.869L192.386 148.896C187.984 117.162 179.05 114.588 166.705 114.588C155.829 114.588 147.6 116.589 142.785 138.769L140.061 138.211L140.177 137.824C140.655 136.204 141.186 134.387 141.857 132.437C142.458 130.46 143.311 128.424 144.135 126.263C144.612 125.227 145.101 124.166 145.602 123.077C146.204 122.077 146.725 120.983 147.379 119.993C148.641 118.009 150.213 116.262 152.031 114.826C153.923 113.465 156.075 112.549 158.338 112.141C160.77 111.683 163.236 111.452 165.707 111.447L167.61 111.43L169.432 111.45C170.632 111.488 171.809 111.59 172.939 111.727C175.068 111.976 177.136 112.629 179.041 113.653C180.753 114.641 182.301 115.91 183.628 117.413C184.234 118.12 184.804 118.859 185.337 119.628C185.851 120.319 186.325 121.042 186.756 121.793C187.616 123.193 188.26 124.502 188.825 125.57L190.474 129.023C190.474 129.023 190.413 128.674 190.298 128.023C190.16 127.377 190.031 126.402 189.725 125.201C189.373 123.74 188.933 122.304 188.407 120.901C187.737 119.028 186.864 117.242 185.804 115.578C184.498 113.532 182.842 111.756 180.919 110.341C178.723 108.809 176.255 107.755 173.662 107.241C172.348 106.966 171.021 106.771 169.685 106.659C169.018 106.615 168.347 106.569 167.672 106.521L165.697 106.468C162.918 106.379 160.138 106.594 157.402 107.109C154.464 107.671 151.689 108.934 149.294 110.8C148.136 111.737 147.084 112.811 146.161 114C145.261 115.113 144.461 116.31 143.771 117.576C143.096 118.8 142.575 120.055 142.02 121.262L140.755 124.898C140.433 126.098 140.126 127.261 139.849 128.39C139.542 129.513 139.408 130.625 139.196 131.675C139.022 132.733 138.786 133.725 138.686 134.699C138.587 135.673 138.474 136.588 138.378 137.451C138.362 137.594 138.346 137.725 138.331 137.866L127.221 135.587ZM229.999 157.968C229.944 158.343 229.918 158.723 229.921 159.103C223.838 157.912 217.418 156.646 210.769 155.302L170.164 147.115L129.595 138.727C121.351 137.027 113.47 135.349 106.157 133.793C106.246 133.455 106.313 133.111 106.359 132.764C113.69 134.199 121.588 135.745 129.833 137.41L170.438 145.596L211.008 153.984C217.6 155.339 223.965 156.687 229.994 157.965L229.999 157.968ZM330.736 171.968C329.087 171.699 326.722 171.36 323.898 170.868C321.074 170.376 317.782 169.807 314.263 169.143C312.504 168.803 310.683 168.479 308.839 168.103L303.249 166.987L297.667 165.82C295.829 165.42 294.019 165.029 292.268 164.65C288.767 163.879 285.506 163.129 282.716 162.458C279.925 161.787 277.609 161.185 275.983 160.785C274.358 160.37 273.435 160.112 273.435 160.112C273.435 160.112 274.383 160.236 276.035 160.49C277.685 160.76 280.049 161.101 282.873 161.59C285.698 162.079 288.99 162.653 292.509 163.317L297.932 164.356C299.777 164.722 301.65 165.096 303.523 165.469L309.105 166.635C310.948 167.012 312.753 167.427 314.505 167.805C318.004 168.576 321.266 169.326 324.056 169.997C326.846 170.668 329.163 171.271 330.79 171.671C332.414 172.086 333.337 172.344 333.337 172.344C333.337 172.344 332.384 172.222 330.731 171.968H330.736ZM270.413 176.845C270.413 176.845 271.361 176.969 273.013 177.223C274.664 177.494 277.027 177.834 279.851 178.323C282.676 178.812 285.968 179.385 289.488 180.048L294.91 181.087L300.501 182.201L306.083 183.368C307.926 183.744 309.731 184.159 311.483 184.537C314.983 185.307 318.244 186.057 321.034 186.729C323.826 187.386 326.142 188.002 327.768 188.403C329.394 188.804 330.315 189.077 330.315 189.077C330.315 189.077 329.367 188.953 327.714 188.699C326.065 188.429 323.7 188.091 320.876 187.599C318.052 187.107 314.76 186.537 311.241 185.872C309.482 185.534 307.661 185.208 305.817 184.832L300.227 183.717L294.646 182.55C292.807 182.15 290.997 181.759 289.246 181.38C285.746 180.609 282.484 179.859 279.695 179.189C276.905 178.519 274.587 177.915 272.961 177.516C271.332 177.103 270.408 176.845 270.408 176.845H270.413ZM243.654 161.79C243.702 161.49 243.733 161.19 243.749 160.89L246.368 161.444C256.718 163.628 265.327 165.544 271.36 166.837L280.833 168.925L271.308 167.133C265.251 165.961 256.59 164.348 246.213 162.3L243.654 161.79ZM69.2402 125.87L59.7682 123.783L69.2938 125.575C75.0356 126.687 83.1236 128.197 92.7904 130.095C92.7138 130.365 92.6532 130.64 92.6089 130.918C82.9726 128.877 74.9449 127.097 69.2336 125.87H69.2402ZM6.78664 123.02C6.78664 123.02 7.73485 123.143 9.38819 123.396C11.0377 123.666 13.4019 124.004 16.226 124.496C19.05 124.988 22.3424 125.558 25.8613 126.222C27.6197 126.562 29.4416 126.886 31.2841 127.262L36.8755 128.377L42.457 129.544L47.8566 130.715C51.3563 131.486 54.6183 132.236 57.4079 132.907C60.1976 133.578 62.516 134.179 64.1416 134.58C65.7672 134.981 66.6895 135.252 66.6895 135.252C66.6895 135.252 65.7413 135.128 64.0889 134.874C62.4365 134.62 60.0752 134.264 57.2511 133.774C54.4271 133.284 51.1347 132.711 47.6149 132.047L42.192 131.008L36.6006 129.896L31.0191 128.729C29.1756 128.352 27.3713 127.938 25.6195 127.56C22.1188 126.79 18.858 126.038 16.0626 125.367C13.2672 124.696 10.9555 124.093 9.32893 123.693C7.70234 123.293 6.78011 123.02 6.78011 123.02H6.78664Z" fill="#020100"/>
<path d="M213.29 490.172C213.499 491.772 213.71 493.518 213.918 495.428C214.261 498.652 214.571 502.292 214.83 506.274C214.957 508.263 215.036 510.337 215.146 512.487C215.229 514.635 215.264 516.859 215.322 519.146C215.37 523.718 215.34 528.545 215.13 533.545C215.019 536.045 214.916 538.588 214.701 541.163C214.503 543.739 214.335 546.347 214.005 548.974C213.718 551.599 213.446 554.254 213.006 556.909C212.624 559.487 212.242 562.071 211.859 564.662C211.405 567.302 211.169 569.708 210.829 572.216C210.533 574.749 210.24 577.27 209.948 579.778C209.789 581.033 209.697 582.3 209.566 583.552C209.435 584.804 209.296 586.052 209.163 587.294C208.909 589.778 208.722 592.245 208.451 594.664C207.541 604.416 206.691 613.518 205.967 621.318C205.56 625.245 205.189 628.844 204.86 632.035C204.504 635.235 204.191 638.025 203.904 640.328C203.631 642.628 203.356 644.447 203.202 645.685C203.023 646.924 202.928 647.584 202.928 647.584C202.928 647.584 202.768 646.935 202.518 645.709C202.285 644.484 201.895 642.689 201.518 640.393C200.733 635.802 199.797 629.222 199.084 621.292C198.73 617.325 198.436 613.021 198.224 608.458C198.028 603.896 197.915 599.076 197.938 594.081C197.978 589.087 198.114 583.914 198.476 578.654C198.536 577.843 198.597 577.029 198.657 576.216C201.097 569.392 203.113 562.412 204.693 555.316C208.799 537.358 211.697 515.298 213.29 490.172Z" fill="#020100"/>
<path d="M191.48 674.436C191.412 673.2 191.329 671.699 191.234 669.978C191.163 668.264 191.083 666.331 190.996 664.221C190.864 660.035 190.709 655.151 190.544 649.921C190.5 648.621 190.454 647.301 190.408 645.964C190.362 644.627 190.295 643.286 190.238 641.928C190.165 640.582 190.09 639.228 190.017 637.864C189.921 636.514 189.872 635.222 189.716 633.799C189.597 632.405 189.478 631.013 189.359 629.622C189.212 628.191 189.156 626.765 189.088 625.355C188.946 622.532 188.943 619.76 188.992 617.086C189.041 614.412 189.183 611.836 189.362 609.4C189.553 606.963 189.788 604.668 190.047 602.554C190.306 600.44 190.602 598.511 190.89 596.806C191.179 595.101 191.484 593.62 191.732 592.406C191.887 591.666 192.029 591.037 192.155 590.506C192.347 590.175 192.538 589.85 192.729 589.506L192.741 589.623C192.791 590.287 192.907 591.264 192.988 592.498C193.196 594.97 193.449 598.491 193.71 602.687C193.972 606.861 194.284 611.727 194.607 616.944C194.792 619.535 194.983 622.205 195.222 624.898C195.331 626.246 195.475 627.598 195.618 628.949C195.757 630.346 195.895 631.746 196.034 633.149C196.173 634.516 196.215 636.036 196.302 637.477C196.391 638.938 196.363 640.337 196.397 641.755C196.417 644.573 196.318 647.336 196.176 650C195.878 655.329 195.316 660.262 194.671 664.466C194.026 668.67 193.314 672.143 192.74 674.561C192.475 675.773 192.2 676.714 192.038 677.36L191.758 678.343C191.758 678.343 191.728 677.988 191.675 677.321C191.621 676.654 191.539 675.673 191.48 674.436Z" fill="#020100"/>
<path d="M128.551 663.856C128.574 662.433 128.757 660.895 128.873 659.382C128.968 658.668 129.063 657.951 129.159 657.229C129.255 656.508 129.359 655.775 129.471 655.029C129.873 652.205 130.241 649.257 130.573 646.317C131.246 640.403 131.92 634.489 132.552 628.945C133.205 623.388 133.846 618.2 134.448 613.754C134.758 611.531 135.04 609.492 135.292 607.688L136.002 603.01C136.422 600.418 136.685 598.938 136.685 598.938C136.685 598.938 136.781 600.438 136.9 603.07C136.94 604.383 136.99 605.978 137.046 607.807C137.07 609.635 137.097 611.699 137.126 613.949C137.177 622.949 136.898 634.924 135.942 646.919C135.666 649.919 135.427 652.919 135.002 655.912C134.81 657.36 134.624 658.793 134.443 660.212C134.315 661.571 134.169 662.864 134.071 664.241C133.831 666.941 133.72 669.6 133.563 672.12C133.462 674.309 133.364 676.387 133.276 678.34C133.262 678.652 133.248 678.966 133.233 679.271C133.123 681.503 133.024 683.549 132.936 685.365C132.801 687.189 132.762 688.778 132.65 690.097C132.563 691.414 132.487 692.453 132.419 693.164C132.351 693.875 132.323 694.256 132.323 694.256C132.323 694.256 132.194 693.898 131.997 693.214C131.8 692.53 131.511 691.527 131.2 690.24C130.86 688.955 130.563 687.38 130.193 685.57C129.855 683.758 129.524 681.703 129.247 679.448C129.202 679.086 129.161 678.711 129.118 678.34C128.896 676.394 128.719 674.318 128.603 672.125C128.475 669.509 128.41 666.743 128.551 663.856Z" fill="#020100"/>
<path d="M118.307 520.551C118.486 514.551 118.84 508.773 119.254 503.302C119.498 500.57 119.71 497.912 119.969 495.345C120.256 492.781 120.503 490.303 120.797 487.929C121.078 485.667 121.365 483.504 121.657 481.439C123.099 510.199 126.172 535.306 130.752 555.316C131.331 557.844 131.935 560.273 132.56 562.623C132.607 564.016 132.653 565.407 132.7 566.799C132.771 568.437 132.781 570.027 132.773 571.619C132.764 573.211 132.773 574.8 132.773 576.381C132.738 582.699 132.474 588.897 132.126 594.881C131.926 597.87 131.744 600.804 131.492 603.674C131.241 606.544 130.987 609.344 130.701 612.074C130.12 617.521 129.473 622.657 128.789 627.385C127.418 636.842 125.909 644.666 124.716 650.12C124.143 652.849 123.579 654.98 123.236 656.435C122.875 657.888 122.652 658.659 122.652 658.659C122.652 658.659 122.594 657.859 122.486 656.359C122.403 654.859 122.229 652.665 122.094 649.879C121.958 647.093 121.795 643.715 121.638 639.848C121.481 635.981 121.351 631.626 121.211 626.885C121.098 622.153 120.976 617.027 120.847 611.605C120.74 606.205 120.627 600.51 120.509 594.62C120.404 591.683 120.392 588.697 120.318 585.681C120.271 584.175 120.224 582.66 120.177 581.136C120.138 579.615 120.139 578.08 120.07 576.551C119.957 573.5 119.843 570.429 119.729 567.337C119.66 565.816 119.59 564.294 119.521 562.769L119.409 560.468L119.243 558.103C119.052 554.956 118.86 551.812 118.669 548.673C118.424 545.462 118.359 542.267 118.264 539.104C118.129 535.936 118.162 532.803 118.162 529.708C118.131 526.6 118.223 523.552 118.307 520.551Z" fill="#020100"/>
<path d="M167.721 565.557C166.906 565.571 166.121 565.875 165.493 566.418C164.865 566.96 164.431 567.71 164.263 568.544C164.095 569.378 164.202 570.246 164.568 571.008C164.933 571.769 165.535 572.379 166.274 572.736V587.41C165.536 587.756 164.933 588.357 164.567 589.112C164.201 589.868 164.093 590.732 164.262 591.561C164.431 592.389 164.867 593.131 165.497 593.664C166.126 594.197 166.911 594.487 167.72 594.487C168.53 594.487 169.315 594.197 169.944 593.664C170.574 593.131 171.009 592.389 171.178 591.561C171.347 590.732 171.24 589.868 170.874 589.112C170.508 588.357 169.905 587.756 169.166 587.41V572.736C169.905 572.379 170.507 571.769 170.872 571.008C171.238 570.246 171.345 569.378 171.178 568.544C171.01 567.71 170.576 566.961 169.948 566.418C169.32 565.875 168.535 565.571 167.721 565.557V565.557ZM167.625 570.24C167.677 569.651 167.721 569.315 167.721 569.315C167.721 569.315 167.763 569.651 167.816 570.24C167.87 570.829 167.944 571.668 167.999 572.677C168.121 574.695 168.2 577.383 168.203 580.077C168.206 582.771 168.119 585.457 167.997 587.478C167.943 588.488 167.856 589.327 167.815 589.915C167.774 590.503 167.72 590.839 167.72 590.839C167.72 590.839 167.677 590.503 167.624 589.915C167.571 589.327 167.496 588.487 167.442 587.478C167.32 585.461 167.239 582.77 167.235 580.077C167.231 577.384 167.318 574.698 167.441 572.677C167.497 571.667 167.585 570.827 167.626 570.239L167.625 570.24Z" fill="#020100"/>
<path d="M139.578 518.662C140.084 519.056 140.698 519.27 141.329 519.274C141.96 519.278 142.576 519.071 143.087 518.683C143.66 519.365 144.259 520.052 144.902 520.75C145.001 520.857 145.119 520.942 145.25 521.001C145.381 521.06 145.522 521.092 145.665 521.093C145.807 521.094 145.948 521.066 146.08 521.009C146.212 520.953 146.331 520.868 146.432 520.762C146.636 520.547 146.752 520.257 146.755 519.953C146.757 519.649 146.645 519.355 146.444 519.136C145.821 518.464 145.246 517.802 144.693 517.145C145.298 516.26 145.64 515.208 145.676 514.121C145.712 513.033 145.44 511.959 144.895 511.033C142.393 506.269 139.415 502.56 136.803 503.886C136.557 503.217 136.348 502.533 136.178 501.837C136.149 501.691 136.093 501.553 136.012 501.43C135.932 501.307 135.829 501.201 135.71 501.12C135.591 501.038 135.457 500.983 135.317 500.956C135.177 500.928 135.033 500.93 134.893 500.961C134.651 501.019 134.434 501.162 134.279 501.366C134.124 501.57 134.04 501.823 134.041 502.084C134.041 502.166 134.049 502.248 134.066 502.329C134.328 503.442 134.673 504.532 135.098 505.588C131.873 510.546 137.285 516.496 139.578 518.662ZM143.346 517.692C142.668 516.992 141.933 516.112 141.174 515.144C140.416 514.176 139.681 513.079 138.976 511.958C138.303 510.849 137.69 509.702 137.139 508.521C136.657 507.49 136.237 506.427 135.881 505.341C135.636 504.571 135.431 503.787 135.265 502.994C135.203 502.693 135.155 502.389 135.123 502.083C135.123 502.083 135.234 502.398 135.442 502.937C135.65 503.476 135.986 504.226 136.386 505.12C136.811 506.004 137.299 507.033 137.882 508.103C138.152 508.649 138.492 509.177 138.789 509.744C139.115 510.291 139.447 510.844 139.777 511.404C140.446 512.51 141.167 513.585 141.838 514.595L142.836 516.034C143.163 516.486 143.471 516.911 143.756 517.304C144.316 518.104 144.808 518.751 145.15 519.205C145.492 519.659 145.674 519.939 145.674 519.939C145.674 519.939 145.429 519.727 145.015 519.338C144.602 518.949 143.994 518.424 143.346 517.692Z" fill="#020100"/>
<path d="M197.178 503.386C194.869 505.568 189.395 511.587 192.773 516.569C192.165 517.314 191.506 518.012 190.802 518.657C190.576 518.847 190.43 519.122 190.396 519.424C190.362 519.725 190.442 520.028 190.619 520.268C190.705 520.387 190.813 520.487 190.936 520.561C191.06 520.636 191.196 520.683 191.338 520.702C191.479 520.72 191.623 520.71 191.76 520.67C191.897 520.629 192.025 520.56 192.137 520.467C192.938 519.755 193.685 518.978 194.37 518.143C196.99 519.525 199.985 515.806 202.498 511.019C203.079 510.036 203.348 508.885 203.267 507.732C203.187 506.579 202.761 505.481 202.05 504.596C202.364 503.777 202.672 502.93 202.97 502.038C203.067 501.752 203.051 501.437 202.928 501.163C202.805 500.888 202.584 500.676 202.313 500.57C202.178 500.52 202.035 500.498 201.893 500.507C201.75 500.515 201.611 500.553 201.482 500.618C201.354 500.683 201.239 500.773 201.144 500.885C201.05 500.997 200.977 501.129 200.931 501.27C200.715 501.921 200.489 502.541 200.263 503.153C199.784 502.87 199.235 502.74 198.686 502.782C198.138 502.824 197.613 503.034 197.178 503.386ZM193.486 517.025C194.049 516.233 194.702 515.313 195.352 514.289C195.693 513.789 195.994 513.234 196.342 512.702C196.662 512.151 196.986 511.59 197.31 511.029C197.953 509.902 198.546 508.745 199.106 507.659L199.885 506.076L200.554 504.638C200.984 503.752 201.318 502.998 201.554 502.472C201.791 501.946 201.947 501.652 201.947 501.652C201.947 501.652 201.876 501.977 201.729 502.543C201.567 503.101 201.396 503.926 201.061 504.866C200.762 505.821 200.344 506.908 199.856 508.055C199.369 509.202 198.766 510.387 198.126 511.555C197.485 512.684 196.783 513.774 196.024 514.82C195.365 515.731 194.651 516.598 193.887 517.415C193.343 517.986 192.768 518.526 192.167 519.031C191.94 519.222 191.703 519.4 191.459 519.564C191.459 519.564 191.677 519.321 192.041 518.886C192.405 518.451 192.902 517.794 193.482 517.02L193.486 517.025Z" fill="#020100"/>
<path d="M123.195 410.833L118.25 409.823C114.505 409.059 111.169 408.377 108.351 407.801C108.297 407.351 108.176 406.913 107.993 406.502C107.247 404.858 105.508 403.781 102.684 403.208C99.3763 402.539 97.0155 403.062 95.6679 404.765C84.1108 399.965 82.486 388 29.4509 377.171C11.331 373.471 5.75015 373.942 2.91366 389.626C0.0771717 405.31 5.10499 407.946 23.2249 411.646C77.0561 422.637 82.0953 411.678 94.9082 412.104C95.1262 413.02 95.3958 413.921 95.7151 414.803C94.1774 425.395 94.0196 444.948 100.081 453.365C103.296 459.303 113.1 466.085 123.089 469.576C124.219 503.148 127.457 532.265 132.624 554.834C140.418 588.882 152.226 606.145 167.72 606.145C183.215 606.145 195.022 588.882 202.815 554.834C206.991 536.596 209.905 514.078 211.467 488.392C211.742 488.268 212.027 488.149 212.285 488.015C224.051 489.646 236.409 486.323 239.54 480.684C245.648 474.522 245.363 455.111 243.724 444.025L243.889 443.62C244.066 443.186 244.246 442.745 244.421 442.299C260.184 445.856 256.088 459.2 314.628 471.149C332.747 474.849 338.329 474.378 341.166 458.694C344.002 443.01 338.974 440.373 320.854 436.673C262.414 424.741 261.476 438.674 245.673 435.836C245.59 435.287 245.424 434.755 245.181 434.261C244.289 432.466 242.418 431.304 239.463 430.706C236.304 430.065 234.086 430.567 232.869 432.189C232.655 432.476 232.476 432.789 232.336 433.122L226.999 432.032C222.824 431.178 217.996 430.194 212.71 429.114L123.195 410.833ZM71.6898 394.999C71.6898 394.999 70.7416 394.875 69.0883 394.621C67.4387 394.351 65.0745 394.01 62.2514 393.521C59.4283 393.032 56.135 392.458 52.6152 391.794L47.1928 390.755L41.6009 389.64L36.0185 388.473C34.1759 388.097 32.3716 387.682 30.6198 387.304C27.1191 386.534 23.8583 385.785 21.0629 385.114C18.2675 384.443 15.9558 383.84 14.3302 383.44C12.7055 383.025 11.7823 382.765 11.7823 382.765C11.7823 382.765 12.7305 382.889 14.3838 383.143C16.0333 383.413 18.3975 383.752 21.2216 384.243C24.0456 384.734 27.338 385.304 30.8569 385.968C32.6154 386.307 34.4367 386.632 36.2793 387.008L41.8711 388.124L47.4527 389.291C49.2914 389.691 51.1005 390.082 52.8522 390.461C56.352 391.232 59.6134 391.982 62.4031 392.654C65.1927 393.326 67.5116 393.926 69.1373 394.326C70.7638 394.736 71.6879 394.994 71.6879 394.994L71.6898 394.999ZM237.936 479.542C237.048 480.956 235.805 482.086 234.343 482.808C228.773 484.993 218.805 481.394 213.567 481.277C212.485 481.257 211.404 481.354 210.342 481.567C210.506 481.102 210.624 480.621 210.695 480.131C210.741 479.878 210.766 479.621 210.768 479.363C210.787 479.136 210.787 478.907 210.768 478.68C210.758 478.347 210.716 478.016 210.643 477.691C210.598 477.46 210.572 477.328 210.572 477.328L210.519 477.695C210.482 478.011 210.416 478.322 210.321 478.625C210.197 479.041 210.032 479.444 209.829 479.825C209.607 480.249 209.339 480.644 209.031 481.005C208.645 481.464 208.208 481.875 207.729 482.227C204.608 483.162 201.429 484.433 196.834 484.353C193.948 484.248 191.085 483.778 188.307 482.953C188.387 482.494 188.477 481.963 188.568 481.362C188.862 479.433 189.175 476.855 189.32 474.268C189.384 472.968 189.416 471.677 189.4 470.467C189.379 469.86 189.383 469.276 189.342 468.721C189.301 468.166 189.277 467.646 189.228 467.165C189.179 466.684 189.12 466.246 189.076 465.856C189.05 465.621 189.012 465.411 188.98 465.215C194.979 465.848 202.706 466.847 208.557 470.51L208.879 470.711L209.246 470.629C214.552 469.429 221.402 468.355 227.746 470.411C228.356 471.023 229.13 471.852 229.855 472.744C230.548 473.592 231.176 474.495 231.736 475.444C231.956 475.844 232.14 476.177 232.246 476.423L232.426 476.808L232.365 476.382C232.332 476.108 232.253 475.725 232.153 475.259C231.879 474.125 231.522 473.015 231.085 471.938C230.811 471.256 230.511 470.592 230.224 469.983C230.929 468.763 234.143 462.891 234.499 456.736C234.776 451.951 234.939 446.393 235.013 443.421C235.714 443.281 236.423 443.185 237.135 443.135C238.796 443.006 240.501 443.022 240.501 443.022C240.501 443.022 238.972 442.258 237.347 441.617C236.637 441.33 235.911 441.086 235.174 440.887L235.188 440.841L235.042 440.488C233.732 437.299 233.488 434.677 234.392 433.475C235.309 432.25 237.468 432.392 239.12 432.726C241.43 433.193 242.902 434.036 243.494 435.226C244.45 437.152 243.224 440.158 242.139 442.81L241.749 443.767L241.794 444.062C243.86 457.637 243.059 474.525 238.144 479.29L238.028 479.402L237.936 479.542ZM232.737 439.906C232.859 440.26 232.986 440.606 233.119 440.944C230.854 448.595 229.479 457.697 228.47 464.37C228.259 465.77 228.065 467.053 227.88 468.202L227.797 468.28C222.567 466.715 217.126 467.08 212.411 467.899C212.674 459.535 212.806 450.911 212.808 442.028C212.808 439.943 212.797 437.882 212.784 435.828L225.835 438.493L232.737 439.906ZM143.554 421.697C142.339 429.651 141.507 437.663 141.06 445.705C140.954 447.398 140.869 449.031 140.808 450.614C137.228 450.495 133.648 450.815 130.14 451.569C129.707 451.298 129.286 451.057 128.86 450.802C128.808 446.925 128.764 443.047 128.798 439.203C128.847 434.14 128.811 429.072 128.93 424.09C128.972 422.296 129.014 420.511 129.055 418.733C132.502 419.433 136.137 420.177 139.896 420.946C139.869 421.783 139.864 422.246 139.864 422.246C139.864 422.246 140.003 421.806 140.237 421.01L143.554 421.697ZM178.113 460.428C177.239 462.855 174.385 467.356 165.558 464.176C157.356 461.222 156.277 452.048 156.37 446.789C156.604 446.387 156.868 446.004 157.157 445.643C157.403 445.326 157.666 445.025 157.947 444.743C158.263 444.431 158.599 444.141 158.952 443.877C159.331 443.59 159.734 443.341 160.157 443.133C160.595 442.906 161.052 442.72 161.521 442.577C161.999 442.436 162.494 442.365 162.985 442.271C163.48 442.257 163.977 442.209 164.46 442.22L165.863 442.367C166.304 442.454 166.723 442.572 167.105 442.667C167.464 442.738 167.816 442.846 168.156 442.987L168.952 443.287L169.651 443.555L169.012 443.156L168.272 442.695C167.956 442.486 167.622 442.308 167.274 442.165C166.892 441.994 166.49 441.789 166.045 441.608C165.584 441.465 165.097 441.317 164.593 441.163C164.079 441.048 163.531 440.988 162.969 440.897C162.393 440.873 161.818 440.879 161.243 440.915C160.659 440.973 160.082 441.086 159.517 441.251C158.992 441.391 158.48 441.582 157.988 441.82C158.357 441.463 158.748 441.129 159.156 440.82C160.042 440.094 161.062 439.567 162.151 439.272C163.241 438.978 164.378 438.922 165.489 439.109C171.088 440.243 177.22 448.609 178.391 456.693C178.387 457.943 178.294 459.19 178.111 460.424L178.113 460.428ZM106.565 414.144L117.084 416.291L122.981 417.491C122.758 425.403 122.644 433.58 122.639 442.023C122.639 443.874 122.645 445.713 122.659 447.542C119.312 445.984 115.753 444.986 112.111 444.584C111.92 443.465 111.708 442.222 111.483 440.883C110.261 433.619 108.595 423.713 106.203 414.869L106.279 414.718C106.373 414.526 106.468 414.332 106.563 414.139L106.565 414.144ZM195.199 432.244L209.008 435.062C209.026 437.362 209.038 439.673 209.038 442.03C209.038 450.886 208.899 459.636 208.62 468.211C204.829 466.192 200.751 464.829 196.543 464.172C196.814 458.018 196.736 451.852 196.31 445.707C195.999 440.787 195.628 436.312 195.197 432.237L195.199 432.244ZM132.009 513.828C131.053 504.388 130.417 494.592 129.869 484.628C129.663 480.734 129.497 476.808 129.356 472.87C131.971 474.784 134.755 476.431 137.671 477.789C137.704 478.202 137.739 478.617 137.773 479.049C137.914 480.098 138.033 481.21 138.261 482.359C138.669 484.88 139.326 487.349 140.221 489.728C141.236 492.494 142.705 495.051 144.564 497.286C145.569 498.496 146.711 499.573 147.965 500.494C149.236 501.451 150.613 502.245 152.064 502.858C154.932 504.033 157.958 504.73 161.032 504.925C164.035 505.155 166.907 505.114 169.728 505.061C172.591 505.055 175.448 504.791 178.268 504.273C181.025 503.76 183.674 502.744 186.096 501.273C186.67 500.92 187.225 500.535 187.759 500.119L189.251 498.834C189.71 498.379 190.111 497.882 190.534 497.423L191.14 496.732L191.656 495.987L192.642 494.549C192.929 494.062 193.177 493.567 193.422 493.086C193.667 492.605 193.911 492.147 194.116 491.686C194.246 491.346 194.369 491.022 194.498 490.697C195.572 490.757 196.634 490.792 197.673 490.792C201.008 490.828 204.337 490.466 207.595 489.714C203.562 553.159 190.9 602.143 167.72 602.143L166.843 602.073C166.485 602.05 166.128 602.004 165.775 601.934C165.288 601.865 164.805 601.763 164.331 601.628C161.216 600.763 158.361 599.088 156.031 596.757C152.944 593.857 149.997 589.458 147.383 584.019C144.542 577.839 142.249 571.4 140.531 564.783C138.501 557.075 136.846 549.265 135.57 541.382C138.027 545.822 141.022 549.912 144.478 553.551C146.879 556.077 149.611 558.232 152.593 559.952C155.69 561.731 159.081 562.881 162.587 563.342C163.463 563.467 164.345 563.531 165.229 563.534L165.889 563.555L166.054 563.562H166.096H166.18H166.258L166.575 563.546L167.836 563.48C168.656 563.469 169.571 563.302 170.438 563.201C171.322 563.109 172.148 562.865 173 562.701C176.296 561.905 179.444 560.542 182.315 558.67C184.986 556.929 187.437 554.843 189.609 552.46C191.538 550.328 193.286 548.024 194.833 545.575C196.146 543.518 197.324 541.371 198.36 539.147C199.15 537.431 199.84 535.666 200.425 533.862C200.949 532.295 201.353 530.686 201.632 529.052C201.632 529.052 200.957 530.715 199.635 533.509C198.976 534.909 198.159 536.589 197.157 538.473C196.054 540.587 194.845 542.638 193.534 544.617C191.99 546.94 190.256 549.117 188.35 551.124C186.239 553.332 183.87 555.251 181.299 556.837C178.583 558.516 175.619 559.712 172.528 560.375C170.953 560.709 169.355 560.91 167.749 560.975L166.487 561.007L166.17 561.015H166.091C166.091 561.015 166.02 561.015 166.097 561.015H166.059L165.908 561.005L165.306 560.967C164.5 560.944 163.697 560.867 162.902 560.736C159.719 560.263 156.65 559.164 153.857 557.498C151.121 555.858 148.621 553.82 146.434 551.442C142.523 547.111 139.212 542.226 136.599 536.931C135.636 535.031 134.812 533.222 134.098 531.546C133.316 525.803 132.619 519.895 132.007 513.821L132.009 513.828ZM192.354 490.535L192.319 490.594C192.063 490.98 191.764 491.351 191.481 491.743C191.197 492.135 190.915 492.543 190.606 492.933L189.579 494.059L189.056 494.636C188.86 494.805 188.66 494.977 188.46 495.15C188.053 495.485 187.664 495.849 187.234 496.174L185.877 497.08C185.402 497.37 184.913 497.632 184.411 497.867C182.256 498.873 179.963 499.519 177.617 499.783C174.992 500.064 172.353 500.164 169.717 500.083C166.931 500.022 164.092 500.039 161.402 499.803C158.798 499.651 156.226 499.115 153.764 498.211C151.476 497.326 149.396 495.936 147.664 494.137C145.988 492.367 144.59 490.33 143.523 488.101C142.494 486.02 141.631 483.852 140.943 481.622C140.656 480.691 140.394 479.787 140.157 478.909C141.153 479.332 142.169 479.742 143.215 480.129C148.099 496.852 159.114 496.935 168.676 496.935C175.723 496.935 183.56 496.886 189.15 490.166C190.229 490.313 191.297 490.434 192.352 490.528L192.354 490.535ZM97.1332 406.102C97.9933 405.002 99.7385 404.702 102.326 405.227C104.48 405.665 105.803 406.393 106.258 407.399C106.961 408.948 105.747 411.399 104.573 413.771L104.137 414.657L104.245 415.051C106.446 423.685 108.228 432.43 109.585 441.252C109.798 442.516 109.996 443.693 110.18 444.763C109.733 445.252 109.327 445.778 108.964 446.338C108.557 446.962 108.236 447.642 108.008 448.359C107.937 448.588 107.882 448.822 107.846 449.059C107.819 449.226 107.803 449.323 107.803 449.323L107.959 449.114C108.091 448.936 108.236 448.768 108.393 448.614C108.853 448.159 109.374 447.774 109.938 447.473C110.485 447.183 111.056 446.95 111.645 446.774C111.794 446.73 111.918 446.697 112.028 446.673C117.148 447.173 123.006 449.468 129.476 453.546L129.797 453.746L130.164 453.663C133.337 452.963 139.549 451.976 145.492 453.255L145.672 453.293L145.852 453.258C147.809 452.843 149.799 452.621 151.796 452.596C151.775 452.728 151.752 452.856 151.733 452.997C151.516 454.341 151.403 455.701 151.393 457.064C151.361 458.711 151.516 460.355 151.854 461.964C152.226 463.814 152.906 465.583 153.861 467.188C154.902 468.925 156.271 470.422 157.884 471.588C159.541 472.75 161.381 473.596 163.32 474.088C163.799 474.216 164.284 474.319 164.773 474.395C165.032 474.43 165.226 474.467 165.537 474.495L166.23 474.553C167.256 474.616 168.286 474.549 169.296 474.354C171.184 474 172.966 473.182 174.494 471.969C176.022 470.756 177.254 469.182 178.089 467.375C178.801 465.862 179.256 464.23 179.435 462.554C179.598 461.181 179.608 459.792 179.465 458.416C179.447 458.194 179.422 457.986 179.396 457.778C180.84 458.741 182.104 459.97 183.129 461.405C184.1 462.741 185.264 463.91 186.579 464.87L186.761 464.983L187.739 465.083L188.796 465.193C188.805 465.4 188.814 465.621 188.805 465.872C188.795 466.26 188.785 466.697 188.773 467.172C188.762 467.647 188.704 468.163 188.667 468.704C188.63 469.245 188.546 469.817 188.483 470.404C188.335 471.58 188.122 472.825 187.884 474.06C187.388 476.532 186.737 478.96 186.192 480.752C186.008 481.364 185.839 481.891 185.694 482.331C182.222 481.585 178.684 481.231 175.141 481.273C163.577 481.273 149.122 471.543 143.943 470.773C143.092 470.634 142.265 470.364 141.489 469.972C142.344 468.322 143.099 466.617 143.75 464.867C144.158 463.753 144.507 462.616 144.793 461.462C144.906 460.904 145.016 460.362 145.119 459.853C145.182 459.336 145.242 458.846 145.297 458.394C145.326 457.941 145.325 457.521 145.338 457.156C145.347 456.839 145.332 456.522 145.293 456.208C145.247 455.687 145.221 455.389 145.221 455.389C145.221 455.389 145.201 455.69 145.169 456.208C145.161 456.519 145.129 456.829 145.074 457.134C145.007 457.488 144.947 457.888 144.854 458.317L144.471 459.676C144.299 460.145 144.117 460.64 143.928 461.151C143.491 462.196 142.997 463.214 142.449 464.201C141.552 465.8 140.557 467.337 139.468 468.8C136.492 466.817 133.327 463.901 128.669 462.327C128.765 462.188 128.867 462.051 128.956 461.904C129.195 461.5 129.386 461.067 129.523 460.614C129.587 460.411 129.632 460.202 129.659 459.99C129.691 459.805 129.707 459.618 129.706 459.43C129.717 459.159 129.694 458.888 129.638 458.624C129.604 458.437 129.587 458.332 129.587 458.332L129.514 458.619C129.46 458.862 129.377 459.098 129.266 459.319C129.201 459.464 129.123 459.603 129.032 459.733C128.942 459.879 128.837 460.015 128.721 460.139C128.481 460.408 128.21 460.643 127.912 460.839C127.355 461.182 126.749 461.432 126.118 461.58L126 461.603C117.521 459.784 107.518 456.09 104.192 447.358C101.516 440.34 98.6965 423.777 97.6395 417.197C97.7064 417.134 97.7752 417.069 97.8593 416.997C98.3873 416.547 98.9578 416.154 99.5616 415.825C100.193 415.479 100.855 415.198 101.538 414.986C102.111 414.803 102.505 414.721 102.505 414.721C102.505 414.721 102.117 414.611 101.512 414.506C100.757 414.369 99.9905 414.31 99.2242 414.33C98.7016 414.344 98.1801 414.393 97.6633 414.476L97.6055 414.319C96.1987 410.508 96.0266 407.511 97.1313 406.095L97.1332 406.102ZM231.981 434.446C231.927 434.822 231.901 435.201 231.904 435.581C225.821 434.389 219.4 433.124 212.752 431.781L172.139 423.587L131.57 415.199C123.326 413.499 115.445 411.82 108.131 410.264C108.22 409.926 108.288 409.583 108.334 409.236C115.665 410.671 123.563 412.215 131.807 413.881L172.413 422.069L212.983 430.455C219.584 431.814 225.944 433.159 231.977 434.439L231.981 434.446ZM332.718 448.446C331.069 448.176 328.705 447.836 325.881 447.345C323.057 446.854 319.764 446.284 316.245 445.62C314.487 445.281 312.665 444.956 310.822 444.58L305.231 443.464L299.65 442.297L294.25 441.128C290.75 440.357 287.488 439.607 284.699 438.937C281.909 438.267 279.591 437.662 277.965 437.262C276.34 436.847 275.417 436.589 275.417 436.589C275.417 436.589 276.365 436.713 278.018 436.967C279.667 437.238 282.031 437.578 284.856 438.068C287.68 438.558 290.972 439.131 294.491 439.794L299.915 440.833L305.505 441.947L311.088 443.113C312.93 443.49 314.735 443.905 316.487 444.283C319.987 445.053 323.249 445.802 326.038 446.473C328.828 447.144 331.146 447.748 332.772 448.149C334.399 448.55 335.319 448.822 335.319 448.822C335.319 448.822 334.367 448.696 332.715 448.443L332.718 448.446ZM272.395 453.323C272.395 453.323 273.343 453.447 274.996 453.701C276.646 453.971 279.009 454.311 281.834 454.8C284.658 455.289 287.95 455.864 291.47 456.528L296.893 457.567C298.737 457.933 300.61 458.306 302.484 458.679L308.066 459.846C309.908 460.222 311.713 460.637 313.465 461.015C316.965 461.786 320.227 462.537 323.016 463.208C325.806 463.879 328.125 464.481 329.75 464.881C331.375 465.296 332.297 465.554 332.297 465.554C332.297 465.554 331.349 465.431 329.696 465.177C328.044 464.923 325.683 464.571 322.859 464.078C320.035 463.585 316.742 463.016 313.223 462.352C311.465 462.012 309.644 461.688 307.8 461.312L302.209 460.197L296.628 459.03L291.228 457.859C287.728 457.088 284.467 456.338 281.677 455.667C278.888 454.996 276.569 454.395 274.943 453.995C273.316 453.578 272.39 453.32 272.39 453.32L272.395 453.323ZM245.636 438.267C245.682 437.969 245.714 437.668 245.731 437.367L248.35 437.92C258.7 440.104 267.309 442.02 273.343 443.313L282.815 445.402L273.29 443.61C267.234 442.437 258.572 440.825 248.195 438.777L245.636 438.267ZM71.2222 402.345C65.1947 401.019 61.7507 400.259 61.7507 400.259L71.2759 402.051C77.0177 403.163 85.1056 404.674 94.7724 406.573C94.6953 406.843 94.6347 407.118 94.5909 407.396C84.9585 405.352 76.9316 403.57 71.2176 402.343L71.2222 402.345ZM8.76914 399.496C8.76914 399.496 9.71687 399.619 11.3702 399.873C13.0236 400.127 15.3844 400.481 18.2084 400.972C21.0325 401.463 24.3249 402.036 27.8438 402.7C29.6022 403.039 31.4236 403.364 33.2662 403.74L38.858 404.854L44.4391 406.021L49.8386 407.192C53.3384 407.963 56.6003 408.712 59.39 409.382C62.1796 410.052 64.498 410.656 66.1237 411.056C67.7493 411.456 68.6715 411.729 68.6715 411.729C68.6715 411.729 67.7238 411.606 66.0714 411.351C64.419 411.096 62.0572 410.742 59.2332 410.251C56.4091 409.76 53.1167 409.189 49.5969 408.525L44.1745 407.486L38.5827 406.372L33.0016 405.206C31.1581 404.829 29.3538 404.414 27.602 404.036C24.1023 403.265 20.8404 402.514 18.0507 401.843C15.2611 401.172 12.9427 400.571 11.3161 400.17C9.6895 399.769 8.76307 399.494 8.76307 399.494L8.76914 399.496Z" fill="#020100"/>
<path d="M123.195 233.168L118.25 232.159L108.351 230.136C108.297 229.686 108.176 229.248 107.993 228.837C107.247 227.194 105.508 226.116 102.684 225.544C99.3763 224.875 97.0155 225.398 95.6679 227.102C84.1108 222.302 82.486 210.335 29.4509 199.507C11.331 195.807 5.75015 196.278 2.91366 211.961C0.0771717 227.644 5.10499 230.281 23.2249 233.982C77.0561 244.972 82.0953 234.014 94.9082 234.439C95.1261 235.355 95.3957 236.256 95.7151 237.138C94.1774 247.73 94.0196 267.283 100.081 275.701C103.296 281.638 113.1 288.42 123.089 291.911C123.429 302.011 122.994 316.292 123.709 325.525C123.709 325.525 130.106 330.497 129.741 325.245C129.426 320.73 130.123 311.568 129.867 306.964C129.661 303.069 129.496 299.143 129.354 295.205C131.969 297.12 134.753 298.767 137.669 300.124C137.702 300.537 137.737 300.952 137.771 301.384C137.913 302.434 138.031 303.545 138.259 304.695C138.667 307.216 139.325 309.685 140.22 312.064C141.234 314.829 142.704 317.387 144.562 319.621C145.566 320.832 146.709 321.909 147.964 322.829C149.234 323.786 150.611 324.58 152.063 325.193C154.93 326.368 157.956 327.065 161.03 327.261C164.033 327.49 166.905 327.45 169.727 327.397C172.589 327.39 175.446 327.126 178.266 326.608C181.023 326.095 183.673 325.079 186.095 323.608C186.668 323.255 187.222 322.87 187.756 322.455L189.249 321.169C189.708 320.715 190.11 320.217 190.532 319.759L191.138 319.067L191.654 318.323C191.99 317.833 192.318 317.353 192.64 316.885C192.927 316.398 193.175 315.902 193.42 315.421C193.665 314.94 193.909 314.482 194.114 314.021C194.244 313.682 194.367 313.358 194.496 313.033C195.57 313.092 196.632 313.127 197.671 313.127C201.006 313.163 204.336 312.801 207.593 312.049C207.402 315.12 209.27 339.204 209.034 342.203L212.817 342.394C213.088 338.919 211.246 314.332 211.465 310.729C211.74 310.605 212.025 310.487 212.283 310.353C224.049 311.984 236.407 308.66 239.538 303.021C245.646 296.859 245.362 277.449 243.723 266.363L243.887 265.957C244.064 265.524 244.244 265.082 244.419 264.636C260.182 268.193 256.086 281.537 314.627 293.486C332.746 297.186 338.327 296.715 341.164 281.032C344 265.349 338.973 262.71 320.853 259.01C262.412 247.078 261.475 261.011 245.671 258.173C245.588 257.624 245.422 257.092 245.179 256.598C244.286 254.803 242.416 253.641 239.461 253.043C236.302 252.403 234.085 252.904 232.867 254.527C232.653 254.813 232.474 255.126 232.335 255.459L226.997 254.369L212.708 251.451L123.195 233.168ZM71.6879 217.336C71.6879 217.336 70.7397 217.212 69.0864 216.958C67.4369 216.688 65.0727 216.348 62.2496 215.858C59.4264 215.368 56.1331 214.795 52.6133 214.132L47.1904 213.091L41.5991 211.978L36.0166 210.813C34.174 210.435 32.3697 210.02 30.618 209.642C27.1173 208.873 23.8565 208.122 21.0611 207.452C18.2657 206.782 15.9539 206.177 14.3283 205.777C12.7036 205.362 11.7804 205.103 11.7804 205.103C11.7804 205.103 12.7286 205.226 14.382 205.482C16.0353 205.738 18.3956 206.089 21.2197 206.582C24.0438 207.075 27.3362 207.644 30.855 208.308C32.6135 208.647 34.4349 208.971 36.2774 209.347L41.8693 210.463L47.4503 211.63L52.8504 212.8C56.3501 213.571 59.6116 214.322 62.4012 214.993C65.1909 215.664 67.5098 216.265 69.1354 216.666C70.761 217.067 71.6879 217.329 71.6879 217.329V217.336ZM237.934 301.879C237.047 303.293 235.803 304.423 234.341 305.145C228.771 307.33 218.803 303.733 213.565 303.614C212.483 303.594 211.402 303.691 210.34 303.904C210.504 303.439 210.622 302.958 210.693 302.468C210.739 302.215 210.764 301.958 210.767 301.7C210.785 301.473 210.785 301.245 210.767 301.018C210.756 300.685 210.714 300.353 210.642 300.028C210.596 299.798 210.57 299.666 210.57 299.666L210.517 300.033C210.481 300.349 210.414 300.66 210.319 300.962C210.195 301.378 210.03 301.781 209.827 302.162C209.605 302.585 209.337 302.98 209.029 303.341C208.643 303.801 208.205 304.212 207.726 304.564C204.606 305.498 201.428 306.769 196.832 306.689C193.946 306.584 191.083 306.114 188.305 305.289C188.385 304.83 188.475 304.299 188.566 303.698C188.86 301.77 189.173 299.191 189.318 296.604C189.382 295.304 189.414 294.013 189.398 292.803C189.377 292.197 189.381 291.613 189.34 291.059C189.299 290.505 189.275 289.982 189.226 289.501C189.178 289.02 189.119 288.583 189.074 288.192C189.048 287.957 189.01 287.747 188.978 287.551C194.977 288.184 202.704 289.183 208.555 292.846L208.877 293.047L209.244 292.965C214.55 291.765 221.4 290.692 227.745 292.748C228.354 293.359 229.129 294.188 229.853 295.08C230.546 295.928 231.175 296.83 231.734 297.78C231.954 298.18 232.138 298.512 232.244 298.758L232.425 299.143L232.363 298.718C232.33 298.443 232.251 298.06 232.151 297.595C231.877 296.461 231.52 295.35 231.083 294.273C230.808 293.591 230.509 292.927 230.223 292.318C230.927 291.098 234.141 285.226 234.497 279.072C234.775 274.287 234.937 268.728 235.011 265.756C235.712 265.616 236.421 265.521 237.133 265.471C238.794 265.341 240.499 265.358 240.499 265.358C240.499 265.358 238.97 264.594 237.345 263.952C236.635 263.665 235.91 263.421 235.172 263.223L235.186 263.177L235.04 262.824C233.73 259.636 233.487 257.013 234.39 255.812C235.307 254.587 237.466 254.728 239.118 255.062C241.428 255.529 242.9 256.372 243.493 257.562C244.448 259.489 243.222 262.493 242.137 265.145L241.747 266.102L241.792 266.397C243.858 279.972 243.058 296.86 238.142 301.625L238.026 301.738L237.934 301.879ZM232.735 262.243C232.856 262.597 232.984 262.943 233.118 263.281C230.853 270.932 229.477 280.034 228.468 286.708C228.257 288.108 228.063 289.391 227.879 290.54L227.795 290.617C222.565 289.052 217.124 289.417 212.409 290.236C212.672 281.872 212.804 273.248 212.806 264.365C212.806 262.28 212.795 260.22 212.782 258.165L225.833 260.83L232.735 262.243ZM143.552 244.034C142.337 251.988 141.505 260.001 141.059 268.043C140.953 269.735 140.869 271.372 140.806 272.951C137.227 272.831 133.646 273.152 130.138 273.907C129.705 273.636 129.284 273.394 128.858 273.14C128.807 269.263 128.763 265.384 128.796 261.541C128.845 256.479 128.81 251.41 128.928 246.428C128.97 244.634 129.012 242.854 129.053 241.071L139.893 243.284C139.867 244.121 139.862 244.584 139.862 244.584C139.862 244.584 140.001 244.146 140.235 243.351L143.552 244.034ZM178.111 282.765C177.237 285.192 174.383 289.693 165.556 286.514C157.354 283.559 156.275 274.385 156.368 269.126C156.602 268.724 156.865 268.342 157.155 267.981C157.4 267.664 157.664 267.363 157.946 267.081C158.261 266.768 158.597 266.478 158.95 266.214C159.329 265.927 159.732 265.678 160.155 265.47C160.593 265.243 161.05 265.057 161.519 264.914C161.997 264.774 162.492 264.702 162.983 264.608C163.478 264.594 163.975 264.547 164.459 264.56L165.861 264.705C166.302 264.792 166.721 264.91 167.103 265.005C167.462 265.076 167.815 265.183 168.154 265.325L168.95 265.625L169.649 265.895L169.01 265.495L168.27 265.034C167.954 264.825 167.62 264.647 167.272 264.504C166.89 264.334 166.488 264.129 166.043 263.947L164.592 263.502C164.077 263.387 163.529 263.327 162.967 263.236C162.391 263.212 161.816 263.218 161.241 263.255C160.657 263.313 160.08 263.425 159.515 263.59C158.99 263.731 158.478 263.922 157.986 264.16C158.355 263.802 158.745 263.468 159.154 263.16C160.04 262.433 161.06 261.906 162.15 261.612C163.24 261.318 164.376 261.262 165.487 261.449C171.086 262.582 177.218 270.949 178.389 279.033C178.386 280.281 178.293 281.526 178.111 282.759V282.765ZM106.563 236.482L117.082 238.628L122.979 239.828C122.757 247.741 122.643 255.919 122.637 264.36C122.637 266.211 122.643 268.051 122.657 269.879C119.311 268.321 115.751 267.323 112.109 266.922C111.918 265.802 111.705 264.56 111.481 263.221C110.258 255.958 108.593 246.051 106.202 237.207L106.277 237.056C106.373 236.861 106.468 236.668 106.563 236.475V236.482ZM195.197 254.582L209.006 257.4C209.024 259.7 209.036 262.011 209.036 264.368C209.036 273.224 208.897 281.974 208.618 290.549C204.827 288.531 200.749 287.167 196.541 286.51C196.812 280.356 196.734 274.19 196.308 268.046C195.999 263.119 195.628 258.647 195.197 254.572V254.582ZM192.352 312.874L192.317 312.933C192.061 313.321 191.763 313.689 191.479 314.081C191.195 314.473 190.913 314.881 190.603 315.272L189.577 316.397L189.055 316.975C188.858 317.144 188.658 317.315 188.458 317.488C188.051 317.823 187.662 318.187 187.232 318.512L185.875 319.418C185.4 319.707 184.911 319.97 184.41 320.205C182.254 321.211 179.962 321.858 177.615 322.121C174.991 322.402 172.352 322.502 169.715 322.421C166.929 322.36 164.09 322.379 161.401 322.142C158.796 321.99 156.224 321.453 153.763 320.549C151.474 319.664 149.394 318.275 147.663 316.476C145.986 314.706 144.588 312.668 143.522 310.439C142.493 308.357 141.629 306.19 140.941 303.96C140.654 303.028 140.392 302.124 140.155 301.247C141.151 301.669 142.167 302.079 143.213 302.466C148.097 319.19 159.113 319.272 168.674 319.272C175.722 319.272 183.558 319.223 189.148 312.503C190.228 312.65 191.297 312.771 192.352 312.864V312.874ZM97.1313 228.44C97.9915 227.34 99.7367 227.04 102.324 227.566C104.478 228.003 105.801 228.731 106.256 229.737C106.96 231.287 105.745 233.737 104.571 236.11L104.134 236.995L104.243 237.389C106.444 246.023 108.226 254.768 109.583 263.59C109.796 264.854 109.994 266.032 110.178 267.103C109.731 267.591 109.324 268.116 108.962 268.675C108.555 269.3 108.234 269.98 108.006 270.697C107.935 270.926 107.881 271.16 107.844 271.397C107.817 271.564 107.801 271.661 107.801 271.661L107.957 271.452C108.089 271.274 108.234 271.107 108.391 270.952C108.852 270.497 109.372 270.113 109.937 269.812C110.483 269.522 111.055 269.288 111.644 269.112C111.792 269.068 111.916 269.036 112.026 269.011C117.146 269.511 123.005 271.805 129.474 275.883L129.795 276.084L130.162 276.002C133.335 275.302 139.547 274.313 145.49 275.592L145.67 275.632L145.85 275.596C147.807 275.181 149.797 274.96 151.794 274.935C151.773 275.068 151.75 275.194 151.731 275.335C151.514 276.679 151.401 278.039 151.392 279.402C151.359 281.049 151.514 282.693 151.852 284.301C152.224 286.152 152.904 287.921 153.859 289.526C154.9 291.264 156.269 292.76 157.882 293.925C159.539 295.087 161.38 295.934 163.319 296.425C163.798 296.553 164.282 296.656 164.771 296.732C165.03 296.767 165.224 296.804 165.536 296.837L166.229 296.895C167.254 296.957 168.284 296.89 169.294 296.695C171.182 296.341 172.964 295.523 174.492 294.31C176.02 293.097 177.252 291.523 178.087 289.716C178.799 288.202 179.254 286.572 179.433 284.895C179.596 283.521 179.607 282.132 179.463 280.756C179.445 280.535 179.42 280.327 179.394 280.118C180.838 281.081 182.103 282.31 183.127 283.745C184.097 285.081 185.261 286.25 186.577 287.21L186.76 287.324L187.736 287.424L188.795 287.534C188.803 287.741 188.813 287.962 188.803 288.214C188.793 288.601 188.783 289.037 188.771 289.513C188.76 289.989 188.703 290.505 188.665 291.047C188.628 291.589 188.544 292.159 188.481 292.747C188.333 293.922 188.12 295.167 187.882 296.402C187.386 298.874 186.735 301.301 186.19 303.093C186.006 303.705 185.837 304.233 185.692 304.673C182.22 303.928 178.683 303.573 175.139 303.615C163.575 303.615 149.12 293.886 143.941 293.115C143.09 292.975 142.263 292.706 141.487 292.315C142.342 290.664 143.097 288.958 143.748 287.208C144.157 286.094 144.505 284.957 144.79 283.802C144.904 283.244 145.014 282.703 145.117 282.194C145.181 281.677 145.24 281.187 145.295 280.735C145.324 280.282 145.323 279.862 145.336 279.497C145.345 279.18 145.33 278.863 145.292 278.549C145.245 278.028 145.219 277.731 145.219 277.731C145.219 277.731 145.199 278.03 145.167 278.549C145.159 278.86 145.127 279.171 145.072 279.476C145.005 279.83 144.945 280.229 144.852 280.658C144.733 281.08 144.605 281.537 144.469 282.019C144.297 282.487 144.115 282.981 143.927 283.493C143.489 284.538 142.995 285.556 142.447 286.543C141.551 288.142 140.555 289.68 139.466 291.143C136.49 289.161 133.325 286.243 128.667 284.669C128.763 284.531 128.865 284.394 128.954 284.246C129.194 283.842 129.384 283.409 129.52 282.956C129.585 282.753 129.63 282.544 129.657 282.332C129.689 282.147 129.705 281.961 129.704 281.773C129.715 281.502 129.692 281.23 129.636 280.966C129.603 280.78 129.585 280.674 129.585 280.674L129.512 280.962C129.459 281.205 129.376 281.441 129.265 281.662C129.199 281.807 129.121 281.946 129.03 282.077C128.94 282.222 128.836 282.359 128.72 282.483C128.48 282.752 128.208 282.987 127.91 283.183C127.353 283.527 126.748 283.776 126.117 283.924L125.998 283.946C117.519 282.127 107.517 278.434 104.19 269.701C101.514 262.683 98.6946 246.121 97.6377 239.541C97.7046 239.478 97.7733 239.412 97.8574 239.341C98.3851 238.89 98.9557 238.497 99.5598 238.168C100.191 237.822 100.853 237.541 101.536 237.329C102.109 237.146 102.503 237.065 102.503 237.065C102.503 237.065 102.115 236.954 101.51 236.848C100.755 236.712 99.9887 236.654 99.2224 236.673C98.6998 236.687 98.1783 236.736 97.6615 236.819L97.6031 236.663C96.1983 232.843 96.0266 229.846 97.1313 228.43V228.44ZM231.979 256.785C231.925 257.16 231.899 257.539 231.902 257.919C225.819 256.727 219.399 255.462 212.75 254.119L172.144 245.931L131.576 237.544C123.332 235.844 115.451 234.167 108.137 232.611C108.226 232.273 108.294 231.929 108.34 231.582C115.671 233.016 123.569 234.562 131.813 236.227L172.419 244.414L212.989 252.8C219.584 254.148 225.944 255.494 231.977 256.775L231.979 256.785ZM332.717 270.785C331.067 270.515 328.703 270.177 325.879 269.685C323.055 269.193 319.762 268.623 316.244 267.959C314.485 267.62 312.663 267.295 310.82 266.919L305.229 265.803L299.648 264.636L294.248 263.466C290.748 262.695 287.487 261.946 284.697 261.276C281.907 260.606 279.589 260.002 277.963 259.602C276.338 259.202 275.415 258.928 275.415 258.928C275.415 258.928 276.364 259.053 278.016 259.306C279.665 259.577 282.03 259.918 284.854 260.407C287.678 260.896 290.97 261.469 294.489 262.132L299.913 263.172L305.503 264.286L311.086 265.453C312.928 265.829 314.733 266.244 316.485 266.622C319.985 267.392 323.247 268.142 326.037 268.814C328.829 269.471 331.144 270.087 332.77 270.488C334.397 270.889 335.317 271.161 335.317 271.161C335.317 271.161 334.367 271.032 332.715 270.778L332.717 270.785ZM272.393 275.662C272.393 275.662 273.342 275.787 274.994 276.041C276.646 276.295 279.008 276.65 281.832 277.14C284.656 277.63 287.948 278.204 291.468 278.867L296.891 279.906L302.482 281.019L308.064 282.186C309.906 282.562 311.711 282.977 313.463 283.355C316.963 284.126 320.225 284.876 323.015 285.547C325.804 286.218 328.123 286.821 329.748 287.22C331.373 287.635 332.295 287.895 332.295 287.895C332.295 287.895 331.347 287.771 329.695 287.517C328.042 287.263 325.681 286.91 322.857 286.417C320.033 285.924 316.74 285.355 313.222 284.691C311.463 284.352 309.642 284.027 307.798 283.652C305.955 283.277 304.08 282.91 302.207 282.536L296.626 281.369L291.226 280.199C287.726 279.428 284.465 278.678 281.675 278.007C278.886 277.336 276.567 276.734 274.941 276.334C273.316 275.913 272.39 275.655 272.39 275.655L272.393 275.662ZM245.634 260.607C245.68 260.309 245.712 260.008 245.73 259.707L248.348 260.259C258.699 262.444 267.307 264.36 273.342 265.655L282.813 267.742L273.288 265.951C267.232 264.777 258.57 263.165 248.194 261.117L245.634 260.607ZM71.2204 224.686L61.7488 222.598L71.274 224.39C77.0158 225.502 85.1038 227.013 94.7706 228.912C94.6934 229.182 94.6328 229.457 94.5891 229.735C84.9586 227.687 76.9316 225.906 71.2176 224.679L71.2204 224.686ZM8.76727 221.835C8.76727 221.835 9.71501 221.959 11.3684 222.212C13.0179 222.483 15.3825 222.821 18.2066 223.312C21.0306 223.803 24.323 224.375 27.8419 225.039C29.6004 225.378 31.4217 225.703 33.2643 226.079L38.8561 227.194L44.4372 228.361L49.8368 229.532C53.3365 230.302 56.5984 231.051 59.3881 231.722C62.1777 232.393 64.4962 232.996 66.1218 233.396C67.7465 233.811 68.6697 234.069 68.6697 234.069C68.6697 234.069 67.7219 233.945 66.0695 233.69C64.4171 233.435 62.0554 233.081 59.2313 232.59C56.4072 232.099 53.1149 231.528 49.5951 230.864L44.1726 229.825L38.5808 228.711L32.9997 227.545C31.1562 227.168 29.3515 226.753 27.5997 226.376C24.1 225.605 20.8385 224.855 18.0489 224.184C15.2592 223.513 12.9408 222.909 11.3142 222.509C9.68764 222.086 8.76307 221.829 8.76307 221.829L8.76727 221.835Z" fill="#020100"/>
<path d="M123.925 325.555L118.98 324.545L109.081 322.525C109.027 322.074 108.906 321.635 108.723 321.224C107.977 319.58 106.238 318.502 103.414 317.93C100.106 317.261 97.7457 317.785 96.3982 319.488C84.841 314.688 83.2162 302.722 30.1811 291.895C12.0612 288.195 6.47989 288.664 3.6434 304.347C0.806911 320.03 5.83476 322.668 23.9537 326.368C77.7859 337.359 82.8246 326.401 95.6385 326.825C95.8567 327.741 96.1255 328.643 96.4439 329.526C94.9071 340.117 94.7498 359.668 100.811 368.086C104.027 374.024 113.83 380.806 123.819 384.296C124.159 394.396 124.69 404.085 125.406 413.318C125.406 413.318 131.803 418.29 131.438 413.039C131.123 408.524 130.843 403.96 130.598 399.349C130.39 395.455 130.226 391.529 130.083 387.591C132.698 389.505 135.482 391.152 138.398 392.509C138.431 392.922 138.465 393.34 138.5 393.772C138.641 394.822 138.76 395.931 138.988 397.08C139.396 399.601 140.053 402.071 140.948 404.45C141.962 407.215 143.433 409.773 145.291 412.006C146.295 413.217 147.437 414.295 148.692 415.214C149.963 416.171 151.339 416.965 152.791 417.578C155.659 418.754 158.685 419.452 161.759 419.649C164.763 419.878 167.633 419.835 170.455 419.783C173.318 419.776 176.175 419.512 178.995 418.994C181.752 418.482 184.402 417.466 186.824 415.994C187.397 415.641 187.952 415.256 188.486 414.841C188.992 414.406 189.489 413.977 189.978 413.555C190.437 413.101 190.843 412.606 191.261 412.148C191.464 411.913 191.666 411.682 191.867 411.454C192.041 411.204 192.213 410.955 192.382 410.709L193.369 409.273C193.656 408.785 193.904 408.287 194.149 407.807C194.393 407.327 194.638 406.867 194.843 406.407L195.225 405.417C196.3 405.476 197.361 405.512 198.399 405.512C201.735 405.548 205.064 405.187 208.322 404.434C208.131 407.505 209.269 423.867 209.033 426.866L212.816 427.057C213.087 423.582 211.976 406.717 212.195 403.116C212.47 402.991 212.755 402.873 213.013 402.739C224.778 404.369 237.135 401.045 240.267 395.407C246.376 389.245 246.091 369.834 244.451 358.748L244.616 358.343C244.793 357.91 244.973 357.469 245.149 357.023C260.912 360.581 256.815 373.922 315.355 385.871C333.474 389.571 339.056 389.101 341.893 373.417C344.731 357.733 339.702 355.098 321.582 351.397C263.141 339.465 262.204 353.403 246.401 350.559C246.318 350.01 246.151 349.479 245.908 348.985C245.016 347.19 243.145 346.028 240.19 345.428C237.031 344.788 234.813 345.289 233.596 346.912C233.382 347.198 233.203 347.511 233.064 347.844L227.726 346.754L213.437 343.837L123.925 325.555ZM72.4158 309.722C72.4158 309.722 71.4681 309.597 69.8157 309.343C68.1633 309.089 65.8015 308.734 62.9784 308.243C60.1553 307.752 56.8619 307.181 53.3421 306.518C51.5837 306.181 49.7661 305.833 47.9197 305.478L42.3279 304.365L36.7459 303.198C34.9033 302.822 33.0981 302.406 31.3472 302.029C27.8465 301.258 24.5857 300.508 21.7903 299.837C18.9949 299.166 16.6827 298.563 15.0562 298.163C13.4315 297.748 12.5097 297.489 12.5097 297.489C12.5097 297.489 13.4574 297.613 15.1098 297.867C16.7622 298.121 19.124 298.474 21.9481 298.967C24.7721 299.46 28.0645 300.03 31.5843 300.694C33.3428 301.032 35.1642 301.359 37.0067 301.734L42.5976 302.848L48.1796 304.015L53.5792 305.186C57.0789 305.957 60.3408 306.706 63.1305 307.377C65.9202 308.048 68.2376 308.65 69.8642 309.05C71.4937 309.458 72.4168 309.716 72.4168 309.716L72.4158 309.722ZM238.663 394.265C237.775 395.679 236.531 396.81 235.069 397.532C229.5 399.716 219.532 396.118 214.294 396C213.212 395.98 212.131 396.077 211.068 396.29C211.233 395.826 211.351 395.345 211.422 394.856C211.468 394.602 211.492 394.344 211.496 394.086C211.514 393.859 211.514 393.631 211.496 393.404C211.485 393.071 211.443 392.739 211.369 392.414L211.299 392.051C211.299 392.051 211.28 392.185 211.245 392.418C211.21 392.734 211.143 393.046 211.047 393.348C210.996 393.548 210.928 393.744 210.843 393.932C210.765 394.145 210.67 394.35 210.557 394.545C210.334 394.969 210.066 395.365 209.758 395.726C209.371 396.186 208.934 396.596 208.456 396.948C205.335 397.881 202.157 399.153 197.561 399.073C194.676 398.968 191.813 398.497 189.035 397.673C189.116 397.213 189.204 396.682 189.296 396.082C189.591 394.154 189.903 391.576 190.048 388.988C190.111 387.693 190.144 386.398 190.129 385.189C190.107 384.582 190.111 383.999 190.069 383.443C190.027 382.887 190.004 382.366 189.956 381.885L189.803 380.577C189.778 380.341 189.74 380.133 189.707 379.936C195.707 380.571 203.435 381.569 209.285 385.235L209.607 385.436L209.973 385.353C215.28 384.153 222.13 383.08 228.473 385.135C229.084 385.747 229.858 386.576 230.583 387.467C231.276 388.314 231.905 389.217 232.464 390.167C232.685 390.567 232.868 390.9 232.974 391.147L233.155 391.532L233.092 391.107C233.06 390.833 232.982 390.45 232.881 389.984C232.607 388.849 232.25 387.739 231.813 386.662C231.538 385.978 231.24 385.315 230.948 384.707C231.652 383.485 234.866 377.614 235.222 371.459C235.5 366.674 235.662 361.117 235.736 358.145C236.437 358.004 237.146 357.909 237.859 357.859C239.519 357.73 241.225 357.746 241.225 357.746C241.225 357.746 239.695 356.981 238.07 356.339C237.36 356.054 236.634 355.811 235.897 355.611L235.911 355.566L235.766 355.211C234.455 352.022 234.212 349.4 235.114 348.199C236.032 346.973 238.191 347.115 239.842 347.449C242.152 347.916 243.625 348.758 244.218 349.949C245.173 351.875 243.946 354.879 242.862 357.532L242.473 358.49L242.518 358.785C244.583 372.358 243.783 389.248 238.868 394.011L238.751 394.124L238.663 394.265ZM233.464 354.628C233.585 354.984 233.713 355.328 233.846 355.666C231.581 363.318 230.205 372.42 229.197 379.093C228.986 380.493 228.792 381.777 228.607 382.925L228.524 383.002C223.294 381.437 217.853 381.802 213.138 382.621C213.4 374.258 213.533 365.634 213.535 356.751C213.535 354.666 213.525 352.606 213.511 350.551L226.562 353.215L233.464 354.628ZM144.281 336.419C143.066 344.373 142.234 352.386 141.788 360.428C141.681 362.121 141.597 363.754 141.535 365.337C137.956 365.218 134.375 365.538 130.867 366.292C130.434 366.021 130.014 365.782 129.586 365.527C129.535 361.65 129.491 357.769 129.525 353.927C129.574 348.865 129.538 343.798 129.657 338.817C129.699 337.023 129.74 335.24 129.782 333.457L140.622 335.67C140.596 336.508 140.59 336.97 140.59 336.97C140.59 336.97 140.73 336.532 140.964 335.737L144.281 336.419ZM178.84 375.152C177.967 377.579 175.113 382.08 166.284 378.901C158.082 375.947 157.004 366.771 157.097 361.512C157.331 361.11 157.594 360.727 157.884 360.367C158.129 360.05 158.393 359.749 158.674 359.467C158.99 359.155 159.325 358.867 159.679 358.603C160.057 358.316 160.461 358.067 160.884 357.859C161.322 357.632 161.779 357.445 162.248 357.301C162.726 357.16 163.221 357.089 163.711 356.994C164.207 356.981 164.704 356.935 165.188 356.946L166.59 357.092C167.031 357.179 167.45 357.298 167.832 357.393C168.192 357.464 168.544 357.57 168.884 357.711L169.679 358.018C170.124 358.19 170.378 358.286 170.378 358.286L169.739 357.886L168.999 357.426C168.683 357.217 168.348 357.04 168 356.896C167.618 356.726 167.217 356.52 166.771 356.339L165.321 355.894C164.807 355.78 164.258 355.718 163.696 355.628C163.121 355.603 162.545 355.61 161.97 355.647C161.386 355.705 160.809 355.818 160.244 355.983C159.719 356.123 159.207 356.313 158.715 356.551C159.085 356.193 159.475 355.86 159.883 355.551C160.768 354.824 161.788 354.297 162.878 354.003C163.968 353.709 165.104 353.653 166.215 353.84C171.814 354.973 177.947 363.34 179.117 371.424C179.114 372.67 179.022 373.915 178.841 375.147L178.84 375.152ZM107.292 328.867L117.811 331.014L123.708 332.214C123.485 340.126 123.371 348.304 123.366 356.746C123.366 358.597 123.372 360.436 123.386 362.265C120.039 360.706 116.48 359.708 112.837 359.307C112.646 358.189 112.435 356.948 112.209 355.608C110.988 348.344 109.322 338.437 106.931 329.591L107.006 329.443L107.292 328.867ZM195.927 346.967L209.735 349.786C209.752 352.086 209.765 354.397 209.765 356.754C209.765 365.61 209.626 374.361 209.348 382.936C205.556 380.918 201.477 379.554 197.269 378.898C197.541 372.743 197.464 366.576 197.037 360.431C196.729 355.506 196.358 351.033 195.928 346.958L195.927 346.967ZM193.082 405.259L193.046 405.32C192.79 405.706 192.492 406.076 192.208 406.466C191.924 406.856 191.641 407.266 191.333 407.658C190.998 408.024 190.656 408.4 190.306 408.784L189.783 409.362L189.186 409.873C188.78 410.208 188.391 410.574 187.961 410.9L186.604 411.804C186.13 412.094 185.64 412.357 185.138 412.591C182.983 413.598 180.691 414.244 178.344 414.506C175.72 414.787 173.081 414.888 170.444 414.806C167.658 414.745 164.819 414.763 162.129 414.527C159.525 414.375 156.954 413.839 154.492 412.935C152.203 412.05 150.123 410.661 148.391 408.861C146.715 407.091 145.317 405.053 144.25 402.824C143.22 400.743 142.358 398.576 141.67 396.345C141.378 395.414 141.121 394.51 140.883 393.632C141.88 394.055 142.896 394.466 143.941 394.853C148.826 411.577 159.841 411.659 169.403 411.659C176.45 411.659 184.286 411.61 189.876 404.888C190.957 405.035 192.026 405.156 193.083 405.25L193.082 405.259ZM97.8602 320.827C98.7203 319.727 100.465 319.427 103.053 319.952C105.207 320.388 106.531 321.118 106.985 322.122C107.688 323.672 106.474 326.122 105.3 328.496L104.864 329.381L104.973 329.781C107.173 338.415 108.955 347.16 110.312 355.982C110.524 357.248 110.723 358.423 110.908 359.495C110.46 359.983 110.053 360.509 109.691 361.068C109.284 361.692 108.962 362.372 108.735 363.089C108.664 363.318 108.609 363.552 108.572 363.789C108.545 363.956 108.53 364.052 108.53 364.052L108.686 363.843C108.818 363.663 108.963 363.494 109.12 363.337C109.58 362.882 110.1 362.499 110.664 362.199C111.211 361.908 111.783 361.671 112.372 361.494C112.521 361.451 112.644 361.419 112.755 361.395C117.875 361.895 123.734 364.188 130.203 368.266L130.524 368.466L130.89 368.384C134.064 367.684 140.276 366.698 146.219 367.977L146.398 368.014L146.578 367.981C148.536 367.565 150.526 367.343 152.523 367.318C152.502 367.452 152.479 367.578 152.46 367.717C152.244 369.061 152.13 370.422 152.121 371.785C152.088 373.432 152.243 375.077 152.581 376.686C152.952 378.536 153.63 380.303 154.583 381.908C155.624 383.647 156.992 385.146 158.605 386.314C160.262 387.476 162.103 388.322 164.043 388.814C164.522 388.942 165.007 389.044 165.495 389.12C165.754 389.155 165.949 389.192 166.26 389.22L166.952 389.279C167.978 389.343 169.008 389.277 170.019 389.085C171.907 388.73 173.688 387.912 175.216 386.699C176.744 385.486 177.976 383.913 178.811 382.106C179.523 380.593 179.979 378.962 180.157 377.286C180.321 375.912 180.331 374.523 180.187 373.146C180.169 372.925 180.144 372.716 180.119 372.507C181.562 373.471 182.826 374.699 183.85 376.134C184.821 377.47 185.986 378.639 187.302 379.599L187.484 379.713L188.46 379.814L189.518 379.924C189.527 380.13 189.536 380.352 189.527 380.604C189.518 380.991 189.507 381.427 189.496 381.903C189.484 382.379 189.427 382.894 189.39 383.436C189.352 383.978 189.268 384.547 189.205 385.135C189.057 386.311 188.844 387.555 188.605 388.791C188.11 391.263 187.458 393.692 186.914 395.484C186.729 396.096 186.561 396.624 186.416 397.062C182.944 396.317 179.406 395.962 175.863 396.004C164.299 396.004 149.844 386.274 144.664 385.504C143.814 385.364 142.987 385.095 142.211 384.704C143.066 383.053 143.821 381.346 144.472 379.596C144.881 378.484 145.229 377.349 145.515 376.196C145.629 375.638 145.738 375.096 145.842 374.588C145.905 374.069 145.964 373.58 146.019 373.128C146.047 372.674 146.047 372.256 146.06 371.89C146.069 371.573 146.054 371.256 146.015 370.942C145.969 370.422 145.943 370.124 145.943 370.124L145.891 370.943C145.883 371.253 145.851 371.563 145.795 371.868C145.728 372.222 145.668 372.623 145.574 373.051C145.457 373.472 145.329 373.929 145.192 374.411C145.02 374.881 144.837 375.374 144.649 375.885C144.211 376.93 143.717 377.949 143.17 378.936C142.273 380.535 141.277 382.071 140.189 383.535C137.213 381.552 134.048 378.636 129.39 377.062C129.485 376.923 129.587 376.785 129.676 376.638C129.916 376.234 130.107 375.801 130.244 375.348C130.308 375.145 130.354 374.936 130.381 374.724C130.413 374.54 130.428 374.353 130.427 374.166C130.438 373.895 130.416 373.623 130.36 373.358C130.326 373.173 130.308 373.067 130.308 373.067L130.235 373.354C130.182 373.597 130.099 373.832 129.988 374.053C129.923 374.199 129.844 374.338 129.754 374.468C129.663 374.614 129.559 374.751 129.442 374.875C129.203 375.142 128.931 375.376 128.634 375.569C128.076 375.913 127.471 376.164 126.84 376.311L126.721 376.334C118.242 374.514 108.239 370.82 104.914 362.087C102.238 355.069 99.4179 338.507 98.3609 331.927C98.4278 331.864 98.497 331.8 98.5811 331.728C99.1093 331.278 99.6793 330.884 100.283 330.555C100.914 330.208 101.576 329.928 102.259 329.716C102.828 329.534 103.227 329.453 103.227 329.453C103.227 329.453 102.839 329.341 102.234 329.235C101.478 329.1 100.712 329.042 99.9456 329.061C99.423 329.075 98.9019 329.123 98.3851 329.206L98.3268 329.049C96.9258 325.229 96.7554 322.233 97.8611 320.818L97.8602 320.827ZM232.708 349.17C232.653 349.545 232.627 349.924 232.631 350.304C226.548 349.113 220.127 347.847 213.479 346.504L172.874 338.317L132.304 329.929C124.06 328.229 116.18 326.551 108.866 324.996C108.955 324.658 109.023 324.314 109.069 323.966C116.4 325.402 124.297 326.947 132.542 328.612L173.148 336.798L213.717 345.186C220.314 346.537 226.678 347.88 232.707 349.161L232.708 349.17ZM333.446 363.17C331.796 362.901 329.432 362.562 326.608 362.07C323.784 361.578 320.491 361.008 316.971 360.344C315.214 360.005 313.392 359.68 311.549 359.304L305.958 358.191L300.376 357.024L294.978 355.852C291.477 355.081 288.216 354.33 285.421 353.66C282.625 352.99 280.313 352.387 278.686 351.987C277.062 351.572 276.14 351.316 276.14 351.316C276.14 351.316 277.088 351.439 278.74 351.693C280.392 351.947 282.754 352.302 285.578 352.793C288.402 353.284 291.694 353.857 295.213 354.519C296.972 354.857 298.79 355.205 300.637 355.557L306.228 356.672L311.81 357.838C313.652 358.214 315.458 358.63 317.209 359.007C320.709 359.778 323.97 360.528 326.765 361.199C329.561 361.87 331.873 362.473 333.499 362.873C335.124 363.288 336.046 363.547 336.046 363.547C336.046 363.547 335.097 363.418 333.445 363.164L333.446 363.17ZM273.123 368.048C273.123 368.048 274.071 368.172 275.723 368.426C277.373 368.696 279.737 369.036 282.561 369.526C285.385 370.016 288.677 370.589 292.196 371.251L297.62 372.291L303.211 373.405C305.081 373.796 306.951 374.185 308.793 374.571C310.635 374.957 312.441 375.363 314.193 375.74C317.692 376.51 320.954 377.261 323.743 377.931C326.533 378.601 328.852 379.207 330.478 379.607C332.102 380.022 333.025 380.28 333.025 380.28C333.025 380.28 332.076 380.156 330.424 379.902C328.774 379.632 326.41 379.294 323.586 378.802C320.762 378.31 317.47 377.74 313.951 377.076C312.192 376.737 310.37 376.412 308.527 376.036L302.936 374.921L297.354 373.754L291.956 372.583C288.455 371.813 285.194 371.063 282.399 370.391C279.603 369.719 277.291 369.119 275.666 368.718C274.04 368.317 273.122 368.042 273.122 368.042L273.123 368.048ZM246.363 352.992C246.412 352.692 246.443 352.392 246.459 352.092L249.077 352.646C259.427 354.83 268.037 356.745 274.07 358.039L283.542 360.126L274.016 358.335C267.961 357.162 259.299 355.55 248.923 353.502L246.363 352.992ZM71.9496 317.072L62.4777 314.985L72.0033 316.778C77.7451 317.889 85.8331 319.399 95.4999 321.298C95.4224 321.568 95.3618 321.842 95.3183 322.12C85.6888 320.073 77.6619 318.294 71.9468 317.067L71.9496 317.072ZM9.49608 314.22C9.49608 314.22 10.4443 314.344 12.0976 314.598C13.7471 314.868 16.1113 315.206 18.9354 315.698C21.7595 316.19 25.0518 316.76 28.5707 317.423C30.3292 317.762 32.151 318.088 33.9936 318.464L39.5849 319.578L45.1665 320.746L50.5661 321.916C54.0658 322.687 57.3268 323.438 60.1174 324.109C62.908 324.78 65.2245 325.381 66.8511 325.781C68.4757 326.196 69.398 326.454 69.398 326.454C69.398 326.454 68.4498 326.33 66.7983 326.076C65.1479 325.805 62.7846 325.466 59.9606 324.977C57.1365 324.488 53.8441 323.914 50.3243 323.251L44.9014 322.212L39.3101 321.098L33.7285 319.931C31.885 319.555 30.0808 319.139 28.329 318.762C24.8283 317.992 21.5675 317.242 18.7721 316.571C15.9767 315.9 13.6649 315.297 12.0384 314.897C10.4175 314.475 9.49328 314.215 9.49328 314.215L9.49608 314.22Z" fill="#020100"/>
<path d="M235.964 203.749C235.075 205.162 233.831 206.292 232.369 207.013C226.799 209.199 216.833 205.602 211.595 205.484C210.513 205.464 209.432 205.561 208.369 205.774C208.533 205.31 208.651 204.828 208.721 204.339C208.768 204.085 208.793 203.828 208.795 203.57C208.813 203.343 208.813 203.114 208.795 202.886C208.784 202.553 208.742 202.223 208.669 201.898L208.598 201.535C208.598 201.535 208.579 201.669 208.545 201.902C208.509 202.218 208.442 202.53 208.346 202.832C208.295 203.032 208.226 203.228 208.142 203.416C208.065 203.629 207.969 203.834 207.856 204.029C207.633 204.453 207.365 204.848 207.057 205.209C206.671 205.669 206.234 206.079 205.755 206.43C202.635 207.364 199.456 208.635 194.86 208.555C191.974 208.45 189.111 207.981 186.334 207.156C186.415 206.697 186.504 206.166 186.595 205.566C186.89 203.637 187.201 201.058 187.347 198.47C187.411 197.175 187.442 195.881 187.428 194.671C187.406 194.064 187.411 193.481 187.369 192.925C187.327 192.369 187.303 191.848 187.256 191.368C187.208 190.888 187.148 190.449 187.102 190.059C187.077 189.824 187.039 189.615 187.007 189.418C193.005 190.052 200.734 191.051 206.584 194.718L206.907 194.918L207.273 194.835C212.579 193.635 219.429 192.562 225.773 194.618C226.384 195.23 227.158 196.058 227.881 196.95C228.575 197.797 229.204 198.7 229.763 199.65C229.984 200.05 230.166 200.382 230.273 200.629L230.454 201.013L230.392 200.589C230.359 200.315 230.281 199.931 230.181 199.466C229.906 198.331 229.548 197.221 229.111 196.144C228.837 195.461 228.538 194.798 228.251 194.19C228.954 192.968 232.169 187.096 232.525 180.942C232.803 176.157 232.965 170.598 233.039 167.627C233.741 167.486 234.449 167.391 235.162 167.342C236.822 167.213 238.527 167.228 238.527 167.228C238.527 167.228 236.999 166.464 235.374 165.822C234.663 165.536 233.938 165.293 233.201 165.094L233.214 165.048L233.069 164.694C231.758 161.505 231.514 158.882 232.417 157.68C233.335 156.455 235.494 156.596 237.146 156.93C239.456 157.398 240.928 158.24 241.521 159.43C242.477 161.357 241.25 164.361 240.165 167.013L239.776 167.971L239.821 168.267C241.886 181.841 241.086 198.731 236.171 203.494L236.054 203.607L235.964 203.749Z" fill="white"/>
<path d="M176.14 184.636C175.266 187.064 172.413 191.565 163.584 188.385C155.382 185.431 154.304 176.256 154.396 170.996C154.632 170.595 154.895 170.212 155.184 169.851C155.429 169.534 155.693 169.233 155.974 168.951C156.29 168.639 156.625 168.349 156.979 168.085C157.357 167.798 157.76 167.549 158.184 167.342C158.622 167.114 159.079 166.928 159.549 166.785C160.026 166.644 160.521 166.573 161.011 166.478C161.507 166.464 162.004 166.417 162.488 166.429L163.889 166.576C164.332 166.663 164.749 166.781 165.131 166.876C165.491 166.947 165.843 167.054 166.183 167.195L166.979 167.501L167.677 167.77L167.038 167.37L166.299 166.91C165.982 166.701 165.648 166.523 165.3 166.379C164.918 166.209 164.515 166.004 164.071 165.823L162.62 165.377C162.105 165.262 161.557 165.202 160.995 165.112C160.422 165.088 159.848 165.093 159.275 165.13C158.691 165.188 158.114 165.3 157.549 165.465C157.024 165.606 156.512 165.797 156.02 166.035C156.389 165.677 156.779 165.343 157.187 165.035C158.073 164.309 159.093 163.782 160.183 163.487C161.273 163.193 162.409 163.137 163.52 163.324C169.12 164.457 175.252 172.824 176.422 180.908C176.418 182.156 176.323 183.402 176.14 184.636V184.636Z" fill="white"/>
<path d="M95.1599 130.309C96.02 129.209 97.7657 128.909 100.352 129.434C102.507 129.87 103.83 130.599 104.286 131.604C104.988 133.154 103.774 135.604 102.6 137.978L102.164 138.862L102.273 139.261C104.473 147.895 106.255 156.64 107.611 165.461C107.825 166.726 108.022 167.903 108.208 168.974C107.76 169.462 107.353 169.988 106.991 170.548C106.585 171.172 106.263 171.853 106.036 172.57C105.965 172.798 105.911 173.033 105.874 173.27C105.846 173.438 105.83 173.534 105.83 173.534L105.987 173.325C106.118 173.144 106.264 172.975 106.421 172.819C106.882 172.364 107.402 171.98 107.966 171.679C108.512 171.387 109.084 171.151 109.674 170.974C109.821 170.93 109.945 170.899 110.056 170.874C115.176 171.374 121.034 173.668 127.503 177.746L127.825 177.947L128.191 177.865C131.365 177.165 137.577 176.176 143.52 177.456L143.699 177.495L143.88 177.46C145.837 177.044 147.827 176.822 149.823 176.797C149.802 176.93 149.779 177.058 149.761 177.198C149.544 178.542 149.431 179.901 149.421 181.264C149.39 182.911 149.544 184.556 149.882 186.164C150.253 188.014 150.931 189.782 151.884 191.387C152.925 193.124 154.294 194.622 155.906 195.788C157.564 196.95 159.405 197.797 161.344 198.288C161.822 198.415 162.309 198.517 162.796 198.594C163.056 198.629 163.249 198.667 163.56 198.695L164.253 198.753C165.279 198.815 166.308 198.747 167.319 198.553C169.207 198.199 170.988 197.381 172.516 196.168C174.044 194.955 175.277 193.381 176.112 191.575C176.823 190.062 177.278 188.43 177.457 186.754C177.621 185.38 177.631 183.991 177.487 182.615C177.47 182.394 177.444 182.186 177.419 181.977C178.862 182.941 180.126 184.169 181.151 185.604C182.121 186.94 183.285 188.109 184.601 189.069L184.783 189.182L185.76 189.283L186.818 189.394C186.827 189.6 186.836 189.821 186.827 190.073C186.818 190.46 186.807 190.896 186.796 191.372C186.785 191.848 186.726 192.363 186.69 192.905C186.654 193.447 186.568 194.017 186.506 194.605C186.357 195.78 186.144 197.024 185.905 198.259C185.41 200.732 184.759 203.16 184.215 204.953C184.03 205.565 183.861 206.092 183.716 206.531C180.244 205.786 176.706 205.431 173.163 205.473C161.599 205.473 147.144 195.743 141.964 194.973C141.114 194.834 140.287 194.564 139.511 194.173C140.366 192.522 141.122 190.817 141.772 189.067C142.18 187.955 142.529 186.819 142.815 185.666C142.928 185.108 143.038 184.567 143.142 184.059C143.204 183.54 143.265 183.049 143.319 182.597C143.348 182.144 143.348 181.727 143.36 181.361C143.369 181.044 143.354 180.726 143.315 180.412C143.269 179.891 143.243 179.593 143.243 179.593C143.243 179.593 143.224 179.894 143.191 180.413C143.183 180.723 143.151 181.033 143.095 181.338C143.027 181.692 142.967 182.093 142.874 182.522C142.756 182.943 142.629 183.399 142.492 183.881C142.32 184.348 142.138 184.84 141.949 185.356C141.511 186.401 141.017 187.419 140.47 188.406C139.573 190.005 138.577 191.542 137.488 193.005C134.512 191.023 131.348 188.106 126.689 186.533C126.784 186.394 126.888 186.257 126.976 186.11C127.216 185.706 127.406 185.273 127.542 184.82C127.606 184.617 127.652 184.408 127.679 184.196C127.712 184.011 127.728 183.824 127.726 183.636C127.737 183.365 127.714 183.094 127.658 182.829C127.626 182.644 127.606 182.538 127.606 182.538L127.534 182.825C127.481 183.068 127.398 183.304 127.286 183.525C127.221 183.671 127.143 183.81 127.053 183.94C126.962 184.086 126.858 184.221 126.742 184.345C126.502 184.614 126.23 184.849 125.933 185.045C125.375 185.389 124.77 185.639 124.139 185.787C124.095 185.796 124.061 185.802 124.021 185.811C115.541 183.991 105.539 180.297 102.212 171.564C99.5359 164.546 96.7176 147.984 95.6606 141.404C95.7265 141.341 95.7953 141.276 95.8794 141.204C96.4076 140.753 96.978 140.361 97.5822 140.032C98.213 139.685 98.875 139.404 99.558 139.193C100.131 139.01 100.526 138.928 100.526 138.928C100.526 138.928 100.138 138.817 99.5319 138.711C98.7764 138.576 98.0102 138.517 97.2439 138.537C96.7216 138.551 96.2008 138.599 95.6844 138.682L95.6261 138.527C94.2279 134.72 94.0589 131.724 95.1599 130.309Z" fill="white"/>
</svg>
