<svg width="370" height="341" viewBox="0 0 370 341" fill="none" xmlns="http://www.w3.org/2000/svg">
<path d="M340.104 73.5117C340.225 70.5297 340.277 67.4279 340.204 64.3359C340.275 67.4279 340.223 70.5287 340.104 73.5117Z" fill="#F47C5D"/>
<path d="M338.911 89.9043C338.67 92.5003 338.404 95.0917 338.111 97.6797C338.406 95.091 338.672 92.4996 338.911 89.9043Z" fill="#F47C5D"/>
<path d="M339.188 52.9521C338.845 50.8727 338.351 48.8213 337.71 46.8135C337.538 46.1798 337.251 45.5825 336.863 45.0527C337.251 45.5825 337.538 46.1798 337.71 46.8135C338.351 48.8213 338.845 50.8727 339.188 52.9521Z" fill="#F47C5D"/>
<path d="M279.479 158.033C277.942 157.967 276.406 157.867 274.873 157.733C276.405 157.864 277.94 157.964 279.479 158.033Z" fill="#F47C5D"/>
<path d="M336.863 45.0537C336.71 44.855 336.496 44.7128 336.253 44.6475C336.496 44.7128 336.71 44.855 336.863 45.0537Z" fill="#F47C5D"/>
<path d="M336.253 44.6468C336.088 44.6115 335.916 44.6172 335.753 44.6643C335.916 44.6172 336.088 44.6115 336.253 44.6468Z" fill="#F47C5D"/>
<path d="M173.004 111.915C194.327 115.167 214.98 121.658 236.162 125.647C255.644 129.316 278.125 133.346 295.982 121.886C302.482 117.716 307.012 112.909 311.54 106.768C314.402 102.687 316.779 98.2856 318.623 93.6544C323.355 82.5983 326.648 70.9805 328.423 59.0861C328.916 55.6701 329.352 52.2544 329.732 48.839C321.961 53.032 313.89 52.1795 305.726 50.4015C286.982 46.3165 268.447 41.6082 250.587 34.3312C235.154 28.0442 218.402 26.8645 202.269 23.2775C199.258 22.6075 195.98 23.0242 192.831 23.1232C188.211 23.2692 184.949 25.2809 183.291 29.8859C181.691 34.3309 179.641 38.6155 177.83 42.9865C168.406 65.7365 159.79 88.8249 149.409 111.176C157.281 110.737 165.176 110.985 173.004 111.915Z" fill="#FD2415"/>
<path d="M318.812 93.209C318.749 93.358 318.685 93.5093 318.621 93.6543C318.421 94.1333 318.221 94.6128 318.021 95.0918C318.284 94.4645 318.548 93.837 318.812 93.209Z" fill="#F47C5D"/>
<path d="M339.782 57.3955C340.011 59.6665 340.141 61.995 340.199 64.335C340.141 61.998 340.011 59.6665 339.782 57.3955Z" fill="#F47C5D"/>
<path d="M334.804 45.1768C334.943 45.0768 335.076 44.9872 335.204 44.9102C335.074 44.9872 334.941 45.0758 334.804 45.1768Z" fill="#F47C5D"/>
<path d="M334.142 45.6982C334.298 45.5692 334.447 45.4479 334.591 45.3359C334.447 45.4479 334.298 45.5692 334.142 45.6982Z" fill="#F47C5D"/>
<path d="M329.734 48.8389C330.134 48.6219 330.534 48.4032 330.934 48.1592C330.536 48.4032 330.135 48.6219 329.734 48.8389Z" fill="#F47C5D"/>
<path d="M338.911 89.9043C339.153 87.3096 339.375 84.7098 339.576 82.1045C339.776 79.5045 339.976 76.6575 340.094 73.6895C339.971 76.6575 339.779 79.5045 339.576 82.1045C339.373 84.7045 339.153 87.3093 338.911 89.9043Z" fill="#F47C5D"/>
<path d="M128.124 132.37C128.772 132.498 129.43 132.566 130.09 132.57C129.43 132.566 128.772 132.498 128.124 132.37Z" fill="#FAF2CF"/>
<path d="M125.445 132.18C130.445 121.705 166.545 37.768 175.584 16.398C175.812 15.8587 176.04 15.3192 176.267 14.7798C176.062 15.2658 175.831 15.815 175.584 16.398L173.952 20.2642C175.416 16.5782 177.154 13.0076 179.152 9.58159C179.44 9.30959 179.735 9.04255 180.052 8.79155C180.793 8.189 181.462 7.5032 182.046 6.74761C178.739 5.21861 176.066 6.19841 173.635 10.0474C171.978 12.7236 170.546 15.5338 169.355 18.4478C164.486 30.0648 151.609 59.2749 150.331 62.4839C144.108 78.1049 137.509 93.575 131.063 109.107C127.684 117.248 124.346 125.407 120.911 133.744C122.274 132.866 123.83 132.329 125.444 132.18H125.445Z" fill="#FAF2CF"/>
<path d="M133.758 131.404C134.135 131.107 134.479 130.77 134.781 130.397C134.479 130.77 134.135 131.107 133.758 131.404Z" fill="#FAF2CF"/>
<path d="M182.047 6.74805C182.299 6.86405 182.553 6.99072 182.813 7.13672C182.554 6.99172 182.304 6.86405 182.047 6.74805Z" fill="#FAF2CF"/>
<path d="M176.716 32.8633C172.964 41.9753 169.484 51.2015 165.716 60.3105C169.484 51.2015 172.964 41.9753 176.716 32.8633Z" fill="#FAF2CF"/>
<path d="M181.254 22.2871C180.203 24.6204 179.182 26.9647 178.191 29.3193C179.185 26.9647 180.206 24.6204 181.254 22.2871Z" fill="#FAF2CF"/>
<path d="M185.514 12.5439C185.439 12.9229 185.339 13.2966 185.214 13.6621C185.339 13.2966 185.439 12.9229 185.514 12.5439Z" fill="#FAF2CF"/>
<path d="M185.627 11.4463C185.622 11.8156 185.584 12.1833 185.514 12.5459C185.584 12.1833 185.622 11.8156 185.627 11.4463Z" fill="#FAF2CF"/>
<path d="M131.011 132.518C130.722 132.553 130.431 132.571 130.14 132.572C130.431 132.571 130.722 132.553 131.011 132.518Z" fill="#FAF2CF"/>
<path d="M127.52 132.271C127.488 132.265 127.456 132.259 127.42 132.255L127.52 132.271Z" fill="#FAF2CF"/>
<path d="M136.031 128.462C135.792 128.925 135.524 129.372 135.231 129.803C135.524 129.372 135.792 128.925 136.031 128.462Z" fill="#FAF2CF"/>
<path d="M133.169 131.804C132.507 132.188 131.772 132.432 131.011 132.519C131.772 132.432 132.507 132.188 133.169 131.804Z" fill="#FAF2CF"/>
<path d="M145.133 107.229C143.795 110.362 142.461 113.497 141.133 116.635C142.462 113.497 143.795 110.363 145.133 107.229Z" fill="#FAF2CF"/>
<path d="M88.6133 213.247C88.4363 213.157 88.263 213.068 88.104 212.977C88.263 213.068 88.4363 213.157 88.6133 213.247Z" fill="#FAF2CF"/>
<path d="M114.555 180.609C114.537 180.665 114.519 180.721 114.5 180.775C114.519 180.722 114.537 180.665 114.555 180.609Z" fill="#FAF2CF"/>
<path d="M114.404 181.025C114.388 181.065 114.372 181.108 114.354 181.146C114.369 181.108 114.385 181.065 114.404 181.025Z" fill="#FAF2CF"/>
<path d="M102.375 203.996C101.586 205.583 100.865 207.05 100.251 208.317C100.865 207.05 101.586 205.587 102.375 203.996Z" fill="#FAF2CF"/>
<path d="M103.86 201.025C103.517 201.707 103.184 202.373 102.86 203.025C103.184 202.375 103.517 201.709 103.86 201.025Z" fill="#FAF2CF"/>
<path d="M105.443 197.896C104.904 198.955 104.374 200.002 103.86 201.025C104.374 200.003 104.904 198.955 105.443 197.896Z" fill="#FAF2CF"/>
<path d="M115.01 178.495C114.998 178.586 114.984 178.673 114.97 178.761C114.984 178.673 114.998 178.587 115.01 178.495Z" fill="#FAF2CF"/>
<path d="M115.092 177.852C115.082 177.946 115.07 178.035 115.058 178.125C115.07 178.035 115.082 177.946 115.092 177.852Z" fill="#FAF2CF"/>
<path d="M114.69 180.152C114.672 180.218 114.655 180.287 114.637 180.353C114.655 180.288 114.672 180.219 114.69 180.152Z" fill="#FAF2CF"/>
<path d="M114.917 179.094C114.902 179.178 114.887 179.26 114.872 179.341C114.887 179.26 114.904 179.178 114.917 179.094Z" fill="#FAF2CF"/>
<path d="M115.162 177.161C115.154 177.253 115.144 177.34 115.136 177.429C115.144 177.34 115.154 177.253 115.162 177.161Z" fill="#FAF2CF"/>
<path d="M114.81 179.649C114.794 179.723 114.777 179.797 114.76 179.87C114.777 179.798 114.794 179.724 114.81 179.649Z" fill="#FAF2CF"/>
<path d="M86.063 210.76C86.0088 210.584 85.9697 210.405 85.9453 210.223C85.9696 210.405 86.0087 210.584 86.063 210.76Z" fill="#FAF2CF"/>
<path d="M88.7754 213.332C89.0134 213.448 89.2632 213.563 89.5312 213.678C90.2962 214.007 90.9802 214.289 91.5962 214.523C90.9802 214.29 90.2962 214.007 89.5312 213.678C89.2632 213.563 89.0124 213.448 88.7754 213.332Z" fill="#FAF2CF"/>
<path d="M93.9634 215.214C94.4252 215.325 94.9066 215.326 95.3691 215.219C95.8317 215.111 96.2629 214.897 96.6284 214.594C96.2629 214.897 95.8317 215.111 95.3691 215.219C94.9066 215.326 94.4252 215.325 93.9634 215.214Z" fill="#FAF2CF"/>
<path d="M96.6284 214.594C96.9518 214.313 97.2387 213.992 97.4824 213.64C97.2387 213.992 96.9518 214.313 96.6284 214.594Z" fill="#FAF2CF"/>
<path d="M87.9521 212.882C87.8011 212.79 87.652 212.698 87.519 212.604C87.654 212.698 87.8041 212.787 87.9521 212.882Z" fill="#FAF2CF"/>
<path d="M87.3575 204.799C86.2575 207.248 85.7744 208.939 85.9444 210.222C93.6784 192.467 103.007 175.489 112.149 158.431C112.849 157.117 113.541 155.797 114.236 154.481C114.086 153.053 113.924 151.616 113.75 150.174C106.287 161.731 101.525 176.785 95.8604 187.103C92.7144 192.832 90.0395 198.829 87.3575 204.799Z" fill="#FAF2CF"/>
<path d="M87.3984 212.511C87.2654 212.411 87.1394 212.311 87.0244 212.211C87.1394 212.31 87.2654 212.412 87.3984 212.511Z" fill="#FAF2CF"/>
<path d="M86.2671 211.251C86.192 211.107 86.1288 210.956 86.0781 210.802C86.1286 210.956 86.1918 211.107 86.2671 211.251Z" fill="#FAF2CF"/>
<path d="M86.9331 212.12C86.8221 212.014 86.7173 211.901 86.6191 211.782C86.7173 211.901 86.8221 212.014 86.9331 212.12Z" fill="#FAF2CF"/>
<path d="M86.5571 211.702C86.4634 211.58 86.3786 211.452 86.3032 211.317C86.3788 211.451 86.4636 211.58 86.5571 211.702Z" fill="#FAF2CF"/>
<path d="M115.345 172.657C115.345 172.825 115.345 172.991 115.345 173.157C115.343 172.987 115.344 172.825 115.345 172.657Z" fill="#FAF2CF"/>
<path d="M115.032 163.716C115.052 163.998 115.069 164.277 115.085 164.555C115.068 164.277 115.051 163.998 115.032 163.716Z" fill="#FAF2CF"/>
<path d="M114.955 162.58C114.976 162.871 114.996 163.161 115.015 163.447C114.996 163.16 114.976 162.871 114.955 162.58Z" fill="#FAF2CF"/>
<path d="M115.104 164.82C115.12 165.098 115.136 165.377 115.151 165.652C115.133 165.377 115.117 165.099 115.104 164.82Z" fill="#FAF2CF"/>
<path d="M115.16 165.879C115.175 166.165 115.19 166.45 115.203 166.733C115.19 166.45 115.175 166.165 115.16 165.879Z" fill="#FAF2CF"/>
<path d="M114.87 161.423C114.894 161.732 114.916 162.037 114.938 162.342C114.916 162.037 114.894 161.731 114.87 161.423Z" fill="#FAF2CF"/>
<path d="M115.204 166.81C115.248 167.743 115.282 168.646 115.304 169.52C115.282 168.645 115.249 167.742 115.204 166.81Z" fill="#FAF2CF"/>
<path d="M114.237 154.487C114.442 156.434 114.623 158.358 114.776 160.231C114.623 158.361 114.442 156.437 114.237 154.487Z" fill="#FAF2CF"/>
<path d="M114.777 160.251C114.805 160.588 114.831 160.922 114.857 161.251C114.831 160.922 114.804 160.587 114.777 160.251Z" fill="#FAF2CF"/>
<path d="M115.315 174.44C115.315 174.586 115.307 174.732 115.301 174.875C115.304 174.732 115.311 174.587 115.315 174.44Z" fill="#FAF2CF"/>
<path d="M115.236 176.179C115.23 176.27 115.225 176.362 115.219 176.45C115.225 176.361 115.23 176.269 115.236 176.179Z" fill="#FAF2CF"/>
<path d="M115.283 175.298C115.277 175.425 115.272 175.555 115.266 175.68C115.272 175.555 115.277 175.425 115.283 175.298Z" fill="#FAF2CF"/>
<path d="M115.313 169.749C115.319 169.966 115.323 170.18 115.327 170.394C115.323 170.18 115.319 169.966 115.313 169.749Z" fill="#FAF2CF"/>
<path d="M115.335 173.568C115.335 173.723 115.335 173.88 115.326 174.033C115.33 173.88 115.333 173.724 115.335 173.568Z" fill="#FAF2CF"/>
<path d="M115.334 170.747C115.334 170.947 115.339 171.135 115.341 171.327C115.339 171.135 115.337 170.943 115.334 170.747Z" fill="#FAF2CF"/>
<path d="M115.344 171.716C115.344 171.899 115.344 172.077 115.344 172.255C115.346 172.077 115.346 171.898 115.344 171.716Z" fill="#FAF2CF"/>
<path d="M73.8252 237.587C73.9718 237.546 74.1219 237.517 74.2734 237.501C74.1219 237.517 73.9718 237.546 73.8252 237.587Z" fill="#FAF2CF"/>
<path d="M61.166 269.787C63.998 261.432 66.786 253.058 69.833 244.787C66.786 253.057 63.998 261.43 61.166 269.787Z" fill="#FAF2CF"/>
<path d="M59.4434 276.293C59.5604 275.841 59.6764 275.356 59.7964 274.848C59.6764 275.356 59.5604 275.841 59.4434 276.293Z" fill="#FAF2CF"/>
<path d="M76.7261 237.795C76.9694 237.854 77.2264 237.919 77.4971 237.989C77.2257 237.921 76.9687 237.856 76.7261 237.795Z" fill="#FAF2CF"/>
<path d="M59.7964 274.848C59.9774 274.086 60.1663 273.273 60.3813 272.441C60.1663 273.272 59.9774 274.087 59.7964 274.848Z" fill="#FAF2CF"/>
<path d="M76.6943 237.787C75.9102 237.561 75.0944 237.465 74.2793 237.502C75.0944 237.465 75.9101 237.562 76.6943 237.787Z" fill="#FAF2CF"/>
<path d="M67.0654 280.898C67.2274 280.683 67.385 280.462 67.542 280.243C67.77 279.921 68 279.601 68.228 279.279C68 279.601 67.77 279.921 67.542 280.243C67.385 280.463 67.2274 280.687 67.0654 280.898Z" fill="#FAF2CF"/>
<path d="M77.564 238.007C77.835 238.079 78.1184 238.157 78.4194 238.24C78.1184 238.157 77.835 238.079 77.564 238.007Z" fill="#FAF2CF"/>
<path d="M81.3813 239.094C80.8193 238.918 80.1763 238.736 79.4463 238.53C79.1073 238.43 78.7884 238.343 78.4824 238.259C78.7884 238.344 79.1073 238.435 79.4463 238.53C80.1763 238.735 80.8193 238.918 81.3813 239.094Z" fill="#FAF2CF"/>
<path d="M70.4141 243.181C70.2141 243.711 70.029 244.245 69.834 244.781C71.2153 242.414 72.5459 240.018 73.8252 237.594C72.4262 237.987 71.7571 239.579 70.4141 243.181Z" fill="#FAF2CF"/>
<path d="M74.6431 268.082C74.1941 269.031 73.7354 269.977 73.2544 270.911C73.7354 269.976 74.1941 269.031 74.6431 268.082Z" fill="#FAF2CF"/>
<path d="M66.5674 281.521C66.4814 281.621 66.3942 281.716 66.3062 281.81C66.3942 281.717 66.4814 281.62 66.5674 281.521Z" fill="#FAF2CF"/>
<path d="M67.0654 280.898C66.9034 281.113 66.7384 281.323 66.5654 281.521C66.7384 281.323 66.9044 281.113 67.0654 280.898Z" fill="#FAF2CF"/>
<path d="M117.128 201.441C117.765 197.892 117.075 193.018 117.096 186.241C113.349 192.101 108.803 202.605 106.196 207.95C103.396 213.677 101.269 219.345 102.28 226.021C102.665 228.671 102.2 231.375 100.953 233.744C99.705 236.113 97.7391 238.026 95.3364 239.208C90.4484 241.789 88.858 245.386 87.981 250.531C92.301 250.462 94.5912 252.731 95.4082 256.431C97.0462 263.859 98.4402 271.255 99.3652 278.78C101.092 292.833 106.234 325.567 106.765 327.865C107.825 332.451 109.276 333.45 113.835 332.989C115.121 332.743 116.421 332.581 117.728 332.504C122.182 332.648 123.9 330.268 123.762 326.159C123.533 319.336 118.456 258.983 117.425 247.754C116.004 232.321 114.352 216.895 117.128 201.441Z" fill="white"/>
<path d="M268.009 156.976C270.286 157.283 272.574 157.536 274.873 157.735C276.406 157.865 277.942 157.964 279.479 158.034C280.249 158.068 281.019 158.095 281.789 158.113C286.439 158.235 291.091 157.992 295.703 157.388C297.251 157.179 298.799 156.923 300.346 156.619C301.484 156.395 302.595 156.14 303.679 155.854C305.783 155.304 307.846 154.611 309.856 153.781C310.831 153.375 311.78 152.942 312.7 152.481C313.621 152.019 314.514 151.525 315.38 150.999C317.092 149.967 318.719 148.801 320.246 147.512C321.379 146.555 322.453 145.532 323.462 144.446C323.796 144.084 324.125 143.714 324.451 143.337C329.199 137.589 332.449 130.755 333.912 123.445C334.103 122.591 334.288 121.736 334.467 120.881C335.005 118.318 335.494 115.749 335.933 113.175C336.227 111.459 336.503 109.743 336.76 108.025C337.276 104.585 337.726 101.139 338.112 97.6868C338.406 95.0981 338.673 92.5058 338.912 89.9104C339.151 87.3151 339.373 84.7153 339.577 82.1106C339.777 79.5106 339.977 76.6636 340.095 73.6956L340.103 73.513C340.224 70.531 340.276 67.4292 340.203 64.3372C340.145 61.9992 340.015 59.6677 339.786 57.3977C339.634 55.8827 339.438 54.3974 339.192 52.9544C338.849 50.8749 338.355 48.8235 337.714 46.8157C337.542 46.182 337.255 45.5847 336.867 45.055C336.714 44.8563 336.5 44.7141 336.257 44.6487C336.092 44.6134 335.92 44.6192 335.757 44.6663C335.564 44.7228 335.378 44.8057 335.207 44.9124C335.078 44.9884 334.945 45.078 334.807 45.179C334.738 45.23 334.668 45.2792 334.596 45.3382C334.452 45.4502 334.303 45.5715 334.147 45.7005C333.144 46.6032 332.073 47.4259 330.941 48.1614C330.541 48.4054 330.141 48.6241 329.741 48.8411C329.357 52.2571 328.921 55.6728 328.432 59.0882C326.657 70.9825 323.364 82.6004 318.632 93.6565C318.696 93.5085 318.76 93.3562 318.823 93.2112C318.557 93.8392 318.292 94.4667 318.029 95.094C318.234 94.615 318.429 94.1365 318.629 93.6575C316.785 98.2886 314.408 102.69 311.546 106.771C307.018 112.913 302.487 117.719 295.988 121.889C278.131 133.348 255.65 129.319 236.168 125.65C214.986 121.661 194.333 115.17 173.01 111.918C165.183 110.987 157.29 110.737 149.42 111.174C148.502 113.151 147.572 115.122 146.629 117.086C146.406 117.548 146.177 118.01 145.947 118.476C144.333 121.727 142.634 125.11 142.261 129.646C147.045 129.407 151.84 129.578 156.594 130.159C161.26 130.737 165.858 131.761 170.328 133.217C173.447 134.236 176.551 135.303 179.656 136.364C182.761 137.425 185.87 138.471 189 139.457C213.358 147.123 238.354 152.207 263.48 156.297C264.98 156.543 266.49 156.77 268.009 156.976Z" fill="#E8674D"/>
<path d="M131.838 137.443C121.623 137.343 118.594 141.062 118.323 144.443C118.068 147.618 121.7 188.785 122.851 193.151C122.979 193.794 123.259 194.396 123.668 194.907C124.077 195.419 124.603 195.823 125.201 196.089C130.35 198.318 137.249 194.047 138.001 188.346C139.383 177.881 137.135 137.494 131.838 137.443Z" fill="white"/>
<path d="M175.584 16.3975C175.831 15.8145 176.062 15.2653 176.267 14.7793C176.04 15.318 175.812 15.8575 175.584 16.3975Z" fill="#E5DBB3"/>
<path d="M88.0504 136.488C97.1964 129.781 100.193 121.033 100.436 110.233C101.114 98.7988 89.6684 68.5021 61.9074 78.3061C42.0074 85.3331 37.5874 100.779 43.1544 120.515C48.8814 140.811 71.0494 148.952 88.0504 136.488Z" fill="white"/>
<path d="M65.8139 288.305C54.6519 288.653 50.6994 283.688 54.1284 273.523C57.2344 264.323 60.4279 255.147 63.5219 245.939C67.4679 234.187 67.4413 234.174 55.9873 229.138C55.7823 229.048 55.473 229.198 54.771 229.298C53.681 235.298 52.3583 241.41 51.4843 247.587C48.3103 270.013 48.5553 292.687 46.8173 315.217C46.5759 319.154 46.5832 323.103 46.8393 327.039C47.1263 332.883 48.1453 334.239 54.9453 333.839C59.0783 333.592 61.845 331.964 62.497 327.887C63.651 320.636 68.2313 293.961 67.7763 288.801C67.1425 288.564 66.4841 288.398 65.8139 288.305Z" fill="white"/>
<path d="M85.9443 210.222C85.9686 210.404 86.0078 210.584 86.062 210.76L86.0771 210.802C86.1278 210.956 86.191 211.107 86.2661 211.251L86.3022 211.317C86.3776 211.452 86.4624 211.58 86.5562 211.702C86.5762 211.729 86.5972 211.755 86.6182 211.782C86.7163 211.901 86.8211 212.014 86.9321 212.12L87.0234 212.207C87.1384 212.307 87.264 212.407 87.397 212.507C87.438 212.537 87.4761 212.569 87.5181 212.599C87.6531 212.694 87.8002 212.787 87.9512 212.878C88.0022 212.909 88.051 212.941 88.103 212.972C88.262 213.064 88.4353 213.154 88.6123 213.243C88.6673 213.271 88.7124 213.3 88.7744 213.328C89.0114 213.444 89.2623 213.559 89.5303 213.674C90.2953 214.003 90.9792 214.286 91.5952 214.52C92.3596 214.827 93.1526 215.058 93.9624 215.21C94.4242 215.321 94.9056 215.322 95.3682 215.215C95.8308 215.107 96.2619 214.893 96.6274 214.59C96.9508 214.309 97.2372 213.988 97.481 213.636C98.169 212.598 98.767 211.504 99.2681 210.364C99.5521 209.764 99.882 209.075 100.25 208.314C100.864 207.046 101.585 205.58 102.374 203.993C102.531 203.675 102.692 203.353 102.855 203.027C103.181 202.374 103.514 201.707 103.855 201.027C104.369 200.005 104.899 198.956 105.438 197.897C106.694 195.426 107.992 192.905 109.229 190.544C109.582 189.87 109.93 189.211 110.271 188.567C110.441 188.246 110.61 187.928 110.771 187.618C111.436 186.372 112.065 185.209 112.64 184.17C113.215 183.131 113.734 182.215 114.179 181.463C114.239 181.361 114.293 181.256 114.341 181.148C114.359 181.11 114.375 181.067 114.391 181.027C114.425 180.946 114.459 180.865 114.491 180.777C114.51 180.723 114.528 180.667 114.546 180.611C114.574 180.527 114.601 180.443 114.628 180.351C114.646 180.289 114.663 180.22 114.681 180.15C114.705 180.059 114.729 179.964 114.751 179.868C114.768 179.796 114.785 179.722 114.801 179.647C114.822 179.547 114.843 179.447 114.863 179.338C114.878 179.257 114.893 179.175 114.908 179.091C114.926 178.984 114.944 178.871 114.961 178.758C114.975 178.67 114.989 178.583 115.001 178.492C115.018 178.372 115.034 178.248 115.049 178.123C115.061 178.032 115.073 177.942 115.083 177.849C115.099 177.711 115.113 177.57 115.127 177.426C115.135 177.337 115.145 177.25 115.153 177.158C115.174 176.927 115.193 176.69 115.21 176.446C115.216 176.358 115.221 176.266 115.227 176.175C115.237 176.011 115.248 175.847 115.257 175.675C115.263 175.55 115.268 175.42 115.274 175.293C115.28 175.166 115.287 175.015 115.292 174.87C115.297 174.725 115.302 174.582 115.306 174.436C115.31 174.29 115.314 174.165 115.317 174.028C115.317 173.875 115.324 173.718 115.326 173.563C115.326 173.425 115.331 173.289 115.332 173.15C115.332 172.986 115.332 172.82 115.332 172.65C115.332 172.517 115.332 172.382 115.332 172.25C115.332 172.072 115.332 171.894 115.332 171.711C115.332 171.583 115.332 171.452 115.332 171.322C115.332 171.13 115.332 170.938 115.325 170.742C115.325 170.625 115.325 170.505 115.318 170.388C115.318 170.174 115.31 169.961 115.304 169.744C115.304 169.668 115.304 169.59 115.298 169.515C115.274 168.64 115.241 167.737 115.198 166.805V166.729C115.185 166.447 115.17 166.161 115.155 165.874L115.143 165.647C115.128 165.372 115.112 165.093 115.096 164.815C115.09 164.727 115.085 164.639 115.08 164.549C115.063 164.271 115.046 163.992 115.027 163.71C115.021 163.621 115.016 163.531 115.01 163.441C114.991 163.154 114.971 162.865 114.95 162.574L114.933 162.336C114.911 162.036 114.889 161.726 114.865 161.417L114.852 161.249C114.826 160.916 114.8 160.582 114.772 160.249V160.232C114.619 158.359 114.438 156.432 114.233 154.488V154.479C113.533 155.795 112.85 157.114 112.146 158.428C103.004 175.487 93.6783 192.467 85.9443 210.222Z" fill="#E5DBB3"/>
<path d="M83.3874 239.868C82.7437 239.549 82.0724 239.29 81.3815 239.093C80.8195 238.917 80.1764 238.736 79.4464 238.53C79.1074 238.43 78.7886 238.342 78.4826 238.258L78.4196 238.241C78.1196 238.158 77.8351 238.079 77.5641 238.007L77.4972 237.99C77.2265 237.919 76.9696 237.854 76.7262 237.796L76.6945 237.788C75.9102 237.563 75.0946 237.466 74.2794 237.503H74.2736C74.1221 237.518 73.9719 237.547 73.8253 237.589C72.5493 240.013 71.2188 242.41 69.8341 244.777C66.7871 253.053 63.9991 261.426 61.1671 269.777C61.1521 269.822 61.1372 269.867 61.1222 269.911C60.9332 270.47 60.7636 271.032 60.6076 271.594C60.5296 271.873 60.4545 272.155 60.3825 272.433C60.1675 273.265 59.9825 274.079 59.7975 274.84C59.6775 275.349 59.5615 275.833 59.4445 276.285C59.1589 277.892 59.4653 279.548 60.3073 280.947C60.388 281.064 60.4754 281.177 60.5685 281.285C61.077 281.863 61.7072 282.321 62.4142 282.626C62.7002 282.758 63.0001 282.859 63.3082 282.925C63.4437 282.953 63.5807 282.972 63.7184 282.983C64.0912 283.012 64.4659 282.962 64.8185 282.838C64.9302 282.797 65.039 282.751 65.1452 282.698C65.5818 282.467 65.9753 282.162 66.3082 281.798C66.3962 281.704 66.4835 281.608 66.5695 281.509C66.7405 281.309 66.9055 281.101 67.0695 280.886C67.2335 280.671 67.3895 280.451 67.5465 280.232C67.7745 279.91 68.0046 279.59 68.2326 279.268C68.9186 278.304 69.5965 277.332 70.2145 276.327C70.9418 275.143 71.6341 273.944 72.2921 272.727C72.6215 272.121 72.9438 271.51 73.2584 270.897C73.7394 269.962 74.1981 269.017 74.6471 268.068C78.0291 260.929 80.6146 253.439 83.4206 246.056C84.8946 242.179 85.2234 240.853 83.3874 239.868Z" fill="#E5DBB3"/>
<path d="M96.4531 228.873C97.6681 224.146 96.207 221.852 90.543 219.621C89.5977 219.157 88.6023 218.804 87.5762 218.569C74.7212 216.769 67.3951 207.158 59.2441 198.673C57.5891 196.951 56.8552 195.086 58.0122 193.005C59.7966 189.473 62.3122 186.361 65.3921 183.876C66.7301 182.876 68.356 182.476 69.668 183.863C70.738 184.994 70.2312 186.274 69.3682 187.391C67.4742 189.836 64.284 191.966 64.939 195.328C65.601 198.719 68.8184 200.815 71.1934 203.255C71.7434 203.82 72.2624 204.417 72.8184 204.976C77.8774 210.05 79.537 209.87 82.209 203.49C84.749 197.426 87.7094 191.603 90.7344 185.769C97.7344 172.252 104.362 158.528 109.989 144.368C112.064 139.145 110.425 136.656 104.981 137.006C100.088 137.321 94.9962 137.667 90.7612 140.861C87.5912 143.252 84.1722 145.34 80.2412 146.074C73.4522 147.341 68.295 150.999 64 156.194C63.0815 157.132 62.0954 158.001 61.0493 158.794C51.7712 166.947 43.2412 175.913 35.562 185.587C30.439 192.16 30.3793 194.245 36.0713 200.629C41.8303 207.09 47.8321 213.372 54.1231 219.314C63.423 228.096 75.2692 231.613 86.0332 234.221C92.9202 234.603 95.3561 233.143 96.4531 228.873Z" fill="white"/>
<path d="M310.938 159.087C313.704 158.156 316.526 157.387 318.85 155.668C329.608 147.865 336.993 136.261 339.506 123.211C342.209 110.074 344.094 96.7819 345.149 83.4112C346.031 72.4662 346.648 39.2672 337.548 31.7862C335.418 30.0332 333.83 33.4348 333.66 35.7168C333.109 43.0928 327.546 44.9641 321.809 46.2871C318.433 46.9347 314.962 46.9052 311.597 46.2002C295.519 43.4082 279.392 40.3681 264.338 34.0811C240.724 24.2191 215.929 20.4027 190.425 17.2207C190.325 16.7017 190.168 16.3974 190.253 16.1934C192.425 10.9644 191.553 6.42039 187.202 2.69339C184.192 0.118387 175.434 -0.339012 171.343 1.70999C170.761 2.00368 170.244 2.41094 169.823 2.90823C169.401 3.40553 169.084 3.98324 168.889 4.6055C162.659 21.3255 156.199 37.9391 149.01 54.2901C139.383 76.1831 130.429 98.3714 121.11 120.402C119.68 123.785 117.877 127.01 116.229 130.302C115.623 131.511 114.879 132.577 113.276 132.384C109.238 131.9 105.201 131.407 101.209 130.923C101.194 127.566 102.825 125.356 103.672 122.907C109.545 105.935 106.41 91.1651 92.9893 78.9561C76.9743 64.3881 53.0893 74.5976 46.5523 80.2256C28.9723 95.3586 31.2105 121.678 46.8385 138.226C51.5235 143.186 57.8785 144.96 64.1715 147.801C59.7645 154.53 53.6854 158.795 48.4884 163.895C41.5104 170.671 34.9038 177.819 28.6973 185.309C24.5443 190.371 24.6051 195.279 27.8541 200.544C29.1031 202.553 30.6003 204.397 32.3101 206.031C36.4641 210.048 40.3814 214.308 44.4864 218.378C46.234 219.977 47.5295 222.008 48.2423 224.267C48.955 226.525 49.06 228.932 48.5465 231.244C47.2865 238.488 46.7053 245.852 45.9063 253.173C43.4243 275.939 42.4701 298.809 41.2891 321.664C41.1261 324.816 40.5772 327.979 40.7442 331.11C40.9322 334.635 42.1033 337.929 46.1363 338.91C57.3093 341.628 65.3361 340.878 67.4361 329.535C69.2061 319.979 70.6253 306.071 72.0953 296.462C72.9663 290.762 72.5523 284.599 74.6593 279.435C77.5163 272.435 81.321 265.756 84.085 258.643C84.585 257.363 85.2932 256.3 86.8922 256.363C87.5598 256.393 88.2011 256.632 88.7252 257.047C89.2493 257.462 89.6296 258.03 89.8121 258.673C90.9691 262.159 98.8004 304.027 99.8804 321.665C100.846 337.44 104.596 340.349 120.346 337.931C127.94 336.765 128.662 333.899 128.446 326.188C127.928 307.464 121.421 241.703 120.732 227.27C120.41 220.485 120.181 213.604 121.832 206.839C122.603 203.678 123.707 202.032 127.438 201.658C139.609 200.435 142.575 197.394 143.338 185.443C144.169 170.724 143.005 155.959 139.878 141.552C138.678 135.803 139.166 135.327 145.042 134.947C151.687 134.515 158.142 135.833 164.57 137.295C173.317 139.286 181.557 142.895 190.155 145.333C214.163 152.263 238.59 157.644 263.287 161.442C279.177 163.797 295.257 164.373 310.938 159.087ZM131.064 109.106C137.51 93.5745 144.109 78.1064 150.332 62.4834C151.61 59.2744 164.487 30.0643 169.356 18.4473C170.547 15.5332 171.979 12.7231 173.636 10.0469C176.067 6.1989 178.736 5.2191 182.047 6.7471C182.299 6.8631 182.554 6.99077 182.813 7.13577C183.793 7.6329 184.605 8.4088 185.146 9.36526C185.396 9.84524 185.551 10.3692 185.602 10.9082C185.62 11.087 185.629 11.2667 185.628 11.4463C185.622 11.8156 185.584 12.1833 185.514 12.5459C185.439 12.9249 185.339 13.2985 185.214 13.6641C185.018 14.2389 184.784 14.7998 184.514 15.3438C183.386 17.6444 182.298 19.961 181.251 22.293C180.204 24.625 179.183 26.9692 178.188 29.3252C177.69 30.5032 177.199 31.6833 176.713 32.8653C172.961 41.9773 169.481 51.2035 165.713 60.3125C164.105 64.2025 162.448 68.0714 160.691 71.8994C155.325 83.5934 150.186 95.3995 145.128 107.23C143.789 110.364 142.456 113.499 141.128 116.637C139.898 119.539 138.669 122.442 137.442 125.346C137.092 126.173 136.753 126.979 136.394 127.73C136.274 127.98 136.152 128.224 136.027 128.463C135.788 128.926 135.52 129.373 135.227 129.804C135.084 130.011 134.935 130.21 134.779 130.399C134.477 130.772 134.134 131.109 133.756 131.406C133.569 131.552 133.372 131.686 133.167 131.806C132.505 132.19 131.77 132.434 131.009 132.521C130.72 132.556 130.429 132.574 130.138 132.575H130.091C129.431 132.571 128.773 132.503 128.125 132.375C127.925 132.336 127.725 132.304 127.525 132.275L127.425 132.26C127.217 132.232 127.008 132.208 126.798 132.193C126.35 132.158 125.899 132.156 125.45 132.187C123.836 132.335 122.28 132.871 120.917 133.749C124.347 125.404 127.685 117.248 131.064 109.107V109.106ZM113.75 150.172C113.924 151.613 114.086 153.049 114.236 154.48V154.489C114.441 156.436 114.622 158.36 114.775 160.233V160.25C114.803 160.587 114.829 160.921 114.855 161.25L114.868 161.418C114.892 161.727 114.914 162.032 114.936 162.337L114.953 162.575C114.974 162.867 114.994 163.156 115.013 163.442C115.019 163.532 115.024 163.622 115.03 163.711C115.048 163.993 115.066 164.273 115.083 164.55C115.088 164.64 115.093 164.728 115.099 164.816C115.115 165.094 115.131 165.373 115.146 165.648L115.158 165.875C115.173 166.161 115.188 166.447 115.201 166.73V166.806C115.245 167.739 115.279 168.642 115.301 169.516C115.301 169.591 115.301 169.669 115.307 169.745C115.313 169.962 115.317 170.175 115.321 170.389C115.321 170.506 115.321 170.626 115.328 170.743C115.328 170.943 115.333 171.131 115.335 171.323C115.335 171.453 115.335 171.584 115.335 171.712C115.335 171.895 115.335 172.073 115.335 172.251C115.335 172.386 115.335 172.521 115.335 172.651C115.335 172.819 115.335 172.985 115.335 173.151C115.335 173.29 115.335 173.426 115.329 173.564C115.329 173.719 115.329 173.876 115.32 174.029C115.32 174.167 115.313 174.301 115.309 174.437C115.305 174.573 115.301 174.728 115.295 174.871C115.289 175.014 115.284 175.154 115.277 175.294C115.27 175.434 115.266 175.551 115.26 175.676C115.251 175.847 115.24 176.011 115.23 176.176C115.224 176.267 115.219 176.359 115.213 176.447C115.196 176.691 115.177 176.927 115.156 177.159C115.148 177.251 115.138 177.338 115.13 177.427C115.116 177.571 115.103 177.713 115.087 177.851C115.076 177.945 115.064 178.034 115.052 178.124C115.037 178.249 115.021 178.373 115.004 178.493C114.992 178.584 114.978 178.671 114.964 178.759C114.947 178.872 114.929 178.985 114.911 179.092C114.896 179.176 114.881 179.258 114.866 179.339C114.846 179.444 114.825 179.547 114.804 179.648C114.788 179.722 114.771 179.796 114.754 179.869C114.732 179.969 114.708 180.06 114.684 180.151C114.666 180.217 114.649 180.286 114.631 180.352C114.604 180.444 114.577 180.528 114.549 180.612C114.531 180.668 114.513 180.724 114.494 180.778C114.463 180.866 114.429 180.947 114.394 181.028C114.378 181.068 114.362 181.111 114.344 181.149C114.296 181.257 114.242 181.362 114.182 181.464C113.737 182.216 113.217 183.132 112.643 184.171C112.069 185.21 111.443 186.371 110.774 187.619C110.608 187.93 110.439 188.247 110.274 188.568C109.933 189.211 109.586 189.87 109.232 190.545C107.995 192.905 106.697 195.427 105.441 197.898C104.902 198.957 104.372 200.005 103.858 201.028C103.515 201.71 103.182 202.376 102.858 203.028C102.695 203.354 102.535 203.675 102.378 203.994C101.589 205.581 100.867 207.048 100.253 208.315C99.8855 209.076 99.5531 209.765 99.2711 210.365C98.77 211.505 98.1725 212.599 97.4845 213.637C97.2407 213.989 96.9538 214.31 96.6304 214.591C96.2649 214.894 95.8338 215.108 95.3712 215.216C94.9086 215.323 94.4273 215.322 93.9654 215.211C93.1556 215.059 92.3626 214.828 91.5982 214.521C90.9822 214.288 90.2983 214.004 89.5333 213.675C89.2653 213.561 89.0154 213.446 88.7774 213.329C88.7204 213.301 88.6703 213.272 88.6153 213.244C88.4383 213.154 88.265 213.064 88.106 212.973C88.052 212.942 88.0062 212.911 87.9542 212.879C87.8022 212.787 87.6541 212.695 87.5211 212.601C87.4791 212.571 87.4415 212.538 87.4005 212.508C87.2675 212.408 87.1414 212.308 87.0264 212.208L86.9351 212.121C86.8241 212.015 86.7193 211.902 86.6212 211.783C86.6002 211.756 86.5792 211.73 86.5592 211.703C86.4656 211.581 86.3809 211.452 86.3053 211.318L86.2691 211.252C86.1938 211.108 86.1307 210.957 86.0802 210.803L86.0655 210.761C86.0112 210.585 85.9716 210.406 85.9473 210.224C85.7773 208.941 86.2604 207.25 87.3604 204.801C90.0424 198.831 92.7174 192.834 95.8604 187.102C101.525 176.788 106.287 161.73 113.75 150.174V150.172ZM43.1505 120.511C37.5835 100.775 42.0084 85.3288 61.9034 78.3018C89.6644 68.5018 101.11 98.7945 100.432 110.229C100.189 121.029 97.1925 129.776 88.0465 136.483C71.0495 148.951 48.8814 140.811 43.1544 120.513L43.1505 120.511ZM62.4932 327.879C61.8442 331.956 59.0745 333.584 54.9415 333.831C48.1415 334.237 47.122 332.879 46.835 327.031C46.579 323.095 46.5716 319.146 46.8131 315.209C48.5511 292.678 48.3061 270.009 51.4801 247.579C52.3541 241.402 53.6802 235.288 54.7672 229.29C55.4672 229.19 55.7785 229.04 55.9835 229.13C67.4375 234.168 67.4641 234.18 63.5181 245.93C60.4271 255.138 57.2301 264.311 54.1241 273.514C50.6951 283.679 54.6481 288.645 65.8101 288.297C66.4801 288.388 67.138 288.552 67.772 288.787C68.231 293.955 63.6511 320.63 62.4971 327.881L62.4932 327.879ZM83.4122 246.069C80.6062 253.452 78.0212 260.941 74.6392 268.08C74.1902 269.029 73.7311 269.975 73.2501 270.909C72.9347 271.523 72.6129 272.133 72.2843 272.739C71.6243 273.953 70.9315 275.153 70.2061 276.339C69.5881 277.345 68.9062 278.317 68.2242 279.28C67.9962 279.602 67.7662 279.922 67.5382 280.244C67.3812 280.464 67.2231 280.684 67.0611 280.899C66.8991 281.114 66.7341 281.324 66.5611 281.522C66.4751 281.622 66.3884 281.717 66.3004 281.811C65.9674 282.175 65.5739 282.479 65.1373 282.71C65.0311 282.763 64.9218 282.81 64.8101 282.851C64.4576 282.975 64.0828 283.024 63.71 282.995C63.5724 282.984 63.4358 282.966 63.3004 282.939C62.9922 282.872 62.6924 282.77 62.4063 282.638C61.6993 282.333 61.0686 281.875 60.5601 281.297C60.467 281.189 60.3801 281.076 60.2994 280.959C59.4574 279.561 59.1505 277.904 59.4361 276.297C59.5531 275.845 59.6691 275.361 59.7891 274.853C59.9701 274.091 60.1591 273.277 60.3741 272.445C60.4461 272.167 60.5212 271.886 60.5992 271.607C60.7552 271.045 60.9253 270.482 61.1143 269.923C61.1293 269.879 61.1443 269.834 61.1593 269.789C63.9913 261.434 66.7792 253.06 69.8262 244.789C70.0262 244.258 70.2083 243.724 70.4063 243.189C71.7493 239.589 72.4185 237.999 73.8175 237.597C73.9641 237.555 74.1137 237.527 74.2652 237.511C75.081 237.474 75.8974 237.57 76.6822 237.796L76.7144 237.804C76.9578 237.862 77.2148 237.927 77.4854 237.998L77.5523 238.016C77.8233 238.088 78.1063 238.166 78.4073 238.249L78.4703 238.268C78.7763 238.353 79.0952 238.443 79.4342 238.538C80.1642 238.744 80.8072 238.928 81.3692 239.103C82.0601 239.299 82.7314 239.557 83.3751 239.876C85.2231 240.853 84.8941 242.18 83.4161 246.071L83.4122 246.069ZM86.0284 234.219C75.2644 231.608 63.4192 228.094 54.1182 219.312C47.8272 213.371 41.8255 207.088 36.0665 200.627C30.3745 194.243 30.4342 192.158 35.5572 185.585C43.2364 175.911 51.7664 166.945 61.0445 158.792C62.0906 157.999 63.0767 157.13 63.9952 156.192C68.2952 150.992 73.4474 147.338 80.2364 146.072C84.1674 145.339 87.5864 143.249 90.7564 140.858C94.9914 137.664 100.083 137.319 104.976 137.004C110.42 136.654 112.059 139.144 109.984 144.366C104.357 158.525 97.7341 172.249 90.7291 185.766C87.7041 191.6 84.7442 197.423 82.2042 203.488C79.5322 209.868 77.8721 210.048 72.8131 204.973C72.2571 204.414 71.7381 203.819 71.1881 203.253C68.8131 200.814 65.5962 198.717 64.9342 195.326C64.2792 191.965 67.4694 189.835 69.3634 187.389C70.2274 186.272 70.7342 184.989 69.6632 183.861C68.3512 182.473 66.7253 182.873 65.3873 183.874C62.3074 186.359 59.7918 189.471 58.0074 193.003C56.8504 195.084 57.5843 196.949 59.2393 198.671C67.3903 207.155 74.7164 216.771 87.5714 218.566C88.5975 218.802 89.5929 219.155 90.5382 219.619C96.2022 221.85 97.6633 224.144 96.4483 228.871C95.3563 233.143 92.9203 234.603 86.0323 234.222L86.0284 234.219ZM123.755 326.163C123.893 330.271 122.175 332.651 117.721 332.508C116.414 332.585 115.114 332.747 113.828 332.993C109.269 333.454 107.818 332.455 106.758 327.869C106.227 325.569 101.085 292.837 99.3585 278.784C98.4335 271.26 97.0394 263.864 95.4014 256.436C94.5844 252.736 92.2942 250.462 87.9742 250.535C88.8512 245.389 90.4412 241.793 95.3292 239.212C97.7319 238.03 99.6983 236.117 100.946 233.748C102.193 231.379 102.658 228.675 102.274 226.025C101.263 219.348 103.392 213.68 106.189 207.954C108.799 202.609 113.345 192.105 117.089 186.245C117.068 193.018 117.758 197.892 117.121 201.445C114.345 216.899 115.998 232.325 117.415 247.764C118.453 258.987 123.53 319.343 123.759 326.166L123.755 326.163ZM137.997 188.345C137.245 194.045 130.346 198.317 125.197 196.088C124.599 195.823 124.073 195.417 123.664 194.906C123.255 194.395 122.975 193.793 122.847 193.151C121.696 188.785 118.064 147.618 118.319 144.443C118.59 141.06 121.619 137.343 131.834 137.443C137.135 137.494 139.383 177.881 138.004 188.348L137.997 188.345ZM188.986 139.454C185.856 138.469 182.748 137.419 179.642 136.36C176.536 135.301 173.433 134.233 170.314 133.214C165.844 131.758 161.245 130.734 156.58 130.156C151.826 129.575 147.031 129.403 142.247 129.643C142.62 125.107 144.319 121.723 145.933 118.472C146.163 118.006 146.392 117.545 146.615 117.083C147.563 115.119 148.493 113.148 149.406 111.171C159.787 88.8189 168.406 65.7315 177.827 42.9815C179.638 38.6095 181.688 34.3259 183.288 29.8809C184.946 25.2809 188.208 23.2652 192.828 23.1182C195.977 23.0182 199.255 22.6025 202.266 23.2725C218.399 26.8595 235.151 28.0392 250.584 34.3262C268.444 41.6032 286.984 46.3115 305.723 50.3965C313.887 52.1745 321.958 53.028 329.729 48.834C330.129 48.617 330.529 48.3983 330.929 48.1543C332.06 47.4188 333.133 46.5961 334.135 45.6934C334.291 45.5644 334.44 45.4431 334.584 45.3311C334.656 45.2751 334.727 45.2229 334.796 45.1719C334.935 45.0719 335.067 44.9823 335.195 44.9053C335.367 44.7986 335.552 44.7157 335.745 44.6592C335.908 44.6121 336.08 44.6053 336.245 44.6407C336.488 44.706 336.702 44.8492 336.855 45.0479C337.243 45.5776 337.53 46.1749 337.702 46.8086C338.343 48.8164 338.837 50.8678 339.18 52.9473C339.426 54.3903 339.622 55.8757 339.775 57.3897C340.004 59.6607 340.133 61.9901 340.191 64.3301C340.267 67.4221 340.215 70.5229 340.091 73.5059L340.083 73.6885C339.96 76.6565 339.769 79.5035 339.566 82.1035C339.363 84.7035 339.142 87.3034 338.9 89.9034C338.658 92.5033 338.4 95.0907 338.1 97.6787C337.708 101.131 337.257 104.578 336.748 108.018C336.49 109.736 336.215 111.453 335.921 113.168C335.479 115.741 334.991 118.31 334.455 120.874C334.276 121.729 334.091 122.584 333.9 123.438C332.438 130.748 329.187 137.582 324.439 143.33C324.116 143.706 323.787 144.076 323.45 144.439C322.441 145.525 321.367 146.548 320.234 147.505C318.707 148.794 317.08 149.96 315.368 150.992C314.502 151.516 313.608 152.009 312.688 152.473C311.768 152.937 310.82 153.371 309.844 153.773C307.835 154.604 305.771 155.296 303.667 155.846C302.583 156.13 301.472 156.386 300.334 156.612C298.787 156.917 297.24 157.173 295.691 157.381C291.079 157.985 286.427 158.228 281.777 158.105C281.007 158.088 280.237 158.062 279.467 158.027C277.93 157.961 276.395 157.861 274.861 157.728C272.563 157.533 270.275 157.279 267.997 156.968C266.478 156.762 264.965 156.536 263.458 156.289C238.344 152.207 213.348 147.123 188.99 139.457L188.986 139.454Z" fill="black"/>
<path d="M351.261 151.387C362.786 138.176 367.785 122.36 369.321 105.224C369.423 103.39 369.381 101.551 369.194 99.7239C369.208 99.4617 369.164 99.2 369.066 98.9563C368.969 98.7126 368.82 98.4933 368.629 98.3128C368.438 98.1322 368.211 97.9947 367.962 97.9104C367.713 97.8262 367.449 97.797 367.188 97.8245C366.43 97.933 365.737 98.309 365.233 98.885C363.406 101.072 363.715 103.817 363.503 106.409C362.303 121.081 358.409 134.802 349.284 146.673C346.77 149.943 344.218 153.182 340.655 157.756C346.712 157.135 348.929 154.058 351.261 151.387Z" fill="black"/>
<path d="M15.959 168.643C15.376 168.643 14.7163 168.431 14.4073 168.672C-1.34174 180.946 -2.15296 202.429 5.43704 216.959C6.70332 219.26 8.46178 221.254 10.5865 222.799C10.875 223.061 11.2511 223.206 11.6411 223.205C12.0312 223.203 12.4069 223.055 12.6934 222.791C13.1643 222.206 13.3924 221.462 13.3311 220.714C13.1088 219.968 12.7634 219.265 12.3091 218.634C4.77611 203.962 4.43529 189.634 14.2183 175.703C15.6463 173.67 17.573 171.516 15.959 168.643Z" fill="black"/>
<path d="M76.3672 330.767C74.6412 330.888 72.9461 331.518 72.9151 333.889C72.8801 336.471 74.6504 336.783 76.4004 336.6C81.6614 336.048 86.858 336.867 92.085 337.174C94.553 337.32 97.3293 337.348 99.5322 333.574C92.0952 331.014 84.2004 330.058 76.3672 330.767Z" fill="black"/>
</svg>
