<svg width="142" height="100" viewBox="0 0 142 100" fill="none" xmlns="http://www.w3.org/2000/svg">
<path d="M14.012 14.4935C7.15604 21.6295 2.94608 31.3805 1.42708 40.8275C-0.0639247 50.0985 0.880896 59.7505 5.5179 68.1605C15.2459 85.8005 37.8853 91.56 57.5233 90.473C64.4672 90.0136 71.374 89.1065 78.201 87.7572C81.621 87.1202 85.0279 86.4237 88.4359 85.7337C91.8439 85.0437 94.8041 84.6934 98.1981 85.6654C104.898 87.5834 111.458 90.1053 118.048 92.3333C124.752 94.6 131.457 96.8665 138.162 99.1331C138.706 99.2939 139.286 99.2906 139.828 99.1234C140.37 98.9561 140.851 98.6331 141.21 98.1937C141.569 97.7543 141.79 97.2183 141.846 96.6536C141.901 96.089 141.789 95.521 141.523 95.0199C135.198 84.7559 123.847 79.2449 114.723 71.5599C105.296 63.6159 100.178 52.2591 102.223 40.4251C104.629 31.3341 103.323 20.0009 96.6229 13.3519C89.3229 6.10489 78.769 2.75988 68.494 1.43588C50.057 -0.940122 27.31 0.652496 14.012 14.4935ZM31.1732 10.0589C39.2282 6.95893 48.082 6.04685 56.721 6.18685C67.483 6.36085 78.896 7.8712 87.971 13.7142C95.223 18.3832 98.0919 28.8428 96.8109 37.2298C95.6132 42.3853 95.5266 47.7365 96.557 52.9281C97.5873 58.1196 99.7112 63.0319 102.787 67.3392C108.561 75.3392 117.309 80.4164 125.166 86.3724C126.887 87.6724 128.559 89.0358 130.131 90.4818C122.161 87.7864 114.191 85.0912 106.22 82.3958C100.856 80.5808 96.012 78.8216 90.22 79.6956C84.635 80.5426 79.1322 81.9316 73.5672 82.9036C54.8292 86.1747 32.3801 87.0238 17.4451 73.7718C3.87814 61.7358 4.39423 41.914 12.2122 27.097C16.1911 19.255 22.9521 13.1802 31.1732 10.0589Z" fill="#020100"/>
<path d="M35.6641 46.502H34.8262C34.0836 46.502 33.3713 46.7972 32.8462 47.3223C32.3211 47.8474 32.0264 48.5592 32.0264 49.3018C32.0264 50.0444 32.3211 50.7571 32.8462 51.2822C33.3713 51.8073 34.0836 52.1025 34.8262 52.1025H35.6641C36.4067 52.1025 37.1189 51.8073 37.644 51.2822C38.1691 50.7571 38.4644 50.0444 38.4644 49.3018C38.4644 48.5592 38.1691 47.8474 37.644 47.3223C37.1189 46.7972 36.4067 46.502 35.6641 46.502Z" fill="#020100"/>
<path d="M56.8254 47.8305C56.4288 47.8128 56.0343 47.8959 55.6784 48.0717C55.3154 48.181 54.9859 48.3803 54.7204 48.6508C54.4394 48.8911 54.227 49.2011 54.1051 49.5502C53.9206 49.8788 53.832 50.2528 53.8493 50.6293C53.8853 50.8773 53.9206 51.1257 53.9552 51.3744C54.0959 51.847 54.3601 52.274 54.7204 52.6107L55.3205 53.0482C55.7801 53.3004 56.2962 53.4316 56.8205 53.4301H58.2301C58.6266 53.4481 59.0216 53.3663 59.3776 53.1908C59.7403 53.081 60.0692 52.8818 60.3351 52.6117C60.6158 52.3711 60.8282 52.0602 60.9504 51.7113C61.135 51.3827 61.2235 51.0088 61.2062 50.6322C61.1702 50.3842 61.1353 50.1321 61.0993 49.8871C60.959 49.4148 60.6951 48.9891 60.3351 48.6527C60.1351 48.5067 59.9355 48.3602 59.7355 48.2142C59.2759 47.9621 58.7598 47.8309 58.2355 47.8324L56.8254 47.8305Z" fill="#020100"/>
<path d="M72.3423 54.7598C73.0849 54.7598 73.7972 54.4655 74.3223 53.9404C74.8474 53.4153 75.1421 52.7026 75.1421 51.96C75.1421 51.2174 74.8474 50.5056 74.3223 49.9805C73.7972 49.4554 73.0849 49.1602 72.3423 49.1602C71.5997 49.1602 70.8874 49.4554 70.3623 49.9805C69.8372 50.5056 69.542 51.2174 69.542 51.96C69.542 52.7026 69.8372 53.4153 70.3623 53.9404C70.8874 54.4655 71.5997 54.7598 72.3423 54.7598Z" fill="#020100"/>
</svg>
