<svg width="156" height="273" viewBox="0 0 156 273" fill="none" xmlns="http://www.w3.org/2000/svg">
<path d="M109.046 134.127C108.771 122.027 111.745 111.606 118.561 102.208C124.427 94.1167 129.847 86.1179 135.5 77.8679C141.7 68.8269 144.669 57.2037 137.951 48.3337C123.404 29.1337 104.451 22.6343 96.3303 20.9343C91.9793 20.0223 87.5386 23.5279 85.9626 28.0339C84.5026 32.2039 86.4622 34.2088 89.4162 35.9138C95.0292 39.1488 100.737 42.2142 106.428 45.3142C116.5 50.7942 118.528 59.5426 111.787 68.8386C110.236 70.9786 108.135 72.7763 106.874 75.0563C103.041 81.9853 95.5332 85.9295 88.6022 88.7565C79.0142 92.6615 68.3753 92.0825 58.8483 89.7565C56.0253 89.0675 52.6486 88.1286 52.6486 88.1286C31.5236 97.8046 19.7024 115.979 8.93036 135.176C6.95136 138.701 7.0305 142.247 8.4035 146.153C12.4408 157.793 19.5133 168.143 28.8903 176.134C30.0193 177.063 37.0611 182.415 42.8141 174.127C44.7141 171.397 40.3226 165.061 39.6286 163.46C36.7216 156.76 32.0714 150.424 32.6174 142.472C33.0364 136.372 36.9832 133.773 40.8102 130.745C42.5362 129.38 44.7945 130.045 46.5705 131.4C48.2895 132.708 47.8903 134.475 47.5182 136.247C46.8512 139.425 46.4634 142.679 45.5734 145.79C43.4024 153.379 42.7302 160.462 47.2502 167.844C50.6072 173.325 48.9654 178.808 43.4704 182.454C39.3834 185.166 38.5035 188.661 38.0705 192.875C35.9815 213.419 33.5893 258.209 33.8303 259.945C34.5303 264.982 36.8723 266.593 43.3693 266.784C48.6483 266.937 52.1495 265.053 52.7145 260.722C54.8085 244.673 58.5474 228.888 59.9514 212.716C60.5514 205.742 62.3864 198.826 64.1794 192.015C65.3034 187.748 70.7716 183.916 74.7336 184.616C76.8609 184.912 78.8584 185.813 80.4885 187.212C82.1185 188.61 83.3124 190.448 83.9284 192.506C84.1744 193.356 94.1514 248.068 95.2214 254.152C95.8214 257.586 96.5935 261.182 100.382 262.805C110.006 266.929 116.797 262.587 116.701 252.323C116.601 241.989 115.75 231.705 114.747 221.423C112.866 202.072 109.267 143.863 109.046 134.127Z" fill="white"/>
<path d="M90.4963 81.3433C99.5083 76.6913 102.906 69.4437 103.496 60.0317C104.016 51.7047 98.0432 48.4096 92.1062 45.0376C91.1367 44.3742 90.1171 43.7875 89.0564 43.2827C82.1894 40.7227 78.5784 36.0203 79.0974 28.5083C79.3794 24.4393 80.4433 20.7471 76.8293 20.3491C55.3493 17.9891 42.2622 34.5296 39.5432 43.1216C37.4322 49.7896 37.3044 59.8509 40.5314 66.6479C49.1924 84.8879 67.7623 91.3713 90.4963 81.3433Z" fill="white"/>
<path d="M116.604 164.454C115.004 152.388 115.182 140.402 116.104 128.328C116.614 121.642 117.705 115.827 121.274 110.218C127.273 100.559 133.83 91.2575 140.91 82.36C147.832 73.834 150.224 55.1815 144.651 47.0885C135.514 33.4854 122.217 23.2079 106.75 17.7945C99.6011 15.2945 92.2014 12.5713 84.8014 17.3873C84.8014 17.3873 76.2821 14.3576 72.8141 14.2086C48.9471 13.1896 12.0325 42.2618 42.6515 80.1168C45.9605 84.2088 48.7002 83.3421 43.8932 85.7311C36.1162 89.5941 29.8392 95.0769 23.8932 101.405C15.4722 110.372 10.4703 121.453 3.53333 131.283C-0.941666 137.624 -0.110564 143.364 2.36244 149.514C3.67044 152.767 15.4352 176.44 28.8932 183.881C32.4532 185.851 33.4623 186.212 32.8463 190.091C31.4083 199.14 31.2465 208.292 31.0035 217.412C30.6715 230.112 28.6832 242.638 27.6032 255.256C27.7502 259.876 26.0195 264.926 30.1945 268.63C36.1945 273.948 43.5941 272.865 50.4391 271.714C56.8731 270.633 58.8104 265.027 59.5294 259.089C61.3004 244.464 62.9454 229.821 65.0294 215.24C65.9874 208.548 67.7955 201.97 69.3605 195.376C69.6155 194.204 70.2398 193.145 71.1417 192.355C72.0436 191.565 73.1752 191.085 74.3702 190.986C77.1482 190.665 77.5174 193.253 78.2184 195.068C81.3104 203.076 87.0913 243.299 88.7443 254.967C89.9783 263.667 94.4443 268.968 101.453 269.987C105.785 270.62 110.299 270.816 114.515 268.862C125.685 263.687 122.016 237.33 121.13 227.033C119.346 206.193 119.356 185.21 116.604 164.454ZM40.5275 66.6461C37.3005 59.8461 37.4272 49.7877 39.5392 43.1197C42.2582 34.5267 55.3453 17.9863 76.8253 20.3473C80.4393 20.7473 79.3754 24.4375 79.0934 28.5065C78.5744 36.0195 82.1854 40.7219 89.0524 43.2809C90.1131 43.7857 91.1327 44.3723 92.1022 45.0357C98.0392 48.4077 104.012 51.7029 103.492 60.0299C102.905 69.4449 99.5073 76.6894 90.4923 81.3424C67.7623 91.3704 49.1925 84.8871 40.5285 66.6461H40.5275ZM100.385 262.8C96.5974 261.177 95.8292 257.58 95.2252 254.147C94.1552 248.062 84.1783 193.347 83.9323 192.501C83.3163 190.443 82.1224 188.605 80.4923 187.207C78.8623 185.808 76.8648 184.907 74.7374 184.611C70.7754 183.911 65.3072 187.747 64.1832 192.01C62.3902 198.817 60.5602 205.733 59.9552 212.711C58.5552 228.883 54.8124 244.668 52.7184 260.717C52.1534 265.047 48.6522 266.932 43.3732 266.779C36.8732 266.589 34.5341 264.979 33.8341 259.94C33.5931 258.204 35.9853 213.414 38.0743 192.87C38.5023 188.656 39.3823 185.161 43.4743 182.449C48.9743 178.803 50.6115 173.32 47.2545 167.839C42.7345 160.457 43.4063 153.374 45.5773 145.785C46.4673 142.674 46.8551 139.42 47.5221 136.242C47.8941 134.471 48.2934 132.703 46.5743 131.395C44.7983 130.044 42.5401 129.374 40.8141 130.74C36.9871 133.766 33.0402 136.364 32.6212 142.467C32.0752 150.419 36.7215 156.751 39.6325 163.455C40.3265 165.055 44.7135 171.392 42.8185 174.122C37.0655 182.41 30.0232 177.059 28.8942 176.13C19.5171 168.138 12.4446 157.788 8.40736 146.148C7.03336 142.243 6.95521 138.697 8.93421 135.171C19.7062 115.971 31.5275 97.7996 52.6525 88.1236C52.6525 88.1236 56.0292 89.0616 58.8522 89.7516C68.3792 92.0796 79.0181 92.6586 88.6061 88.7516C95.5371 85.9286 103.046 81.9834 106.879 75.0514C108.14 72.7724 110.24 70.9736 111.791 68.8336C118.532 59.5336 116.504 50.7892 106.432 45.3092C100.741 42.2092 95.0325 39.1428 89.4205 35.9088C86.4625 34.2038 84.5064 32.1989 85.9664 28.0289C87.5424 23.5289 91.9831 20.0203 96.3341 20.9283C104.45 22.6283 123.408 29.1227 137.955 48.3287C144.673 57.1987 141.7 68.8219 135.505 77.8629C129.852 86.1129 124.432 94.1117 118.566 102.203C111.752 111.603 108.774 122.018 109.049 134.122C109.27 143.858 112.87 202.067 114.756 221.409C115.756 231.695 116.613 241.979 116.71 252.309C116.804 262.587 110.01 266.925 100.386 262.801L100.385 262.8ZM41.7745 137.701C41.7745 137.701 40.8322 148.731 39.8302 148.731C36.1642 148.732 38.1145 137.702 41.7755 137.702L41.7745 137.701ZM108.382 53.2789C113.865 53.2789 109.529 66.7149 109.031 62.9059C108.75 60.7489 108.383 53.2799 108.383 53.2799L108.382 53.2789Z" fill="black"/>
<path d="M149.146 20.4024C149.569 21.1714 149.96 21.961 150.421 22.708C151.24 24.035 152.247 25.1077 153.928 24.0547C155.484 23.0757 155.297 21.6719 154.571 20.2549C149.847 11.0239 143.221 3.78689 132.861 1.12989C128.161 -0.0761077 123.089 -1.06955 117.63 3.85645C132.053 4.28745 142.675 8.64035 149.146 20.4024Z" fill="black"/>
</svg>
