<svg id="Capa_1" data-name="Capa 1" xmlns="http://www.w3.org/2000/svg" viewBox="0 0 141.11 98.76"><defs><style>.cls-1{fill:#020100;}</style></defs><title>Slide 23</title><path class="cls-1" d="M13.24,14C6.38,21.1,2.17,30.85.65,40.3-.84,49.57.11,59.22,4.74,67.64c9.73,17.64,32.37,23.4,52,22.31a162,162,0,0,0,20.68-2.72c3.42-.64,6.83-1.33,10.24-2s6.37-1,9.76-.07c6.7,1.92,13.26,4.44,19.85,6.67l20.11,6.8a2.88,2.88,0,0,0,3.36-4.11C134.42,84.23,123.07,78.72,114,71c-9.43-7.94-14.55-19.3-12.5-31.13,2.41-9.09,1.1-20.42-5.6-27.07C88.54,5.58,78,2.24,67.71.91,49.28-1.47,26.54.13,13.24,14M30.4,9.53c8.05-3.1,16.91-4,25.55-3.87,10.76.17,22.18,1.68,31.25,7.53C94.45,17.86,97.32,28.32,96,36.7h0a37.3,37.3,0,0,0,6,30.11c5.77,8,14.52,13.08,22.38,19,1.72,1.3,3.39,2.66,5,4.11l-23.91-8.09c-5.36-1.82-10.21-3.57-16-2.7-5.58.85-11.09,2.24-16.65,3.21-18.74,3.27-41.19,4.12-56.12-9.13-13.57-12-13.05-31.86-5.23-46.67a35.32,35.32,0,0,1,19-17"/><path class="cls-1" d="M34.89,46h-.84a2.8,2.8,0,1,0,0,5.6h.84a2.8,2.8,0,1,0,0-5.6"/><path class="cls-1" d="M56,47.3a2.34,2.34,0,0,0-1.15.24,2.24,2.24,0,0,0-1,.58,2.1,2.1,0,0,0-.62.9,2,2,0,0,0-.26,1.08l.11.74a2.76,2.76,0,0,0,.77,1.24l.6.44a3.11,3.11,0,0,0,1.5.38h1.41a2.36,2.36,0,0,0,1.15-.24,2.25,2.25,0,0,0,1-.58,2.09,2.09,0,0,0,.61-.9,2,2,0,0,0,.26-1.08q-.05-.37-.11-.74a2.76,2.76,0,0,0-.76-1.24l-.6-.44a3.11,3.11,0,0,0-1.5-.38Z"/><path class="cls-1" d="M71.57,54.24a2.8,2.8,0,1,0,0-5.6,2.8,2.8,0,1,0,0,5.6"/></svg>