<svg id="Capa_1" data-name="Capa 1" xmlns="http://www.w3.org/2000/svg" viewBox="0 0 146.63 173.04"><defs><style>.cls-1{fill:#020100;}</style></defs><title>Slide 23</title><path class="cls-1" d="M29.82,94.94a14.32,14.32,0,0,1-2,14.91,3,3,0,0,0,2.09,5,23.6,23.6,0,0,0,8-1.31c1.34,4.08,2.87,8.1,4.45,12.08,2,5.11,4,10.6,7.17,15.16A18,18,0,0,0,59,148.9V149c-.21,1-.47,1.95-.75,2.91-.59,2-1.27,4-2,6-1.3,3.61-2.84,7.45-4.23,10.67a3.09,3.09,0,0,0,.46,3.58,3,3,0,0,0,3.58.46c5-3.7,9.66-7.76,14.57-11.52,4.67-3.58,9.78-7.48,15.35-9.37a3.19,3.19,0,0,0,.71-.35,81.19,81.19,0,0,0,15.12-3.13,3,3,0,0,0,1.86-.56,84.44,84.44,0,0,0,8.14-3.18,77.73,77.73,0,0,0,8-4.23,2.56,2.56,0,0,0,.73-.44c16.4-10.1,31.92-27.76,23.81-47.32-3.91-9.42-12.08-16.18-21.25-20.26a3.41,3.41,0,0,0-1.33-.57l-.12,0a34,34,0,0,0,2.69-17.85,63.41,63.41,0,0,0-4.92-17.28,112,112,0,0,0-7.88-15.8A42.66,42.66,0,0,0,87.85,2.38a57.11,57.11,0,0,0-30.06-.73c-11.11,2.6-21.44,7.93-31,14.11-9,5.84-19.2,12.43-23.78,22.54-4.45,9.82-3.82,21.14.4,30.93,4.13,9.59,12.41,16.55,20.9,22.24,1.79,1.2,3.62,2.34,5.46,3.46M54,97.16q2.62.16,5.28.28-4.71,14.79-10.12,29.34L48,123.72c-1.66-4.19-3.26-8.43-4.63-12.73A25,25,0,0,0,54,97.16m.67,40.68a36.06,36.06,0,0,1-2.08-3.44q7-18.19,12.83-36.76c3.71.06,7.44,0,11.14-.23a248.89,248.89,0,0,1-15.89,45.71,12.08,12.08,0,0,1-6-5.28m62.78-59q-7.35,32.42-17.83,64a74.37,74.37,0,0,1-10.83,2.37A483.2,483.2,0,0,1,103,91c0-.09,0-.16.05-.25A44.81,44.81,0,0,0,114.7,82a37.55,37.55,0,0,0,2.78-3.25m-34.8,67a64.49,64.49,0,0,1-15.88-.84l-.42-.09A256.2,256.2,0,0,0,82.82,96.8a67.54,67.54,0,0,0,13.06-3,483.28,483.28,0,0,0-13.21,52M68.06,155.7c-2.25,1.71-4.45,3.49-6.65,5.27.19-.5.39-1,.57-1.5a70,70,0,0,0,2.7-8.85,55.9,55.9,0,0,0,8.87,1.08c-1.88,1.28-3.71,2.63-5.5,4m67.69-37.62a49.43,49.43,0,0,1-9.14,10.17c2-4.64,3.77-9.39,5.46-14.11,2.38-6.68,4.57-13.44,6.5-20.26,3.66,8.06,2.05,16.81-2.82,24.21m-1.5-30.81c-2.2,8.35-4.8,16.61-7.69,24.76-2.83,8-5.87,16-10,23.38-1.3.77-2.61,1.5-3.93,2.19-1.93,1-3.91,1.89-5.93,2.72Q116.52,110,123.5,78.94a36.89,36.89,0,0,1,10.75,8.33M12.16,72.67A33.81,33.81,0,0,1,6.61,46.08C8.9,36.25,16.56,30,24.47,24.48,33,18.5,42.11,13,52,9.51c16.67-5.83,37.65-5.33,50.34,8.59,3.64,4,6.18,8.86,8.53,13.69a96.82,96.82,0,0,1,6.08,14.95,36.55,36.55,0,0,1,1.54,15.5,27.94,27.94,0,0,1-5,12.14c-5.65,7.93-14.78,13-24.06,15.32-12.28,3.11-25.15,2.22-37.66,1.41a3,3,0,0,0-2.85,2.17,19.47,19.47,0,0,1-13.38,14.9,20.39,20.39,0,0,0-.65-16.41c0-.05,0-.1-.07-.15l-.1-.2c0-.05-.06-.09-.09-.15l0-.07A2.51,2.51,0,0,0,33.12,90c-7.69-4.67-15.68-9.93-21-17.36"/><path class="cls-1" d="M34,58.5l.6-.46a3,3,0,0,0,.76-1.3l.11-.79a2.89,2.89,0,0,0-.08-.63,2.19,2.19,0,0,0,.2-.23,2.22,2.22,0,0,0,.53-1,2.24,2.24,0,0,0,.05-1.18,2.2,2.2,0,0,0-.35-1.1l-.46-.6a2.94,2.94,0,0,0-1.3-.76l-.79-.11a3,3,0,0,0-1.49.4l-.17.12a8.93,8.93,0,0,0-.72.56,5.77,5.77,0,0,0-.71.87,2.15,2.15,0,0,0-.21.35,6.84,6.84,0,0,0-.43,1.05,7.2,7.2,0,0,0-.17,1.13,2.35,2.35,0,0,0,0,.42,6.42,6.42,0,0,0,.17,1.13,5.65,5.65,0,0,0,.44,1.06,3.31,3.31,0,0,0,1.77,1.36,2.25,2.25,0,0,0,1.18.05A2.2,2.2,0,0,0,34,58.5"/><path class="cls-1" d="M52.11,58.57a3,3,0,0,0,5.4.71,3.29,3.29,0,0,0,.3-2.28l-1.22-6.24A3,3,0,0,0,55.23,49a3,3,0,0,0-4,1.06,3.29,3.29,0,0,0-.3,2.28l1.22,6.23"/><path class="cls-1" d="M76.6,52a6.47,6.47,0,0,1,.18.66,6.34,6.34,0,0,1,0,.86,3.09,3.09,0,0,0,.31,2.18,3,3,0,0,0,4,1.06A3,3,0,0,0,82.48,55a8.48,8.48,0,0,0,0-3.8,5.9,5.9,0,0,0-.32-1.11,9.24,9.24,0,0,0-.84-1.73A3.14,3.14,0,0,0,79.58,47,2.24,2.24,0,0,0,78.4,47a2.2,2.2,0,0,0-1.1.35,3,3,0,0,0-1.06,4,5.87,5.87,0,0,1,.36.67"/><path class="cls-1" d="M96.12,51.21a7.18,7.18,0,0,1,.25.93,7.23,7.23,0,0,1,0,1.06,6.92,6.92,0,0,1-.31,1.12,3,3,0,0,0,.3,2.28,3,3,0,0,0,4,1.06l.6-.46a3,3,0,0,0,.76-1.3,9.66,9.66,0,0,0,.5-2.33,7.32,7.32,0,0,0,0-1.7,10,10,0,0,0-1.49-4.47A3.13,3.13,0,0,0,99,46a3,3,0,0,0-2.28.3,3,3,0,0,0-1.06,4,7.23,7.23,0,0,1,.45.84"/></svg>