<svg width="804" height="11" viewBox="0 0 804 11" fill="none" xmlns="http://www.w3.org/2000/svg">
<path d="M62.8652 6.73425C65.3182 6.78125 69.9652 6.82306 75.9912 6.86706V6.84558C77.1052 6.81058 77.896 6.77325 78.291 6.73425C91.237 6.99125 167.553 7.1061 177.951 8.1571C180.181 8.3821 182.41 8.51753 184.64 8.59753C194.115 8.33353 203.592 7.63354 213.071 7.93054C217.032 7.82554 220.993 7.80597 224.954 7.99597C227.564 8.11997 230.175 8.18088 232.786 8.20788C235.959 8.19088 239.133 8.17688 242.306 8.20788C246.683 8.18588 251.059 8.16317 255.435 8.27917C271.974 8.71717 318.562 9.90926 336.401 10.0673C345.349 9.91125 402.838 9.19769 432.058 9.21569C438.967 9.21569 444.493 9.24583 447.687 9.33483C463.655 9.77783 479.62 10.5354 495.587 10.6854C497.742 10.7061 499.897 10.7154 502.051 10.7147C524.935 10.688 547.817 10.657 570.699 10.621C590.399 10.558 610.099 10.3206 629.791 10.3026C645.247 10.2916 683.156 10.2711 720.597 10.2391V10.246C751.534 10.221 783.241 10.1902 803.65 10.1512V5.04479C803.038 5.06346 802.424 5.08649 801.81 5.11315C776.586 6.21315 751.358 4.60065 726.133 5.96765C712.757 6.69265 650.855 6.55781 633.287 5.71081C619.126 5.02881 543.687 6.22818 520.149 6.32018C500.77 6.39618 422.204 4.65033 402.296 4.68933C380.052 4.73333 312.162 6.83651 300.461 4.93151C295.797 4.17051 217.354 3.00129 196.67 3.52429C181.184 3.91495 165.705 3.60743 150.234 2.60143C137.234 1.74643 45.9633 2.35634 34.3833 1.48034C22.9632 0.645876 11.4973 0.645876 0.0771484 1.48034V7.16296C22.9681 7.32596 59.1912 7.08725 62.8652 6.73425Z" fill="black"/>
</svg>
