<svg id="Capa_1" data-name="Capa 1" xmlns="http://www.w3.org/2000/svg" xmlns:xlink="http://www.w3.org/1999/xlink" viewBox="0 0 370 378"><defs><style>.cls-1{fill:none;}.cls-2{clip-path:url(#clip-path);}.cls-3{clip-path:url(#clip-path-2);}.cls-4{clip-path:url(#clip-path-3);}.cls-5{fill:#fff;}.cls-6{fill:#231f20;}</style><clipPath id="clip-path"><path class="cls-1" d="M-152.31,616H-77c-14.16-.08-27.8-.13-40.75-.13-12.16,0-23.71,0-34.54.13"/></clipPath><clipPath id="clip-path-2"><path class="cls-1" d="M226.13-425.41c-40.92.69-79.76,1.38-81.37,1s-14.79-.41-29.09-.4c-16.92,0-35.38,0-38-.68-4.87-1.3-21,1.34-21,1.34l-.39,4.63s-.61,62.2-1.06,63.87c-.34,1.27-1.19,15.62-1.19,23.19a19.52,19.52,0,0,0,.28,4.49c.3.71,14.32.52,29.29.34,15.65-.2,32.32-.39,35.41.44,6,1.62,196.92-1.15,199.73-1.29,1.84-.09,1.61-1.11,1.39-2.38a5,5,0,0,1,0-2.16c.24-.89,0-6.17-.18-12.48-.29-8.47-.57-18.8.23-22.8,1.4-7,1.53-56.09,2-57.76.08-.28-4.74-.39-12.82-.39-17.7,0-51.09.54-83.19,1.08"/></clipPath><clipPath id="clip-path-3"><path class="cls-1" d="M1139.35-697.57c-6.91.77-47.73.47-86,.16-34.07-.27-66.14-.54-70.51-.05-4.1.46-15.69.31-27.27.16-14.65-.18-29.26-.37-28.59.66.52.81-.62,11.44-1.76,23.83-1.48,16-3,35-.83,39.38s1.4,15.23.63,24.05c-.57,6.57-1.14,12.05-.5,13a2.45,2.45,0,0,1-.12,2.4c-.6,1.42-1.2,2.55,3.73,2.65,7.56.15,83.3-.83,100.08-1.22,9.06-.21,37.4.08,67.43.37,41.77.4,86.79.8,87.75-.14,2.28-2.24,4-25.7,2.82-27.55s5.18-71.11,5.18-71.11l-1-5.16s-24.41-1.89-40.81-1.89a99.37,99.37,0,0,0-10.2.4"/></clipPath></defs><title>Elementos 2</title><path class="cls-5" d="M23.31,107.47l4.63,17.1,12.37,9.84-5.5,4.38-11.5,10-6.93,14.44s-4,18.54-3.58,19.72,3.58,17.75,3.58,17.75l6.38,8.69,31.33,2,34.86-8.16,8-7-3.08-22.31-6.36-14.46L76,140.93l-12.79-5.52L72.1,129,78,113.9,75.77,99,66.25,90.9,53.44,84.45h-12L30.26,90.63,22.89,103.3Z"/><path class="cls-5" d="M152,36.8l4.63,17.1L169,63.75l-5.5,4.38-11.5,10-6.93,14.43s-4,18.54-3.58,19.72S145.11,130,145.11,130l6.38,8.69,31.33,2,34.86-8.16,8-7-3.08-22.31L216.2,88.72,204.78,70.26,192,64.74l8.84-6.4,5.89-15.11-2.22-14.91L195,20.23l-12.81-6.45h-12L159,20l-7.37,12.66Z"/><path class="cls-5" d="M281.9,96.74l4.63,17.1,12.37,9.84-5.5,4.38-11.5,10L275,152.5s-4,18.54-3.58,19.72S275,190,275,190l6.38,8.69,31.33,2,34.86-8.16,8-7-3.08-22.31-6.36-14.46L334.63,130.2l-12.79-5.52,8.84-6.4,5.89-15.11-2.22-14.91-9.52-8.09L312,73.72h-12L288.85,79.9l-7.37,12.66Z"/><path class="cls-5" d="M233.89,254.64l4.63,17.1,12.37,9.84-5.5,4.38-11.5,10L227,310.39s-4,18.54-3.58,19.72S227,347.86,227,347.86l6.38,8.69,31.33,2,34.86-8.16,8-7L304.41,321,298,306.56,286.62,288.1l-12.79-5.52,8.84-6.4,5.89-15.11-2.22-14.91-9.52-8.09L264,231.62h-12l-11.21,6.18-7.37,12.67Z"/><path class="cls-5" d="M81.68,257.79l4.63,17.1,12.37,9.84-5.5,4.38-11.5,10-6.93,14.44s-4,18.54-3.58,19.72S74.74,351,74.74,351l6.38,8.69,31.33,2,34.86-8.16,8-7-3.08-22.31-6.37-14.46-11.42-18.46-12.79-5.52,8.84-6.4,5.89-15.11-2.22-14.91-9.52-8.09-12.81-6.45h-12l-11.21,6.18-7.37,12.67Z"/><path class="cls-6" d="M51.25,215.69A102.34,102.34,0,0,0,80.81,211c5.69-1.8,12.26-3.51,15.26-8.56a2.48,2.48,0,0,0,2-2.12c1.54-16.14-8.44-57.82-29.24-62.83,11-8,15.87-22.82,9.63-36.08-7.76-16.47-31.06-23-46-12.46a2.39,2.39,0,0,0-1,1.43c-8.38,5.18-13.43,13.9-11.46,26.4a31.66,31.66,0,0,0,15.19,22c-22,7.93-28.34,44-23.65,64.08,0,.12.05.24.08.36s.09.4.14.6a2.94,2.94,0,0,0,.45,1c5.13,11,29.61,11.12,39,11m-15.73-6.27c-6.76-.89-13.32-2.8-18.09-6.71a3.29,3.29,0,0,0-.08-.52c-5.55-21.52,2.74-51.13,23.78-60.71.42.15,20.82-.24,21.2-.39,23.08,3.77,27.32,36.86,30.8,56.44-2.53,5.55-13.9,8.21-19.44,9.61-1,.26-12.66,3.19-13.69,3.41.48-.37-24.48-1.14-24.48-1.14m-9.81-93.86c-2.34-12.9,4.75-20.59,14.64-24.7C53.18,87.54,68.9,92.13,73.7,105.7c5,14.29-4.41,28.76-19,31.07-13.45,2.12-26.54-7.89-28.95-21.2"/><path class="cls-6" d="M178.62,141.75A102.37,102.37,0,0,0,208.18,137c5.69-1.8,12.26-3.51,15.26-8.57a2.48,2.48,0,0,0,2-2.12C227,110.19,217,68.5,196.21,63.49c11-8,15.87-22.82,9.63-36.08-7.76-16.47-31.06-23-46-12.46a2.39,2.39,0,0,0-1,1.43c-8.38,5.18-13.43,13.9-11.46,26.4a31.66,31.66,0,0,0,15.19,22c-22,7.93-28.34,44-23.65,64.08,0,.12.05.24.08.36s.09.4.14.6a2.94,2.94,0,0,0,.45,1c5.13,11,29.61,11.12,39,11m-15.73-6.27c-6.76-.89-13.32-2.8-18.09-6.71a3.26,3.26,0,0,0-.08-.52c-5.56-21.52,2.74-51.13,23.78-60.71.42.15,20.82-.24,21.2-.39,23.08,3.77,27.32,36.85,30.8,56.44-2.53,5.55-13.9,8.21-19.44,9.61-1,.26-12.66,3.19-13.69,3.41.48-.37-24.48-1.14-24.48-1.14m-9.81-93.86c-2.34-12.9,4.74-20.59,14.64-24.7,12.82-3.32,28.54,1.27,33.34,14.84,5,14.28-4.41,28.76-19,31.07-13.45,2.12-26.54-7.89-28.95-21.2"/><path class="cls-6" d="M310.28,203.11a102.37,102.37,0,0,0,29.56-4.74c5.69-1.8,12.26-3.51,15.26-8.56a2.48,2.48,0,0,0,2-2.12c1.54-16.14-8.43-57.82-29.24-62.83,11-8,15.87-22.82,9.63-36.08-7.76-16.47-31.06-23-46-12.46a2.39,2.39,0,0,0-1,1.43c-8.38,5.18-13.43,13.9-11.46,26.4a31.65,31.65,0,0,0,15.19,22c-22,7.93-28.34,44-23.65,64.08,0,.12.05.24.08.36s.09.4.14.6a2.93,2.93,0,0,0,.45,1c5.13,11,29.61,11.12,39,11m-15.73-6.27c-6.76-.89-13.32-2.8-18.09-6.71a3.29,3.29,0,0,0-.08-.52c-5.55-21.52,2.74-51.13,23.78-60.71.42.15,20.82-.24,21.2-.39,23.08,3.77,27.32,36.85,30.8,56.44-2.53,5.55-13.9,8.21-19.44,9.61-1,.26-12.66,3.19-13.69,3.41.48-.37-24.48-1.14-24.48-1.14M284.74,103c-2.34-12.9,4.74-20.59,14.64-24.71,12.82-3.32,28.54,1.27,33.34,14.84,5,14.29-4.41,28.76-19,31.07-13.45,2.12-26.54-7.89-28.95-21.2"/><path class="cls-6" d="M262.51,361a102.37,102.37,0,0,0,29.56-4.74c5.69-1.8,12.26-3.51,15.26-8.56a2.48,2.48,0,0,0,2-2.12c1.54-16.14-8.44-57.82-29.24-62.83,11-8,15.87-22.82,9.63-36.08-7.76-16.47-31.06-23-46-12.46a2.4,2.4,0,0,0-1,1.43c-8.38,5.18-13.43,13.9-11.46,26.4a31.65,31.65,0,0,0,15.19,22c-22,7.93-28.34,44-23.65,64.08,0,.12.05.24.08.36s.09.4.14.6a2.94,2.94,0,0,0,.45,1c5.13,11,29.61,11.12,39,11m-15.73-6.27c-6.76-.89-13.32-2.8-18.09-6.71a3.3,3.3,0,0,0-.08-.52c-5.55-21.52,2.74-51.13,23.78-60.71.42.15,20.82-.24,21.2-.39,23.08,3.77,27.32,36.85,30.8,56.44-2.53,5.55-13.9,8.21-19.44,9.61-1,.26-12.66,3.19-13.69,3.41.48-.37-24.48-1.14-24.48-1.14M237,260.87c-2.34-12.9,4.74-20.59,14.64-24.7,12.82-3.32,28.54,1.27,33.34,14.84,5,14.29-4.41,28.76-19,31.07-13.45,2.12-26.54-7.89-28.95-21.2"/><path class="cls-6" d="M110.06,364.15a102.34,102.34,0,0,0,29.56-4.74c5.69-1.8,12.26-3.51,15.26-8.56a2.48,2.48,0,0,0,2-2.12c1.54-16.14-8.44-57.82-29.24-62.83,11-8,15.87-22.82,9.62-36.08-7.76-16.47-31.06-23-46-12.46a2.4,2.4,0,0,0-1,1.43c-8.38,5.18-13.43,13.9-11.46,26.4a31.65,31.65,0,0,0,15.19,22c-22,7.93-28.34,44-23.65,64.08,0,.12.05.24.08.36s.09.4.14.6a2.94,2.94,0,0,0,.45,1c5.13,11,29.61,11.12,39,11m-15.73-6.27c-6.76-.89-13.32-2.8-18.09-6.71a3.3,3.3,0,0,0-.08-.52c-5.55-21.52,2.74-51.13,23.78-60.71.42.15,20.82-.24,21.2-.39,23.08,3.77,27.32,36.85,30.8,56.44-2.53,5.55-13.9,8.21-19.44,9.61-1,.26-12.66,3.19-13.69,3.41.48-.37-24.48-1.14-24.48-1.14M84.52,264c-2.34-12.9,4.74-20.59,14.64-24.7,12.82-3.32,28.54,1.27,33.34,14.84,5,14.29-4.41,28.76-19,31.07C100,287.34,86.93,277.33,84.52,264"/><path class="cls-6" d="M328.8,232.7c-.72-1.94-3.24-3-4.84-1.28-.78.83-1.53,1.67-2.3,2.51-3,2.44-5.36,5.75-7.66,8.76-2,2.61,2.41,6,4.56,3.52l1.68-1.93c-1.36,9-2.9,18.66-9.21,24.65a1.67,1.67,0,0,0-.24,2c0,.07,0,.13,0,.2,0,.3,0,.61,0,.91a3.65,3.65,0,0,0,3.61,3.61c6.28-.06,7.68-7.9,9.39-12.69a91.06,91.06,0,0,0,4-15,6.7,6.7,0,0,0,3.13,4.22,2.52,2.52,0,0,0,3.63-1.47c1.2-2.89-.87-5.91-2-8.61-1.26-3.13-2.58-6.25-3.75-9.41"/><path class="cls-6" d="M242.83,125.6c5.87.53,2.06-7.64,1.57-10.22a7.52,7.52,0,0,1-.09-.76c1.46,1.53,4.25,2.35,5.84,3.25A63.06,63.06,0,0,1,259,124c3.68,3,8.76-1.76,5.32-5.32a30.7,30.7,0,0,0-12.41-7.62,19.3,19.3,0,0,0-5.4-1,28.62,28.62,0,0,0,8.15-3.27,2.2,2.2,0,0,0-1.1-4.07,29.61,29.61,0,0,0-9,1.25c-2.41.58-5,.9-6.31,3.22-2.43,4.2-.37,11.63,1.2,15.78a3.72,3.72,0,0,0,3.4,2.59"/><path class="cls-6" d="M94.36,131.75c2.83,1.26,5.57,2.78,8.41.89a2.87,2.87,0,0,0,1-3.79c-.76-1.67-2.49-2.33-4.16-2.9a3.29,3.29,0,0,0,.4-.34,70.57,70.57,0,0,1,7.21-7.08,31.68,31.68,0,0,1,4.07-1.52c4.11-1.2,9.21-1.51,9.17-7a3.54,3.54,0,0,0-4.35-3.4H116c-5,.58-9.67,2.77-13.92,5.35a63.94,63.94,0,0,0-5.63,3.74c.2-1.57.4-3.14.46-4.75.08-2.18-2.67-2.51-3.77-1a25.1,25.1,0,0,0-3.92,9.22c-.57,2.41-1.49,5.46-.58,7.86,1,2.57,3.4,3.66,5.75,4.7"/><path class="cls-6" d="M55.76,255.53a53.81,53.81,0,0,0-4,9.66c-4.48-9.06-7.74-18.17-4.91-28.6.83-3.07-1.7-5.06-4.15-5.05a1.81,1.81,0,0,0-2.21.66A3.82,3.82,0,0,0,39,234.42a35.46,35.46,0,0,0-.46,16.28,39.26,39.26,0,0,0,.34,4c.8,5.55,3.78,9.84,6.45,14.44l.58,1.13c-3.09-1.06-6.15-2.21-9.24-3.28-1.91-.66-3.41,2-2,3.38,5.08,4.7,11.15,7.39,17.73,9.35,2.43.73,4.32-1.23,4.55-3.46a45.28,45.28,0,0,1,5.13-17c2.22-4.16-4.13-7.87-6.33-3.7"/><path class="cls-6" d="M205.38,311.68a50.55,50.55,0,0,1-5.1-2.1,41.68,41.68,0,0,1-6.37-4c-3.2-2.62-7.82,1.82-4.62,4.62a38.72,38.72,0,0,0,6.89,4.93l-2.18.29a189.11,189.11,0,0,1-21.73.19c-5.36-.21-5.33,8.07,0,8.32,1.16.05,2.3,0,3.46.08A57.13,57.13,0,0,0,196,325.15a14.44,14.44,0,0,0-2.09,3.68c-1.18,3.19,2.71,5.25,5.25,4,3.17-1.52,5.2-5.13,7.12-8,1.54-2.3,4.18-5.63,3.83-8.59-.31-2.64-2.49-3.81-4.74-4.6"/><path class="cls-6" d="M225.06,226.45a5.2,5.2,0,0,0,1-2c1-1.86,1-4.57-.73-5.93-2.84-2.2-6.89-5.21-10.82-5.45a44,44,0,0,0-.26-9.81,30.88,30.88,0,0,0,6-2.23c2.32-1,4.14-2.29,4.37-5,.25-2.89-1.1-6.14-2-8.84a87.79,87.79,0,0,0-4-9.82c-1.27-2.7-4.07-2.41-5.76-.8-2,.79-3.88,2.75-5.52,4l-1.47,1.17c-5-4.3-11.77-7.17-18.39-7-.77-4-3.35-7.93-5.65-11-3-4-7.45-3.73-11.52-1.72-3.71,1.83-9.32,3.63-10.89,7.88-1.32,3.57,1,8.06,2.81,11.56-5.3,2-10,7.4-11.86,12.45-2.84-1.37-6.57-2.25-8.92-.62-3.48,2.4-3.28,8.52-3.77,12.29-.56,4.26-1.37,9.57,3.28,11.87,3.25,1.6,7.43.53,10.77-.83a44.49,44.49,0,0,0,3.76,6.71,36.35,36.35,0,0,0,5.78,7.26c-2.42,2.76-4.33,7.48-3.77,10.62.82,4.6,8.09,6.15,11.79,7.69,4,1.69,10,5.49,13.31.53,1.06-1.6,1.06-3.75,1.22-5.59,0-.26,0-.5.07-.74a4.19,4.19,0,0,0,2.06-.23,66.53,66.53,0,0,0,13.08-6.27c.89-.56,1.82-1.14,2.69-1.76,2.05,3.91,5.81,7.59,9.84,6.48,3.06-.85,4.8-3.93,6.66-6.27l6.82-8.55m-43.33-31c4.06-.18,8,.08,10.7,3.65a12.24,12.24,0,0,1,2.18,5.53c0,.06,0,.12,0,.17a14,14,0,0,1-4.58,7.75c-1.79,1.55-4.53,3.5-6.91,3.86-4,.6-8.07-3.78-9.57-7-3.2-6.84,1.45-13,8.16-14m-5.21-9.11s0-.07,0-.11l.15,0-.16.08m5,48.55.07-.1a4.23,4.23,0,0,0,.44-.09l.38.14a4.34,4.34,0,0,0-.39.3,4.16,4.16,0,0,0-.5-.26"/><rect class="cls-1" x="-289" y="-464" width="1920" height="1080"/></svg>