<svg id="Capa_1" data-name="Capa 1" xmlns="http://www.w3.org/2000/svg" xmlns:xlink="http://www.w3.org/1999/xlink" viewBox="0 0 31.7 69">
    <defs>
        <clipPath id="clip-path">
            <path class="cls-1" d="M1069.35,7.43c-6.91.77-47.73.47-86,.16-34.07-.27-66.14-.54-70.51-.05-4.1.46-15.69.31-27.27.16-14.65-.18-29.26-.37-28.59.66.52.81-.62,11.44-1.76,23.83-1.48,16-3,35-.83,39.38s1.4,15.23.63,24.05c-.57,6.57-1.14,12.05-.5,13a2.45,2.45,0,0,1-.12,2.4c-.6,1.42-1.2,2.55,3.73,2.65,7.56.15,83.3-.83,100.08-1.22,9.06-.21,37.4.08,67.43.37,41.77.4,86.79.8,87.75-.14,2.28-2.24,4-25.7,2.82-27.55s5.18-71.11,5.18-71.11l-1-5.16S1095.95,7,1079.54,7a99.37,99.37,0,0,0-10.2.4"/>
        </clipPath>
    </defs>
    <path class="cls-3" d="M25.87,33.59l-17-21c-.52-.64-1.34-1.24-1.46-1.94A16.22,16.22,0,0,1,7.58,7c1.28.12,3-.22,3.75.46a41.07,41.07,0,0,1,4.56,5.4c4.85,6,9.64,12,14.57,18,1.59,1.91,1.71,3.42.08,5.4C24.32,43.77,18.22,51.39,12.09,59c-1.2,1.48-2.55,2.7-4.39,1.21s-.89-3.07.3-4.54C13.9,48.4,19.77,41.13,25.87,33.59"/>
</svg>
