<svg width="348" height="356" viewBox="0 0 348 356" fill="none" xmlns="http://www.w3.org/2000/svg">
<path d="M13.3071 98.4709L17.9331 115.571L30.3051 125.411L24.8051 129.789L13.3051 139.789L6.37005 154.224C6.37005 154.224 2.37006 172.762 2.78906 173.947C3.20806 175.132 6.37005 191.693 6.37005 191.693L12.748 200.387L44.0751 202.35L78.9311 194.193L86.9101 187.16L83.826 164.852L77.4611 150.387L66.037 131.927L53.2511 126.407L62.0951 120.007L67.9831 104.894L65.7661 89.9869L56.248 81.897L43.4391 75.452H31.4741L20.2591 81.632L12.886 94.297L13.3071 98.4709Z" fill="white"/>
<path d="M142.047 27.804L146.674 44.9039L159.045 54.743L153.545 59.121L142.045 69.121L135.111 83.556C135.111 83.556 131.111 102.093 131.53 103.278C131.949 104.463 135.111 121.025 135.111 121.025L141.488 129.719L172.815 131.682L207.671 123.525L215.65 116.492L212.566 94.183L206.201 79.719L194.777 61.259L181.991 55.739L190.835 49.339L196.723 34.226L194.506 19.3199L184.988 11.229L172.18 4.78394H160.214L149 10.967L141.627 23.632L142.047 27.804Z" fill="white"/>
<path d="M271.9 87.739L276.526 104.839L288.898 114.678L283.398 119.056L271.898 129.056L264.963 143.491C264.963 143.491 260.963 162.028 261.382 163.213C261.801 164.398 264.963 180.96 264.963 180.96L271.341 189.654L302.667 191.617L337.524 183.46L345.503 176.426L342.419 154.118L336.054 139.654L324.63 121.194L311.844 115.674L320.687 109.274L326.576 94.161L324.359 79.255L314.841 71.1639L302.032 64.719H290.064L278.849 70.9L271.476 83.5649L271.9 87.739Z" fill="white"/>
<path d="M223.893 245.636L228.519 262.736L240.891 272.575L235.391 276.953L223.891 286.953L216.956 301.388C216.956 301.388 212.956 319.926 213.375 321.111C213.794 322.296 216.956 338.858 216.956 338.858L223.334 347.551L254.661 349.515L289.517 341.357L297.496 334.324L294.412 312.016L288.047 297.551L276.623 279.092L263.837 273.572L272.681 267.172L278.569 252.059L276.352 237.153L266.834 229.062L254.025 222.617H242.06L230.845 228.797L223.472 241.463L223.893 245.636Z" fill="white"/>
<path d="M71.6783 248.791L76.3002 265.891L88.6722 275.73L83.1722 280.108L71.6722 290.108L64.7372 304.543C64.7372 304.543 60.7372 323.081 61.1562 324.266C61.5752 325.451 64.7372 342.013 64.7372 342.013L71.1152 350.706L102.441 352.67L137.298 344.512L145.277 337.479L142.2 315.171L135.835 300.706L124.411 282.247L111.625 276.727L120.468 270.327L126.357 255.214L124.14 240.308L114.622 232.217L101.813 225.772H89.8452L78.6302 231.952L71.2572 244.618L71.6783 248.791Z" fill="white"/>
<path d="M41.254 206.691C51.2854 206.567 61.2441 204.97 70.8111 201.951C76.4991 200.151 83.07 198.443 86.073 193.387C86.5874 193.29 87.0578 193.032 87.417 192.651C87.7762 192.271 88.0058 191.786 88.073 191.267C89.61 175.13 79.637 133.449 58.836 128.437C69.791 120.426 74.71 105.619 68.461 92.3619C60.698 75.8949 37.397 69.397 22.474 79.901C21.9752 80.236 21.6201 80.7459 21.479 81.33C13.099 86.507 8.05205 95.23 10.018 107.73C10.7971 112.276 12.5599 116.597 15.1831 120.391C17.8064 124.184 21.2268 127.359 25.205 129.693C3.18103 137.621 -3.13395 173.738 1.55305 193.773C1.58205 193.893 1.60504 194.015 1.63704 194.133C1.68404 194.333 1.72404 194.533 1.77504 194.733C1.86442 195.08 2.01697 195.408 2.22505 195.7C7.35905 206.701 31.843 206.812 41.254 206.691ZM25.5231 200.415C18.7661 199.53 12.2021 197.61 7.43306 193.709C7.41977 193.534 7.39301 193.361 7.35304 193.19C1.79704 171.666 10.089 142.058 31.128 132.479C31.551 132.628 51.948 132.242 52.328 132.089C75.408 135.857 79.651 168.944 83.128 188.531C80.6 194.077 69.228 196.742 63.688 198.143C62.669 198.401 51.029 201.332 50.001 201.556C50.4841 201.191 25.5231 200.417 25.5231 200.417V200.415ZM15.716 106.56C13.38 93.6599 20.461 85.973 30.358 81.855C43.18 78.541 58.899 83.1239 63.695 96.6949C68.744 110.98 59.286 125.457 44.664 127.761C31.212 129.883 18.126 119.875 15.716 106.562V106.56Z" fill="#231F20"/>
<path d="M168.622 132.747C178.653 132.623 188.612 131.026 198.179 128.007C203.867 126.207 210.438 124.499 213.44 119.442C213.954 119.345 214.425 119.088 214.784 118.708C215.144 118.327 215.373 117.842 215.44 117.323C216.977 101.186 207.005 59.5051 186.204 54.4931C197.158 46.4821 202.078 31.675 195.828 18.417C188.066 1.95102 164.765 -4.54694 149.842 5.95706C149.341 6.29089 148.985 6.80052 148.842 7.38504C140.463 12.562 135.416 21.2851 137.382 33.7851C138.16 38.3312 139.923 42.6521 142.546 46.4457C145.17 50.2393 148.59 53.4138 152.569 55.747C130.544 63.675 124.23 99.793 128.916 119.828C128.945 119.948 128.968 120.07 129 120.187C129.048 120.387 129.088 120.592 129.139 120.787C129.228 121.134 129.381 121.462 129.588 121.754C134.727 132.755 159.211 132.865 168.622 132.747ZM152.891 126.471C146.134 125.586 139.57 123.671 134.801 119.765C134.788 119.59 134.761 119.417 134.72 119.246C129.165 97.721 137.457 68.1141 158.496 58.5351C158.918 58.6831 179.316 58.298 179.696 58.145C202.776 61.913 207.019 94.9991 210.496 114.587C207.967 120.133 196.596 122.797 191.056 124.199C190.036 124.457 178.396 127.387 177.369 127.611C177.852 127.245 152.891 126.471 152.891 126.471ZM143.084 32.616C140.748 19.716 147.829 12.029 157.726 7.91604C170.547 4.60104 186.267 9.18403 191.063 22.755C196.112 37.041 186.653 51.5181 172.032 53.8211C158.579 55.9361 145.494 45.928 143.084 32.616Z" fill="#231F20"/>
<path d="M300.28 194.106C310.311 193.982 320.27 192.385 329.837 189.366C335.525 187.566 342.096 185.858 345.099 180.801C345.613 180.704 346.084 180.447 346.443 180.066C346.802 179.686 347.032 179.201 347.099 178.682C348.636 162.545 338.663 120.864 317.862 115.852C328.817 107.841 333.736 93.034 327.487 79.776C319.724 63.31 296.424 56.8121 281.501 67.3161C281 67.6499 280.644 68.1595 280.501 68.744C272.121 73.922 267.074 82.6441 269.04 95.1441C269.819 99.6903 271.582 104.011 274.205 107.805C276.829 111.599 280.249 114.773 284.228 117.107C262.203 125.035 255.888 161.152 260.575 181.187C260.604 181.307 260.627 181.429 260.659 181.546C260.706 181.746 260.747 181.951 260.797 182.146C260.886 182.493 261.039 182.821 261.247 183.113C266.385 194.114 290.869 194.224 300.28 194.106ZM284.55 187.83C277.792 186.945 271.228 185.03 266.459 181.124C266.447 180.949 266.42 180.775 266.379 180.605C260.824 159.08 269.115 129.473 290.155 119.894C290.577 120.042 310.975 119.657 311.355 119.504C334.435 123.272 338.678 156.358 342.155 175.946C339.627 181.492 328.255 184.157 322.716 185.558C321.696 185.816 310.056 188.746 309.028 188.97C309.511 188.604 284.55 187.83 284.55 187.83ZM274.743 93.975C272.407 81.075 279.487 73.3881 289.385 69.2751C302.206 65.9611 317.925 70.543 322.722 84.114C327.77 98.4 318.312 112.877 303.69 115.18C290.238 117.296 277.153 107.291 274.743 93.975Z" fill="#231F20"/>
<path d="M252.51 352.003C262.541 351.88 272.5 350.283 282.067 347.263C287.755 345.463 294.326 343.756 297.328 338.699C297.842 338.602 298.313 338.345 298.672 337.964C299.032 337.584 299.261 337.099 299.328 336.58C300.865 320.443 290.893 278.761 270.092 273.749C281.046 265.739 285.966 250.932 279.716 237.674C271.954 221.207 248.653 214.71 233.73 225.214C233.229 225.548 232.873 226.057 232.73 226.642C224.351 231.819 219.303 240.542 221.27 253.042C222.049 257.588 223.811 261.909 226.434 265.703C229.058 269.496 232.478 272.671 236.457 275.004C214.432 282.932 208.117 319.05 212.804 339.085C212.833 339.205 212.856 339.327 212.888 339.444C212.935 339.644 212.976 339.844 213.027 340.044C213.116 340.391 213.268 340.719 213.476 341.011C218.615 352.012 243.1 352.122 252.51 352.003ZM236.779 345.728C230.022 344.843 223.458 342.923 218.689 339.022C218.676 338.847 218.649 338.674 218.608 338.503C213.053 316.978 221.345 287.371 242.384 277.791C242.806 277.94 263.204 277.555 263.584 277.401C286.664 281.169 290.907 314.256 294.384 333.844C291.855 339.39 280.484 342.054 274.944 343.456C273.924 343.714 262.284 346.644 261.257 346.868C261.74 346.502 236.779 345.728 236.779 345.728ZM226.972 251.873C224.636 238.973 231.717 231.286 241.614 227.168C254.435 223.853 270.155 228.436 274.951 242.007C280 256.292 270.541 270.77 255.92 273.073C242.467 275.191 229.382 265.185 226.972 251.873Z" fill="#231F20"/>
<path d="M100.061 355.153C110.093 355.03 120.052 353.433 129.619 350.413C135.306 348.613 141.877 346.906 144.88 341.849C145.395 341.752 145.866 341.495 146.225 341.114C146.584 340.733 146.814 340.248 146.88 339.729C148.417 323.592 138.444 281.911 117.643 276.899C128.598 268.889 133.518 254.082 127.268 240.824C119.505 224.357 96.2053 217.86 81.2823 228.364C80.7813 228.697 80.4242 229.207 80.2823 229.792C71.9033 234.969 66.8553 243.692 68.8213 256.192C69.6002 260.738 71.363 265.059 73.9865 268.853C76.61 272.646 80.0307 275.821 84.0093 278.154C61.9843 286.082 55.6693 322.199 60.3563 342.235C60.3853 342.355 60.4083 342.477 60.4403 342.594C60.4873 342.794 60.5283 342.994 60.5783 343.194C60.6674 343.541 60.82 343.869 61.0283 344.16C66.1673 355.162 90.6503 355.272 100.061 355.153ZM84.3313 348.878C77.5733 347.993 71.0093 346.073 66.2413 342.172C66.2282 341.997 66.2011 341.823 66.1603 341.652C60.6053 320.128 68.8963 290.521 89.9363 280.941C90.3583 281.09 110.756 280.705 111.136 280.551C134.215 284.319 138.459 317.406 141.936 336.994C139.408 342.54 128.036 345.204 122.497 346.605C121.477 346.864 109.837 349.794 108.809 350.018C109.292 349.652 84.3313 348.878 84.3313 348.878ZM74.5243 255.023C72.1883 242.123 79.2683 234.436 89.1663 230.323C101.987 227.008 117.706 231.591 122.503 245.162C127.551 259.447 118.093 273.925 103.471 276.228C90.0193 278.343 76.9343 268.335 74.5243 255.023Z" fill="#231F20"/>
<path d="M318.8 223.7C318.084 221.756 315.561 220.721 313.961 222.422C313.184 223.249 312.429 224.094 311.661 224.928C308.703 227.368 306.299 230.677 303.997 233.689C302.006 236.289 306.412 239.696 308.557 237.207C309.114 236.562 309.679 235.924 310.238 235.281C308.874 244.281 307.338 253.942 301.032 259.927C300.769 260.191 300.602 260.535 300.558 260.905C300.513 261.274 300.594 261.648 300.787 261.967C300.78 262.036 300.76 262.098 300.757 262.167C300.744 262.467 300.732 262.776 300.719 263.08C300.729 264.035 301.113 264.948 301.789 265.623C302.464 266.298 303.377 266.682 304.332 266.692C310.617 266.632 312.013 258.792 313.721 254C315.487 249.117 316.832 244.091 317.742 238.979C317.953 239.856 318.34 240.682 318.878 241.407C319.416 242.131 320.096 242.739 320.875 243.195C321.203 243.376 321.568 243.481 321.942 243.503C322.317 243.524 322.691 243.462 323.038 243.321C323.386 243.18 323.697 242.963 323.95 242.686C324.203 242.409 324.391 242.08 324.5 241.721C325.7 238.83 323.631 235.813 322.545 233.113C321.286 229.982 319.965 226.867 318.8 223.7Z" fill="#231F20"/>
<path d="M232.83 116.599C238.704 117.133 234.893 108.959 234.398 106.382C234.354 106.129 234.323 105.875 234.306 105.619C235.766 107.15 238.558 107.968 240.15 108.87C243.256 110.664 246.204 112.719 248.961 115.013C252.646 118.005 257.72 113.25 254.278 109.697C250.813 106.199 246.558 103.584 241.871 102.075C240.126 101.497 238.308 101.171 236.471 101.107C239.34 100.442 242.09 99.3378 244.622 97.834C245.026 97.5851 245.338 97.2126 245.513 96.7718C245.688 96.3309 245.715 95.8454 245.591 95.3876C245.468 94.9298 245.2 94.5243 244.827 94.2313C244.454 93.9384 243.996 93.7738 243.522 93.762C240.484 93.7165 237.456 94.1388 234.546 95.0141C232.132 95.5971 229.577 95.909 228.233 98.235C225.806 102.435 227.861 109.867 229.433 114.012C229.666 114.74 230.116 115.378 230.724 115.841C231.332 116.304 232.067 116.568 232.83 116.599Z" fill="#231F20"/>
<path d="M84.3632 122.747C87.1952 124.003 89.9341 125.53 92.7701 123.641C93.3869 123.254 93.833 122.646 94.0177 121.941C94.2023 121.237 94.1117 120.488 93.7642 119.848C93.0052 118.178 91.2772 117.52 89.6012 116.948C89.7438 116.846 89.8776 116.732 90.0012 116.608C92.2321 114.08 94.6417 111.716 97.2111 109.533C98.5315 108.932 99.8918 108.422 101.282 108.008C105.391 106.808 110.493 106.496 110.456 101.052C110.449 100.523 110.323 100.002 110.087 99.5276C109.852 99.0534 109.513 98.6379 109.096 98.3118C108.679 97.9856 108.195 97.757 107.678 97.6428C107.161 97.5286 106.625 97.5318 106.109 97.652C106.064 97.652 106.027 97.635 105.98 97.64C101.014 98.221 96.3102 100.408 92.0652 102.984C90.1217 104.131 88.2404 105.379 86.4291 106.725C86.6291 105.15 86.8292 103.583 86.8882 101.977C86.9632 99.799 84.2152 99.463 83.1222 100.957C81.209 103.734 79.8751 106.869 79.2002 110.173C78.6352 112.585 77.7051 115.629 78.6151 118.038C79.5871 120.613 82.0132 121.706 84.3632 122.747Z" fill="#231F20"/>
<path d="M45.7568 246.53C44.1225 249.614 42.7923 252.85 41.7848 256.192C37.3098 247.13 34.0458 238.018 36.8738 227.592C37.7078 224.522 35.1738 222.531 32.7208 222.54C32.333 222.376 31.9 222.352 31.4965 222.473C31.0931 222.593 30.7444 222.851 30.5108 223.202C29.7524 223.732 29.212 224.52 28.9898 225.418C27.5739 230.736 27.4151 236.31 28.5258 241.7C28.5701 243.035 28.6826 244.367 28.8628 245.69C29.6628 251.244 32.6428 255.531 35.3148 260.127C35.5068 260.505 35.6995 260.882 35.8928 261.258C32.8018 260.197 29.7398 259.052 26.6488 257.983C24.7368 257.32 23.2368 260.022 24.6828 261.36C29.7638 266.06 35.8318 268.75 42.4098 270.714C44.8388 271.44 46.7309 269.488 46.9589 267.249C47.5264 261.292 49.2693 255.507 52.0868 250.228C54.3108 246.068 47.9608 242.356 45.7568 246.53Z" fill="#231F20"/>
<path d="M195.383 302.681C193.646 302.074 191.944 301.373 190.283 300.581C188.04 299.43 185.907 298.078 183.908 296.542C180.708 293.926 176.084 298.364 179.289 301.161C181.401 303.05 183.713 304.702 186.184 306.088C185.458 306.18 184.731 306.288 184.005 306.381C176.773 306.859 169.519 306.921 162.279 306.567C156.921 306.352 156.945 314.634 162.279 314.885C163.436 314.94 164.585 314.933 165.739 314.962C172.373 316.565 179.24 316.967 186.015 316.149C185.143 317.266 184.44 318.506 183.929 319.828C182.748 323.021 186.639 325.076 189.176 323.861C192.35 322.343 194.376 318.73 196.293 315.872C197.836 313.572 200.476 310.242 200.123 307.281C199.806 304.643 197.634 303.472 195.383 302.681Z" fill="#231F20"/>
<path d="M215.058 217.452C215.531 216.865 215.87 216.183 216.053 215.452C217.065 213.594 217.069 210.884 215.318 209.526C212.474 207.326 208.426 204.318 204.503 204.071C204.784 200.802 204.698 197.512 204.247 194.263C206.311 193.729 208.315 192.982 210.225 192.035C212.546 191.083 214.361 189.744 214.592 187.049C214.839 184.162 213.492 180.911 212.598 178.209C211.469 174.86 210.138 171.582 208.613 168.393C207.339 165.693 204.54 165.982 202.857 167.593C200.811 168.383 198.98 170.341 197.34 171.641C196.861 172.021 196.366 172.409 195.872 172.807C190.872 168.507 184.104 165.639 177.487 165.758C176.714 161.763 174.139 157.825 171.841 154.726C168.866 150.713 164.386 151.001 160.321 153.008C156.606 154.842 151.002 156.639 149.433 160.883C148.111 164.459 150.4 168.943 152.243 172.439C146.943 174.467 142.204 179.839 140.377 184.888C137.541 183.516 133.806 182.64 131.459 184.263C127.977 186.663 128.177 192.784 127.684 196.554C127.126 200.818 126.314 206.124 130.965 208.421C134.219 210.021 138.39 208.95 141.734 207.589C142.792 209.93 144.051 212.176 145.496 214.3C147.105 216.958 149.048 219.398 151.277 221.562C148.861 224.325 146.948 229.042 147.51 232.178C148.333 236.778 155.602 238.327 159.303 239.866C163.353 241.552 169.346 245.353 172.614 240.394C173.67 238.794 173.671 236.641 173.837 234.805C173.86 234.549 173.884 234.305 173.908 234.062C174.604 234.158 175.313 234.078 175.97 233.828C180.547 232.22 184.934 230.116 189.052 227.553C189.94 226.991 190.867 226.414 191.743 225.792C193.794 229.706 197.557 233.386 201.58 232.273C204.636 231.428 206.38 228.341 208.24 226.003C210.512 223.155 212.785 220.305 215.058 217.452ZM171.725 186.452C175.788 186.276 179.715 186.531 182.425 190.104C183.595 191.742 184.343 193.642 184.602 195.638C184.612 195.697 184.612 195.754 184.62 195.812C183.986 198.827 182.376 201.549 180.039 203.558C178.252 205.105 175.508 207.058 173.133 207.414C169.11 208.014 165.064 203.634 163.562 200.422C160.365 193.582 165.018 187.469 171.725 186.451V186.452ZM166.512 177.341C166.512 177.306 166.512 177.268 166.512 177.233C166.563 177.241 166.612 177.255 166.666 177.259L166.512 177.341ZM171.534 225.891L171.6 225.791C171.749 225.77 171.896 225.741 172.042 225.704C172.164 225.757 172.29 225.804 172.42 225.845C172.285 225.938 172.155 226.038 172.031 226.145C171.872 226.049 171.705 225.964 171.534 225.891Z" fill="#231F20"/>
</svg>
