<svg width="140" height="140" viewBox="0 0 140 140" fill="none" xmlns="http://www.w3.org/2000/svg">
<path d="M81.694 41.041C84.042 43.209 85.8471 41.941 88.1101 40.641C92.2661 38.241 89.5101 31.503 84.8261 32.851C79.6929 34.2822 74.4894 35.4475 69.2361 36.3421C64.9571 37.1081 65.8971 44.5971 70.2751 44.0141C74.9074 43.4725 79.4794 42.5017 83.9321 41.114C86.9981 40.114 87.2861 35.473 83.9321 34.599C78.4321 33.166 72.9321 35.178 67.4941 36.308C63.9001 37.054 60.0941 36.858 59.1271 40.836C57.6411 46.953 59.9161 56.251 60.4571 62.526C60.9571 68.347 60.9201 74.29 63.4231 79.642C64.1321 81.159 65.9641 81.51 67.4231 81.271C70.5021 80.765 72.2111 82.105 74.5841 79.771C76.9011 77.49 77.0291 72.451 77.6321 69.4571C78.6761 64.271 79.4571 58.919 81.3781 53.957C83.1901 49.278 86.8131 45.6311 87.8311 40.6911C87.9929 40.0201 87.9567 39.3165 87.727 38.6657C87.4973 38.0148 87.0839 37.4445 86.5367 37.0238C85.9895 36.6031 85.3321 36.3501 84.6441 36.2953C83.9561 36.2405 83.2669 36.3862 82.6601 36.715C78.4837 38.6962 73.9719 39.874 69.3601 40.187C67.8601 40.299 66.0871 41.246 65.7951 42.903C64.0453 52.8611 63.4934 62.9928 64.1511 73.0821C64.3891 76.9061 69.7041 78.8981 71.7461 75.1391C75.8591 67.5671 74.3741 58.223 78.1301 50.479C80.3881 45.823 73.4411 41.72 71.1521 46.401C67.3861 54.101 68.7001 63.623 64.7071 71.025L72.3071 73.0821C71.5688 63.3483 71.8221 53.5645 73.0631 43.882L69.3631 47.582C75.2002 46.8927 80.8898 45.2756 86.2171 42.792L81.0451 38.817C80.2691 42.639 77.3401 45.722 75.7331 49.234C74.1001 53.0097 72.873 56.9481 72.0721 60.983C71.2171 64.8601 70.1491 68.867 69.6251 72.792C69.2791 75.379 68.1411 75.061 70.0671 74.183C70.2071 74.119 65.5671 74.43 65.5431 74.435L69.5431 76.063C65.9931 68.623 66.9381 56.936 66.1431 48.834C65.9771 47.14 65.1961 44.392 65.6141 42.744C66.0931 40.853 65.4141 42.312 67.8301 42.767C72.6171 43.667 76.8711 39.306 82.1301 41.111V34.596C78.2242 35.4376 74.2584 35.9727 70.2691 36.1961V44.008C75.9568 43.5729 81.5888 42.5869 87.0861 41.064C85.9914 38.464 84.8967 35.8677 83.8021 33.275C82.6169 33.9662 81.6827 35.0171 81.1351 36.275C80.9351 36.685 80.3591 40.4841 81.0481 38.6131C80.9252 39.037 80.9199 39.4863 81.0326 39.9131C81.1453 40.3399 81.3719 40.728 81.6881 41.036L81.694 41.041Z" fill="white"/>
<path d="M72.7001 96.803L72.9261 96.619C74.0961 95.664 73.5201 93.9269 72.4861 93.2059C69.8661 91.3779 65.1551 89.944 63.1331 93.311C62.1961 94.871 62.1971 96.9359 62.1591 98.7059C62.1201 100.578 62.035 102.882 63.082 104.506C64.141 106.153 66.0971 106.35 67.8531 106.706C69.6531 107.073 71.4931 107.274 72.9431 105.885C74.4591 104.433 74.5101 102.45 74.4061 100.485C74.4203 98.6254 74.2788 96.7679 73.983 94.932C73.7447 94.1098 73.1949 93.4132 72.4506 92.9905C71.7062 92.5678 70.8262 92.4524 69.998 92.6689L69.9161 92.6899C69.2692 92.8878 68.7007 93.2839 68.2909 93.8221C67.8811 94.3604 67.6507 95.0137 67.6321 95.6899C67.6027 96.5958 67.6522 97.5027 67.7801 98.4L67.8911 100.137L67.936 100.837C67.8027 101.722 68.036 101.783 68.636 101.019L70.264 100.579C69.3119 100.554 68.3672 100.404 67.454 100.133L68.6011 101.281C68.4394 100.555 68.3962 99.8077 68.4731 99.068C68.5949 98.2299 68.61 97.3798 68.5181 96.5379C68.6454 95.8199 68.3674 95.9713 67.6841 96.9919C68.0052 96.9942 68.3254 97.0278 68.6401 97.092C68.9051 97.123 71.1591 97.61 70.4651 97.092C70.8175 97.293 71.2258 97.3735 71.6281 97.3218C72.0305 97.27 72.405 97.0885 72.6951 96.8049L72.7001 96.803Z" fill="white"/>
<path d="M62.241 83.491C63.203 83.9755 64.2791 84.1878 65.353 84.105C67.402 84.233 69.453 84.36 71.503 84.47C73.881 84.598 75.503 83.7519 76.321 81.4039C76.8672 79.6856 77.2197 77.9116 77.372 76.115C80.172 67.396 81.959 58.671 85.65 50.186C87.35 46.277 93.73 37.9419 91.214 33.2989C88.974 29.1679 82.894 30.899 79.358 31.499C72.873 32.609 63.873 33.2299 58.339 37.2519C58.225 37.2014 58.1007 37.1782 57.9761 37.1842C57.8516 37.1902 57.7301 37.2253 57.6215 37.2866C57.5128 37.3479 57.4201 37.4338 57.3505 37.5373C57.281 37.6409 57.2367 37.7592 57.221 37.8829C55.002 51.7469 55.349 70.008 61.509 82.901C61.5785 83.0482 61.6805 83.1778 61.8073 83.28C61.9341 83.3822 62.0824 83.4543 62.241 83.491ZM59.157 39.198C64.4818 37.9146 69.8702 36.9109 75.3 36.191C77.224 35.884 83.4 33.9539 85.237 34.7469C88.93 36.3409 84.743 42.185 83.808 44.219C79.834 52.864 75.024 62.887 74.586 72.707C74.023 74.717 73.886 76.82 73.509 78.967C73.072 81.422 71.376 81.257 69.264 81.267C67.4628 81.3146 65.6605 81.2692 63.864 81.131C63.264 74.158 61.354 67.34 60.572 60.374C59.784 53.322 59.537 46.2719 59.157 39.1999V39.198Z" fill="#231F20"/>
<path d="M75.0739 106.704C76.5049 103.966 75.7939 99.4169 75.9169 96.3929C76.0089 94.1129 76.7169 90.4579 74.2539 89.0549C71.7909 87.6519 58.9399 86.755 60.2659 92.03C59.4299 93.549 59.3969 95.439 59.3069 97.339C59.1709 100.239 58.6579 103.839 60.4569 106.35C62.1569 108.721 64.9569 108.95 67.6569 108.92C70.1769 108.891 73.7079 109.321 75.0739 106.704ZM66.6829 105.576C65.9059 105.538 64.4009 105.571 63.8139 105.051C62.9279 104.264 62.5679 102.509 62.4579 101.375C62.1436 98.6346 62.2109 95.8638 62.6579 93.142C62.794 92.9957 62.8982 92.8227 62.9639 92.634C63.5109 91.034 67.4289 91.5439 68.6639 91.6009C71.3439 91.7239 72.7459 92.3619 72.6299 95.1589C72.5299 97.4589 73.3699 104.596 70.8849 105.47C69.4979 105.72 68.0807 105.756 66.6829 105.576Z" fill="#231F20"/>
<path d="M93.2841 4.10299C84.1271 0.68899 75.2442 -0.536024 72.4972 1.23898C71.0343 2.05161 69.3118 2.26049 67.6972 1.82101C62.8132 0.278007 44.2971 5.48497 34.8441 11.057C28.9167 14.7342 23.4699 19.1346 18.6292 24.1569C-12.2198 57.8269 -2.07088 111.281 39.0611 131.83C78.3391 151.451 123.897 129.978 137.051 85.6429C146.782 52.8659 127.443 16.84 93.2841 4.10299ZM113.791 107.16C80.3462 144.36 21.4071 127.66 12.7371 78.524C7.21215 47.224 28.3082 18.231 61.5962 11.385C69.5892 9.73897 69.3961 9.74299 72.2061 11.228C75.3573 12.5142 78.6164 13.5181 81.9452 14.228C90.4118 16.1993 98.3334 20.0309 105.135 25.4448C111.936 30.8587 117.447 37.7191 121.267 45.5279C124.952 53.0279 125.622 56.284 126.048 68.785C126.658 86.664 123.594 96.258 113.791 107.16Z" fill="#231F20"/>
</svg>
