<svg width="956" height="9" viewBox="0 0 956 9" fill="none" xmlns="http://www.w3.org/2000/svg">
<path d="M0.648926 4.15894C40.4489 2.89693 80.2489 2.101 120.049 1.771C159.849 1.389 199.643 1.16198 239.44 1.58398L299.132 2.54797C319.032 2.89697 338.918 3.26004 358.823 3.36304C398.623 3.64104 438.437 3.18794 478.215 2.58594C518.022 1.90727 557.822 1.44572 597.615 1.20105C637.423 0.955049 677.215 0.644944 716.988 0.767944C796.602 1.11094 876.188 1.92594 955.782 4.15894V4.85205C876.187 7.08405 796.602 7.91994 716.988 8.26294C677.22 8.34694 637.423 8.05604 597.615 7.81604C557.828 7.62204 518.028 7.16036 478.215 6.43103C438.437 5.80303 398.621 5.36898 358.823 5.63098C338.918 5.76698 319.035 6.10998 299.132 6.45898L239.44 7.43103C199.64 7.84403 159.846 7.61796 120.049 7.23596C80.252 6.85396 40.4489 6.12902 0.648926 4.84802V4.15894Z" fill="#231F20"/>
</svg>
