<svg xmlns="http://www.w3.org/2000/svg" xmlns:xlink="http://www.w3.org/1999/xlink" viewBox="0 0 336.52 558.32">
<defs>
    <style>
    .cls-1{fill:none;}.cls-2{clip-path:url(#clip-path);}.cls-3{clip-path:url(#clip-path-2);}.cls-4,.cls-6{fill:#020100;}.cls-5{fill:#fff;}.cls-6{fill-rule:evenodd;}
    </style>
    <clipPath id="clip-path">
        <path class="cls-1" d="M1780-304.91c26.21-8.29-24.22-752.06,5.08-833.68s4.54-1322.94,2.08-1360.94c-1.61-24.77-20-21.76-43.09-18.75-12.29,1.61-25.91,3.21-39,.6-23.29-4.65-206.43-3.25-373-1.85-102.26.86-198.26,1.73-247.2,1.19-184.69-2-1094.26-14-1124.31-20.05s21.09,807.35,4.35,854S-35.47-632.79-59-567.1-57-297-57-297l154.75,5.23s1160.43,1.66,1190.5,7.67c4.67.93,18.83,1.35,39.56,1.35,113,0,421.5-12.46,452.2-22.16"/>
    </clipPath>
    <clipPath id="clip-path-2">
        <polygon class="cls-1" points="-170.84 -222.54 1868.11 -215.97 1908.29 -2580.5 -130.66 -2587.07 -170.84 -222.54"/>
    </clipPath>
</defs>
<path class="cls-4" d="M111,557.75a3.29,3.29,0,0,1-3.29-3.29V525.63a3.29,3.29,0,1,1,6.59,0v28.83a3.29,3.29,0,0,1-3.29,3.29"/>
<path class="cls-4" d="M188,444.14a3.28,3.28,0,0,1-1.27-.26l-25.39-10.61a3.29,3.29,0,0,1,2.54-6.08l25.39,10.61a3.29,3.29,0,0,1-1.27,6.33"/>
<path class="cls-4" d="M239.94,450.76A94.34,94.34,0,0,1,221.28,449a3.29,3.29,0,0,1,1.41-6.43c.27.06,26.66,5.64,47.81-4.68a3.29,3.29,0,0,1,2.89,5.92c-11.29,5.51-23.62,7-33.46,7"/>
<polygon class="cls-5" points="161.59 433.22 148.09 364.97 156.64 304.33 173.06 236.63 177.73 225.55 194.5 242.54 222.38 238.98 231.15 232.87 245.13 228.55 257.66 290.25 277.23 398.44 268.99 455.01 171.85 455.01 161.59 433.22"/>
<path class="cls-4" d="M111,556.39s0-28.91.69-36.8,19-25.92,27-37.6,25.28-35.82,22.72-48.71L188,440.23,221.7,446s26.49,6.08,48.21-2.56l1.23,21.07-31.43,87.91-19.46,2.7-33.89,2.63-33.18-10L130,558.32Z"/>
<path class="cls-4" d="M45.28,262.27a3.29,3.29,0,0,1-2.57-5.35C47,251.49,54.09,229,56.4,221.66c.36-1.13.69-2.24,1-3.31,3-10.16,5.68-18.94,20.93-25.66C89,188,118.68,177.42,136.44,171.1c6.54-2.33,12.22-4.35,13.3-4.79a3.22,3.22,0,0,1,.57-.23,3.3,3.3,0,0,1,4.12,2.17c.94,3.06-1,3.77-5.83,5.5l-9.95,3.55C121,183.6,91.4,194.13,81,198.72c-12.47,5.5-14.38,11.87-17.28,21.52-.33,1.1-.67,2.23-1,3.39C58.16,238.07,52.38,255.37,47.85,261a3.28,3.28,0,0,1-2.57,1.24"/>
<path class="cls-4" d="M23.92,312.9a3.33,3.33,0,0,1-1-.15,3.29,3.29,0,0,1-2.15-4.13A111.83,111.83,0,0,0,23,297.31c1.65-9.83,3.71-22.06,7.39-28.12,10.37-17,24.75-16.26,25.36-16.21a3.29,3.29,0,0,1-.43,6.57c-.48,0-11.13-.37-19.3,13.06-3,5-5,17-6.52,25.79a110.34,110.34,0,0,1-2.44,12.2,3.29,3.29,0,0,1-3.14,2.3"/>
<path class="cls-4" d="M22.23,342.61a3.29,3.29,0,0,1-3-2c-.2-.46-4.79-11.39-2-22.59a3.29,3.29,0,0,1,6.39,1.6c-2.25,9,1.63,18.31,1.66,18.4a3.29,3.29,0,0,1-3,4.58"/>
<path class="cls-4" d="M65.77,357.25a3.29,3.29,0,0,1-.45-6.56c.69-.44,2.33-3.24,1.92-11.2l-.16-3.24c-.68-14.55-1.27-27.12-13-32.75-6.75-3.25-12.71-3.82-17.69-1.7-7,3-10.76,10.57-12.67,16.4a3.29,3.29,0,1,1-6.26-2c3.35-10.22,9-17.28,16.35-20.41,6.81-2.9,14.59-2.29,23.13,1.82,15.25,7.34,16,23.12,16.71,38.38l.15,3.21c.39,7.66-.8,13-3.54,15.91a6.4,6.4,0,0,1-4.5,2.19Zm0-6.59h0Zm0,0h0Z"/>
<path class="cls-4" d="M71.28,349.93a3.26,3.26,0,0,1-1.23-.24,3.29,3.29,0,0,1-1.83-4.29c.08-.19,7.57-18.86,9.32-27.25.72-3.43,2.61-6.25,4.61-9.22,3.8-5.65,8.11-12.06,5.62-25.4a3.29,3.29,0,1,1,6.47-1.21c3,16-2.57,24.25-6.63,30.29-1.7,2.53-3.17,4.72-3.63,6.89-1.87,9-9.35,27.58-9.66,28.36a3.29,3.29,0,0,1-3.05,2.06"/>
<path class="cls-4" d="M88.83,307.53a3.29,3.29,0,0,1-1.62-6.16c6.91-3.92,17.53-10.8,19.5-13.86a3.29,3.29,0,0,1,5.54,3.56c-3.55,5.52-18.78,14.32-21.79,16a3.29,3.29,0,0,1-1.62.43"/>
<path class="cls-4" d="M66.68,335.48a3.29,3.29,0,0,1-3-1.84c-.06-.12-6.68-13.08-21.47-15.6-3.76-.64-6.77,0-9.19,1.93-4.43,3.54-5.75,10.59-5.85,12.24a3.3,3.3,0,0,1-3.11,3.28,3.34,3.34,0,0,1-3.47-3.11c-.07-1.21,1.09-11.14,7.61-17,4-3.54,9.21-4.88,15.12-3.87,18.19,3.1,26,18.54,26.28,19.2a3.29,3.29,0,0,1-3,4.74"/>
<path class="cls-4" d="M24.28,347.33a3.39,3.39,0,0,1-.46,0A3.29,3.29,0,0,1,21,343.59l2.88-20.7a3.29,3.29,0,0,1,6.52.91l-2.88,20.7a3.29,3.29,0,0,1-3.26,2.84"/>
<path class="cls-4" d="M61.74,351.67a3.24,3.24,0,0,1-1-.14,3.29,3.29,0,0,1-2.19-4.11l4.94-16.19a3.29,3.29,0,0,1,6.3,1.92l-4.94,16.19a3.29,3.29,0,0,1-3.15,2.33"/>
<path class="cls-4" d="M43.91,417.8a3.3,3.3,0,0,1-2.2-.84C39.08,414.6,35.93,408,42.8,400c5-5.87,7.49-13.69,8.15-16l-2-9.1a3.29,3.29,0,1,1,6.43-1.43l2.2,9.88a3.26,3.26,0,0,1,0,1.47c-.11.46-2.71,11.3-9.74,19.5-2.2,2.57-2.64,4.49-2.53,5.78l.13-.07c3.22-1.63,8.09-4.09,9.52-6.16,3-4.27,12.31-20,13.1-25.23,1.48-9.78-6-23.84-9-28.44a3.29,3.29,0,1,1,5.51-3.61c.5.76,12.19,18.78,10,33-1.16,7.68-12.61,25.7-14.2,28-2.38,3.44-7.69,6.13-12,8.29-1.08.55-2.07,1-2.86,1.49a3.31,3.31,0,0,1-1.61.42"/>
<path class="cls-4" d="M16.71,436l-.48,0a9.13,9.13,0,0,1-6.56-3.63,3.3,3.3,0,0,1-.61-1.91c0-1.36,1.11-5.42,7-25.57,3.66-12.5,8.66-29.62,8.93-32.13a11.59,11.59,0,0,1,6.72-9.57,3.29,3.29,0,0,1,2.5,6.09,5,5,0,0,0-2.66,4.17c-.3,2.88-3.82,15.05-9.16,33.29-2.59,8.84-5.46,18.69-6.43,22.51a1.79,1.79,0,0,0,.68.17c.89,0,2.21-.77,3.55-2.27,4.74-5.27,15.11-30,18.71-39.07a3.42,3.42,0,0,1,.33-.63l10.18-15.09A3.29,3.29,0,0,1,54.87,376l-10,14.8c-1.88,4.73-13.59,33.82-19.8,40.72-2.66,3-5.48,4.45-8.37,4.45"/>
<path class="cls-4" d="M18.12,406a3.26,3.26,0,0,1-.44,0c-2.49-.33-6.81-2-7.23-6.19-.31-3.09.54-20.67,1.1-26.21a29,29,0,0,1,3.78-11.3,3.29,3.29,0,0,1,5.59,3.48,22.51,22.51,0,0,0-2.81,8.47c-.56,5.54-1.28,21.71-1.12,24.66a4.63,4.63,0,0,0,1.57.56,3.29,3.29,0,0,1-.43,6.56"/>
<path class="cls-4" d="M7.94,403.54a6.71,6.71,0,0,1-1.4-.15,7.3,7.3,0,0,1-4.88-4,3.31,3.31,0,0,1-.28-1.12C1.32,397.39,0,376.94,0,370.33c0-7,5.14-13,6.44-14.38,1.26-2,7.88-11.56,18.58-13.86a3.29,3.29,0,1,1,1.39,6.44c-8.86,1.91-14.48,11.06-14.54,11.16a3.35,3.35,0,0,1-.49.63s-4.8,4.91-4.8,10c0,5.64,1,22.52,1.31,26.6l0,0s.71,0,2.22-1.35a3.29,3.29,0,0,1,4.41,4.9c-2.25,2-4.47,3-6.61,3"/>
<path class="cls-4" d="M104.82,294.59a3.23,3.23,0,0,1-1.19-.23,3.29,3.29,0,0,1-1.87-4.26c8.64-22.18,1.29-39.23,1.22-39.4a3.29,3.29,0,0,1,6-2.7c.36.79,8.6,19.61-1.09,44.48a3.29,3.29,0,0,1-3.07,2.1"/>
<path class="cls-4" d="M123.21,444.14a3.3,3.3,0,0,1-3.29-3.22c-.27-12.4-2.42-21.55-4.9-32.15-2.41-10.27-5.14-21.91-6.43-38.47-2.53-32.6-4.71-74.29-4.73-74.7a3.29,3.29,0,1,1,6.58-.34c0,.42,2.19,42,4.72,74.53,1.25,16,3.81,26.94,6.28,37.47s4.79,20.42,5.08,33.51a3.3,3.3,0,0,1-3.22,3.36Z"/>
<path class="cls-4" d="M107.14,541.29a3.29,3.29,0,0,1-2.82-1.58c-11.31-18.57-21.57-55.52-9-79.53,12-22.81,16.5-57.54,16.55-57.88a3.29,3.29,0,0,1,6.54.83c-.19,1.47-4.73,36.26-17.25,60.11-11.28,21.5-1.44,56.29,8.76,73a3.29,3.29,0,0,1-2.81,5"/>
<path class="cls-4" d="M109.49,541.28a3.29,3.29,0,0,1-3.28-3.09c0-.79-1-19.55,14.37-40,3.15-4.19,6.66-8.3,10.38-12.65,13.87-16.22,28.21-33,25.75-56.37-.85-8-2.56-17.32-4.39-27.16-5.18-28-11.64-62.89-2.06-93.34,11.82-37.57,20.61-85.92,20.82-91a3.29,3.29,0,0,1,5.93-2.41c.76,1.05,1.71,2.37-4.92,34.14-2.72,13-8.35,38.31-15.55,61.22-9.08,28.89-2.79,62.86,2.26,90.17,1.85,10,3.59,19.38,4.46,27.67C166,454.62,150,473.29,136,489.77c-3.65,4.27-7.1,8.3-10.12,12.33-13.84,18.45-13.08,35.53-13.07,35.7a3.3,3.3,0,0,1-3.1,3.47h-.19m62.17-322.2h0m0,0h0"/>
<path class="cls-4" d="M151.28,262.27a3.3,3.3,0,0,1-3.06-2.08,168.49,168.49,0,0,0-9.14-19c-4.3-7.41,11.24-31.24,20.89-44.78a3.29,3.29,0,1,1,5.36,3.82c-12.1,17-21.48,34.29-20.49,37.78a171.22,171.22,0,0,1,9.51,19.79,3.3,3.3,0,0,1-3.06,4.51"/>
<path class="cls-4" d="M160.23,438.12a3.22,3.22,0,0,1-2.26-.92c-.83-.81-8.42-8.95-19.2-45.35C123.6,340.61,122.09,277.63,124.38,267c2.47-11.41,19.34-19.71,21.26-20.61a3.29,3.29,0,0,1,2.82,6c-4.4,2.09-16.13,9.05-17.65,16.05-2,9.08-.64,71.24,14.26,121.58,10.26,34.64,17.46,42.47,17.53,42.55a3.3,3.3,0,0,1-2.37,5.6"/>
<path class="cls-4" d="M180.29,249.31a3.29,3.29,0,0,1-3.1-2.18l-7.12-19.79a3.29,3.29,0,0,1,6.2-2.23L181.61,240l6.21-6.31a3.29,3.29,0,0,1,4.7,4.62l-9.88,10a3.29,3.29,0,0,1-2.35,1"/>
<path class="cls-4" d="M226.75,249.31a3.29,3.29,0,0,1-2.36-1l-8.72-9a3.29,3.29,0,1,1,4.72-4.59l5.69,5.87L237.44,221a3.29,3.29,0,1,1,5.7,3.3L229.6,247.67a3.29,3.29,0,0,1-2.45,1.62l-.4,0"/>
<path class="cls-4" d="M270.29,473.64a3.29,3.29,0,0,1-3.29-3.29c0-1.77.18-4.29.45-8.09.84-11.83,2.39-33.85,1.39-72.36-1.14-43.66-11.36-82.35-17.47-105.47-1.7-6.42-3.16-12-4-16.14-4-18.77-11.53-50.53-11.61-50.85a3.29,3.29,0,0,1,6.41-1.53c.08.32,7.66,32.16,11.65,51,.85,4,2.29,9.48,4,15.82,6.18,23.39,16.53,62.55,17.69,107,1,38.83-.55,61.06-1.4,73-.25,3.53-.43,6.09-.43,7.63a3.29,3.29,0,0,1-3.29,3.29"/>
<path class="cls-4" d="M264.26,273.62a3.29,3.29,0,0,1-2.8-5c3.38-5.46,9.75-19.45,11.78-24l-24.54-48.73a3.29,3.29,0,1,1,5.88-3l25.25,50.13a3.29,3.29,0,0,1,.07,2.82c-.35.78-8.56,19.27-12.84,26.17a3.28,3.28,0,0,1-2.8,1.56"/>
<path class="cls-4" d="M272,444.14a3.29,3.29,0,0,1-3.18-4.15c7.38-27.4,14.17-147.34,14.33-160.35-.25-2.22-8.12-8.85-16.53-13.89a3.29,3.29,0,0,1,3.38-5.65c6,3.57,19.82,12.62,19.73,19.62-.11,9.52-6.6,132.46-14.55,162a3.29,3.29,0,0,1-3.18,2.44"/>
<path class="cls-4" d="M333.23,197.72a3.29,3.29,0,0,1-2.65-1.33,57.12,57.12,0,0,0-14.42-13c-7.22-4.33-42.33-15.56-55.25-19.52a3.29,3.29,0,1,1,1.93-6.3c1.93.59,47.32,14.54,56.71,20.17a62.87,62.87,0,0,1,16.32,14.77,3.29,3.29,0,0,1-2.65,5.25"/>
<path class="cls-6" d="M225.62,27.55c-16.45.26-33.47-1-44.9-1.52-8.72-34.35,58.5-35.55,44.9,1.52"/>
<path class="cls-6" d="M266,97.56c.88.83,4.77-1.79,8.37-.76,10,7.55,3.29,27.4-8.37,28.92,1.15-6.43,14.71-15.47,6.09-25.11-9.47,1.69-6.24,9.17-6.85,19-2,33.19-11.67,67.28-33.48,82.19-33.87,9.63-62.87,1.74-76.86-21.31-8.76-14.44-10.49-34.23-13.7-54-9.27.29-18.05-18.65-9.13-27.4a10.15,10.15,0,0,1,7.61,0c.87-9.1.87-19.93,3-28.92,4.64-19.19,20.89-39,36.53-41.86,14.17-2.56,36.3.59,47.18,3,27.35,6.17,41.68,31.23,39.57,66.21m-93.6-26.64c-5.64,4.09-8.28,13.15-12.94,22.83-4.12,8.56-11,16.93-12.18,23.59-2.73,15.22,4.55,38.14,22.07,36.53,8.5-.78,14.2-13.86,23.59-15.22,2.34-.34,5,1.52,7.61,1.52,3.84,0,6.57-2,9.89-1.52,11.48,1.58,16.9,15.84,28.92,16,21,.24,18.94-24.83,19.79-41.85-4.87-7-7-14.95-12.18-23.59-2.81-4.68-10.11-18.95-16.74-19.79s-12.57,7.86-19.79,9.13c-15.26,2.69-26.7-1.36-35.77-9.13-.46,0-.9.11-.76.76-.59.17-1.5,0-1.52.76m-32,51.75c-.1-7,3.35-16.81-3.81-19.79-8.3,4.1-1.71,17.83,3.81,19.79M198.22,147a31.88,31.88,0,0,0-9.89,17.5c7.91-1.23,12.86-5.4,23.59-3.8,1.92,1,6,2.53,8.37.76-.61-8.43-13.58-16.14-22.07-14.46"/>
<path class="cls-6" d="M243.12,102.88c-6.29-1.48-17.43-.73-22.07,3.8.87-7.93,18-10.43,22.07-3.8"/>
<path class="cls-6" d="M192.14,107.45c-6.55-1.92-14.57-6.14-24.35-1.52,2.81-8,22.61-5.27,24.35,1.52"/>
<path class="cls-6" d="M205.07,107.45h2.28c1.9,2.32.65,3.06.76,6.85,2.45,4.14,10.38,2.81,8.37,11.42-4.56,1.78-5.63,7.05-12.18,6.85-2.18-5.92,7.81-5.07,9.13-9.89-2.29-2.53-6.3-3.34-9.13-5.33-.6-3.77-1.21-7.12.76-9.89"/>
<rect class="cls-1" x="-94.05" y="-282.74" width="1920" height="1080"/>
</svg>
