<svg xmlns="http://www.w3.org/2000/svg" xmlns:xlink="http://www.w3.org/1999/xlink" viewBox="0 0 862 574">
<defs>
    <style>
    .cls-1{fill:none;}.cls-2{clip-path:url(#clip-path);}.cls-3{clip-path:url(#clip-path-2);}.cls-4{fill:#fff;}.cls-5{fill:#fd2415;}.cls-6{fill:#020100;}</style>
    <clipPath id="clip-path">
        <path class="cls-1" d="M1382-452.16c26.21-8.29-24.22-752.06,5.08-833.68s4.54-1322.94,2.08-1360.94c-1.61-24.77-20-21.76-43.09-18.75-12.29,1.61-25.91,3.21-39,.6-23.29-4.65-206.43-3.25-373-1.85-102.26.86-198.26,1.73-247.2,1.19-184.69-2-1094.26-14-1124.31-20.05s21.09,807.35,4.35,854S-433.43-780-457-714.36s2,270.11,2,270.11L-300.24-439s1160.43,1.66,1190.5,7.67c4.67.93,18.83,1.35,39.56,1.35,113,0,421.5-12.46,452.2-22.16"/>
    </clipPath>
    <clipPath id="clip-path-2">
        <polygon class="cls-1" points="-568.79 -369.79 1470.15 -363.22 1510.33 -2727.76 -528.61 -2734.33 -568.79 -369.79"/>
    </clipPath>
</defs>
<path class="cls-4" d="M625.63,272.78s-1.88,78.35,1.57,121.26,5,47,5,47l33.31.66s8-70.91,11.82-90.43,26.32-93.82,28-99-3.48-16-3.48-16-22.65,50-47.13,52.07-29.13-15.52-29.13-15.52"/>
<path class="cls-5" d="M538.43,63.2S523,85.86,536.51,95.55s16.64,6.51,16.64,6.51,21.35-11.58,34.2-10.82,47.09,9.08,47.09,9.08,5.12,13.44,3.2,23.68-7.68,27.52-1.92,40.32l9.6,3.2s3.84-13.12,11.52-15,10.66-1.42,11.84,10.24-8.32,18.39-12.48,20.48c0,0,2.32,9.78,6.6,13s13.91,13.85,24.07,7.56S695.73,189,695.73,189s-2.07-15.6,0-27.64,9.45-65.49,0-83.73-26.84-50.48-68.65-44.34-40.92,13.09-53.26,18.47S538.43,63.2,538.43,63.2"/>
<path class="cls-6" d="M557.35,174.14a3.3,3.3,0,0,1-2.93-1.78,167.76,167.76,0,0,1-7.87-17.62c-2.67-7.64,1.38-45.48,2.21-53a3.29,3.29,0,0,1,6.55.73c-1.88,16.81-4.23,45.27-2.54,50.09a162.46,162.46,0,0,0,7.5,16.77,3.29,3.29,0,0,1-2.92,4.81"/>
<path class="cls-6" d="M561.15,212.8a17.78,17.78,0,0,1-11.14-3.5c-8-6.29,2.73-31.6,9.86-46.12a3.29,3.29,0,0,1,5.91,2.9c-8.52,17.36-14.1,35.49-11.71,38,5.2,4.07,13.73,1,13.82,1a3.29,3.29,0,0,1,2.31,6.17,28.16,28.16,0,0,1-9.07,1.55"/>
<path class="cls-6" d="M595.44,254.43c-6.69,0-13.41-1.74-17.06-5.58-7.25-7.63-15.88-33.45-16.84-36.36a3.29,3.29,0,1,1,6.26-2.06c2.48,7.54,10.08,28.33,15.36,33.89,4.76,5,20.47,4.42,25,.22,2.26-2.09,5-4.52,7.91-7.13,8-7.11,17.88-16,23.65-22.74a31.25,31.25,0,0,0,6.56-14.58,3.29,3.29,0,1,1,6.53.82,37.89,37.89,0,0,1-8.08,18c-6.07,7.13-16.17,16.15-24.29,23.39-2.9,2.58-5.58,5-7.82,7-3.51,3.25-10.34,5.07-17.2,5.07"/>
<path class="cls-6" d="M680.67,208.62c-7.14,0-15.12-4.54-23.8-13.54a3.31,3.31,0,0,1-.87-1.68l-1.35-7.2h-.35a3.29,3.29,0,0,1,0-6.59,9.68,9.68,0,0,0,2.24-.25h0c5.93-1.43,8.57-9,8.57-15.82,0-6.19-2.07-10-3.56-10.33-4.37-1-10.08,8.46-12.62,15.2a3.29,3.29,0,0,1-3.08,2.13H636a3.3,3.3,0,0,1-2.92-1.77c-5.72-11-3.51-22.17-.17-39.09l.59-3c2.7-13.8-.26-22.24-1.57-25.08-3.51-.89-13.37-3.32-27-6.14-23.41-4.85-51.13,9.43-51.41,9.57a3.37,3.37,0,0,1-1.75.37c-10.87-.75-18.09-4.51-21.48-11.15-6.67-13.1,5.06-32.1,5.56-32.9a3.3,3.3,0,0,1,2.45-1.53c.16,0,15.66-1.65,24.89-6.09,1.15-.55,2.78-1.42,4.81-2.5,16.22-8.63,54.14-28.82,81.33-18.2C654,34,698.6,44.14,702.22,93.77c1.88,25.7-.32,44.39-2.09,59.41-1.69,14.4-2.92,24.81.13,34.62a3.3,3.3,0,0,1,0,1.78c-.16.63-4,15.44-15.46,18.5a16.14,16.14,0,0,1-4.18.54M662.3,191.21c8.21,8.32,15.41,11.93,20.83,10.51,6.53-1.73,9.7-10.25,10.55-12.94-3.09-10.85-1.76-22.16-.09-36.37,1.74-14.74,3.9-33.09,2.07-58.16-3.42-46.85-45.94-54.5-47.74-54.8a3.34,3.34,0,0,1-.68-.19C622.85,29.51,585.29,49.51,571.14,57c-2.13,1.13-3.84,2-5,2.62-8.48,4.08-20.92,5.95-25.4,6.52-3.1,5.52-8.28,17.66-4.48,25.09,2.18,4.28,7.29,6.8,15.17,7.49,5.15-2.54,31.34-14.63,54.93-9.75,17.25,3.57,28.59,6.54,28.71,6.57A3.29,3.29,0,0,1,637,97c.28.45,6.87,11.21,3,30.93l-.59,3c-3.07,15.55-4.85,24.58-1.29,33h5.58c2.47-5.67,9.6-19.52,19.44-17.15,5.23,1.25,8.61,7.82,8.62,16.74,0,7.82-2.85,17.5-10.65,21.19Z"/>
<path class="cls-6" d="M625.63,272.78a3.29,3.29,0,0,1-2.84-1.62c-3.54-6-15-22.14-15.07-22.3a3.29,3.29,0,0,1,5.37-3.81c.48.67,11.69,16.5,15.38,22.77a3.29,3.29,0,0,1-2.84,5"/>
<path class="cls-6" d="M699.65,209.63a3.29,3.29,0,0,1-1.78-.52l-7.84-5a3.29,3.29,0,0,1,3.56-5.54l7.84,5a3.29,3.29,0,0,1-1.78,6.07"/>
<path class="cls-6" d="M652.11,291.58c-26.54,0-29.71-19.45-29.74-19.64a3.29,3.29,0,0,1,6.52-1c.09.55,2.55,14,23.22,14,30.88,0,49.93-62.68,50.11-63.32a3.29,3.29,0,0,1,6.31,1.88c-.83,2.78-20.66,68-56.43,68"/>
<path class="cls-6" d="M666.1,444.15h-.22a3.3,3.3,0,0,1-3.07-3.5c4.93-74.75,19.71-127.34,29.49-162.14,4-14.08,7.08-25.19,8.52-33.92,4.73-28.72-3.56-38.91-3.65-39a3.31,3.31,0,0,1,.33-4.63,3.27,3.27,0,0,1,4.6.26c.43.48,10.53,12.16,5.22,44.45-1.5,9.09-4.67,20.36-8.68,34.63-9.71,34.54-24.38,86.73-29.26,160.79a3.29,3.29,0,0,1-3.28,3.08"/>
<path class="cls-6" d="M690.16,358.17a3.29,3.29,0,0,1-2.08-5.85l24.2-19.64c5.26-48,8.24-108.88-.49-124.77a8.9,8.9,0,0,0-5.4-4.7c-4.53-1.27-9.61,1.54-9.66,1.57a3.29,3.29,0,0,1-3.28-5.71c.3-.17,7.47-4.24,14.72-2.21a15.35,15.35,0,0,1,9.4,7.87c12.33,22.41,3.09,112.23,1.12,130a3.31,3.31,0,0,1-1.2,2.19l-25.25,20.49a3.28,3.28,0,0,1-2.07.74"/>
<path class="cls-6" d="M842.36,563.07a3.29,3.29,0,0,1-3.28-3c-2.56-33.32-6.69-59.89-10.33-83.34-4.17-26.88-7.47-48.12-6.88-69.21,1.2-42.69-4.4-96.73-17.42-117.43-13.8-21.93-92.63-82.91-93.42-83.52a3.29,3.29,0,0,1,4-5.21c3.28,2.53,80.55,62.31,95,85.23s19.62,78.79,18.43,121.12c-.58,20.49,2.68,41.47,6.8,68,3.66,23.56,7.8,50.27,10.39,83.84a3.29,3.29,0,0,1-3,3.54h-.26"/>
<path class="cls-6" d="M688.33,447.45a3.25,3.25,0,0,1-1.07-.18,3.29,3.29,0,0,1-2.05-4.18c.29-.84,29-84.68,34-99.86a40.37,40.37,0,0,1,19.29-23.12,3.29,3.29,0,0,1,2.8,6,34.35,34.35,0,0,0-15.84,19.24c-5.07,15.2-33.75,99.06-34,99.91a3.29,3.29,0,0,1-3.11,2.23"/>
<path class="cls-6" d="M678.45,447.45a3.24,3.24,0,0,1-1-.17,3.29,3.29,0,0,1-2.07-4.17c9.75-29.12,24.5-73.51,25.14-76.44,0-1.58-3.22-8.71-7-15.11a3.29,3.29,0,0,1,5.68-3.34c3.27,5.55,8.62,15.5,7.77,19.75-.75,3.75-22.84,69.73-25.35,77.24a3.3,3.3,0,0,1-3.12,2.25"/>
<path class="cls-6" d="M698,527.87c-21,0-47.76-8.84-73.8-17.45-15.84-5.24-30.81-10.18-43-12.55-22.67-4.39-43.44-4.74-53.42-4.91-2.66,0-4.42-.08-5.5-.16a3.3,3.3,0,0,1-2.4-5.21c.22-.31,22-31,13.4-61.2a3.3,3.3,0,0,1,3.75-4.14c.84.15,84.11,15,101.94,15.32,47,.94,73.63,9.83,79.16,26.4a3.29,3.29,0,0,1-6.25,2.08c-3.13-9.39-18.34-20.8-73-21.9-16-.32-79.56-11.3-98-14.55,4.64,24.19-6.5,46.95-12.34,56.79,10.38.18,31.17.6,54,5,12.61,2.44,27.77,7.45,43.82,12.76,29.64,9.79,63.24,20.89,83.55,15.82,44.27-11.07,82.52-134.8,82.9-136a3.29,3.29,0,1,1,6.3,1.92c-1.6,5.24-39.76,128.55-87.6,140.51A55.38,55.38,0,0,1,698,527.87"/>
<path class="cls-6" d="M522.59,492.82a3.27,3.27,0,0,1-2.14-.79c-9-7.71-6.17-25.35-6-26.09a3.29,3.29,0,0,1,6.5,1.08c-.67,4.08-1.29,15.62,3.84,20a3.29,3.29,0,0,1-2.15,5.79"/>
<path class="cls-6" d="M531.82,469.77a3.25,3.25,0,0,1-.81-.1c-17.3-4.36-45.71-11.31-49.33-11.65a3.29,3.29,0,0,1-1.29-6.41c1.15-.38,2.57-.86,52.23,11.67a3.29,3.29,0,0,1-.8,6.49"/>
<path class="cls-6" d="M392.58,465.31a17,17,0,0,1-7.64-1.81,3.29,3.29,0,0,1-1.21-4.7c.4-.61,9.8-15,13-19.29,5-6.59,18.61-9.2,20.15-9.48a3.29,3.29,0,0,1,1.17,6.48c-4.82.87-13.46,3.54-16.08,7-2.11,2.77-7.26,10.53-10.34,15.2a7.8,7.8,0,0,0,6.49-2.24c5.87-5.87,10.22-10.91,10.26-11a3.29,3.29,0,0,1,1.79-1.07l18-4a3.29,3.29,0,0,1,1.41,6.43l-16.9,3.72c-1.5,1.7-5.17,5.79-9.87,10.48a14.1,14.1,0,0,1-10.23,4.19"/>
<path class="cls-6" d="M449.27,459.89c-15.3,0-27.65-10.51-28.17-11a3.29,3.29,0,0,1,4.3-5c.11.09,11.07,9.36,23.87,9.36h0c16,0,28.83-2.19,32.71-5.52a3.29,3.29,0,0,1,4.29,5c-7.43,6.37-28.34,7.09-37,7.1Z"/>
<path class="cls-6" d="M370.78,461.32a14.94,14.94,0,0,1-10.27-4.3,3.29,3.29,0,0,1,0-4.61s15.1-15.15,21.41-21.47c6.75-6.75,23.06-11.09,24.89-11.56a3.29,3.29,0,0,1,1.64,6.38c-4.51,1.16-17.23,5.19-21.88,9.84s-13.9,13.93-18.58,18.63a7.28,7.28,0,0,0,6.42-.51,102.79,102.79,0,0,0,14-9.79,3.25,3.25,0,0,1,.77-.49l7.71-3.47a3.29,3.29,0,1,1,2.71,6l-7.29,3.29a107.49,107.49,0,0,1-14.71,10.21,14,14,0,0,1-6.87,1.85"/>
<path class="cls-6" d="M348.95,454.67a8.36,8.36,0,0,1-3.86-.89,8,8,0,0,1-4.11-5.6,3.29,3.29,0,0,1,.75-2.67c2-2.3,19.45-22.56,26.18-26.82,6.89-4.35,29.5-8,32.06-8.43a3.29,3.29,0,1,1,1,6.51c-6.57,1-24.7,4.41-29.57,7.49-4.56,2.88-17.06,16.76-23.15,23.74.77.23,2.41,0,4.9-1.21,8.73-4.37,18.5-14.35,18.6-14.45a3.3,3.3,0,0,1,1.92-1L383.84,430a3.29,3.29,0,1,1,.88,6.53l-9.05,1.22c-2.66,2.62-11.29,10.79-19.55,14.92a16.36,16.36,0,0,1-7.17,2"/>
<path class="cls-6" d="M536.49,433.55a3.43,3.43,0,0,1-.48,0l-52.32-7.68c-.44-.08-7.55-1.46-19.34-4.75S418,408.18,418,408.18a3.31,3.31,0,0,1-.59-.22c-3.66-1.82-10.7-4-14-2.25-1.9,1-4.79,2.3-8.14,3.77-6.31,2.75-16.86,7.37-18.64,10.19a3.29,3.29,0,1,1-5.57-3.52c2.65-4.2,11-8.08,21.57-12.71,3.08-1.35,6-2.61,7.63-3.51,6.94-3.79,17.54.93,19.76,2,3.37.93,34.92,9.7,46.09,12.82,11.51,3.21,18.6,4.59,18.67,4.6L537,427a3.29,3.29,0,0,1-.47,6.55"/>
<path class="cls-6" d="M493.4,410.23a3.29,3.29,0,0,1-3.06-4.52c1.17-2.93,8.46-22.36,17.69-47,17-45.43,40.38-107.65,43.74-115.32,6-13.71,21.34-12.58,22-12.53a3.29,3.29,0,0,1-.54,6.56c-.54,0-11.34-.71-15.42,8.6-3.28,7.51-26.59,69.63-43.61,115-9.24,24.64-16.54,44.1-17.74,47.09a3.29,3.29,0,0,1-3.06,2.07"/>
<path class="cls-6" d="M501.46,416.81a3.28,3.28,0,0,1-2.48-1.12c-.28-.31-6.21-6.76-17.1-5.22-13,1.83-41,3.49-42.22,3.56a3.29,3.29,0,1,1-.39-6.57c.29,0,29-1.71,41.69-3.51,14.58-2.06,22.65,7,23,7.42a3.29,3.29,0,0,1-2.49,5.45"/>
<path class="cls-6" d="M552.22,428.79a3.29,3.29,0,0,1-2.33-5.62c2.79-2.79,15.29-20.8,23-32.23a3.29,3.29,0,0,1,5.46,3.69c-2,3-19.69,29.07-23.82,33.2a3.28,3.28,0,0,1-2.33,1"/>
<path class="cls-6" d="M577.1,435.74a3.29,3.29,0,0,1-3.29-3.29V328.17c0-17.49,3.3-28.48,3.44-28.94a3.29,3.29,0,0,1,6.3,1.92c0,.1-3.15,10.6-3.15,27V432.45a3.29,3.29,0,0,1-3.29,3.29"/>
<path class="cls-6" d="M344.22,446.35a3.29,3.29,0,0,1-3.28-3c-.23-2.81-.89-12.24.14-15.52s9.4-17.27,15.58-21.4,22.31-.2,25.47.64a3.29,3.29,0,1,1-1.68,6.37c-7.76-2.05-17.69-3.15-20.12-1.53-4.46,3-12.21,15.5-13,17.89-.43,1.38-.28,7.85.14,13a3.29,3.29,0,0,1-3,3.55h-.27"/>
<path class="cls-6" d="M357.14,436.56a3.29,3.29,0,0,1-3.06-4.51l5.74-14.36a3.29,3.29,0,1,1,6.11,2.44l-5.74,14.36a3.29,3.29,0,0,1-3.06,2.07"/>
<path class="cls-6" d="M336.9,448.22a18.43,18.43,0,0,1-8.41-2.31,3.29,3.29,0,0,1-1.43-4.06c.34-.86,8.32-21.08,14.24-28,6.64-7.75,12.81-7,13.49-6.89a3.29,3.29,0,0,1-.95,6.52c-.29,0-3.46-.1-7.55,4.66-3.69,4.3-9.05,16.25-11.9,23.1a7.41,7.41,0,0,0,4,.16,4.23,4.23,0,0,0,2.6-2.53,3.29,3.29,0,0,1,5.94,2.84,10.9,10.9,0,0,1-6.6,6,11.74,11.74,0,0,1-3.51.51"/>
<path class="cls-6" d="M631.25,443.6a3.29,3.29,0,0,1-3.24-2.76C614.92,362,621.47,269,621.54,268a3.29,3.29,0,0,1,6.57.48c-.07.92-6.55,93.18,6.4,171.27a3.3,3.3,0,0,1-3.25,3.83"/>
<path class="cls-6" d="M615.61,351.22a3.28,3.28,0,0,1-2.67-1.37c-.45-.63-11.12-15.49-13.44-26.06s11.91-63.23,13.53-69.21a3.29,3.29,0,1,1,6.35,1.73c-6,22-14.93,59.35-13.46,66.07,2,9.23,12.24,23.47,12.35,23.61a3.29,3.29,0,0,1-2.67,5.22"/>
<path class="cls-6" d="M615.61,441.66a3.29,3.29,0,0,1-3.09-2.15c-4.36-11.82-9.84-41.83-13.47-61.68-1.55-8.47-3-16.48-3.47-17.87-1.93-5.79,5.47-18.48,8.74-23.67a3.29,3.29,0,1,1,5.57,3.51c-4.79,7.59-8.55,16-8.06,18.1.58,1.73,1.67,7.61,3.7,18.75,3.58,19.63,9,49.3,13.16,60.59a3.29,3.29,0,0,1-2,4.23,3.24,3.24,0,0,1-1.14.2"/>
<path class="cls-6" d="M517.18,473.89a3.39,3.39,0,0,1-.48,0L478,468.21a3.29,3.29,0,1,1,1-6.52l38.69,5.65a3.29,3.29,0,0,1-.47,6.55"/>
<path class="cls-6" d="M705.38,564.14a3.29,3.29,0,0,1-1-6.42L814.84,520.8a6.33,6.33,0,0,0-1.27-12.29L743,500.27a3.29,3.29,0,1,1,.76-6.54L814.33,502a12.92,12.92,0,0,1,2.6,25.08L706.42,564a3.31,3.31,0,0,1-1,.17"/>
<path class="cls-6" d="M341.35,498.48a3.27,3.27,0,0,1-.52,0L153.52,471.77a3.29,3.29,0,0,1-2.6-2.05l-58.23-148a3.29,3.29,0,0,1,3.11-4.5l177.88,2.55a3.29,3.29,0,0,1,3,2.09l62,157.52,138.38-21.87a3.29,3.29,0,0,1,3.81,3.25v10.64a3.29,3.29,0,0,1-2.73,3.24L342,498.42a3.24,3.24,0,0,1-.63.06m-.2-12.79,2.28,5.79,130.86-22.82v-4ZM156.35,465.52l179.87,25.61-1.95-4.95a3.3,3.3,0,0,1-1.63-4.14L271.38,326.36l-170.76-2.45Z"/>
<path class="cls-6" d="M335.72,486.51a3.53,3.53,0,0,1-.47,0L148.89,460a3.29,3.29,0,0,1,.93-6.52L336.18,480a3.29,3.29,0,0,1-.46,6.55"/>
<path class="cls-6" d="M477.59,464.09a3.11,3.11,0,0,1-.43,0l-70.28-9.12a3.29,3.29,0,0,1,.85-6.53L478,457.53a3.29,3.29,0,0,1-.42,6.56"/>
<path class="cls-6" d="M330.69,445l-.42,0-10.93-1.38a3.29,3.29,0,1,1,.82-6.54l10.93,1.38a3.29,3.29,0,0,1-.41,6.56"/>
<path class="cls-6" d="M339,461.47a3.42,3.42,0,0,1-.51,0l-13-2a3.29,3.29,0,0,1,1-6.51l13,2a3.29,3.29,0,0,1-.5,6.55"/>
<path class="cls-6" d="M366,465.66a3.41,3.41,0,0,1-.51,0L352,463.52a3.29,3.29,0,0,1,1-6.51l13.49,2.1a3.29,3.29,0,0,1-.5,6.55"/>
<path class="cls-6" d="M392.52,469.77a3.41,3.41,0,0,1-.51,0l-13-2a3.29,3.29,0,1,1,1-6.51l13,2a3.29,3.29,0,0,1-.5,6.55"/>
<path class="cls-6" d="M338.26,472.27a3.36,3.36,0,0,1-.51,0l-6.51-1a3.29,3.29,0,1,1,1-6.51l6.51,1a3.29,3.29,0,0,1-.5,6.55"/>
<path class="cls-6" d="M355.39,474.93a3.41,3.41,0,0,1-.51,0l-6.51-1a3.29,3.29,0,0,1,1-6.51l6.51,1a3.29,3.29,0,0,1-.5,6.55"/>
<path class="cls-6" d="M202.07,446.35a3.29,3.29,0,0,1-2.84-5l5.06-8.65a3.29,3.29,0,0,1,5.68,3.33l-5.06,8.65a3.29,3.29,0,0,1-2.84,1.63"/>
<path class="cls-6" d="M208.53,455.27a3.29,3.29,0,0,1-2.84-5l5.06-8.65a3.29,3.29,0,0,1,5.68,3.33l-5.06,8.65a3.29,3.29,0,0,1-2.84,1.63"/>
<path class="cls-6" d="M135.87,429.38l-.39,0-119.67-14a3.29,3.29,0,0,1,.76-6.54l119.67,14a3.29,3.29,0,0,1-.38,6.56"/>
<path class="cls-6" d="M533.73,429.83a.82.82,0,0,0,.08-.22l-6.31-1.89c.58-1.95,3.1-5.3,8.87-5.52a3.29,3.29,0,0,1,.24,6.58c-2.36.09-2.86,1-2.88,1"/>
<rect class="cls-1" x="-492" y="-430" width="1920" height="1080"/>
</svg>