<svg width="189" height="169" viewBox="0 0 189 169" fill="none" xmlns="http://www.w3.org/2000/svg">
<path d="M105.919 84.0792C118.307 96.4892 130.695 108.899 143.084 121.308C144.498 122.725 146.544 120.284 145.162 118.9L108 81.671C106.586 80.254 104.54 82.6952 105.922 84.0792H105.919Z" fill="black"/>
<path d="M44.1722 22.2272L100.072 78.2272C101.486 79.6442 103.532 77.2029 102.15 75.819L46.2501 19.819C44.8361 18.402 42.7902 20.8432 44.1722 22.2272Z" fill="black"/>
<path d="M27.4131 5.44005L36.868 14.9122C38.283 16.3282 40.3291 13.887 38.9471 12.503L29.492 3.03184C28.078 1.61484 26.0321 4.05605 27.4131 5.44005Z" fill="black"/>
<path d="M85.5131 138.824L93.2782 147.755C94.5862 149.255 96.6291 146.81 95.3571 145.347L87.5912 136.416C86.2842 134.916 84.2401 137.361 85.5131 138.824Z" fill="black"/>
<path d="M39.667 86.0966L80.426 132.973C81.733 134.473 83.7759 132.028 82.5039 130.565L41.7451 83.6879C40.4381 82.1879 38.395 84.6326 39.667 86.0966Z" fill="black"/>
<path d="M20.2119 63.7207L33.3779 78.8628C34.6849 80.3628 36.729 77.918 35.456 76.455C31.068 71.4064 26.6793 66.3589 22.29 61.3129C20.983 59.8129 18.9399 62.2577 20.2119 63.7207Z" fill="black"/>
<path d="M27.219 147.425L43.1111 168.079C44.3421 169.679 46.9001 167.834 45.7041 166.279L29.813 145.625C28.582 144.025 26.023 145.87 27.219 147.425Z" fill="black"/>
<path d="M0.39996 112.571L19.41 137.279C20.641 138.879 23.2 137.034 22.004 135.479L3.00006 110.771C1.76906 109.171 -0.78896 111.016 0.40704 112.571H0.39996Z" fill="black"/>
<path d="M178.938 69.6707L185.708 75.3596C187.239 76.6466 189.29 74.2144 187.787 72.9514L181.016 67.2615C179.485 65.9745 177.435 68.4067 178.938 69.6707Z" fill="black"/>
<path d="M111.978 13.3928L168.959 61.2815C170.49 62.5685 172.541 60.1368 171.037 58.8738C152.044 42.9091 133.05 26.946 114.056 10.9846C112.525 9.69764 110.474 12.1298 111.978 13.3928Z" fill="black"/>
<path d="M100.459 3.71267L105.919 8.30056C107.45 9.58756 109.5 7.15585 107.997 5.89285L102.538 1.30349C101.007 0.0174913 98.956 2.44967 100.459 3.71267Z" fill="black"/>
</svg>
