<svg width="307" height="492" viewBox="0 0 307 492" fill="none" xmlns="http://www.w3.org/2000/svg">
<path d="M238.664 292.271C238.664 292.271 252.364 342.31 255.554 349.487C258.744 356.664 264.525 391.55 264.924 395.338C265.323 399.126 269.071 431.323 271.582 435.259C274.093 439.195 280.872 450.108 290.84 447.343C300.808 444.578 304.806 442.186 304.501 430.624C304.196 419.062 301.801 390.952 300.608 385.171C299.415 379.39 295.226 360.052 295.226 360.052C295.226 360.052 292.006 343.128 289.852 327.733C287.698 312.338 281.321 276.762 281.321 276.762C281.321 276.762 249.683 288.881 238.664 292.271Z" fill="#020100"/>
<path d="M178.606 288.988C178.606 288.988 176.206 326.759 175.414 335.93C174.622 345.101 171.825 383.974 171.028 394.739C170.231 405.504 169.234 415.273 169.234 420.256C169.234 425.239 166.243 441.388 160.462 449.756C160.462 449.756 159.062 456.402 166.243 461.056C173.424 465.71 176.41 473.877 187.375 471.786C198.34 469.695 199.735 467.302 200.732 464.112C201.729 460.922 206.912 447.965 207.51 440.19C208.108 432.415 212.494 393.541 213.69 378.19C214.886 362.839 216.207 329.133 219.272 316.39C222.337 303.647 224.233 295.1 224.233 295.1C224.233 295.1 192.763 295.071 178.606 288.988Z" fill="#020100"/>
<path d="M159.876 452.23C159.876 452.23 147.755 450.846 141.848 449.107C135.941 447.368 125.406 449.419 126.41 455.751C127.414 462.083 126.85 464.801 135.343 468.845C143.836 472.889 164.422 485.845 173.886 487.525C183.35 489.205 188.048 490.07 192.293 485.831C196.538 481.592 200.305 477.139 196.033 470.231C196.033 470.231 185.433 475.078 181.021 471.791C176.609 468.504 161.762 455.608 161.762 455.608L159.876 452.23Z" fill="black"/>
<path d="M272.355 438.959C272.434 439.341 273.294 454.446 277.199 457.089C281.104 459.732 286.093 463.884 293.47 459.832C300.847 455.78 301.87 451.949 301.837 451.555C301.804 451.161 300.271 443.421 300.271 443.421C300.271 443.421 292.922 449.736 287.097 447.321C281.272 444.906 272.355 438.959 272.355 438.959Z" fill="black"/>
<path d="M243.393 77.1966L221.126 80.7318L206.126 67.745C206.126 67.745 210.338 62.6446 210.779 58.6956C211.22 54.7466 210.196 48.0557 207.605 48.7567C205.014 49.4577 202.921 56.4305 202.921 56.4305C202.921 56.4305 200.534 57.9097 200.082 51.3407C199.941 46.7798 200.597 42.2295 202.023 37.8949C202.023 37.8949 204.874 30.2176 198.734 27.0296C192.594 23.8416 188.534 21.1448 186.907 19.2528C185.28 17.3608 183.299 11.8129 190.466 8.10092C197.633 4.38892 210.153 0.730975 217.042 1.91097C223.931 3.09097 238.783 1.22465 242.364 9.40365C245.945 17.5827 244.693 16.2826 244.693 16.2826C244.693 16.2826 248.052 17.76 248.512 23.641C248.972 29.522 247.476 49.7557 247.476 49.7557L243.393 77.1966Z" fill="#BBBDBF"/>
<path d="M187.82 20.7615C181.058 27.0725 182.089 35.9856 182.567 44.1516C182.757 45.7946 182.607 47.4591 182.126 49.0417C181.646 50.6244 180.845 52.0915 179.774 53.3518C178.93 54.4578 177.521 55.3167 177.111 56.7297C176.211 59.8107 177.998 61.6126 180.451 63.4236C181.514 64.2086 184.093 64.8475 184.878 65.8235C183.623 64.2705 184.372 65.5656 184.395 67.5706C184.446 72.0976 186.239 76.0547 188.621 79.7957C193.014 86.6957 197.092 90.6865 205 92.6375C206.9 93.1065 207.559 89.9958 205.619 89.5168C195.399 86.9968 186.657 75.7167 187.486 64.8167C187.549 64.484 187.505 64.1399 187.359 63.8342C187.214 63.5285 186.974 63.2768 186.676 63.1165C185.117 62.6161 183.666 61.8299 182.395 60.7976C179.549 58.0526 181.045 57.2915 182.748 54.6355C184.197 52.3765 185.637 50.8357 185.966 48.1077C186.407 44.4457 184.851 40.7158 184.827 37.0398C184.796 32.3858 186.49 26.1856 190.096 22.8196C191.574 21.4396 189.308 19.3778 187.82 20.7668V20.7615Z" fill="black"/>
<path d="M223.916 79.2979C216.723 76.5489 211.776 71.9072 206.806 66.1211L206.599 68.6211C211.182 65.7011 217.352 47.075 207.582 47.21C204.177 47.258 203.91 51.2101 202.588 53.4161C202.444 53.8921 202.318 54.3717 202.21 54.855C201.756 56.999 201.478 55.3254 201.376 49.834C201.549 47.485 202.667 45.3051 203.376 43.1041C204.279 40.6185 204.663 37.9738 204.502 35.334C204.073 30.377 200.867 27.287 196.92 24.608C194.482 22.954 190.228 21.5238 188.59 18.9688C184.59 12.7298 193.28 7.42702 197.96 5.91802C205.231 3.57502 246.651 1.09812 243.188 16.0181C243.121 16.3511 243.164 16.6964 243.31 17.003C243.456 17.3095 243.698 17.5604 243.999 17.7178C249.649 20.7498 246.586 38.8472 246.163 42.9742C245.116 53.1852 243.591 63.393 241.581 73.461C241.521 73.8569 241.618 74.2604 241.852 74.5855C242.085 74.9106 242.437 75.1315 242.831 75.2007C243.226 75.27 243.632 75.1822 243.962 74.9561C244.293 74.73 244.522 74.3834 244.6 73.9908C247.762 58.1578 252.359 39.2588 249.475 23.1377C248.985 20.2538 247.782 17.5382 245.975 15.2378C244.894 13.7318 246.358 17.8638 246.321 15.6558C246.367 14.2452 246.133 12.8397 245.633 11.5201C243.625 6.64607 238.187 4.39717 233.453 3.12017C223.029 0.417881 212.146 -0.0123963 201.541 1.85894C192.976 3.46594 177.451 12.6918 187.341 22.2588C190.181 25.0068 194.297 26.2141 197.312 28.7671C203.54 34.0411 200.668 39.946 198.897 46.504C197.965 49.955 198.638 56.7139 203.266 57.3389C203.677 57.3939 204.093 57.2908 204.431 57.0503C204.769 56.8099 205.002 56.4502 205.085 56.044C205.553 53.78 206.918 47.5562 209.685 54.8902C210.585 57.2672 207.147 64.6091 204.931 66.021C204.735 66.1592 204.572 66.3388 204.453 66.5469C204.334 66.7551 204.262 66.9867 204.242 67.2256C204.222 67.4646 204.255 67.7049 204.338 67.9297C204.422 68.1546 204.553 68.3585 204.724 68.5269C209.951 74.6109 215.006 79.2931 222.515 82.1631C224.349 82.8631 225.759 80.002 223.915 79.296L223.916 79.2979Z" fill="black"/>
<path d="M256.774 84.2279C252.654 73.6719 241.944 75.258 232.728 76.661C220.007 78.596 211.697 81.728 204.005 92.433C202.838 94.058 205.08 96.1587 206.281 94.4867C212.572 85.7317 218.831 82.401 229.231 80.433C237.113 78.942 250.055 75.6 253.844 85.308C253.995 85.6852 254.288 85.9882 254.66 86.1532C255.031 86.3181 255.452 86.3319 255.834 86.1913C256.215 86.0507 256.526 85.7669 256.702 85.4003C256.878 85.0337 256.903 84.6132 256.774 84.2279Z" fill="black"/>
<path d="M281.294 141.11C276.383 162.944 273.594 186.088 275.087 208.474C275.892 220.551 278.826 232.414 280.431 244.403C281.14 249.698 281.773 255.003 282.331 260.318C282.719 263.992 284.031 268.796 283.493 272.466C283.414 273.005 283.961 274.214 283.672 274.658C283.54 274.858 277.554 276.89 276.515 277.382C269.853 280.555 263.02 283.354 256.047 285.767C245.043 289.654 233.594 292.143 221.969 293.177C207.485 294.33 192.422 292.702 179.136 286.534C175.893 285.034 173.107 282.877 169.99 281.234C169.386 280.888 168.838 280.451 168.365 279.94C168.725 280.34 168.131 281.568 168.813 279.446C170.743 273.439 170.542 265.808 171.313 259.561C172.357 251.076 173.397 242.588 174.297 234.086C175.643 221.357 176.342 208.532 177.06 195.757C177.526 187.457 177.96 179.144 177.996 170.832C178.01 167.532 178.96 161.02 176.875 158.065C175.017 155.434 169.915 154.093 167.16 152.773C159.207 148.963 151.207 145.255 143.16 141.65C131.29 136.343 118.916 132.245 106.225 129.417C91.1411 125.986 75.984 122.627 60.75 119.917C59.727 119.736 57.8029 119.783 56.8689 119.308C53.0879 117.386 49.7919 106.89 49.8689 103.131C49.9819 97.8129 53.4059 92.59 56.6579 88.583C59.4149 85.183 59.795 85.8007 63.831 87.2007C84.962 94.5327 107.189 96.3259 129.24 98.8369C139.446 99.9999 149.625 101.402 159.846 102.429C166.49 103.096 173.913 104.299 180.567 103.075C195.167 100.388 209.61 96.6671 224.138 93.5191C232.522 91.7021 241.038 89.7549 249.605 89.0269C260.542 88.0959 267.527 95.6537 275.674 101.827C281.195 106.011 290.195 110.568 291.851 117.827C293.642 125.675 293.77 133.819 294.917 141.782C297.386 158.937 300.637 176.006 302.489 193.245C303.806 205.505 302.18 217.918 301.32 230.171C300.308 244.582 298.699 259.062 298.193 273.5C298.172 274.1 297.693 276.99 298.237 276.082C298.781 275.174 296.318 277.042 295.659 277.329C292.118 278.869 288.341 278.529 284.696 277.683C282.787 277.241 282.129 280.352 284.078 280.804C288.471 281.821 297.247 282.509 300.462 277.996C301.771 276.158 301.314 272.649 301.472 270.496C302.539 255.985 303.582 241.472 304.601 226.959C305.408 215.371 306.774 203.815 305.485 192.23C303.619 175.479 300.526 158.881 298.099 142.207C296.58 131.773 298.622 117.245 290.469 109.598C282.674 102.318 274.282 95.7059 265.382 89.8291C259.787 86.1551 254.566 85.3207 248.093 86.0117C231.914 87.7367 215.958 92.1637 200.138 95.8257C194.244 97.1907 188.259 97.9929 182.38 99.3599C174.56 101.179 166.38 99.936 158.468 99.103C137.805 96.93 116.668 95.3028 96.2199 91.6768C84.9049 89.6708 73.788 87.361 62.934 83.521C58.368 81.905 57.555 82.6458 54.382 86.5308C50.137 91.7308 45.882 98.7457 46.854 105.72C47.417 109.779 50.8479 120.071 55.1809 122.211C57.8879 123.548 62.435 123.462 65.375 124.033C72.855 125.488 80.316 127.038 87.768 128.623C101.019 131.441 115.016 133.597 127.693 138.523C142.385 144.229 156.729 151.147 170.864 158.104C175.453 160.362 174.82 162.727 174.906 167.811C175.036 175.448 174.653 183.104 174.268 190.729C173.592 204.105 172.884 217.536 171.556 230.867C170.025 246.231 168.01 261.555 166.056 276.867C165.394 282.059 166.236 282.667 170.608 285.494C193.468 300.251 223.677 298.511 248.733 291.342C261.521 287.533 273.906 282.48 285.708 276.255C286.03 276.123 286.304 275.896 286.494 275.604C286.683 275.312 286.78 274.97 286.77 274.622C285.27 254.903 281.615 235.642 278.956 216.096C275.626 191.626 278.93 165.596 284.319 141.638C284.771 139.631 281.743 139.138 281.3 141.109L281.294 141.11Z" fill="black"/>
<path d="M296.45 278.458C297.994 284.732 300.169 290.335 299.207 296.9C299.137 297.3 299.228 297.712 299.462 298.045C299.695 298.378 300.051 298.604 300.452 298.675C300.852 298.745 301.264 298.653 301.597 298.42C301.93 298.186 302.157 297.83 302.227 297.43C303.281 290.236 301.074 284.26 299.38 277.378C298.891 275.389 295.98 276.555 296.45 278.458Z" fill="black"/>
<path d="M291.184 299.188C288.284 298.776 289.432 293.703 289.832 291.769L288.799 292.992C290.894 291.901 291.021 293.938 291.099 295.692C291.075 296.686 291.238 297.675 291.58 298.609C291.666 298.809 292.327 300.129 292.541 300.091C293.044 299.24 292.964 298.933 292.301 299.168C291.928 299.202 291.553 299.207 291.18 299.184C289.247 299.084 288.569 302.204 290.562 302.305C292.062 302.381 294.106 302.489 295.114 301.116C296.387 299.382 294.636 298.382 294.253 296.822C293.804 294.991 294.325 293.109 293.353 291.347C292.993 290.68 292.434 290.144 291.754 289.811C291.074 289.479 290.308 289.367 289.561 289.492C289.02 289.5 288.489 289.645 288.02 289.915C287.55 290.185 287.157 290.569 286.877 291.033C286.423 292.565 286.243 294.165 286.345 295.76C286.283 298.66 287.245 301.832 290.562 302.305C292.5 302.585 293.17 299.471 291.184 299.188Z" fill="black"/>
<path d="M288.925 289.091C288.712 288.702 288.424 288.359 288.076 288.083C287.729 287.807 287.33 287.604 286.902 287.485C285.097 287.054 283.827 288.563 283.014 289.951C282.83 290.32 282.797 290.746 282.923 291.138C283.049 291.531 283.324 291.859 283.688 292.051C284.065 292.216 284.492 292.229 284.878 292.086C285.264 291.944 285.58 291.658 285.76 291.287C285.897 291.039 286.065 290.809 286.26 290.603C286.338 290.526 286.285 290.595 286.269 290.568C286.443 290.508 286.436 290.507 286.247 290.568C286.057 290.55 286.018 290.549 286.128 290.568C286.238 290.587 286.201 290.575 285.994 290.518C286.058 290.547 286.121 290.58 286.18 290.618C286.257 290.548 285.838 290.518 286.156 290.638C286.2 290.681 286.243 290.726 286.284 290.773C286.121 290.573 286.084 290.538 286.184 290.659C286.237 290.736 286.292 290.812 286.338 290.894C286.45 291.062 286.594 291.207 286.762 291.318C286.931 291.43 287.12 291.506 287.318 291.543C287.517 291.58 287.72 291.578 287.918 291.535C288.115 291.492 288.302 291.41 288.467 291.294C288.806 291.052 289.041 290.692 289.127 290.284C289.213 289.877 289.143 289.452 288.931 289.094L288.925 289.091Z" fill="black"/>
<path d="M237.2 292.81C242.682 311.651 248.171 330.493 253.422 349.399C257.078 362.705 259.971 376.21 262.086 389.847C264.329 403.981 265.667 418.538 269.486 432.365C272.596 443.617 281.445 450.765 293.386 448.007C303.592 445.65 306.366 439.841 305.944 430.082C305.401 417.545 303.344 405.151 303.015 392.596C302.656 378.775 297.532 365.407 294.572 352.012C291.287 337.145 290.799 321.598 288.329 306.546C286.667 296.427 285.029 286.231 282.783 276.221C282.335 274.221 279.424 275.394 279.853 277.301C284.195 296.156 287.248 315.285 288.993 334.556C290.067 347.347 293.18 359.414 296.32 371.835C299.301 383.635 299.569 394.835 300.694 406.824C301.233 412.569 301.92 418.3 302.414 424.049C302.786 428.378 304.174 434.849 302.328 438.989C297.599 449.595 280.274 446.174 275.149 438.276C272.1 433.576 271.317 427.086 270.288 421.704C265.541 396.888 262.946 372.011 256.148 347.604C250.948 328.939 245.538 310.333 240.126 291.729C239.553 289.76 236.645 290.919 237.195 292.809L237.2 292.81Z" fill="black"/>
<path d="M268.924 430.161C270.071 435.522 271.186 440.888 272.271 446.261C273.601 452.919 273.863 458.399 280.908 461.361C286.772 463.823 296.132 462.334 300.873 457.97C304.956 454.212 303.258 447.842 301.704 443.197C301.054 441.254 298.147 442.405 298.774 444.277C299.504 446.156 299.966 448.128 300.149 450.136C300.296 455.174 296.949 457.259 292.499 458.486C285.136 460.515 278.041 458.686 276.256 450.634C274.67 443.48 273.388 436.249 271.856 429.081C271.428 427.081 268.518 428.253 268.926 430.161H268.924Z" fill="black"/>
<path d="M177.191 287.825C174.299 314.861 174.477 341.976 172.143 369.025C170.692 385.839 168.365 402.169 168.263 419.064C168.178 427.41 166.07 435.612 162.118 442.964C160.545 446.02 157.68 449.59 158.541 453.247C159.533 457.466 164.888 460.997 167.878 463.605C172.917 468.005 177.089 472.426 184.027 473.211C192.539 474.174 199.319 472.379 202.302 464.293C211.074 440.52 212.634 412.999 214.382 387.938C216.555 356.778 217.949 325.179 225.89 294.807C226.411 292.817 223.379 292.332 222.87 294.278C210.317 342.288 213.951 392.628 204.814 441.197C203.797 446.604 202.691 452.01 201.257 457.324C200.419 460.424 199.675 465.58 197.196 467.894C191.429 473.278 179.796 469.594 174.882 465.473C170.514 461.814 160.456 455.621 162.222 449.322C163.56 444.551 167.122 440.117 168.759 435.339C170.599 429.68 171.469 423.75 171.334 417.801C171.346 401.526 173.766 385.743 175.163 369.557C177.496 342.507 177.319 315.39 180.211 288.357C180.428 286.33 177.411 285.812 177.191 287.828V287.825Z" fill="black"/>
<path d="M159.963 449.113C150.868 449.952 141.763 445.355 132.92 446.796C127.602 447.664 125.086 451.763 124.62 456.958C124.154 462.09 127.154 464.316 131.283 466.997C137.378 470.954 143.661 474.647 149.869 478.424C158.469 483.657 168.997 489.362 178.957 490.918C191.284 492.844 203.047 481.818 197.503 469.688C196.659 467.842 193.752 468.974 194.573 470.768C198.254 478.818 193.395 484.855 185.726 487.061C179.297 488.909 173.755 485.787 167.849 483.543C162.556 481.653 157.458 479.255 152.626 476.384C148.583 473.926 144.545 471.459 140.513 468.984C137.321 467.023 130.972 464.449 128.888 461.336C125.635 456.477 129.651 450.35 134.966 449.813C138.732 449.432 142.79 451.137 146.452 451.739C150.978 452.491 155.582 452.667 160.152 452.261C162.102 452.082 161.996 448.923 159.973 449.11L159.963 449.113Z" fill="black"/>
<path d="M58.217 83.3102C54.759 82.5102 51.866 81.1103 48.582 82.5173C43.699 84.6053 40.1659 89.7168 39.3669 94.8478C38.5439 100.133 39.502 109.669 42.925 114.283C45.025 117.109 49.1839 117.571 52.4379 118.705C54.2849 119.349 55.6978 116.487 53.8378 115.838C51.9168 115.169 46.2379 113.504 46.0629 113.344C42.8709 110.444 42.452 102.344 42.311 98.6442C42.111 93.4212 44.843 86.6751 50.455 85.0441C51.461 84.7521 55.2001 85.8813 57.6001 86.4333C59.5101 86.8733 60.168 83.7612 58.218 83.3132L58.217 83.3102Z" fill="black"/>
<path d="M51.9351 83.7539C56.9081 79.9819 48.1081 71.7429 45.6131 69.4859C41.0421 65.3499 36.013 66.6082 30.692 68.7862C28.872 69.5312 29.7471 72.5378 31.6451 71.7608C34.8381 70.4538 38.774 68.713 42.002 70.668C44.142 71.968 45.918 74.2679 47.494 76.1519C48.511 77.3679 49.822 78.8141 50.119 80.4361C50.228 81.0311 49.9841 81.3699 50.2701 81.1529C48.6871 82.3529 50.2931 85.003 51.9351 83.753V83.7539Z" fill="black"/>
<path d="M40.6431 72.9141C33.7521 70.1841 26.8891 67.3891 20.0821 64.4561C16.3821 62.8561 6.90204 56.8627 2.59404 60.2617C-5.91496 66.9747 20.026 77.8619 23.742 80.2949C25.389 81.3709 26.7791 78.4948 25.1421 77.4278C21.8831 75.2988 18.575 73.2801 15.147 71.4341C12.93 70.2341 10.6801 69.0937 8.52812 67.7837C6.62212 66.6247 5.02802 66.5148 6.14702 64.2378C7.36902 61.7468 9.74707 63.613 11.9991 64.481C21.1621 68.018 30.1091 72.1608 39.2471 75.7808C41.0751 76.5048 42.483 73.6421 40.647 72.9141H40.6431Z" fill="black"/>
<path d="M18.966 75.0706C15.374 79.2006 16.8579 82.0368 17.8219 86.7888C18.4139 89.7068 17.4339 92.4579 18.0439 95.3079C18.5069 97.4729 19.473 99.1135 19.944 101.218C21.814 109.665 35.3188 111.786 42.8998 112.724C44.8378 112.964 45.5089 109.85 43.5189 109.604C39.927 109.086 36.3849 108.265 32.9308 107.152C30.7788 106.503 27.741 105.799 25.81 104.496C23.616 103.015 24.0389 101.619 23.2499 99.4226C22.032 95.8444 21.4713 92.0754 21.5949 88.2976C21.5529 84.4476 18.347 80.4598 21.248 77.1238C22.573 75.5998 20.3219 73.5166 18.9709 75.0706H18.966Z" fill="black"/>
<path d="M170.806 243.405C177.519 249.693 184.859 255.69 192.921 260.156C194.649 261.113 196.045 258.245 194.321 257.289C186.503 252.958 179.398 247.096 172.886 240.996C171.425 239.627 169.377 242.064 170.808 243.405H170.806Z" fill="black"/>
</svg>
