<svg width="507" height="447" viewBox="0 0 507 447" fill="none" xmlns="http://www.w3.org/2000/svg">
<path d="M2.07104 3.4707L32.3711 110.034L37.3711 108.455L146.128 429.988L325.228 296.507L2.07104 3.4707Z" fill="#EAEAE8"/>
<path d="M5.31812 2.87109L91.7949 75.3018L339.649 285.755L503.972 162.047L143.358 46.458L143.999 44.498L5.31812 2.87109Z" fill="#EAEAE8"/>
<path d="M325.222 296.508L329.751 444.088L258.001 346.608L325.222 296.508Z" fill="#D5D5D2"/>
<path d="M329.751 444.088L339.651 285.756L18.658 13.1997V17.2461L174.991 159.957L325.225 296.507L329.751 444.088Z" fill="#8A8E8D"/>
<path d="M144.871 49.0782L266.645 87.9488L460.558 149.849L504.825 163.979C504.651 163.025 504.477 162.071 504.302 161.117L395.848 241.948L342.786 281.495C341.504 282.451 340.244 283.452 338.932 284.368C341.002 282.922 340.878 285.561 339.783 283.783C338.064 280.994 333.453 278.409 330.983 276.311L228.768 189.519L90.1479 71.819L36.3339 26.1251C27.6459 18.7481 19.0478 9.50089 9.45283 3.30089C9.02702 2.98293 8.62169 2.63883 8.23897 2.27013C6.71397 0.970127 4.66384 3.40782 6.16084 4.67882L118.661 100.201L297.77 252.283L338.613 286.962C338.87 287.183 339.193 287.313 339.531 287.331C339.87 287.349 340.205 287.254 340.484 287.062L485.378 179.072L505.97 163.725C506.221 163.55 506.416 163.305 506.533 163.022C506.649 162.738 506.682 162.427 506.627 162.126C506.571 161.824 506.431 161.545 506.222 161.321C506.012 161.098 505.743 160.938 505.446 160.863L383.673 121.991L189.76 60.0909L145.493 45.9601C143.634 45.3671 142.986 48.4782 144.874 49.0812L144.871 49.0782Z" fill="black"/>
<path d="M85.1089 77.2369L31.5391 108.737L33.8392 109.499L3.02594 1.13584L1.25201 3.23594C42.511 16.4069 84.2099 28.2712 125.703 40.6822L145.056 46.4698C144.881 45.5158 144.706 44.562 144.532 43.608L109.555 63.4562C104.064 66.5722 97.602 69.2768 92.566 73.0968C89.076 75.7428 90.084 79.1271 89.866 83.6651C89.766 85.7171 92.8492 85.3441 92.9432 83.3741L93.138 79.2682C93.214 77.6682 94.1381 74.8731 92.6751 76.5821C93.3831 75.7571 95.168 75.1672 96.097 74.6402L114.588 64.148L146.195 46.212C147.485 45.48 146.863 43.7062 145.672 43.3502L21.5721 6.23008C14.9801 4.25808 8.41346 2.21982 1.87213 0.115823C0.680128 -0.265177 -0.181042 1.23492 0.0979578 2.21592L30.9109 110.579C30.9855 110.802 31.1111 111.005 31.2776 111.171C31.4442 111.337 31.6469 111.462 31.8702 111.536C32.0934 111.61 32.331 111.631 32.5638 111.597C32.7965 111.563 33.018 111.475 33.211 111.341L86.7801 79.8409C88.5031 78.8279 86.8801 76.1988 85.1151 77.2408L85.1089 77.2369Z" fill="black"/>
<path d="M0.519914 2.87608L110.168 102.758L284.192 261.283L324.183 297.712C324.25 296.877 324.318 296.042 324.39 295.206L166.9 412.582C159.448 418.135 151.996 423.688 144.545 429.243L146.845 430.004C134.676 393.715 122.507 357.425 110.336 321.137L51.8419 146.707L38.4528 106.781C37.8008 104.838 34.8939 105.989 35.5219 107.861C47.6919 144.15 59.8616 180.439 72.0309 216.728C91.5289 274.872 111.029 333.015 130.531 391.159L143.92 431.085C143.994 431.309 144.119 431.512 144.285 431.678C144.452 431.845 144.655 431.971 144.878 432.045C145.102 432.118 145.34 432.139 145.573 432.105C145.806 432.07 146.027 431.981 146.22 431.846L303.7 314.471L326.055 297.81C326.251 297.672 326.415 297.493 326.535 297.285C326.654 297.077 326.726 296.844 326.746 296.605C326.765 296.366 326.732 296.125 326.648 295.9C326.565 295.676 326.432 295.472 326.261 295.304L216.614 195.422L42.589 36.8971L2.59999 0.470807C1.11999 -0.878193 -0.928133 1.55801 0.521867 2.87901L0.519914 2.87608Z" fill="black"/>
<path d="M323.684 296.653L327.684 427.147C327.872 433.291 328.06 439.435 328.249 445.578L331.084 444.532L259.293 345.708C258.104 344.071 255.546 345.92 256.7 347.508L328.491 446.332C328.694 446.605 328.98 446.804 329.306 446.901C329.632 446.998 329.98 446.986 330.299 446.869C330.618 446.751 330.891 446.534 331.076 446.249C331.261 445.964 331.349 445.626 331.326 445.287C329.993 401.789 328.658 358.291 327.321 314.793C327.133 308.649 326.945 302.506 326.756 296.363C326.693 294.304 323.618 294.663 323.679 296.653H323.684Z" fill="black"/>
<path d="M338.11 285.901L329.843 420.514C329.45 426.902 329.057 433.29 328.666 439.677C328.54 441.726 331.622 441.35 331.743 439.386C334.498 394.515 337.254 349.644 340.01 304.773C340.402 298.386 340.794 291.998 341.187 285.611C341.313 283.562 338.231 283.938 338.11 285.901Z" fill="black"/>
<path d="M32.0631 111.595L37.722 111.995C39.658 112.13 40.3342 109.014 38.3402 108.874L32.681 108.48C30.745 108.345 30.0691 111.461 32.0631 111.6V111.595Z" fill="black"/>
</svg>
