<svg width="76" height="168" viewBox="0 0 76 168" fill="none" xmlns="http://www.w3.org/2000/svg">
<path d="M75.315 61.4413C75.315 70.8863 76.255 80.4413 75.115 89.7523C72.915 107.67 57.115 120.944 39.093 121.32C20.8 121.702 4.69301 109.054 1.26601 91.3392C0.648452 87.4914 0.385338 83.595 0.48 79.6991C0.396 65.8141 0.334996 51.9273 0.487996 38.0433C0.687996 19.7083 14.507 3.89313 32.277 1.38513C51.226 -1.28887 68.793 9.63494 74.122 27.6849C75.1481 31.447 75.6985 35.323 75.76 39.222C76.01 46.622 75.833 54.0309 75.833 61.4359L75.315 61.4413ZM70.406 61.182H70.423C70.423 52.751 70.897 44.2819 70.329 35.8939C68.968 15.7559 49.157 2.01493 29.702 7.33093C15.219 11.2889 5.79505 23.8033 5.70205 39.3983C5.62605 51.8423 5.60204 64.2883 5.73604 76.7323C5.78904 81.6243 5.729 86.6453 6.769 91.3773C10.128 106.647 24.927 117.308 40.331 116.066C56.494 114.766 69.331 102.366 70.317 86.4662C70.835 78.0712 70.406 69.613 70.406 61.182Z" fill="#231F20"/>
<path d="M38.14 161.327C45.277 155.552 52.2179 149.936 59.1609 144.321C59.7999 143.804 60.3969 142.977 61.1049 142.863C62.3076 142.787 63.515 142.845 64.7049 143.036C64.5829 144.313 64.929 145.997 64.244 146.785C62.578 148.457 60.7714 149.982 58.8439 151.344C52.8529 156.191 46.816 160.983 40.89 165.909C38.978 167.498 37.4649 167.617 35.4899 165.99C27.9599 159.779 20.339 153.678 12.741 147.549C11.259 146.349 10.0409 144.995 11.5339 143.161C13.0269 141.327 14.6069 142.275 16.0729 143.461C23.3329 149.354 30.6 155.23 38.14 161.327Z" fill="#231F20"/>
<path d="M43.279 35.1248C43.279 37.2828 43.3791 39.448 43.2541 41.598C43.2516 42.2692 43.1131 42.9329 42.847 43.5491C42.5809 44.1654 42.1927 44.7214 41.7058 45.1834C41.2189 45.6455 40.6434 46.0042 40.014 46.2376C39.3846 46.4711 38.7145 46.5745 38.044 46.5418C37.398 46.5579 36.7551 46.4453 36.1531 46.2103C35.5511 45.9753 35.0019 45.6227 34.5376 45.1732C34.0732 44.7236 33.7031 44.1862 33.4488 43.5921C33.1944 42.998 33.0609 42.3595 33.0561 41.7132C32.9041 37.4022 32.904 33.0789 33.04 28.7679C33.0754 27.4493 33.6202 26.1957 34.5602 25.2703C35.5002 24.3449 36.7622 23.8198 38.0811 23.805C39.4001 23.7903 40.6735 24.2871 41.6339 25.1912C42.5944 26.0954 43.1672 27.3367 43.232 28.6541C43.377 30.8021 43.261 32.9678 43.261 35.1248H43.279Z" fill="#231F20"/>
</svg>
