<svg width="238" height="282" viewBox="0 0 238 282" fill="none" xmlns="http://www.w3.org/2000/svg">
<path d="M181.3 163.898C175.252 178.447 169.062 193.441 167.7 210.923C165.556 210.342 163.334 210.1 161.116 210.207C158.123 210.268 155.136 210.483 152.166 210.851C151.64 210.916 151.131 211.084 150.67 211.345C150.208 211.606 149.802 211.955 149.476 212.373C149.149 212.791 148.908 213.269 148.767 213.78C148.625 214.291 148.585 214.825 148.65 215.351C148.714 215.877 148.882 216.386 149.143 216.848C149.404 217.309 149.754 217.715 150.172 218.041C150.59 218.368 151.068 218.609 151.579 218.751C152.09 218.892 152.624 218.932 153.15 218.867C155.845 218.534 158.556 218.34 161.271 218.286C162.825 218.159 164.39 218.334 165.878 218.801C166.196 218.902 166.488 219.073 166.732 219.3C166.976 219.528 167.166 219.807 167.289 220.117C167.253 220.417 167.159 220.708 167.01 220.971C166.862 221.234 166.662 221.465 166.424 221.65C165.308 222.533 164.059 223.234 162.724 223.727C157.444 226.021 152.049 228.038 146.559 229.769C141.629 206.178 139.983 182.018 141.67 157.976C141.715 157.335 141.504 156.702 141.082 156.217C140.661 155.732 140.064 155.434 139.423 155.388C138.785 155.357 138.16 155.573 137.677 155.992C137.195 156.41 136.893 156.999 136.835 157.635C135.105 182.26 136.808 207.006 141.896 231.161C139.153 231.941 136.396 232.677 133.618 233.315C132.063 220.872 127.671 209.082 123.379 197.656L109.407 160.456C109.302 160.149 109.137 159.867 108.921 159.625C108.704 159.383 108.442 159.187 108.149 159.049C107.856 158.91 107.538 158.832 107.214 158.819C106.89 158.805 106.567 158.857 106.263 158.971C105.959 159.084 105.682 159.258 105.446 159.481C105.211 159.704 105.023 159.972 104.893 160.269C104.763 160.566 104.694 160.886 104.689 161.21C104.685 161.534 104.746 161.856 104.869 162.156L118.84 199.357C123.077 210.637 127.409 222.277 128.851 234.312C124.394 235.197 119.901 235.919 115.372 236.438C114.144 236.668 112.885 236.668 111.657 236.438C111.278 236.318 111.023 236.101 110.998 236.161C110.976 235.942 110.935 235.726 110.875 235.514C110.865 235.347 110.872 235.18 110.894 235.014C113.541 232.165 116.711 229.852 120.232 228.2L121.21 227.8C121.701 227.599 122.148 227.303 122.525 226.93C122.901 226.556 123.201 226.112 123.406 225.623C123.611 225.133 123.718 224.608 123.72 224.078C123.723 223.547 123.62 223.021 123.419 222.53C123.218 222.039 122.923 221.592 122.549 221.215C122.175 220.838 121.731 220.539 121.242 220.334C120.752 220.128 120.227 220.021 119.697 220.019C119.166 220.017 118.64 220.119 118.149 220.32L117.155 220.727C113.599 222.363 110.305 224.516 107.379 227.115C100.704 212.144 89.9269 198.456 79.3789 185.163C56.0849 155.806 34.0789 128.078 52.8409 87.7071C60.8808 73.5601 73.133 62.2734 87.8906 55.4185C102.648 48.5636 119.176 46.4822 135.173 49.4644C166.256 55.1894 187.742 77.9644 192.643 110.383C195.557 129.598 188.633 146.259 181.3 163.898Z" fill="#FFD126"/>
<path d="M136.649 41.5285C118.947 38.2529 100.664 40.5878 84.3535 48.2072C68.043 55.8267 54.5196 68.3502 45.672 84.0285C24.666 129.206 49.272 160.213 73.063 190.2C85.93 206.416 98.083 221.731 103.35 239.1C103.478 239.524 103.675 239.923 103.933 240.282C103.036 241.99 102.581 243.894 102.608 245.823C102.636 247.751 103.146 249.643 104.092 251.323C104.991 252.818 106.177 254.12 107.581 255.155C106.867 256.589 106.492 258.168 106.485 259.769C106.478 261.371 106.839 262.953 107.541 264.392C108.479 266.137 109.79 267.654 111.381 268.834C112.973 270.014 114.805 270.828 116.747 271.218C117.628 271.419 118.522 271.557 119.422 271.631C120.076 273.616 121.166 275.429 122.613 276.936C124.06 278.444 125.827 279.608 127.783 280.342C130.134 281.218 132.628 281.648 135.137 281.612C137.085 281.59 139.029 281.416 140.95 281.091C147.06 280.129 153.016 278.365 158.664 275.845C162.174 274.277 166.614 271.963 169.846 267.974C171.326 266.222 172.41 264.17 173.025 261.961C173.64 259.751 173.772 257.435 173.411 255.17C176.617 253.301 179.279 250.626 181.132 247.41C183.209 243.464 183.266 238.096 180.504 234.321C181.35 232.348 181.678 230.191 181.456 228.055C181.238 226.273 180.578 224.574 179.535 223.113C178.493 221.651 177.101 220.473 175.487 219.687C175.487 219.664 175.499 219.645 175.498 219.622C175.085 199.922 182.04 183.183 188.766 167C196.198 149.115 203.883 130.622 200.645 109.193C195.2 73.2016 171.279 47.9095 136.649 41.5285ZM165.964 231.134C168.134 230.303 170.146 229.104 171.91 227.591C172.06 227.452 172.164 227.283 172.305 227.138C172.609 227.352 172.865 227.625 173.058 227.942C173.251 228.259 173.377 228.612 173.428 228.979C173.44 229.919 173.239 230.85 172.841 231.701C172.442 232.553 171.857 233.303 171.128 233.896C169.051 235.591 166.704 236.926 164.185 237.843C151.662 243.183 138.607 247.178 125.241 249.763C122.395 250.472 119.451 250.701 116.53 250.44C115.454 250.343 114.412 250.013 113.476 249.473C112.54 248.933 111.734 248.195 111.112 247.311C110.883 246.884 110.742 246.416 110.699 245.933C110.656 245.45 110.711 244.964 110.861 244.503C111.598 244.626 112.344 244.69 113.091 244.696C114.166 244.683 115.239 244.608 116.306 244.471C133.428 242.511 150.164 238.016 165.964 231.134ZM155.37 268.463C150.371 270.695 145.099 272.257 139.691 273.109C136.977 273.535 133.502 273.891 130.709 272.808C129.792 272.439 128.969 271.868 128.302 271.138C141.146 269.442 153.615 265.603 165.19 259.782C164.852 260.914 164.301 261.97 163.566 262.894C161.416 265.543 158.055 267.264 155.37 268.463ZM167.1 249.577C154.313 256.991 140.135 261.69 125.451 263.378C123.178 263.745 120.86 263.734 118.59 263.346C117.812 263.211 117.071 262.914 116.415 262.474C115.759 262.034 115.202 261.462 114.781 260.794C114.583 260.42 114.5 259.996 114.541 259.575C114.582 259.155 114.745 258.755 115.011 258.426C115.037 258.407 115.049 258.379 115.074 258.36C115.174 258.375 115.257 258.415 115.355 258.429C116.442 258.588 117.539 258.665 118.638 258.662C121.374 258.6 124.098 258.276 126.773 257.695C140.7 254.998 154.303 250.835 167.353 245.273C169.869 244.276 172.271 243.013 174.519 241.507C174.493 242.248 174.309 242.975 173.98 243.64C172.7 246.087 169.915 247.939 167.1 249.577ZM181.3 163.898C175.252 178.447 169.062 193.442 167.7 210.924C165.556 210.342 163.335 210.1 161.116 210.207C158.124 210.268 155.136 210.483 152.166 210.851C151.64 210.916 151.131 211.084 150.67 211.345C150.208 211.606 149.802 211.955 149.476 212.373C149.149 212.791 148.909 213.269 148.767 213.78C148.625 214.291 148.585 214.825 148.65 215.351C148.715 215.878 148.882 216.386 149.143 216.848C149.404 217.309 149.754 217.715 150.172 218.041C150.59 218.368 151.068 218.609 151.579 218.751C152.09 218.892 152.624 218.932 153.15 218.867C155.845 218.534 158.556 218.34 161.271 218.286C162.825 218.16 164.39 218.335 165.878 218.801C166.196 218.903 166.488 219.073 166.732 219.3C166.976 219.528 167.166 219.807 167.289 220.117C167.254 220.417 167.159 220.708 167.01 220.971C166.862 221.234 166.663 221.465 166.424 221.651C165.308 222.533 164.059 223.234 162.724 223.727C157.444 226.021 152.049 228.038 146.559 229.769C141.629 206.178 139.984 182.018 141.67 157.976C141.715 157.335 141.504 156.702 141.082 156.217C140.661 155.732 140.064 155.434 139.423 155.388C138.785 155.357 138.16 155.573 137.677 155.992C137.195 156.411 136.893 156.999 136.835 157.635C135.105 182.26 136.808 207.006 141.896 231.161C139.153 231.941 136.396 232.677 133.618 233.315C132.063 220.872 127.671 209.082 123.379 197.656L109.407 160.456C109.302 160.149 109.137 159.867 108.921 159.625C108.705 159.383 108.442 159.188 108.149 159.049C107.856 158.911 107.538 158.833 107.214 158.819C106.89 158.806 106.567 158.857 106.263 158.971C105.959 159.085 105.682 159.258 105.446 159.481C105.211 159.704 105.023 159.972 104.893 160.269C104.763 160.566 104.694 160.886 104.69 161.21C104.685 161.534 104.746 161.856 104.869 162.156L118.84 199.357C123.077 210.637 127.409 222.277 128.851 234.312C124.394 235.197 119.901 235.919 115.372 236.438C114.144 236.668 112.885 236.668 111.657 236.438C111.278 236.318 111.023 236.101 110.998 236.161C110.976 235.942 110.935 235.726 110.875 235.514C110.866 235.347 110.872 235.18 110.894 235.014C113.541 232.166 116.711 229.852 120.232 228.2L121.21 227.8C121.701 227.6 122.148 227.304 122.525 226.93C122.902 226.556 123.201 226.112 123.406 225.623C123.611 225.133 123.718 224.609 123.72 224.078C123.723 223.547 123.62 223.021 123.419 222.53C123.218 222.039 122.923 221.592 122.549 221.215C122.175 220.838 121.731 220.539 121.242 220.334C120.752 220.129 120.227 220.021 119.697 220.019C119.166 220.017 118.64 220.12 118.149 220.321L117.155 220.727C113.599 222.363 110.305 224.516 107.379 227.115C100.704 212.144 89.927 198.456 79.379 185.163C56.085 155.806 34.079 128.078 52.841 87.7072C60.8809 73.5603 73.1331 62.2735 87.8907 55.4187C102.648 48.5638 119.177 46.4824 135.173 49.4646C166.256 55.1896 187.742 77.9645 192.643 110.384C195.557 129.599 188.633 146.259 181.3 163.898ZM161.433 134.945C158.077 132.351 153.888 131.073 149.656 131.353C149.264 131.39 148.876 131.441 148.494 131.51C144.837 128.18 140.379 125.855 135.555 124.763C128.612 123.289 121.378 125.142 116.676 129.592C115.994 130.239 115.367 130.942 114.801 131.693C112.101 130.572 109.183 130.072 106.264 130.232C102.358 130.53 98.6255 131.968 95.5293 134.367C92.4332 136.767 90.1097 140.023 88.847 143.732L88.79 143.911C88.358 144.097 87.932 144.311 87.509 144.539C85.0376 145.964 83.0861 148.142 81.9393 150.754C80.7925 153.366 80.5104 156.276 81.1341 159.059C81.7578 161.843 83.2546 164.355 85.4063 166.228C87.558 168.101 90.2519 169.237 93.095 169.471C93.145 169.471 93.195 169.471 93.243 169.471C93.874 169.472 94.4805 169.227 94.9335 168.787C95.3865 168.348 95.6503 167.749 95.6688 167.118C95.6873 166.488 95.459 165.875 95.0325 165.409C94.6061 164.944 94.015 164.664 93.385 164.628C92.1846 164.482 91.0255 164.097 89.9759 163.497C88.9263 162.896 88.0073 162.092 87.2731 161.132C86.5389 160.171 86.0042 159.073 85.7005 157.903C85.3969 156.732 85.3304 155.513 85.505 154.317C85.8848 152.638 86.7967 151.127 88.105 150.008C88.2817 152.593 89.3658 155.032 91.166 156.895C92.2303 157.902 93.5197 158.639 94.9268 159.046C96.334 159.452 97.8179 159.517 99.255 159.234C100.447 159.038 101.572 158.548 102.526 157.807C103.48 157.066 104.234 156.098 104.718 154.991C105.097 154.049 105.28 153.039 105.255 152.023C105.23 151.007 104.998 150.007 104.573 149.084C103.375 146.492 101.203 144.478 98.529 143.476C97.2561 143.01 95.9143 142.761 94.559 142.738C95.7924 140.585 97.5292 138.763 99.6206 137.427C101.712 136.092 104.096 135.284 106.568 135.071C108.566 134.955 110.566 135.268 112.434 135.988C111.617 138.049 111.24 140.259 111.329 142.475C111.418 144.691 111.97 146.863 112.949 148.853C114.511 151.867 117.698 154.529 121.388 153.673C122.693 153.309 123.862 152.57 124.752 151.549C125.641 150.528 126.212 149.268 126.393 147.925C126.661 145.704 126.253 143.454 125.222 141.468C123.826 138.536 121.715 136.001 119.084 134.096C119.372 133.751 119.681 133.424 120.008 133.115C123.568 129.741 129.139 128.372 134.551 129.505C137.741 130.23 140.74 131.624 143.351 133.594C141.501 134.816 140.028 136.528 139.097 138.54C138.123 140.705 137.911 143.136 138.495 145.437C139.079 147.738 140.425 149.773 142.313 151.212C143.391 151.93 144.608 152.411 145.885 152.624C147.163 152.837 148.471 152.778 149.723 152.448C150.883 152.174 151.97 151.655 152.912 150.924C153.853 150.193 154.627 149.269 155.18 148.214C156.899 144.771 156.101 140.514 153.011 136.338C155.023 136.75 156.918 137.607 158.556 138.846C161.151 140.882 163.312 143.417 164.912 146.3C165.247 146.841 165.782 147.228 166.4 147.378C167.018 147.528 167.67 147.429 168.216 147.103C168.762 146.777 169.158 146.249 169.319 145.634C169.479 145.019 169.392 144.365 169.075 143.813C167.149 140.376 164.552 137.36 161.438 134.945H161.433ZM96.857 148.026C98.2901 148.572 99.4605 149.645 100.129 151.026C100.293 151.348 100.388 151.702 100.408 152.063C100.427 152.425 100.371 152.787 100.243 153.125C100.055 153.489 99.7824 153.802 99.4478 154.037C99.1131 154.272 98.7265 154.423 98.321 154.476C97.6662 154.611 96.989 154.591 96.3435 154.417C95.6979 154.244 95.1019 153.921 94.603 153.476C93.9229 152.69 93.4224 151.766 93.1362 150.767C92.8501 149.768 92.7851 148.718 92.946 147.692C94.2579 147.456 95.6088 147.572 96.862 148.026H96.857ZM120.835 143.526C121.44 144.638 121.708 145.902 121.606 147.164C121.564 147.554 121.419 147.924 121.185 148.238C120.951 148.553 120.638 148.799 120.277 148.95C119.277 149.218 117.945 147.95 117.253 146.624C116.019 144.063 115.832 141.121 116.733 138.425C118.476 139.786 119.881 141.532 120.84 143.526H120.835ZM150.842 146.048C150.599 146.48 150.266 146.854 149.866 147.148C149.466 147.441 149.008 147.645 148.523 147.747C147.945 147.905 147.34 147.94 146.747 147.851C146.154 147.762 145.586 147.55 145.08 147.229C144.113 146.444 143.435 145.36 143.151 144.147C142.868 142.934 142.995 141.662 143.514 140.529C144.284 138.952 145.585 137.694 147.188 136.978C147.522 137.329 147.85 137.685 148.172 138.054C149.171 139.189 152.3 143.125 150.847 146.048H150.842ZM45.311 175.823C45.8441 176.687 46.0326 177.72 45.839 178.717C45.6453 179.713 45.0838 180.6 44.266 181.201L31.459 190.615C30.5952 191.25 29.5147 191.515 28.4553 191.353C27.3959 191.191 26.4444 190.614 25.81 189.75C25.1756 188.886 24.9103 187.806 25.0725 186.747C25.2347 185.687 25.8112 184.736 26.675 184.101L37.78 175.941C38.1467 175.464 38.6146 175.074 39.15 174.8L40.037 174.346C40.9412 173.883 41.9871 173.777 42.9658 174.051C43.9444 174.325 44.7837 174.958 45.316 175.823H45.311ZM27.404 154.323C21.7875 157.225 15.752 159.231 9.51597 160.269C9.2946 160.304 9.07097 160.321 8.84697 160.322C7.83391 160.32 6.85861 159.938 6.11436 159.25C5.37011 158.563 4.91124 157.621 4.8287 156.612C4.74616 155.602 5.04598 154.598 5.66873 153.799C6.29147 153 7.19169 152.464 8.19096 152.298C13.5971 151.399 18.8295 149.661 23.699 147.146C24.6507 146.655 25.7586 146.562 26.779 146.887C27.7994 147.213 28.6487 147.931 29.14 148.883C29.6313 149.834 29.7244 150.942 29.3988 151.963C29.0733 152.983 28.3557 153.832 27.404 154.323ZM5.95596 127.709C5.01299 128.202 3.91357 128.304 2.89647 127.991C1.87937 127.678 1.02673 126.977 0.523755 126.039C0.0207788 125.101 -0.0919236 124.003 0.210126 122.983C0.512175 121.962 1.20458 121.102 2.13696 120.59C7.6215 117.654 13.7356 116.092 19.956 116.035H19.987C21.0477 116.047 22.0612 116.476 22.8086 117.229C23.5559 117.982 23.9772 118.998 23.9814 120.059C23.9856 121.12 23.5724 122.14 22.831 122.899C22.0897 123.657 21.0796 124.094 20.019 124.114C15.1108 124.16 10.2869 125.395 5.96096 127.715L5.95596 127.709ZM0.726971 90.8254C0.742988 89.7647 1.17555 88.753 1.93126 88.0085C2.68696 87.264 3.70516 86.8465 4.76597 86.8464H4.82597L21.496 87.0984C22.5576 87.1211 23.5676 87.5612 24.3075 88.323C25.0473 89.0847 25.4574 90.1073 25.4491 91.1692C25.4409 92.231 25.0148 93.2466 24.2632 93.9968C23.5116 94.7469 22.4949 95.1712 21.433 95.1775H21.37L4.70596 94.9255C3.63646 94.9079 2.61759 94.467 1.87266 93.6994C1.12773 92.9318 0.717522 91.8998 0.731961 90.8303L0.726971 90.8254ZM14.789 56.1452C14.9947 55.6553 15.2954 55.2112 15.6737 54.8381C16.052 54.4649 16.5004 54.1703 16.9932 53.9714C17.4859 53.7724 18.0131 53.6731 18.5445 53.6789C19.0758 53.6848 19.6007 53.7958 20.089 54.0056L35.073 60.3674C35.9306 60.7314 36.6361 61.3807 37.0697 62.2053C37.5034 63.0299 37.6387 63.9794 37.4526 64.8923C37.2666 65.8052 36.7706 66.6255 36.0488 67.2146C35.327 67.8037 34.4237 68.1249 33.492 68.1242C32.9509 68.1258 32.4152 68.0168 31.918 67.8034L16.933 61.4406C15.9482 61.0223 15.1698 60.2299 14.7687 59.238C14.3676 58.2461 14.3767 57.1358 14.794 56.1506L14.789 56.1452ZM43.348 35.9187C42.657 35.1043 42.3166 34.0492 42.4012 32.9846C42.4858 31.9199 42.9886 30.932 43.7995 30.237C44.6104 29.542 45.6635 29.1963 46.7286 29.2756C47.7936 29.3549 48.7839 29.8529 49.483 30.6604L56.025 38.2922C56.953 39.3742 58.108 40.7214 59.118 41.0534C60.1253 41.3973 60.9563 42.1248 61.4304 43.0778C61.9045 44.0308 61.9834 45.1324 61.6501 46.1433C61.3167 47.1541 60.598 47.9927 59.65 48.4768C58.702 48.9608 57.6013 49.051 56.587 48.7282C53.44 47.6902 51.387 45.2975 49.887 43.5495L43.348 35.9187ZM91.277 12.2526C90.9192 11.2492 90.9721 10.145 91.4242 9.18038C91.8763 8.21576 92.6911 7.46875 93.6912 7.10177C94.6913 6.73478 95.7959 6.77717 96.7646 7.22042C97.7333 7.66367 98.4878 8.47176 98.864 9.46847L104.055 23.6486C104.237 24.1467 104.32 24.6758 104.298 25.2058C104.275 25.7357 104.149 26.2559 103.926 26.737C103.703 27.2182 103.387 27.6509 102.996 28.01C102.606 28.369 102.149 28.6475 101.65 28.8298C101.152 29.0121 100.623 29.0946 100.093 29.0725C99.5633 29.0503 99.0429 28.9242 98.5617 28.7009C98.0806 28.4776 97.6481 28.1616 97.289 27.7712C96.93 27.3808 96.6513 26.9236 96.469 26.4255L91.277 12.2526ZM138.168 22.4773L140.393 4.49532C140.524 3.43233 141.072 2.46517 141.917 1.80636C142.761 1.14754 143.833 0.851344 144.896 0.982626C145.959 1.11391 146.926 1.66208 147.585 2.50655C148.244 3.35103 148.54 4.42257 148.409 5.48556L146.184 23.4685C146.063 24.445 145.59 25.3438 144.854 25.9963C144.117 26.6488 143.168 27.0101 142.184 27.0124C142.017 27.0129 141.85 27.0028 141.684 26.9816C140.622 26.85 139.656 26.3018 138.998 25.4582C138.339 24.6147 138.043 23.5447 138.173 22.4826L138.168 22.4773ZM174.291 32.6994L182.518 18.3176C182.777 17.8482 183.127 17.4351 183.547 17.1023C183.967 16.7694 184.449 16.5233 184.965 16.3786C185.481 16.2339 186.021 16.1931 186.553 16.259C187.085 16.3249 187.599 16.4961 188.064 16.7624C188.529 17.0287 188.937 17.3849 189.263 17.8103C189.589 18.2356 189.827 18.7221 189.964 19.2404C190.1 19.7588 190.133 20.2989 190.058 20.8298C189.984 21.3607 189.805 21.8713 189.531 22.3322L181.303 36.7136C181.042 37.1794 180.692 37.5886 180.272 37.9182C179.852 38.2477 179.371 38.491 178.856 38.6335C178.342 38.776 177.804 38.8152 177.275 38.7487C176.745 38.6823 176.234 38.5115 175.771 38.2463C175.307 37.9811 174.901 37.6269 174.576 37.2038C174.25 36.7807 174.012 36.2972 173.874 35.7815C173.737 35.2657 173.703 34.7279 173.774 34.1989C173.846 33.6699 174.021 33.1601 174.291 32.6994ZM212.014 81.7644C211.687 81.8488 211.351 81.8914 211.014 81.8913C210.03 81.8906 209.08 81.5306 208.343 80.8791C207.605 80.2277 207.131 79.3296 207.009 78.3532C206.887 77.3769 207.126 76.3898 207.68 75.5769C208.234 74.764 209.066 74.1811 210.02 73.9382L225.304 70.0383C225.818 69.907 226.353 69.8785 226.878 69.9538C227.403 70.0292 227.908 70.2072 228.364 70.4777C228.82 70.7483 229.219 71.1059 229.537 71.5305C229.855 71.955 230.086 72.4379 230.217 72.9519C230.349 73.4658 230.378 74.0005 230.302 74.5256C230.227 75.0507 230.049 75.5557 229.778 76.0119C229.508 76.4682 229.15 76.8668 228.725 77.1848C228.301 77.5028 227.818 77.7341 227.304 77.8654L212.014 81.7644ZM193.324 56.3645C192.679 55.509 192.4 54.4323 192.549 53.3713C192.697 52.3103 193.261 51.3517 194.116 50.7063L206.709 41.2063C207.564 40.561 208.641 40.2822 209.702 40.4309C210.764 40.5795 211.722 41.1433 212.367 41.9987C213.013 42.8542 213.292 43.9312 213.143 44.9924C212.995 46.0536 212.43 47.0122 211.575 47.6574L198.983 57.1574C198.127 57.8023 197.05 58.081 195.989 57.9323C194.928 57.7836 193.969 57.2197 193.324 56.3645ZM232.724 98.0515C233.237 97.9052 233.774 97.862 234.304 97.9245C234.834 97.987 235.347 98.1541 235.812 98.4157C236.277 98.6774 236.685 99.0284 237.014 99.4489C237.343 99.8695 237.585 100.351 237.726 100.865C237.867 101.38 237.905 101.918 237.838 102.447C237.77 102.976 237.598 103.487 237.332 103.95C237.066 104.412 236.711 104.818 236.287 105.142C235.864 105.467 235.38 105.704 234.864 105.841C229.282 107.366 223.424 107.587 217.743 106.488C217.222 106.386 216.727 106.183 216.285 105.89C215.843 105.597 215.463 105.22 215.167 104.78C214.87 104.34 214.664 103.846 214.558 103.326C214.453 102.807 214.451 102.271 214.552 101.751C214.654 101.23 214.857 100.735 215.15 100.293C215.443 99.8512 215.82 99.4708 216.26 99.1745C216.7 98.8783 217.194 98.6715 217.713 98.5661C218.233 98.4607 218.768 98.4588 219.289 98.5603C223.749 99.4247 228.348 99.2527 232.731 98.0573L232.724 98.0515ZM236.432 140.013C236.088 141.028 235.355 141.864 234.395 142.338C233.434 142.812 232.324 142.885 231.31 142.541L214.454 136.825C213.44 136.481 212.604 135.747 212.13 134.786C211.657 133.825 211.584 132.715 211.929 131.7C212.274 130.686 213.007 129.85 213.969 129.377C214.93 128.903 216.04 128.831 217.054 129.175L233.91 134.891C234.413 135.061 234.878 135.329 235.278 135.679C235.677 136.029 236.004 136.454 236.239 136.93C236.474 137.407 236.613 137.925 236.647 138.455C236.681 138.985 236.611 139.517 236.439 140.019L236.432 140.013ZM110.299 72.4572C101.574 73.0941 93.1688 76.0082 85.9219 80.9084C78.675 85.8086 72.8399 92.5237 68.999 100.384C68.7764 100.868 68.4599 101.304 68.0678 101.666C67.6757 102.028 67.2157 102.309 66.7145 102.492C66.2133 102.676 65.6807 102.757 65.1476 102.734C64.6145 102.71 64.0914 102.58 63.6086 102.353C63.1257 102.126 62.6927 101.805 62.3344 101.41C61.9762 101.014 61.6999 100.552 61.5215 100.049C61.3431 99.5461 61.2662 99.0126 61.2951 98.4797C61.324 97.9468 61.4582 97.4252 61.69 96.9445C70.296 78.6395 89.645 65.5553 109.837 64.3903C110.903 64.3441 111.945 64.715 112.741 65.4245C113.538 66.134 114.027 67.1266 114.104 68.1906C114.135 68.7206 114.062 69.2515 113.888 69.7531C113.714 70.2548 113.443 70.7171 113.09 71.114C112.738 71.5108 112.31 71.8341 111.832 72.0656C111.355 72.2972 110.836 72.4326 110.306 72.4636L110.299 72.4572ZM119.561 67.6477C119.733 67.1454 120.003 66.6819 120.354 66.2844C120.706 65.8868 121.133 65.563 121.611 65.3313C122.089 65.0995 122.607 64.9646 123.137 64.9343C123.667 64.904 124.198 64.9787 124.699 65.1545L128.281 66.3977C129.183 66.7105 129.945 67.3327 130.432 68.154C130.919 68.9753 131.099 69.9425 130.94 70.884C130.782 71.8255 130.295 72.6804 129.566 73.2971C128.837 73.9137 127.914 74.2523 126.959 74.2526C126.509 74.2539 126.062 74.178 125.637 74.0285L122.055 72.7854C121.045 72.4338 120.216 71.6963 119.75 70.7341C119.284 69.7719 119.218 68.6639 119.568 67.6535L119.561 67.6477Z" fill="black"/>
</svg>
