<svg xmlns="http://www.w3.org/2000/svg" xmlns:xlink="http://www.w3.org/1999/xlink" viewBox="0 0 237.83 280.66">
<defs>
    <style>
    .cls-1{fill:none;}.cls-2{clip-path:url(#clip-path);}.cls-3{fill:#ffd126;}</style>
    <clipPath id="clip-path">
        <path class="cls-1" d="M790.48,142.24c-6.91.77-47.73.47-86,.16-34.07-.27-66.14-.54-70.51-.05-4.1.46-15.69.31-27.27.16-14.65-.18-29.26-.37-28.59.66.52.81-.62,11.44-1.76,23.83-1.48,16-3,35-.83,39.38s1.4,15.23.63,24.05c-.57,6.57-1.14,12.05-.5,13a2.45,2.45,0,0,1-.12,2.4c-.6,1.42-1.2,2.55,3.73,2.65,7.56.15,83.3-.83,100.08-1.22,9.06-.21,37.4.08,67.43.37,41.77.4,86.79.8,87.75-.14,2.28-2.24,4-25.7,2.82-27.55s5.18-71.11,5.18-71.11l-1-5.16s-24.41-1.89-40.81-1.89a99.37,99.37,0,0,0-10.2.4"/>
    </clipPath>
</defs>
<path class="cls-3" d="M181.29,162.94c-6,14.55-12.24,29.54-13.6,47a21.22,21.22,0,0,0-6.58-.72,87.34,87.34,0,0,0-9,.64,4,4,0,1,0,1,8,79.25,79.25,0,0,1,8.12-.58,12.13,12.13,0,0,1,4.61.51,2.25,2.25,0,0,1,1.41,1.32,2.28,2.28,0,0,1-.86,1.53,13.57,13.57,0,0,1-3.7,2.08,166.2,166.2,0,0,1-16.16,6A261.51,261.51,0,0,1,141.67,157a2.42,2.42,0,0,0-2.25-2.59,2.47,2.47,0,0,0-2.59,2.25,266.17,266.17,0,0,0,5.06,73.53c-2.74.78-5.5,1.51-8.28,2.15-1.55-12.44-5.95-24.23-10.24-35.66l-14-37.2a2.42,2.42,0,1,0-4.54,1.7l14,37.2c4.24,11.28,8.57,22.92,10,35-4.46.89-8.95,1.61-13.48,2.13a10.06,10.06,0,0,1-3.71,0c-.38-.12-.63-.34-.66-.28a3.72,3.72,0,0,0-.12-.65,2.87,2.87,0,0,1,0-.5,30.35,30.35,0,0,1,9.34-6.81l1-.4a4,4,0,1,0-3.06-7.48l-1,.41a39.77,39.77,0,0,0-9.78,6.39c-6.67-15-17.45-28.66-28-42-23.29-29.36-45.3-57.08-26.54-97.46a78.21,78.21,0,0,1,82.33-38.24c31.08,5.72,52.57,28.5,57.47,60.92,2.9,19.2-4,35.86-11.35,53.5"/>
<path d="M136.64,40.58a86.41,86.41,0,0,0-91,42.5c-21,45.18,3.6,76.18,27.39,106.17,12.87,16.21,25,31.53,30.29,48.9a4,4,0,0,0,.58,1.18,11.56,11.56,0,0,0,.16,11,13.27,13.27,0,0,0,3.49,3.83,10.45,10.45,0,0,0,0,9.24,13.46,13.46,0,0,0,9.21,6.83,18.88,18.88,0,0,0,2.68.41,14,14,0,0,0,8.36,8.71,20.21,20.21,0,0,0,7.35,1.27,37.17,37.17,0,0,0,5.81-.52,70.29,70.29,0,0,0,17.71-5.24c3.51-1.57,7.95-3.88,11.18-7.87a16,16,0,0,0,3.57-12.8,21.27,21.27,0,0,0,7.72-7.76c2.08-3.94,2.14-9.31-.63-13.09a12.6,12.6,0,0,0,1-6.27,10.76,10.76,0,0,0-6-8.37s0,0,0-.07C175.07,199,182,182.23,188.75,166c7.43-17.88,15.12-36.38,11.88-57.81-5.44-36-29.37-61.28-64-67.66M166,230.18a20.3,20.3,0,0,0,5.95-3.54c.15-.14.26-.31.4-.45a2.7,2.7,0,0,1,1.12,1.84,6.24,6.24,0,0,1-2.3,4.92,23.93,23.93,0,0,1-6.94,3.95,192.49,192.49,0,0,1-38.95,11.92,26.35,26.35,0,0,1-8.71.68,7.43,7.43,0,0,1-5.42-3.13,3.59,3.59,0,0,1-.25-2.81,14.05,14.05,0,0,0,2.23.19,28,28,0,0,0,3.22-.23A173.89,173.89,0,0,0,166,230.18m-10.6,37.33a62.19,62.19,0,0,1-15.68,4.65c-2.71.43-6.19.78-9-.3a6.61,6.61,0,0,1-2.41-1.67,115.87,115.87,0,0,0,36.89-11.36,9.23,9.23,0,0,1-1.62,3.11c-2.15,2.65-5.51,4.37-8.2,5.57m11.73-18.88a107.5,107.5,0,0,1-41.65,13.8,20.89,20.89,0,0,1-6.86,0,5.64,5.64,0,0,1-3.81-2.55,2.16,2.16,0,0,1,.23-2.37l.06-.07c.1,0,.18.06.28.07a22.2,22.2,0,0,0,3.28.23,42.8,42.8,0,0,0,8.14-1,200.76,200.76,0,0,0,40.58-12.42,38,38,0,0,0,7.17-3.77,5.26,5.26,0,0,1-.54,2.14c-1.29,2.44-4.07,4.3-6.88,5.93m14.21-85.68c-6,14.55-12.24,29.54-13.6,47a21.23,21.23,0,0,0-6.58-.72,87.37,87.37,0,0,0-9,.64,4,4,0,1,0,1,8,79.25,79.25,0,0,1,8.12-.58,12.13,12.13,0,0,1,4.61.51,2.25,2.25,0,0,1,1.41,1.32,2.28,2.28,0,0,1-.86,1.53,13.55,13.55,0,0,1-3.7,2.08,166.2,166.2,0,0,1-16.16,6A261.51,261.51,0,0,1,141.67,157a2.42,2.42,0,0,0-2.25-2.59,2.48,2.48,0,0,0-2.59,2.25,266.25,266.25,0,0,0,5.06,73.52c-2.74.78-5.5,1.52-8.28,2.15-1.56-12.44-5.95-24.23-10.24-35.66l-14-37.2a2.42,2.42,0,1,0-4.54,1.7l14,37.2c4.24,11.28,8.57,22.92,10,35-4.46.89-8.95,1.61-13.48,2.13a10.08,10.08,0,0,1-3.71,0c-.38-.12-.63-.34-.66-.28a3.73,3.73,0,0,0-.12-.65,2.86,2.86,0,0,1,0-.5,30.33,30.33,0,0,1,9.34-6.81l1-.4a4,4,0,1,0-3.06-7.48l-1,.41a39.72,39.72,0,0,0-9.78,6.39c-6.68-15-17.45-28.66-28-42-23.29-29.36-45.3-57.08-26.54-97.46a78.21,78.21,0,0,1,82.33-38.24c31.08,5.72,52.57,28.5,57.47,60.92,2.9,19.2-4,35.86-11.35,53.5m-19.87-29a17.38,17.38,0,0,0-11.78-3.59c-.39,0-.78.09-1.16.16a28.6,28.6,0,0,0-12.94-6.75c-6.94-1.47-14.18.38-18.88,4.83a17,17,0,0,0-1.87,2.1,19.49,19.49,0,0,0-8.54-1.46,20,20,0,0,0-17.42,13.5l-.06.18c-.43.19-.86.4-1.28.63a13.38,13.38,0,0,0,5.59,24.93h.15a2.42,2.42,0,0,0,.14-4.85,9.07,9.07,0,0,1-7.88-10.31,8,8,0,0,1,2.6-4.31,11,11,0,0,0,3.06,6.89,9.18,9.18,0,0,0,8.09,2.34,7.24,7.24,0,0,0,5.46-4.24,7.47,7.47,0,0,0-.15-5.91,10.86,10.86,0,0,0-6-5.61,12.18,12.18,0,0,0-4-.74,15.35,15.35,0,0,1,12-7.67,14,14,0,0,1,5.87.92,15.88,15.88,0,0,0,.51,12.87c1.56,3,4.75,5.67,8.44,4.82a6.93,6.93,0,0,0,5-5.75,11.13,11.13,0,0,0-1.17-6.46,19.39,19.39,0,0,0-6.14-7.37,11.41,11.41,0,0,1,.92-1c3.56-3.37,9.13-4.74,14.54-3.61a23.12,23.12,0,0,1,8.8,4.09,11.93,11.93,0,0,0-4.25,4.95,10.51,10.51,0,0,0,3.22,12.67,9.15,9.15,0,0,0,7.41,1.24,8.31,8.31,0,0,0,5.46-4.24c1.72-3.44.92-7.7-2.17-11.87a13.77,13.77,0,0,1,5.55,2.51,24.73,24.73,0,0,1,6.36,7.45,2.42,2.42,0,0,0,4.16-2.49,29.45,29.45,0,0,0-7.64-8.87M96.85,147.07a6,6,0,0,1,3.27,3,2.6,2.6,0,0,1,.11,2.1,2.54,2.54,0,0,1-1.92,1.35,4.29,4.29,0,0,1-3.72-1,7.15,7.15,0,0,1-1.66-5.78,7.56,7.56,0,0,1,3.91.33m24-4.5a6.51,6.51,0,0,1,.77,3.64,2.19,2.19,0,0,1-1.33,1.79c-1,.27-2.33-1-3-2.33a10.93,10.93,0,0,1-.52-8.21,14.4,14.4,0,0,1,4.1,5.11m30,2.52a3.48,3.48,0,0,1-2.32,1.7,4.31,4.31,0,0,1-3.44-.52,5.62,5.62,0,0,1-1.57-6.7,7.48,7.48,0,0,1,3.67-3.55c.33.35.66.71,1,1.08,1,1.14,4.13,5.07,2.67,8M45.3,174.87a4,4,0,0,1-1,5.38l-12.81,9.41a4,4,0,0,1-4.79-6.51L37.77,175a4.06,4.06,0,0,1,1.37-1.14l.89-.45a4,4,0,0,1,5.27,1.48M27.4,153.38a60.66,60.66,0,0,1-17.89,5.95,4.35,4.35,0,0,1-.67.05,4,4,0,0,1-.66-8,52.57,52.57,0,0,0,15.51-5.15,4,4,0,0,1,3.71,7.18M5.95,126.76a4,4,0,0,1-3.82-7.12,38.5,38.5,0,0,1,17.82-4.55h0a4,4,0,0,1,0,8.08,30.34,30.34,0,0,0-14.06,3.6M.72,89.88a4,4,0,0,1,4-4h.06l16.67.25a4,4,0,0,1-.06,8.08h-.06L4.7,94a4,4,0,0,1-4-4.1M14.78,55.2a4,4,0,0,1,5.3-2.14l15,6.36a4,4,0,0,1-1.58,7.76,4,4,0,0,1-1.57-.32l-15-6.36a4,4,0,0,1-2.14-5.3M43.34,35a4,4,0,1,1,6.13-5.26L56,37.34c.93,1.08,2.08,2.43,3.09,2.76a4,4,0,0,1-2.53,7.67c-3.15-1-5.2-3.43-6.7-5.18ZM91.27,11.31a4,4,0,0,1,7.59-2.78L104,22.7a4,4,0,0,1-7.59,2.78Zm46.89,10.23,2.23-18a4,4,0,1,1,8,1l-2.23,18a4,4,0,0,1-8-1m36.12,10.22,8.23-14.38a4,4,0,1,1,7,4L181.3,35.77a4,4,0,1,1-7-4M212,80.82A4,4,0,1,1,210,73l15.28-3.9a4,4,0,0,1,2,7.83Zm-18.69-25.4a4,4,0,0,1,.79-5.66l12.59-9.5a4,4,0,0,1,4.87,6.45L199,56.21a4,4,0,0,1-5.66-.79m39.4,41.69a4,4,0,0,1,2.14,7.79,37.66,37.66,0,0,1-10,1.33,37.28,37.28,0,0,1-7.16-.69,4,4,0,0,1,1.55-7.93,29.65,29.65,0,0,0,13.43-.51m3.71,42a4,4,0,0,1-5.12,2.53l-16.86-5.72a4,4,0,0,1,2.59-7.65l16.86,5.72a4,4,0,0,1,2.53,5.12M110.29,71.51A50,50,0,0,0,69,99.44,4,4,0,1,1,61.68,96c8.61-18.3,28-31.39,48.15-32.55a4.1,4.1,0,0,1,4.27,3.8,4,4,0,0,1-3.8,4.27m9.26-4.81a4,4,0,0,1,5.14-2.49l3.58,1.24A4,4,0,0,1,127,73.31a4,4,0,0,1-1.32-.22l-3.58-1.24a4,4,0,0,1-2.49-5.14"/>
</svg>
