<svg width="357" height="351" viewBox="0 0 357 351" fill="none" xmlns="http://www.w3.org/2000/svg">
<path d="M102.365 66.1809C103.273 68.9773 103.984 71.8337 104.495 74.729C102.023 73.9733 99.3803 73.9884 96.9175 74.7725C94.4548 75.5565 92.2894 77.0724 90.7096 79.1179C89.1298 81.1635 88.2107 83.6417 88.0747 86.2227C87.9386 88.8036 88.5921 91.3647 89.948 93.5649C91.0959 95.3613 92.6781 96.8394 94.5482 97.8625C96.4184 98.8857 98.5163 99.421 100.648 99.4189C102.088 99.4209 103.517 99.1653 104.867 98.6641C107.043 97.7958 108.932 96.3361 110.322 94.45C111.712 92.5638 112.546 90.3264 112.73 87.991C113.446 87.433 114.09 86.7878 114.646 86.0701C118.163 81.1701 117.089 72.5619 114.724 64.3259L143.282 60.041C143.549 62.934 143.708 65.6819 143.717 68.0859C143.526 67.9329 143.396 67.7209 143.192 67.5859C141.649 66.5938 139.882 66.0023 138.053 65.8645C136.223 65.7267 134.388 66.0473 132.714 66.7971C129.748 68.1551 127.317 70.4597 125.802 73.3491C124.517 75.614 123.798 78.1562 123.708 80.7588C123.617 83.3614 124.157 85.9472 125.282 88.2959C126.378 90.431 128.032 92.2292 130.068 93.4988C132.105 94.7684 134.448 95.4622 136.847 95.5061C138.816 95.5121 140.751 94.9979 142.458 94.0156C144.164 93.0333 145.581 91.6178 146.564 89.9121C147.112 88.9728 147.522 87.9594 147.78 86.9031C149.252 86.3647 150.574 85.4812 151.634 84.3269C155.976 79.6019 156.491 69.0589 155.486 58.2129L189.586 53.0969C190.013 58.5969 189.72 63.255 188.67 66.812C188.417 67.4285 188.113 68.0232 187.763 68.5901C187.503 67.9416 187.171 67.3241 186.774 66.749C185.558 65.2597 183.983 64.1047 182.197 63.3928C180.412 62.6809 178.474 62.4355 176.567 62.6799C173.055 63.2007 169.883 65.0653 167.72 67.8801C166.074 69.9619 165.026 72.4527 164.69 75.0852C164.354 77.7177 164.741 80.3923 165.811 82.821C166.852 84.9739 168.471 86.7946 170.488 88.0798C172.505 89.3651 174.839 90.0644 177.23 90.0991C178.037 90.1012 178.842 90.0156 179.63 89.844C181.728 89.3806 183.617 88.246 185.012 86.6121C193.745 85.3511 199.919 72.2121 200.464 70.3621C202.008 65.1291 202.34 58.662 201.699 51.28L236.575 46.0471C237.027 49.8168 236.972 53.63 236.41 57.385C234.741 56.1435 232.761 55.3886 230.689 55.2041C228.689 55.0681 226.686 55.4073 224.842 56.1941C222.999 56.9809 221.367 58.1929 220.082 59.731C217.686 62.6168 216.421 66.2753 216.522 70.0249C216.453 72.9291 217.437 75.7603 219.292 77.9961C221.111 80.0551 223.829 81.3731 227.379 81.9121C228.399 82.0716 229.43 82.1534 230.462 82.157C232.825 82.2107 235.159 81.6347 237.226 80.488C238.839 79.592 240.163 78.2556 241.044 76.6348C241.926 75.014 242.328 73.1757 242.203 71.335C243.55 70.3046 244.701 69.0417 245.603 67.606C249.069 61.956 249.673 53.0061 248.816 44.2061L282.268 39.187C282.402 42.5978 281.913 46.0044 280.825 49.24C280.543 50.0013 280.165 50.7242 279.702 51.3911C278.431 50.1263 276.846 49.2225 275.11 48.7729C273.207 48.3378 271.224 48.4039 269.355 48.9648C267.486 49.5258 265.794 50.5622 264.445 51.9729C263.195 53.3018 262.239 54.8791 261.639 56.6021C261.039 58.325 260.809 60.155 260.963 61.9729C261.119 64.2334 261.837 66.4192 263.052 68.332C264.267 70.2449 265.94 71.8243 267.919 72.927C269.744 73.9065 271.784 74.4172 273.855 74.4131C276.502 74.4306 279.081 73.5769 281.195 71.9839C282.614 70.8769 283.757 69.4548 284.531 67.8301C285.306 66.2054 285.692 64.4227 285.659 62.623C288.726 60.382 291.045 57.2666 292.312 53.6851C294.143 48.9551 294.761 43.1851 294.574 37.3411L312.959 34.582C332.21 118.153 342.035 212.138 344.036 278.395C343.989 278.395 343.947 278.38 343.9 278.387C257.354 290.13 169.936 303.481 83.9 318.051C79.586 238.881 65.262 142.187 51.457 73.8169L102.365 66.1809Z" fill="white"/>
<path d="M323.66 26.2271C323.297 24.7282 322.388 23.4186 321.111 22.5547C319.833 21.6908 318.279 21.3345 316.753 21.5559L293.07 25.1089C291.77 19.0289 289.791 13.7091 287.63 10.5171C279.683 -1.2449 272.044 -0.195943 268.181 1.47706C259 5.47706 255.204 20.0469 255.875 30.6899L246.726 32.063C245.235 26.036 243.282 21.0391 241.469 18.6751C233.469 8.22205 226.069 9.26098 222.376 10.824C213.847 14.41 209.614 27.3419 209.41 37.6609L199.915 39.0859C199.859 38.8189 199.839 38.5859 199.781 38.3159C195.971 20.6659 185.874 15.899 178.398 17.198C169.779 18.68 161.852 28.7679 162.906 44.6379L153.806 46.0039C152.062 36.2549 149.736 28.09 148.76 26.261C142.86 15.231 136.652 14.8271 132.476 16.4241C122.714 20.1781 119.869 40.0301 120.399 51.0161L110.509 52.5C108.233 47.064 106.204 43.2 106.139 43.093C97.913 30.225 88.539 29.017 82.539 32.178C76.051 35.578 72.172 45.2309 76.044 57.6699L43.219 62.594C42.5655 62.8349 41.9119 63.0752 41.258 63.3149C40.5729 63.74 39.9499 64.2579 39.407 64.854C39.307 64.972 39.169 65.0381 39.081 65.1631C38.9666 65.39 38.8664 65.6237 38.781 65.863C38.6242 66.0789 38.4831 66.3058 38.359 66.542C20.887 113.507 14.586 179.454 9.02501 237.642C6.42501 264.778 3.97802 290.413 0.635021 311.858C0.436925 313.136 0.645719 314.443 1.23185 315.596C1.81799 316.748 2.75176 317.688 3.90101 318.28C34.265 333.933 46.936 339.48 75.246 349.558C75.9086 349.792 76.6062 349.913 77.309 349.914C77.43 349.914 77.542 349.867 77.663 349.86C78.043 349.964 78.4322 350.031 78.825 350.06C79.1339 350.059 79.4423 350.037 79.748 349.993L351.53 308.771C352.987 308.55 354.316 307.814 355.277 306.697C356.237 305.579 356.765 304.154 356.764 302.681C356.766 220.981 343.46 109.881 323.66 26.2271ZM272.688 60.627C272.976 61.7746 273.591 62.8136 274.46 63.6172C275.328 64.4207 276.412 64.9542 277.578 65.1521C277.343 65.5225 277.046 65.8499 276.701 66.1201C275.935 66.6513 275.037 66.9603 274.107 67.0132C273.176 67.0661 272.249 66.8608 271.428 66.4199C270.549 65.9 269.809 65.1752 269.27 64.3074C268.731 63.4396 268.411 62.4546 268.335 61.436C268.262 60.6542 268.351 59.8657 268.597 59.1199C268.843 58.3741 269.24 57.6871 269.764 57.1021C270.517 56.3265 271.545 55.8788 272.626 55.856C272.864 55.8562 273.101 55.8838 273.333 55.938C273.362 55.945 273.387 55.9649 273.416 55.9729C272.995 56.6621 272.714 57.4277 272.589 58.2256C272.464 59.0235 272.498 59.8382 272.688 60.6231V60.627ZM272.888 12.791C272.902 12.791 274.562 13.176 277.429 17.419C278.637 19.206 279.891 22.744 280.823 26.95L268.11 28.8579C267.952 21.6809 271.006 13.5751 272.891 12.7871L272.888 12.791ZM227.164 22.166C227.179 22.166 228.764 22.345 231.691 26.166C232.541 27.282 233.575 30.194 234.498 33.897L221.825 35.7971C222.448 29.0571 225.363 22.5971 227.167 22.1621L227.164 22.166ZM180.488 29.3391C182.188 29.0261 185.794 31.903 187.742 40.915L175.057 42.8149C174.754 34.181 178.309 29.707 180.491 29.335L180.488 29.3391ZM136.188 29.291C136.812 30.1588 137.373 31.0701 137.866 32.0181C139.028 34.4691 140.501 40.7409 141.683 47.8259L132.573 49.1931C132.445 42.8051 134.121 33.3321 136.187 29.2871L136.188 29.291ZM88.256 43.0911C88.814 42.7981 91.912 43.7169 95.736 49.6909C96.5912 51.2053 97.3536 52.7702 98.019 54.377L88.386 55.8211C85.5 48.3871 87.068 43.7071 88.255 43.0811L88.256 43.0911ZM102.366 66.1841C103.274 68.9805 103.985 71.8366 104.496 74.7319C102.024 73.9762 99.3813 73.9916 96.9185 74.7756C94.4558 75.5597 92.2903 77.0753 90.7106 79.1209C89.1308 81.1664 88.2117 83.6446 88.0757 86.2256C87.9396 88.8065 88.5931 91.3678 89.949 93.5681C91.0969 95.3644 92.679 96.8423 94.5492 97.8655C96.4194 98.8887 98.5172 99.4241 100.649 99.4221C102.089 99.424 103.518 99.1682 104.868 98.667C107.044 97.7988 108.933 96.339 110.323 94.4529C111.713 92.5668 112.547 90.3294 112.731 87.9939C113.447 87.4359 114.091 86.7907 114.647 86.073C118.164 81.173 117.09 72.5651 114.725 64.3291L143.283 60.044C143.55 62.937 143.709 65.6851 143.718 68.0891C143.527 67.9361 143.397 67.7241 143.193 67.5891C141.65 66.597 139.883 66.0052 138.054 65.8674C136.224 65.7297 134.389 66.0503 132.715 66.8001C129.749 68.158 127.318 70.4626 125.803 73.3521C124.518 75.617 123.799 78.1591 123.709 80.7617C123.618 83.3644 124.158 85.9503 125.283 88.2991C126.379 90.4342 128.033 92.2321 130.069 93.5017C132.106 94.7713 134.449 95.4651 136.848 95.509C138.817 95.5151 140.752 95.0009 142.459 94.0186C144.165 93.0363 145.582 91.6207 146.565 89.915C147.113 88.9758 147.523 87.9623 147.781 86.906C149.253 86.3677 150.575 85.4844 151.635 84.3301C155.977 79.6051 156.492 69.0621 155.487 58.2161L189.587 53.1001C190.014 58.6001 189.721 63.2579 188.671 66.8149C188.418 67.4314 188.114 68.0261 187.764 68.593C187.504 67.9446 187.172 67.327 186.775 66.752C185.559 65.2627 183.984 64.1077 182.198 63.3958C180.413 62.6838 178.475 62.4386 176.568 62.6831C173.056 63.2039 169.884 65.0683 167.721 67.8831C166.075 69.9648 165.027 72.4559 164.691 75.0884C164.355 77.7209 164.742 80.3952 165.812 82.824C166.853 84.9768 168.472 86.7977 170.489 88.083C172.506 89.3683 174.84 90.0674 177.231 90.1021C178.038 90.1042 178.843 90.0186 179.631 89.8469C181.729 89.3835 183.618 88.2489 185.013 86.615C193.746 85.354 199.92 72.215 200.465 70.365C202.009 65.132 202.341 58.665 201.7 51.283L236.576 46.0501C237.028 49.8198 236.973 53.633 236.411 57.3879C234.742 56.1464 232.762 55.3916 230.69 55.207C228.69 55.071 226.687 55.4102 224.843 56.197C222.999 56.9838 221.368 58.1958 220.083 59.7339C217.687 62.6197 216.422 66.2785 216.523 70.0281C216.454 72.9323 217.438 75.7633 219.293 77.999C221.112 80.058 223.83 81.376 227.38 81.915C228.4 82.0745 229.431 82.1563 230.463 82.1599C232.826 82.2136 235.16 81.6376 237.227 80.491C238.84 79.5949 240.164 78.2585 241.045 76.6377C241.927 75.0169 242.329 73.1786 242.204 71.3379C243.551 70.3076 244.702 69.0447 245.604 67.6089C249.07 61.9589 249.674 53.009 248.817 44.209L282.269 39.1899C282.403 42.6008 281.914 46.0074 280.826 49.2429C280.544 50.0043 280.166 50.7271 279.703 51.3941C278.432 50.1292 276.847 49.2257 275.111 48.7761C273.208 48.341 271.225 48.4071 269.356 48.968C267.487 49.5289 265.795 50.5654 264.446 51.9761C263.196 53.305 262.24 54.8823 261.64 56.6052C261.04 58.3282 260.81 60.1582 260.964 61.9761C261.12 64.2366 261.838 66.4224 263.053 68.3352C264.268 70.248 265.94 71.8273 267.92 72.9299C269.745 73.9094 271.785 74.4201 273.856 74.416C276.503 74.4336 279.082 73.5801 281.196 71.9871C282.615 70.8801 283.758 69.458 284.532 67.8333C285.307 66.2085 285.693 64.4257 285.66 62.626C288.727 60.3849 291.046 57.2695 292.313 53.688C294.144 48.958 294.762 43.188 294.575 37.344L312.96 34.585C332.211 118.156 342.036 212.141 344.037 278.398C343.99 278.398 343.948 278.383 343.901 278.39C257.355 290.133 169.937 303.484 83.901 318.054C79.587 238.884 65.263 142.19 51.458 73.8201L102.366 66.1841ZM102.866 89.7581C103.375 89.8544 103.889 89.9211 104.406 89.958C103.89 90.7549 103.148 91.3792 102.274 91.751C101.175 92.1051 99.9902 92.0926 98.8988 91.7153C97.8073 91.338 96.8679 90.6163 96.222 89.6589C95.6412 88.6358 95.4013 87.4543 95.5371 86.2857C95.6728 85.117 96.1771 84.0218 96.977 83.1589C97.3969 82.7414 97.8884 82.4027 98.428 82.1589C98.414 82.2099 98.376 82.247 98.363 82.301C97.9748 83.8857 98.2307 85.5595 99.0746 86.9558C99.9185 88.3521 101.282 89.357 102.865 89.75L102.866 89.7581ZM136.318 78.4241C135.674 79.9245 135.651 81.6192 136.256 83.1362C136.86 84.6533 138.041 85.8684 139.541 86.5149C139.625 86.5519 139.71 86.5629 139.794 86.5969C139.275 87.2874 138.544 87.7894 137.713 88.0261C136.535 88.1684 135.342 87.9456 134.295 87.3882C133.248 86.8308 132.398 85.9654 131.858 84.9089C131.29 83.6365 131.032 82.2472 131.105 80.8555C131.179 79.4638 131.582 78.1095 132.281 76.9041C133.009 75.4583 134.19 74.2908 135.644 73.5801C136.175 73.3542 136.746 73.2364 137.323 73.2339C137.938 73.2182 138.543 73.3838 139.064 73.71C139.291 73.8831 139.479 74.1028 139.614 74.3543C139.75 74.6057 139.83 74.883 139.85 75.168C139.072 75.4413 138.357 75.8703 137.749 76.4287C137.142 76.9871 136.655 77.6632 136.317 78.416L136.318 78.4241ZM173.657 77.5051C174.124 79.2674 174.882 80.9392 175.9 82.4519C175.169 82.2465 174.489 81.8916 173.902 81.4097C173.316 80.9277 172.835 80.3293 172.492 79.6521C172.006 78.469 171.845 77.1771 172.027 75.9109C172.209 74.6447 172.727 73.4501 173.527 72.4519C174.495 71.1619 175.917 70.2884 177.505 70.0081C177.577 69.9991 177.649 69.9999 177.721 69.9939C176.201 70.4711 174.927 71.5213 174.168 72.9219C173.41 74.3224 173.226 75.9634 173.656 77.4971L173.657 77.5051ZM231.118 73.9309C231.867 74.0566 232.623 74.1295 233.382 74.1489C231.834 74.7811 230.134 74.9412 228.496 74.6089C227.145 74.5221 225.859 73.9953 224.835 73.1089C224.173 72.1874 223.847 71.0669 223.911 69.9341C223.844 67.979 224.477 66.0639 225.696 64.5339C226.581 63.5008 227.809 62.8219 229.154 62.6221C228.391 63.0556 227.731 63.6493 227.22 64.3623C226.709 65.0753 226.358 65.8904 226.192 66.752C226.044 67.5462 226.054 68.3618 226.222 69.1521C226.389 69.9424 226.711 70.6922 227.169 71.3582C227.626 72.0241 228.21 72.5933 228.888 73.0335C229.565 73.4736 230.323 73.7759 231.117 73.9231L231.118 73.9309ZM21.284 238.807C25.915 190.342 31.098 136.469 42.756 93.5C56.356 165.044 69.613 260.379 72.356 335.425C50.529 327.482 37.935 321.88 13.469 309.348C16.536 288.504 18.845 264.317 21.284 238.807ZM84.767 336.772C84.639 333.072 84.457 329.272 84.278 325.472C170.294 310.894 257.708 297.538 344.249 285.791C344.337 289.759 344.404 293.652 344.432 297.386L84.767 336.772ZM123.56 192.047C131.901 192.047 138.684 184.773 138.684 175.835C138.684 166.897 131.901 159.624 123.56 159.624C115.219 159.624 108.431 166.898 108.431 175.835C108.431 184.772 115.218 192.047 123.56 192.047ZM123.56 167.013C127.826 167.013 131.295 170.972 131.295 175.835C131.295 180.698 127.826 184.658 123.56 184.658C119.294 184.658 115.819 180.699 115.819 175.835C115.819 170.971 119.292 167.013 123.56 167.013ZM170.115 183.585C178.456 183.585 185.244 176.312 185.244 167.374C185.244 158.436 178.456 151.162 170.115 151.162C161.774 151.162 154.991 158.436 154.991 167.374C154.991 176.312 161.774 183.581 170.115 183.581V183.585ZM170.115 158.551C174.382 158.551 177.855 162.511 177.855 167.374C177.855 172.237 174.382 176.196 170.115 176.196C165.848 176.196 162.38 172.237 162.38 167.374C162.38 162.511 165.848 158.551 170.115 158.551ZM214.684 176.663C223.025 176.663 229.813 169.389 229.813 160.452C229.813 151.515 223.025 144.24 214.684 144.24C206.343 144.24 199.56 151.513 199.56 160.452C199.56 169.391 206.343 176.663 214.684 176.663ZM214.684 151.629C218.951 151.629 222.424 155.588 222.424 160.452C222.424 165.316 218.951 169.274 214.684 169.274C210.417 169.274 206.949 165.315 206.949 160.452C206.949 155.589 210.417 151.629 214.684 151.629ZM257.984 171.068C266.326 171.068 273.113 163.795 273.113 154.857C273.113 145.919 266.326 138.65 257.984 138.65C249.642 138.65 242.86 145.919 242.86 154.857C242.86 163.795 249.646 171.068 257.988 171.068H257.984ZM257.984 146.039C262.251 146.039 265.724 149.993 265.724 154.857C265.724 159.721 262.251 163.68 257.984 163.68C253.717 163.68 250.249 159.721 250.249 154.857C250.249 149.993 253.721 146.039 257.988 146.039H257.984ZM299.017 167.013C307.359 167.013 314.146 159.74 314.146 150.802C314.146 141.864 307.359 134.59 299.017 134.59C290.675 134.59 283.893 141.864 283.893 150.802C283.893 159.74 290.68 167.013 299.021 167.013H299.017ZM299.017 141.979C303.284 141.979 306.758 145.938 306.758 150.802C306.758 155.666 303.284 159.624 299.017 159.624C294.75 159.624 291.282 155.665 291.282 150.802C291.282 145.939 294.755 141.981 299.021 141.981L299.017 141.979ZM117.051 225.657C117.051 234.595 123.834 241.869 132.176 241.869C140.518 241.869 147.304 234.595 147.304 225.657C147.304 216.719 140.517 209.451 132.176 209.451C123.835 209.451 117.055 216.719 117.055 225.657H117.051ZM139.916 225.657C139.916 230.521 136.443 234.48 132.176 234.48C127.909 234.48 124.44 230.521 124.44 225.657C124.44 220.793 127.909 216.84 132.176 216.84C136.443 216.84 139.92 220.794 139.92 225.657H139.916ZM163.689 213.67C163.689 222.608 170.472 229.881 178.813 229.881C187.154 229.881 193.942 222.608 193.942 213.67C193.942 204.732 187.155 197.463 178.813 197.463C170.471 197.463 163.693 204.732 163.693 213.67H163.689ZM186.553 213.67C186.553 218.533 183.08 222.492 178.813 222.492C174.546 222.492 171.078 218.533 171.078 213.67C171.078 208.807 174.546 204.852 178.813 204.852C183.08 204.852 186.557 208.806 186.557 213.67H186.553ZM209.923 208.614C209.923 217.552 216.705 224.825 225.047 224.825C233.389 224.825 240.176 217.552 240.176 208.614C240.176 199.676 233.388 192.403 225.047 192.403C216.706 192.403 209.927 199.681 209.927 208.614H209.923ZM232.787 208.614C232.787 213.477 229.314 217.436 225.047 217.436C220.78 217.436 217.312 213.477 217.312 208.614C217.312 203.751 220.78 199.791 225.047 199.791C229.314 199.791 232.791 203.75 232.791 208.614H232.787ZM250.927 200.153C250.927 209.09 257.71 216.364 266.051 216.364C274.392 216.364 281.18 209.09 281.18 200.153C281.18 191.216 274.393 183.941 266.051 183.941C257.709 183.941 250.931 191.214 250.931 200.153H250.927ZM273.791 200.153C273.791 205.016 270.318 208.975 266.051 208.975C261.784 208.975 258.316 205.016 258.316 200.153C258.316 195.29 261.784 191.33 266.051 191.33C270.318 191.33 273.795 195.289 273.795 200.153H273.791ZM291.961 196.097C291.961 205.035 298.743 212.308 307.085 212.308C315.427 212.308 322.214 205.035 322.214 196.097C322.214 187.159 315.426 179.886 307.085 179.886C298.744 179.886 291.965 187.159 291.965 196.097H291.961ZM314.825 196.097C314.825 200.96 311.351 204.919 307.085 204.919C302.819 204.919 299.349 200.96 299.349 196.097C299.349 191.234 302.818 187.275 307.085 187.275C311.352 187.275 314.829 191.234 314.829 196.097H314.825ZM125.32 277.139C125.32 286.077 132.107 293.351 140.449 293.351C148.791 293.351 155.573 286.077 155.573 277.139C155.573 268.201 148.79 260.933 140.449 260.933C132.108 260.933 125.32 268.201 125.32 277.139ZM148.184 277.139C148.184 282.003 144.716 285.962 140.449 285.962C136.182 285.962 132.709 282.003 132.709 277.139C132.709 272.275 136.182 268.321 140.449 268.321C144.716 268.321 148.184 272.281 148.184 277.139ZM171.462 266.898C171.462 275.835 178.245 283.109 186.586 283.109C194.927 283.109 201.715 275.835 201.715 266.898C201.715 257.961 194.927 250.686 186.586 250.686C178.245 250.686 171.462 257.96 171.462 266.898ZM194.326 266.898C194.326 271.761 190.853 275.72 186.586 275.72C182.319 275.72 178.851 271.761 178.851 266.898C178.851 262.035 182.319 258.075 186.586 258.075C190.853 258.075 194.326 262.034 194.326 266.898ZM215.626 259.153C215.626 268.091 222.409 275.359 230.75 275.359C239.091 275.359 245.879 268.091 245.879 259.153C245.879 250.215 239.092 242.942 230.75 242.942C222.408 242.942 215.622 250.215 215.622 259.153H215.626ZM238.49 259.153C238.49 264.016 235.017 267.97 230.75 267.97C226.483 267.97 223.015 264.016 223.015 259.153C223.015 254.29 226.483 250.33 230.75 250.33C235.017 250.33 238.486 254.289 238.486 259.153H238.49ZM256.63 250.691C256.63 259.629 263.413 266.902 271.755 266.902C280.097 266.902 286.884 259.629 286.884 250.691C286.884 241.753 280.096 234.48 271.755 234.48C263.414 234.48 256.626 241.753 256.626 250.691H256.63ZM279.495 250.691C279.495 255.554 276.022 259.513 271.755 259.513C267.488 259.513 264.019 255.554 264.019 250.691C264.019 245.828 267.488 241.869 271.755 241.869C276.022 241.869 279.491 245.828 279.491 250.691H279.495ZM297.664 246.636C297.664 255.574 304.447 262.847 312.788 262.847C321.129 262.847 327.917 255.574 327.917 246.636C327.917 237.698 321.13 230.425 312.788 230.425C304.446 230.425 297.66 237.698 297.66 246.636H297.664ZM320.528 246.636C320.528 251.499 317.055 255.458 312.788 255.458C308.521 255.458 305.053 251.499 305.053 246.636C305.053 241.773 308.521 237.814 312.788 237.814C317.055 237.814 320.524 241.773 320.524 246.636H320.528Z" fill="#231F20"/>
<path d="M187.174 132.167L165.978 135.311L165.54 132.356L174.892 118.253C176.272 116.126 177.186 114.431 177.635 113.168C178.096 111.889 178.233 110.62 178.047 109.361C177.796 107.672 177.08 106.363 175.897 105.433C174.715 104.504 173.272 104.165 171.569 104.418C169.525 104.721 168.019 105.542 167.052 106.882C166.098 108.204 165.774 109.902 166.082 111.976L161.972 112.585C161.53 109.608 162.128 107.059 163.767 104.939C165.42 102.817 167.853 101.517 171.068 101.041C174.074 100.595 176.569 101.035 178.552 102.36C180.533 103.671 181.718 105.637 182.107 108.259C182.579 111.444 181.112 115.536 177.706 120.537L170.435 131.221L186.676 128.812L187.174 132.167ZM209.767 114.715C210.481 119.529 210.19 123.228 208.893 125.812C207.596 128.396 205.199 129.947 201.704 130.466C198.253 130.978 195.528 130.216 193.531 128.181C191.532 126.131 190.165 122.837 189.431 118.299L188.617 112.811C187.912 108.056 188.21 104.402 189.512 101.847C190.813 99.2927 193.219 97.7551 196.729 97.2344C200.21 96.7181 202.938 97.4563 204.914 99.4491C206.888 101.427 208.242 104.738 208.976 109.382L209.767 114.715ZM204.823 109.703C204.307 106.223 203.442 103.762 202.23 102.322C201.015 100.868 199.348 100.297 197.23 100.612C195.127 100.924 193.711 101.943 192.984 103.671C192.256 105.399 192.121 107.909 192.579 111.201L193.555 117.778C194.073 121.274 194.96 123.784 196.216 125.308C197.484 126.815 199.147 127.416 201.206 127.111C203.235 126.81 204.622 125.802 205.367 124.087C206.127 122.37 206.278 119.819 205.822 116.435L204.823 109.703ZM230.588 125.727L226.455 126.34L222.392 98.9457L214.556 103.219L214.002 99.4862L225.122 93.3182L225.766 93.2226L230.588 125.727ZM263.826 120.797L242.63 123.941L242.192 120.986L251.544 106.883C252.924 104.756 253.838 103.061 254.287 101.799C254.748 100.519 254.885 99.2502 254.698 97.9912C254.448 96.3027 253.731 94.9936 252.549 94.0639C251.366 93.1342 249.924 92.7957 248.22 93.0483C246.176 93.3515 244.671 94.1728 243.704 95.5121C242.749 96.8344 242.426 98.5324 242.734 100.606L238.623 101.216C238.182 98.2385 238.78 95.6899 240.418 93.5698C242.071 91.4475 244.505 90.148 247.719 89.6712C250.726 89.2252 253.221 89.6651 255.204 90.9907C257.185 92.3015 258.369 94.2678 258.758 96.8895C259.231 100.074 257.764 104.167 254.358 109.168L247.087 119.851L263.328 117.442L263.826 120.797Z" fill="#231F20"/>
</svg>
