<svg width="153" height="126" viewBox="0 0 153 126" fill="none" xmlns="http://www.w3.org/2000/svg">
<path d="M14.473 108.175C14.1343 108.165 13.8118 108.028 13.5706 107.79C13.3293 107.552 13.1873 107.232 13.173 106.893L13.397 25.0701L140.697 29.6699L140.397 106.128C140.396 106.508 140.545 106.872 140.812 107.142C141.08 107.412 141.443 107.564 141.823 107.566H141.829C142.208 107.566 142.571 107.415 142.839 107.148C143.108 106.881 143.259 106.518 143.261 106.139L143.561 29.7739L147.621 29.9209L147.397 111.901C147.395 112.039 147.364 112.176 147.306 112.301C147.295 112.323 147.291 112.348 147.281 112.37C147.231 112.466 147.166 112.553 147.089 112.629C146.977 112.738 146.843 112.822 146.696 112.875C146.549 112.929 146.393 112.95 146.237 112.938L14.473 108.175Z" fill="white"/>
<path d="M152.407 28.1641C152.479 27.9924 152.516 27.8082 152.516 27.6221C152.516 27.436 152.479 27.2518 152.407 27.0801L152.436 16.492C152.401 13.4892 151.21 10.6154 149.112 8.4673C147.013 6.31916 144.168 5.06178 141.167 4.95607L20.173 0.581072C18.0245 0.492314 15.8959 1.02451 14.042 2.11403C14.034 2.11403 14.025 2.11403 14.017 2.11403C3.50297 5.34803 0.663996 14.221 0.645996 18.958L0.394043 112.358C0.417347 114.483 1.25808 116.517 2.74182 118.039C4.22556 119.56 6.23834 120.452 8.36206 120.528L138.062 125.218C138.11 125.218 138.162 125.218 138.213 125.218C141.58 125.218 150.79 121.552 151.743 114.086C152.026 113.397 152.173 112.661 152.177 111.916L152.407 28.1641ZM127.899 120.074L130.981 117.164L134.487 117.291L131.406 120.2L127.899 120.074ZM119.083 119.755L122.164 116.845L126.964 117.019L123.882 119.928L119.083 119.755ZM111.561 119.483L114.641 116.573L118.148 116.7L115.067 119.61L111.561 119.483ZM104.073 119.212L107.154 116.302L110.626 116.428L107.546 119.338L104.073 119.212ZM96.551 118.94L99.631 116.03L103.138 116.157L100.057 119.067L96.551 118.94ZM89.478 118.684L92.558 115.774L95.616 115.885L92.536 118.795L89.478 118.684ZM81.978 118.413L85.058 115.503L88.545 115.629L85.465 118.539L81.978 118.413ZM74.4561 118.141L77.537 115.231L81.043 115.358L77.963 118.268L74.4561 118.141ZM66.967 117.87L70.048 114.961L73.521 115.086L70.4399 117.996L66.967 117.87ZM59.4449 117.598L62.526 114.689L66.032 114.815L62.951 117.725L59.4449 117.598ZM52.3719 117.342L55.452 114.433L58.51 114.543L55.429 117.453L52.3719 117.342ZM44.4189 117.055L47.5 114.145L51.437 114.288L48.3571 117.197L44.4189 117.055ZM36.896 116.783L39.9771 113.873L43.484 114L40.4041 116.91L36.896 116.783ZM29.408 116.512L32.488 113.602L35.9611 113.728L32.881 116.637L29.408 116.512ZM21.885 116.24L24.965 113.33L28.473 113.457L25.3929 116.367L21.885 116.24ZM14.785 115.983L17.885 113.074L20.949 113.185L17.869 116.095L14.785 115.983ZM14.4709 108.175C14.1323 108.165 13.8098 108.028 13.5686 107.79C13.3274 107.552 13.1853 107.232 13.171 106.893L13.395 25.0701L140.695 29.6699L140.395 106.128C140.394 106.508 140.543 106.872 140.81 107.142C141.078 107.412 141.441 107.564 141.821 107.566H141.827C142.206 107.566 142.569 107.415 142.838 107.148C143.106 106.881 143.257 106.518 143.259 106.139L143.559 29.7739L147.619 29.9209L147.395 111.901C147.393 112.039 147.362 112.176 147.304 112.301C147.293 112.323 147.289 112.348 147.279 112.37C147.229 112.466 147.164 112.553 147.087 112.629C146.975 112.738 146.841 112.822 146.694 112.875C146.547 112.929 146.391 112.95 146.235 112.938L14.4709 108.175ZM5.39294 113.535C5.24641 113.165 5.17044 112.771 5.16895 112.373V111.412L8.55798 108.212C8.69882 108.811 8.93198 109.385 9.24902 109.912L5.39294 113.535ZM5.18201 107.458L5.19104 104.172L8.41504 101.124L8.40601 104.41L5.18201 107.458ZM5.39197 29.7581L8.61804 26.7061L8.61206 29.0681L5.38501 32.1189L5.39197 29.7581ZM5.375 36.073L8.60095 33.021L8.59302 35.721L5.36694 38.773L5.375 36.073ZM5.35706 42.7319L8.58301 39.6799L8.57605 42.041L5.34998 45.0921L5.35706 42.7319ZM5.33997 49.0471L8.56494 45.9951L8.55603 49.28L5.33105 52.3301L5.33997 49.0471ZM5.31995 56.284L8.54602 53.2339L8.53894 55.595L5.31396 58.645L5.31995 56.284ZM5.30298 62.5991L8.52795 59.5491L8.51794 63.259L5.29297 66.3091L5.30298 62.5991ZM5.28296 70.263L8.50696 67.2129L8.50098 69.574L5.276 72.624L5.28296 70.263ZM5.26501 76.5781L8.48999 73.5281L8.48096 76.813L5.25696 79.8631L5.26501 76.5781ZM5.24597 83.8169L8.46997 80.7671L8.46399 83.127L5.23999 86.177L5.24597 83.8169ZM5.229 90.1321L8.453 87.0811L8.44299 90.8521L5.21899 93.9011L5.229 90.1321ZM5.20801 97.855L8.43201 94.8059L8.42505 97.167L5.20203 100.216L5.20801 97.855ZM8.62903 22.7551L5.40198 25.8069L5.41101 22.522L8.63794 19.47L8.62903 22.7551ZM141 9.72707C142.766 9.77951 144.444 10.5102 145.686 11.7674C146.927 13.0245 147.637 14.7115 147.667 16.478L147.643 25.147L13.4139 20.294L13.438 11.4671C13.4365 10.652 13.6005 9.84503 13.92 9.09523C14.2396 8.34544 14.708 7.66839 15.297 7.105C15.9272 6.51679 16.6675 6.05918 17.4753 5.75832C18.2832 5.45746 19.1426 5.31937 20.004 5.35207L141 9.72707ZM8.69995 10.853C8.68795 11.053 8.66897 11.2531 8.66797 11.4531L8.65698 15.5171L5.44897 18.5501C5.68572 15.7049 6.82229 13.009 8.69397 10.853H8.69995ZM7.46204 115.531L11.2531 111.97C12.0519 112.479 12.9587 112.794 13.901 112.89L10.7629 115.838L8.54297 115.757C8.17094 115.74 7.80411 115.664 7.45605 115.531H7.46204ZM135.428 120.346L138.509 117.436L144.436 117.65C142.645 119.101 140.509 120.066 138.236 120.45L135.428 120.346ZM133.228 41.5969C133.452 41.8722 133.613 42.194 133.698 42.5388C133.783 42.8837 133.791 43.243 133.72 43.5911C133.047 46.8656 132.999 50.2376 133.578 53.53C133.687 54.1537 133.543 54.7948 133.179 55.3128C132.815 55.8307 132.26 56.1829 131.637 56.292C131.5 56.3163 131.362 56.3285 131.223 56.3281C130.662 56.3269 130.119 56.1281 129.689 55.7666C129.26 55.4051 128.972 54.9039 128.875 54.3511C128.602 52.7686 128.45 51.1676 128.42 49.562L103.855 78.8211C103.882 79.5825 103.762 80.342 103.502 81.0581C103.067 82.447 102.233 83.6767 101.102 84.593C100.067 85.3707 98.8084 85.7918 97.514 85.793C96.8495 85.7977 96.1902 85.6748 95.572 85.4309C94.4918 84.9918 93.6121 84.169 93.1017 83.1206C92.5913 82.0722 92.4864 80.8721 92.807 79.751C92.82 79.706 92.844 79.669 92.858 79.625L76.288 67.531C75.2343 68.2377 73.9967 68.6202 72.728 68.6311C72.1656 68.6254 71.6072 68.5359 71.071 68.366L53.902 89.9309C53.6785 90.2117 53.3947 90.4387 53.0714 90.5945C52.7482 90.7503 52.3939 90.8312 52.035 90.8311C51.981 90.8311 51.927 90.831 51.871 90.825C51.4855 90.7986 51.1121 90.6789 50.7831 90.4763C50.454 90.2738 50.1792 89.9944 49.9821 89.6621L41.0179 74.5401C40.3472 74.8239 39.6291 74.9792 38.901 74.9981C38.6241 74.9933 38.3482 74.9652 38.076 74.9141L25.7 87.481C25.4804 87.706 25.2186 87.8855 24.9296 88.009C24.6405 88.1326 24.3297 88.1977 24.0154 88.2009C23.701 88.2042 23.3891 88.1455 23.0975 88.0278C22.806 87.9102 22.5405 87.7361 22.3164 87.5156C22.0923 87.2952 21.9139 87.0327 21.7915 86.7432C21.6691 86.4536 21.605 86.1428 21.603 85.8284C21.601 85.514 21.6612 85.2022 21.7799 84.9111C21.8987 84.6201 22.0737 84.3554 22.295 84.1321L34.469 71.7539C34.1442 70.6408 34.1644 69.4554 34.527 68.354C35.0941 66.6161 36.0877 65.048 37.417 63.793C37.7119 63.5108 38.0742 63.309 38.4694 63.2068C38.8645 63.1046 39.2792 63.1053 39.674 63.209C41.0235 62.7578 42.4965 62.8561 43.774 63.4829C44.7223 63.9711 45.4829 64.7588 45.938 65.7234C46.3931 66.688 46.5172 67.7758 46.291 68.8181C46.0356 69.8541 45.5363 70.8139 44.835 71.6179L52.319 84.24L67.696 64.9221C67.4471 64.0262 67.4491 63.079 67.702 62.1841C68.2761 60.5744 69.2602 59.1422 70.557 58.0291C70.791 57.7905 71.0733 57.6046 71.3849 57.4839C71.6965 57.3632 72.0303 57.3104 72.364 57.3291L73.1639 57.3701C73.845 57.0568 74.5897 56.9061 75.339 56.9304C76.0883 56.9547 76.8216 57.1532 77.481 57.51C79.448 58.627 80.103 60.9101 79.193 63.4741C79.171 63.5361 79.136 63.6131 79.113 63.6741L95.668 75.7581C96.1007 75.4075 96.6455 75.2248 97.202 75.2439L97.853 75.2781C98.7796 74.8797 99.8099 74.7904 100.791 75.0239L125.562 45.5239L120.975 45.5501H120.96C120.327 45.5521 119.719 45.3025 119.27 44.8562C118.821 44.41 118.568 43.8035 118.566 43.1704C118.564 42.5374 118.813 41.9295 119.259 41.4805C119.706 41.0314 120.312 40.7781 120.945 40.7761L131.359 40.7161C131.713 40.727 132.061 40.8108 132.381 40.9624C132.702 41.114 132.987 41.33 133.22 41.5969H133.228Z" fill="black"/>
</svg>
