<svg width="545" height="589" viewBox="0 0 545 589" fill="none" xmlns="http://www.w3.org/2000/svg">
<path d="M81.1383 448.968L112.732 475.734L132.86 408.077L158.983 349.477L178.604 330.944L225.104 309.882L246.658 295.528L229.946 252.491L219.981 260.655L208.468 243.2L215.541 227.846C215.541 227.846 224.889 187.157 229.941 185.578C234.993 183.999 270.987 164 275.993 164C280.999 164 326.821 185.579 326.821 185.579V219L339.287 235.293L330.507 248.772L324.83 252.49L307.268 276.3L303.802 292.169L350.933 319.863L389.116 329.917L419.999 418.077L436.778 458.192L468.238 419.249L477.857 397.476L485.143 378.908L464.122 371.935L454.813 374.397L448.407 336.256L500.117 322.89L505.212 357.974L509.602 388.674L501.029 421.449L497.495 449.616L497.274 459.316L452.999 512.454C452.999 512.454 440.223 524.907 427.608 512.454C414.993 500.001 387.18 443.934 387.18 443.934L357.999 399C357.999 399 368.877 430.119 354.699 443.934C340.521 457.749 337.265 474.792 333.814 491.461C330.363 508.13 337.047 548.07 341.523 567.035C345.999 586 316.357 579.135 316.357 579.135L235.32 585.975L199.234 565.783C199.234 565.783 206.999 528 205.999 513C204.999 498 197.587 469.688 191.293 452.844C184.999 436 186.852 429.68 186.852 429.68C186.852 429.68 144.241 510.833 138.052 518.342C131.863 525.851 130.296 534.397 106.935 527.636C83.5744 520.875 75.2465 503.753 68.2035 498.158C61.1605 492.563 50.5165 483.758 50.5165 483.758L49.0973 477.714L35.9994 455.568C35.9994 455.568 50.7775 447.952 44.1305 448.882C37.4835 449.812 31.4834 406.016 24.9994 405.5C18.5154 404.984 15.2593 383.946 14.6993 377.407C14.1393 370.868 20.2374 360.96 21.1364 360.613C22.0354 360.266 25.5004 360.978 41.3834 357.974C57.2664 354.97 66.2733 354.783 66.2733 354.783C66.2733 354.783 65.0834 357.352 69.0424 362.676C73.0014 368 78.7555 382.691 78.7555 382.691L72.5724 392.511L67.8944 408.006C67.8944 408.006 60.2945 413.664 55.4945 417.556C50.6945 421.448 62.4393 434.434 62.4393 434.434L81.1383 448.968Z" fill="white"/>
<path d="M544.582 209.465C544.457 209.189 544.28 208.941 544.059 208.734C543.838 208.528 543.579 208.367 543.295 208.261C543.012 208.155 542.71 208.107 542.408 208.118C542.106 208.129 541.809 208.2 541.534 208.327L428.959 259.582C428.677 259.703 428.423 259.879 428.211 260.1C427.998 260.32 427.832 260.581 427.722 260.867C427.612 261.153 427.56 261.457 427.569 261.763C427.578 262.07 427.648 262.371 427.775 262.649C427.903 262.928 428.084 263.178 428.309 263.386C428.534 263.593 428.799 263.754 429.087 263.858C429.375 263.962 429.681 264.007 429.986 263.992C430.292 263.976 430.592 263.899 430.867 263.766L543.444 212.511C543.997 212.256 544.426 211.793 544.639 211.222C544.852 210.652 544.832 210.02 544.582 209.465Z" fill="#231F20"/>
<path d="M407.987 185.56C408.558 185.481 409.079 185.192 409.448 184.749L484.875 95.095C485.084 94.8664 485.245 94.5979 485.348 94.3057C485.45 94.0135 485.493 93.7035 485.473 93.3944C485.453 93.0853 485.371 92.7834 485.231 92.5069C485.092 92.2303 484.898 91.9848 484.661 91.7851C484.424 91.5853 484.15 91.4355 483.853 91.3445C483.557 91.2535 483.246 91.2232 482.938 91.2555C482.63 91.2878 482.332 91.382 482.061 91.5325C481.79 91.6829 481.552 91.8865 481.362 92.131L405.935 181.785C405.633 182.139 405.444 182.576 405.395 183.039C405.347 183.502 405.44 183.97 405.662 184.379C405.884 184.788 406.226 185.12 406.641 185.331C407.056 185.542 407.526 185.622 407.987 185.56Z" fill="#231F20"/>
<path d="M237.805 47.551L237.876 47.542C238.478 47.4422 239.017 47.1075 239.373 46.6112C239.729 46.115 239.874 45.4978 239.775 44.895L233.275 2.89497C233.246 2.58209 233.152 2.27868 233 2.00346C232.848 1.72823 232.642 1.48702 232.393 1.29475C232.145 1.10247 231.859 0.963214 231.555 0.885536C231.25 0.807857 230.933 0.793411 230.622 0.843116C230.312 0.892822 230.015 1.0056 229.75 1.17451C229.485 1.34341 229.257 1.56486 229.081 1.82517C228.905 2.08548 228.784 2.37913 228.726 2.688C228.668 2.99686 228.673 3.3144 228.743 3.62098L235.243 45.64C235.339 46.2287 235.66 46.757 236.138 47.1136C236.616 47.4701 237.214 47.627 237.805 47.551Z" fill="#231F20"/>
<path d="M148.91 206.3C149.129 206.508 149.388 206.67 149.67 206.778C149.952 206.886 150.253 206.937 150.555 206.929C150.857 206.921 151.155 206.853 151.431 206.73C151.707 206.606 151.955 206.43 152.163 206.211C152.371 205.991 152.533 205.733 152.641 205.45C152.749 205.168 152.8 204.867 152.792 204.565C152.784 204.263 152.716 203.966 152.593 203.69C152.47 203.414 152.293 203.165 152.074 202.957L57.8498 113.6C57.6302 113.392 57.3719 113.23 57.0895 113.122C56.8071 113.014 56.5062 112.963 56.204 112.971C55.9018 112.979 55.6042 113.047 55.3283 113.171C55.0523 113.294 54.8034 113.47 54.5956 113.69C54.3879 113.91 54.2255 114.168 54.1176 114.45C54.0097 114.733 53.9583 115.033 53.9667 115.336C53.9751 115.638 54.0428 115.935 54.1662 116.211C54.2895 116.487 54.4661 116.736 54.6857 116.944L148.91 206.3Z" fill="#231F20"/>
<path d="M1.99948 264.665L116.03 292.418C116.305 292.486 116.591 292.503 116.873 292.47C117.335 292.409 117.768 292.209 118.115 291.898C118.462 291.587 118.707 291.178 118.819 290.725C118.961 290.133 118.862 289.51 118.545 288.99C118.228 288.471 117.718 288.098 117.127 287.954L3.09958 260.183C2.50737 260.044 1.88401 260.144 1.36544 260.462C0.846877 260.78 0.474909 261.29 0.330532 261.881C0.186155 262.472 0.281201 263.096 0.594692 263.618C0.908183 264.139 1.41469 264.515 2.00436 264.665H1.99948Z" fill="#231F20"/>
<path d="M247.151 291.687C247.151 291.687 242.306 299.174 240.036 315.618C237.766 332.062 217.656 349.963 217.656 349.963L246.11 349.212L244.056 355.886L250.656 357.367C250.656 357.367 256.781 404.939 254.214 427.993C251.647 451.047 237.193 588.1 237.193 588.1L311.979 583.172C311.979 583.172 301.17 478.172 300.091 467.533C299.012 456.894 298.299 360.846 298.299 360.846L301.877 359.22L301.212 354.062C301.212 354.062 324.57 361.251 330.055 351.805C330.055 351.805 315.047 334.805 312.073 325.279C309.099 315.753 307.818 299.024 299.13 294.899C299.13 294.899 300.878 311.862 297.675 318.099C294.472 324.336 274.89 369.099 274.89 369.099L266.139 357.699C266.139 357.699 247.188 319.12 252.7 298.571L247.151 291.687Z" fill="#F60081"/>
<path d="M43.9785 445.611L40.0386 455.732L55.3125 477.072C55.3125 477.072 64.8635 472.055 70.0325 464.688C75.2015 457.321 79.9326 446.517 79.9326 446.517L68.5005 436.917C68.5005 436.917 67.9335 448.352 60.0615 451.696C52.1895 455.04 48.0615 452.367 48.0615 452.367L43.9785 445.611Z" fill="#F60081"/>
<path d="M468.991 408.462L459.706 426.846C459.706 426.846 468.86 450.43 492.655 449.697L498.865 423.26C498.865 423.26 481.17 426.121 476.752 423.486C472.334 420.851 468.991 408.462 468.991 408.462Z" fill="#F60081"/>
<path d="M500.114 322.89C499.155 322.212 490.429 316.344 483.446 320.427C481.777 321.427 478.24 322.415 474.498 323.483C466.69 325.716 458.604 328.003 455.352 332.728L455.306 332.787C453.339 333.129 450.267 334.005 448.406 336.256C447.797 336.983 447.35 337.833 447.097 338.747C446.843 339.661 446.788 340.619 446.935 341.556C447.189 343.391 447.917 346.556 448.842 350.562C450.462 357.613 452.684 367.273 452.489 371.284C452.459 371.991 452.674 372.687 453.097 373.255C453.52 373.823 454.125 374.227 454.812 374.401C456.098 374.685 457.424 374.743 458.73 374.572C460.095 374.406 461.408 373.946 462.578 373.223C463.14 372.856 463.658 372.425 464.121 371.939C463.944 373.483 464.201 375.046 464.862 376.452C465.516 377.793 466.488 378.954 467.693 379.834C468.897 380.714 470.298 381.288 471.775 381.504C474.414 381.904 477.085 382.061 479.753 381.972C480.463 383.465 481.482 384.789 482.744 385.857C480.307 392.29 477.485 398.571 474.295 404.666C472.283 404.659 469.546 404.957 467.695 406.602C467.345 406.914 467.071 407.302 466.895 407.736C466.659 408.364 466.48 409.012 466.362 409.673C466.102 409.918 465.892 410.211 465.743 410.536C462.017 418.294 457.802 425.807 453.124 433.031C451.6 435.291 449.908 437.484 448.124 439.831C445.303 443.365 442.702 447.069 440.336 450.922C424.663 414.188 421.818 405.907 420.253 401.357C419.281 398.444 418.118 395.598 416.772 392.838C412.472 383.638 409.143 374.213 405.925 365.108C398.601 344.433 392.284 326.6 378.018 322.903C361.179 318.559 312.075 297.036 305.794 294.268C305.195 293.509 304.525 292.809 303.794 292.177C310.653 283.625 316.01 273.971 319.636 263.626C320.572 264.71 321.776 265.53 323.127 266.005C327.965 267.784 333.374 274.561 335.06 277.013C335.298 277.364 335.628 277.642 336.015 277.815C336.402 277.988 336.83 278.05 337.25 277.994L337.338 277.983C337.773 277.906 338.178 277.708 338.505 277.411C338.832 277.113 339.068 276.729 339.186 276.303C341.759 266.72 340.544 264.741 334.327 256.948L333.351 255.721C333.221 255.542 333.071 255.348 332.939 255.152C335.855 252.374 342.001 245.106 339.279 235.297C338.221 231.497 336.312 229.114 333.619 228.233C333.499 228.184 333.375 228.146 333.249 228.12C349.294 182.355 344.749 143.636 320.601 121.462C305.088 107.251 289.257 108.115 281.701 109.675C281.965 102.328 281.128 87.952 271.652 80.686C264.07 74.865 252.927 74.965 238.511 81.02C237.382 81.504 236.306 81.998 235.291 82.538C232.574 79.401 226.822 74.11 218.943 73.861C211.206 73.611 203.657 78.266 196.543 87.687C189.263 97.343 185.933 108.234 183.005 117.828C177.483 135.886 173.097 150.187 146.874 152.977C146.163 153.042 145.499 153.359 145.001 153.869C144.502 154.38 144.203 155.052 144.155 155.764C144.095 156.471 144.282 157.177 144.685 157.76C145.088 158.344 145.682 158.77 146.364 158.964C154.839 161.1 163.64 161.626 172.31 160.516C179.785 159.618 187.004 157.231 193.54 153.495C207.147 145.586 216.41 131.85 221.081 112.709C221.102 112.599 221.123 112.49 221.145 112.38C221.282 111.444 221.503 110.522 221.805 109.626C223.145 115.183 225.493 120.447 228.733 125.157C214.583 136.729 206.995 155.321 205.821 181.165C204.955 199.727 212.189 219.702 215.533 227.848C215.157 227.891 214.786 227.968 214.424 228.079C211.724 228.908 209.741 231.227 208.588 234.987C204.857 247.193 219.152 259.96 219.756 260.505C219.824 260.56 219.896 260.61 219.971 260.655C218.905 267.714 216.071 273.915 209.892 276.348C209.46 276.516 209.089 276.811 208.827 277.193C208.566 277.576 208.426 278.028 208.426 278.491C208.426 278.955 208.566 279.407 208.827 279.79C209.089 280.172 209.46 280.467 209.892 280.635C212.435 281.54 215.154 281.836 217.832 281.499C219.74 281.254 221.582 280.643 223.258 279.699C226.803 277.659 229.429 274.154 231.167 269.269C234.141 276.873 238.045 284.08 242.79 290.725C240.725 292.646 239.248 295.112 238.529 297.839C238.498 297.838 238.467 297.848 238.443 297.868C236.564 298.608 192.171 316.156 175.562 325.625C162.716 332.955 136.806 396.625 113.156 457.96C110.765 464.122 108.924 468.896 107.887 471.485C96.9818 461.964 84.4378 451.32 81.1288 448.971C72.4508 442.793 59.7557 424.071 55.4837 417.559C56.382 416.483 57.1323 415.291 57.714 414.016C58.0569 414.043 58.4016 414.034 58.7428 413.99C62.1558 413.551 65.3359 410.472 67.8829 408.009C68.8169 407.109 69.6829 406.265 70.5379 405.55C71.8678 404.503 72.9068 403.132 73.556 401.569C74.2052 400.006 74.4427 398.302 74.2459 396.621C74.0386 395.132 73.459 393.719 72.5609 392.514C73.1299 391.347 73.4564 390.076 73.5208 388.779C74.6209 388.864 75.7269 388.835 76.8209 388.692C78.1787 388.522 79.5099 388.184 80.7838 387.684C81.462 387.387 82.0105 386.855 82.3294 386.187C82.6483 385.519 82.7163 384.758 82.5208 384.044C81.0411 379.201 79.2998 374.442 77.3048 369.788C73.6048 360.976 71.2578 356.955 66.2638 354.788C61.9308 352.926 55.0458 355.557 52.5528 356.643C41.3768 356.071 24.3427 359.759 22.0247 360.271C21.965 360.28 21.9075 360.299 21.8548 360.329C21.7548 360.36 21.6669 360.388 21.5809 360.417C21.4752 360.453 21.3744 360.502 21.2809 360.563C21.2309 360.587 21.1808 360.594 21.1278 360.618C12.3628 365.785 12.9158 371.461 16.7398 386.377C20.0758 399.435 26.5398 423.637 28.4308 430.742C28.8318 432.215 29.4447 433.623 30.2498 434.92L37.5667 446.7C35.2717 449.878 32.467 454.918 34.308 458.56C34.3697 458.701 34.4465 458.835 34.537 458.96C34.5902 459.064 34.6505 459.164 34.7179 459.26C34.8356 459.433 34.9695 459.594 35.1178 459.742C36.3098 461.261 39.8859 465.818 45.3329 472.75C41.4229 476.794 40.9869 479.483 41.0169 480.55C41.0247 481.077 41.1707 481.592 41.4408 482.044C41.4296 482.066 41.4264 482.092 41.4317 482.116C41.4152 482.217 41.4045 482.319 41.3997 482.422C41.3922 482.517 41.3922 482.612 41.3997 482.707C41.3996 482.825 41.4088 482.943 41.4268 483.059L41.4518 483.252C41.4518 483.269 41.4739 483.284 41.4759 483.302C41.4987 483.407 41.5299 483.51 41.5689 483.61L41.6559 483.866L41.7938 484.115C41.8408 484.198 41.9067 484.296 41.9527 484.379C42.0147 484.442 42.053 484.508 42.12 484.571C42.204 484.671 42.267 484.748 42.349 484.826C42.3707 484.857 42.398 484.884 42.4298 484.905C58.3298 498.942 86.2499 520.115 95.4869 525.669C104.473 531.06 112.145 533.292 118.848 532.429C119.666 532.321 120.478 532.169 121.28 531.974C130.415 529.674 136.305 521.534 140.872 513.883C140.887 513.863 140.884 513.845 140.9 513.826L140.93 513.786L186.844 429.693C186.967 437.614 188.47 445.452 191.285 452.857C200.674 476.309 206.116 527.278 199.226 565.797C199.087 566.598 199.271 567.421 199.736 568.088C200.202 568.754 200.912 569.21 201.712 569.355C202.019 569.406 202.332 569.414 202.641 569.378C203.289 569.293 203.893 569.005 204.366 568.553C204.839 568.102 205.156 567.512 205.271 566.869C212.333 527.332 206.691 474.805 196.987 450.575C192.715 439.915 192.451 427.775 193.36 417.289C193.353 417.259 193.355 417.228 193.366 417.199C193.943 410.488 194.998 404.445 195.787 399.931C196.244 397.684 196.581 395.414 196.797 393.131C197.203 385.641 189.04 373.099 188.113 371.705C187.891 371.369 187.605 371.08 187.271 370.855C186.937 370.629 186.562 370.472 186.168 370.391C185.773 370.311 185.367 370.309 184.972 370.386C184.576 370.462 184.2 370.616 183.864 370.838C183.528 371.06 183.239 371.346 183.014 371.68C182.788 372.013 182.631 372.388 182.55 372.783C182.47 373.177 182.468 373.584 182.545 373.979C182.621 374.375 182.775 374.751 182.997 375.087C186.088 379.742 190.903 388.676 190.686 392.797C190.621 393.944 190.22 396.22 189.744 398.878C188.955 403.393 187.911 409.378 187.297 416.078L135.597 510.773C130.05 520.063 125.317 524.623 119.784 526.011C114.201 527.424 107.275 525.593 98.6358 520.411C90.5358 515.529 66.318 497.278 50.506 483.781C57.906 480.694 71.1059 472.872 78.7359 454.845C84.8269 459.594 104.316 476.355 114.484 485.545C114.782 485.815 115.132 486.023 115.511 486.158C115.89 486.293 116.293 486.353 116.695 486.332C117.097 486.312 117.491 486.212 117.855 486.04C118.218 485.867 118.544 485.624 118.814 485.325C119.084 485.027 119.293 484.678 119.428 484.298C119.563 483.919 119.622 483.517 119.601 483.115C119.581 482.713 119.482 482.318 119.309 481.955C119.136 481.591 118.894 481.265 118.595 480.995C116.845 479.423 114.855 477.651 112.725 475.754C112.76 475.716 112.784 475.67 112.797 475.62C113.644 473.768 115.725 468.375 118.871 460.195C130.518 430.014 165.918 338.2 178.597 330.963C192.124 323.263 225.887 309.519 237.036 305.041C236.656 308.168 236.503 311.266 236.405 313.823C235.005 328.896 228.453 334.561 216.577 344.862C215.297 345.97 213.952 347.139 212.56 348.35C212.121 348.739 211.803 349.246 211.643 349.81C211.483 350.374 211.487 350.972 211.655 351.533C211.823 352.095 212.148 352.597 212.592 352.98C213.036 353.363 213.58 353.612 214.16 353.696C218.474 354.275 222.821 354.571 227.174 354.583C225.9 360.44 223.227 372.848 222.748 375.347C222.613 376.094 222.307 377.86 225.775 382.964C223.263 387.22 217.647 398.049 219.256 407.094C219.764 409.929 221.356 415.969 223.556 424.333C229.473 446.933 239.395 484.746 241.69 511.14C241.748 511.73 241.968 512.293 242.326 512.766C241.134 521.193 239.917 529.427 238.759 537.156C235.997 555.785 233.621 571.873 232.571 582.648C232.531 583.048 232.57 583.452 232.686 583.837C232.802 584.222 232.993 584.58 233.248 584.891C233.503 585.202 233.817 585.46 234.171 585.65C234.526 585.839 234.915 585.957 235.315 585.996C235.718 586.043 236.127 586.007 236.517 585.892C236.906 585.778 237.269 585.586 237.583 585.328C237.896 585.07 238.155 584.751 238.343 584.391C238.531 584.031 238.644 583.637 238.677 583.232C239.695 572.621 242.077 556.603 244.836 538.064C249.195 508.625 254.621 472.003 256.298 444.671C258.133 414.846 254.25 372.252 253.007 359.832C257.968 360.083 263.138 360.574 265.785 361.514C268.104 365.984 270.143 369.654 271.085 371.314C269.856 375.173 269.141 377.914 269.085 378.172C268.888 378.96 269.011 379.793 269.428 380.49C269.845 381.187 270.521 381.69 271.308 381.889C271.683 381.981 272.072 382.003 272.455 381.955C273.065 381.875 273.638 381.614 274.099 381.206C274.56 380.798 274.888 380.261 275.042 379.665C275.049 379.575 276.186 375.141 278.17 369.547C278.579 369.374 278.946 369.114 279.246 368.786C284.634 362.686 291.634 362.049 296.316 362.478C296.086 374.233 294.75 451.056 299.089 487.239C303.789 526.525 310.253 579.89 310.253 579.89L316.353 579.158C316.353 579.158 311.837 541.876 307.609 506.693C306.909 500.823 308.031 491.728 309.933 481.627C311.835 471.526 314.513 460.397 316.903 450.499C319.273 440.71 322.113 430.986 324.635 422.388C329.804 404.766 332.018 396.812 330.415 393.068C328.56 388.752 322.883 380.035 321.315 377.675L325.683 371.526C325.973 371.119 326.159 370.647 326.225 370.152C326.291 369.656 326.236 369.152 326.064 368.683L322.664 359.531C326.65 358.801 330.405 357.134 333.621 354.668C333.94 354.397 334.199 354.063 334.384 353.687C334.568 353.312 334.673 352.902 334.692 352.484C334.712 352.063 334.646 351.643 334.497 351.249C334.348 350.855 334.12 350.495 333.827 350.193C313.376 329.269 312.935 313.544 312.937 313.419C312.931 313.26 312.917 313.101 312.893 312.944C312.351 309.556 311.505 306.223 310.366 302.986C326.234 309.874 362.041 325.138 376.488 328.865C387.588 331.742 393.403 348.165 400.138 367.165C403.412 376.423 406.796 385.987 411.218 395.452C412.466 398.017 413.548 400.659 414.46 403.362C416.093 408.169 419.167 417.115 436.771 458.209C435.394 461.743 434.506 465.449 434.132 469.224C434.055 470.034 434.302 470.841 434.82 471.468C435.338 472.096 436.084 472.491 436.894 472.569C437.124 472.59 437.356 472.584 437.585 472.551C438.271 472.465 438.907 472.148 439.389 471.652C439.872 471.157 440.172 470.513 440.241 469.825C441.33 458.796 447.255 451.058 452.999 443.575C454.766 441.266 456.576 438.875 458.204 436.464C458.997 435.295 459.785 434.09 460.535 432.872C465.116 439.702 474.943 452.458 486.135 455.272C488.003 455.755 489.936 455.933 491.861 455.798L491.931 455.789H491.966C492.054 455.778 492.126 455.789 492.213 455.775C484.3 470.316 470.997 485.975 464.864 493.209C463.964 494.267 463.212 495.165 462.613 495.901C453.796 506.466 440.367 516.86 426.393 506.312C420.557 501.885 414.393 494.812 403.35 474.654L359.576 391.576C359.558 391.545 359.547 391.511 359.545 391.476C359.225 388.991 358.931 386.84 358.773 385.063C358.216 380.212 359.58 375.336 362.573 371.478C362.844 371.18 363.054 370.832 363.191 370.453C363.327 370.074 363.388 369.672 363.369 369.27C363.35 368.867 363.253 368.473 363.081 368.108C362.91 367.743 362.669 367.416 362.371 367.145C362.073 366.874 361.725 366.664 361.346 366.527C360.967 366.39 360.565 366.33 360.162 366.349C359.76 366.367 359.365 366.465 359.001 366.636C358.636 366.808 358.309 367.049 358.038 367.347C355.983 369.885 354.451 372.804 353.529 375.937C352.607 379.07 352.314 382.354 352.666 385.6C352.827 387.537 353.128 389.74 353.474 392.293C354.915 402.925 357.091 418.993 352.069 434.162C350.092 440.092 346.899 445.962 343.518 452.184C336.985 464.184 329.591 477.784 329.74 495.113C329.976 520.294 337.619 562.796 337.958 564.602C338.096 565.375 338.526 566.066 339.159 566.531C339.791 566.996 340.579 567.201 341.358 567.102C341.411 567.098 341.464 567.085 341.513 567.064C341.909 566.994 342.288 566.846 342.627 566.629C342.967 566.412 343.26 566.13 343.49 565.8C343.72 565.469 343.883 565.097 343.969 564.703C344.055 564.31 344.062 563.903 343.991 563.507C343.917 563.071 336.109 519.701 335.891 495.051C335.735 479.325 342.424 467.023 348.899 455.122C352.425 448.654 355.749 442.55 357.888 436.083C361.088 426.401 361.625 416.599 361.214 407.883L397.914 477.512C397.934 477.528 397.934 477.528 397.936 477.545V477.563C409.519 498.704 416.21 506.311 422.694 511.206C428.607 515.675 434.994 517.434 441.518 516.593C450.13 515.484 458.991 509.824 467.311 499.821C467.911 499.121 468.654 498.221 469.534 497.186C477.382 487.937 493.712 468.7 501.015 451.764L501.054 451.653C501.078 451.561 501.103 451.486 501.127 451.394C501.166 451.267 501.197 451.138 501.22 451.008C501.231 450.954 501.244 450.916 501.254 450.862L501.239 450.739C501.256 450.603 501.256 450.466 501.239 450.33C501.228 450.242 501.239 450.17 501.225 450.082C501.19 449.945 501.152 449.79 501.116 449.652C501.09 449.584 501.083 449.532 501.057 449.464C500.979 449.266 500.883 449.076 500.77 448.896C500.748 448.863 500.746 448.845 500.726 448.83C500.615 448.668 500.489 448.517 500.348 448.381C500.344 448.368 500.337 448.356 500.326 448.348L497.808 445.932C500.297 439.971 501.501 436.332 504.691 425.314C504.837 424.797 504.845 424.251 504.715 423.73C504.585 423.209 504.321 422.732 503.949 422.344C503.577 421.957 503.11 421.673 502.595 421.522C502.08 421.371 501.534 421.357 501.012 421.482C500.562 421.604 500.104 421.692 499.641 421.747C502.467 414.266 507.786 399.472 509.341 389.947C509.403 389.601 509.493 389.198 509.59 388.705C510.261 385.487 511.679 378.805 511.261 362.85C510.776 344.159 501.498 324.892 501.11 324.088C500.89 323.607 500.546 323.194 500.114 322.89ZM460.421 366.433C460.242 367.078 459.842 367.639 459.291 368.019C459.058 368.185 458.795 368.304 458.517 368.368C458.04 363.145 456.276 355.526 454.817 349.183C453.967 345.483 453.217 342.29 453.017 340.732C452.97 340.365 453.046 340.266 453.123 340.167C453.268 340.008 453.436 339.873 453.623 339.767C453.654 339.867 453.65 339.977 453.684 340.097C454.206 342.278 455.378 344.249 457.045 345.749C456.081 348.626 456.131 351.747 457.187 354.592C457.749 356.03 458.659 357.306 459.836 358.307C459.032 360.996 459.24 363.887 460.421 366.433ZM220.512 252.49C216.935 248.342 212.878 241.979 214.47 236.79C215.047 234.919 215.742 234.1 216.204 233.951C217.036 233.916 217.852 234.191 218.492 234.724C218.521 234.75 218.555 234.77 218.592 234.783C219.772 240.614 220.415 246.541 220.512 252.49ZM63.8468 360.416C66.4468 361.557 68.0148 363.491 71.6468 372.17C73.5678 376.726 74.8678 380.331 75.6468 382.65C73.8292 382.863 71.9949 382.424 70.4698 381.413C71.3691 378.677 71.1772 375.7 69.9339 373.102C69.3582 371.898 68.5143 370.842 67.4671 370.014C66.42 369.187 65.1974 368.61 63.8929 368.328C64.3219 365.586 64.1399 362.514 62.4439 360.259C62.9174 360.219 63.3939 360.272 63.8468 360.416ZM39.8468 455.529C40.14 454.455 40.5832 453.428 41.1629 452.478L42.9107 455.278C41.9109 455.528 40.8771 455.612 39.8499 455.529H39.8468ZM35.4598 431.683C34.9727 430.899 34.6055 430.046 34.37 429.154C32.459 422.054 26.0189 397.882 22.6859 384.842C18.8149 369.701 19.7859 368.561 23.8199 366.156C33.9949 363.921 51.5749 361.302 56.9129 363.514C58.2129 364.041 58.0199 366.308 57.6559 368.045C49.1939 368.102 34.9739 368.759 32.9559 368.845C32.1515 368.895 31.3986 369.258 30.8597 369.858C30.3209 370.457 30.0391 371.244 30.075 372.049C30.111 372.854 30.4618 373.613 31.0518 374.162C31.6419 374.711 32.4242 375.006 33.2298 374.984C43.3798 374.495 59.5299 373.928 62.4469 374.3C62.8831 374.374 63.2941 374.555 63.6432 374.827C63.9922 375.099 64.2684 375.453 64.4469 375.858C64.9052 376.866 65.0135 377.998 64.7547 379.074C58.3257 378.474 45.6548 379.701 37.7098 380.599L37.6749 380.604C36.866 380.701 36.1287 381.115 35.6253 381.756C35.122 382.397 34.8937 383.211 34.9908 384.02C35.0879 384.829 35.5023 385.566 36.1429 386.069C36.7835 386.573 37.5979 386.801 38.4068 386.704C49.6118 385.422 63.1269 384.536 65.3009 385.252C65.8124 385.495 66.2627 385.85 66.6183 386.291C66.9738 386.732 67.2255 387.248 67.3548 387.799C67.4839 388.508 67.3643 389.24 67.016 389.871C62.665 389.791 54.2378 391.089 41.8368 393.718C41.0401 393.889 40.344 394.369 39.9015 395.054C39.459 395.738 39.3065 396.57 39.4774 397.366C39.6483 398.163 40.1286 398.859 40.8128 399.302C41.4971 399.744 42.3291 399.897 43.1258 399.726C52.9618 397.626 64.8578 395.626 67.4068 395.941C67.8499 396.32 68.1243 396.86 68.1698 397.441C68.2322 398.099 68.12 398.762 67.8443 399.363C67.5687 399.964 67.1396 400.482 66.5999 400.864C65.5869 401.706 64.5899 402.671 63.6239 403.596C62.3294 404.922 60.9268 406.138 59.4308 407.232C59.4889 406.309 59.4709 405.383 59.3768 404.463C59.2816 403.654 58.8691 402.916 58.2301 402.411C57.5911 401.906 56.7778 401.676 55.9688 401.77H55.9349C55.1344 401.875 54.407 402.29 53.9098 402.926C53.4125 403.562 53.1854 404.368 53.2769 405.17C53.3741 406.388 53.2983 407.614 53.0518 408.811C52.8545 409.199 52.7452 409.627 52.7318 410.062C52.2847 411.535 51.5102 412.888 50.4659 414.019C50.2289 414.088 50.0023 414.189 49.7928 414.319C49.346 414.599 48.9848 414.996 48.7489 415.468C47.8085 416.1 46.781 416.592 45.6988 416.928C45.3151 417.051 44.9594 417.248 44.6519 417.509C44.3445 417.769 44.0914 418.088 43.9071 418.446C43.7227 418.804 43.6107 419.195 43.5775 419.597C43.5443 419.999 43.5902 420.403 43.7132 420.786C43.8362 421.17 44.0336 421.526 44.294 421.833C44.5545 422.141 44.873 422.394 45.2313 422.578C45.5896 422.763 45.9808 422.875 46.3824 422.908C46.784 422.941 47.1881 422.895 47.5719 422.772C48.6525 422.431 49.6978 421.987 50.693 421.445C53.123 425.118 57.6258 431.762 62.6988 438.279C62.6292 438.427 62.5777 438.583 62.5457 438.744C61.7646 441.977 60.2125 444.974 58.0221 447.477C55.8316 449.98 53.068 451.917 49.9669 453.12C49.6279 453.253 49.322 453.364 49.016 453.474L35.4598 431.683ZM49.0919 477.719L49.1678 477.619C49.1678 477.636 49.1897 477.651 49.1917 477.669C49.1563 477.679 49.1233 477.696 49.0948 477.719H49.0919ZM73.7459 450.862C68.8809 463.374 61.0957 470.622 54.6817 474.704C50.2767 469.097 46.7028 464.557 44.1278 461.277C46.856 460.691 49.5316 459.882 52.1278 458.859C55.5569 457.564 58.678 455.568 61.2914 452.998C63.9047 450.428 65.9529 447.341 67.3048 443.934C69.3286 446.34 71.4884 448.629 73.7738 450.788C73.7645 450.798 73.7576 450.809 73.7533 450.822C73.7489 450.835 73.7474 450.849 73.7489 450.862H73.7459ZM330.72 234.136C331.031 234.007 331.375 233.975 331.705 234.045C332.169 234.199 332.847 235.037 333.375 236.926C334.775 241.995 332.54 246.197 330.505 248.772C329.521 243.454 330.191 237.461 330.723 234.136H330.72ZM229.952 243.748L229.942 229.159C229.942 229.052 230.295 219.737 234.391 203.459C237.552 190.971 248.813 183.774 252.782 181.573C259.368 185.742 268.119 193.316 270.816 205.139C270.932 205.634 271.169 206.094 271.506 206.475C271.843 206.857 272.269 207.149 272.746 207.325C273.224 207.502 273.737 207.557 274.242 207.487C274.746 207.416 275.224 207.222 275.635 206.921C276.397 206.342 279.342 203.65 279.435 195.969C281.549 199.805 282.57 204.148 282.386 208.524C282.368 209.112 282.521 209.693 282.826 210.197C283.13 210.7 283.574 211.105 284.103 211.363C286.95 212.74 310.245 223.691 321.228 214.608C321.453 222.158 320.745 232.694 318.067 247.273C313.438 267.423 305.419 281.426 297.236 290.558C297.003 290.761 296.801 290.997 296.636 291.258C287.222 301.473 277.71 305.258 273.088 304.468C241.22 299.039 230.743 247.792 229.955 243.748H229.952ZM250.186 444.282C249.316 458.255 247.47 474.737 245.264 491.461C241.252 467.62 234.152 440.528 229.478 422.75C227.409 414.832 225.768 408.584 225.29 405.977C224.313 400.463 227.296 393.086 229.808 388.277C231.453 390.271 233.458 392.577 235.937 395.245C236.272 395.6 236.687 395.87 237.147 396.033C237.607 396.197 238.1 396.249 238.584 396.186C239.144 396.116 239.674 395.892 240.116 395.54C240.557 395.187 240.891 394.719 241.083 394.188C241.274 393.656 241.314 393.082 241.2 392.529C241.085 391.976 240.819 391.466 240.432 391.055C235.29 385.525 229.544 378.347 228.851 376.141C229.521 372.781 232.484 359.041 233.485 354.371C235.905 354.21 238.314 353.918 240.703 353.495L239.91 355.216C239.689 355.686 239.592 356.204 239.627 356.722C239.662 357.239 239.829 357.74 240.111 358.175C240.393 358.611 240.782 358.967 241.24 359.211C241.698 359.455 242.211 359.577 242.73 359.568C243.761 359.56 245.186 359.568 246.825 359.592C247.955 370.694 252.026 414.189 250.189 444.282H250.186ZM247.477 353.461L249.008 350.15C249.259 349.599 249.343 348.986 249.247 348.388C249.151 347.79 248.881 347.233 248.47 346.788C248.059 346.343 247.526 346.029 246.938 345.886C246.349 345.743 245.731 345.777 245.162 345.984C238.113 348.584 228.473 348.613 222.021 348.252C233.447 338.329 240.964 331.205 242.514 314.227C242.714 309.699 243.214 298.55 246.654 295.527C247.754 296.773 248.94 297.937 250.137 299.082C248.512 304.843 246.604 321.529 262.306 354.488C257.387 353.864 252.437 353.521 247.48 353.461H247.477ZM273.853 363.605C272.269 360.695 270.307 356.927 268.397 353.005C255.012 325.335 254.597 310.052 255.474 303.497C260.398 307.064 266.067 309.467 272.055 310.526C273.5 310.75 274.97 310.758 276.417 310.551C282.14 309.814 289.473 306.237 296.783 299.584C296.909 307.61 295.183 326.675 279.666 351.679C277.384 355.475 275.439 359.464 273.856 363.6L273.853 363.605ZM324.741 395.396C325.429 397.834 321.884 409.963 318.741 420.652C316.208 429.305 313.341 439.104 310.941 449.039C308.633 458.607 306.203 468.759 304.341 478.18C301.173 441.134 302.188 377.163 302.441 363.626C303.202 363.648 303.943 363.381 304.515 362.879C304.924 362.51 305.228 362.039 305.395 361.514C305.562 360.989 305.586 360.429 305.465 359.892L305.022 357.974C308.652 359.305 312.479 360.021 316.345 360.093L319.769 369.278L310.447 382.417C310.213 382.745 310.047 383.116 309.957 383.509C309.867 383.902 309.855 384.308 309.922 384.705C309.989 385.103 310.134 385.483 310.348 385.824C310.561 386.166 310.84 386.461 311.169 386.695C311.497 386.928 311.868 387.095 312.261 387.185C312.654 387.275 313.06 387.287 313.457 387.22C313.855 387.153 314.235 387.008 314.576 386.794C314.917 386.58 315.213 386.301 315.447 385.973L317.525 383.036C319.956 386.814 323.545 392.579 324.744 395.4L324.741 395.396ZM326.819 351.696C322.598 353.734 313.888 356.154 302.083 350.005C301.563 349.736 300.977 349.621 300.394 349.674C299.812 349.727 299.256 349.946 298.794 350.305C298.327 350.661 297.973 351.144 297.775 351.697C297.578 352.25 297.546 352.849 297.683 353.42L298.383 356.532C293.109 355.724 287.715 356.431 282.828 358.571C283.445 357.323 284.126 356.106 284.867 354.927C300.238 330.173 302.817 310.821 302.921 301.127C304.812 305.099 306.118 309.324 306.796 313.671C306.887 315.991 308.181 331.429 326.822 351.7L326.819 351.696ZM489.585 449.522L489.544 449.617C488.907 449.561 488.275 449.458 487.654 449.308C477.043 446.636 467.031 431.751 464.047 426.958C465.661 424.152 467.079 421.479 468.232 419.248C470.815 423.133 475.532 425.799 482.367 427.179C487.34 428.189 492.428 428.51 497.489 428.132C494.578 437.974 493.564 440.329 489.588 449.523L489.585 449.522ZM505.132 362.987C505.532 378.22 504.232 384.437 503.598 387.419C503.478 388.004 503.364 388.499 503.298 388.934C501.633 399.077 495.131 416.426 492.915 422.156C489.782 422.117 486.66 421.786 483.589 421.168C478.84 420.214 475.461 418.568 473.684 416.376C475.59 414.293 477.24 411.99 478.601 409.516C478.645 409.439 478.69 409.38 478.734 409.303C482.314 402.789 485.433 396.031 488.069 389.081C488.369 389.202 488.637 389.345 488.955 389.465C489.435 389.662 489.959 389.731 490.474 389.665C491.017 389.592 491.531 389.377 491.963 389.04C492.395 388.703 492.729 388.257 492.932 387.748C493.082 387.374 493.156 386.974 493.15 386.571C493.145 386.168 493.059 385.77 492.899 385.4C492.739 385.03 492.508 384.696 492.218 384.416C491.928 384.136 491.585 383.917 491.21 383.77C490.104 383.342 489.041 382.812 488.034 382.186L488.015 382.171C486.693 381.47 485.671 380.311 485.14 378.912C484.64 376.948 486.169 375.025 486.23 374.946C486.499 374.64 486.704 374.284 486.834 373.898C486.963 373.512 487.015 373.104 486.985 372.698C486.956 372.292 486.846 371.896 486.661 371.533C486.477 371.17 486.223 370.847 485.912 370.583C485.602 370.32 485.242 370.121 484.854 369.997C484.466 369.874 484.057 369.83 483.652 369.866C483.246 369.903 482.852 370.019 482.493 370.21C482.133 370.4 481.814 370.66 481.556 370.975C480.393 372.397 479.572 374.067 479.156 375.856C477.037 375.911 474.917 375.773 472.823 375.444C472.32 375.399 471.837 375.229 471.416 374.951C470.995 374.673 470.65 374.295 470.411 373.851C470.23 373.341 470.174 372.796 470.247 372.26C470.321 371.724 470.521 371.213 470.833 370.771C472.144 368.93 482.486 365.371 492.965 363.153C493.364 363.075 493.744 362.919 494.082 362.693C494.42 362.468 494.71 362.177 494.934 361.838C495.159 361.499 495.314 361.118 495.39 360.719C495.466 360.319 495.462 359.909 495.377 359.511C495.293 359.113 495.13 358.736 494.899 358.402C494.667 358.068 494.371 357.783 494.029 357.564C493.686 357.345 493.303 357.197 492.902 357.128C492.502 357.059 492.091 357.07 491.695 357.161C485.702 358.43 472.55 361.583 467.304 365.746C466.78 365.273 466.361 364.697 466.072 364.054C465.71 363.35 465.509 362.575 465.484 361.784C465.459 360.993 465.611 360.207 465.928 359.482C466.017 359.326 466.124 359.181 466.246 359.05H466.263C468.498 356.788 479.116 353.161 490.101 350.999C490.899 350.842 491.603 350.374 492.056 349.698C492.509 349.023 492.676 348.194 492.519 347.396C492.362 346.598 491.894 345.894 491.218 345.441C490.542 344.987 489.714 344.821 488.916 344.978C482.792 346.193 469.93 349.113 463.625 353.483C463.303 353.145 463.047 352.749 462.87 352.317C462.242 350.386 462.406 348.285 463.327 346.475L463.358 346.436C465.082 344.488 477.388 340.43 487.858 337.855C488.649 337.659 489.33 337.156 489.75 336.458C490.171 335.76 490.297 334.923 490.101 334.132C489.905 333.341 489.402 332.66 488.704 332.239C488.006 331.819 487.169 331.693 486.378 331.889C478.669 333.789 466.439 337.196 460.786 340.824C460.258 340.261 459.877 339.577 459.675 338.832C459.602 338.368 459.629 337.894 459.755 337.442C459.881 336.99 460.103 336.571 460.406 336.212C462.4 333.321 470.363 331.051 476.164 329.396C480.472 328.166 484.198 327.117 486.548 325.746C489.278 324.146 493.848 326.229 495.955 327.506C497.639 331.162 504.737 347.6 505.135 362.988L505.132 362.987Z" fill="#231F20"/>
</svg>
