<svg width="223" height="318" viewBox="0 0 223 318" fill="none" xmlns="http://www.w3.org/2000/svg">
<path d="M171.646 210.282C173.163 208.482 174.677 206.694 176.201 204.946C188.083 191.314 201.602 177.816 211.215 162.653C213.542 158.983 213.805 155.398 211.474 151.928L209.198 148.541C208.775 147.931 208.222 147.422 207.579 147.051C202.438 160.264 193.678 172.398 186.323 185.536C181.679 193.825 176.954 202.272 171.646 210.282Z" fill="#6AC500"/>
<path d="M168.475 189.217C178.575 176.957 191.099 164.531 197.955 150.352C199.641 146.862 204.447 145.144 207.579 147.052C210.574 139.766 212.056 131.948 211.936 124.072C211.853 121.087 208.36 120.546 206.17 121.882C185.37 134.575 175.918 157.615 161.815 176.65C148.229 194.989 133.921 212.262 128.545 234.307C126.783 241.533 135.895 245.225 141.408 241.285C138.195 237.195 134.983 233.104 131.771 229.012C146.358 219.176 157.466 202.582 168.475 189.217Z" fill="#6AC500"/>
<path d="M186.323 185.533C193.68 172.395 202.438 160.261 207.579 147.048C204.447 145.148 199.641 146.862 197.955 150.348C191.099 164.527 178.573 176.953 168.475 189.213C157.466 202.578 146.357 219.172 131.774 229.004C134.987 233.096 138.2 237.187 141.412 241.277C153.048 232.963 162.372 221.292 171.649 210.277C176.953 202.272 181.679 193.825 186.323 185.533Z" fill="#6AC500"/>
<path d="M141.408 241.282C154.188 233.499 163.608 222.409 171.646 210.282C162.369 221.296 153.044 232.967 141.408 241.282Z" fill="#6AC500"/>
<path d="M146.04 100.728C140.16 87.2281 130.183 77.8871 115.208 74.5671C101.162 71.4531 85.1511 71.3071 77.0871 85.2961C74.7301 89.3851 78.1872 95.353 82.8142 95.408C99.7622 95.608 118.023 93.894 124.49 112.308C131.009 130.877 111.935 137.691 100.341 149.386C97.1853 152.57 99.9122 158.056 103.905 158.331C117.822 159.291 133.234 154.139 142.37 142.713C152.892 129.555 152.134 114.722 146.04 100.728Z" fill="#6AC500"/>
<path d="M75.468 174.322C85.405 170.381 96.397 170.106 106.468 166.589C119.943 161.883 130.881 153.976 134.212 140.131C134.279 139.692 134.225 139.244 134.057 138.833C133.888 138.423 133.61 138.066 133.254 137.802C132.897 137.538 132.475 137.376 132.034 137.334C131.592 137.291 131.147 137.37 130.747 137.562C115.039 145.095 86.3651 150.339 61.4341 159.368C69.6161 159.814 76.936 165.182 75.468 174.322Z" fill="#6AC500"/>
<path d="M46.4561 165.273C46.3631 165.379 46.237 165.587 46.126 165.748C51.1128 163.359 56.2196 161.23 61.426 159.368C58.6466 159.156 55.8552 159.577 53.2622 160.6C50.6692 161.623 48.3421 163.22 46.4561 165.273Z" fill="#6AC500"/>
<path d="M75.4679 174.322C75.0679 174.479 74.651 174.555 74.258 174.722C66.031 178.275 46.239 196.897 50.558 208.322L32.6459 198.491C31.7099 198.625 42.8128 170.555 46.1298 165.74C22.9238 176.986 7.45792 193.614 17.9999 222.292C20.5059 229.112 28.451 233.303 35.912 232.124C66.612 227.274 68.4219 200.302 75.1349 176.154C75.2823 175.55 75.3935 174.939 75.4679 174.322Z" fill="#6AC500"/>
<path d="M32.6417 198.499L50.5536 208.33C46.2386 196.9 66.0306 178.278 74.2536 174.73C74.6466 174.56 75.0668 174.484 75.4638 174.33C76.9318 165.191 69.6117 159.822 61.4267 159.376C56.2203 161.238 51.1134 163.367 46.1266 165.756C42.8086 170.563 31.7057 198.633 32.6417 198.499Z" fill="#6AC500"/>
<path d="M50.3067 265.116C48.8837 261.543 45.9368 259.996 42.2918 259.172C31.7208 256.784 20.0438 269.19 24.2918 279.072C25.1299 281.009 26.5893 282.612 28.4395 283.628C30.2898 284.643 32.4256 285.014 34.5098 284.681C40.0478 283.638 45.1188 279.46 48.6778 275.198C49.8109 273.809 50.5581 272.145 50.8441 270.375C51.13 268.605 50.9446 266.791 50.3067 265.116Z" fill="#6AC500"/>
<path d="M94.8191 295.273C91.6851 292.993 86.2621 294.245 84.7461 298.215C84.2628 299.478 83.7801 300.742 83.2981 302.006C81.4861 306.749 87.0521 311.961 91.5501 308.039C92.5581 307.161 93.5663 306.282 94.575 305.401C97.786 302.6 98.2441 297.764 94.8191 295.273Z" fill="#6AC500"/>
<path d="M70.2468 91.563C68.3048 80.284 78.0016 74.603 88.1296 72.054C86.8736 72.054 85.6128 72.0251 84.3728 72.1241C74.6888 72.9001 67.9018 80.419 67.2158 88.361C67.6778 89.6511 68.2697 90.8909 68.9827 92.0611C69.0802 92.1738 69.2104 92.2535 69.3552 92.2891C69.5 92.3247 69.6525 92.3145 69.7913 92.2598C69.93 92.2051 70.0483 92.1087 70.1299 91.9839C70.2115 91.8591 70.2524 91.712 70.2468 91.563Z" fill="#020100"/>
<path d="M92.4999 172.6C99.1679 171.539 105.92 173 112.625 172.269C118.977 171.526 125.144 169.647 130.831 166.72C150.457 156.754 162.776 136.608 162.064 115.628C161.152 88.7759 140.794 68.234 114.164 64.371C108.786 63.8388 103.362 63.9709 98.016 64.764C109.385 65.9611 120.62 68.1977 131.58 71.4459C132.969 71.8389 132.024 73.724 130.807 73.687C127.69 73.592 124.569 73.575 121.447 73.552C126.664 75.3047 131.559 77.9012 135.936 81.238C153.236 94.781 159.795 120.488 147.653 140.876C142.133 149.983 133.858 157.097 124.026 161.187C113.126 165.699 102.968 163.197 91.9088 164.636C74.4448 166.908 66.9849 182.845 64.0959 197.912C61.9599 209.064 61.4038 222.891 51.1608 230.742C35.2188 242.962 23.0379 220.758 21.3319 208.354C18.0149 184.221 35.8368 161.272 60.3998 156.182C77.9078 152.552 97.0679 155.127 112.813 144.328C124.255 136.48 130.277 121.849 123.141 110.006C111.541 90.755 87.741 114.194 72.653 101.228C70.7666 99.6893 69.2855 97.7121 68.339 95.4692C67.3925 93.2264 67.0092 90.786 67.2228 88.361C61.9228 73.903 81.589 66.88 98.016 64.761C94.779 64.461 91.522 64.218 88.193 64.161C78.339 63.992 69.66 66.63 63.726 75.13C51.587 92.516 64.4178 112.971 84.0958 114.019C96.1498 114.661 117.527 101.478 117.967 121.628C118.33 138.264 97.5319 143.815 84.3419 145.428C71.3909 147.007 58.247 146.951 45.987 152.598C35.2863 157.559 26.3141 165.607 20.224 175.708C8.66002 195.108 9.63892 225.831 29.2909 238.342C48.6819 250.688 65.4288 230.784 69.6798 212.793C73.0908 198.324 72.7729 175.735 92.4999 172.6Z" fill="#020100"/>
<path d="M100.516 70.303C96.3384 70.4618 92.1878 71.0485 88.1299 72.054C94.8019 72.042 101.635 73.125 108.188 73.345C112.598 73.493 117.019 73.52 121.44 73.552C114.728 71.1754 107.632 70.0735 100.516 70.303Z" fill="#020100"/>
<path d="M67.2161 88.361C67.9021 80.419 74.6891 72.9 84.3731 72.124C85.6131 72.024 86.8729 72.056 88.1299 72.054C92.1879 71.0484 96.3385 70.4617 100.516 70.303C107.632 70.0735 114.728 71.1754 121.44 73.552C124.562 73.575 127.683 73.592 130.8 73.687C132.017 73.724 132.962 71.8389 131.573 71.4459C120.613 68.1977 109.378 65.9611 98.0091 64.764C81.5821 66.882 61.9121 73.903 67.2161 88.361Z" fill="#020100"/>
<path d="M196.627 120.882C197.517 119.591 198.387 118.298 199.28 117.008C199.735 116.35 199.001 115.291 198.271 115.939C193.971 119.826 189.88 123.937 186.013 128.256C189.348 125.518 192.898 123.052 196.627 120.882Z" fill="#020100"/>
<path d="M183.387 208.673C191.887 197.627 199.529 185.994 206.944 174.273C214.359 162.552 222.094 150 222.944 136.193C223.401 128.729 220.976 111.185 211.196 109.568C202.096 108.068 188.049 121.89 183.303 128.502C182.813 129.184 183.57 130.213 184.333 129.593C184.899 129.132 185.456 128.707 186.016 128.26C189.883 123.941 193.974 119.83 198.274 115.943C199.004 115.295 199.738 116.354 199.283 117.012C198.39 118.302 197.52 119.595 196.63 120.886C197.97 120.129 199.348 119.408 200.807 118.745C204.25 117.182 207.32 115.599 210.307 117.516C212.537 118.948 213.562 122.943 214.334 125.516C218.619 139.793 210.683 154.302 203.105 166.737C188.884 190.07 173.333 213.772 152.547 232.28C148.452 235.925 143.622 240.668 138.67 243.118C137.593 244.24 136.211 245.022 134.695 245.369C133.18 245.717 131.595 245.614 130.137 245.074C130.029 243.948 129.922 242.821 129.815 241.694C128.877 237.894 131.324 230.508 132.654 226.963C137.365 214.405 145.215 202.453 151.899 190.737C165.635 166.66 180.856 143.758 196.629 120.889C192.899 123.059 189.35 125.525 186.015 128.263C169.328 146.643 156.304 168.357 144.077 189.444C136.891 201.833 128.127 214.601 123.953 228.215C121.786 235.284 118.9 249.365 127.284 253.205C135.994 257.196 147.808 245.29 153.884 240.179C164.821 230.766 174.712 220.203 183.387 208.673Z" fill="#020100"/>
<path d="M23.0721 270.193C23.2721 269.999 23.485 269.772 23.691 269.562C25.3925 267.063 27.4557 264.83 29.8131 262.936C30.0509 262.766 30.2115 262.509 30.2596 262.221C30.3077 261.933 30.2394 261.637 30.0697 261.4C29.8999 261.162 29.6427 261.001 29.3546 260.953C29.0664 260.905 28.7708 260.973 28.5331 261.143C25.4497 263.005 22.6236 265.263 20.1271 267.86C20.0341 268.177 19.8761 268.484 19.8011 268.801C19.3391 270.742 21.8001 271.443 23.0721 270.193Z" fill="#020100"/>
<path d="M42.8869 254.96C33.2309 249.903 22.8799 258.543 20.1269 267.86C22.6235 265.263 25.4495 263.005 28.5329 261.143C28.7707 260.973 29.0663 260.905 29.3544 260.953C29.6426 261.001 29.8998 261.162 30.0695 261.4C30.2393 261.637 30.3076 261.933 30.2595 262.221C30.2114 262.509 30.0507 262.766 29.8129 262.936C27.4556 264.83 25.3924 267.063 23.6909 269.562C26.9169 266.271 31.1849 261.251 35.9169 261.132C45.1809 260.897 42.3269 272.553 38.6069 277.111C34.9699 281.567 24.789 288.331 21.757 280.172C20.386 276.482 21.5569 272.809 23.6909 269.562C23.4849 269.772 23.269 269.999 23.072 270.193C21.802 271.443 19.339 270.742 19.801 268.801C19.876 268.484 20.0339 268.177 20.1269 267.86C15.1689 273.098 12.359 279.668 17.019 286.349C23.852 296.149 37.9499 289.449 44.4379 281.812C51.2749 273.759 53.1099 260.315 42.8869 254.96Z" fill="#020100"/>
<path d="M78.0648 297.658C78.5328 295.743 79.2077 293.885 80.0778 292.116C80.1803 291.949 80.216 291.749 80.1776 291.557C80.1393 291.365 80.0298 291.194 79.871 291.079C79.0275 293.005 78.3905 295.014 77.9708 297.074C77.9248 297.293 78.0378 297.459 78.0648 297.658Z" fill="#020100"/>
<path d="M102.275 275.069C92.553 271.487 83.7971 281.901 79.8751 291.079C80.0339 291.194 80.1436 291.365 80.182 291.557C80.2204 291.749 80.1847 291.949 80.0822 292.116C79.212 293.885 78.5371 295.743 78.0692 297.658C78.1214 298.053 78.2887 298.424 78.5504 298.724C78.8121 299.024 79.1566 299.241 79.5406 299.347C79.9247 299.452 80.3315 299.443 80.7101 299.318C81.0886 299.194 81.4221 298.961 81.6691 298.649C85.3301 294.073 88.9871 286.872 94.1901 283.749C106.203 276.539 105.441 296.049 101.753 301.675C97.9361 307.492 89.7272 313.704 82.7062 310.83C77.2742 308.605 76.7782 302.93 78.0682 297.658C78.0412 297.458 77.9281 297.293 77.9681 297.074C78.3878 295.014 79.0246 293.005 79.868 291.079C79.7507 290.982 79.6137 290.911 79.4664 290.871C79.3192 290.831 79.1652 290.823 79.0148 290.848C78.8643 290.874 78.721 290.931 78.5946 291.016C78.4682 291.101 78.3616 291.213 78.2821 291.343C73.3821 298.734 70.6891 310.263 79.1141 315.567C89.1381 321.879 102.935 312.947 108.526 303.89C114.252 294.615 113.487 279.203 102.275 275.069Z" fill="#020100"/>
<path d="M105.444 300.671C98.685 304.979 85.791 313.191 84.144 299.966C82.994 290.74 94.0649 285.2 101.458 283.256C101.681 283.176 101.88 283.04 102.036 282.861C102.191 282.682 102.297 282.465 102.344 282.233C102.391 282 102.377 281.759 102.303 281.534C102.23 281.309 102.099 281.106 101.924 280.946C96.524 276.572 88.6698 279.551 83.7128 284.046C77.9128 289.312 74.504 296.646 76.599 303.983C78.567 310.873 83.916 316.142 91.799 315.383C99.113 314.683 104.722 308.627 107.231 302.102C107.341 301.863 107.367 301.594 107.307 301.338C107.246 301.082 107.101 300.853 106.896 300.689C106.691 300.525 106.436 300.434 106.173 300.43C105.91 300.427 105.653 300.512 105.444 300.671Z" fill="#020100"/>
<path d="M91.0703 67.905C78.3503 71.155 61.7843 81.5999 65.5193 96.5169C67.0793 102.745 72.4094 105.097 78.3294 106.605C82.6686 107.745 87.1432 108.287 91.6292 108.214C99.0112 108.034 108.243 104.855 113.681 110.839C114.291 111.512 115.694 110.952 115.288 109.966C111.821 101.547 104.095 101.818 95.6223 101.372C92.2823 101.197 88.2002 101.353 85.0042 100.35C78.2542 98.2329 70.3173 92.27 76.2503 84.717C81.1613 78.462 90.4642 75.733 97.8042 74.624C126.952 70.214 151.826 89.3869 158.187 115.882C158.341 116.529 159.366 116.213 159.337 115.582C157.772 81.573 125.452 59.121 91.0703 67.905Z" fill="#020100"/>
<path d="M132.7 247.269C120.845 248.869 131.808 225.555 133.293 222.115C135.909 216.158 138.844 210.346 142.085 204.705C148.085 194.113 154.85 183.905 161.401 173.605C168.214 162.899 174.853 152.041 182.435 141.805C185.884 136.959 189.657 132.352 193.728 128.015C198.474 123.149 214.228 116.115 213.428 128.644C213.316 130.377 215.92 130.427 216.634 129.077C223.066 116.886 208.68 110.234 198.2 114.927C190.5 118.375 184.7 126.019 179.7 132.387C172.913 141.041 166.943 150.252 161.046 159.468C148.41 179.214 133.792 199.059 125.338 220.792C122.838 227.22 115.548 257.583 132.98 248.592C133.664 248.239 133.552 247.154 132.7 247.269Z" fill="#020100"/>
<path d="M196.078 136.735C174.314 160.635 164.518 191.858 144.909 217.23C144.884 217.261 144.866 217.296 144.854 217.334C144.843 217.372 144.84 217.412 144.844 217.451C144.852 217.53 144.892 217.603 144.954 217.653C145.016 217.703 145.095 217.727 145.175 217.718C145.254 217.71 145.327 217.67 145.377 217.608C168.319 194.457 176.843 162.508 196.669 137.208C196.705 137.17 196.734 137.125 196.752 137.075C196.77 137.026 196.777 136.973 196.774 136.92C196.77 136.867 196.756 136.816 196.732 136.769C196.707 136.723 196.673 136.681 196.632 136.648C196.591 136.615 196.543 136.591 196.492 136.578C196.441 136.564 196.388 136.561 196.336 136.57C196.284 136.578 196.234 136.597 196.19 136.625C196.145 136.654 196.107 136.691 196.078 136.735Z" fill="#020100"/>
<path d="M39.461 219.431C32.888 203.397 41.006 186.565 48.908 171.672C49.131 171.25 48.5711 170.981 48.2591 171.281C36.0011 183.108 26.1481 206.471 38.0291 220.209C38.5671 220.83 39.817 220.298 39.461 219.431Z" fill="#020100"/>
<path d="M132.029 105.616C131.755 105.232 131.053 105.588 131.24 106.045C137.51 121.364 134.053 138.308 120.04 149.645C119.996 149.676 119.959 149.716 119.93 149.761C119.902 149.807 119.883 149.857 119.874 149.91C119.865 149.963 119.867 150.018 119.879 150.07C119.891 150.122 119.913 150.172 119.944 150.215C119.976 150.259 120.015 150.296 120.061 150.325C120.106 150.353 120.157 150.372 120.21 150.381C120.263 150.39 120.317 150.389 120.369 150.376C120.421 150.364 120.471 150.342 120.515 150.311C135.663 140.897 142.021 119.576 132.029 105.616Z" fill="#020100"/>
<path d="M95.9997 15.136C95.5668 10.7088 95.6393 6.24669 96.2158 1.83592C96.2405 1.65371 96.229 1.46841 96.1821 1.29063C96.1352 1.11284 96.0537 0.946082 95.9424 0.799783C95.831 0.653484 95.6918 0.530504 95.5329 0.437967C95.374 0.345429 95.1985 0.285165 95.0163 0.260476C94.8341 0.235788 94.6487 0.247249 94.4709 0.294168C94.2931 0.341087 94.1262 0.42253 93.98 0.533914C93.8337 0.645298 93.7109 0.784446 93.6184 0.943338C93.5258 1.10223 93.4653 1.27773 93.4406 1.45994C91.7606 9.59994 90.0527 20.3689 93.2697 27.9909C94.2547 30.3259 97.8968 29.438 97.8098 26.816C97.6798 22.87 96.4347 19.058 95.9997 15.136Z" fill="#020100"/>
<path d="M65.281 27.736C62.8455 24.3544 61.2083 20.4646 60.4929 16.359C60.2259 15.059 58.0219 14.725 57.8239 16.359C57.2555 20.9668 58.2409 25.6325 60.624 29.617C62.44 32.817 66.1899 38.469 70.6479 37.635C70.9254 37.5974 71.1916 37.5003 71.4282 37.3505C71.6648 37.2007 71.8662 37.0018 72.019 36.7671C72.1718 36.5324 72.2722 36.2676 72.3134 35.9906C72.3546 35.7137 72.3358 35.431 72.258 35.162C71.425 32.011 67.244 30.276 65.281 27.736Z" fill="#020100"/>
<path d="M27.71 80.266C23.772 79.344 19.6101 79.3869 15.6551 78.4449C11.3938 77.4542 7.29493 75.8623 3.48201 73.717C1.81601 72.773 0.0200423 75.5119 1.54304 76.6229C8.42204 81.6449 18.19 86.708 27.419 84.854C30.126 84.309 30.281 80.868 27.71 80.266Z" fill="#020100"/>
</svg>
