<svg width="68" height="51" viewBox="0 0 68 51" fill="none" xmlns="http://www.w3.org/2000/svg">
<path d="M46.9651 24.2109C46.2338 19.5099 44.0971 15.14 40.8362 11.6758C37.5752 8.21153 33.3424 5.81502 28.6941 4.80103C24.8751 3.98503 24.6941 3.97407 23.7141 4.51807C22.5054 4.8927 21.2548 5.11525 19.9911 5.18091C14.1421 5.68991 7.01112 10.3879 3.58312 15.9919C1.55872 19.5947 0.499479 23.6594 0.508109 27.792C0.508109 38.67 7.46109 47.4811 18.2511 50.2761C22.2352 51.2701 26.4144 51.1651 30.3437 49.9727C34.273 48.7802 37.8054 46.5446 40.5651 43.5039C45.6431 38.0729 48.0291 30.8809 46.9651 24.2109ZM41.6371 36.346C37.8371 44.463 28.8871 49.222 20.3781 47.646C16.236 46.9263 12.4208 44.9344 9.46258 41.947C6.50439 38.9596 4.55006 35.1251 3.87108 30.9761C3.46552 28.114 3.64329 25.1993 4.39361 22.4077C5.14393 19.6161 6.45132 17.0051 8.23711 14.7319C10.9771 11.2699 17.7671 7.5319 21.3941 7.4939C23.021 7.62004 24.6367 7.86456 26.2281 8.2251C31.2081 9.2761 34.4431 10.9081 37.3961 13.8611C40.3102 16.7302 42.278 20.4211 43.036 24.4397C43.794 28.4583 43.3059 32.6125 41.6371 36.346Z" fill="#231F20"/>
<path d="M60.5692 3.26002C47.0812 9.41402 40.2232 13.479 31.4692 20.512L26.7312 24.312L24.9842 20.8311C22.7282 16.3311 19.5152 11.7311 18.8992 12.1121C17.7992 12.7901 19.8592 39.3479 21.1162 40.7019C22.0592 41.7169 22.9352 40.9919 25.6702 36.9309C32.2002 27.2379 41.4772 18.924 58.6402 7.38502C61.1542 5.69502 64.2612 3.65802 65.5052 2.88502C67.5842 1.59402 68.1172 0.624924 66.7132 0.690924C64.6207 1.43131 62.5708 2.2875 60.5732 3.25513L60.5692 3.26002Z" fill="#6AC500"/>
</svg>
