<svg width="261" height="563" viewBox="0 0 261 563" fill="none" xmlns="http://www.w3.org/2000/svg">
<path d="M120.644 191.508C114.607 191.508 108.705 193.298 103.685 196.653C98.6649 200.007 94.7522 204.774 92.4418 210.352C90.1314 215.93 89.5269 222.068 90.7047 227.989C91.8826 233.911 94.7898 239.35 99.059 243.619C103.328 247.888 108.767 250.796 114.689 251.973C120.61 253.151 126.748 252.547 132.326 250.236C137.904 247.926 142.671 244.013 146.026 238.993C149.38 233.973 151.17 228.071 151.17 222.034C151.17 213.938 147.954 206.174 142.229 200.449C136.504 194.725 128.74 191.508 120.644 191.508ZM134.686 235.618C134.563 235.837 134.396 236.027 134.195 236.178C133.994 236.329 133.765 236.436 133.52 236.494C133.276 236.551 133.022 236.557 132.775 236.512C132.529 236.466 132.294 236.37 132.086 236.229C124.912 231.803 115.907 230.887 105.223 233.329C104.982 233.392 104.73 233.407 104.483 233.372C104.236 233.337 103.998 233.254 103.783 233.126C103.569 232.999 103.381 232.831 103.232 232.63C103.083 232.43 102.975 232.202 102.914 231.96C102.854 231.718 102.842 231.467 102.879 231.22C102.917 230.973 103.003 230.736 103.132 230.523C103.262 230.309 103.432 230.124 103.634 229.977C103.836 229.83 104.064 229.724 104.307 229.666C115.907 227.071 125.98 228.14 133.917 233.023C134.147 233.134 134.35 233.291 134.515 233.486C134.68 233.68 134.803 233.906 134.875 234.151C134.948 234.395 134.968 234.652 134.936 234.904C134.903 235.157 134.818 235.4 134.686 235.618ZM138.349 227.218C138.192 227.482 137.983 227.711 137.735 227.893C137.488 228.075 137.206 228.205 136.907 228.277C136.609 228.348 136.299 228.358 135.996 228.308C135.693 228.257 135.403 228.146 135.143 227.982C126.901 222.945 114.386 221.419 104.77 224.471C104.183 224.653 103.548 224.595 103.004 224.309C102.46 224.022 102.052 223.532 101.87 222.945C101.688 222.358 101.746 221.723 102.032 221.179C102.319 220.635 102.809 220.227 103.396 220.045C114.538 216.687 128.275 218.366 137.738 224.166C137.984 224.322 138.196 224.526 138.361 224.766C138.526 225.007 138.641 225.278 138.698 225.564C138.755 225.85 138.754 226.144 138.694 226.429C138.634 226.714 138.517 226.984 138.349 227.223V227.218ZM138.654 218.671C128.886 212.871 112.554 212.261 103.244 215.161C102.892 215.276 102.521 215.32 102.152 215.291C101.782 215.261 101.423 215.159 101.093 214.989C100.764 214.82 100.472 214.587 100.233 214.303C99.9945 214.02 99.8143 213.692 99.7033 213.339C99.5922 212.986 99.5524 212.614 99.5861 212.245C99.6197 211.876 99.7263 211.518 99.8994 211.19C100.073 210.863 100.309 210.573 100.595 210.338C100.881 210.102 101.211 209.926 101.565 209.819C112.401 206.613 130.259 207.224 141.554 213.94C142.213 214.333 142.693 214.967 142.892 215.708C143.092 216.448 142.995 217.237 142.623 217.908C142.152 218.474 141.499 218.86 140.776 219.001C140.053 219.142 139.304 219.029 138.654 218.681V218.671Z" fill="white"/>
<path d="M6.82298 413.399C6.85887 413.836 6.97127 414.264 7.15501 414.662C11.655 424.473 17.6699 434.588 17.9239 435.015C18.2624 435.581 18.7413 436.05 19.3142 436.376C19.8871 436.703 20.5345 436.876 21.194 436.879H21.206C21.8637 436.879 22.5102 436.709 23.0832 436.387C23.6562 436.064 24.1363 435.599 24.477 435.036C24.751 434.583 51.662 390.653 81.777 380.402C81.4038 383.036 81.6493 385.721 82.4939 388.243C83.3385 390.766 84.759 393.057 86.6429 394.935C86.6086 395.067 86.5819 395.201 86.563 395.335V455.299C86.563 456.313 86.9658 457.285 87.6827 458.002C88.3997 458.719 89.372 459.122 90.386 459.122C91.3999 459.122 92.3723 458.719 93.0892 458.002C93.8062 457.285 94.209 456.313 94.209 455.299V399.364C96.1412 399.968 98.1125 400.439 100.109 400.773C113.443 403.186 127.065 403.577 140.516 401.935C143.845 401.577 147.134 400.916 150.342 399.96V478.833C150.342 479.847 150.745 480.819 151.462 481.536C152.179 482.253 153.151 482.656 154.165 482.656C155.179 482.656 156.151 482.253 156.868 481.536C157.585 480.819 157.988 479.847 157.988 478.833V396.281C158.301 396.063 158.624 395.868 158.929 395.633C163.818 391.85 167.386 385.09 166.029 378.489C166.786 378.129 167.487 377.779 168.064 377.453C168.506 377.862 169.039 378.158 169.62 378.317C200.82 386.18 230.465 431.149 230.761 431.603C231.108 432.135 231.582 432.573 232.141 432.876C232.7 433.179 233.325 433.338 233.961 433.338C234.009 433.338 234.054 433.338 234.101 433.338C234.761 433.314 235.403 433.119 235.965 432.773C236.527 432.427 236.99 431.942 237.309 431.364C237.548 430.931 243.222 420.621 247.389 410.664C247.557 410.259 247.655 409.829 247.679 409.392C251.827 331.012 193.209 278.06 190.71 275.848C190.6 275.775 190.485 275.708 190.367 275.648C193.755 238.881 195.138 197.336 194.383 152.037C194.062 131.132 190.277 110.424 183.183 90.7562C183.363 90.343 183.414 89.8845 183.328 89.4419C183.255 89.1237 183.114 88.8251 182.915 88.5662C182.716 88.3073 182.464 88.0943 182.175 87.9419C160.918 31.6499 119.352 1.75114 118.797 1.36114C118.132 0.89144 117.334 0.646831 116.52 0.663386C115.706 0.67994 114.918 0.95683 114.273 1.45318C113.58 1.98218 45.089 55.572 46.723 153.627C47.423 195.636 52.448 241.227 57.917 279.412C48.859 288.546 0.562982 340.943 6.82298 413.399ZM21.4029 425.699C20.9509 424.886 20.457 423.984 19.951 423.05C24.513 413.944 41.381 383.606 72.343 363.518C72.726 365.387 72.943 366.439 72.967 366.518C73.3608 369.345 74.3679 372.052 75.918 374.449C50.923 384.814 29.54 413.619 21.4 425.703L21.4029 425.699ZM71.581 115.945C71.4975 115.655 71.3571 115.385 71.1681 115.15C70.9791 114.915 70.7453 114.719 70.4802 114.575C70.2151 114.432 69.924 114.342 69.6239 114.311C69.3238 114.281 69.0207 114.31 68.732 114.398C65.1277 115.437 61.3076 115.47 57.686 114.492C58.421 110.617 59.2419 106.822 60.1789 103.149C62.8146 104.016 65.5713 104.459 68.3459 104.462C69.6095 104.463 70.8714 104.369 72.121 104.181C72.4211 104.139 72.71 104.037 72.9707 103.883C73.2314 103.728 73.4589 103.523 73.64 103.28C73.8211 103.037 73.9521 102.761 74.0256 102.467C74.0991 102.173 74.1136 101.867 74.0682 101.567C74.0228 101.267 73.9184 100.98 73.7611 100.721C73.6038 100.461 73.3966 100.236 73.1516 100.057C72.9066 99.8789 72.6287 99.7507 72.3338 99.6802C72.039 99.6098 71.7332 99.5985 71.4339 99.647C68.0603 100.123 64.6218 99.7889 61.4029 98.6722C62.5649 94.5475 63.8353 90.5573 65.214 86.702C67.6164 87.4599 70.1189 87.8529 72.6379 87.868C74.9471 87.87 77.2452 87.5484 79.465 86.9122C79.7565 86.8305 80.029 86.6919 80.2667 86.5044C80.5044 86.317 80.7028 86.0841 80.8502 85.8196C80.9976 85.5552 81.0911 85.2642 81.1255 84.9634C81.1598 84.6626 81.1343 84.3578 81.0504 84.0669C80.9665 83.776 80.8257 83.5049 80.6363 83.2686C80.447 83.0323 80.2128 82.8358 79.9471 82.6905C79.6815 82.5452 79.3898 82.4539 79.0887 82.4219C78.7877 82.3899 78.4832 82.4177 78.193 82.504C74.4634 83.5646 70.5086 83.5393 66.793 82.431C68.225 78.6976 69.7336 75.0978 71.319 71.6312L82.744 72.8431C83.3448 72.8987 83.9433 72.7155 84.41 72.3331C84.8767 71.9507 85.1741 71.3999 85.2378 70.7999C85.3014 70.1999 85.1261 69.599 84.75 69.1273C84.3738 68.6555 83.8271 68.3507 83.228 68.2791L73.383 67.2352C74.7437 64.4398 76.1383 61.7397 77.567 59.1351C81.5554 61.0221 85.8761 62.106 90.2829 62.325C90.3179 62.325 90.354 62.325 90.39 62.325C90.9902 62.3261 91.567 62.092 91.9964 61.6727C92.4259 61.2533 92.6737 60.6822 92.6868 60.0821C92.6998 59.482 92.4771 58.9006 92.0664 58.4629C91.6557 58.0253 91.0897 57.7661 90.49 57.741C86.7995 57.5598 83.1773 56.6776 79.817 55.1412C81.463 52.2952 83.126 49.5744 84.806 46.9791C106.726 52.2287 129.585 52.1405 151.464 46.722C154.464 50.922 157.442 55.4401 160.339 60.2881L153.945 61.8221C153.4 61.9537 152.921 62.2805 152.601 62.7408C152.28 63.2011 152.139 63.7627 152.205 64.3199C152.27 64.877 152.538 65.3909 152.956 65.7642C153.375 66.1376 153.916 66.3445 154.477 66.346C154.658 66.3458 154.838 66.3247 155.014 66.283L162.745 64.43C164.598 67.71 166.394 71.1266 168.132 74.68L158.246 76.169C157.675 76.2557 157.158 76.5548 156.797 77.0064C156.437 77.458 156.261 78.029 156.303 78.605C156.346 79.1811 156.604 79.7198 157.027 80.1136C157.45 80.5074 158.005 80.7272 158.583 80.7291C158.698 80.7295 158.813 80.7204 158.927 80.702L170.185 79.0071C171.665 82.2471 173.077 85.5927 174.42 89.044L165.832 90.929C165.28 91.0499 164.791 91.3706 164.461 91.8294C164.131 92.2882 163.982 92.853 164.042 93.4151C164.103 93.9772 164.369 94.497 164.79 94.8748C165.21 95.2526 165.756 95.4617 166.321 95.462C166.489 95.4621 166.657 95.444 166.821 95.408L176.028 93.387C177.323 96.9917 178.523 100.706 179.628 104.529L169.128 106.548C168.569 106.657 168.07 106.969 167.728 107.426C167.387 107.882 167.227 108.449 167.281 109.016C167.335 109.583 167.598 110.11 168.019 110.494C168.439 110.879 168.988 111.092 169.558 111.094C169.704 111.095 169.85 111.081 169.994 111.052L180.867 108.961C181.787 112.491 182.593 116.129 183.319 119.835C179.894 120.853 176.295 121.144 172.751 120.69C172.453 120.651 172.149 120.671 171.859 120.748C171.568 120.826 171.295 120.96 171.056 121.144C170.817 121.327 170.617 121.555 170.466 121.816C170.316 122.076 170.218 122.364 170.178 122.663C170.139 122.961 170.159 123.264 170.237 123.555C170.314 123.846 170.449 124.118 170.632 124.357C170.815 124.596 171.044 124.797 171.304 124.947C171.565 125.098 171.853 125.196 172.151 125.235C173.463 125.411 174.785 125.498 176.109 125.498C178.83 125.491 181.537 125.115 184.157 124.382C184.572 126.831 184.939 129.317 185.257 131.841L176.522 133.941C176.189 133.906 175.852 133.945 175.536 134.054L174.261 134.494C173.747 134.669 173.311 135.02 173.032 135.486C172.753 135.952 172.648 136.502 172.736 137.038C172.825 137.574 173.1 138.06 173.514 138.412C173.928 138.764 174.453 138.957 174.996 138.958C175.177 138.958 175.357 138.937 175.533 138.896L185.806 136.429C186.124 139.554 186.348 142.745 186.506 145.978C183.703 147.019 180.74 147.567 177.75 147.598C177.449 147.599 177.151 147.659 176.873 147.775C176.595 147.892 176.342 148.061 176.13 148.275C175.918 148.489 175.75 148.742 175.635 149.021C175.521 149.3 175.462 149.598 175.463 149.899C175.464 150.201 175.525 150.499 175.641 150.777C175.757 151.055 175.927 151.307 176.141 151.52C176.354 151.732 176.608 151.9 176.887 152.014C177.165 152.129 177.464 152.187 177.765 152.186H177.78C180.802 152.145 183.802 151.656 186.68 150.733C186.692 151.212 186.726 151.677 186.734 152.159C186.779 154.9 186.812 157.593 186.842 160.279L178.586 163.851C178.31 163.971 178.059 164.144 177.85 164.36C177.64 164.576 177.475 164.832 177.364 165.112C177.253 165.392 177.198 165.691 177.203 165.992C177.208 166.294 177.272 166.591 177.391 166.867C177.511 167.144 177.684 167.394 177.9 167.604C178.117 167.814 178.372 167.979 178.652 168.09C178.932 168.201 179.232 168.255 179.533 168.25C179.834 168.246 180.131 168.182 180.408 168.062L186.887 165.262C186.906 167.695 186.925 170.127 186.931 172.515C175.878 174.103 164.611 175.368 153.356 176.201C152.825 176.245 152.326 176.475 151.948 176.851C151.569 177.227 151.336 177.725 151.289 178.256C142.307 172.15 131.696 168.885 120.835 168.887C120.148 168.887 119.452 168.899 118.757 168.926C109.369 169.268 100.23 172.042 92.2359 176.976C79.7629 176.376 67.27 175.293 55.021 173.761C55.015 173.609 55.006 173.461 54.999 173.305L63.786 172.366C64.3907 172.3 64.9445 171.997 65.3263 171.523C65.708 171.05 65.8866 170.444 65.823 169.839C65.7945 169.538 65.706 169.246 65.5627 168.979C65.4195 168.713 65.2243 168.478 64.9888 168.288C64.7533 168.098 64.4821 167.958 64.1914 167.875C63.9007 167.791 63.5963 167.767 63.296 167.803L54.807 168.71C54.689 165.71 54.5889 162.725 54.5069 159.755C58.399 160.85 62.5358 160.703 66.34 159.333C66.9035 159.123 67.362 158.7 67.6166 158.155C67.8711 157.61 67.9014 156.986 67.7009 156.419C67.5004 155.852 67.0852 155.386 66.5447 155.122C66.0041 154.858 65.3815 154.817 64.811 155.008C61.4792 156.178 57.8502 156.189 54.511 155.041C54.473 155.028 54.434 155.041 54.396 155.025C54.386 154.525 54.368 154.008 54.359 153.503C54.329 151.703 54.359 149.943 54.375 148.176L66.052 147.393C66.3526 147.373 66.6463 147.294 66.9162 147.16C67.1862 147.026 67.4272 146.841 67.6252 146.614C67.8233 146.387 67.9745 146.123 68.0704 145.837C68.1663 145.551 68.2049 145.25 68.1839 144.949C68.1331 144.346 67.8498 143.787 67.3939 143.389C66.938 142.991 66.3452 142.786 65.741 142.817L54.472 143.573C54.59 140.052 54.7996 136.596 55.1009 133.204C59.4125 134.375 63.9568 134.386 68.274 133.236C68.8269 133.048 69.2875 132.656 69.5621 132.14C69.8368 131.625 69.905 131.024 69.7529 130.46C69.6008 129.896 69.2399 129.411 68.7433 129.104C68.2467 128.796 67.6516 128.689 67.079 128.804C63.2917 129.799 59.2992 129.695 55.569 128.504C55.931 125.293 56.3666 122.144 56.876 119.055C61.2022 120.16 65.747 120.072 70.027 118.799C70.3166 118.715 70.5867 118.574 70.8218 118.385C71.0568 118.196 71.2522 117.962 71.3966 117.697C71.541 117.432 71.6317 117.142 71.6633 116.842C71.695 116.542 71.667 116.238 71.581 115.949V115.945ZM184.071 259.327C174.511 260.802 164.789 261.957 155.04 262.777C156.875 261.304 158.611 259.714 160.24 258.016C165.273 252.728 169.145 246.447 171.609 239.575C174.073 232.703 175.073 225.393 174.547 218.111C174.02 210.83 171.978 203.739 168.552 197.294C165.125 190.848 160.389 185.189 154.648 180.68C165.47 179.858 176.294 178.647 186.932 177.135C186.911 208.376 185.828 235.646 184.071 259.331V259.327ZM74.487 223.664C74.2568 217.688 75.2288 211.726 77.3454 206.132C79.4621 200.538 82.6801 195.426 86.8089 191.099C95.2159 182.19 106.803 176.963 119.046 176.557C119.646 176.536 120.241 176.524 120.835 176.524C145.552 176.524 166.088 195.767 167.004 220.197C167.234 226.174 166.262 232.136 164.146 237.731C162.029 243.325 158.811 248.437 154.682 252.765C146.275 261.674 134.688 266.901 122.445 267.307C96.9189 268.264 75.425 248.69 74.487 223.668V223.664ZM86.272 181.23C84.5033 182.663 82.8264 184.205 81.251 185.848C76.2372 191.115 72.3749 197.368 69.9101 204.21C67.4454 211.051 66.432 218.331 66.9346 225.585C67.4372 232.839 69.4448 239.91 72.8295 246.346C76.2141 252.782 80.9018 258.443 86.594 262.968C78.703 262.359 70.8269 261.547 63.0439 260.504C59.6529 234.523 56.708 206.163 55.255 178.404C65.481 179.664 75.866 180.611 86.272 181.234V181.23ZM78.9339 294.177C78.6992 293.616 78.2523 293.17 77.6904 292.937C77.1285 292.704 76.4971 292.702 75.9339 292.932C73.3115 293.97 70.4204 294.115 67.707 293.346C66.963 288.496 66.2206 283.496 65.48 278.346L77.105 278.303C77.705 278.289 78.2757 278.041 78.6948 277.612C79.1139 277.182 79.348 276.605 79.3468 276.005C79.3456 275.405 79.1094 274.829 78.6886 274.401C78.2678 273.973 77.696 273.727 77.0959 273.716H77.087L64.8349 273.762C64.4396 270.941 64.0486 268.085 63.662 265.196C72.912 266.409 82.285 267.387 91.6369 267.988C91.6849 267.988 91.737 267.994 91.787 267.994C92.2982 267.987 92.792 267.807 93.187 267.482C101.51 272.388 110.993 274.977 120.654 274.982C121.341 274.982 122.037 274.97 122.733 274.944C131.478 274.635 140.02 272.221 147.633 267.905C147.685 267.905 147.733 267.934 147.783 267.934C147.833 267.934 147.883 267.934 147.938 267.928C159.931 267.128 171.945 265.799 183.719 264.012C183.49 266.889 183.251 269.704 183.003 272.473C182.963 272.473 182.925 272.455 182.884 272.459L171.066 273.513C170.476 273.562 169.927 273.838 169.536 274.283C169.145 274.728 168.94 275.306 168.966 275.898C168.992 276.49 169.246 277.049 169.675 277.458C170.103 277.866 170.674 278.093 171.266 278.091C171.335 278.091 171.404 278.091 171.472 278.083L182.572 277.092C182.172 281.267 181.755 285.314 181.321 289.234L172.16 290.405C171.583 290.48 171.055 290.771 170.685 291.221C170.314 291.67 170.129 292.243 170.165 292.824C170.202 293.405 170.458 293.95 170.881 294.35C171.305 294.749 171.865 294.972 172.447 294.974C172.545 294.974 172.643 294.969 172.74 294.957L180.784 293.928C180.43 296.935 180.069 299.884 179.696 302.741L171.423 303.301C170.829 303.34 170.274 303.609 169.874 304.05C169.475 304.491 169.263 305.07 169.283 305.665C169.302 306.26 169.553 306.824 169.98 307.237C170.408 307.651 170.98 307.882 171.575 307.882C171.629 307.882 171.675 307.882 171.733 307.876L179.07 307.376C178.509 311.449 177.931 315.368 177.338 319.134L167.8 320.165C167.218 320.23 166.682 320.515 166.303 320.961C165.924 321.408 165.73 321.983 165.761 322.569C165.793 323.154 166.047 323.705 166.471 324.109C166.896 324.513 167.459 324.739 168.045 324.741C168.128 324.741 168.212 324.741 168.296 324.729L176.575 323.829C176.122 326.549 175.663 329.182 175.199 331.729C175.133 331.752 175.065 331.746 174.999 331.775C172.806 332.74 170.333 332.861 168.056 332.112C167.491 331.963 166.89 332.034 166.375 332.312C165.861 332.59 165.472 333.054 165.287 333.608C165.102 334.163 165.135 334.767 165.38 335.298C165.625 335.829 166.062 336.247 166.604 336.467C168.046 336.943 169.556 337.185 171.075 337.183C172.143 337.177 173.206 337.052 174.246 336.81C173.561 340.36 172.87 343.74 172.175 346.949C171.728 346.81 171.248 346.814 170.803 346.962C167.788 348.047 164.534 348.292 161.39 347.672C161.095 347.613 160.79 347.613 160.495 347.671C160.199 347.73 159.918 347.846 159.667 348.013C159.417 348.18 159.201 348.395 159.033 348.645C158.866 348.896 158.749 349.177 158.69 349.472C158.631 349.767 158.631 350.072 158.689 350.367C158.748 350.663 158.864 350.944 159.031 351.195C159.198 351.446 159.413 351.661 159.663 351.829C159.914 351.996 160.195 352.113 160.49 352.172C164.031 352.898 167.699 352.703 171.143 351.604C170.465 354.56 169.79 357.339 169.119 359.981L159.737 361.314C159.162 361.394 158.638 361.69 158.272 362.141C157.907 362.593 157.726 363.166 157.766 363.745C157.807 364.325 158.066 364.867 158.491 365.263C158.916 365.659 159.476 365.879 160.057 365.878C160.166 365.879 160.274 365.87 160.382 365.853L167.848 364.793C167.168 367.135 166.37 369.179 165.026 370.342C162.983 372.063 147.02 378.929 124.466 379.302C101.81 379.702 86.247 373.702 84.828 372.851C82.597 371.406 80.994 368.631 80.489 365.173L80.436 364.925H88.612C89.2205 364.925 89.8039 364.683 90.2341 364.253C90.6643 363.823 90.906 363.24 90.906 362.631C90.906 362.023 90.6643 361.439 90.2341 361.009C89.8039 360.579 89.2205 360.337 88.612 360.337H79.5C78.968 357.7 78.2509 354.088 77.3769 349.527C78.2701 349.72 79.1803 349.823 80.094 349.834C81.6498 349.837 83.1939 349.564 84.654 349.027C85.2072 348.803 85.6511 348.371 85.8916 347.825C86.132 347.278 86.1501 346.66 85.9419 346.1C85.7337 345.541 85.3157 345.084 84.7765 344.828C84.2373 344.572 83.6193 344.535 83.0539 344.727C80.8824 345.5 78.4935 345.383 76.4079 344.401C75.6709 340.473 74.858 336.039 73.995 331.201L82.3249 330.52C82.6255 330.496 82.9184 330.413 83.1869 330.276C83.4553 330.139 83.694 329.95 83.8891 329.72C84.0843 329.49 84.232 329.224 84.324 328.937C84.4159 328.65 84.4503 328.348 84.425 328.047C84.4078 327.744 84.3291 327.448 84.194 327.176C84.0588 326.905 83.8698 326.663 83.6385 326.467C83.4073 326.271 83.1385 326.123 82.8486 326.034C82.5587 325.945 82.2537 325.915 81.952 325.947L73.197 326.663C72.543 322.93 71.8686 318.996 71.1739 314.863L82.036 315.3C82.069 315.3 82.098 315.3 82.136 315.3C82.7412 315.308 83.3249 315.075 83.7598 314.654C84.1946 314.233 84.4453 313.658 84.4571 313.052C84.469 312.447 84.2412 311.862 83.8232 311.424C83.4053 310.986 82.831 310.731 82.2259 310.715L70.707 310.253C70.6104 310.26 70.5145 310.275 70.42 310.296C69.78 306.412 69.131 302.357 68.478 298.189C69.3583 298.345 70.2491 298.434 71.1429 298.453C73.3922 298.456 75.6202 298.017 77.701 297.163C78.2568 296.927 78.6975 296.483 78.9282 295.925C79.1589 295.367 79.1609 294.74 78.9339 294.181V294.177ZM135.275 394.777C132.045 395.06 128.812 395.221 125.575 395.26L125.966 386.905C129.406 386.805 132.714 386.571 135.872 386.223L135.275 394.777ZM121.375 386.954L120.989 395.226C117.833 395.148 114.682 394.952 111.536 394.638L111.968 386.538C114.952 386.781 118.091 386.933 121.373 386.96L121.375 386.954ZM92.665 390.121C91.5518 389.198 90.6635 388.033 90.0675 386.715C89.4715 385.397 89.1833 383.961 89.225 382.515C91.166 383.077 93.412 383.645 95.891 384.182L96.131 391.893C94.8899 391.489 93.7198 390.893 92.6629 390.127L92.665 390.121ZM100.765 393.095L100.516 385.087C102.674 385.464 104.974 385.802 107.402 386.087L106.975 394.097C105.139 393.846 103.305 393.568 101.475 393.236C101.238 393.2 100.994 393.146 100.758 393.101L100.765 393.095ZM139.914 394.295L140.52 385.631C143.344 385.209 146.034 384.714 148.538 384.16L147.96 392.683C145.328 393.456 142.633 393.997 139.907 394.297L139.914 394.295ZM154.256 389.582C153.757 389.966 153.236 390.32 152.695 390.642L153.213 383.006C155.171 382.481 156.992 381.936 158.659 381.381C158.554 382.984 158.105 384.545 157.345 385.96C156.584 387.375 155.528 388.61 154.249 389.581L154.256 389.582ZM233.522 422.168C224.559 409.763 200.366 379.444 173.478 371.508C174.529 369.188 175.346 366.768 175.917 364.286C176.307 362.794 176.671 361.222 177.049 359.695C210.799 378.56 229.837 410.195 234.886 419.472C234.4 420.424 233.94 421.343 233.515 422.17L233.522 422.168ZM240.084 408.317C239.215 410.365 238.277 412.417 237.341 414.402C230.341 402.152 211.264 373.254 178.525 355.254C178.411 355.207 178.293 355.17 178.172 355.142C183.383 332.11 187.149 308.775 189.446 285.273C202.277 298.405 243.1 345.338 240.077 408.319L240.084 408.317ZM116.7 9.37408C128.637 19.1334 139.325 30.3271 148.523 42.702C128.454 47.2935 107.615 47.3577 87.5179 42.8899C95.8083 30.5438 105.612 19.2844 116.7 9.37408ZM59.343 289.143C64.111 320.96 68.951 346.501 71.375 358.706C40.984 377.798 23.726 405.961 17.329 418.07C16.329 416.116 15.322 414.098 14.386 412.079C9.45997 351.672 45.53 304.73 59.342 289.143H59.343ZM156.543 220.592C156.338 215.929 155.214 211.352 153.235 207.124C151.257 202.896 148.464 199.1 145.015 195.954C141.567 192.808 137.531 190.374 133.14 188.791C128.749 187.208 124.089 186.508 119.426 186.73C109.964 187.046 101.01 191.088 94.514 197.975C91.3071 201.337 88.8082 205.309 87.1656 209.655C85.5231 214.001 84.7703 218.632 84.952 223.275C85.659 242.234 101.552 257.167 120.686 257.167C121.143 257.167 121.602 257.158 122.065 257.14C131.527 256.824 140.481 252.783 146.976 245.895C150.184 242.533 152.683 238.561 154.327 234.214C155.97 229.868 156.724 225.235 156.543 220.592ZM121.892 252.56C104.726 253.101 90.1659 239.99 89.5329 223.104C89.3775 219.071 90.0334 215.047 91.4617 211.272C92.89 207.497 95.0617 204.046 97.848 201.126C103.52 195.114 111.338 191.587 119.599 191.312C119.999 191.297 120.399 191.291 120.805 191.291C137.479 191.291 151.34 204.276 151.961 220.765C152.116 224.799 151.46 228.823 150.031 232.599C148.602 236.374 146.431 239.825 143.644 242.746C137.971 248.758 130.153 252.285 121.892 252.56ZM94.2099 466.804V471.442C94.2099 472.456 93.8071 473.428 93.0902 474.145C92.3732 474.862 91.4009 475.265 90.3869 475.265C89.373 475.265 88.4007 474.862 87.6837 474.145C86.9668 473.428 86.5639 472.456 86.5639 471.442V466.804C86.5639 465.79 86.9668 464.818 87.6837 464.101C88.4007 463.384 89.373 462.981 90.3869 462.981C91.4009 462.981 92.3732 463.384 93.0902 464.101C93.8071 464.818 94.2099 465.79 94.2099 466.804ZM258.934 538.046C258.149 538.688 257.142 538.993 256.133 538.893C255.124 538.794 254.196 538.297 253.552 537.514C250.462 533.872 246.628 530.933 242.309 528.894C237.989 526.856 233.283 525.766 228.507 525.696C220.7 525.514 213.941 528.504 209.453 533.796C208.919 534.423 208.196 534.861 207.393 535.044C206.59 535.227 205.75 535.146 204.997 534.812C204.244 534.479 203.618 533.911 203.214 533.194C202.81 532.476 202.648 531.647 202.753 530.83C204.918 514.186 193.763 506.424 182.599 504.71C172.156 503.11 159.909 506.824 157.993 515.591V521.617C157.993 522.631 157.59 523.603 156.873 524.32C156.156 525.037 155.184 525.44 154.17 525.44C153.156 525.44 152.184 525.037 151.467 524.32C150.75 523.603 150.347 522.631 150.347 521.617V492.749C150.347 491.735 150.75 490.763 151.467 490.046C152.184 489.329 153.156 488.926 154.17 488.926C155.184 488.926 156.156 489.329 156.873 490.046C157.59 490.763 157.993 491.735 157.993 492.749V502.634C164.693 497.609 174.617 495.751 183.761 497.154C195.779 499 208.77 506.845 210.491 522.91C215.834 519.649 221.99 517.964 228.249 518.051C228.359 518.051 228.467 518.051 228.574 518.051C234.475 518.105 240.295 519.439 245.63 521.962C250.965 524.485 255.688 528.136 259.474 532.664C260.115 533.45 260.418 534.458 260.317 535.467C260.216 536.476 259.718 537.404 258.934 538.046ZM141.911 545.766C142.173 546.199 142.347 546.681 142.421 547.181C142.496 547.682 142.471 548.193 142.346 548.684C142.222 549.175 142.001 549.636 141.697 550.041C141.393 550.446 141.011 550.786 140.574 551.042C140.137 551.298 139.654 551.465 139.152 551.533C138.65 551.601 138.139 551.568 137.65 551.436C137.161 551.305 136.703 551.078 136.302 550.768C135.902 550.458 135.567 550.072 135.317 549.631C131.437 543.013 126.304 542.863 123.58 543.368C119.312 544.156 115.525 547.46 114.954 550.891C114.815 551.725 114.404 552.489 113.785 553.064C113.166 553.64 112.373 553.994 111.532 554.072C110.693 554.138 109.855 553.93 109.144 553.479C108.433 553.028 107.888 552.359 107.59 551.572C102.569 537.747 89.375 535.164 78.719 537.344C67.456 539.65 55.812 547.922 56.412 558.716C56.4685 559.728 56.121 560.72 55.4459 561.476C54.7709 562.231 53.8235 562.688 52.812 562.745C52.741 562.745 52.669 562.751 52.597 562.751C51.6203 562.751 50.6807 562.376 49.9714 561.704C49.2621 561.033 48.8369 560.115 48.7829 559.14C47.9469 544.064 62.7929 532.801 77.1889 529.854C80.2733 529.218 83.4208 528.939 86.569 529.024V506.231C86.3465 506.028 86.1501 505.798 85.984 505.546C81.964 498.334 71.401 494.995 61.416 497.766C50.978 500.666 44.966 508.936 45.334 519.882C45.3588 520.627 45.1655 521.363 44.7777 521.999C44.3899 522.636 43.8246 523.145 43.1512 523.464C42.4779 523.784 41.7259 523.899 40.9877 523.797C40.2494 523.695 39.5572 523.379 38.996 522.889C33.379 517.97 23.6809 517.899 16.4449 522.71C12.9329 525.045 5.25102 531.95 9.78502 545.572C9.94386 546.048 10.0073 546.551 9.97166 547.052C9.93603 547.552 9.80205 548.041 9.57738 548.49C9.3527 548.938 9.04166 549.338 8.66222 549.667C8.28277 549.995 7.84229 550.246 7.36595 550.404C6.97716 550.536 6.56957 550.604 6.15904 550.604C5.35645 550.604 4.5742 550.352 3.92332 549.882C3.27244 549.413 2.78591 548.75 2.53294 547.988C-1.76706 535.068 1.84995 523.239 12.2099 516.346C20.2099 511.033 30.183 510.092 38.1 513.446C40.233 500.357 50 493.006 59.371 490.405C69.343 487.633 79.571 489.536 86.571 494.886V486.224C86.571 485.21 86.9737 484.238 87.6907 483.521C88.4076 482.804 89.3801 482.401 90.394 482.401C91.408 482.401 92.3803 482.804 93.0973 483.521C93.8142 484.238 94.217 485.21 94.217 486.224V530.082C101.172 531.804 107.242 536.044 111.252 541.982C114.132 538.797 117.977 536.645 122.198 535.854C130.055 534.417 137.425 538.106 141.911 545.766ZM133.459 442.237C133.467 442.744 133.374 443.248 133.186 443.719C132.998 444.19 132.717 444.619 132.362 444.98C132.006 445.342 131.582 445.629 131.114 445.825C130.646 446.021 130.144 446.122 129.636 446.122C129.129 446.122 128.627 446.021 128.159 445.825C127.691 445.629 127.267 445.342 126.911 444.98C126.556 444.619 126.275 444.19 126.087 443.719C125.899 443.248 125.806 442.744 125.814 442.237V419.659C125.806 419.152 125.899 418.648 126.087 418.177C126.275 417.706 126.556 417.277 126.911 416.916C127.267 416.554 127.691 416.267 128.159 416.071C128.627 415.875 129.129 415.774 129.636 415.774C130.144 415.774 130.646 415.875 131.114 416.071C131.582 416.267 132.006 416.554 132.362 416.916C132.717 417.277 132.998 417.706 133.186 418.177C133.374 418.648 133.467 419.152 133.459 419.659V442.237ZM133.459 455.981V521.614C133.467 522.121 133.374 522.625 133.186 523.096C132.998 523.567 132.717 523.996 132.362 524.357C132.006 524.719 131.582 525.006 131.114 525.202C130.646 525.398 130.144 525.499 129.636 525.499C129.129 525.499 128.627 525.398 128.159 525.202C127.691 525.006 127.267 524.719 126.911 524.357C126.556 523.996 126.275 523.567 126.087 523.096C125.899 522.625 125.806 522.121 125.814 521.614V455.981C125.806 455.474 125.899 454.97 126.087 454.499C126.275 454.028 126.556 453.6 126.911 453.238C127.267 452.877 127.691 452.589 128.159 452.393C128.627 452.197 129.129 452.096 129.636 452.096C130.144 452.096 130.646 452.197 131.114 452.393C131.582 452.589 132.006 452.877 132.362 453.238C132.717 453.6 132.998 454.028 133.186 454.499C133.374 454.97 133.467 455.474 133.459 455.981Z" fill="black"/>
</svg>
