<svg width="193" height="203" viewBox="0 0 193 203" fill="none" xmlns="http://www.w3.org/2000/svg">
<path d="M186.563 134.917C178.597 158.865 162.348 180.476 138.536 193.701C94.779 218.001 23.812 191.776 9.945 141.85C4.923 123.767 7.09201 104.206 13.465 86.5499C29.886 41.0679 83.248 -5.66211 133.365 12.9879C186.14 32.6319 202.1 88.2189 186.563 134.917Z" fill="url(#paint0_linear)"/>
<path d="M188.526 11.4149C185.274 -5.51011 163.051 -0.0050869 164.869 14.5859C166.807 30.1379 191.841 28.6809 188.526 11.4149Z" fill="url(#paint1_linear)"/>
<path d="M157.8 11.7999C158.449 8.29986 155.525 4.77987 151.1 6.78387C145.477 9.33087 148.63 19.5259 154.806 15.8609C155.57 15.4415 156.233 14.8611 156.75 14.1598C157.267 13.4586 157.625 12.6533 157.8 11.7999Z" fill="url(#paint2_linear)"/>
<path d="M10.572 183.865C13.007 183.931 15.645 183.865 17.572 182.373C26.719 175.285 13.6039 157.815 4.00095 166.055C-3.44305 172.443 1.04299 183.606 10.572 183.865Z" fill="url(#paint3_linear)"/>
<path d="M30.4519 189.91C33.5139 190.51 36.5129 194.51 33.2949 198.139C30.2949 201.524 25.5949 197.588 26.1379 193.723C26.5939 190.5 28.5349 189.536 30.4519 189.91Z" fill="url(#paint4_linear)"/>
<path d="M99.131 58.809C89.6819 58.809 80.4452 61.6109 72.5886 66.8605C64.732 72.1101 58.6086 79.5715 54.9926 88.3012C51.3767 97.0309 50.4305 106.637 52.274 115.904C54.1174 125.172 58.6675 133.685 65.349 140.366C72.0304 147.047 80.5431 151.598 89.8105 153.441C99.078 155.284 108.684 154.338 117.414 150.722C126.143 147.106 133.605 140.983 138.854 133.126C144.104 125.27 146.906 116.033 146.906 106.584C146.906 93.9133 141.872 81.7617 132.913 72.8022C123.953 63.8427 111.802 58.8092 99.131 58.809ZM121.108 127.844C120.915 128.185 120.653 128.482 120.34 128.717C120.026 128.953 119.667 129.12 119.286 129.21C118.904 129.3 118.508 129.309 118.123 129.239C117.737 129.168 117.371 129.018 117.046 128.799C105.819 121.872 91.725 120.439 75.004 124.261C74.6254 124.361 74.2307 124.386 73.8427 124.332C73.4547 124.279 73.0812 124.149 72.7439 123.95C72.4066 123.751 72.1123 123.486 71.878 123.172C71.6437 122.859 71.4742 122.501 71.3792 122.121C71.2842 121.741 71.2657 121.346 71.3247 120.959C71.3838 120.572 71.5193 120.2 71.7232 119.866C71.9272 119.532 72.1955 119.241 72.5127 119.011C72.8299 118.782 73.1897 118.617 73.571 118.528C91.725 114.467 107.491 116.139 119.912 123.783C120.27 123.957 120.589 124.204 120.846 124.508C121.103 124.812 121.295 125.167 121.407 125.549C121.52 125.931 121.551 126.333 121.5 126.728C121.448 127.123 121.315 127.503 121.108 127.844ZM126.84 114.705C125.646 116.378 123.496 117.095 121.824 115.905C108.924 108.022 89.337 105.633 74.288 110.411C73.3693 110.696 72.3749 110.605 71.5235 110.157C70.6722 109.709 70.0337 108.941 69.7484 108.022C69.4632 107.104 69.5546 106.109 70.0025 105.258C70.4505 104.407 71.2183 103.768 72.137 103.483C89.575 98.2279 111.074 100.855 125.885 109.933C126.268 110.177 126.598 110.497 126.855 110.872C127.112 111.247 127.29 111.67 127.379 112.115C127.469 112.561 127.467 113.02 127.374 113.465C127.281 113.91 127.1 114.332 126.84 114.705ZM127.317 101.328C112.03 92.2519 86.47 91.2959 71.899 95.8339C71.35 96.0065 70.7724 96.0692 70.1991 96.0186C69.6259 95.9679 69.0683 95.8048 68.5581 95.5386C68.0479 95.2725 67.5951 94.9084 67.2256 94.4672C66.856 94.0261 66.577 93.5165 66.4045 92.9675C66.2319 92.4185 66.1692 91.8408 66.2198 91.2676C66.2705 90.6943 66.4336 90.1367 66.6998 89.6265C66.966 89.1163 67.33 88.6635 67.7712 88.294C68.2124 87.9245 68.722 87.6455 69.271 87.473C86.231 82.457 114.18 83.4119 131.857 93.9229C132.888 94.5378 133.64 95.5302 133.952 96.6896C134.264 97.849 134.112 99.0844 133.529 100.134C132.789 101.018 131.767 101.619 130.635 101.836C129.504 102.054 128.332 101.874 127.317 101.328Z" fill="white"/>
<defs>
<linearGradient id="paint0_linear" x1="172.617" y1="16.932" x2="29.8442" y2="185.548" gradientUnits="userSpaceOnUse">
<stop offset="0.283" stop-color="#5FD258"/>
<stop offset="0.997" stop-color="#22C900"/>
</linearGradient>
<linearGradient id="paint1_linear" x1="187.601" y1="-3.60179" x2="151.29" y2="52.7768" gradientUnits="userSpaceOnUse">
<stop offset="0.283" stop-color="#5FD258"/>
<stop offset="0.997" stop-color="#22C900"/>
</linearGradient>
<linearGradient id="paint2_linear" x1="160.854" y1="-2.54439" x2="136.124" y2="34.9132" gradientUnits="userSpaceOnUse">
<stop offset="0.283" stop-color="#5FD258"/>
<stop offset="0.997" stop-color="#22C900"/>
</linearGradient>
<linearGradient id="paint3_linear" x1="25.2968" y1="152.899" x2="-0.0280165" y2="191.627" gradientUnits="userSpaceOnUse">
<stop offset="0.283" stop-color="#5FD258"/>
<stop offset="0.997" stop-color="#22C900"/>
</linearGradient>
<linearGradient id="paint4_linear" x1="35.6833" y1="184.607" x2="18.8888" y2="209.523" gradientUnits="userSpaceOnUse">
<stop offset="0.283" stop-color="#5FD258"/>
<stop offset="0.997" stop-color="#22C900"/>
</linearGradient>
</defs>
</svg>
