<svg width="173" height="132" viewBox="0 0 173 132" fill="none" xmlns="http://www.w3.org/2000/svg">
<path d="M155 63.2H129.289C126.459 63.2018 123.673 63.9044 121.181 65.245C118.689 66.5856 116.567 68.5226 115.006 70.883C113.734 68.9685 112.093 67.3271 110.179 66.055C112.539 64.4939 114.477 62.3724 115.817 59.8801C117.158 57.3877 117.861 54.602 117.862 51.772V17.492C117.858 12.9477 116.051 8.59058 112.838 5.37726C109.624 2.16393 105.267 0.356999 100.723 0.353027H72.157C67.6127 0.357264 63.2559 2.1643 60.0426 5.37756C56.8293 8.59083 55.0222 12.9478 55.0179 17.492V51.772C55.0196 54.602 55.7221 57.3877 57.0627 59.88C58.4034 62.3723 60.3406 64.4938 62.701 66.055C60.7868 67.3271 59.1457 68.9685 57.874 70.883C56.3126 68.5226 54.1909 66.5856 51.6984 65.2449C49.2059 63.9043 46.4201 63.2017 43.59 63.2H17.88C13.3357 63.204 8.97858 65.011 5.76526 68.2243C2.55193 71.4376 0.744939 75.7947 0.740967 80.339V114.619C0.745203 119.163 2.55236 123.52 5.76562 126.733C8.97889 129.947 13.3358 131.754 17.88 131.758H43.59C46.4202 131.756 49.206 131.053 51.6985 129.713C54.191 128.372 56.3126 126.435 57.874 124.074C59.4351 126.435 61.5565 128.372 64.0488 129.713C66.5412 131.054 69.3269 131.756 72.157 131.758H100.723C103.553 131.756 106.339 131.054 108.831 129.713C111.324 128.372 113.445 126.435 115.006 124.074C116.567 126.434 118.689 128.372 121.181 129.712C123.673 131.053 126.459 131.756 129.289 131.758H155C159.544 131.754 163.901 129.947 167.114 126.733C170.328 123.52 172.135 119.163 172.139 114.619V80.339C172.135 75.7947 170.328 71.4376 167.115 68.2243C163.901 65.011 159.544 63.204 155 63.2ZM60.729 51.772V17.492C60.7295 14.4615 61.9338 11.5554 64.0769 9.41284C66.22 7.27027 69.1265 6.06675 72.157 6.06702H100.723C103.753 6.06675 106.66 7.27027 108.803 9.41284C110.946 11.5554 112.15 14.4615 112.151 17.492V51.772C112.15 54.8027 110.946 57.7092 108.803 59.8522C106.66 61.9953 103.754 63.1995 100.723 63.2H72.157C69.1263 63.1995 66.2198 61.9953 64.0768 59.8522C61.9337 57.7092 60.7295 54.8027 60.729 51.772ZM43.59 126.044H17.88C14.8499 126.044 11.9439 124.84 9.80127 122.698C7.65867 120.555 6.45496 117.649 6.45496 114.619V80.339C6.45469 77.3085 7.65821 74.4021 9.80078 72.259C11.9434 70.1158 14.8495 68.9115 17.88 68.911H43.59C46.6207 68.9115 49.5272 70.1157 51.6703 72.2588C53.8133 74.4018 55.0174 77.3083 55.0179 80.339V114.619C55.0174 117.649 53.8132 120.556 51.67 122.698C49.5269 124.841 46.6204 126.044 43.59 126.044ZM100.723 126.044H72.157C69.1265 126.044 66.22 124.841 64.0769 122.698C61.9338 120.556 60.7295 117.649 60.729 114.619V80.339C60.7295 77.3083 61.9337 74.4018 64.0768 72.2588C66.2198 70.1157 69.1263 68.9115 72.157 68.911H100.723C103.754 68.9115 106.66 70.1157 108.803 72.2588C110.946 74.4018 112.15 77.3083 112.151 80.339V114.619C112.15 117.649 110.946 120.556 108.803 122.698C106.66 124.841 103.753 126.044 100.723 126.044ZM166.423 114.619C166.422 117.648 165.218 120.552 163.076 122.694C160.934 124.835 158.029 126.038 155 126.039H129.289C126.259 126.039 123.353 124.835 121.21 122.693C119.067 120.55 117.863 117.644 117.862 114.614V80.334C117.862 77.3033 119.066 74.3969 121.209 72.2538C123.352 70.1108 126.258 68.9065 129.289 68.906H155C158.03 68.9065 160.937 70.1108 163.079 72.254C165.222 74.3971 166.425 77.3035 166.425 80.334L166.423 114.619Z" fill="white"/>
<path d="M93.132 26.995C91.506 24.96 89.044 21.776 86.439 21.776C83.834 21.776 81.372 24.96 79.745 26.995L72.782 35.695C72.5475 35.9879 72.3731 36.3242 72.2686 36.6845C72.1641 37.0449 72.1314 37.4222 72.1728 37.7952C72.2141 38.1681 72.3284 38.5292 72.5093 38.8579C72.6902 39.1866 72.9342 39.4765 73.2271 39.711C73.52 39.9455 73.8561 40.12 74.2165 40.2245C74.5768 40.329 74.9543 40.3616 75.3272 40.3203C75.7001 40.2789 76.0612 40.1645 76.3899 39.9836C76.7186 39.8028 77.0086 39.5589 77.2431 39.266L84.2111 30.558C84.7691 29.91 85.583 28.536 86.439 28.536C87.295 28.536 88.109 29.91 88.667 30.558L95.635 39.266C95.8695 39.5589 96.1593 39.8028 96.4881 39.9836C96.8168 40.1645 97.1779 40.2789 97.5508 40.3203C97.9237 40.3616 98.3012 40.329 98.6615 40.2245C99.0219 40.12 99.3581 39.9455 99.651 39.711C99.9439 39.4765 100.188 39.1866 100.369 38.8579C100.55 38.5292 100.664 38.1681 100.705 37.7952C100.747 37.4222 100.714 37.0449 100.61 36.6845C100.505 36.3242 100.33 35.9879 100.096 35.695L93.132 26.995Z" fill="white"/>
<path d="M95.6351 93.409L88.6711 102.116C88.1111 102.764 87.2971 104.138 86.4411 104.138C85.5851 104.138 84.7701 102.764 84.2111 102.116L77.2431 93.409C76.7674 92.8256 76.0806 92.4535 75.3321 92.3738C74.5835 92.294 73.8338 92.513 73.2459 92.9831C72.658 93.4532 72.2794 94.1364 72.1926 94.8841C72.1057 95.6319 72.3175 96.3837 72.782 96.976L79.7491 105.687C81.3761 107.719 83.8381 110.902 86.4411 110.902C89.0441 110.902 91.506 107.719 93.132 105.687L100.096 96.979C100.561 96.3867 100.772 95.6349 100.686 94.8871C100.599 94.1394 100.22 93.4562 99.6322 92.9861C99.0443 92.516 98.2945 92.297 97.5459 92.3767C96.7974 92.4565 96.1107 92.8286 95.6351 93.412V93.409Z" fill="white"/>
<path d="M33.876 91.189C34.4823 90.7344 34.8832 90.0576 34.9905 89.3075C35.0977 88.5573 34.9026 87.7953 34.448 87.189C33.9934 86.5827 33.3166 86.1818 32.5664 86.0746C31.8163 85.9673 31.0543 86.1624 30.448 86.617L21.2791 93.583C19.1481 95.166 15.891 97.664 15.891 100.318C15.891 102.972 19.1481 105.472 21.2791 107.055L30.448 114.042C30.7481 114.267 31.0895 114.431 31.4529 114.524C31.8162 114.617 32.1945 114.638 32.5658 114.585C32.9371 114.532 33.2944 114.406 33.6172 114.215C33.94 114.024 34.2219 113.771 34.447 113.471C34.6721 113.171 34.8358 112.829 34.929 112.466C35.0221 112.103 35.0428 111.725 34.9897 111.353C34.9367 110.982 34.8111 110.625 34.62 110.302C34.4289 109.979 34.176 109.697 33.876 109.472L24.7371 102.515C24.0271 102.015 22.606 101.199 22.606 100.331C22.606 99.463 24.0271 98.648 24.7371 98.144L33.876 91.189Z" fill="white"/>
<path d="M151.609 93.593L142.429 86.617C141.822 86.1701 141.064 85.981 140.318 86.0909C139.573 86.2008 138.901 86.6008 138.449 87.2038C137.997 87.8068 137.801 88.5639 137.905 89.3103C138.009 90.0568 138.403 90.732 139.002 91.189L148.168 98.156C148.876 98.656 150.297 99.473 150.297 100.341C150.297 101.209 148.876 102.025 148.168 102.527L139 109.472C138.7 109.697 138.447 109.979 138.256 110.302C138.065 110.624 137.939 110.982 137.886 111.353C137.833 111.724 137.854 112.102 137.947 112.466C138.04 112.829 138.204 113.17 138.429 113.47C138.654 113.771 138.936 114.023 139.258 114.214C139.581 114.406 139.938 114.531 140.31 114.584C140.681 114.637 141.059 114.617 141.422 114.524C141.786 114.431 142.127 114.267 142.427 114.042L151.597 107.078C153.728 105.495 156.985 102.996 156.985 100.341C156.985 97.686 153.728 95.189 151.597 93.605L151.609 93.593Z" fill="white"/>
</svg>
