<svg width="77" height="167" viewBox="0 0 77 167" fill="none" xmlns="http://www.w3.org/2000/svg">
<path d="M75.786 61.037C75.786 70.482 76.727 80.0421 75.586 89.3481C73.386 107.266 57.586 120.54 39.563 120.916C21.271 121.298 5.16304 108.65 1.73704 90.9341C1.11863 87.0867 0.855203 83.1906 0.950049 79.295C0.866049 65.41 0.806045 51.523 0.958045 37.639C1.15804 19.304 14.977 3.48908 32.747 0.981076C51.697 -1.69292 69.263 9.23106 74.592 27.2811C75.6181 31.0431 76.1684 34.919 76.23 38.8181C76.481 46.2181 76.303 53.627 76.303 61.032L75.786 61.037ZM70.878 60.7781H70.8951C70.8951 52.3471 71.3681 43.883 70.8011 35.49C69.4391 15.351 49.629 1.61106 30.174 6.92706C15.69 10.8841 6.26705 23.3991 6.17405 38.9941C6.09805 51.4381 6.07404 63.8841 6.20804 76.3271C6.26004 81.2201 6.20006 86.2411 7.24106 90.9731C10.6001 106.242 25.4 116.9 40.8 115.661C56.962 114.361 69.8 101.961 70.786 86.061C71.306 77.667 70.878 69.2091 70.878 60.7781Z" fill="white"/>
<path d="M38.6112 160.923C45.7492 155.148 52.6902 149.532 59.6322 143.917C60.2712 143.4 60.8681 142.573 61.5761 142.459C62.7788 142.383 63.9863 142.441 65.1762 142.632C65.0542 143.909 65.3991 145.593 64.7141 146.381C63.0484 148.053 61.2418 149.578 59.3142 150.94C53.3232 155.787 47.2861 160.579 41.3601 165.505C39.4481 167.094 37.9362 167.213 35.9602 165.586C28.4312 159.375 20.8101 153.274 13.2121 147.145C11.7301 145.945 10.5121 144.591 12.0051 142.757C13.4981 140.923 15.0781 141.871 16.5441 143.057C23.8001 148.95 31.0762 154.826 38.6112 160.923Z" fill="white"/>
<path d="M43.7502 34.7211C43.7502 36.8791 43.8501 39.0441 43.7251 41.1941C43.7227 41.8654 43.5843 42.5292 43.3182 43.1455C43.0521 43.7617 42.6639 44.3177 42.1769 44.7797C41.69 45.2418 41.1145 45.6004 40.4852 45.8339C39.8558 46.0673 39.1857 46.1708 38.5152 46.1381C37.8692 46.1541 37.2265 46.0412 36.6246 45.8062C36.0227 45.5711 35.4736 45.2186 35.0094 44.7691C34.5452 44.3195 34.1751 43.7821 33.9208 43.1881C33.6665 42.594 33.533 41.9553 33.5282 41.3092C33.3762 36.9982 33.3762 32.6751 33.5122 28.3642C33.5476 27.0456 34.0924 25.7919 35.0324 24.8665C35.9724 23.9411 37.2343 23.416 38.5533 23.4012C39.8723 23.3864 41.1457 23.8833 42.1061 24.7874C43.0666 25.6916 43.6393 26.9327 43.7042 28.2501C43.8482 30.3981 43.7322 32.5641 43.7322 34.7211H43.7502Z" fill="white"/>
</svg>
