<svg width="1010" height="480" viewBox="0 0 1010 480" fill="none" xmlns="http://www.w3.org/2000/svg">
<path d="M3.8125 479.76L0.224609 479.038C0.237609 478.975 0.545609 477.453 1.22461 474.686L4.77759 475.558C4.11959 478.24 3.8155 479.745 3.8125 479.76Z" fill="#00217A"/>
<path d="M6.98364 467.281L3.46484 466.281C4.24284 463.556 5.09084 460.748 5.98584 457.937L9.47388 459.048C8.58888 461.816 7.75164 464.588 6.98364 467.281ZM12.1997 450.881L8.74585 449.673C9.69785 446.948 10.7018 444.197 11.7288 441.495L15.1497 442.795C14.1337 445.463 13.1417 448.181 12.1997 450.881ZM18.3147 434.796L14.9307 433.404C16.0307 430.731 17.1787 428.04 18.3467 425.404L21.6929 426.886C20.5379 429.488 19.3997 432.149 18.3147 434.792V434.796ZM25.2827 419.072L21.9827 417.498C23.2277 414.882 24.5238 412.258 25.8318 409.698L29.0908 411.363C27.7948 413.889 26.5147 416.481 25.2827 419.068V419.072ZM33.1086 403.772L29.8997 402.014C31.2927 399.471 32.7378 396.925 34.1938 394.447L37.3489 396.301C35.9119 398.74 34.4846 401.254 33.1086 403.764V403.772ZM41.8088 388.964L38.7087 387.012C40.2557 384.557 41.8556 382.105 43.4626 379.725L46.4958 381.773C44.9179 384.113 43.3397 386.532 41.8127 388.956L41.8088 388.964ZM51.4219 374.742L48.4587 372.594C50.1677 370.238 51.9277 367.894 53.6907 365.636L56.5767 367.886C54.8437 370.106 53.1088 372.413 51.4258 374.734L51.4219 374.742ZM61.9678 361.22L59.1677 358.867C61.0367 356.641 62.9607 354.432 64.8887 352.302L67.6018 354.758C65.7058 356.846 63.8117 359.02 61.9717 361.212L61.9678 361.22ZM73.4678 348.52L70.8518 345.961C72.8848 343.884 74.9759 341.83 77.0679 339.861L79.5776 342.524C77.5276 344.449 75.4719 346.467 73.4739 348.509L73.4678 348.52ZM85.9268 336.778L83.5269 334.014C85.7269 332.108 87.9788 330.236 90.2268 328.446L92.5037 331.313C90.2997 333.058 88.0899 334.897 85.9329 336.767L85.9268 336.778ZM99.3267 326.14L97.1787 323.177C99.5307 321.471 101.944 319.804 104.349 318.221L106.36 321.279C104 322.82 101.637 324.456 99.3289 326.129L99.3267 326.14ZM113.606 316.74L111.737 313.594C114.232 312.112 116.787 310.672 119.337 309.317L121.057 312.546C118.56 313.869 116.054 315.281 113.608 316.733L113.606 316.74ZM128.686 308.708L127.119 305.402C129.738 304.161 132.419 302.968 135.081 301.856L136.49 305.234C133.88 306.316 131.255 307.481 128.688 308.701L128.686 308.708ZM144.45 302.127L143.2 298.687C145.921 297.699 148.7 296.762 151.457 295.903L152.545 299.396C149.843 300.232 147.12 301.151 144.452 302.12L144.45 302.127ZM160.759 297.041L159.831 293.502C162.617 292.771 165.468 292.092 168.304 291.483L169.072 295.061C166.291 295.651 163.494 296.317 160.761 297.034L160.759 297.041ZM254.238 293.896C251.404 293.445 248.546 293.033 245.744 292.672L246.211 289.043C249.05 289.408 251.944 289.825 254.811 290.283L254.238 293.896ZM177.467 293.449L176.855 289.841C179.687 289.361 182.585 288.932 185.468 288.569L185.926 292.2C183.1 292.55 180.25 292.97 177.469 293.442L177.467 293.449ZM237.219 291.709C234.369 291.433 231.493 291.202 228.669 291.022L228.902 287.369C231.766 287.552 234.683 287.787 237.572 288.069L237.219 291.709ZM194.432 291.309L194.123 287.662C196.983 287.42 199.905 287.23 202.809 287.1L202.973 290.756C200.12 290.873 197.246 291.059 194.434 291.298L194.432 291.309ZM220.105 290.627C217.235 290.543 214.355 290.51 211.538 290.532L211.51 286.873C214.37 286.85 217.297 286.884 220.21 286.973L220.105 290.627Z" fill="#00217A"/>
<path d="M266.977 296.198C265.541 295.906 264.112 295.627 262.691 295.36L263.37 291.76C264.806 292.031 266.251 292.313 267.704 292.608L266.977 296.198Z" fill="#00217A"/>
<path d="M978.992 18.918C978.592 16.186 978.309 14.6771 978.306 14.6621L981.901 13.981C981.914 14.044 982.201 15.5709 982.613 18.3899L978.992 18.918Z" fill="#00217A"/>
<path d="M817.08 284.603L816.252 281.038C819.052 280.39 821.852 279.696 824.581 278.975L825.514 282.513C822.747 283.244 819.909 283.946 817.08 284.603ZM833.88 280.167L832.837 276.659C835.59 275.84 838.337 274.973 841.009 274.082L842.168 277.552C839.462 278.456 836.673 279.336 833.882 280.167H833.88ZM850.366 274.658L849.088 271.229C851.773 270.229 854.454 269.173 857.056 268.094L858.456 271.475C855.818 272.57 853.095 273.642 850.368 274.658H850.366ZM866.428 267.992L864.9 264.667C867.5 263.473 870.088 262.219 872.6 260.941L874.258 264.203C871.706 265.504 869.07 266.781 866.43 267.992H866.428ZM881.939 260.101L880.149 256.909C882.634 255.515 885.113 254.055 887.516 252.569L889.441 255.681C887 257.195 884.471 258.681 881.941 260.101H881.939ZM896.747 250.94L894.688 247.915C897.04 246.315 899.381 244.644 901.645 242.95L903.838 245.88C901.531 247.607 899.145 249.31 896.749 250.94H896.747ZM910.692 240.503L908.369 237.676C910.569 235.876 912.743 233.995 914.842 232.098L917.295 234.814C915.156 236.749 912.934 238.663 910.694 240.503H910.692ZM923.625 228.822L921.048 226.222C923.063 224.222 925.056 222.15 926.971 220.063L929.671 222.537C927.716 224.669 925.683 226.781 923.627 228.822H923.625ZM935.407 215.98L932.598 213.636C934.409 211.466 936.198 209.216 937.919 206.947L940.835 209.158C939.082 211.472 937.256 213.767 935.409 215.981L935.407 215.98ZM945.94 202.093L942.925 200.019C944.532 197.684 946.109 195.278 947.613 192.866L950.713 194.802C949.187 197.261 947.58 199.714 945.942 202.093H945.94ZM955.165 187.308L951.977 185.508C953.365 183.048 954.725 180.508 956.019 177.966L959.281 179.625C957.965 182.218 956.58 184.802 955.167 187.308H955.165ZM963.065 171.779L959.737 170.257C960.909 167.694 962.055 165.05 963.137 162.399L966.524 163.785C965.426 166.481 964.262 169.172 963.069 171.781L963.065 171.779ZM969.665 155.662L966.227 154.409C967.199 151.741 968.135 149.009 969.01 146.302L972.493 147.427C971.613 150.181 970.661 152.952 969.674 155.662H969.665ZM975.017 139.095L971.496 138.095C972.267 135.377 973.006 132.587 973.696 129.803L977.25 130.679C976.558 133.505 975.808 136.336 975.026 139.095H975.017ZM979.186 122.195L975.606 121.437C976.191 118.673 976.743 115.837 977.246 113.011L980.846 113.652C980.348 116.52 979.788 119.394 979.2 122.197L979.186 122.195ZM982.241 105.065L978.62 104.534C979.031 101.734 979.407 98.8711 979.738 96.0171L983.373 96.439C983.046 99.33 982.666 102.233 982.25 105.067L982.241 105.065ZM984.251 87.7849L980.606 87.468C980.851 84.644 981.061 81.76 981.229 78.895L984.883 79.1101C984.721 82.0111 984.509 84.9291 984.26 87.7871L984.251 87.7849ZM985.275 70.4209L981.617 70.3069C981.706 67.4429 981.757 64.55 981.77 61.707L985.429 61.7229C985.426 64.6009 985.374 67.5261 985.284 70.4231L985.275 70.4209ZM981.692 53.1211C981.628 50.2731 981.524 47.3851 981.384 44.5381L985.039 44.3569C985.181 47.2379 985.286 50.157 985.35 53.04L981.692 53.1211ZM980.841 35.967C980.617 33.073 980.351 30.1979 980.052 27.4199L983.69 27.0281C983.99 29.8421 984.263 32.7541 984.49 35.6851L980.841 35.967Z" fill="#00217A"/>
<path d="M804.157 287.307L803.482 283.707C804.924 283.436 806.353 283.158 807.769 282.872L808.492 286.46C807.06 286.751 805.615 287.034 804.157 287.307Z" fill="#00217A"/>
<path d="M962.795 47.24L959.795 45.145C960.123 44.675 960.846 42.945 962.427 37.386L965.946 38.386C964.468 43.581 963.555 46.15 962.795 47.24ZM1006.09 36.885C1004.69 34.977 1002.87 32.5409 1000.84 29.8379L1003.76 27.6379C1005.81 30.3529 1007.62 32.7991 1009.04 34.7141L1006.09 36.885ZM968.277 29.8701L964.743 28.9199L964.943 28.177C965.625 25.637 966.332 23.0061 967.043 20.4121L970.571 21.386C969.856 23.972 969.152 26.594 968.471 29.126L968.277 29.8701ZM995.508 22.855C993.58 20.362 991.756 18.0421 990.085 15.9551L992.94 13.666C994.625 15.766 996.462 18.104 998.403 20.613L995.508 22.855ZM973 12.981L969.5 11.9109C970.611 8.27589 971.573 5.49912 972.441 3.42212L975.818 4.83105C975 6.79105 974.076 9.45696 973 12.981ZM984.516 9.22192C982.684 7.02203 980.728 4.92913 978.657 2.95312L981.118 0.243896C983.301 2.32175 985.363 4.52338 987.294 6.83789L984.516 9.22192Z" fill="#00217A"/>
</svg>
