<svg id="Capa_1" data-name="Capa 1" xmlns="http://www.w3.org/2000/svg" xmlns:xlink="http://www.w3.org/1999/xlink" viewBox="0 0 510 534"><defs><style>.cls-1{fill:none;}.cls-2{fill:#00217a;}.cls-3{isolation:isolate;}.cls-4{clip-path:url(#clip-path);}.cls-5{clip-path:url(#clip-path-2);}.cls-6{fill:#020100;}.cls-7{fill:#bbbdbf;}</style><clipPath id="clip-path"><rect class="cls-1" x="9" y="27.78" width="496" height="492"/></clipPath><clipPath id="clip-path-2"><rect class="cls-1" x="9.22" y="28.08" width="495.17" height="491.4"/></clipPath></defs><title>Persona sube flecha</title><path class="cls-2" d="M213.2,119.73l25,20.14,8.43,5.17,7.32-2.42-.06-7.28-1.41-3.23,5.17-8.23,19.24,22.63,7.53,18-4,38.7-.79,41.42-3.57,31.63s-10.81-4.27-26.46-3.89-48.25,15.05-48.25,15.05a10,10,0,0,1-2.18-9.86c1.89-5.86,9.49-19.17,8.78-25.53A68.86,68.86,0,0,0,202.41,232c-2.71-5.64-7.72-10.29-5.73-15.91s2.85-5.48,5.73-10.15,11.39-17.42,13-24.75,1.48-33.41,1.18-41.6-3.44-19.83-3.44-19.83"/><g class="cls-3"><g class="cls-4"><g class="cls-5"><path class="cls-6" d="M497.18,405.92c9.63-1.13,7.35,11.56,5.85,17.12-2.26,8.4-6.3,16.47-10.2,24.21a70.37,70.37,0,0,1-8,12.88,63.93,63.93,0,0,1-11.1,10.26c.48.35.94.76,1.41,1.06.86.56,1.86,1,2.68,1.57a.64.64,0,0,1,0,1,21.75,21.75,0,0,1-2.59,4.57q-1.47,2.34-3,4.68c-1.9,3-3.72,6.16-6.29,8.67a.78.78,0,0,1-1.27-.28c-2.37-.72-4.76-2.94-6.77-4.32-2.3-1.58-4.58-3.21-6.81-4.91a69.79,69.79,0,0,1-9.95-8.59h0c-.14-.16-3.35-3.4-3.35-3.4-6-5.19-73.18-64-94.08-99.79l-.53-.8c-6.29-.41-16.71-2.09-33.93-6.62-9.22-2.43-18.32-4.62-25.21-6.27-8.94-2.13-17.91-4.21-27-6.27.13-.27.2-.43.21-.46a.73.73,0,0,0,.07-.29c9.19,2.1,18.29,4.2,27.35,6.37,6.89,1.64,16,3.84,25.22,6.26,17.69,4.66,28.19,6.31,34.43,6.65a.81.81,0,0,0,0,.77c19.59,33.58,79.89,87.35,92.27,98.22a1,1,0,0,0,.22.28.72.72,0,0,0,.27.15l.37.32.48-.5,1.29,1.12a1,1,0,0,1,.13.16c.52.59,2.24,2.46,2.24,2.46,5.54-.36,9.95-4.93,11.35-10.12,1.3-4.77.24-9.35-1.93-13.58l.59-1.38a18,18,0,0,1,2.62,16.63,15.68,15.68,0,0,1-5.06,7.22,11.28,11.28,0,0,1-6.07,2.73c.77.78,1.54,1.55,2.36,2.28,2.12,1.91,4.33,3.71,6.6,5.43s4.73,3.44,7.15,5.08c1.84,1.25,4.33,2.39,5.87,4.06a59.26,59.26,0,0,0,6.21-8.7c1-1.56,2-3.12,3-4.66a23,23,0,0,1,2.33-3.37,14.27,14.27,0,0,1-3.94-2.75c-.81.33-1.73-1-1-1.57a79.28,79.28,0,0,0,10.27-9.1,57.08,57.08,0,0,0,7.09-10.32,165.34,165.34,0,0,0,10.44-22.42,48.72,48.72,0,0,0,3-12.1c.18-1.9.31-4.08-.63-5.81-1.3-2.39-4.21-2.45-6.48-1.58-4.22,1.61-7.68,5.2-10.67,8.47-2.81,3.07-5.44,6.29-8.39,9.22A73.59,73.59,0,0,1,465.07,435l-1.86,1.2a.55.55,0,0,1,.14.16q1.41,2.55,3,5c.48.74-.7,1.42-1.18.69a42.69,42.69,0,0,1-2.81-5.09.61.61,0,0,1-.05-.18c-.92.55-1.85,1.08-2.8,1.55a17.23,17.23,0,0,1,1.45,2.44,6.5,6.5,0,0,1,1.29,2.86.43.43,0,0,1-.64.37,6.75,6.75,0,0,1-1.73-2.6,17.85,17.85,0,0,1-1.36-2.6,18.71,18.71,0,0,1-4.48,1.43c.15-.54.27-1,.37-1.54,4.27-1.3,8.15-3.84,11.75-6.41a70.9,70.9,0,0,0,11.13-9.85c3.28-3.56,6.24-7.42,9.83-10.7,2.75-2.53,6.26-5.42,10.11-5.87"/><path class="cls-6" d="M455.12,432.64a26.06,26.06,0,0,1-.76,6.11l-.56.17a25.33,25.33,0,0,0,.66-5.62.77.77,0,0,0-.08-.34l0-.05a.88.88,0,0,0-.39-1.18l-.64-.32c.77.35,1.16.48,1.17.49h0l.08,0,.06,0,.07.05.06,0,.06.05,0,.06a.43.43,0,0,1,0,.07l0,.06,0,.08a.14.14,0,0,1,0,.07s0,0,0,.07,0,.06,0,.09Z"/><path class="cls-6" d="M454,431.73a.88.88,0,0,1,.39,1.18l0,0a.81.81,0,0,0-1.51.16c-1.19-.59-5-2.53-7.85-4.36-3.4-2.17-11.41-9.94-11.75-10.27l-.07-.08c-.24-.3-24.79-30.55-29.38-36.26s-21.58-30-25.06-35.41c-3.38-5.25-12.16-9.65-12.24-9.69-2.31-1.1-56.59-26.86-57.75-27.47-.49-.26-5.49-2-10.33-3.78-7.42-2.65-15.83-5.65-18.37-6.77-4.31-1.88-4.65-5.69-4.9-8.47,0-.39-.07-.76-.11-1.12a84.45,84.45,0,0,1,.4-11.07l.42.22v.17a.88.88,0,0,0,.9.86.59.59,0,0,0,.19,0,.36.36,0,0,0,.17-.07,71.17,71.17,0,0,0-.33,9.7c0,.37.08.77.12,1.18.23,2.6.49,5.54,3.84,7,.73.32,2,.81,3.6,1.41,3.29,1.44,7.43,2.85,11.46,4.17l3.2,1.15c6.4,2.28,10,3.59,10.57,3.87.89.48,38.12,18.16,57.69,27.44.38.19,9.3,4.67,12.95,10.33.32.5.76,1.17,1.31,2,0,0,0,0,0,0,.26.41.51.84.77,1.28,1.56,2.67,5.57,8.36,10.83,15.46l.11.15c4.9,6.95,9.76,13.68,11.94,16.38,4.51,5.62,28.3,34.94,29.34,36.22.6.58,8.29,8,11.43,10,1.66,1.06,3.68,2.18,5.29,3,.27.16.54.29.79.43s.35.19.51.26l.82.42.64.32"/><path class="cls-6" d="M454.46,433.3a25.33,25.33,0,0,1-.66,5.62l-1,.25a.55.55,0,0,0-.43.42l-.4-.12a28.44,28.44,0,0,0,.85-6v-.1a.91.91,0,0,1,0-.23l.37.19a.86.86,0,0,0,1.14-.35.77.77,0,0,1,.08.34"/><path class="cls-6" d="M453.8,438.92l.56-.17c-.1.49-.22,1-.37,1.54l-.51.08c.12-.51.23-1,.32-1.45"/><path class="cls-6" d="M454.38,433a.86.86,0,0,1-1.14.35l-.37-.19a.81.81,0,0,1,1.51-.16"/><path class="cls-6" d="M452.82,439.17l1-.25c-.09.46-.2.94-.32,1.45l-.5.07a.62.62,0,0,1-.59-.85.55.55,0,0,1,.43-.42"/><path class="cls-6" d="M453.48,440.37l.51-.08a50.22,50.22,0,0,1-2.31,6.85l-.27-.32a50.33,50.33,0,0,0,2.07-6.45"/><path class="cls-6" d="M453,440.44l.5-.07a50.33,50.33,0,0,1-2.07,6.45l-.28-.33c-.4-.45-1.1.14-.82.63s.39.67.57,1A79.37,79.37,0,0,1,438,468.41l0,0-1.22-1.07,0,0c10-11.79,13.77-21.84,15.2-27.9l.4.12a.62.62,0,0,0,.59.85"/><path class="cls-6" d="M452.87,433.12a.91.91,0,0,0,0,.23v.1a28.44,28.44,0,0,1-.85,6c-1.43,6.06-5.2,16.11-15.2,27.9l0,0c-13-11.41-72.19-64.33-91.57-97.43,4.19.1,6.08-.46,6.92-1a1.72,1.72,0,0,0,.6-.52.81.81,0,0,0-1.3-1c-.3.26-5.2,3.76-41.72-5.84-9.25-2.44-18.35-4.64-25.26-6.28-9.16-2.19-18.36-4.32-27.66-6.44l-17.45-4q-4.65-1-9.32-2.07c-3.69-.82-7.51-1.66-11.25-2.52-2.44-.55-4.87-1.11-7.31-1.68l-4.18-1c-3.32-.77-5.78-1.65-7.68-3.43a10.21,10.21,0,0,0-2.21-2.93s0,0,0,0c-3.76-6.89-3.68-15.93-3.47-19.51A54.9,54.9,0,0,1,200,290.29a12.17,12.17,0,0,0,1-2.63c23.87-13.68,43-15.4,54.83-14.42,10.67.88,17.52,4,19.6,5.13a84.45,84.45,0,0,0-.4,11.07c0,.36.08.73.11,1.12.25,2.78.59,6.59,4.9,8.47,2.54,1.12,11,4.12,18.37,6.77,4.84,1.74,9.84,3.52,10.33,3.78,1.16.61,55.44,26.37,57.75,27.47.08,0,8.86,4.44,12.24,9.69s20.4,29.6,25.06,35.41,29.14,36,29.38,36.26l.07.08c.34.33,8.35,8.1,11.75,10.27,2.87,1.83,6.66,3.77,7.85,4.36"/><path class="cls-6" d="M452.05,430.73l.51.26c-.16-.07-.33-.16-.51-.26"/><path class="cls-6" d="M451.41,446.82l.27.32-.59,1.38-.21-.39.53-1.31"/><path class="cls-6" d="M451.13,446.49l.28.33-.53,1.31c-.18-.34-.37-.67-.57-1s.42-1.08.82-.63"/><path class="cls-6" d="M451.26,430.3c-1.61-.84-3.63-2-5.29-3-3.14-2-10.83-9.44-11.43-10-1-1.28-24.83-30.6-29.34-36.22-2.18-2.7-7-9.43-11.94-16.38,14.89,20.09,39.59,51.31,46.7,57.41a75.17,75.17,0,0,0,11.3,8.23"/><path class="cls-6" d="M450.88,448.13l.21.39a80.81,80.81,0,0,1-12.4,19.24l0,0-.64.68,0,0,0-.05a79.37,79.37,0,0,0,12.85-20.28"/><path class="cls-6" d="M438,468.46l0,0-.48.5-.37-.32a.8.8,0,0,0,.66-.07.52.52,0,0,0,.17-.13"/><path class="cls-6" d="M438,468.46a.52.52,0,0,1-.17.13.8.8,0,0,1-.66.07l-.49-.43a.87.87,0,0,1,.1-.84l1.22,1.07"/><path class="cls-6" d="M436.67,468.23l.49.43a.72.72,0,0,1-.27-.15,1,1,0,0,1-.22-.28"/><path class="cls-6" d="M436.77,467.39a.87.87,0,0,0-.1.84C424.29,457.36,364,403.59,344.4,370a.81.81,0,0,1,0-.77c-6.24-.34-16.74-2-34.43-6.65-9.23-2.42-18.33-4.62-25.22-6.26-9.06-2.17-18.16-4.27-27.35-6.37a.78.78,0,0,0-.47-.78l-.17-.05,0-.16c9.3,2.12,18.5,4.25,27.66,6.44,6.91,1.64,16,3.84,25.26,6.28,36.52,9.6,41.42,6.1,41.72,5.84a.81.81,0,0,1,1.3,1,1.72,1.72,0,0,1-.6.52c-.84.49-2.73,1-6.92,1,19.38,33.1,78.57,86,91.57,97.43"/><path class="cls-6" d="M381.55,347.77c2.49,3.71,7.06,10.3,11.6,16.74-5.26-7.1-9.27-12.79-10.83-15.46-.26-.44-.51-.87-.77-1.28"/><path class="cls-6" d="M381.55,347.76c-.55-.8-1-1.47-1.31-2-3.65-5.66-12.57-10.14-12.95-10.33-19.57-9.28-56.8-27-57.69-27.44-.53-.28-4.17-1.59-10.57-3.87l-3.2-1.15,1.84.61c4.64,1.52,9,3,12.25,4.39,9.21,4.1,51.41,23.89,56.78,27,1.06.62,2.06,1.12,3,1.6,3.84,1.92,7.19,3.58,11.82,11.12"/><path class="cls-6" d="M344.91,59.5c1.79,6.52,4.93,13.38,3.29,20.24-1.43,6-5.46,11-9.61,15.33a117.77,117.77,0,0,1-17.83,15.15,260.06,260.06,0,0,1-22.92,14l-1-1.26c13.2-7.36,26.47-15.16,37.49-25.62,4.68-4.44,9.52-9.51,11.77-15.68,2.55-6.94-.29-13.54-2.16-20.28s-3.48-13.41-4.87-20.2c-4.25,4.23-10.34,6.7-15.92,8.63-3.9,1.36-9.8,2.15-12.92-1.28l-.37,0s-.19.13,0,.42l0,0a44.57,44.57,0,0,1,3.66,7.47c1,2.36,2.16,4.89,2.34,7.47.2,2.79-.5,5.77-.85,8.53-.32,2.51-.22,5.64-1.28,8a.46.46,0,0,1-.84-.11,9.79,9.79,0,0,1-.12-2,19.22,19.22,0,0,1-3.87,3.45c-1.67,1.34-3.39,2.61-5.14,3.83A88.57,88.57,0,0,1,292,92.42a57.58,57.58,0,0,1-10.87,4.26c-1.27.31-4.18.94-6.06.44a10.27,10.27,0,0,0,.25-1.69,17,17,0,0,0,8.48-1.2,81.49,81.49,0,0,0,10.54-4.72A96.84,96.84,0,0,0,304,83.67q2.25-1.55,4.39-3.2c1.4-1.08,2.73-2.63,4.43-3.21l.09,0c.18-1.62.55-3.27.74-4.76a60.26,60.26,0,0,0,.89-7.9c0-2.64-1.28-5.35-2.23-7.76-1.06-2.67-2.4-5.21-3.45-7.87,0,0,0-.08,0-.11s-.7-1.33.91-1.5h.12l.73-.07h.07c.65-.07,1.29-.16,1.92-.24l.24.47a4.76,4.76,0,0,1,1.65-.27l-.19-.36-.05-.09,1.55-.33a36.74,36.74,0,0,0,12.53-5l0,0,.13-.09,0,0,.93-.65.08-.07c1.71-1.31,2.65-2.48,2.79-3.13.26-1.15-1.1-1.76-1.94-2a9.28,9.28,0,0,0-2.53-.31c-.44,0-2.06.1-1.89-.71a.46.46,0,0,1,.23-.3,2,2,0,0,1,.72-.24,7.75,7.75,0,0,1,3.8.17c1.5.51,3.19,1.94,2.8,3.69a1.54,1.54,0,0,1-.05.17l.36,1a1,1,0,0,0-.26.44.33.33,0,0,0,.24.41,1.63,1.63,0,0,0,.31,0c.35,1.06.69,2.12,1.05,3.17a26.16,26.16,0,0,0,3.41-2.62l0,0a7.26,7.26,0,0,0,.59-.57l.21.17a.34.34,0,0,0,.58-.21.79.79,0,0,1,.08.23c1.47,6.57,3.06,13.11,4.85,19.6m-10.67-16a.62.62,0,0,1-.17-.26A35.88,35.88,0,0,1,332.8,39a18.48,18.48,0,0,1-5.32,4.33,41.61,41.61,0,0,1-15.21,5,9.88,9.88,0,0,0,4.34,1.3A19.23,19.23,0,0,0,324.22,48a60.83,60.83,0,0,0,10-4.51"/><path class="cls-6" d="M340,39.54a.28.28,0,0,1,0,.13,5.26,5.26,0,0,0-.3-.55,4.51,4.51,0,0,1-.49.59,4,4,0,0,0-3-.6c-.69.11-1.39.64-2.07.66-.09-.29-.19-.58-.29-.88.64-.73,2.27-.91,3.09-.92,1.08,0,2.82.3,3.07,1.57"/><path class="cls-6" d="M339.68,39.12a5.26,5.26,0,0,1,.3.55.34.34,0,0,1-.58.21l-.21-.17a4.51,4.51,0,0,0,.49-.59"/><path class="cls-6" d="M334.07,43.25a.62.62,0,0,0,.17.26,60.83,60.83,0,0,1-10,4.51,19.23,19.23,0,0,1-7.61,1.56,9.89,9.89,0,0,1-4.34-1.3,41.61,41.61,0,0,0,15.21-5A18.48,18.48,0,0,0,332.8,39a35.88,35.88,0,0,0,1.27,4.25"/><path class="cls-6" d="M334.11,39.77a1.63,1.63,0,0,1-.31,0,.33.33,0,0,1-.24-.41,1,1,0,0,1,.26-.44c.1.3.2.59.29.88"/><path class="cls-6" d="M332.62,234.12c.87,11.84-.38,13.87-1.86,14.31-2.64.78-21.36,2-28.48-.48a3.73,3.73,0,0,0-2.93,1.27l-.06,0c-.13.12-14.63,11.52-20.88,13.42.05-.63.1-1.26.15-1.91,5.58-2.12,18.47-11.85,19.55-12.81l.05,0a5.38,5.38,0,0,1,4.43-1.71l.18,0c6.43,2.28,25.08,1.2,27.49.49.15-.09,1.49-1.21.55-13.22-.86-10.93-3.36-28.14-7.44-51.16-.56-3.16-1.27-6.27-2.1-9.3-11.17-18.28-26.2-32.12-44.68-41.12a99.62,99.62,0,0,0-17.38-6.57l-.77-.75a.88.88,0,0,0-.14-1.23,1,1,0,0,0-.22-.13,99.7,99.7,0,0,1,19.28,7.09A109,109,0,0,1,319.41,167c-5.43-16.2-14.18-30.29-22.72-41.38l.68-.52c-.08-.2-.16-.4-.25-.59a.79.79,0,0,0,.43-.11l.29-.16c9.74,12.58,19.79,29.08,25.06,48.15l.07.12a.84.84,0,0,1,.12.57c.79,3,1.47,6,2,9,4.19,23.6,6.72,41.12,7.52,52.07"/><path class="cls-6" d="M322.79,30.66a2.94,2.94,0,0,1,.18,2.88A4.6,4.6,0,0,1,321.39,35a4.25,4.25,0,0,1-1.22.5,1.82,1.82,0,0,1-1.43-.2.56.56,0,0,1-.18-.62.43.43,0,0,1,.45-.28,3.8,3.8,0,0,0,2.64-1c.84-.77.55-1.64.11-2.62a2.41,2.41,0,0,1-.08-2.53.4.4,0,0,1,.49-.13.36.36,0,0,1,.19.43,3.32,3.32,0,0,0,.43,2.11"/><path class="cls-6" d="M314.28,46.85l.19.36a4.76,4.76,0,0,0-1.65.27l-.24-.47.25,0s.63-.08,1.32-.2h.08l.05.09"/><path class="cls-6" d="M314.23,46.76h-.08c-.69.12-1.32.2-1.32.2l-.25,0-.88-1.72c-.13-.25-.29-.53-.45-.82a9.43,9.43,0,0,1-1.55-4.24.44.44,0,0,1-.21.3h0c-.59.31-1.14-.11-1.58-.45l-.27-.2a9.8,9.8,0,0,1-.92-.67,14.21,14.21,0,0,1-1.59-1c-.32-.21-.63-.41-.93-.59-1.4-.82-2.84-1.61-4.29-2.34-.51-.25-1.08-.49-1.69-.75-2-.84-4.24-1.79-5.17-3.62a.36.36,0,0,1,.08-.46.39.39,0,0,1,.49,0A26.53,26.53,0,0,0,299,33.57c.8.37,1.62.76,2.43,1.18,1.28.66,2.56,1.37,3.81,2.11l.5.29a12.66,12.66,0,0,1,1.54,1l.68.44.39.25.33.19c.42.22.94.5,1,1a2.66,2.66,0,0,1,.77-1.8.55.55,0,0,1,.93.54c-.62,2,.77,4.38,2,6.47.3.52.59,1,.83,1.48"/><path class="cls-6" d="M297.84,124.2l-.29.16a.79.79,0,0,1-.43.11c.09.19.17.39.25.59l-.85-1.87a.86.86,0,0,1,.23-.19l.11-.06,1,1.26"/><path class="cls-6" d="M296.52,123.19l.85,1.87-.68.52a175.8,175.8,0,0,0-23.43-25,7.23,7.23,0,0,0,1.06-1.41,176.78,176.78,0,0,1,22.54,23.8l-.11.06a.86.86,0,0,0-.23.19"/><path class="cls-6" d="M284.37,298.83c3.06,1.15,7.34,2.7,11.46,4.17-4-1.32-8.17-2.73-11.46-4.17"/><path class="cls-6" d="M259.21,125.37c6.8,6.74,25.52,26.6,25.33,41-.23,16.37-1.48,28.85-2.59,39.87-.93,9.16-1.8,17.81-1.91,27.13-.12,10.46-.83,19.4-1.47,27.29,0,0,0,.07,0,.1a6.17,6.17,0,0,1-1.51.41,1,1,0,0,0-.29.08l.06-.73c.63-7.86,1.34-16.77,1.46-27.17.11-9.4,1-18.09,1.92-27.29,1.1-11,2.36-23.43,2.58-39.72.19-14-19.34-34.32-25.4-40.29.28-.41.53-.76.71-1l1.12.3"/><path class="cls-6" d="M284.37,298.83c-1.6-.6-2.87-1.09-3.6-1.41-3.35-1.47-3.61-4.41-3.84-7,0-.41-.08-.81-.12-1.18a71.17,71.17,0,0,1,.33-9.7.83.83,0,0,0,.27-.19l.22-1.92v.12c-.74,5.64-1.48,14.76.89,17.67,1,1.21,3.12,2.43,5.85,3.62"/><path class="cls-6" d="M280.71,75.63A3.69,3.69,0,0,1,279,79.56a5.53,5.53,0,0,1-2.93,1,1.55,1.55,0,0,0,0,.21,77.92,77.92,0,0,0-.67,12.12,21.74,21.74,0,0,1,0,2.55c-.23,0-.45-.07-.68-.12,0,.56-.07,1.12-.13,1.67l.25.08a.37.37,0,0,0,.18,0H275s0,0,0,0l.07,0a7.25,7.25,0,0,1-.79,2l-.47-.4-.19-.16-.09-.08a.88.88,0,0,0-1.23.17l-.12-.1c1.9-2.44,1.25-5.76,1.41-8.78.06-1.17.15-2.35.29-3.52l.12-1c.06-.49.14-1,.23-1.46,0,0,0,0,0-.08.21-1.31.4-3.84.43-4.18v0h0a1,1,0,0,1,.14-.43c.67-1.21,2.35-.71,3.19-1.72,1.5-1.82-2-4.33-3-5.56a26.76,26.76,0,0,1-2.91-4.29,2.12,2.12,0,0,1-.14-.22,1,1,0,0,0-.07-.15s0-.08-.07-.13h0a2,2,0,0,1-.21-.6.86.86,0,0,1,0-.39.82.82,0,0,1,.1-.24.89.89,0,0,1,.95-.67,1.24,1.24,0,0,1,1,.8l0,0a25.19,25.19,0,0,0,3.5,5c1.29,1.43,3.06,2.74,3.46,4.74"/><path d="M278.56,260.78c0,.65-.1,1.28-.15,1.91-.18.06-.35.1-.51.14a6.71,6.71,0,0,1-.7.11.83.83,0,0,1-.56-.15l.12-1.52a1,1,0,0,1,.29-.08,6.17,6.17,0,0,0,1.51-.41"/><path class="cls-6" d="M277.9,262.83c.16,0,.33-.08.51-.14-.31,3.94-.58,7.56-.7,10.86v-.18l-1.15-1a6.87,6.87,0,0,0-.54-.54c.13-2.8.36-5.81.62-9a.83.83,0,0,0,.56.15,6.71,6.71,0,0,0,.7-.11"/><path class="cls-6" d="M277.71,273.37v.18a2.43,2.43,0,0,0,0,.27c0,1.24-.07,2.45-.07,3.6l-.22,1.92a.83.83,0,0,1-.27.19c.07-1,.16-2.17.26-3.34,0-.14,0-.22,0-.23a.88.88,0,0,0-1.54-.62c0-1.13.07-2.3.14-3.51a6.88,6.88,0,0,1,.54.54Z"/><path class="cls-6" d="M277.7,273.82l-.07,3.6c0-1.15,0-2.36.07-3.6"/><path class="cls-6" d="M276.59,275a.87.87,0,0,1,.83.92s0,.09,0,.23c-.1,1.17-.19,2.29-.26,3.34a.36.36,0,0,1-.17.07.58.58,0,0,1-.19,0,.88.88,0,0,1-.9-.86v-.17l.26.15a.6.6,0,0,0,.62,0,.53.53,0,0,0,.22-.2.62.62,0,0,0-.2-.84c-.06,0-.37-.22-.92-.5,0-.61,0-1.23,0-1.86a.87.87,0,0,1,.71-.3"/><path class="cls-6" d="M276.78,277.7a.62.62,0,0,1,.2.84.53.53,0,0,1-.22.2.6.6,0,0,1-.62,0l-.26-.15c0-.45,0-.92,0-1.39.55.28.86.47.92.5"/><path class="cls-6" d="M276,271.83c-.07,1.21-.11,2.38-.14,3.51a.94.94,0,0,0-.22.52V276c0,.32-.05.66-.09,1-2.6-1.31-9.28-4.15-19.52-5-11.85-1-30.85.65-54.5,13.94l.41-.52c23.77-13.4,42.86-15.07,54.75-14.08a62.77,62.77,0,0,1,11.55,2c0-.85,0-1.7,0-2.56a6.35,6.35,0,0,1,0-1.57q-.32-.12-.63-.21a45,45,0,0,0-9-2,69.26,69.26,0,0,0-18.58.6,115.34,115.34,0,0,0-39.72,14,6.21,6.21,0,0,0-.8-1.08,114.76,114.76,0,0,1,42.39-14.56,66.92,66.92,0,0,1,18.75,0,42.45,42.45,0,0,1,9.07,2.41,20,20,0,0,1,6.28,3.37"/><path class="cls-6" d="M275.88,275.34c0,.63,0,1.25,0,1.86l-.3-.15c0-.35.06-.69.09-1v-.18a.94.94,0,0,1,.22-.52"/><path class="cls-6" d="M275.86,277.2c0,.47,0,.94,0,1.39l-.42-.22c0-.46.07-.9.1-1.32l.3.15"/><path class="cls-6" d="M275.56,277c0,.42-.06.86-.1,1.32-2.08-1.1-8.93-4.25-19.6-5.13-11.86-1-31,.74-54.83,14.42a8.72,8.72,0,0,0,.24-1.33l.27-.35C225.19,272.69,244.19,271,256,272c10.24.86,16.92,3.7,19.52,5"/><path class="cls-6" d="M274.68,95.31c.23,0,.45.09.68.12a10.27,10.27,0,0,1-.25,1.69l-.07,0v0H275a.37.37,0,0,1-.18,0l-.25-.08c.06-.55.1-1.11.13-1.67"/><path class="cls-6" d="M273.85,98.74l.47.4a7.23,7.23,0,0,1-1.06,1.41l-.55-.47c-.24-.21-.88-.75-.37-1.41a.88.88,0,0,1,1.23-.17l.09.08.19.16"/><path class="cls-6" d="M273.07,57a1.09,1.09,0,0,1,.46,1c-.26,1.57-1.28,3.14-1.82,4.66a17,17,0,0,1-.94,2.88c0,.12-.05.24-.08.36a7.51,7.51,0,0,1-.93,2.36.75.75,0,0,1-1.34-.3c-.32-1.81.28-3.67.67-5.45.1-.44.19-.88.28-1.33a52.77,52.77,0,0,1-7.54.51l-8.46.46c-1.44.08-2.89.19-4.34.3a.44.44,0,0,1,.08.31c-.27,3.7-1.35,7.51-.74,11.25.09.56-.69,1-1.07.53a.57.57,0,0,1-.48,0,.5.5,0,0,1-.21-.2c-1.19-1.78-2.14-3.72-3.29-5.54-.57-.91-1.33-1.83-2-2.78a.45.45,0,0,1-.58.1c-1.49-1.13-3.82-2.31-5.76-1.75-3.15.91-1.57,5.06-.58,7a24.52,24.52,0,0,0,3.71,5.32c.86.92,2.55,2.31,3.91,1.36.81-.56,1-2.07,1.21-3a1,1,0,0,1,1.62-.45.93.93,0,0,1,.4.63A4.64,4.64,0,0,1,239,80.56c-3.52-1.2-6.23-6.11-7.6-9.33q-.18-.42-.33-.87a.56.56,0,0,1-.39.15h-.12V69.3l.25.09c-.61-2.75-.11-5.86,2.88-7a5.93,5.93,0,0,1,2.67-.27,1.07,1.07,0,0,1,.85-1.29,94.54,94.54,0,0,1,11-.86l.93,0c1.54-.06,3.09-.11,4.61-.2,2.68-.16,5.37-.3,8.05-.45s5.39-.55,8-.19h.08a13.82,13.82,0,0,1,.46-1.42.84.84,0,0,1,.4-.89,1.13,1.13,0,0,1,.34-.1,2.53,2.53,0,0,1,2,.33"/><path class="cls-6" d="M273.26,100.55c-.08.09-.17.17-.25.25-2.22,2.16-5.27,3-8.27,3.3-1.53.16-3.07.24-4.61.39l.33-.48a.88.88,0,0,0-.22-1.23.85.85,0,0,0-.5-.16l0-.42a43.24,43.24,0,0,0,7-.58,10.27,10.27,0,0,0,4.72-2.23,5.91,5.91,0,0,0,.77-.82l.12.1c-.51.66.13,1.2.37,1.41l.55.47"/><path class="cls-6" d="M269.89,55.75l-.08,0a1,1,0,0,1,.06.52.91.91,0,0,1-.25.53.61.61,0,0,1-.15.13.91.91,0,0,1-.65.12.85.85,0,0,1-.45-.16,2.14,2.14,0,0,1-.55-.75,1.47,1.47,0,0,1-.19-.58c-.3-.91-.62-1.82-1-2.72a21.78,21.78,0,0,0-6.84-9l0,0a5.35,5.35,0,0,0-1,1.18c-.72,1.23-.93,2.68-1.76,3.86a8.07,8.07,0,0,1-2.85,2.5,9.19,9.19,0,0,1-2.92.94,13,13,0,0,0-1.47,4,17.74,17.74,0,0,1-.5,3.42.51.51,0,0,1-.16.24l-.93,0a.63.63,0,0,1-.22-.39,10.7,10.7,0,0,1,.57-4.36,9.24,9.24,0,0,1,1.26-2.89,3.45,3.45,0,0,1-2.36-1.14.56.56,0,0,1,.32-.89c2.06-.43,3.9.12,5.86-1.07s2.29-3.31,3.51-5.24c.94-1.5,2.44-2.13,3.88-3a3.43,3.43,0,0,0,1.85-3.68,7,7,0,0,0-.88-1.8c-4-3.23-8.27-6.6-13.61-3.95a8.8,8.8,0,0,1-5.94.88,32.12,32.12,0,0,0-8.48.15c-5.22.54-10.66.78-15.55,2.89a18.33,18.33,0,0,0-9.72,10,.78.78,0,0,1-.17.26.64.64,0,0,1-.61.61c-4.95.61-5.54,5.93-5.58,10A32.33,32.33,0,0,0,205,69.06c.59,1.41,1.24,2.8,1.93,4.16,2.82,5.54,6.33,10.72,9.22,16.23a3.18,3.18,0,0,0,.29.53h.08l-.67.52c-.61,0-.79.5-1,1.18,0,0,0,0,0,0a1.58,1.58,0,0,1-.15-.19c-2.7-4.09-5.1-8.44-7.54-12.69a61.56,61.56,0,0,1-6-13,29.21,29.21,0,0,1-.68-14.35c.68-3.15,3.09-7,6.7-6.81.57-4.64,4.41-8.17,8.38-10.34,5.28-2.87,11.46-3.4,17.35-3.83,2.9-.21,5.89-.68,8.8-.24,1.78.26,3.28.72,5,0A20.57,20.57,0,0,1,250,28.89c5.19-1.14,10.57,2.18,13.49,6.28a6.19,6.19,0,0,1,.74,2.38h0a4.64,4.64,0,0,1,0,1.87c-.41,1.63-1.67,2.47-2.92,3.32,4.8,2.89,6.9,7.86,8.65,13"/><path class="cls-7" d="M262.87,37.29A3.43,3.43,0,0,1,261,41c-1.44.91-2.94,1.54-3.88,3-1.22,1.93-1.4,4-3.51,5.24s-3.8.64-5.86,1.07a.56.56,0,0,0-.32.89,3.45,3.45,0,0,0,2.36,1.14,9.24,9.24,0,0,0-1.26,2.89A10.7,10.7,0,0,0,248,59.6a.63.63,0,0,0,.22.39,94.54,94.54,0,0,0-11,.86,1.07,1.07,0,0,0-.85,1.29,5.93,5.93,0,0,0-2.67.27c-3,1.12-3.49,4.23-2.88,7l-.25-.09c-1.46-.46-2.91.51-3.73,1.82-1.18,1.89-1.08,4.18-.75,6.29.56,3.49,1,6.4-1.87,9a12.45,12.45,0,0,1-1.25,1l-.45.31A14.36,14.36,0,0,1,216.39,90c-2.94-5.7-6.59-11-9.51-16.76-.69-1.36-1.34-2.75-1.93-4.16a32.33,32.33,0,0,1-2.62-12.75c0-4.1.63-9.42,5.58-10a.64.64,0,0,0,.61-.61.78.78,0,0,0,.17-.26,18.33,18.33,0,0,1,9.72-9.95c4.89-2.11,10.33-2.35,15.55-2.89a32.12,32.12,0,0,1,8.48-.15,8.8,8.8,0,0,0,5.94-.88c5.34-2.65,9.63.72,13.61,4a7,7,0,0,1,.88,1.8"/><path class="cls-6" d="M260.24,102.78a.88.88,0,0,1,.22,1.23l-.33.48-1,.1c-.43,0-.87.11-1.3.19.38-.6.78-1.19,1.19-1.78a.88.88,0,0,1,.73-.38.85.85,0,0,1,.5.16"/><path class="cls-6" d="M259.12,104.59l1-.1a103.81,103.81,0,0,0-5.8,10,26.78,26.78,0,0,0-2.83,7.47c-.56-.08-.87-.11-.89-.11a.88.88,0,0,0-1,.8h0a26.73,26.73,0,0,1,3.15-9c1.68-3.17,3.25-6.07,5-8.84.43-.08.87-.14,1.3-.19"/><path class="cls-6" d="M259.72,102.2l0,.42a.88.88,0,0,0-.73.38c-.41.59-.81,1.18-1.19,1.78-.54.08-1.09.18-1.63.29a5.78,5.78,0,0,1-2.77.1,5,5,0,0,1-2.33-1.76A35.84,35.84,0,0,1,245.86,96a1.52,1.52,0,0,1-.14-1,.71.71,0,0,1,.76-.54.87.87,0,0,1,.4.23,7.33,7.33,0,0,1,1,1.71c.41.73.8,1.47,1.22,2.18a9.63,9.63,0,0,0,3.17,3.59,4.66,4.66,0,0,0,3.37.51,23.62,23.62,0,0,1,3.65-.44l.4,0"/><path d="M259.21,125.37l-1.12-.3.34-.44a0,0,0,0,1,0,0l.77.75"/><path class="cls-6" d="M258.3,123.39a.88.88,0,0,1,.14,1.23l-1.26-1.22a.86.86,0,0,1,.66-.2l.24.06a1,1,0,0,1,.22.13"/><path class="cls-6" d="M258.44,124.62a0,0,0,0,0,0,0l-.34.44-1.85-.45c.45-.64.77-1,.82-1.1a.68.68,0,0,1,.12-.12l1.26,1.22"/><path d="M256.24,124.62l1.85.45c-.18.24-.43.59-.71,1l-1.28-1.26.14-.19"/><path class="cls-6" d="M258.08,123.26l-.24-.06.24.06"/><path class="cls-6" d="M257.84,123.2a.86.86,0,0,0-.66.2l-.37-.34a.88.88,0,0,0-.29-.18l1.32.32"/><path class="cls-6" d="M256.91,349.18a.78.78,0,0,1,.47.78l-1.55-.35s0,0,0,0a.79.79,0,0,1,.9-.45l.17.05"/><path class="cls-6" d="M257.38,350a.73.73,0,0,1-.07.29s-.08.19-.21.46l-1.61-.37.34-.73,1.55.35"/><path class="cls-6" d="M257.18,123.4a.68.68,0,0,0-.12.12c-.05.06-.37.46-.82,1.1l-.45-.1-.18-.17a.88.88,0,0,1,.73-1.51.58.58,0,0,1,.18,0,.88.88,0,0,1,.29.18l.37.34"/><path class="cls-6" d="M256.78,349l0,.16a.79.79,0,0,0-.9.45s0,0,0,0l-16.2-3.67c-3.1-.7-6.2-1.38-9.3-2.07-3.7-.81-7.52-1.66-11.27-2.51l-7.31-1.69-4.18-1a19.37,19.37,0,0,1-7.35-2.92,13.88,13.88,0,0,0-.63-1.43c1.9,1.78,4.36,2.66,7.68,3.43l4.18,1c2.44.57,4.87,1.13,7.31,1.68,3.74.86,7.56,1.7,11.25,2.52q4.66,1,9.32,2.07l17.45,4"/><path class="cls-6" d="M256.34,122.84a.88.88,0,0,0-.73,1.51l.18.17c-2.11-.47-3.67-.73-4.54-.86.06-.6.14-1.18.25-1.75.94.14,2.6.42,4.84.93"/><path class="cls-6" d="M255.79,124.52l.45.1-.14.19-.31-.29"/><path class="cls-6" d="M256.1,124.81l1.28,1.26c-1.43,2.1-3.77,6.08-3.45,9.28a.75.75,0,0,0-.1-.32,26.17,26.17,0,0,1-1.32-2.91h0a24.67,24.67,0,0,1,3.59-7.3"/><path class="cls-6" d="M255.49,350.34l1.61.37c-2.73,6-31.79,69.58-48.67,88.54-3.85,4.63-6.84,7.39-9.75,9.09-4.15,2.42-8.13,2.66-14.21,3l-1.85.11c-11.32.73-93.66,13.69-104,16.34l0,0a.81.81,0,0,0,.29-1.11q-.15-.26-.3-.54c12.3-2.92,92.72-15.56,103.91-16.28l1.85-.12c4.85-.3,8.24-.5,11.43-1.82l.47-.19c3.39-1.46,6.59-4.19,11.12-9.64,16.4-18.41,44.51-79.54,48.23-87.71l-.14,0a0,0,0,0,0,0,0"/><path class="cls-6" d="M255.48,350.37l.14,0c-3.72,8.17-31.83,69.3-48.23,87.71-4.53,5.45-7.73,8.18-11.12,9.64,3.32-1.48,6.48-4.22,10.93-9.56,16.47-18.5,44.77-80.11,48.28-87.82"/><path class="cls-6" d="M255.83,349.61l-.34.73q-8.2-1.87-16.52-3.74-4.65-1.05-9.3-2.07c-3.7-.82-7.52-1.66-11.27-2.52-2.44-.55-4.88-1.12-7.31-1.68l-4.18-1a22.13,22.13,0,0,1-6.25-2.2,13.78,13.78,0,0,0-.44-1.37,19.37,19.37,0,0,0,7.35,2.92l4.18,1,7.31,1.69c3.75.85,7.57,1.7,11.27,2.51,3.1.69,6.2,1.37,9.3,2.07l16.2,3.67"/><path class="cls-6" d="M254.56,141.72a.87.87,0,0,1-.57.91l-6.58,2.47-.11,0a.87.87,0,0,1-.63-.09l-6.61-3.72a.82.82,0,0,0,.61.08.66.66,0,0,0,.26-.11.35.35,0,0,0,.12-.09.3.3,0,0,0,.08-.08l0,0a.05.05,0,0,0,0,0,.8.8,0,0,0,.13-.24c.08-.23.15-.46.23-.69l5.65,3.17,5.56-2.09-.55-5.53h0a.88.88,0,0,0,.93.62h.12a.89.89,0,0,0,.67-1Z"/><path class="cls-6" d="M253.93,135.35a.89.89,0,0,1-.67,1h-.12a.88.88,0,0,1-.93-.62l0-.17a9.7,9.7,0,0,1,.33-3.4,26.19,26.19,0,0,0,1.32,2.91.75.75,0,0,1,.1.32"/><path class="cls-6" d="M252.51,132.11h0a9.7,9.7,0,0,0-.33,3.4l0,.17h0a24.15,24.15,0,0,1-2.34-6.49.57.57,0,0,0,.17-.72c-.08-.17-.12-.28-.36-.31a18.93,18.93,0,0,1,0-5.57h0a.88.88,0,0,0,.79,1l.8.1a18.67,18.67,0,0,0,1.26,8.45"/><path class="cls-6" d="M251.5,121.91c-.11.57-.19,1.15-.25,1.75l-.8-.1a.88.88,0,0,1,.16-1.76s.33,0,.89.11"/><path class="cls-6" d="M250,128.48a.57.57,0,0,1-.17.72c-.08-.35-.14-.69-.19-1,.24,0,.28.14.36.31"/><path class="cls-6" d="M249.85,129.2a.18.18,0,0,1-.07.05l-.05,0a.74.74,0,0,1-.28.06c-.53.07-3.83.83-6,1.35,0-.42,0-.83,0-1.24,4.37-1,5.76-1.35,6.28-1.28.05.34.11.68.19,1"/><path class="cls-6" d="M238.83,346.6l16.65,3.77c-3.51,7.71-31.81,69.32-48.28,87.82-4.45,5.34-7.61,8.08-10.93,9.56l-.47.19c-3.14,1.25-6.5,1.45-11.24,1.74l-1.85.11c-11.25.73-92.59,13.53-104.12,16.34-3.81-7.38-5-25.38-4.81-27.6,7-.9,29.29-4.15,51.17-11.64,24.92-8.51,41.43-12.53,53.9-13h0c1.35-.06,2.66-.06,3.92,0h.15a.71.71,0,0,0,.43-.11.8.8,0,0,0,.4-.68.82.82,0,0,0-.79-.83h-.14q-1.5,0-3.09,0c1.29-10.21,13.48-44,18.78-58.63l.84-2.31c2.26-6.26,2.16-10.85,1.32-14a22,22,0,0,0,6.07,2.11l4.18,1c2.44.56,4.87,1.13,7.31,1.68,3.75.86,7.57,1.7,11.27,2.52,3.1.68,6.21,1.37,9.31,2.07"/><path class="cls-6" d="M243.38,129.45c0,.41,0,.82,0,1.24l-.29.07a.61.61,0,0,1-.73-.45.6.6,0,0,1,.45-.73l.53-.13"/><path class="cls-6" d="M243.13,130.76l.29-.07a32.26,32.26,0,0,1-1.89,9.45l-.56-.31c-.32-.27-.64-.53-1-.77,1.61-5,2.63-9.95.2-14.58a18.61,18.61,0,0,0-4-4.91,64.35,64.35,0,0,0-12.18-8.49c-1.16-.66-2.28-1.33-3.36-2a67.58,67.58,0,0,0-8.48-4.56,1.08,1.08,0,0,1,.09-.3.88.88,0,0,0,.49-.82.85.85,0,0,0-.43-.72h0a65.82,65.82,0,0,1,9.23,4.9c1.07.64,2.18,1.31,3.33,2a66,66,0,0,1,12.51,8.74,20.24,20.24,0,0,1,4.31,5.38,14,14,0,0,1,1.6,5.78l-.53.13a.6.6,0,0,0-.45.73.61.61,0,0,0,.73.45"/><path class="cls-6" d="M241,139.83l.56.31c-.08.23-.15.46-.23.69a.89.89,0,0,0-.28-1l0,0"/><path class="cls-6" d="M241,139.87a.89.89,0,0,1,.28,1,.8.8,0,0,1-.13.24l0,.06a.3.3,0,0,1-.08.08l-.12.09a.66.66,0,0,1-.26.11.82.82,0,0,1-.61-.08.37.37,0,0,1-.12-.07l0,0h0l0,0a0,0,0,0,1,0,0l-.09-.11-.07-.11a.73.73,0,0,1-.07-.24,0,0,0,0,1,0,0,.53.53,0,0,1,0-.13.76.76,0,0,1,0-.21.58.58,0,0,1,.08-.22.88.88,0,0,1,1.2-.33l.07,0,0,0"/><path class="cls-6" d="M241.17,141.07a.05.05,0,0,1,0,0l0,0,0-.06"/><path class="cls-6" d="M240.93,141.3l.12-.09a.35.35,0,0,1-.12.09"/><path class="cls-6" d="M241,139.83l-.07,0a.88.88,0,0,0-1.2.33.58.58,0,0,0-.08.22.13.13,0,0,1,0-.06c.13-.41.27-.81.39-1.22.31.24.63.5,1,.77"/><path class="cls-6" d="M240.83,72c.22,1.2-.76,2.58-2.1,2.07a1.52,1.52,0,0,1-.4-2.56,1.28,1.28,0,0,1,.69-.24c-.06-.13-.11-.26-.17-.38a10,10,0,0,0-1.3-2c-.53-.67.4-1.39,1-.83a7.72,7.72,0,0,1,2.29,4"/><path d="M239.91,141.24l0,0,0,0"/><path class="cls-6" d="M239.85,141.18l.05,0-.06,0Z"/><path d="M239.84,141.17a0,0,0,0,0,0,0h0Z"/><path class="cls-6" d="M239.84,141.17h0c-8.64-7.07-21.11-17.22-25.28-20.45-.16-.83-.32-1.66-.49-2.5.89.56,4.89,3.57,26,20.83-.12.41-.26.81-.39,1.22a.13.13,0,0,0,0,.06.76.76,0,0,0,0,.21.53.53,0,0,0,0,.13,0,0,0,0,0,0,0,.73.73,0,0,0,.07.24l.07.11.09.11"/><path d="M239.68,140.95l.07.11-.07-.11"/><path class="cls-6" d="M239.62,140.34a.76.76,0,0,0,0,.21.76.76,0,0,1,0-.21"/><path class="cls-6" d="M239.6,140.68a0,0,0,0,0,0,0,0,0,0,0,1,0,0"/><path class="cls-6" d="M230.6,69.3v1.21c-4.09,0-2.38,6.62-2,8.76a9.32,9.32,0,0,1-1.14,6.87c-2,3.09-6.41,6-10.34,5.9h0l-.6,0,.07-.16a.79.79,0,0,0,.13-.39.88.88,0,0,0-.79-1h-.11l.67-.52a11.07,11.07,0,0,0,1.27-.2,14.41,14.41,0,0,0,4.81-2.08,4,4,0,0,0,.45-.31,12.45,12.45,0,0,0,1.25-1c2.82-2.59,2.43-5.5,1.87-9-.33-2.11-.43-4.4.75-6.29.82-1.31,2.27-2.28,3.73-1.82"/><path class="cls-6" d="M222.55,87.71l.45-.31a4,4,0,0,1-.45.31"/><path class="cls-6" d="M216.39,90a14.36,14.36,0,0,0,6.16-2.27,14.41,14.41,0,0,1-4.81,2.08,11.07,11.07,0,0,1-1.27.2h-.08"/><path class="cls-6" d="M215.91,90.51a.88.88,0,0,1,.79,1,.79.79,0,0,1-.13.39l-.07.16-1,0a1,1,0,0,1-.77-.25s0,0,0,0c.26-.68.44-1.18,1-1.18Z"/><path class="cls-6" d="M215.5,92l1,0c-.13.36-.4,1.13-.67,1.87-.91,2.54-2.38,6.63-3.43,8.8l-.12,0h0a1,1,0,0,0-.32-.06h0a.73.73,0,0,0-.22,0,.63.63,0,0,0-.18.06.88.88,0,0,0-.4-.41.9.9,0,0,0-.42-.1c1-1.94,2.54-6.24,3.48-8.87.23-.63.43-1.17.56-1.56a1,1,0,0,0,.77.25"/><path class="cls-6" d="M216.39,90a3.18,3.18,0,0,1-.29-.53c-2.89-5.51-6.4-10.69-9.22-16.23,2.92,5.72,6.57,11.06,9.51,16.76"/><path class="cls-6" d="M214.56,120.73a199.34,199.34,0,0,1,3.82,36.33c0,14.33-2.33,25.79-7,33.93l0,0c-3,5.2-5.52,9.32-7.57,12.63-7,11.29-8.43,13.64-4.73,21.39.44.92.88,1.83,1.33,2.75,4.7,9.67,10,20.62,6.39,33.4l-.34,1.2c-1.57,5.59-3.48,12.34-6.93,18.23-.1-.11-.16-.16-.18-.18a.81.81,0,1,0-1.09,1.2,3.43,3.43,0,0,1,.38.44c-3.6,5.54-8.72,10.13-16.49,11.94a36,36,0,0,1-11.21.7c-25.5-2-34-2.08-34.13-2.08h-.16a0,0,0,0,0,0,0l-.1,0-.07,0-.07,0-.08,0-.05,0-.08-.07,0,0-.07-.08,0-.06a.56.56,0,0,0,0-.08s0-.05,0-.07l0-.1v0a.5.5,0,0,1,0-.12h0s0,0,0-.07a.28.28,0,0,1,0-.09v0c3.31-17.57,14.79-28.16,23.17-35.89,3.73-3.43,6.67-6.15,7.74-8.46,3.45-7.49,8.36-38.43,9.36-55.19.93-15.45-8.85-16.7-9.27-16.75a.8.8,0,0,1-.22-.06,7.45,7.45,0,0,1-.58.73c-5.54,6.21-14.71,10.68-15.48,11L57.52,242.46a.79.79,0,0,1-.25.11,1,1,0,0,1-.6-.08l-1.47,1.29a.77.77,0,0,1-.31.16.71.71,0,0,1-.66-.19L51,240.47l.11-.06-.76-.71-.08,0-11-11.2.31-.32-.53-.72h0c-.15.11-.3.23-.45.33l-.54-.55a.69.69,0,0,1,0-1l2-2-1.51-1.66a.87.87,0,0,1-.22-.68.88.88,0,0,1,.35-.63l87.52-64.11.06,0c8.07-4.9,29.4-21.11,29.62-21.28a.74.74,0,0,1,.34-.15c1.33-1.13,1.51-1.49,3-4.38.89-1.73,2.24-4.34,4.54-8.49,5.52-9.92,18.21-10.32,27.48-10.61,2.46-.08,4.78-.15,6.6-.4,7.65-1,10.38-5.73,10.71-6.34.74-1.62,1.29-2.7,1.37-2.84a.9.9,0,0,1,.76-.48c-.05.11-.11.22-.16.31a.88.88,0,0,0,.34,1.2.67.67,0,0,0,.26.09.89.89,0,0,0,.48.51c.21.09.42.17.63.27-.2.76-.39,3.06,1,9.38.31,1.45.6,2.89.88,4.31a.77.77,0,0,0-.27-.14.88.88,0,0,0-1.08.62.89.89,0,0,0,.5,1c.18.11.65.45,1.34,1m-3.2,66.49c7-15.17,7-40.26.11-72.93a40.52,40.52,0,0,1-1.13-8.46c-1.73,3.7-4.81,10.86-5.14,15.35l3.72,3.82a.89.89,0,0,1,0,1.22l-6.52,7a229.92,229.92,0,0,1,8.94,54m-4.28-61.59-3.41-3.5a.89.89,0,0,1-.25-.65c.12-3.12,1.55-7.44,3-11.16a17.74,17.74,0,0,1-8.37,3.25c-1.91.26-4.28.33-6.79.41-8.84.28-21,.66-26,9.7-2.29,4.13-3.63,6.73-4.52,8.44-1.72,3.35-1.87,3.62-4.08,5.46a.87.87,0,0,1-.36.18h-.08c-3.71,2.81-21.71,16.38-29.07,20.85L40.51,222.13l16.73,18.45,92.56-55.11.08,0c.09,0,9.53-4.56,15-10.64s9-32.65,9-32.92a.88.88,0,1,1,1.74.23c-.14,1-3.09,22.69-7.9,31.55,2.38.53,11.16,3.54,10.26,18.49-.51,8.55-2,20.38-3.75,31.11a45.14,45.14,0,0,1,20.51-21.36c9.24-4.91,14-10.42,15-11.6-1.21-32.91-9.07-56.76-9.15-57a.92.92,0,0,1,.19-.88Zm-2,135.08c3.44-12.14-1.5-22.31-6.28-32.15-.45-.92-.9-1.84-1.34-2.76-4.11-8.62-2.22-11.68,4.82-23.08,1.17-1.89,2.5-4,4-6.51a59.93,59.93,0,0,1-10.73,7.24c-12,6.35-19.34,15.94-23.23,30.16-1.31,6.47-2.67,11.72-3.88,14.35s-4.27,5.46-8.14,9c-8,7.41-19,17.51-22.43,33.91,3,.07,12.57.41,33.19,2.06,24.38,2,29.76-17.11,33.69-31ZM55.68,241.48,41,225.3l-1.44,1.48,15.2,15.5Z"/><path class="cls-6" d="M214.07,118.23c.17.84.33,1.67.49,2.5-.69-.53-1.16-.87-1.34-1a.89.89,0,0,1-.5-1,.88.88,0,0,1,1.08-.62.76.76,0,0,1,.27.14"/><path class="cls-6" d="M212.82,103.42a.88.88,0,0,1-.49.82,1.08,1.08,0,0,0-.09.3l-.63-.27a.89.89,0,0,1-.48-.51.77.77,0,0,0,.37,0,.9.9,0,0,0,.57-.43c.1-.18.21-.4.32-.63a.85.85,0,0,1,.43.72"/><path class="cls-6" d="M212.28,102.64l.12.05h0a.3.3,0,0,0-.11-.06"/><path class="cls-6" d="M212.28,102.64a.3.3,0,0,1,.11.06c-.11.23-.22.45-.32.63a.9.9,0,0,1-.57.43.77.77,0,0,1-.37,0,.79.79,0,0,1,0-.64.85.85,0,0,1,.57-.51.92.92,0,0,1,.23,0h0a.72.72,0,0,1,.33.07"/><path class="cls-6" d="M212.27,102.63h0a.72.72,0,0,0-.33-.07,1,1,0,0,1,.32.06"/><path class="cls-6" d="M211.92,102.57a.93.93,0,0,0-.23,0,.73.73,0,0,1,.22,0Z"/><path class="cls-6" d="M211.51,102.67a.64.64,0,0,1,.18-.06.85.85,0,0,0-.57.51.79.79,0,0,0,0,.64.67.67,0,0,1-.26-.09.88.88,0,0,1-.34-1.2c0-.09.11-.2.16-.31a.9.9,0,0,1,.42.1.88.88,0,0,1,.4.41"/><path class="cls-6" d="M201.54,286l-.27.35a1.5,1.5,0,0,0,0-.2c.08-.06.17-.1.25-.15"/><path class="cls-6" d="M200.33,281.71a7.43,7.43,0,0,1,1,4.42c-.4.21-.79.44-1.19.67h0a.61.61,0,0,0-.22.82.58.58,0,0,0,.22.22l-.84,1.07a56.75,56.75,0,0,0-6.31,22.24c-.22,3.67-.29,12.83,3.49,20a.81.81,0,0,0-.43,1.1c-4-7.26-3.94-16.74-3.72-20.48a56.67,56.67,0,0,1,6.31-22.25c2-4,.76-6.53,0-7.48a.05.05,0,0,0,0,0,.61.61,0,0,0,.82.15c.28-.17.57-.33.85-.48"/><path class="cls-6" d="M201.29,286.13a1.5,1.5,0,0,1,0,.2l-1.18,1.51a.58.58,0,0,1-.22-.22.61.61,0,0,1,.22-.82h0c.4-.23.79-.46,1.19-.67"/><path class="cls-6" d="M200.09,287.84l1.18-1.51a8.72,8.72,0,0,1-.24,1.33l-.33.19a.6.6,0,0,1-.61,0"/><path class="cls-6" d="M200.7,287.85l.33-.19a12.17,12.17,0,0,1-1,2.63,54.9,54.9,0,0,0-6.14,21.62c-.21,3.58-.29,12.62,3.47,19.51l-.15-.12a.81.81,0,0,0-.79-.11c-3.78-7.21-3.71-16.37-3.49-20a56.75,56.75,0,0,1,6.31-22.24l.84-1.07a.6.6,0,0,0,.61,0"/><path class="cls-6" d="M200.69,337.25c.84,3.18.94,7.77-1.32,14l-.84,2.31c-5.3,14.67-17.49,48.42-18.78,58.63h-.15c1.27-10.19,13.48-44,18.79-58.64l.83-2.31c2.28-6.33,2.16-10.94,1.29-14.13l.18.1"/><path class="cls-6" d="M200.66,337.16l0,.09-.18-.1c.87,3.19,1,7.8-1.29,14.13l-.83,2.31c-5.31,14.68-17.52,48.45-18.79,58.64l-1.48.06c1.14-10.17,13.53-44.42,18.89-59.25l.83-2.31a26.81,26.81,0,0,0,1.78-9,14.24,14.24,0,0,0-1.36-6.37,12.47,12.47,0,0,0,2.4,1.84"/><path class="cls-6" d="M200.22,335.79a13.81,13.81,0,0,1,.44,1.37,12.47,12.47,0,0,1-2.4-1.84h0a8.06,8.06,0,0,0-2-2.73.83.83,0,0,1-.21-.25s0,0,0,0a.81.81,0,0,1,.43-1.1c.07.16.16.33.25.49a12.51,12.51,0,0,0,3.54,4.11"/><path class="cls-6" d="M200.33,281.71c-.28.15-.57.31-.85.48a.61.61,0,0,1-.82-.15q.45-.69.87-1.41a6.21,6.21,0,0,1,.8,1.08"/><path class="cls-6" d="M199.59,334.36a13.88,13.88,0,0,1,.63,1.43,12.51,12.51,0,0,1-3.54-4.11c-.09-.16-.18-.33-.25-.49a.81.81,0,0,1,.79.11l.15.12s0,0,0,0l.06.12a11,11,0,0,0,2.15,2.81"/><path class="cls-6" d="M199.53,280.62s0,0,0,0l-.72.41a.64.64,0,0,0-.15,1,.05.05,0,0,1,0,0,3.44,3.44,0,0,0-.38-.44.81.81,0,1,1,1.09-1.2l.18.18"/><path class="cls-6" d="M199.53,280.63q-.42.72-.87,1.41a.64.64,0,0,1,.15-1l.72-.41"/><path class="cls-6" d="M199.59,334.36a11,11,0,0,1-2.15-2.81l-.06-.12a10.21,10.21,0,0,1,2.21,2.93"/><path class="cls-6" d="M198.25,335.31a13.32,13.32,0,0,1-2.23-3,.82.82,0,0,0,.21.25,8.06,8.06,0,0,1,2,2.73"/><path class="cls-6" d="M183,412.22a.82.82,0,0,1,.79.83.8.8,0,0,1-.4.68.71.71,0,0,1-.43.11h-.09a.67.67,0,0,0,.37-.11.77.77,0,0,0,.4-.68.8.8,0,0,0-.78-.83Z"/><path class="cls-6" d="M182.84,412.22a.8.8,0,0,1,.78.83.77.77,0,0,1-.4.68.67.67,0,0,1-.37.11h-.06c-1.26,0-2.57,0-3.92,0a.74.74,0,0,0,.39-.11.79.79,0,0,0,.4-.64c0-.27,0-.57.09-.89,1.06,0,2.09,0,3.09,0"/><path class="cls-6" d="M182.84,412.22c-1,0-2,0-3.09,0h0q1.59,0,3.09,0"/><path class="cls-6" d="M179.75,412.22h0"/><path class="cls-6" d="M179.6,412.23h.15c0,.32-.07.62-.09.89a.79.79,0,0,1-.4.64.74.74,0,0,1-.39.11s0,0,0,0,0,0-.06,0A.8.8,0,0,1,178,413c0-.22,0-.46.07-.72l1.48-.06"/><path class="cls-6" d="M178.79,413.87s0,0,.06,0c-12.47.49-29,4.51-53.9,13-21.88,7.49-44.19,10.74-51.17,11.64v0c7.15-.92,29.29-4.17,51-11.61,25-8.53,41.51-12.55,54-13"/><path class="cls-6" d="M178.12,412.29c0,.26-.06.5-.07.72a.8.8,0,0,0,.74.86c-12.47.47-29,4.49-54,13-21.74,7.44-43.88,10.69-51,11.61,0,0,0,0,0-.07a.81.81,0,0,0-.31-1,.79.79,0,0,0-.85,0,2.27,2.27,0,0,0-1.46-.2.65.65,0,0,1,.21-.06c.26,0,26.94-2.89,53-11.82,24.62-8.42,41.14-12.47,53.69-13.07"/><path class="cls-6" d="M78.91,466.7a.81.81,0,0,1-.29,1.11l0,0s0,0,0,0l-.28.08h0a.83.83,0,0,1-.57-.23l.6-.27c.55-.25.12-1-.38-.91l-.57.1a.83.83,0,0,1,.34-.2c.25-.07.57-.16,1-.25l.3.54"/><path class="cls-6" d="M78.59,466.13l0,0c-.4.09-.72.18-1,.25a.83.83,0,0,0-.34.2l-.24,0c-2.12-4.23-3.36-11.21-4-16.48a93,93,0,0,1-.85-11.46l1.46-.17c-.22,2.32,1,20.28,4.84,27.61Z"/><path class="cls-6" d="M78.59,466.13l-.12,0c-3.82-7.33-5.06-25.29-4.84-27.61l.15,0c-.23,2.22,1,20.22,4.81,27.6"/><path class="cls-6" d="M78.53,467.84a.6.6,0,0,1-.28.08l.28-.08"/><path class="cls-6" d="M77.87,466.51c.5-.07.93.66.38.91l-.6.27a.86.86,0,0,1-.14-.18,7.3,7.3,0,0,1-.36-.68.85.85,0,0,1,.15-.22l.57-.1"/><path class="cls-6" d="M78.22,467.92l-.12,0a.77.77,0,0,1-.73-.15l.28-.12a.83.83,0,0,0,.57.23"/><path class="cls-6" d="M77.65,467.69l-.28.12a.73.73,0,0,1-.28-.4.77.77,0,0,1,.06-.58,7.32,7.32,0,0,0,.36.68.86.86,0,0,0,.14.18"/><path class="cls-6" d="M77.3,466.61a.85.85,0,0,0-.15.22.56.56,0,0,1-.09-.17l.24,0"/><path class="cls-6" d="M77.09,467.41a.73.73,0,0,0,.28.4,28.71,28.71,0,0,0-5.88,3.1c.31-.46-.26-1.23-.79-.88l0,0a1.81,1.81,0,0,0-.4-.34l0,0a.69.69,0,0,1-.17-.2,30.49,30.49,0,0,1-4.63-19.14c.16-1.75,1.29-8.23,3.49-11.39l.53.13c.43.11.77-.49.35-.74l-.27-.15a3,3,0,0,1,1.57-.95.77.77,0,0,0-.51.83.81.81,0,0,0,.56.69c-1.88,1.31-2.62,4.69-3.15,6.68a29.72,29.72,0,0,0-1,8,28.75,28.75,0,0,0,4.56,15.19l.08.17a17.57,17.57,0,0,1,5.34-2.11.56.56,0,0,0,.09.17.77.77,0,0,0-.06.58"/><path class="cls-6" d="M73.48,437.45a.81.81,0,0,1,.31,1s0,0,0,.07l-.15,0v0l-1.46.17c0-.16,0-.3,0-.42a2.7,2.7,0,0,1,.58-.09.32.32,0,0,0,.16-.6,3.36,3.36,0,0,0-.32-.17.79.79,0,0,1,.85,0"/><path class="cls-6" d="M73.78,438.5v0l-.15,0v0l.15,0"/><path class="cls-6" d="M73,437.61a.32.32,0,0,1-.16.6,2.7,2.7,0,0,0-.58.09,1.56,1.56,0,0,1,.15-.61.8.8,0,0,1,.27-.25,3.38,3.38,0,0,1,.32.17"/><path class="cls-6" d="M72.63,437.44a.8.8,0,0,0-.27.25,1.56,1.56,0,0,0-.15.61,2.8,2.8,0,0,0-1,.46.81.81,0,0,1-.56-.69.77.77,0,0,1,.51-.83,2.27,2.27,0,0,1,1.46.2"/><path class="cls-6" d="M72.21,438.3c0,.12,0,.26,0,.42l-.62.07a.89.89,0,0,1-.33,0,2.8,2.8,0,0,1,1-.46"/><path class="cls-6" d="M70.7,470c.53-.35,1.1.42.79.88h0l0,0c-.24-.26-.46-.54-.71-.8l-.06,0,0,0"/><path class="cls-6" d="M71.46,470.93h0a.38.38,0,0,1-.1.12c-3.66,3-6.15,7.32-8.34,11.48a68.71,68.71,0,0,0-5.21,13.12c-1.25,4.43-2.11,9-3.74,13.29-1.25,3.32-3,7.27-6,9.3-7.68,5.09-11.19-6.65-12.3-12C34,498.14,34,489.58,34,481.34A68.36,68.36,0,0,1,35.28,467a60.33,60.33,0,0,1,5-13.45c-.56-.09-1.12-.24-1.65-.3-1-.1-2,0-2.95-.18a.59.59,0,0,1-.44-.85,20.89,20.89,0,0,1,.23-5c.16-1.74.34-3.49.5-5.24.32-3.37.52-6.81,1.63-10a.73.73,0,0,1,1.19-.3c2.32-.41,5.29.44,7.58.75q4,.53,7.88,1.24c5,.94,10.84,2,15.34,4.56a6.76,6.76,0,0,0-.61.76c-.78-.21-1.55-.45-2.32-.7l-1.92-.63c-1-.33-2-.65-3-.92-2.61-.71-5.25-1.29-7.92-1.77s-5.48-.89-8.23-1.24c-2.1-.27-4.7-.17-6.72-.92a55.5,55.5,0,0,0-1.53,10c-.19,1.74-.36,3.49-.55,5.24a22.74,22.74,0,0,1-.54,3.85,13.66,13.66,0,0,1,4.52.64c.54-.62,1.88.07,1.49.92a75.69,75.69,0,0,0-4.81,12.12,54.31,54.31,0,0,0-1.58,11.78,156,156,0,0,0,.76,23.48,46.17,46.17,0,0,0,2.65,11.54c.66,1.68,1.48,3.59,3,4.65,2.12,1.46,4.62.27,6.16-1.44,2.89-3.18,4.29-7.71,5.42-11.75,1.06-3.8,1.91-7.67,3.16-11.41a69.6,69.6,0,0,1,5.68-12.64L63.82,478a.48.48,0,0,1-.18-.08q-2.28-1.56-4.65-3c-.72-.43,0-1.51.7-1.09a40.41,40.41,0,0,1,4.57,3.11.49.49,0,0,1,.12.13c.54-.86,1.1-1.71,1.71-2.52a15.37,15.37,0,0,1-2.28-1.44,6.18,6.18,0,0,1-2.32-1.87.42.42,0,0,1,.39-.59,6.44,6.44,0,0,1,2.58,1.47,17,17,0,0,1,2.27,1.61A17.41,17.41,0,0,1,70.67,470l.06,0c.25.26.47.54.71.8l0,0"/><path class="cls-6" d="M69.87,438.34c.42.25.08.85-.35.74l-.53-.13a6.76,6.76,0,0,1,.61-.76l.27.15"/><path class="cls-6" d="M51.13,240.41l-.11.06-.73-.74.08,0Z"/><path class="cls-6" d="M50.29,239.73l.73.74c-4.77,2.5-4,8.42-4.56,12.92a29.56,29.56,0,0,1-3.67,10.91,27.71,27.71,0,0,1-7.15,8.31c-2.17,1.65-5.42,3.2-8.21,2.41a.4.4,0,0,1-.62.09,2.77,2.77,0,0,1-.31-.45h0a.41.41,0,0,1-.17-.49,5.14,5.14,0,0,1,.45-3.28,11,11,0,0,1,4.07-4.57l0,0c.14-.34.31-.66.44-.91.62-1.21,1.24-3.2,2.76-3.5a.38.38,0,0,1,.15,0,4.18,4.18,0,0,1-.33-1.28c-2.38.94-4.42,1.43-6.31,3.42-2.42,2.54-4.62,6.27-8.49,6.49a.43.43,0,0,1-.44-.24,1.51,1.51,0,0,1-1.22-.41,1.84,1.84,0,0,1-.72-1.28.27.27,0,0,1,.29-.32.39.39,0,0,1,.32.17v0a2.92,2.92,0,0,0,.65.83c.24.17.54.23.78.39a.47.47,0,0,1,.21-.15c4-1.61,5.77-5.16,9.09-7.62A12.14,12.14,0,0,1,32.21,260,16.86,16.86,0,0,0,37.92,257c.31-.23.6.24.39.5a9.79,9.79,0,0,1-3.63,2.73v.07a4.88,4.88,0,0,0,.42,1.29,11.1,11.1,0,0,1,.7,1.13c.13.31-.27.49-.51.39a1.89,1.89,0,0,1-.77-.67.45.45,0,0,1-.15.16c-1,.56-1.43,1.91-1.91,2.93a7,7,0,0,0-.64,1.45c-.07.35,0,.69-.11,1a.39.39,0,0,1-.55.24,1,1,0,0,1-.48-.53,13.24,13.24,0,0,0-2.51,3.17,5.13,5.13,0,0,0-.48,1.82c1.49-.56,3.86-1.13,4.28.27a17.32,17.32,0,0,0,5-3.74,28.86,28.86,0,0,0,6.62-10.42c1.37-3.77,1.35-7.51,1.91-11.42.42-2.86,1.91-6.55,4.8-7.72M31.37,273.28a3.19,3.19,0,0,0-2.14-.06,9.85,9.85,0,0,1-1.63.5c0,.08,0,.15,0,.23a9.62,9.62,0,0,0,3.78-.67"/><path class="cls-6" d="M39.09,227.49l.53.72-.31.32-.69-.71c.15-.1.3-.22.45-.33Z"/><path class="cls-6" d="M38.62,227.82l.69.71c-4.77,4.79-11.88,6.33-17.5,9.83A26.73,26.73,0,0,0,14,246c-2,2.93-3.65,6-2.87,9.64.08.37-.34.76-.67.6a.33.33,0,0,1-.15-.12c-1.83-2.24-1-5.06.23-7.44a29.88,29.88,0,0,1,7.21-9.16A41.55,41.55,0,0,1,28,233.69a53.44,53.44,0,0,0,10.63-5.87"/><path class="cls-6" d="M29.23,273.22a3.19,3.19,0,0,1,2.14.06,9.62,9.62,0,0,1-3.78.67c0-.08,0-.15,0-.23a9.86,9.86,0,0,0,1.63-.5"/><path class="cls-6" d="M24.81,256.7c1.11.63,2.42,2.2,1.05,3.3a.36.36,0,0,1-.52-.51c.67-.79-.62-1.71-1.12-2.12s.23-1,.59-.67"/><path class="cls-6" d="M23.19,254.39a.36.36,0,0,1-.61.25c-.37-.36-.55-.87-.95-1.22s-.84-.49-1.11-.89a.24.24,0,0,1,.14-.35c1-.29,2.51,1.26,2.53,2.21"/><path class="cls-6" d="M21.58,262a.38.38,0,0,1,.47.59c-1.42,1.87-3.35,3-4.38,5.22a.29.29,0,0,1-.43.09.31.31,0,0,1-.12-.16,1.09,1.09,0,0,1,0-.16.45.45,0,0,1-.23,0c-1-.2-1.5-1.87-1.2-2.74a.43.43,0,0,1,.15-.18.31.31,0,0,1,.5.18,6.74,6.74,0,0,0,.36,1.26,5.83,5.83,0,0,0,.39.62A3.92,3.92,0,0,1,18,265a12.71,12.71,0,0,1,3.54-3"/><path class="cls-6" d="M19.05,248.67c.47.46,1.09,1.34.86,2a.26.26,0,0,1-.42.12c-.42-.39-.59-1-1-1.38a3.72,3.72,0,0,0-1.73-.83.43.43,0,0,1,.11-.84,3.19,3.19,0,0,1,2.22.91"/><path class="cls-6" d="M19.22,257.53c.3-.06.62.33.34.57a8.25,8.25,0,0,0-2.22,2.34,11.69,11.69,0,0,0-.69,3.14.48.48,0,0,1-.87.12c-1.09-2.19,1.14-5.78,3.44-6.17"/><path class="cls-6" d="M16.2,252.27a.3.3,0,0,1,.07.55c-1,.7-1.29,2.75-1.5,3.87s-.12,2.39-.44,3.52a.36.36,0,0,1-.57.2.44.44,0,0,1-.15-.2c0-.11-.07-.22-.1-.33a9.39,9.39,0,0,1,.43-4.7c.3-1.06.8-3.2,2.26-2.91"/><path class="cls-6" d="M15.6,263.71a.18.18,0,0,1-.11.31h0a2.21,2.21,0,0,1-1.59-.82,2.52,2.52,0,0,1-.74-1.72.31.31,0,0,1,.3-.28.27.27,0,0,1,.24.14,9.44,9.44,0,0,0,.82,1.36,9.45,9.45,0,0,0,1.09,1"/><path class="cls-6" d="M12.86,259.88a.23.23,0,0,1,.08.18.28.28,0,0,1-.34.27,4,4,0,0,1-2.69-2.94.14.14,0,0,1,.13-.16.12.12,0,0,1,.09,0c.41.47.75,1,1.21,1.44s1,.74,1.52,1.17"/></g></g></g><path class="cls-7" d="M243.33,65.14s2.79,5.92,3.17,6.76.58,1.54.58.46.58-7.71.58-8.5-4.08-.25-4.33.21a1.45,1.45,0,0,0,0,1.08"/><path class="cls-6" d="M327.17,36.24a29.86,29.86,0,0,1-2.29-5.62,28.29,28.29,0,0,1-.74-4.67c0-.43-.09-.86-.14-1.3-.43-3.74-2.13-6.67-4.14-9.85-1.73-2.74-3.94-5.76-7.19-7.42a.5.5,0,0,0-.68.18.53.53,0,0,0-.07.18.41.41,0,0,0,0-.17.42.42,0,0,0-.43-.2,6,6,0,0,0-2.5,1.27l-.35.25-.27.19-.06,0A.32.32,0,0,0,308.2,9c-.87-1.18-2.77-.87-4-.67l-.18,0c-1.6.25-2.56.74-2.85,1.46h0c-2.22-1.14-6.09-.58-7.64,1.82a5.66,5.66,0,0,0-4.69,1.67.55.55,0,0,0-.15.41.6.6,0,0,0,.12.32,8.19,8.19,0,0,0-.46,1.49,2.34,2.34,0,0,0,0,1.46,1.42,1.42,0,0,0,.27,1.13l.13.25.08.17a10.72,10.72,0,0,0,1.11,1.93.48.48,0,0,0,.39.18,8.82,8.82,0,0,0,.34,1.51c.06.23.13.46.2.72.17.66.29,1.39.4,2.09a12.87,12.87,0,0,0,1,3.66.42.42,0,0,0,.47.23.49.49,0,0,0,.39-.44,13.59,13.59,0,0,0-.62-3.95c-.1-.4-.21-.8-.29-1.18a16.36,16.36,0,0,0-.51-1.7l-.09-.28a5,5,0,0,1-.22-1.53A9.05,9.05,0,0,0,292,19l.6-.8.18-.2a11.74,11.74,0,0,1,1.87-1.52l.36-.26a10.64,10.64,0,0,0,.85-.68A2.69,2.69,0,0,0,297,16.87a.42.42,0,0,0,.38,0,.4.4,0,0,0,.16-.15,2.89,2.89,0,0,0,1.61-1l.07-.08a5.76,5.76,0,0,0,.65-.75c.05.14.1.28.14.42a7.84,7.84,0,0,1,.27,2.31c-.09,2-1.31,3.24-3.11,3.18a.35.35,0,0,0-.35.25.39.39,0,0,0,.15.44,2.59,2.59,0,0,0,.77.35l.08.1a7.71,7.71,0,0,1,.93,1.34,7.41,7.41,0,0,1,.47,1.28l.12.41a.6.6,0,0,0,.58.41.57.57,0,0,0,.44-.19l.23.1a7.54,7.54,0,0,1,1.67.86,8.2,8.2,0,0,1,1.28,1.26c.26.29.53.6.82.88a.43.43,0,0,0,.51.07.45.45,0,0,0,.22-.49,5,5,0,0,0-1.92-2.7l.61-.07a9.38,9.38,0,0,1,2.07-.09A13.26,13.26,0,0,1,310,26.36l.89.4a.5.5,0,0,0,.46,0,.48.48,0,0,0,.16-.15.46.46,0,0,0-.06-.6,9,9,0,0,0-5.08-2.21c-2.16-.3-3.75-.13-4.73.49a4.65,4.65,0,0,0-1.35-.35,6,6,0,0,0-1.18-2.2,4.32,4.32,0,0,0,2.32-3.26,7.47,7.47,0,0,0,0-2.11,32.8,32.8,0,0,0,2.31,4.41l.32.47a.67.67,0,0,0,.82.21.63.63,0,0,0,.4-.49,9.58,9.58,0,0,1,1.39-.28,10.35,10.35,0,0,1,1.77,0l.59,0a.42.42,0,0,0,.41-.32,1.83,1.83,0,0,0,1,.11l.12,0a.36.36,0,0,0,.16-.2.42.42,0,0,0,0-.23h.07l.61-.25a5.64,5.64,0,0,1,1.23-.43,2.56,2.56,0,0,1,.55,0,1.65,1.65,0,0,0,1.08-.16.51.51,0,0,0,.34,0l.15-.06a.41.41,0,0,0,.2-.3,7.64,7.64,0,0,0-1.26-4.61,2.65,2.65,0,0,0,.53-.42c.49-.5,1-1.57.47-2.25a.45.45,0,0,0-.38-.18.39.39,0,0,0-.31.21,2.82,2.82,0,0,0-.23.61,1.67,1.67,0,0,1-.34.73,1.35,1.35,0,0,1-.86.4,3.57,3.57,0,0,0-.53.13.59.59,0,0,0-.38.51.49.49,0,0,0,.28.48,1.38,1.38,0,0,0,.73.13c.09.25.19.5.28.75.17.43.34.88.47,1.33.08.26.14.54.2.8s.13.57.21.86a4.83,4.83,0,0,0-1-.14,2.88,2.88,0,0,0-2.45,1.28.33.33,0,0,0,0,.07l-.07-.07A4.15,4.15,0,0,1,309,17.73c-.16-.5-.28-1-.4-1.55,0-.2-.09-.39-.14-.59-.09-.37-.17-.75-.25-1.13a19,19,0,0,0-.82-3,13.41,13.41,0,0,1,1.93-1.55l.26-.19c.21-.15.43-.29.66-.43a5.78,5.78,0,0,0,1.55-1.24.45.45,0,0,0,.08-.18.53.53,0,0,0,.23.42,27.76,27.76,0,0,1,7.51,8.77l.31.51a18.72,18.72,0,0,1,2.24,4.65,23.5,23.5,0,0,1,.59,3.95c.05.57.11,1.16.18,1.73a28.82,28.82,0,0,0,3.4,9.74c.64,1.22,1.33,2.44,2,3.63l.32-.28a7.72,7.72,0,0,1,.76-.56c-.76-1.36-1.55-2.78-2.27-4.19m-36-17.73a.36.36,0,0,0-.25.22,5.16,5.16,0,0,0-.2.61c-.18-.43-.39-.84-.6-1.24l0-.08c0-.09-.09-.18-.13-.27a3.45,3.45,0,0,0-.29-.55,3.65,3.65,0,0,0,1.13,0l.4,0,1.08-.06a6.25,6.25,0,0,0-1.1,1.41m2.2-2.36-.2.15a.45.45,0,0,0-.3-.13,6.29,6.29,0,0,0-3.15.34s0-.06,0-.09a3.62,3.62,0,0,1,.12-.83c.05-.22.13-.43.2-.64a5.89,5.89,0,0,0,.27-1l0,0a7.23,7.23,0,0,1,1.59-.86,7.65,7.65,0,0,1,1-.25l.49-.1a5.62,5.62,0,0,0,0,1.39,2.57,2.57,0,0,0,.59,1.58l-.65.48m6.07-1.86a6.07,6.07,0,0,1-.52.62,4.27,4.27,0,0,1-.88.71,2.3,2.3,0,0,1-.32.14l-.19.08-.06-.08-.17-.23c-.11-.15-.2-.3-.29-.46l-.12-.19a13.13,13.13,0,0,0,1.38-1.73h0a1.78,1.78,0,0,1,.38,0,2.07,2.07,0,0,1,.58.19l.09,0,.08.12.28.46-.26.33m.42-2.22a.61.61,0,0,0,0,.53l-.13,0a2.37,2.37,0,0,0-1.6-.38,1,1,0,0,0-.66.4l0,0a4.67,4.67,0,0,0-1,1c-.15.19-.32.38-.49.57a7.79,7.79,0,0,1-1,.85,3.45,3.45,0,0,1-.26-2.66l.38-.29a7.35,7.35,0,0,1,2.37-1.39,7.66,7.66,0,0,1,3.5-.12,6.83,6.83,0,0,0-1.06,1.5m6.94-1.34a.62.62,0,0,0,.09.76l0,0A23.75,23.75,0,0,0,308,18.1v0a4.72,4.72,0,0,0,.76,1.64,5.93,5.93,0,0,0-3.74.29,22.78,22.78,0,0,1-1.53-3.14,15.57,15.57,0,0,0-2.47-4.43,7.61,7.61,0,0,1,.64-1l.14-.18c.1-.12.19-.24.28-.36l.27-.27a2.69,2.69,0,0,1,.95-.72,6.59,6.59,0,0,1,1.45-.34l.13,0a8,8,0,0,1,1.79,0,11.93,11.93,0,0,0,1.22,0,5.55,5.55,0,0,0-1.18,1.12"/></svg>