<svg width="341" height="348" viewBox="0 0 341 348" fill="none" xmlns="http://www.w3.org/2000/svg">
<path d="M13.4533 96.475L17.9802 113.213L30.0871 122.841L24.7062 127.125L13.4533 136.911L6.66717 151.037C6.66717 151.037 2.75117 169.177 3.16717 170.337C3.58317 171.497 6.66717 187.703 6.66717 187.703L12.9084 196.21L43.5632 198.132L77.6721 190.149L85.4802 183.267L82.4631 161.437L76.2341 147.282L65.0554 129.218L52.5432 123.818L61.197 117.552L66.9592 102.763L64.7902 88.176L55.4763 80.259L42.9421 73.952H31.2311L20.256 80L13.0412 92.394L13.4533 96.475Z" fill="#00217A"/>
<path d="M139.433 27.323L143.961 44.061L156.067 53.689L150.687 57.973L139.433 67.759L132.648 81.884C132.648 81.884 128.732 100.025 129.148 101.184C129.564 102.343 132.648 118.551 132.648 118.551L138.889 127.058L169.544 128.979L203.653 121L211.461 114.117L208.443 92.287L202.214 78.133L191.035 60.069L178.523 54.669L187.177 48.404L192.939 33.614L190.77 19.028L181.456 11.111L168.922 4.80396H157.211L146.236 10.852L139.022 23.246L139.433 27.323Z" fill="#00217A"/>
<path d="M266.5 85.973L271.028 102.711L283.134 112.339L277.754 116.623L266.5 126.409L259.715 140.534C259.715 140.534 255.799 158.675 256.215 159.834C256.631 160.993 259.715 177.201 259.715 177.201L265.956 185.708L296.611 187.629L330.72 179.647L338.528 172.764L335.51 150.934L329.281 136.78L318.1 118.716L305.588 113.316L314.242 107.051L320 92.26L317.831 77.673L308.517 69.756L295.983 63.449H284.272L273.3 69.5L266.086 81.894L266.5 85.973Z" fill="#00217A"/>
<path d="M219.525 240.486L224.052 257.223L236.158 266.852L230.778 271.136L219.525 280.922L212.739 295.047C212.739 295.047 208.823 313.188 209.239 314.347C209.655 315.506 212.739 331.714 212.739 331.714L218.98 340.221L249.635 342.142L283.744 334.16L291.552 327.277L288.534 305.447L282.305 291.293L271.126 273.229L258.615 267.829L267.268 261.564L273.031 246.774L270.861 232.188L261.547 224.27L249.013 217.964H237.3L226.325 224.012L219.11 236.405L219.525 240.486Z" fill="#00217A"/>
<path d="M70.5734 243.568L75.1003 260.306L87.2062 269.934L81.8264 274.218L70.5734 284L63.7873 298.126C63.7873 298.126 59.8713 316.266 60.2873 317.426C60.7033 318.586 63.7873 334.792 63.7873 334.792L70.028 343.299L100.683 345.221L134.792 337.238L142.6 330.356L139.582 308.525L133.353 294.371L122.174 276.307L109.663 270.907L118.316 264.641L124.078 249.852L121.909 235.265L112.595 227.348L100.061 221.041H88.3513L77.3762 227.089L70.1613 239.483L70.5734 243.568Z" fill="#00217A"/>
<path d="M40.8 202.377C50.6165 202.256 60.3622 200.693 69.7243 197.739C75.2903 195.975 81.7244 194.306 84.6584 189.358C85.1625 189.264 85.6234 189.013 85.9758 188.64C86.3281 188.267 86.5536 187.793 86.6193 187.284C88.1193 171.493 78.364 130.705 58.009 125.801C68.729 117.962 73.5434 103.472 67.4284 90.501C59.8284 74.387 37.0284 68.029 22.4284 78.308C21.9394 78.6357 21.5915 79.1355 21.4543 79.708C13.2543 84.774 8.31495 93.314 10.239 105.539C11.001 109.988 12.7262 114.216 15.2931 117.928C17.8601 121.641 21.2072 124.747 25.1003 127.031C3.54828 134.789 -2.63074 170.131 1.95526 189.738C1.98326 189.855 2.00629 189.974 2.03729 190.089C2.08329 190.282 2.12306 190.489 2.17206 190.674C2.25982 191.014 2.40888 191.334 2.612 191.62C7.633 202.385 31.592 202.493 40.8 202.377ZM25.4074 196.236C18.7944 195.37 12.3712 193.491 7.70721 189.674C7.69479 189.503 7.66826 189.333 7.62811 189.166C2.19211 168.103 10.3062 139.13 30.8952 129.756C31.3082 129.902 51.2683 129.524 51.6393 129.374C74.2243 133.062 78.376 165.439 81.779 184.607C79.304 190.034 68.173 192.641 62.756 194.012C61.756 194.265 50.367 197.133 49.362 197.352C49.834 196.993 25.4084 196.236 25.4084 196.236H25.4074ZM15.8073 104.393C13.5213 91.769 20.4499 84.247 30.1349 80.218C42.6809 76.974 58.064 81.459 62.757 94.739C67.698 108.718 58.442 122.885 44.134 125.139C30.974 127.214 18.1692 117.42 15.8112 104.393H15.8073Z" fill="#231F20"/>
<path d="M165.438 130.016C175.255 129.895 185 128.333 194.362 125.378C199.928 123.614 206.362 121.945 209.296 116.997C209.8 116.903 210.262 116.651 210.614 116.279C210.966 115.906 211.191 115.432 211.257 114.923C212.757 99.132 203.002 58.344 182.648 53.439C193.367 45.601 198.181 31.111 192.066 18.139C184.466 2.02596 161.666 -4.33303 147.066 5.94597C146.577 6.27413 146.23 6.77376 146.092 7.34597C137.892 12.412 132.953 20.952 134.877 33.177C135.639 37.6256 137.364 41.8539 139.931 45.5661C142.498 49.2783 145.846 52.3847 149.739 54.668C128.186 62.426 122.007 97.768 126.593 117.375C126.621 117.493 126.644 117.612 126.675 117.727C126.721 117.92 126.761 118.127 126.811 118.312C126.898 118.652 127.047 118.973 127.251 119.258C132.27 130.024 156.229 130.132 165.438 130.016ZM150.045 123.875C143.432 123.009 137.009 121.13 132.345 117.312C132.333 117.141 132.306 116.971 132.266 116.804C126.83 95.7409 134.943 66.7689 155.532 57.3949C155.945 57.5399 175.906 57.163 176.276 57.013C198.861 60.7 203.013 93.078 206.416 112.246C203.942 117.673 192.816 120.28 187.393 121.646C186.393 121.899 175.005 124.766 173.999 124.986C174.471 124.632 150.045 123.875 150.045 123.875ZM140.445 32.032C138.159 19.408 145.088 11.8859 154.773 7.85595C167.32 4.61295 182.702 9.09695 187.396 22.3779C192.336 36.3569 183.081 50.524 168.772 52.778C155.611 54.852 142.807 45.059 140.448 32.032H140.445Z" fill="#231F20"/>
<path d="M294.275 190.06C304.091 189.939 313.837 188.376 323.198 185.421C328.764 183.658 335.198 181.989 338.132 177.041C338.636 176.947 339.097 176.695 339.45 176.323C339.802 175.95 340.028 175.476 340.094 174.967C341.594 159.175 331.839 118.388 311.484 113.483C322.203 105.645 327.018 91.155 320.902 78.183C313.302 62.07 290.502 55.711 275.902 65.99C275.413 66.3183 275.066 66.8179 274.928 67.39C266.728 72.456 261.789 80.996 263.713 93.221C264.475 97.6695 266.201 101.898 268.768 105.61C271.335 109.322 274.682 112.429 278.575 114.712C257.023 122.47 250.843 157.812 255.429 177.419C255.458 177.537 255.48 177.656 255.511 177.771C255.558 177.964 255.597 178.166 255.647 178.356C255.735 178.696 255.884 179.016 256.087 179.302C261.106 190.068 285.065 190.176 294.275 190.06ZM278.881 183.919C272.269 183.053 265.845 181.174 261.181 177.356C261.168 177.185 261.142 177.015 261.102 176.848C255.666 155.785 263.78 126.813 284.368 117.439C284.781 117.584 304.742 117.207 305.112 117.057C327.697 120.744 331.85 153.122 335.252 172.289C332.778 177.717 321.652 180.324 316.229 181.695C315.229 181.948 303.841 184.815 302.835 185.035C303.307 184.676 278.881 183.919 278.881 183.919ZM269.281 92.076C266.996 79.452 273.924 71.93 283.61 67.9C296.156 64.657 311.538 69.141 316.232 82.421C321.172 96.401 311.917 110.568 297.609 112.821C284.448 114.9 271.643 105.1 269.284 92.076H269.281Z" fill="#231F20"/>
<path d="M247.528 344.573C257.344 344.452 267.09 342.889 276.452 339.934C282.017 338.17 288.452 336.502 291.386 331.554C291.891 331.46 292.352 331.208 292.704 330.835C293.057 330.463 293.282 329.988 293.347 329.479C294.847 313.688 285.092 272.901 264.737 267.996C275.457 260.157 280.271 245.668 274.156 232.696C266.556 216.583 243.756 210.224 229.156 220.503C228.666 220.83 228.319 221.33 228.182 221.903C219.982 226.969 215.043 235.509 216.967 247.734C217.729 252.182 219.454 256.411 222.021 260.123C224.588 263.835 227.935 266.941 231.828 269.225C210.276 276.983 204.096 312.325 208.683 331.932C208.711 332.049 208.733 332.169 208.765 332.284C208.811 332.477 208.851 332.679 208.9 332.868C208.988 333.208 209.137 333.528 209.34 333.814C214.36 344.581 238.319 344.689 247.528 344.573ZM232.135 338.432C225.522 337.566 219.099 335.686 214.435 331.869C214.423 331.698 214.396 331.528 214.356 331.361C208.92 310.298 217.034 281.326 237.623 271.951C238.036 272.097 257.996 271.72 258.367 271.57C280.952 275.257 285.104 307.634 288.507 326.802C286.032 332.23 274.901 334.837 269.484 336.208C268.484 336.461 257.095 339.328 256.09 339.547C256.561 339.189 232.135 338.432 232.135 338.432ZM222.535 246.589C220.249 233.965 227.178 226.443 236.863 222.413C249.409 219.17 264.792 223.654 269.485 236.934C274.426 250.913 265.17 265.081 250.862 267.334C237.7 269.409 224.9 259.615 222.538 246.589H222.535Z" fill="#231F20"/>
<path d="M98.3482 347.655C108.164 347.534 117.909 345.971 127.271 343.017C132.837 341.253 139.271 339.584 142.206 334.636C142.71 334.542 143.171 334.29 143.524 333.918C143.876 333.545 144.101 333.07 144.167 332.562C145.667 316.771 135.912 275.983 115.557 271.079C126.277 263.24 131.091 248.75 124.975 235.779C117.375 219.665 94.5752 213.306 79.9752 223.586C79.4857 223.913 79.1375 224.413 79.0001 224.986C70.8001 230.052 65.8612 238.592 67.7852 250.817C68.5476 255.266 70.2723 259.494 72.8394 263.206C75.4066 266.919 78.7539 270.025 82.6471 272.309C61.0951 280.067 54.915 315.409 59.502 335.015C59.53 335.133 59.5521 335.252 59.5841 335.367C59.6301 335.56 59.6703 335.767 59.7193 335.952C59.8067 336.292 59.9558 336.612 60.1593 336.898C65.1803 347.663 89.1382 347.771 98.3482 347.655ZM82.9542 341.514C76.3422 340.648 69.919 338.769 65.254 334.951C65.2415 334.78 65.215 334.61 65.1749 334.444C59.7389 313.38 67.853 284.408 88.441 275.034C88.854 275.179 108.815 274.802 109.186 274.652C131.771 278.339 135.923 310.717 139.325 329.885C136.851 335.312 125.72 337.919 120.302 339.285C119.302 339.538 107.914 342.405 106.908 342.625C107.38 342.271 82.9542 341.514 82.9542 341.514ZM73.3541 249.671C71.0681 237.047 77.9972 229.525 87.6822 225.495C100.228 222.252 115.611 226.737 120.304 240.017C125.245 253.996 115.989 268.163 101.681 270.417C88.5212 272.492 75.716 262.7 73.358 249.671H73.3541Z" fill="#231F20"/>
<path d="M312.4 219.019C311.7 217.119 309.231 216.105 307.666 217.769C306.905 218.578 306.166 219.405 305.416 220.221C302.516 222.609 300.169 225.847 297.916 228.794C295.969 231.343 300.28 234.672 302.379 232.237C302.924 231.606 303.479 230.982 304.024 230.353C302.689 239.153 301.184 248.613 295.016 254.47C294.758 254.728 294.594 255.066 294.55 255.429C294.507 255.791 294.586 256.158 294.776 256.47C294.769 256.536 294.749 256.598 294.746 256.67C294.733 256.97 294.722 257.27 294.709 257.563C294.719 258.498 295.095 259.391 295.756 260.052C296.417 260.713 297.31 261.088 298.245 261.098C304.395 261.039 305.761 253.364 307.432 248.678C309.16 243.899 310.477 238.981 311.367 233.978C311.574 234.837 311.952 235.645 312.478 236.354C313.005 237.063 313.67 237.658 314.433 238.104C314.754 238.281 315.111 238.384 315.477 238.405C315.844 238.427 316.21 238.366 316.55 238.228C316.89 238.089 317.195 237.877 317.442 237.606C317.69 237.335 317.873 237.012 317.98 236.661C319.154 233.832 317.13 230.88 316.067 228.238C314.83 225.167 313.538 222.119 312.4 219.019Z" fill="#231F20"/>
<path d="M228.271 114.214C234.019 114.737 230.289 106.739 229.804 104.214C229.761 103.967 229.731 103.717 229.715 103.467C231.143 104.967 233.875 105.767 235.434 106.648C238.473 108.403 241.357 110.415 244.055 112.66C247.661 115.587 252.627 110.935 249.255 107.46C245.865 104.037 241.701 101.479 237.115 100.002C235.408 99.4362 233.629 99.117 231.832 99.054C234.64 98.4043 237.331 97.3249 239.809 95.854C240.201 95.6081 240.503 95.2428 240.672 94.812C240.84 94.3811 240.866 93.9075 240.745 93.461C240.623 93.0145 240.362 92.6187 239.999 92.3321C239.636 92.0455 239.19 91.8831 238.728 91.869C235.755 91.8249 232.792 92.2381 229.945 93.094C227.582 93.665 225.082 93.97 223.767 96.246C221.392 100.355 223.402 107.629 224.943 111.685C225.171 112.397 225.613 113.022 226.208 113.474C226.804 113.926 227.524 114.185 228.271 114.214Z" fill="#231F20"/>
<path d="M82.9859 120.231C85.7579 121.46 88.437 122.954 91.213 121.105C91.8171 120.727 92.2544 120.132 92.4352 119.442C92.616 118.753 92.5268 118.02 92.1861 117.394C91.4431 115.759 89.7509 115.116 88.1119 114.558C88.251 114.458 88.3816 114.347 88.5021 114.225C90.6853 111.751 93.0435 109.438 95.5582 107.302C96.85 106.714 98.1807 106.215 99.5411 105.81C103.562 104.631 108.555 104.33 108.518 99.003C108.511 98.4852 108.387 97.9757 108.157 97.5119C107.927 97.0481 107.595 96.6418 107.187 96.3228C106.779 96.0039 106.305 95.7804 105.799 95.6688C105.294 95.5572 104.77 95.5604 104.265 95.678C104.221 95.678 104.185 95.662 104.138 95.667C99.2793 96.235 94.6761 98.376 90.5221 100.896C88.6205 102.018 86.7794 103.24 85.0069 104.557C85.2069 103.016 85.4072 101.483 85.4562 99.911C85.5292 97.779 82.8411 97.451 81.7711 98.911C79.8986 101.629 78.5934 104.696 77.9332 107.93C77.3802 110.289 76.469 113.268 77.36 115.63C78.312 118.142 80.6859 119.212 82.9859 120.231Z" fill="#231F20"/>
<path d="M45.2069 241.361C43.6075 244.379 42.3058 247.546 41.3207 250.816C36.9407 241.947 33.747 233.03 36.515 222.831C37.331 219.831 34.8481 217.879 32.4511 217.887C32.0715 217.726 31.6477 217.703 31.2528 217.822C30.858 217.94 30.5168 218.192 30.288 218.535C29.5467 219.054 29.0182 219.824 28.8007 220.703C27.4142 225.907 27.2588 231.362 28.3461 236.636C28.3897 237.943 28.4994 239.246 28.6757 240.542C29.4567 245.976 32.3761 250.171 34.9901 254.669C35.1771 255.039 35.3661 255.407 35.5551 255.776C32.5311 254.737 29.5337 253.617 26.5087 252.57C24.6387 251.922 23.1699 254.57 24.5849 255.87C29.5569 260.47 35.496 263.102 41.932 265.024C44.309 265.734 46.1607 263.824 46.3837 261.633C46.9391 255.804 48.6447 250.143 51.4017 244.977C53.5777 240.908 47.3639 237.276 45.2069 241.361Z" fill="#231F20"/>
<path d="M191.626 296.308C189.926 295.714 188.259 295.028 186.633 294.253C184.438 293.127 182.35 291.805 180.394 290.301C177.259 287.741 172.738 292.084 175.874 294.822C177.941 296.671 180.203 298.287 182.622 299.642C181.911 299.732 181.2 299.834 180.489 299.929C173.412 300.397 166.313 300.458 159.229 300.111C153.985 299.901 154.009 308.005 159.229 308.25C160.361 308.304 161.485 308.298 162.614 308.326C169.105 309.895 175.826 310.289 182.456 309.488C181.603 310.581 180.915 311.794 180.415 313.088C179.259 316.212 183.066 318.223 185.549 317.035C188.656 315.549 190.634 312.013 192.513 309.216C194.024 306.971 196.607 303.707 196.262 300.81C195.954 298.227 193.829 297.082 191.626 296.308Z" fill="#231F20"/>
<path d="M210.879 212.906C211.341 212.333 211.673 211.665 211.852 210.951C212.843 209.133 212.852 206.48 211.134 205.151C208.351 202.993 204.39 200.051 200.551 199.812C200.826 196.613 200.742 193.393 200.3 190.212C202.32 189.689 204.281 188.959 206.15 188.032C208.421 187.1 210.197 185.789 210.424 183.153C210.665 180.327 209.345 177.146 208.472 174.501C207.367 171.225 206.065 168.019 204.572 164.901C203.326 162.256 200.586 162.542 198.94 164.121C196.94 164.893 195.146 166.809 193.54 168.082C193.07 168.454 192.586 168.833 192.103 169.223C187.203 165.017 180.587 162.208 174.112 162.323C173.355 158.414 170.835 154.561 168.587 151.528C165.675 147.601 161.292 147.883 157.314 149.847C153.679 151.647 148.194 153.4 146.659 157.553C145.365 161.053 147.605 165.44 149.408 168.861C144.224 170.846 139.585 176.099 137.797 181.044C135.022 179.701 131.367 178.844 129.07 180.432C125.663 182.785 125.859 188.771 125.377 192.459C124.831 196.632 124.036 201.824 128.587 204.072C131.771 205.643 135.853 204.59 139.125 203.258C140.16 205.549 141.392 207.746 142.806 209.825C144.381 212.425 146.282 214.814 148.463 216.932C146.1 219.632 144.227 224.251 144.777 227.32C145.583 231.82 152.696 233.337 156.317 234.843C160.281 236.493 166.145 240.212 169.343 235.359C170.377 233.792 170.377 231.687 170.543 229.89C170.565 229.64 170.589 229.402 170.612 229.164C171.293 229.258 171.987 229.179 172.63 228.935C177.108 227.36 181.4 225.301 185.43 222.794C186.299 222.244 187.206 221.68 188.063 221.07C190.07 224.901 193.752 228.502 197.69 227.413C200.68 226.586 202.383 223.565 204.206 221.277L210.879 212.906ZM168.479 182.569C172.454 182.397 176.297 182.647 178.951 186.143C180.095 187.746 180.827 189.606 181.082 191.559C181.091 191.616 181.091 191.672 181.099 191.729C180.478 194.679 178.903 197.343 176.616 199.309C174.867 200.822 172.182 202.736 169.858 203.082C165.922 203.668 161.958 199.382 160.492 196.24C157.358 189.547 161.912 183.565 168.476 182.569H168.479ZM163.379 173.654C163.379 173.619 163.379 173.582 163.379 173.548C163.43 173.555 163.479 173.569 163.53 173.573C163.476 173.6 163.425 173.626 163.374 173.654H163.379ZM168.293 221.161C168.315 221.13 168.336 221.099 168.358 221.061C168.504 221.041 168.648 221.013 168.79 220.977C168.91 221.029 169.034 221.077 169.16 221.115C169.028 221.205 168.901 221.303 168.78 221.407C168.622 221.314 168.458 221.231 168.288 221.161H168.293Z" fill="#231F20"/>
</svg>
