<svg width="341" height="348" viewBox="0 0 341 348" fill="none" xmlns="http://www.w3.org/2000/svg">
<path d="M13.2789 96.074L17.8072 112.811L29.9132 122.44L24.5333 126.724L13.2789 136.51L6.49423 150.635C6.49423 150.635 2.57686 168.776 2.98886 169.935C3.40086 171.094 6.49423 187.302 6.49423 187.302L12.734 195.809L43.3892 197.73L77.4981 189.748L85.3062 182.865L82.2891 161.035L76.0601 146.881L64.8809 128.817L52.3692 123.417L61.023 117.152L66.7852 102.362L64.6163 87.776L55.3018 79.858L42.7682 73.552H31.0572L20.0821 79.6L12.8673 91.993L13.2789 96.074Z" fill="#00DC2F"/>
<path d="M139.26 26.921L143.787 43.659L155.893 53.287L150.513 57.571L139.26 67.357L132.474 81.483C132.474 81.483 128.558 99.623 128.974 100.783C129.39 101.943 132.474 118.149 132.474 118.149L138.715 126.656L169.37 128.578L203.479 120.595L211.287 113.713L208.269 91.883L202.04 77.728L190.861 59.664L178.349 54.264L187 48L192.762 33.211L190.593 18.624L181.279 10.707L168.745 4.40002H157.035L146.06 10.448L138.845 22.842L139.26 26.921Z" fill="#00DC2F"/>
<path d="M266.325 85.571L270.853 102.309L282.959 111.937L277.579 116.222L266.325 126.008L259.54 140.133C259.54 140.133 255.624 158.273 256.04 159.433C256.456 160.593 259.54 176.799 259.54 176.799L265.781 185.306L296.436 187.228L330.545 179.245L338.353 172.363L335.335 150.533L329.106 136.378L317.927 118.314L305.415 112.914L314.069 106.648L319.831 91.859L317.662 77.272L308.348 69.355L295.814 63.048H284.1L273.125 69.096L265.911 81.49L266.325 85.571Z" fill="#00DC2F"/>
<path d="M219.351 240.084L223.878 256.822L235.985 266.45L230.604 270.734L219.351 280.52L212.565 294.646C212.565 294.646 208.649 312.786 209.065 313.946C209.481 315.106 212.565 331.312 212.565 331.312L218.806 339.819L249.461 341.741L283.57 333.758L291.378 326.876L288.36 305.046L282.132 290.891L270.952 272.827L258.441 267.427L267.095 261.161L272.857 246.372L270.688 231.785L261.373 223.868L248.839 217.561H237.129L226.154 223.609L218.939 236L219.351 240.084Z" fill="#00DC2F"/>
<path d="M70.4001 243.167L74.9269 259.904L87.0344 269.533L81.653 273.817L70.4001 283.6L63.614 297.725C63.614 297.725 59.698 315.866 60.114 317.025C60.53 318.184 63.614 334.391 63.614 334.391L69.8552 342.899L100.51 344.82L134.619 336.838L142.427 329.955L139.409 308.125L133.181 293.971L122 275.91L109.489 270.51L118.143 264.245L123.905 249.455L121.736 234.869L112.421 226.951L99.8874 220.645H88.1769L77.2023 226.693L69.987 239.086L70.4001 243.167Z" fill="#00DC2F"/>
<path d="M40.6271 201.976C50.4437 201.855 60.189 200.292 69.551 197.337C75.117 195.573 81.551 193.905 84.485 188.956C84.9893 188.862 85.451 188.611 85.8034 188.238C86.1558 187.866 86.3806 187.391 86.446 186.882C87.946 171.091 78.1911 130.304 57.8361 125.399C68.5561 117.56 73.3701 103.071 67.2551 90.099C59.6551 73.985 36.8551 67.627 22.2551 77.906C21.766 78.2337 21.4181 78.7335 21.2809 79.306C13.0809 84.372 8.14209 92.912 10.0661 105.137C10.8284 109.586 12.5536 113.814 15.1208 117.526C17.6879 121.238 21.0353 124.345 24.9284 126.628C3.3754 134.386 -2.8036 169.728 1.7824 189.335C1.8104 189.452 1.83294 189.572 1.86394 189.687C1.90994 189.88 1.9502 190.087 1.9992 190.271C2.08677 190.611 2.23585 190.931 2.43914 191.217C7.45914 201.984 31.4181 202.092 40.6271 201.976ZM25.2341 195.834C18.6211 194.969 12.1984 193.089 7.53435 189.272C7.52189 189.101 7.49569 188.931 7.45623 188.764C2.01923 167.701 10.1333 138.729 30.7223 129.354C31.1353 129.5 51.095 129.123 51.466 128.973C74.051 132.66 78.2031 165.037 81.6061 184.205C79.1311 189.632 68.0002 192.24 62.5832 193.611C61.5832 193.864 50.1941 196.731 49.1891 196.95C49.6601 196.592 25.2341 195.834 25.2341 195.834ZM15.634 103.992C13.348 91.368 20.2771 83.846 29.9621 79.816C42.5091 76.573 57.8911 81.057 62.5851 94.337C67.5251 108.316 58.2691 122.484 43.9611 124.737C30.8001 126.812 18.0004 117.018 15.6374 103.992H15.634Z" fill="#231F20"/>
<path d="M165.264 129.614C175.081 129.494 184.826 127.931 194.188 124.976C199.754 123.212 206.188 121.543 209.122 116.595C209.626 116.501 210.088 116.25 210.441 115.877C210.793 115.504 211.018 115.03 211.084 114.521C212.584 98.73 202.829 57.942 182.474 53.038C193.193 45.199 198.007 30.709 191.892 17.738C184.292 1.624 161.492 -4.73399 146.892 5.54501C146.404 5.87303 146.056 6.37271 145.918 6.945C137.718 12.012 132.779 20.551 134.703 32.776C135.465 37.2247 137.19 41.4533 139.757 45.1656C142.325 48.878 145.672 51.9846 149.565 54.268C128.012 62.026 121.833 97.368 126.419 116.975C126.448 117.092 126.47 117.212 126.501 117.326C126.548 117.519 126.587 117.726 126.637 117.911C126.725 118.251 126.874 118.571 127.077 118.857C132.1 129.623 156.055 129.73 165.264 129.614ZM149.871 123.473C143.259 122.607 136.835 120.728 132.171 116.911C132.158 116.74 132.132 116.57 132.092 116.403C126.656 95.34 134.77 66.367 155.358 56.993C155.771 57.139 175.732 56.762 176.102 56.612C198.687 60.299 202.84 92.676 206.242 111.844C203.768 117.271 192.637 119.878 187.219 121.25C186.219 121.502 174.831 124.37 173.825 124.589C174.3 124.231 149.871 123.473 149.871 123.473ZM140.271 31.63C137.986 19.006 144.914 11.485 154.599 7.45498C167.146 4.21098 182.528 8.69601 187.222 21.976C192.162 35.955 182.907 50.122 168.599 52.376C155.437 54.451 142.633 44.657 140.274 31.63H140.271Z" fill="#231F20"/>
<path d="M294.1 189.658C303.916 189.537 313.661 187.975 323.023 185.02C328.589 183.256 335.023 181.587 337.958 176.639C338.462 176.545 338.923 176.293 339.275 175.921C339.628 175.548 339.853 175.074 339.919 174.565C341.419 158.774 331.664 117.986 311.309 113.082C322.029 105.243 326.843 90.753 320.727 77.782C313.127 61.668 290.327 55.31 275.727 65.589C275.238 65.917 274.891 66.4167 274.753 66.989C266.553 72.055 261.614 80.595 263.538 92.82C264.3 97.2687 266.025 101.497 268.592 105.209C271.16 108.922 274.507 112.028 278.4 114.312C256.848 122.07 250.668 157.412 255.255 177.019C255.283 177.136 255.305 177.255 255.337 177.37C255.383 177.563 255.423 177.77 255.472 177.955C255.559 178.295 255.709 178.615 255.912 178.901C260.932 189.667 284.891 189.774 294.1 189.658ZM278.706 183.517C272.094 182.651 265.671 180.772 261.006 176.955C260.994 176.784 260.967 176.614 260.927 176.447C255.491 155.384 263.605 126.411 284.193 117.037C284.606 117.183 304.567 116.806 304.938 116.655C327.523 120.343 331.675 152.72 335.077 171.888C332.603 177.315 321.477 179.922 316.054 181.294C315.054 181.546 303.666 184.414 302.66 184.633C303.133 184.275 278.707 183.517 278.707 183.517H278.706ZM269.106 91.674C266.82 79.05 273.748 71.528 283.434 67.499C295.98 64.255 311.363 68.74 316.056 82.02C320.996 95.999 311.741 110.166 297.433 112.42C284.274 114.495 271.469 104.7 269.111 91.674H269.106Z" fill="#231F20"/>
<path d="M247.354 344.171C257.171 344.05 266.916 342.487 276.278 339.533C281.844 337.769 288.278 336.1 291.212 331.152C291.716 331.058 292.178 330.807 292.53 330.434C292.882 330.061 293.107 329.587 293.173 329.078C294.673 313.287 284.918 272.499 264.563 267.595C275.283 259.756 280.097 245.266 273.982 232.295C266.382 216.181 243.582 209.822 228.982 220.102C228.493 220.43 228.145 220.93 228.008 221.502C219.808 226.568 214.869 235.108 216.793 247.333C217.555 251.782 219.28 256.01 221.847 259.722C224.414 263.435 227.761 266.541 231.654 268.825C210.102 276.583 203.923 311.925 208.509 331.532C208.537 331.649 208.56 331.768 208.591 331.883C208.637 332.076 208.677 332.283 208.726 332.468C208.814 332.808 208.963 333.128 209.166 333.414C214.186 344.179 238.145 344.287 247.354 344.171ZM231.961 338.03C225.348 337.164 218.925 335.285 214.261 331.468C214.249 331.297 214.223 331.127 214.183 330.96C208.746 309.897 216.86 280.924 237.449 271.55C237.862 271.696 257.822 271.318 258.193 271.168C280.778 274.856 284.93 307.233 288.333 326.401C285.858 331.828 274.727 334.435 269.31 335.806C268.31 336.059 256.921 338.927 255.916 339.146C256.387 338.787 231.961 338.03 231.961 338.03ZM222.361 246.187C220.075 233.563 227.004 226.041 236.689 222.012C249.235 218.768 264.618 223.253 269.311 236.533C274.252 250.512 264.996 264.679 250.688 266.933C237.527 269.008 224.722 259.214 222.364 246.187H222.361Z" fill="#231F20"/>
<path d="M98.1739 347.253C107.99 347.133 117.736 345.57 127.098 342.615C132.663 340.851 139.098 339.183 142.032 334.234C142.537 334.14 142.998 333.889 143.35 333.516C143.703 333.144 143.928 332.669 143.993 332.16C145.493 316.369 135.738 275.582 115.383 270.677C126.103 262.838 130.917 248.349 124.801 235.377C117.201 219.263 94.4009 212.905 79.8009 223.184C79.3114 223.511 78.9639 224.011 78.8272 224.584C70.6272 229.65 65.6879 238.184 67.6119 250.415C68.3741 254.863 70.0991 259.092 72.6661 262.804C75.2331 266.516 78.5803 269.623 82.4732 271.906C60.9212 279.664 54.7412 315.006 59.3282 334.613C59.3562 334.73 59.3782 334.85 59.4102 334.964C59.4562 335.157 59.496 335.364 59.545 335.549C59.6328 335.889 59.7818 336.209 59.9849 336.495C65.0059 347.262 88.9649 347.37 98.1739 347.253ZM82.7808 341.112C76.1678 340.247 69.7451 338.367 65.0811 334.55C65.0686 334.379 65.0421 334.209 65.002 334.042C59.566 312.979 67.6801 284.007 88.2681 274.632C88.6821 274.778 108.642 274.401 109.013 274.251C131.598 277.938 135.75 310.315 139.152 329.483C136.678 334.91 125.552 337.518 120.13 338.889C119.13 339.141 107.741 342.009 106.73 342.228C107.206 341.87 82.7808 341.112 82.7808 341.112ZM73.1812 249.27C70.8952 236.646 77.8239 229.124 87.5089 225.094C100.055 221.851 115.438 226.335 120.131 239.615C125.072 253.594 115.816 267.761 101.508 270.015C88.3469 272.09 75.5422 262.3 73.1842 249.27H73.1812Z" fill="#231F20"/>
<path d="M312.222 218.618C311.522 216.718 309.053 215.703 307.488 217.368C306.727 218.176 305.988 219.003 305.238 219.82C302.338 222.207 299.991 225.446 297.738 228.393C295.79 230.942 300.101 234.271 302.2 231.836C302.745 231.204 303.3 230.58 303.845 229.951C302.51 238.751 301.005 248.212 294.837 254.069C294.578 254.327 294.414 254.665 294.37 255.027C294.327 255.39 294.407 255.757 294.597 256.069C294.59 256.136 294.57 256.197 294.567 256.269C294.555 256.567 294.542 256.865 294.53 257.163C294.54 258.097 294.916 258.991 295.577 259.651C296.238 260.312 297.131 260.687 298.066 260.697C304.216 260.638 305.582 252.963 307.254 248.278C308.981 243.499 310.298 238.581 311.188 233.578C311.394 234.437 311.773 235.245 312.3 235.954C312.827 236.663 313.491 237.258 314.254 237.704C314.575 237.881 314.932 237.984 315.298 238.005C315.664 238.027 316.031 237.966 316.371 237.828C316.711 237.69 317.016 237.478 317.263 237.207C317.51 236.936 317.694 236.613 317.801 236.262C318.975 233.432 316.951 230.481 315.888 227.838C314.656 224.765 313.364 221.717 312.222 218.618Z" fill="#231F20"/>
<path d="M228.1 113.813C233.848 114.336 230.118 106.337 229.633 103.813C229.59 103.566 229.561 103.316 229.544 103.066C230.973 104.566 233.704 105.366 235.263 106.247C238.303 108.003 241.187 110.014 243.885 112.259C247.485 115.187 252.456 110.534 249.085 107.059C245.695 103.635 241.531 101.077 236.945 99.6C235.238 99.034 233.459 98.7151 231.662 98.653C234.47 98.0027 237.161 96.9234 239.639 95.453C240.031 95.2072 240.334 94.842 240.502 94.4112C240.671 93.9804 240.696 93.5069 240.575 93.0605C240.454 92.614 240.193 92.2183 239.83 91.9315C239.467 91.6448 239.022 91.4823 238.559 91.468C235.586 91.4234 232.623 91.8366 229.775 92.693C227.412 93.264 224.912 93.569 223.597 95.844C221.222 99.953 223.233 107.227 224.773 111.283C225.001 111.995 225.443 112.62 226.038 113.073C226.633 113.525 227.353 113.784 228.1 113.813Z" fill="#231F20"/>
<path d="M82.8122 119.83C85.5842 121.058 88.2633 122.552 91.0393 120.704C91.6436 120.326 92.0806 119.731 92.2614 119.041C92.4423 118.351 92.3534 117.618 92.0124 116.992C91.2694 115.358 89.5782 114.715 87.9382 114.157C88.0769 114.057 88.2075 113.945 88.3283 113.824C90.5117 111.35 92.8694 109.036 95.384 106.9C96.6762 106.313 98.0074 105.814 99.3674 105.408C103.388 104.23 108.381 103.928 108.344 98.601C108.337 98.0833 108.213 97.5739 107.983 97.1102C107.752 96.6465 107.421 96.2404 107.013 95.9215C106.605 95.6027 106.131 95.3793 105.625 95.2678C105.12 95.1562 104.595 95.1594 104.091 95.277C104.047 95.277 104.011 95.261 103.965 95.265C99.1051 95.834 94.5034 97.974 90.3484 100.495C88.4467 101.617 86.6056 102.838 84.8332 104.155C85.0332 102.614 85.2334 101.081 85.2824 99.51C85.3554 97.378 82.6674 97.05 81.5974 98.51C79.7251 101.228 78.4194 104.295 77.759 107.529C77.206 109.889 76.2952 112.868 77.1862 115.229C78.1382 117.741 80.5122 118.81 82.8122 119.83Z" fill="#231F20"/>
<path d="M45.0332 240.959C43.4342 243.977 42.1325 247.144 41.147 250.414C36.768 241.546 33.5738 232.629 36.3418 222.429C37.1568 219.429 34.6739 217.477 32.2769 217.486C31.8976 217.325 31.4739 217.302 31.0791 217.42C30.6844 217.538 30.3438 217.79 30.1153 218.133C29.3729 218.652 28.8438 219.423 28.627 220.302C27.241 225.506 27.0852 230.961 28.1719 236.235C28.2155 237.541 28.3257 238.845 28.502 240.14C29.283 245.575 32.2019 249.769 34.8159 254.267C35.0033 254.637 35.1915 255.006 35.3809 255.374C32.3569 254.335 29.36 253.215 26.335 252.169C24.465 251.52 22.9961 254.164 24.4121 255.469C29.3831 260.069 35.3218 262.7 41.7588 264.622C44.1348 265.332 45.987 263.422 46.21 261.231C46.7654 255.402 48.471 249.741 51.2281 244.575C53.4001 240.507 47.1902 236.874 45.0332 240.959Z" fill="#231F20"/>
<path d="M191.452 295.906C189.752 295.313 188.085 294.627 186.459 293.852C184.264 292.726 182.176 291.403 180.22 289.9C177.085 287.339 172.564 291.683 175.701 294.42C177.767 296.269 180.03 297.885 182.448 299.24C181.737 299.331 181.026 299.432 180.315 299.527C173.238 299.995 166.14 300.056 159.055 299.709C153.811 299.5 153.835 307.603 159.055 307.849C160.187 307.903 161.312 307.896 162.44 307.925C168.932 309.494 175.652 309.887 182.282 309.086C181.429 310.179 180.741 311.392 180.241 312.686C179.085 315.811 182.892 317.821 185.376 316.633C188.482 315.148 190.46 311.612 192.34 308.815C193.85 306.569 196.433 303.305 196.088 300.408C195.78 297.826 193.655 296.68 191.452 295.906Z" fill="#231F20"/>
<path d="M210.705 212.5C211.167 211.926 211.5 211.259 211.679 210.545C212.67 208.727 212.673 206.074 210.96 204.745C208.177 202.588 204.216 199.645 200.377 199.406C200.652 196.207 200.568 192.987 200.126 189.806C202.146 189.284 204.107 188.553 205.976 187.626C208.247 186.695 210.023 185.384 210.25 182.747C210.491 179.921 209.172 176.74 208.298 174.096C207.193 170.82 205.891 167.614 204.398 164.496C203.152 161.85 200.412 162.136 198.766 163.715C196.766 164.487 194.972 166.404 193.366 167.676C192.896 168.048 192.412 168.428 191.929 168.817C187.029 164.612 180.413 161.803 173.938 161.917C173.181 158.008 170.661 154.154 168.413 151.117C165.502 147.191 161.118 147.472 157.14 149.436C153.505 151.231 148.02 152.989 146.485 157.142C145.191 160.642 147.431 165.03 149.235 168.451C144.05 170.435 139.411 175.689 137.623 180.633C134.848 179.29 131.193 178.433 128.896 180.021C125.489 182.374 125.685 188.36 125.203 192.048C124.657 196.221 123.862 201.414 128.413 203.661C131.597 205.232 135.679 204.179 138.951 202.848C139.987 205.139 141.218 207.336 142.632 209.415C144.207 212.015 146.108 214.403 148.289 216.521C145.926 219.221 144.053 223.841 144.603 226.909C145.409 231.409 152.522 232.927 156.143 234.432C160.107 236.082 165.971 239.802 169.17 234.949C170.203 233.382 170.203 231.277 170.37 229.48C170.392 229.23 170.416 228.992 170.44 228.753C171.121 228.847 171.815 228.768 172.457 228.524C176.935 226.95 181.227 224.891 185.257 222.383C186.126 221.833 187.033 221.269 187.89 220.66C189.897 224.49 193.579 228.091 197.517 227.002C200.507 226.176 202.21 223.154 204.034 220.866L210.705 212.5ZM168.305 182.164C172.28 181.991 176.123 182.241 178.777 185.737C179.922 187.34 180.654 189.2 180.908 191.153C180.917 191.21 180.917 191.267 180.925 191.323C180.304 194.274 178.729 196.938 176.442 198.903C174.693 200.416 172.008 202.331 169.684 202.676C165.748 203.262 161.784 198.976 160.318 195.834C157.184 189.146 161.738 183.164 168.3 182.168L168.305 182.164ZM163.205 173.248C163.205 173.213 163.205 173.177 163.205 173.142C163.255 173.15 163.305 173.163 163.355 173.168C163.3 173.2 163.251 173.224 163.2 173.252L163.205 173.248ZM168.12 220.755C168.141 220.724 168.163 220.694 168.184 220.661C168.33 220.641 168.475 220.612 168.617 220.576C168.736 220.628 168.86 220.676 168.986 220.714C168.854 220.804 168.727 220.902 168.606 221.006C168.448 220.913 168.285 220.83 168.115 220.759L168.12 220.755Z" fill="#231F20"/>
</svg>
