<svg width="341" height="348" viewBox="0 0 341 348" fill="none" xmlns="http://www.w3.org/2000/svg">
<path d="M13.4352 96.1611L17.9621 112.899L30.069 122.527L24.6882 126.812L13.4352 136.598L6.64911 150.723C6.64911 150.723 2.73311 168.863 3.14911 170.023C3.56511 171.183 6.64911 187.389 6.64911 187.389L12.8903 195.896L43.5451 197.818L77.654 189.835L85.4621 182.953L82.444 161.123L76.216 146.968L65.0373 128.9L52.5251 123.5L61.1794 117.234L66.9411 102.445L64.7722 87.858L55.4572 79.941L42.924 73.634H31.2131L20.238 79.6821L13.0231 92.076L13.4352 96.1611Z" fill="white"/>
<path d="M139.415 27.009L143.943 43.7471L156.049 53.3751L150.669 57.6591L139.415 67.4451L132.63 81.5701C132.63 81.5701 128.713 99.7111 129.13 100.87C129.547 102.029 132.63 118.237 132.63 118.237L138.87 126.744L169.525 128.665L203.634 120.683L211.442 113.8L208.425 91.97L202.196 77.816L191.017 59.7521L178.505 54.3521L187.159 48.087L192.921 33.298L190.752 18.7111L181.438 10.7941L168.904 4.48706H157.193L146.218 10.535L139 22.9271L139.415 27.009Z" fill="white"/>
<path d="M266.481 85.659L271.009 102.397L283.115 112.025L277.735 116.309L266.481 126.095L259.696 140.221C259.696 140.221 255.779 158.361 256.196 159.521C256.613 160.681 259.696 176.887 259.696 176.887L265.936 185.394L296.591 187.315L330.7 179.333L338.508 172.45L335.491 150.62L329.262 136.466L318.083 118.4L305.571 113L314.225 106.735L319.987 91.946L317.818 77.359L308.504 69.442L295.97 63.135H284.259L273.284 69.183L266.069 81.577L266.481 85.659Z" fill="white"/>
<path d="M219.506 240.172L224.034 256.91L236.14 266.538L230.76 270.822L219.506 280.608L212.721 294.733C212.721 294.733 208.805 312.874 209.216 314.033C209.627 315.192 212.721 331.4 212.721 331.4L218.962 339.907L249.617 341.828L283.726 333.846L291.534 326.963L288.516 305.133L282.287 290.979L271.108 272.915L258.596 267.515L267.25 261.25L273.012 246.461L270.843 231.874L261.529 223.957L249 217.648H237.289L226.314 223.696L219.1 236.09L219.506 240.172Z" fill="white"/>
<path d="M70.5544 243.254L75.0822 259.992L87.1882 269.62L81.8083 273.904L70.5544 283.69L63.7692 297.816C63.7692 297.816 59.8532 315.956 60.2692 317.116C60.6852 318.276 63.7692 334.482 63.7692 334.482L70.0099 342.989L100.665 344.911L134.774 336.928L142.582 330.046L139.564 308.216L133.335 294.061L122.156 276L109.644 270.6L118.298 264.334L124.06 249.545L121.891 234.958L112.577 227.041L100.043 220.734H88.3322L77.3571 226.782L70.1432 239.176L70.5544 243.254Z" fill="white"/>
<path d="M40.7833 202.063C50.5998 201.942 60.345 200.379 69.7071 197.425C75.2721 195.661 81.7072 193.992 84.6412 189.044C85.1452 188.95 85.6063 188.698 85.9586 188.326C86.3109 187.953 86.5361 187.478 86.6021 186.97C88.1021 171.179 78.3473 130.391 57.9923 125.487C68.7123 117.648 73.5262 103.158 67.4102 90.187C59.8102 74.073 37.0102 67.715 22.4102 77.994C21.921 78.3217 21.5728 78.8215 21.4351 79.394C13.2351 84.46 8.29627 93 10.2213 105.225C10.9831 109.674 12.7075 113.902 15.2745 117.615C17.8415 121.327 21.1889 124.434 25.0821 126.717C3.53011 134.475 -2.64991 169.817 1.93709 189.424C1.96509 189.541 1.98712 189.66 2.01912 189.775C2.06512 189.968 2.10489 190.175 2.15389 190.36C2.24125 190.7 2.39083 191.02 2.59432 191.306C7.61532 202.072 31.5743 202.179 40.7833 202.063ZM25.3892 195.922C18.7772 195.056 12.354 193.177 7.68905 189.36C7.67662 189.189 7.6501 189.019 7.60994 188.852C2.17394 167.789 10.2881 138.816 30.8761 129.442C31.2891 129.588 51.2502 129.211 51.6212 129.06C74.2062 132.748 78.3578 165.125 81.7598 184.293C79.2859 189.72 68.1599 192.327 62.7379 193.699C61.7379 193.951 50.349 196.819 49.338 197.038C49.815 196.68 25.3892 195.922 25.3892 195.922ZM15.7891 104.079C13.5031 91.455 20.4323 83.933 30.1173 79.904C42.6633 76.66 58.0458 81.145 62.7388 94.425C67.6798 108.404 58.4243 122.571 44.1163 124.825C30.9563 126.9 18.1511 117.106 15.793 104.079H15.7891Z" fill="#231F20"/>
<path d="M165.42 129.7C175.237 129.579 184.982 128.016 194.344 125.062C199.91 123.298 206.344 121.629 209.278 116.681C209.782 116.587 210.244 116.336 210.596 115.963C210.948 115.59 211.173 115.116 211.239 114.607C212.739 98.816 202.984 58.028 182.629 53.124C193.349 45.285 198.163 30.795 192.048 17.824C184.448 1.70996 161.648 -4.64904 147.048 5.63096C146.559 5.95841 146.211 6.45837 146.074 7.03099C137.874 12.097 132.935 20.637 134.859 32.862C135.621 37.3107 137.347 41.5391 139.914 45.2514C142.481 48.9638 145.828 52.0704 149.721 54.354C128.168 62.112 121.989 97.454 126.575 117.06C126.603 117.178 126.626 117.297 126.657 117.412C126.703 117.605 126.743 117.812 126.792 117.997C126.88 118.336 127.029 118.657 127.232 118.943C132.252 129.71 156.211 129.818 165.42 129.7ZM150.027 123.559C143.414 122.693 136.991 120.814 132.327 116.996C132.315 116.825 132.288 116.656 132.249 116.489C126.812 95.425 134.926 66.453 155.515 57.079C155.928 57.224 175.888 56.847 176.259 56.697C198.844 60.384 202.996 92.762 206.399 111.93C203.924 117.357 192.793 119.964 187.376 121.33C186.376 121.583 174.987 124.45 173.982 124.67C174.453 124.318 150.027 123.561 150.027 123.561V123.559ZM140.427 31.716C138.141 19.092 145.07 11.57 154.755 7.53996C167.301 4.29696 182.684 8.78199 187.377 22.062C192.318 36.041 183.062 50.208 168.754 52.462C155.593 54.539 142.788 44.745 140.43 31.718L140.427 31.716Z" fill="#231F20"/>
<path d="M294.256 189.746C304.073 189.625 313.818 188.062 323.18 185.107C328.746 183.344 335.18 181.675 338.114 176.727C338.618 176.633 339.08 176.381 339.432 176.009C339.784 175.636 340.01 175.162 340.075 174.653C341.575 158.862 331.82 118.074 311.465 113.169C322.185 105.331 326.999 90.8411 320.884 77.8691C313.284 61.7561 290.484 55.3971 275.884 65.6761C275.395 66.0042 275.048 66.5038 274.91 67.076C266.71 72.142 261.771 80.682 263.695 92.907C264.457 97.3556 266.182 101.584 268.749 105.296C271.316 109.008 274.664 112.115 278.557 114.398C257.004 122.156 250.825 157.498 255.411 177.105C255.439 177.223 255.462 177.342 255.493 177.457C255.539 177.65 255.579 177.857 255.629 178.042C255.716 178.382 255.865 178.702 256.069 178.988C261.088 189.754 285.047 189.862 294.256 189.746ZM278.863 183.605C272.25 182.739 265.827 180.86 261.163 177.042C261.15 176.871 261.124 176.701 261.084 176.534C255.648 155.471 263.761 126.499 284.35 117.125C284.763 117.27 304.724 116.893 305.094 116.743C327.679 120.43 331.831 152.808 335.234 171.976C332.759 177.403 321.634 180.01 316.211 181.376C315.211 181.629 303.823 184.496 302.817 184.716C303.289 184.362 278.863 183.6 278.863 183.6V183.605ZM269.263 91.7621C266.977 79.1381 273.906 71.616 283.591 67.586C296.138 64.343 311.52 68.827 316.214 82.107C321.154 96.087 311.899 110.254 297.59 112.507C284.429 114.582 271.625 104.789 269.266 91.7621H269.263Z" fill="#231F20"/>
<path d="M247.51 344.259C257.326 344.138 267.072 342.575 276.433 339.62C281.999 337.857 288.433 336.188 291.368 331.24C291.872 331.146 292.333 330.894 292.686 330.521C293.038 330.148 293.263 329.674 293.329 329.165C294.829 313.374 285.074 272.587 264.719 267.682C275.439 259.844 280.253 245.354 274.137 232.382C266.537 216.269 243.737 209.91 229.137 220.189C228.648 220.517 228.3 221.016 228.162 221.589C219.962 226.655 215.023 235.195 216.947 247.42C217.709 251.868 219.434 256.097 222.002 259.809C224.569 263.521 227.916 266.627 231.809 268.911C210.257 276.669 204.077 312.011 208.664 331.618C208.692 331.736 208.714 331.855 208.746 331.97C208.792 332.163 208.832 332.37 208.881 332.555C208.968 332.895 209.118 333.215 209.321 333.501C214.342 344.267 238.3 344.375 247.51 344.259ZM232.116 338.118C225.504 337.252 219.081 335.373 214.416 331.555C214.404 331.384 214.377 331.214 214.337 331.047C208.901 309.984 217.015 281.012 237.603 271.638C238.016 271.783 257.977 271.406 258.348 271.256C280.933 274.943 285.085 307.321 288.487 326.488C286.013 331.916 274.887 334.523 269.464 335.894C268.464 336.147 257.076 339.014 256.07 339.234C256.542 338.875 232.116 338.118 232.116 338.118ZM222.516 246.275C220.23 233.651 227.158 226.129 236.844 222.099C249.39 218.856 264.773 223.34 269.466 236.62C274.407 250.6 265.151 264.767 250.843 267.02C237.683 269.095 224.878 259.3 222.52 246.275H222.516Z" fill="#231F20"/>
<path d="M98.3302 347.341C108.146 347.22 117.891 345.658 127.253 342.703C132.819 340.939 139.253 339.27 142.187 334.322C142.691 334.228 143.153 333.977 143.505 333.604C143.858 333.231 144.083 332.757 144.149 332.248C145.649 316.457 135.894 275.669 115.539 270.765C126.258 262.926 131.073 248.436 124.957 235.465C117.357 219.351 94.5571 212.993 79.9571 223.272C79.4684 223.6 79.1206 224.1 78.983 224.672C70.783 229.738 65.8441 238.278 67.7681 250.503C68.5302 254.952 70.2552 259.18 72.8223 262.893C75.3895 266.605 78.7366 269.712 82.63 271.995C61.078 279.753 54.898 315.095 59.484 334.702C59.513 334.819 59.535 334.938 59.567 335.053C59.613 335.246 59.6522 335.453 59.7022 335.638C59.7893 335.978 59.9385 336.298 60.1422 336.584C65.1612 347.349 89.1202 347.457 98.3302 347.341ZM82.9361 341.2C76.3241 340.334 69.8999 338.455 65.2359 334.638C65.224 334.467 65.1979 334.297 65.1573 334.13C59.7213 313.067 67.8349 284.094 88.4229 274.72C88.8359 274.866 108.797 274.488 109.167 274.338C131.752 278.026 135.905 310.403 139.307 329.571C136.833 334.998 125.707 337.605 120.284 338.976C119.284 339.229 107.896 342.097 106.89 342.316C107.362 341.957 82.9361 341.2 82.9361 341.2ZM73.336 249.357C71.051 236.733 77.9791 229.211 87.6651 225.182C100.211 221.938 115.593 226.423 120.287 239.703C125.227 253.682 115.972 267.849 101.664 270.103C88.5001 272.178 75.6999 262.384 73.3389 249.357H73.336Z" fill="#231F20"/>
<path d="M312.378 218.705C311.678 216.805 309.209 215.791 307.643 217.455C306.883 218.264 306.143 219.091 305.393 219.907C302.493 222.295 300.146 225.533 297.893 228.48C295.945 231.029 300.257 234.358 302.356 231.923C302.9 231.292 303.456 230.668 304 230.039C302.666 238.839 301.16 248.299 294.992 254.156C294.734 254.415 294.571 254.752 294.527 255.115C294.484 255.477 294.563 255.844 294.753 256.156C294.746 256.222 294.726 256.284 294.723 256.356C294.71 256.656 294.699 256.956 294.686 257.249C294.696 258.184 295.071 259.077 295.732 259.738C296.393 260.399 297.287 260.774 298.222 260.784C304.372 260.725 305.738 253.05 307.409 248.365C309.137 243.586 310.453 238.668 311.343 233.665C311.55 234.524 311.928 235.332 312.455 236.041C312.982 236.75 313.647 237.345 314.41 237.791C314.731 237.968 315.088 238.071 315.454 238.092C315.821 238.113 316.187 238.053 316.527 237.915C316.867 237.776 317.171 237.564 317.419 237.293C317.666 237.022 317.85 236.7 317.957 236.349C319.131 233.519 317.107 230.567 316.044 227.925C314.812 224.853 313.519 221.8 312.378 218.705Z" fill="#231F20"/>
<path d="M228.253 113.9C234.001 114.422 230.271 106.424 229.786 103.9C229.74 103.658 229.718 103.406 229.696 103.153C231.125 104.653 233.857 105.453 235.415 106.334C238.455 108.089 241.339 110.101 244.037 112.346C247.643 115.273 252.608 110.621 249.237 107.146C245.846 103.723 241.683 101.165 237.097 99.688C235.39 99.1221 233.611 98.8033 231.814 98.741C234.621 98.0909 237.312 97.0115 239.79 95.541C240.182 95.2952 240.484 94.93 240.653 94.4992C240.821 94.0685 240.847 93.595 240.726 93.1485C240.605 92.7021 240.344 92.3063 239.981 92.0196C239.618 91.7328 239.172 91.5704 238.71 91.5561C235.737 91.5119 232.774 91.9251 229.927 92.781C227.564 93.352 225.064 93.658 223.749 95.933C221.374 100.042 223.384 107.316 224.925 111.372C225.153 112.084 225.596 112.708 226.191 113.16C226.786 113.613 227.506 113.871 228.253 113.9Z" fill="#231F20"/>
<path d="M82.9669 119.917C85.7389 121.146 88.4189 122.64 91.1949 120.791C91.799 120.413 92.2363 119.818 92.4171 119.128C92.5979 118.439 92.5088 117.706 92.1681 117.08C91.4241 115.446 89.7333 114.802 88.0943 114.244C88.2333 114.144 88.3634 114.033 88.484 113.911C90.6672 111.438 93.025 109.124 95.5392 106.988C96.8313 106.4 98.1624 105.901 99.5231 105.496C103.544 104.317 108.537 104.016 108.5 98.6891C108.493 98.1713 108.369 97.6617 108.139 97.1979C107.908 96.7341 107.577 96.3279 107.169 96.0089C106.761 95.69 106.287 95.4664 105.781 95.3549C105.276 95.2433 104.751 95.2464 104.247 95.3641C104.202 95.3641 104.166 95.3481 104.12 95.3531C99.2612 95.9211 94.658 98.0621 90.503 100.583C88.6017 101.705 86.7609 102.927 84.9889 104.243C85.1889 102.702 85.3831 101.169 85.4381 99.597C85.5111 97.466 82.822 97.137 81.753 98.597C79.8801 101.315 78.5749 104.382 77.9151 107.616C77.3621 109.975 76.4509 112.954 77.3419 115.316C78.2939 117.828 80.6679 118.9 82.9669 119.917Z" fill="#231F20"/>
<path d="M45.1889 241.047C43.5896 244.065 42.2876 247.232 41.3017 250.502C36.9227 241.633 33.7289 232.717 36.5019 222.517C37.3179 219.517 34.835 217.565 32.438 217.573C32.0583 217.412 31.6345 217.389 31.2397 217.508C30.8449 217.626 30.5037 217.878 30.2749 218.221C29.5326 218.74 29.0041 219.511 28.7871 220.39C27.4012 225.593 27.2456 231.048 28.333 236.322C28.3763 237.629 28.4865 238.933 28.6631 240.228C29.4441 245.663 32.363 249.857 34.976 254.355C35.164 254.725 35.352 255.093 35.542 255.462C32.517 254.423 29.5201 253.303 26.4961 252.256C24.6251 251.608 23.1567 254.256 24.5717 255.556C29.5437 260.156 35.4829 262.788 41.9189 264.71C44.2959 265.42 46.1481 263.51 46.3711 261.319C46.9266 255.49 48.6319 249.829 51.3881 244.663C53.5602 240.594 47.3459 236.962 45.1889 241.047Z" fill="#231F20"/>
<path d="M191.608 295.994C189.908 295.401 188.241 294.715 186.615 293.939C184.42 292.814 182.332 291.491 180.376 289.987C177.241 287.427 172.72 291.77 175.856 294.508C177.922 296.356 180.185 297.973 182.603 299.328C181.893 299.419 181.182 299.52 180.471 299.615C173.394 300.083 166.295 300.144 159.211 299.797C153.967 299.587 153.991 307.691 159.211 307.937C160.343 307.99 161.467 307.984 162.596 308.012C169.088 309.581 175.808 309.975 182.438 309.174C181.584 310.267 180.896 311.48 180.397 312.774C179.241 315.898 183.048 317.909 185.531 316.721C188.637 315.235 190.615 311.699 192.495 308.902C194.006 306.657 196.589 303.393 196.243 300.496C195.936 297.913 193.811 296.768 191.608 295.994Z" fill="#231F20"/>
<path d="M210.861 212.592C211.323 212.018 211.655 211.351 211.834 210.637C212.825 208.819 212.834 206.166 211.115 204.837C208.332 202.679 204.371 199.737 200.533 199.498C200.808 196.299 200.724 193.079 200.282 189.898C202.302 189.375 204.262 188.645 206.132 187.718C208.403 186.786 210.179 185.475 210.405 182.839C210.647 180.013 209.327 176.832 208.454 174.187C207.348 170.912 206.046 167.706 204.554 164.587C203.307 161.942 200.568 162.228 198.922 163.807C196.922 164.579 195.128 166.495 193.522 167.768C193.053 168.14 192.569 168.52 192.086 168.909C187.186 164.703 180.569 161.894 174.095 162.009C173.338 158.1 170.818 154.247 168.569 151.214C165.658 147.287 161.274 147.569 157.297 149.533C153.661 151.328 148.177 153.086 146.642 157.239C145.348 160.739 147.588 165.126 149.391 168.547C144.206 170.532 139.567 175.785 137.78 180.73C135.005 179.387 131.35 178.53 129.053 180.118C125.646 182.471 125.842 188.457 125.359 192.145C124.814 196.318 124.019 201.51 128.569 203.758C131.754 205.329 135.836 204.276 139.108 202.944C140.143 205.235 141.375 207.432 142.789 209.511C144.364 212.112 146.265 214.5 148.446 216.618C146.083 219.318 144.21 223.938 144.76 227.006C145.566 231.506 152.679 233.023 156.3 234.529C160.264 236.179 166.128 239.899 169.326 235.045C170.359 233.479 170.36 231.374 170.526 229.576C170.549 229.326 170.573 229.088 170.596 228.85C171.277 228.943 171.971 228.865 172.614 228.621C177.092 227.047 181.384 224.988 185.414 222.48C186.283 221.93 187.19 221.366 188.046 220.756C190.054 224.587 193.736 228.188 197.673 227.099C200.663 226.272 202.367 223.251 204.19 220.963L210.861 212.592ZM168.461 182.255C172.437 182.083 176.28 182.333 178.934 185.829C180.078 187.432 180.809 189.292 181.064 191.245C181.073 191.302 181.073 191.358 181.082 191.415C180.46 194.366 178.885 197.029 176.598 198.995C174.85 200.508 172.165 202.422 169.84 202.768C165.904 203.354 161.94 199.068 160.475 195.926C157.34 189.233 161.894 183.251 168.457 182.255H168.461ZM163.361 173.34C163.361 173.305 163.361 173.268 163.361 173.234C163.411 173.242 163.461 173.255 163.512 173.259L163.361 173.34ZM168.276 220.847C168.298 220.816 168.319 220.785 168.34 220.753C168.486 220.733 168.63 220.704 168.773 220.668C168.893 220.72 169.016 220.768 169.143 220.806C169.011 220.896 168.884 220.994 168.762 221.098C168.604 221.003 168.44 220.919 168.27 220.847H168.276Z" fill="#231F20"/>
</svg>
