<svg width="145" height="148" viewBox="0 0 145 148" fill="none" xmlns="http://www.w3.org/2000/svg">
<path d="M141.957 106.912C142.716 105.969 143.262 104.873 143.557 103.699C145.185 100.711 145.192 96.352 142.375 94.169C137.802 90.624 131.293 85.795 124.985 85.396C125.436 80.1401 125.298 74.8502 124.573 69.625C127.808 69.049 130.834 67.419 134.186 66.043C137.918 64.512 140.837 62.358 141.209 58.025C141.609 53.382 139.437 48.154 138.002 43.808C136.185 38.4226 134.045 33.1517 131.594 28.024C129.545 23.677 125.043 24.147 122.338 26.742C119.048 28.011 116.104 31.16 113.467 33.251C112.695 33.862 111.899 34.486 111.106 35.126C103.058 28.215 92.1808 23.599 81.5408 23.79C80.2978 17.366 76.1567 11.034 72.4617 6.04997C67.6777 -0.403033 60.4738 0.0599666 53.9368 3.28697C47.9638 6.23697 38.951 9.12599 36.428 15.95C34.302 21.701 37.9826 28.912 40.9456 34.534C32.4256 37.795 24.803 46.428 21.866 54.554C17.305 52.347 11.2987 50.937 7.5237 53.547C1.9237 57.414 2.24685 67.247 1.45485 73.312C0.554851 80.169 -0.745246 88.702 6.72975 92.395C11.9628 94.977 18.6706 93.246 24.0466 91.058C25.7485 94.8229 27.773 98.4337 30.0969 101.85C32.6239 105.65 35.6837 110.291 39.3967 113.527C35.5127 117.97 32.4346 125.556 33.3396 130.598C34.6626 137.993 46.353 140.486 52.303 142.961C58.817 145.672 68.4528 151.785 73.7088 143.81C75.4088 141.235 75.4086 137.776 75.6746 134.822C75.7116 134.411 75.7508 134.022 75.7898 133.628C76.9089 133.783 78.0488 133.653 79.1048 133.252C86.4643 130.666 93.5188 127.281 100.142 123.16C101.57 122.26 103.061 121.33 104.469 120.329C107.769 126.623 113.818 132.541 120.289 130.751C125.202 129.393 128.001 124.427 130.998 120.668L141.957 106.912ZM72.2757 57.06C78.8076 56.776 85.1236 57.187 89.4846 62.932C91.3642 65.5664 92.5663 68.623 92.9846 71.832C92.9996 71.926 92.9999 72.019 93.0139 72.111C91.9933 76.9598 89.4041 81.3376 85.6467 84.568C82.7727 87.054 78.3608 90.2 74.5408 90.768C68.0728 91.731 61.5667 84.69 59.1497 79.525C54.0067 68.527 61.4897 58.7 72.2757 57.06ZM63.8919 42.409C63.8919 42.352 63.8917 42.292 63.8977 42.235C63.9797 42.248 64.0618 42.27 64.1458 42.277C64.0608 42.322 63.9759 42.364 63.8919 42.409ZM71.9675 120.477C72.0035 120.427 72.039 120.377 72.074 120.322C72.3133 120.288 72.5506 120.242 72.7849 120.183C72.9849 120.268 73.1849 120.341 73.3919 120.41C73.1751 120.558 72.9664 120.718 72.7669 120.889C72.51 120.734 72.2428 120.596 71.9675 120.477Z" fill="#231F20"/>
</svg>
