<svg width="51" height="41" viewBox="0 0 51 41" fill="none" xmlns="http://www.w3.org/2000/svg">
<path d="M29.6739 1.06699C21.0129 4.92699 32.5451 13.067 35.1881 16.183C35.44 16.4927 35.6754 16.8155 35.8932 17.15C32.6842 16.208 28.1423 17.275 25.2223 17.293C19.5156 17.2796 13.8198 16.7862 8.19591 15.818C0.756912 14.627 -2.78607 25.055 4.73693 27.199C12.3084 29.253 20.2588 29.485 27.9371 27.876C30.8311 27.2983 33.6309 26.3224 36.2569 24.976C32.9049 28.276 29.4861 31.645 27.2701 35.791C26.8967 36.4384 26.7466 37.1906 26.8424 37.9318C26.9382 38.673 27.2747 39.3622 27.8004 39.8934C28.3261 40.4246 29.0119 40.7684 29.7521 40.8718C30.4922 40.9753 31.2458 40.8327 31.8971 40.466C36.3271 38.392 39.9769 35.01 43.5699 31.755C46.5229 29.077 49.8793 26.655 50.0123 22.446C50.2533 14.841 41.7499 6.33699 36.4059 1.92999C35.5047 1.11857 34.3777 0.601276 33.1749 0.447083C31.9721 0.292889 30.7507 0.509125 29.6739 1.06699Z" fill="#231F20"/>
</svg>
