<svg width="71" height="48" viewBox="0 0 71 48" fill="none" xmlns="http://www.w3.org/2000/svg">
<path d="M31.8509 11.772C37.3516 12.8902 42.9479 13.4706 48.5609 13.505C36.6169 24.528 24.046 33.705 6.68296 34.082C1.56896 34.191 -0.347944 39.011 0.783056 42.782C0.70615 43.4549 0.866333 44.1335 1.23618 44.7009C1.60603 45.2683 2.16224 45.6888 2.80893 45.89C3.9713 46.8191 5.4313 47.2945 6.91782 47.2281C15.7641 46.9948 24.4348 44.7054 32.243 40.541C34.2814 39.8652 36.284 39.0858 38.243 38.206C46.443 34.45 51.703 27.906 57.578 21.691C58.0733 21.2243 58.5672 20.7577 59.0599 20.291C58.8279 25.54 58.4598 30.7841 58.2108 36.0381C58.0578 39.2871 62.9109 40.3741 64.3109 37.5381C69.2469 27.5651 70.6401 16.98 70.6791 5.93802C70.6941 1.86202 66.823 -0.168961 63.266 0.497039C53.8197 2.32995 44.1038 2.27219 34.68 0.327057C27.249 -1.21294 24.4099 10.27 31.8509 11.772Z" fill="#231F20"/>
</svg>
