<svg width="76" height="42" viewBox="0 0 76 42" fill="none" xmlns="http://www.w3.org/2000/svg">
<path d="M1.1766 14.053C-0.323399 10.941 1.64908 5.86702 5.84408 5.03602C7.88308 4.63602 9.91504 4.283 11.95 3.904C18.827 1.653 26.0718 1.16802 32.8128 0.544016C38.6428 0.00501579 37.19 10.483 31.305 11.386C29.779 11.621 28.251 11.877 26.724 12.119C39.724 19.053 53.7877 26.386 69.4237 22.388C69.7219 22.2972 70.0359 22.2691 70.3455 22.3054C70.6552 22.3417 70.9538 22.4417 71.223 22.599C71.4921 22.7563 71.7259 22.9675 71.9095 23.2195C72.0931 23.4714 72.2226 23.7586 72.2899 24.063C72.3839 24.12 72.4899 24.152 72.5789 24.218C72.9789 24.505 73.3719 24.795 73.7689 25.082C76.2919 26.918 76.0779 31.505 73.6029 34.508C65.3919 44.479 53.7889 38.763 45.6029 36.64C37.3291 34.5519 29.297 31.6024 21.638 27.84C23.057 30.561 23.99 33.502 22.847 37.112C21.809 40.396 19.0338 41.936 16.3148 41.405C11.1498 40.391 10.0596 34.035 8.09262 29.566C5.79962 24.386 3.6226 19.123 1.1766 14.053Z" fill="#231F20"/>
</svg>
