<svg width="155" height="163" viewBox="0 0 155 163" fill="none" xmlns="http://www.w3.org/2000/svg">
<path d="M147.057 120.499C163.697 88.2455 152.491 48.948 125.987 25.56C112.815 14.0001 96.9516 5.93397 79.851 2.102C70.74 0.0810041 61.0575 -0.616105 51.9995 2.06489C43.2055 4.66489 35.3801 9.90434 28.5561 15.9213C-2.28291 43.1213 -8.3437 90.2138 14.0893 124.569C14.4955 125.225 15.046 125.779 15.6996 126.189C16.3533 126.599 17.0923 126.855 17.8598 126.935C29.9598 145.221 49.9282 158.321 71.8012 161.398C102.385 165.699 133.109 147.526 147.057 120.499ZM82.8393 151.612C52.0963 152.455 23.4013 129.002 17.3393 99.0307C17.1829 97.9742 16.6524 97.0084 15.8452 96.309C15.0379 95.6097 14.007 95.2225 12.9389 95.2182C7.93191 73.4362 12.6385 49.8814 27.4575 32.0424C37.4895 19.9614 51.1576 9.97046 67.4956 10.7915C82.8465 11.5625 98.509 18.3397 111.02 26.9917C136.314 44.4917 151.859 77.4086 141.337 107.618C132.908 131.826 108.728 150.902 82.8393 151.612Z" fill="#020100"/>
<path d="M99.499 91.2456C100.52 91.3804 101.56 91.2174 102.491 90.7769C103.423 90.3363 104.206 89.6364 104.75 88.7612C105.126 88.1237 105.358 87.4113 105.429 86.6743C107.529 82.7603 103.644 77.0988 99.0976 79.2378L59.2978 54.6226C58.7092 54.2666 58.0552 54.0306 57.375 53.9282C56.6947 53.8258 56.0013 53.859 55.334 54.0259C54.6666 54.1927 54.0393 54.4894 53.4873 54.8999C52.9353 55.3104 52.47 55.8264 52.1181 56.4175C51.7663 57.0086 51.5342 57.6633 51.4365 58.3442C51.3388 59.0252 51.3773 59.7191 51.5488 60.3853C51.7203 61.0514 52.0212 61.6769 52.4355 62.2261C52.8498 62.7752 53.3684 63.2367 53.9619 63.5845L89.2568 85.4136L54.4648 107.562C48.8268 111.149 53.938 120.248 59.622 116.627L99.499 91.2456Z" fill="#020100"/>
<path d="M59.4715 61.4106C59.4715 59.1915 57.6726 57.3926 55.4535 57.3926C53.2345 57.3926 51.4355 59.1915 51.4355 61.4106V113.447C51.4355 115.666 53.2345 117.465 55.4535 117.465C57.6726 117.465 59.4715 115.666 59.4715 113.447V61.4106Z" fill="#020100"/>
</svg>
