<svg id="Capa_1" data-name="Capa 1" xmlns="http://www.w3.org/2000/svg" viewBox="0 0 154.28 161.72">
        <defs>
            <style>.cls-1{fill:#fff;}.cls-2{fill:#020100;}</style>
        </defs>
    <path class="cls-1" d="M54.85,57.08c3.14.45,38.75,28.29,38.75,28.29l-38.75,23Z"/>
    <path class="cls-2" d="M146.45,120.19c16.64-32.25,5.43-71.55-21.07-94.94A104.62,104.62,0,0,0,79.24,1.79c-9.11-2-18.79-2.72-27.85,0C42.6,4.36,34.77,9.59,27.95,15.61-2.89,42.81-9,89.91,13.48,124.26a5,5,0,0,0,3.77,2.36C29.35,144.91,49.32,158,71.2,161.09c30.58,4.3,61.31-13.87,75.25-40.9M82.23,151.3c-30.74.84-59.44-22.61-65.5-52.58a4.47,4.47,0,0,0-4.4-3.81c-5-21.78-.3-45.34,14.52-63.18,10-12.08,23.7-22.07,40-21.25,15.35.77,31,7.55,43.53,16.2,25.29,17.5,40.84,50.42,30.32,80.62-8.43,24.21-32.61,43.28-58.5,44"/>
    <path class="cls-2" d="M98.89,90.94a5.36,5.36,0,0,0,5.25-2.48,5.07,5.07,0,0,0,.68-2.09c2.1-3.91-1.78-9.58-6.33-7.44L58.69,54.31a5.21,5.21,0,1,0-5.34,9L88.65,85.11,53.86,107.25c-5.64,3.59-.53,12.69,5.16,9.07L98.89,90.94"/>
    <path class="cls-2" d="M54.85,117.16h0a4,4,0,0,0,4-4v-52a4,4,0,0,0-8,0v52a4,4,0,0,0,4,4"/>
</svg>