<svg width="177" height="165" viewBox="0 0 177 165" fill="none" xmlns="http://www.w3.org/2000/svg">
<path d="M16.6282 26.3621C2.68322 42.0831 -5.26116 66.181 5.53984 85.7C8.88384 91.748 13.5968 97.0918 18.4178 102C23.029 106.883 28.4232 110.963 34.3772 114.071C44.2141 118.829 55.2871 120.408 66.0618 118.59C76.9971 116.832 87.1176 111.723 95.0262 103.97C103.341 95.65 109 85.0508 111.288 73.5135C116 50.0785 105.366 25.5141 86.5672 11.1931C77.0822 3.97215 65.1262 -1.09705 53.0452 1.24295C40.3832 3.69895 29.5058 12.7856 20.4148 21.4236C17.7957 23.9217 15.3128 26.5592 12.9769 29.324C12.7427 29.6015 12.6263 29.959 12.6521 30.3211C12.678 30.6832 12.8444 31.0211 13.1155 31.2625C13.3867 31.5039 13.7411 31.6302 14.1038 31.614C14.4665 31.5979 14.8084 31.4402 15.0569 31.1756C19.8824 26.089 25.038 21.3262 30.49 16.9178C35.0429 13.1126 40.0569 9.89608 45.4139 7.34452C50.5512 4.92509 56.2199 3.85354 61.886 4.22928C67.6714 4.85655 73.2547 6.71881 78.2581 9.69022C97.5581 20.6322 110.402 42.7464 109.346 65.0174C108.303 86.8874 93.9778 107.661 72.7698 114.232C62.978 117.272 52.5041 117.336 42.6761 114.415C30.6131 110.769 21.1472 101.871 13.3982 92.2488C9.50522 87.6679 6.56109 82.3589 4.7371 76.6306C3.39442 71.8799 2.94885 66.9206 3.42314 62.0066C4.34114 51.9826 8.38796 42.3629 13.868 33.9969C15.252 31.8859 16.756 29.8508 18.325 27.8738C19.225 26.7378 17.6038 25.2621 16.6248 26.3621H16.6282Z" fill="black"/>
<path d="M14.7402 45.7693C8.48016 54.1123 7.60989 65.1241 10.8139 74.8591C14.1759 85.0771 21.4753 93.9995 29.9863 100.428C38.1863 106.619 48.0662 110.746 58.4252 110.972C67.7443 111.035 76.8204 108.004 84.2309 102.353C91.7394 96.7982 97.4851 89.1934 100.777 80.4529C103.976 71.3989 104.575 61.6298 102.507 52.2527C100.46 42.6162 96.0846 33.6279 89.7631 26.072C83.2861 18.301 74.4141 11.2904 63.9721 10.4714C58.4831 10.0404 53.0651 11.3829 47.9721 13.3259C42.7888 15.3043 37.8701 17.9165 33.3281 21.1023C24.3345 27.4042 16.9703 35.7556 11.8442 45.4675C10.6063 47.8306 9.55913 50.2893 8.71233 52.8191C8.20033 54.3471 10.7351 55.1942 11.3881 53.7302C15.6121 44.2452 21.1882 35.7748 28.9472 28.7888C36.4272 22.0528 45.78 16.7017 55.642 14.4617C60.5224 13.2687 65.6446 13.5215 70.3842 15.1882C75.0201 16.987 79.2569 19.6795 82.8539 23.113C89.5811 29.3664 94.702 37.1487 97.7822 45.8015C100.924 54.3167 101.774 63.5079 100.247 72.4548C98.6245 81.0999 94.5036 89.08 88.394 95.408C82.3788 101.798 74.5267 106.162 65.9233 107.894C56.4793 109.658 46.7632 107.447 38.4032 102.915C21.6962 93.8658 6.07431 73.3206 12.9633 53.5046C13.7506 51.2282 14.8573 49.0757 16.2509 47.1111C16.9919 46.0691 15.5311 44.7213 14.7441 45.7693H14.7402Z" fill="black"/>
<path d="M91.7592 108.944C93.0432 107.561 91.0733 105.715 89.5453 106.522C87.3283 107.693 88.3451 111.212 89.2611 112.887C91.5161 117.049 96.754 118.93 101.247 118.088C106.824 117.047 111.373 112.8 114.674 108.403C117.916 104.083 120.416 98.6142 119.461 93.1032C118.991 90.3191 117.725 87.7304 115.817 85.6491C114.242 83.9401 111.007 81.4865 108.651 83.0485C108.428 83.1948 108.272 83.4236 108.216 83.6843C108.16 83.9449 108.208 84.217 108.351 84.4421C109.409 85.7281 111.051 85.9415 112.363 86.8845C113.802 87.9357 114.94 89.3468 115.663 90.9753C117.263 94.4893 116.763 98.4686 115.249 101.921C113.567 105.631 111.108 108.938 108.037 111.615C105.225 114.088 101.424 116.206 97.556 115.555C95.6412 115.257 93.8725 114.354 92.5092 112.976C91.9037 112.352 91.4345 111.608 91.1312 110.793C90.9573 110.317 90.851 109.819 90.8153 109.314C90.7993 109.124 90.8152 108.914 90.8012 108.729C90.7382 108.65 90.7701 108.629 90.8881 108.662C91.1334 108.689 91.0638 108.604 90.6791 108.407C90.6564 108.541 90.6776 108.678 90.7392 108.799C90.8007 108.919 90.8994 109.017 91.0209 109.077C91.1424 109.137 91.2801 109.157 91.4135 109.132C91.5468 109.108 91.6687 109.041 91.7611 108.942L91.7592 108.944Z" fill="black"/>
<path d="M106.779 117.629C106.774 118.223 106.829 118.817 106.941 119.4C107.185 119.994 107.49 120.56 107.853 121.09C108.644 122.459 109.496 123.79 110.408 125.084C112.107 127.474 113.966 129.746 115.973 131.884C120.086 136.242 124.654 140.146 129.601 143.529C139.578 150.463 150.583 155.654 161.691 160.495C165.624 162.212 171.191 165.095 174.668 160.916C178.049 156.851 175.768 151.594 173.315 147.754C166.893 137.708 159.258 128.492 150.584 120.312C140.817 111.054 129.827 103.177 117.921 96.9031C115.915 95.8481 114.365 98.9883 116.364 100.058C135.848 110.468 152.819 125.012 166.087 142.673C167.677 144.799 169.21 146.97 170.687 149.183C171.98 151.128 173.407 153.271 173.535 155.675C173.647 157.852 172.498 160.118 170.135 160.301C167.909 160.472 165.635 159.2 163.662 158.345C153.473 153.956 143.311 149.34 133.962 143.319C128.621 139.91 123.666 135.929 119.187 131.447C117.033 129.286 115.043 126.967 113.234 124.51C112.299 123.235 111.417 121.921 110.6 120.568C110.234 119.968 109.9 119.35 109.546 118.744C109.106 118.099 108.558 117.533 107.927 117.073C107.825 116.986 107.699 116.93 107.565 116.913C107.432 116.896 107.296 116.918 107.175 116.976C107.053 117.035 106.952 117.128 106.882 117.243C106.813 117.358 106.778 117.491 106.783 117.626L106.779 117.629Z" fill="black"/>
<path d="M113.529 124.46C114.086 123.833 114.388 123.02 114.375 122.181C114.441 121.347 114.51 120.508 114.575 119.673C114.712 117.979 114.815 116.291 114.897 114.592C114.979 112.893 115.058 111.216 115.137 109.53C115.36 107.665 115.369 105.78 115.166 103.913C115.14 103.644 115.02 103.393 114.826 103.204C114.632 103.015 114.377 102.901 114.107 102.882C113.837 102.863 113.569 102.94 113.351 103.1C113.133 103.26 112.978 103.493 112.915 103.756C112.588 105.429 112.454 107.135 112.515 108.839C112.469 110.615 112.42 112.394 112.368 114.176C112.319 115.865 112.284 117.545 112.292 119.232L112.304 122.032C112.219 122.881 112.454 123.731 112.965 124.415C112.994 124.46 113.034 124.498 113.081 124.525C113.128 124.553 113.18 124.569 113.235 124.573C113.289 124.577 113.342 124.568 113.393 124.548C113.443 124.527 113.488 124.496 113.525 124.456L113.529 124.46Z" fill="black"/>
<path d="M122.36 133.434C122.51 132.246 122.83 131.103 122.86 129.904C122.899 128.58 122.859 127.25 122.853 125.927C122.847 123.188 122.7 120.453 122.591 117.714C122.487 115.071 122.381 112.429 122.274 109.787C122.222 108.466 122.183 107.142 122.1 105.823C122.103 105.161 122.054 104.499 121.953 103.844C121.775 103.321 121.519 102.828 121.194 102.381C121.121 102.271 121.02 102.182 120.902 102.122C120.783 102.063 120.652 102.036 120.52 102.043C120.388 102.051 120.26 102.093 120.149 102.165C120.038 102.238 119.948 102.337 119.888 102.455C119.601 102.933 119.393 103.455 119.274 104C119.243 104.567 119.253 105.135 119.304 105.7C119.341 107.024 119.418 108.345 119.491 109.662C119.633 112.4 119.778 115.134 119.925 117.863C120.063 120.505 120.16 123.149 120.4 125.783C120.521 127.098 120.617 128.421 120.758 129.738C120.977 130.997 121.264 132.243 121.615 133.472C121.643 133.551 121.696 133.62 121.766 133.666C121.836 133.713 121.918 133.736 122.002 133.731C122.086 133.726 122.166 133.693 122.23 133.639C122.294 133.585 122.338 133.511 122.356 133.429L122.36 133.434Z" fill="black"/>
<path d="M130.178 140.887C128.905 140.365 128.826 143.028 130.603 142.695C132.211 142.395 131.934 140.33 131.903 139.116C131.846 136.842 131.646 134.572 131.503 132.304C131.213 127.763 130.88 123.229 130.544 118.691C130.379 116.521 130.216 114.347 130.056 112.171C129.89 109.971 129.994 107.504 129.276 105.399C129.199 105.182 129.053 104.995 128.86 104.868C128.668 104.741 128.44 104.68 128.21 104.693C127.979 104.707 127.76 104.794 127.584 104.943C127.408 105.092 127.285 105.295 127.233 105.519C127.07 106.933 127.087 108.362 127.284 109.771C127.414 111.371 127.539 112.984 127.669 114.587C127.919 117.703 128.166 120.821 128.413 123.94C128.654 126.963 128.923 129.984 129.195 133.004C129.337 134.612 129.475 136.216 129.629 137.819C129.7 138.577 129.807 139.33 129.899 140.084C129.932 140.435 129.941 140.788 129.929 141.141C129.902 141.286 129.883 141.433 129.874 141.58C129.844 141.737 129.869 141.737 129.949 141.58C130.036 141.594 130.124 141.577 130.199 141.532C130.274 141.487 130.331 141.417 130.359 141.334C130.388 141.251 130.385 141.16 130.353 141.079C130.321 140.998 130.261 140.93 130.184 140.889L130.178 140.887Z" fill="black"/>
<path d="M140.814 148.377C140.257 141.75 139.496 135.191 138.583 128.598C138.131 125.356 137.681 122.113 137.231 118.867C137.011 117.288 136.793 115.712 136.512 114.14C136.243 112.633 136.18 110.86 135.412 109.514C135.303 109.355 135.151 109.232 134.973 109.159C134.795 109.086 134.6 109.065 134.411 109.101C134.222 109.138 134.048 109.228 133.909 109.362C133.771 109.496 133.675 109.668 133.633 109.855C133.285 111.324 133.741 113.081 133.9 114.574C134.072 116.155 134.317 117.724 134.546 119.303C135.042 122.636 135.535 125.973 136.026 129.312C136.985 135.8 138.093 142.212 139.404 148.646C139.57 149.446 140.874 149.183 140.81 148.378L140.814 148.377Z" fill="black"/>
<path d="M148.414 151.215C148.506 150.469 148.539 149.717 148.514 148.965C148.45 148.221 148.383 147.484 148.286 146.739C148.086 145.257 147.855 143.774 147.64 142.292C147.222 139.422 146.803 136.554 146.384 133.685C145.966 130.816 145.548 127.945 145.132 125.071C144.719 122.237 144.55 119.176 143.664 116.449C143.567 116.179 143.377 115.952 143.128 115.81C142.879 115.668 142.588 115.619 142.306 115.672C142.024 115.725 141.771 115.876 141.59 116.099C141.41 116.322 141.315 116.601 141.322 116.888C141.298 119.823 142.089 122.889 142.554 125.783C143.014 128.649 143.475 131.516 143.938 134.382C144.401 137.249 144.861 140.118 145.319 142.989C145.556 144.468 145.761 145.955 146.034 147.426C146.152 148.074 146.304 148.714 146.448 149.355C146.645 150.07 146.896 150.768 147.199 151.445C147.25 151.585 147.349 151.702 147.479 151.776C147.608 151.849 147.759 151.875 147.905 151.847C148.052 151.82 148.184 151.741 148.277 151.625C148.371 151.51 148.42 151.364 148.417 151.215H148.414Z" fill="black"/>
<path d="M154.665 154.844C154.487 149.959 153.437 145.07 152.885 140.21C152.61 137.804 152.385 135.394 152.208 132.98C152.04 130.638 152.147 128.015 151.502 125.747C151.43 125.542 151.293 125.365 151.112 125.245C150.931 125.124 150.716 125.066 150.499 125.079C150.282 125.092 150.075 125.175 149.91 125.316C149.744 125.457 149.629 125.649 149.582 125.861C149.105 128.238 149.542 130.986 149.751 133.379C149.959 135.795 150.219 138.205 150.528 140.608C151.146 145.419 151.758 150.514 153.51 155.061C153.563 155.189 153.657 155.294 153.779 155.36C153.9 155.426 154.04 155.448 154.176 155.423C154.312 155.397 154.434 155.326 154.523 155.221C154.612 155.115 154.662 154.982 154.665 154.844Z" fill="black"/>
<path d="M163.219 160.594C162.156 155.822 161.462 150.994 160.846 146.149C160.552 143.803 160.325 141.452 160.166 139.098C160.087 137.92 160.047 136.742 159.966 135.564C160.054 134.455 159.846 133.342 159.366 132.338C159.272 132.198 159.142 132.086 158.991 132.011C158.84 131.937 158.673 131.903 158.504 131.913C158.336 131.923 158.173 131.977 158.032 132.069C157.891 132.161 157.776 132.288 157.699 132.438C157.089 133.445 157.282 134.83 157.313 135.971C157.343 137.151 157.435 138.333 157.527 139.507C157.713 141.947 157.973 144.379 158.31 146.802C159.037 151.654 160.129 156.444 161.575 161.133C161.895 162.22 163.456 161.663 163.22 160.597L163.219 160.594Z" fill="black"/>
<path d="M171.456 163.579C170.984 160.779 170.548 157.961 170.024 155.165L169.264 151.097C169.164 149.915 168.694 148.796 167.921 147.898C167.834 147.822 167.731 147.766 167.619 147.736C167.507 147.706 167.391 147.702 167.277 147.724C167.164 147.746 167.057 147.794 166.965 147.863C166.873 147.933 166.797 148.023 166.745 148.126C165.807 150.269 167.129 153.453 167.591 155.626C168.191 158.41 168.872 161.173 169.519 163.948C169.775 165.031 171.639 164.699 171.456 163.581V163.579Z" fill="black"/>
<path d="M58.9149 30.155C55.1449 29.721 52.7381 33.9549 52.2601 37.1989C51.9279 38.9869 52.1496 40.8332 52.8954 42.4919C53.6411 44.1506 54.8751 45.5429 56.433 46.4811C58.1113 47.3119 59.9777 47.6894 61.847 47.5768C63.7163 47.4642 65.5237 46.8648 67.0902 45.8385C68.8014 44.7399 70.1277 43.1351 70.8846 41.2477C71.6415 39.3603 71.7909 37.2848 71.3128 35.3083C70.79 32.9896 69.5609 30.8896 67.7943 29.2995C65.7943 27.5145 63.6941 26.567 61.0081 27.113C60.7062 27.203 60.437 27.3779 60.2328 27.6178C60.0285 27.8578 59.8979 28.1521 59.8573 28.4645C59.8166 28.7769 59.8677 29.0944 60.0038 29.3786C60.1398 29.6627 60.355 29.9018 60.6239 30.0661C63.6029 31.6561 66.8239 33.5403 67.3729 37.2233C67.8819 40.6103 65.1928 43.343 61.9998 43.903C61.2929 44.0643 60.56 44.0735 59.849 43.9313C59.138 43.7891 58.4653 43.4986 57.8748 43.0778C57.2843 42.657 56.7892 42.1155 56.4227 41.4899C56.0562 40.8643 55.8262 40.1688 55.7479 39.4479C55.5986 37.9763 55.9268 36.496 56.6839 35.2253C57.5497 34.0748 58.5968 33.072 59.784 32.2575C60.708 31.4975 59.847 30.2579 58.911 30.1579L58.9149 30.155Z" fill="#020100"/>
<path d="M34.3582 74.538C35.6462 72.232 36.2428 69.587 37.4578 67.205C38.645 64.8645 40.1238 62.6833 41.8582 60.7138C45.3128 56.7361 49.6519 53.6239 54.5271 51.6268C59.3901 49.6918 65.567 48.5175 70.676 50.1815C75.439 51.7405 76.6081 56.5913 77.2371 61.0233C77.9781 66.2323 78.192 71.8624 81.346 76.3114C82.088 75.3494 82.8291 74.3808 83.5711 73.4198C75.4656 71.8097 67.2333 70.9201 58.971 70.7616C50.708 70.4288 42.433 70.9625 34.281 72.3524C32.044 72.7804 32.522 76.5752 34.822 76.3622C42.802 75.6262 50.6439 74.7836 58.6819 74.9276C66.6744 75.1021 74.6433 75.8666 82.5232 77.2147C82.9391 77.3148 83.376 77.2786 83.7693 77.1102C84.1626 76.9419 84.4912 76.6502 84.7058 76.2802C84.9205 75.9101 85.0098 75.4815 84.9607 75.0565C84.9116 74.6315 84.7263 74.2331 84.4329 73.9218C81.3329 69.9218 81.4862 64.0501 80.7132 59.2811C79.9022 54.2731 77.948 49.3266 72.99 47.1806C67.51 44.8056 60.4539 45.7608 54.9739 47.6708C49.5559 49.5562 44.6629 52.7005 40.697 56.8456C38.4388 59.2172 36.5361 61.904 35.0481 64.8212C33.6481 67.5542 32.113 70.9159 32.49 74.0399C32.4979 74.2561 32.575 74.4636 32.7097 74.6327C32.8445 74.8018 33.0296 74.9234 33.2385 74.9794C33.4475 75.0353 33.6691 75.0234 33.8704 74.9442C34.0717 74.8651 34.2424 74.7232 34.3572 74.5399L34.3582 74.538Z" fill="#020100"/>
</svg>
