<svg width="201" height="207" viewBox="0 0 201 207" fill="none" xmlns="http://www.w3.org/2000/svg">
<path d="M99.0553 79.4873C98.737 78.6499 98.1758 77.9268 97.444 77.4102C96.7121 76.8935 95.843 76.6065 94.9474 76.5869C93.8687 76.6067 92.8073 76.8613 91.8365 77.332C90.8658 77.8027 90.0089 78.4788 89.3253 79.3135C88.0524 80.949 87.2995 82.928 87.1642 84.9961C87.0289 87.0642 87.5176 89.1257 88.5665 90.9131C93.2665 99.1351 106.519 95.6675 107.109 86.3955C107.398 81.7715 103.981 76.1379 98.9825 75.9229C98.5978 75.9359 98.2271 76.0725 97.9254 76.3115C97.6237 76.5506 97.4065 76.8794 97.3058 77.251C97.2051 77.6225 97.2261 78.0173 97.3658 78.376C97.5056 78.7347 97.7567 79.0386 98.0821 79.2441C100.955 80.8131 103.612 83.2566 103.04 86.8936C102.513 90.2196 98.8134 92.2719 95.6344 91.7549C92.2794 91.2109 90.3805 87.6932 90.7945 84.4902C91.2425 81.0622 95.1691 78.4899 98.4391 79.9619C98.5116 80.0018 98.5944 80.02 98.6769 80.0137C98.7594 80.0073 98.8384 79.9763 98.9039 79.9258C98.9694 79.8752 99.0184 79.8067 99.0455 79.7285C99.0726 79.6503 99.0764 79.5666 99.0563 79.4863L99.0553 79.4873Z" fill="#020100"/>
<path d="M79.7942 121.717C80.5082 116.968 82.6499 112.98 85.1829 108.967C87.3479 105.538 89.5752 101.828 92.7542 99.227C99.8262 93.427 108.099 99.9016 110.123 107.327C111.556 112.592 110.916 118.168 110.389 123.527C111.069 122.846 111.743 122.167 112.423 121.487C106.462 121.724 100.508 122.083 94.5608 122.563C91.6322 122.806 88.7048 123.078 85.7781 123.378C82.8091 123.684 79.7879 123.729 77.0779 125.055C76.8316 125.205 76.6338 125.423 76.5091 125.683C76.3843 125.943 76.3381 126.234 76.3753 126.52C76.4124 126.806 76.5315 127.075 76.7185 127.294C76.9056 127.514 77.1525 127.673 77.429 127.755C80.302 128.367 83.1581 127.756 86.0481 127.45C88.9721 127.149 91.8998 126.877 94.8318 126.633C100.686 126.153 106.553 125.796 112.432 125.563C112.966 125.547 113.474 125.327 113.852 124.95C114.23 124.572 114.45 124.064 114.467 123.53C115.447 113.454 115.606 101.388 105.887 95.3422C103.954 94.0898 101.72 93.3811 99.4187 93.2895C97.1175 93.1978 94.8341 93.727 92.8079 94.8217C88.7959 97.0217 86.108 101.044 83.679 104.784C80.488 109.691 77.0941 115.335 77.5081 121.415C77.5931 122.639 79.5989 123.116 79.8079 121.728L79.7942 121.717Z" fill="#020100"/>
<path d="M79.6523 118.028C78.5923 121.082 77.6353 124.703 77.9463 127.966C77.9546 128.229 78.065 128.48 78.2544 128.663C78.4437 128.847 78.6972 128.949 78.9609 128.949C79.2246 128.949 79.4776 128.847 79.667 128.663C79.8563 128.48 79.9668 128.229 79.9751 127.966C80.0881 126.414 79.9862 124.851 80.1172 123.291C80.2645 121.635 80.5295 119.992 80.9101 118.373C80.9475 118.209 80.9203 118.037 80.834 117.893C80.7476 117.748 80.6089 117.643 80.4468 117.599C80.2846 117.554 80.1114 117.573 79.9634 117.653C79.8154 117.733 79.7041 117.867 79.6523 118.027V118.028Z" fill="#020100"/>
<path d="M100.738 3.0325C97.3383 2.6405 95.1683 6.46006 94.7383 9.38406C94.4384 10.9964 94.6381 12.6627 95.3106 14.1585C95.9831 15.6543 97.0959 16.9084 98.501 17.7542C100.014 18.504 101.698 18.8448 103.384 18.7434C105.07 18.642 106.7 18.1018 108.112 17.1761C109.656 16.1849 110.852 14.7381 111.535 13.0354C112.217 11.3328 112.352 9.45892 111.92 7.67605C111.449 5.58521 110.34 3.69237 108.746 2.25906C106.946 0.651063 105.046 -0.205617 102.626 0.287383C102.354 0.368754 102.111 0.527007 101.927 0.743438C101.743 0.959869 101.626 1.2254 101.589 1.50711C101.553 1.78882 101.599 2.07516 101.722 2.33133C101.844 2.5875 102.039 2.80243 102.281 2.95047C104.967 4.38447 107.868 6.08455 108.367 9.40555C108.826 12.4595 106.4 14.924 103.522 15.428C102.884 15.5733 102.224 15.5827 101.583 15.4544C100.941 15.3261 100.334 15.0633 99.8018 14.6839C99.2692 14.3044 98.8229 13.8164 98.4922 13.2522C98.1616 12.688 97.9541 12.0605 97.8833 11.4104C97.7488 10.0833 98.0448 8.7485 98.728 7.60281C99.5097 6.5645 100.456 5.65988 101.528 4.92605C102.361 4.24006 101.585 3.12664 100.74 3.02664L100.738 3.0325Z" fill="#020100"/>
<path d="M25.4721 55.1096C25.7439 54.2967 25.787 53.4246 25.5961 52.589C25.4053 51.7535 24.9878 50.9865 24.3901 50.3722C24.1384 50.1269 23.8139 49.9699 23.4653 49.925C23.1166 49.8801 22.7626 49.9497 22.457 50.1232C18.938 52.5482 15.0451 55.5851 14.5751 60.1701C14.2291 63.5811 16.088 67.5989 19.686 68.3869C23.897 69.3049 27.416 65.4974 28.373 61.7414C29.388 57.7414 28.4732 52.0624 24.6562 49.8234C24.3813 49.6736 24.0652 49.6166 23.7553 49.6613C23.4455 49.706 23.1583 49.8501 22.9369 50.0715C22.7156 50.2928 22.572 50.58 22.5273 50.8898C22.4826 51.1997 22.5391 51.5153 22.6889 51.7902C24.0099 54.5152 25.5571 56.8904 25.1601 60.0754C24.8881 62.2854 23.06 65.9062 20.27 65.0842C18.15 64.4612 17.5442 61.5087 18.0702 59.6457C18.9032 56.7257 21.7592 54.624 24.0702 52.883H22.4599C22.7769 53.0861 23.0281 53.3774 23.1821 53.7209C23.3361 54.0644 23.3864 54.4458 23.3271 54.8176C23.2021 56.0806 25.127 56.2505 25.475 55.1115L25.4721 55.1096Z" fill="#020100"/>
<path d="M181.004 57.2299C182.194 54.6629 177.541 53.2167 176.952 55.9887C177.4 55.6487 177.852 55.3083 178.301 54.9623C174.946 54.6223 171.931 57.6994 171.081 60.7084C170.651 62.3426 170.784 64.0741 171.459 65.6235C172.133 67.1728 173.31 68.4499 174.799 69.2485C176.239 70.0985 177.9 70.498 179.568 70.395C181.237 70.2919 182.836 69.691 184.16 68.6703C185.509 67.5474 186.525 66.0787 187.102 64.4213C187.678 62.7639 187.791 60.9802 187.43 59.2631C186.97 57.2508 185.736 55.5004 183.996 54.3901C182.285 53.2691 179.689 53.0139 178.296 54.7319C178.146 54.8929 178.044 55.0939 178.005 55.311C177.965 55.528 177.989 55.7517 178.074 55.9555C178.158 56.1593 178.299 56.3348 178.481 56.4604C178.662 56.586 178.876 56.6562 179.096 56.6635C181.986 56.9465 184.185 58.7542 184.066 61.8432C183.966 64.3702 182.179 66.8863 179.532 67.1303C177.107 67.3573 174.268 65.7471 173.911 63.1801C173.845 62.5065 173.917 61.8264 174.125 61.1821C174.333 60.5378 174.671 59.9439 175.118 59.436C176.034 58.4218 177.308 57.8015 178.671 57.7065C178.965 57.625 179.224 57.4499 179.41 57.2075C179.595 56.965 179.696 56.6688 179.697 56.3637C179.714 56.7427 179.158 57.0933 179.289 56.5043C179.073 57.4853 180.535 58.2449 181.006 57.2319L181.004 57.2299Z" fill="#020100"/>
<path d="M48.6493 164.762C48.5309 164.411 48.3399 164.091 48.0893 163.819C47.8387 163.547 47.5341 163.331 47.1948 163.184C46.8554 163.038 46.4887 162.964 46.1191 162.969C45.7495 162.973 45.3852 163.055 45.0493 163.209C44.3085 163.53 43.646 164.008 43.1078 164.609C42.5697 165.211 42.1686 165.922 41.9321 166.694C41.3611 168.236 41.2028 169.899 41.4731 171.52C41.7434 173.142 42.4329 174.665 43.4731 175.937C47.9671 181.387 57.6401 178.821 58.9731 171.929C59.6131 168.629 58.3443 163.14 54.3603 162.444C53.2603 162.257 52.0532 163.39 52.7792 164.501C53.5459 165.436 54.2427 166.427 54.8642 167.465C55.4228 168.593 55.647 169.858 55.5102 171.11C55.2705 172.294 54.65 173.366 53.7431 174.164C52.8362 174.962 51.6929 175.44 50.4882 175.527C49.2835 175.614 48.0835 175.304 47.0717 174.644C46.0599 173.985 45.292 173.012 44.8852 171.875C44.5083 170.745 44.4574 169.532 44.7382 168.375C44.8664 167.761 45.123 167.182 45.4911 166.675C45.6818 166.483 45.8908 166.311 46.1152 166.16C46.5152 165.803 46.5791 166.687 46.0151 165.871C46.8761 167.106 49.284 166.386 48.644 164.76L48.6493 164.762Z" fill="#020100"/>
<path d="M156.504 157.152C154.957 157.294 153.507 157.974 152.409 159.073C151.31 160.173 150.632 161.622 150.491 163.17C150.06 166.684 152.446 169.618 155.631 170.797C163.151 173.591 170.523 165.024 168.064 157.803C166.851 154.24 162.907 150.295 159.093 153.134C158.832 153.3 158.638 153.553 158.545 153.848C158.452 154.143 158.467 154.462 158.587 154.747C158.707 155.033 158.924 155.266 159.2 155.406C159.476 155.547 159.792 155.585 160.093 155.514C162.587 155.158 164.57 158.132 164.842 160.257C164.963 161.776 164.631 163.297 163.889 164.628C163.147 165.959 162.027 167.041 160.671 167.737C158.206 168.882 154.614 168.032 153.418 165.425C153.164 164.796 153.052 164.119 153.088 163.442C153.124 162.764 153.308 162.104 153.628 161.505C153.947 160.907 154.393 160.385 154.936 159.978C155.478 159.57 156.103 159.287 156.767 159.148C157.895 158.966 157.64 157.08 156.501 157.148L156.504 157.152Z" fill="#020100"/>
<path d="M31.3883 200.117C32.2971 198.639 33.1149 197.106 33.8365 195.527C34.637 194.046 35.5862 192.651 36.6695 191.362C38.931 188.675 41.6876 186.447 44.7901 184.8C47.7948 183.189 51.1039 182.226 54.5035 181.972C56.3806 181.733 58.2872 181.983 60.0391 182.698C61.6236 183.63 62.8404 185.077 63.4854 186.798C65.5509 191.428 66.9056 196.343 67.5035 201.378C68.1375 200.545 68.7707 199.713 69.4034 198.885C56.3992 197.587 43.2671 198.686 30.6593 202.126C28.2053 202.789 29.2485 206.581 31.7135 205.935C44.0065 202.75 56.7547 201.698 69.4034 202.824C70.8144 202.949 71.4773 201.475 71.3033 200.331C70.5586 195.285 69.1288 190.364 67.0533 185.705C66.2271 183.613 64.8741 181.771 63.1261 180.356C61.3356 179.12 59.2207 178.439 57.0455 178.4C49.0555 177.963 40.9064 182.009 35.5514 187.773C33.9949 189.443 32.639 191.289 31.5113 193.273C30.4403 195.167 29.3691 197.382 29.4591 199.604C29.4659 199.827 29.5445 200.042 29.6832 200.218C29.8219 200.393 30.0136 200.52 30.2296 200.578C30.4456 200.637 30.6746 200.624 30.8829 200.542C31.0912 200.46 31.2677 200.314 31.3863 200.124L31.3883 200.117Z" fill="#020100"/>
<path d="M144.73 194.501C144.837 185.757 150.606 178.838 158.183 175.025C161.628 173.291 165.969 171.976 169.805 173.109C173.744 174.277 174.962 178.062 175.296 181.761C175.696 186.215 175.444 191.044 177.773 195.05C178.351 194.05 178.923 193.044 179.501 192.041C173.461 191.308 167.361 191.209 161.301 191.746C158.309 192.024 155.323 192.438 152.37 192.999C150.942 193.272 149.522 193.578 148.109 193.917C146.488 194.309 145.185 194.483 144.309 196.017C144.146 196.309 144.103 196.651 144.187 196.974C144.272 197.298 144.478 197.576 144.763 197.75C145.317 198.144 145.984 198.347 146.663 198.328C147.342 198.22 148.012 198.065 148.669 197.863C150.086 197.53 151.51 197.229 152.942 196.963C155.878 196.418 158.84 196.029 161.816 195.796C167.706 195.317 173.628 195.397 179.502 196.034C181.049 196.204 181.933 194.226 181.225 193.034C178.93 189.152 179.417 184.465 178.811 180.153C178.176 175.603 175.977 171.545 171.461 169.902C167.007 168.281 161.873 169.555 157.725 171.46C153.323 173.464 149.465 176.491 146.47 180.289C143.257 184.426 141.24 189.554 142.504 194.802C142.584 195.059 142.752 195.281 142.979 195.427C143.206 195.572 143.477 195.632 143.744 195.596C144.012 195.56 144.258 195.43 144.438 195.229C144.619 195.029 144.722 194.771 144.731 194.502L144.73 194.501Z" fill="#020100"/>
<path d="M166.298 92.6686C166.519 92.7936 166.513 92.9069 166.331 92.6119C166.246 92.4699 166.122 92.3515 166.042 92.2115C165.85 91.9376 165.717 91.6266 165.652 91.2985C165.579 90.3385 165.73 89.3754 166.093 88.484C166.633 86.3514 167.372 84.274 168.299 82.2789C170.082 78.2846 173.131 74.9886 176.974 72.9C178.762 71.9787 180.722 71.4381 182.729 71.3131C184.737 71.1881 186.748 71.481 188.636 72.1735C192.359 73.6875 194.62 77.1104 195.606 80.8834C196.796 85.4274 196.378 90.2839 195.987 94.9039C196.622 94.2699 197.255 93.6335 197.886 93.0035C192.374 92.3066 186.81 92.0981 181.26 92.3805C178.488 92.5225 175.723 92.7993 172.975 93.1803C170.498 93.5253 167.175 93.5206 165.324 95.3326C165.156 95.5079 165.035 95.7233 164.974 95.9586C164.913 96.1939 164.914 96.4414 164.976 96.6764C165.038 96.9114 165.16 97.1269 165.329 97.3014C165.498 97.4759 165.71 97.6032 165.943 97.6725C167.349 98.1835 168.458 97.8379 169.892 97.5729C171.252 97.3179 172.623 97.0919 174 96.9049C176.579 96.5519 179.18 96.3209 181.781 96.1959C187.156 95.9385 192.542 96.1436 197.882 96.8082C198.959 96.9392 199.706 95.8218 199.781 94.9078C200.575 85.1078 199.881 71.7761 188.51 68.4391C185.95 67.7504 183.271 67.6241 180.657 68.069C178.043 68.5138 175.557 69.5184 173.368 71.0152C168.614 74.2692 165.497 79.3348 163.729 84.7418C162.936 87.1618 161.672 90.6532 163.287 92.9762C163.831 93.7692 164.902 94.7325 165.928 94.1305C166.262 93.9305 166.84 92.9816 166.29 92.6686H166.298Z" fill="#020100"/>
<path d="M78.5921 43.056C79.7541 40.977 80.2921 38.5917 81.3861 36.4447C82.4566 34.3341 83.7893 32.3667 85.3528 30.5902C88.4679 27.0035 92.381 24.198 96.7772 22.3978C101.163 20.6528 106.734 19.591 111.341 21.097C115.636 22.502 116.69 26.8774 117.257 30.8724C117.926 35.5724 118.118 40.6475 120.963 44.6595C121.632 43.7925 122.3 42.9191 122.969 42.0521C115.661 40.5998 108.239 39.7973 100.789 39.6527C93.3375 39.353 85.8756 39.8332 78.5242 41.0863C76.5072 41.4713 76.938 44.8955 79.012 44.7025C86.155 43.8751 93.3384 43.4437 100.529 43.4105C107.737 43.567 114.923 44.2558 122.029 45.472C122.404 45.5622 122.798 45.5291 123.153 45.3773C123.507 45.2255 123.803 44.9638 123.997 44.6302C124.19 44.2966 124.272 43.9089 124.227 43.5257C124.183 43.1425 124.017 42.7841 123.752 42.5033C120.952 38.9033 121.094 33.6031 120.397 29.3031C119.666 24.7871 117.904 20.327 113.433 18.389C108.491 16.247 102.133 17.1094 97.1859 18.8314C92.3002 20.5312 87.8876 23.3667 84.3109 27.1038C82.2747 29.2428 80.5592 31.6647 79.2171 34.2952C77.9591 36.7603 76.57 39.7957 76.91 42.6087C76.9166 42.8038 76.9859 42.991 77.1072 43.1439C77.2286 43.2967 77.3958 43.4067 77.5843 43.4574C77.7728 43.508 77.9725 43.4966 78.1541 43.4251C78.3357 43.3537 78.4896 43.2264 78.5931 43.0609L78.5921 43.056Z" fill="#020100"/>
<path d="M5.24723 94.3795C6.64723 92.7265 7.27627 90.3905 8.05827 88.3795C8.94727 86.1025 9.94536 83.8683 11.0334 81.6793C12.6157 78.239 14.8192 75.1209 17.5334 72.4801C20.1124 70.1271 23.5402 68.5752 27.0422 69.6012C30.4822 70.6012 32.9986 73.7938 34.1486 77.0758C35.8826 82.0228 35.1175 87.435 34.2965 92.484C34.8625 92.047 35.4351 91.6172 36.0011 91.1842C24.6796 90.1772 13.2694 91.1549 2.28434 94.0739C-0.0336591 94.6689 0.947181 98.2678 3.27018 97.6608C13.9573 94.9617 25.0046 93.9734 36.0011 94.7321C36.4683 94.7214 36.9134 94.5312 37.2438 94.2008C37.5742 93.8704 37.7649 93.4248 37.7756 92.9577C38.3876 87.7387 39.1074 82.2755 37.6164 77.1305C37.0741 75.0754 36.1247 73.1506 34.8244 71.4694C33.524 69.7882 31.8994 68.3848 30.0465 67.3434C21.5795 63.0604 13.7882 70.3018 9.87223 77.2838C8.52079 79.7725 7.32858 82.3445 6.30241 84.984C5.70222 86.4021 5.17831 87.8509 4.73258 89.3248C4.17554 90.765 3.91336 92.3019 3.96159 93.8454C4.02959 94.4174 4.77235 94.9276 5.24235 94.3776L5.24723 94.3795Z" fill="#020100"/>
<path d="M82.3951 115.234C86.3671 112.208 90.1075 108.894 94.0685 105.851C98.0475 102.79 102.068 99.791 106.218 96.958C105.59 96.3293 104.959 95.7006 104.325 95.0712C103.798 95.7562 103.169 96.3627 102.625 97.0527C102.263 97.5187 102.574 98.4368 103.277 98.1748C104.167 97.8528 105.005 97.4096 105.889 97.0986C107.867 96.3906 106.399 93.4722 104.824 94.5722C100.682 97.4562 96.6022 100.46 92.7242 103.69C88.727 106.862 84.9726 110.329 81.4923 114.061C80.9653 114.65 81.6855 115.777 82.3995 115.233L82.3951 115.234Z" fill="#020100"/>
<path d="M81.5282 122.034C83.6526 120.863 85.6467 119.471 87.4779 117.881C89.5006 116.259 91.5239 114.636 93.5473 113.012C95.5023 111.449 97.4292 109.845 99.3612 108.258C101.293 106.671 103.396 105.214 104.807 103.135C105.481 102.144 104.212 101.288 103.339 101.662C101.101 102.626 99.2929 104.422 97.4389 105.962C95.4439 107.611 93.4389 109.247 91.4599 110.925C89.5499 112.535 87.6425 114.148 85.7372 115.764C83.7904 117.296 82.0118 119.032 80.432 120.94C79.894 121.64 80.8911 122.357 81.5321 122.04L81.5282 122.034Z" fill="#020100"/>
<path d="M84.9453 127.627C89.0363 125.435 92.629 122.114 96.228 119.173C98.047 117.682 99.8284 116.158 101.628 114.633C103.288 113.233 105.583 111.913 106.178 109.698C106.218 109.55 106.223 109.395 106.193 109.245C106.163 109.095 106.099 108.954 106.006 108.832C105.913 108.711 105.793 108.612 105.656 108.544C105.519 108.476 105.368 108.441 105.215 108.44C102.858 108.695 101.243 110.671 99.5263 112.151C97.7463 113.68 95.9502 115.2 94.1992 116.763C90.6852 119.892 86.849 122.951 83.999 126.68C83.551 127.27 84.3903 127.921 84.9453 127.626V127.627Z" fill="#020100"/>
<path d="M93.6324 128.721C96.9275 127.123 100.073 125.235 103.032 123.078C105.82 120.93 108.88 118.566 110.926 115.671C112.002 114.14 109.741 112.713 108.483 113.784C105.883 116 103.672 118.668 101.043 120.878C98.4304 123.175 95.6515 125.276 92.729 127.164C92.5224 127.284 92.3721 127.481 92.3111 127.712C92.25 127.943 92.2836 128.189 92.4038 128.396C92.5241 128.603 92.7215 128.753 92.9527 128.814C93.1838 128.875 93.4297 128.841 93.6363 128.721H93.6324Z" fill="#020100"/>
<path d="M81.6134 139.307C82.2314 138.797 82.9623 138.417 83.6193 137.948C83.0693 137.228 82.5195 136.513 81.9645 135.794C80.2115 138.032 78.5989 140.377 77.1364 142.815C75.4644 145.303 73.7949 147.786 72.1276 150.266C68.8342 155.162 65.5338 160.051 62.2272 164.932C63.2752 165.215 64.3276 165.504 65.3776 165.788C65.5086 163.606 65.7124 161.436 66.0294 159.277C66.4651 157.189 66.794 155.08 67.0153 152.958C67.1003 151.065 64.5735 151.043 63.9615 152.544C63.2432 154.677 62.7933 156.891 62.6232 159.135C62.3292 161.345 62.1215 163.563 62.0001 165.788C61.9001 167.55 64.2841 167.958 65.1451 166.638C68.3071 161.776 71.4738 156.916 74.6451 152.057C76.2311 149.626 77.8196 147.198 79.4103 144.771C81.1264 142.432 82.6963 139.988 84.1105 137.455C84.8755 135.879 82.5352 134.491 81.7472 136.072C81.3472 136.872 81.0471 137.75 80.5851 138.521C80.1851 139.19 81.0615 139.766 81.6115 139.307H81.6134Z" fill="#020100"/>
<path d="M63.1965 165.997C64.9003 167.107 66.9661 167.52 68.9656 167.148C70.6656 166.813 73.3852 165.838 73.5212 163.855C73.5186 163.541 73.3932 163.241 73.1716 163.018C72.9501 162.796 72.6506 162.669 72.3367 162.665C71.4817 162.644 71.0566 163.118 70.3816 163.554C69.7731 163.937 69.1048 164.215 68.4045 164.377C66.9299 164.76 65.3777 164.726 63.9216 164.277C62.8906 163.937 62.3125 165.455 63.1965 165.999V165.997Z" fill="#020100"/>
<path d="M98.3531 72.5586C100.453 64.7836 100.512 56.2771 99.9903 48.2871C99.9856 48.0146 99.9103 47.7483 99.7715 47.5137C99.6328 47.2791 99.4353 47.0846 99.1988 46.9492C98.9623 46.8138 98.695 46.742 98.4224 46.7412C98.1499 46.7404 97.8814 46.8104 97.6441 46.9443C95.9649 47.9778 94.5781 49.4238 93.6153 51.1445C93.1481 51.9715 92.7901 52.8554 92.5503 53.7744C92.3778 54.7419 92.4162 55.7353 92.6631 56.6865C92.8631 57.7915 94.4931 57.6615 94.7711 56.6865C95.5591 53.9385 96.7323 51.2459 99.2203 49.6299C98.4383 49.1839 97.6562 48.7352 96.8682 48.2822C97.1857 52.2804 97.2597 56.2937 97.0894 60.3008C96.9194 64.3008 96.4264 68.269 96.1314 72.252C96.0314 73.539 98.0311 73.7658 98.3531 72.5518V72.5586Z" fill="#020100"/>
<path d="M97.9672 49.8567C99.2542 50.9217 100.733 51.6644 102.098 52.6164C102.733 53.0644 103.328 53.5567 103.951 54.0217C104.569 54.5152 105.331 54.7938 106.122 54.8156C106.751 54.8776 107.045 54.2035 106.972 53.6985C106.711 51.9475 105.243 51.0188 103.861 50.0608C102.474 48.9788 100.863 48.2191 99.1459 47.8381C98.0919 47.6681 96.9302 48.9947 97.9672 49.8567Z" fill="#020100"/>
<path d="M72.8243 117.229C65.5933 110.814 57.8181 105 50.2071 99.0293C47.7141 97.0793 42.7394 92.5514 40.0074 96.8134C38.9934 98.4004 38.8073 100.638 38.6983 102.474C38.4275 104.727 38.8031 107.012 39.7813 109.06C39.9525 109.335 40.2078 109.547 40.5093 109.666C40.8109 109.785 41.1427 109.803 41.4556 109.719C41.7685 109.634 42.0455 109.451 42.2461 109.196C42.4468 108.942 42.5603 108.629 42.5694 108.305C42.6484 106.52 42.2694 104.757 42.3594 102.961C42.4098 101.983 42.5519 101.013 42.7842 100.061C42.8412 99.8335 42.9264 99.0062 43.1524 98.9052C44.0524 98.5052 46.4671 100.877 47.0621 101.336C48.7001 102.595 50.3378 103.851 51.9752 105.105C58.3051 109.956 64.5673 114.905 71.1753 119.363C72.4503 120.224 73.9853 118.252 72.8243 117.221V117.229Z" fill="#020100"/>
<path d="M41.3843 98.3867C42.5293 97.6867 43.6741 96.9871 44.8131 96.2871C44.2524 96.2131 43.6918 96.1416 43.1304 96.0723C44.6211 97.6757 46.4248 98.9558 48.4302 99.834C50.1132 100.582 52.7591 101.768 54.4991 100.758C54.6573 100.663 54.7921 100.534 54.8931 100.38C54.9942 100.226 55.0591 100.05 55.0826 99.8672C55.1061 99.6843 55.0876 99.499 55.0289 99.3242C54.9701 99.1494 54.8724 98.99 54.7432 98.8584C53.5582 97.6904 51.3433 97.6681 49.8243 97.0391C48.1103 96.3 46.5157 95.311 45.0924 94.1035C44.8248 93.8561 44.4739 93.7188 44.1094 93.7188C43.745 93.7188 43.3936 93.8561 43.126 94.1035C42.089 94.9365 41.0463 95.7695 40.0093 96.6035C38.9953 97.4145 40.2984 99.0398 41.3804 98.3818L41.3843 98.3867Z" fill="#020100"/>
<path d="M47.2043 94.6132C46.3373 94.7542 45.4644 94.8893 44.5924 95.0263C43.5577 95.3348 42.4658 95.3999 41.4015 95.2177C41.2145 95.9087 41.0223 96.6019 40.8293 97.2919C42.3933 97.8699 44.6712 96.9361 46.2462 96.5781C48.1732 96.1361 50.1515 95.8017 52.0265 95.1777C52.391 95.0677 52.6976 94.8196 52.8815 94.4863C53.0654 94.1529 53.1117 93.7614 53.0104 93.3945C52.9091 93.0275 52.6684 92.7141 52.3395 92.5224C52.0106 92.3307 51.6194 92.2755 51.2502 92.3681C49.2952 92.6451 47.3743 93.2292 45.4503 93.6992C43.8693 94.0902 41.5001 94.272 40.3561 95.499C40.1659 95.7025 40.0623 95.9724 40.067 96.2509C40.0717 96.5294 40.1845 96.7951 40.3815 96.9921C40.5785 97.1891 40.8442 97.3019 41.1227 97.3066C41.4012 97.3113 41.6707 97.2077 41.8742 97.0175C42.7067 96.5106 43.6383 96.188 44.6061 96.0722L47.4064 95.3583C47.8994 95.2333 47.6782 94.5421 47.2062 94.6161L47.2043 94.6132Z" fill="#020100"/>
<path d="M123.519 114.033C121.974 114.518 120.502 115.212 119.144 116.096C117.971 116.726 118.777 118.742 120.069 118.284C121.798 117.575 123.48 116.757 125.106 115.836C126.755 114.997 128.382 114.124 130.007 113.236C133.327 111.429 136.637 109.596 139.935 107.736C146.531 104.02 153.067 100.204 159.542 96.2892C159.799 96.1285 160.004 95.8971 160.133 95.6231C160.263 95.3492 160.311 95.0445 160.271 94.7442C160.232 94.4439 160.107 94.1611 159.911 93.9298C159.716 93.6984 159.458 93.5285 159.168 93.4395C156.97 92.5615 154.574 92.2978 152.237 92.6778C150.327 92.9668 147.199 93.7395 146.661 95.8985C146.62 96.0635 146.616 96.2349 146.651 96.4015C146.685 96.568 146.756 96.725 146.859 96.8604C146.961 96.9959 147.093 97.106 147.244 97.1837C147.396 97.2614 147.563 97.305 147.733 97.3097C148.606 97.2984 149.459 97.0506 150.203 96.5938C151.053 96.2087 151.948 95.9321 152.866 95.7686C154.718 95.487 156.612 95.72 158.34 96.4425C158.216 95.4965 158.091 94.5419 157.966 93.5909C151.592 97.5009 145.158 101.317 138.666 105.038C135.459 106.874 132.239 108.688 129.005 110.479C127.39 111.374 125.769 112.262 124.165 113.178C122.438 114.053 120.762 115.026 119.144 116.09L120.782 117.729C121.629 116.759 122.746 116.065 123.989 115.734C124.211 115.668 124.397 115.517 124.509 115.315C124.621 115.112 124.65 114.874 124.589 114.651C124.527 114.428 124.381 114.239 124.181 114.122C123.981 114.006 123.744 113.972 123.519 114.028V114.033Z" fill="#020100"/>
<path d="M156.885 96.4034C154.602 99.7612 153.036 103.554 152.285 107.544C152.197 107.917 152.257 108.309 152.452 108.639C152.647 108.968 152.962 109.209 153.331 109.311C153.7 109.413 154.095 109.368 154.431 109.186C154.768 109.003 155.02 108.697 155.136 108.332C156.343 104.615 157.76 101.005 159.097 97.338C159.597 95.967 157.629 95.3614 156.887 96.4034H156.885Z" fill="#020100"/>
<path d="M106.304 137.477C106.258 137.507 106.214 137.54 106.173 137.576L107.108 137.457C107.308 137.666 107.508 137.876 107.715 138.086C107.584 138.403 107.448 138.72 107.315 139.038C106.663 139.094 106.505 139.208 106.85 139.372C107.037 139.491 107.219 139.621 107.394 139.757C107.794 140.046 108.182 140.335 108.579 140.63C109.298 141.168 110.014 141.708 110.727 142.251C112.234 143.407 113.722 144.589 115.192 145.798C118.088 148.173 120.931 150.614 123.72 153.12C129.271 158.157 134.532 163.503 139.48 169.134C139.735 168.182 139.98 167.234 140.234 166.284C138.58 166.526 136.912 166.676 135.241 166.731C133.63 166.627 132.013 166.682 130.413 166.896C128.872 167.257 129.113 169.315 130.413 169.791C132.022 170.369 134.079 170.143 135.762 170.08C137.562 170.001 139.357 169.831 141.14 169.57C142.523 169.383 142.631 167.571 141.894 166.726C135.492 159.326 128.485 152.474 120.944 146.24C117.192 143.152 113.294 140.233 109.304 137.457C108.619 136.808 107.725 136.424 106.782 136.374C106.33 136.394 105.9 136.579 105.576 136.895C105.251 137.21 105.053 137.634 105.02 138.086C104.997 138.434 105.09 138.78 105.282 139.071C105.475 139.362 105.758 139.583 106.087 139.698C106.416 139.814 106.774 139.819 107.106 139.712C107.439 139.605 107.727 139.393 107.927 139.107C108.567 138.155 107.258 136.76 106.301 137.48L106.304 137.477Z" fill="#020100"/>
<path d="M137.011 159.193C136.949 159.193 136.887 159.187 136.824 159.187C137.074 159.287 137.317 159.387 137.561 159.493C137.448 159.782 137.334 160.071 137.227 160.366C136.938 160.241 136.649 160.121 136.36 160.002C136.909 160.461 136.853 161.543 136.96 162.178C137.136 163.209 137.329 164.236 137.516 165.266C137.81 166.945 137.725 169.375 139.38 170.332C139.571 170.443 139.793 170.487 140.011 170.458C140.229 170.43 140.432 170.33 140.588 170.174C141.948 168.48 140.814 165.851 140.451 163.918C140.145 162.318 140.118 159.634 138.775 158.455C138.547 158.234 138.268 158.072 137.963 157.984C137.659 157.895 137.337 157.882 137.026 157.947C136.715 158.011 136.425 158.15 136.18 158.353C135.936 158.555 135.744 158.814 135.623 159.108C135.504 159.358 135.458 159.637 135.49 159.912C135.522 160.188 135.631 160.449 135.804 160.665C135.977 160.882 136.207 161.046 136.469 161.138C136.73 161.23 137.013 161.247 137.283 161.187C138.44 160.949 138.122 159.232 137.011 159.193Z" fill="#020100"/>
<path d="M36.7041 52.9453C38.2231 51.7453 39.5554 50.3033 41.0044 49.0293C42.3924 47.8113 43.8041 46.6289 45.2651 45.5039C48.2796 43.1944 51.4387 41.08 54.7231 39.1738C57.9664 37.2745 61.3418 35.6108 64.8232 34.1943C66.5512 33.4943 68.3023 32.8679 70.0703 32.2939C71.4363 31.8469 74.0601 31.6261 74.4961 30.0391C74.5415 29.8725 74.5427 29.6973 74.499 29.5303C74.4553 29.3632 74.3682 29.2099 74.247 29.0869C72.983 27.8869 70.5241 29.195 69.1181 29.665C67.2371 30.305 65.3891 31.0142 63.5591 31.7842C59.9887 33.2873 56.529 35.041 53.206 37.0322C49.9244 39.01 46.8004 41.238 43.8613 43.6963C40.9153 46.1433 37.6672 48.8407 35.4912 52.0137C34.9592 52.7957 36.0692 53.4432 36.6982 52.9502L36.7041 52.9453Z" fill="#020100"/>
<path d="M65.9378 27.5563C68.2515 27.2089 70.6163 27.5688 72.722 28.5886C72.631 27.8886 72.5399 27.1996 72.4549 26.5026C70.6042 28.2033 68.966 30.1214 67.576 32.2155C66.905 33.206 66.2902 34.2334 65.7342 35.2927C65.0199 36.2926 64.6538 37.5 64.6922 38.7282C64.7389 38.8947 64.8231 39.0475 64.9383 39.1764C65.0535 39.3054 65.1965 39.4063 65.3567 39.4714C65.517 39.5364 65.6901 39.5646 65.8626 39.5524C66.0351 39.5403 66.2023 39.4889 66.3519 39.402C67.1554 38.6547 67.7613 37.7191 68.115 36.6804C68.6299 35.6854 69.1952 34.7181 69.8089 33.7809C71.1315 31.8357 72.6444 30.0264 74.325 28.3805C74.4671 28.2369 74.5747 28.0632 74.6395 27.8718C74.7042 27.6803 74.7247 27.4765 74.699 27.2761C74.6734 27.0756 74.6024 26.8835 74.4915 26.7145C74.3806 26.5456 74.2326 26.4038 74.0589 26.3005C71.4483 25.0321 68.4555 24.7953 65.678 25.6374C64.692 25.9604 64.7778 27.6913 65.9378 27.5593V27.5563Z" fill="#020100"/>
<path d="M132.468 29.7108C135.975 29.8523 139.422 30.6741 142.616 32.1308C145.766 33.6807 148.648 35.7214 151.156 38.1767C156.573 43.4427 160.309 50.1167 163.986 56.6337C164.434 55.8577 164.885 55.0747 165.323 54.2987C162.019 54.3614 158.714 54.4261 155.406 54.4921C153.355 54.5311 153.355 57.7327 155.406 57.6767L165.323 57.4052C165.595 57.4017 165.861 57.3279 166.095 57.1903C166.33 57.0528 166.524 56.8565 166.66 56.621C166.795 56.3855 166.867 56.1183 166.868 55.8466C166.87 55.5749 166.8 55.3078 166.666 55.0712C162.614 48.0782 158.444 40.8709 152.358 35.4179C147.058 30.6699 139.528 26.6867 132.189 27.6767C130.971 27.8417 131.38 29.6328 132.468 29.7118V29.7108Z" fill="#020100"/>
<path d="M163.776 46.8414C163.283 48.9844 162.988 51.1597 162.648 53.3297C162.382 55.0067 161.543 57.4434 162.795 58.8434C162.942 58.9903 163.134 59.0843 163.34 59.1109C163.546 59.1375 163.754 59.0957 163.934 58.9908C165.504 57.9998 165.362 55.3812 165.566 53.7272C165.833 51.5442 166.144 49.3684 166.258 47.1744C166.249 46.8737 166.134 46.5865 165.932 46.3629C165.731 46.1393 165.457 45.9938 165.159 45.9537C164.861 45.9136 164.558 45.9808 164.304 46.1432C164.051 46.3056 163.864 46.5527 163.776 46.8404V46.8414Z" fill="#020100"/>
<path d="M192.54 111.908C192.71 110.927 192.875 109.953 193.04 108.971C192.14 108.853 191.24 108.729 190.34 108.61C190.748 112.605 190.839 116.625 190.612 120.634C190.285 124.642 189.532 128.605 188.368 132.455C186.024 140.18 181.926 147.259 176.394 153.138H178.825C177.666 152.19 176.799 150.933 176.325 149.512C176.104 148.842 175.97 148.148 175.925 147.444C175.919 147.028 175.88 146.613 175.812 146.203C175.674 145.841 175.579 145.465 175.528 145.081C175.585 143.716 173.687 143.614 173.267 144.775C173.075 145.296 172.678 145.63 172.536 146.203C172.418 146.741 172.394 147.295 172.463 147.841C172.577 149.325 172.982 150.773 173.656 152.101C174.33 153.428 175.259 154.609 176.39 155.576C176.717 155.89 177.152 156.065 177.605 156.065C178.058 156.065 178.494 155.89 178.821 155.576C184.677 149.296 189.028 141.765 191.543 133.555C193.985 125.605 195.033 116.408 193.033 108.242C192.938 107.928 192.734 107.659 192.457 107.481C192.181 107.304 191.851 107.232 191.526 107.276C191.201 107.321 190.902 107.479 190.683 107.724C190.465 107.968 190.341 108.283 190.333 108.611C190.299 109.602 190.27 110.599 190.233 111.596C190.188 112.888 192.307 113.229 192.528 111.909L192.54 111.908Z" fill="#020100"/>
<path d="M176.113 157.316C178.213 157.266 180.299 156.958 182.323 156.398C183.938 155.939 186.461 155.491 186.988 153.627C187.038 153.431 187.025 153.225 186.948 153.038C186.871 152.851 186.736 152.693 186.562 152.59C184.947 151.762 183.083 152.964 181.519 153.468C179.637 154.068 177.727 154.59 175.806 155.055C175.545 155.135 175.32 155.307 175.173 155.538C175.025 155.769 174.964 156.044 175.001 156.315C175.038 156.587 175.17 156.837 175.373 157.02C175.577 157.204 175.839 157.309 176.113 157.317V157.316Z" fill="#020100"/>
<path d="M133.147 189.458C116.639 197.051 96.8623 197.059 80.8473 188.185C80.5241 188.009 80.157 187.93 79.7902 187.959C79.4234 187.988 79.073 188.122 78.7814 188.347C78.4898 188.571 78.2692 188.876 78.1471 189.223C78.025 189.57 78.0065 189.944 78.0934 190.302C78.5664 193.443 79.2514 196.548 80.1442 199.596C80.2833 200.037 80.588 200.408 80.9943 200.629C81.4006 200.85 81.8768 200.906 82.3229 200.783C82.769 200.661 83.1505 200.369 83.3869 199.972C83.6232 199.574 83.6962 199.101 83.5905 198.65C82.7956 195.572 82.1693 192.451 81.7145 189.305C80.7905 190.005 79.8723 190.716 78.9543 191.419C92.3608 198.47 107.959 200.119 122.543 196.026C126.581 194.859 130.456 193.186 134.075 191.049C135.118 190.438 134.205 188.97 133.146 189.457L133.147 189.458Z" fill="#020100"/>
<path d="M81.335 192.694C81.6538 191.938 82.1437 191.266 82.7661 190.731C83.3885 190.196 84.1268 189.813 84.9224 189.611C86.3454 189.211 88.4023 189.895 89.5293 188.943C89.665 188.805 89.7623 188.634 89.812 188.447C89.8618 188.261 89.8621 188.064 89.813 187.877C89.365 185.366 84.9511 186.126 83.3921 186.789C82.2708 187.25 81.2637 187.95 80.4414 188.841C79.6192 189.732 79.002 190.792 78.6324 191.946C78.0774 193.697 80.6951 194.337 81.3321 192.694H81.335Z" fill="#020100"/>
<path d="M44.5862 167.753C45.7955 166.81 47.236 166.209 48.7571 166.013C49.3618 165.935 49.9712 165.902 50.5808 165.914C51.3088 166.026 52.0444 166.083 52.781 166.084C52.9753 166.077 53.1622 166.009 53.3147 165.888C53.4673 165.768 53.5774 165.602 53.6287 165.415C53.68 165.227 53.6698 165.028 53.5999 164.846C53.5299 164.665 53.4039 164.511 53.24 164.407C51.948 163.438 49.5621 163.665 48.0891 164.073C46.3759 164.553 44.8148 165.466 43.5559 166.723C42.8639 167.404 43.8672 168.316 44.5872 167.754L44.5862 167.753Z" fill="#020100"/>
<path d="M29.1551 185.667C27.6931 184.222 26.0612 182.998 24.6732 181.462C23.2845 179.887 22.0913 178.149 21.12 176.288C19.1026 172.42 17.5358 168.335 16.4501 164.11C13.7213 153.958 12.522 143.455 12.892 132.949C13.1141 127.02 13.8137 121.118 14.9833 115.301C15.0805 114.9 15.0314 114.479 14.8456 114.11C14.6597 113.742 14.3489 113.451 13.9686 113.291C13.5883 113.131 13.1634 113.111 12.7699 113.235C12.3764 113.359 12.0402 113.62 11.8212 113.969C9.07782 118.036 6.33482 122.107 3.59215 126.181C2.46515 127.854 5.1343 129.363 6.2733 127.752C9.12263 123.74 11.967 119.728 14.807 115.716C13.753 115.268 12.6989 114.824 11.6449 114.384C8.0197 130.795 8.41462 147.84 12.7953 164.066C13.9109 168.657 15.6135 173.085 17.8612 177.241C20.0942 181.106 23.8171 185.894 28.4071 186.949C28.569 186.988 28.7395 186.974 28.8929 186.909C29.0463 186.844 29.1741 186.731 29.2582 186.587C29.3422 186.443 29.3779 186.276 29.3592 186.11C29.3406 185.944 29.269 185.789 29.1551 185.668V185.667Z" fill="#020100"/>
<path d="M8.57891 119.139C10.4379 120.339 12.2851 121.539 14.2181 122.618C15.9861 123.618 17.9411 125.134 19.9861 125.434C20.2375 125.495 20.5017 125.472 20.7396 125.371C20.9774 125.269 21.176 125.095 21.306 124.871C21.4359 124.647 21.4903 124.388 21.4607 124.131C21.4312 123.874 21.3192 123.633 21.1419 123.445C19.8279 121.853 17.5329 120.968 15.7649 119.971C13.8319 118.883 11.849 117.919 9.86504 116.95C9.57536 116.789 9.23421 116.748 8.91435 116.835C8.5945 116.922 8.32113 117.131 8.15361 117.417C7.98609 117.703 7.93746 118.043 8.01787 118.365C8.09828 118.687 8.30134 118.964 8.58379 119.138L8.57891 119.139Z" fill="#020100"/>
</svg>
