<svg width="164" height="171" viewBox="0 0 164 171" fill="none" xmlns="http://www.w3.org/2000/svg">
<path d="M117.423 2.94041C113.575 4.21041 110.391 7.63982 108.066 10.8398C105.694 14.0393 104.264 17.8391 103.937 21.8086C103.381 30.0016 108.528 37.791 116.809 39.292C120.929 40.0284 125.171 39.6422 129.09 38.1738C133.009 36.7055 136.46 34.2094 139.081 30.9472C143.998 24.5792 144.756 14.9631 140.128 8.20505C137.661 4.59576 133.903 2.0714 129.628 1.15232C125.448 0.25232 120.178 0.574008 116.972 3.70701C115.449 5.19501 116.994 8.08981 119.116 7.38181C121.867 6.46481 124.365 5.49843 127.325 5.93943C130.113 6.34627 132.697 7.6365 134.696 9.62107C139.035 14.0111 139.331 21.4111 136.357 26.6211C133.173 32.1731 126.697 35.3355 120.409 35.3135C116.85 35.2985 113.377 34.2514 110.973 31.5234C109.044 29.1934 107.936 26.2938 107.818 23.2715C107.7 19.7271 108.684 16.2334 110.634 13.2715C112.749 9.88446 115.925 7.71128 118.467 4.73728C119.109 3.97928 118.517 2.57248 117.42 2.93748L117.423 2.94041Z" fill="black"/>
<path d="M95.0418 88.7868C97.5548 81.6108 99.5258 74.3338 102.642 67.3668C105.558 60.8468 108.735 53.7143 113.492 48.3053C117.449 43.8163 124.625 40.0259 130.119 44.3219C134.559 47.7869 135.382 54.4721 136.097 59.6491C137.36 68.7597 138.619 77.8729 139.873 86.9889C140.688 85.9209 141.511 84.844 142.327 83.777C126.906 83.7703 111.486 83.7644 96.0652 83.7604C92.7002 83.7604 92.6932 89.0028 96.0652 88.9948C111.485 88.9448 126.906 88.8994 142.327 88.8581C142.716 88.849 143.097 88.7526 143.443 88.5758C143.789 88.3991 144.092 88.146 144.327 87.8366C144.562 87.5271 144.724 87.1686 144.802 86.7877C144.88 86.4069 144.871 86.0132 144.775 85.6364C143.388 76.6777 141.988 67.7219 140.575 58.7672C139.622 52.6672 138.33 45.5402 133.375 41.3112C127.621 36.4012 119.427 37.6648 113.788 42.0758C107.572 46.9348 103.826 54.7966 100.548 61.7916C96.6481 70.1026 93.0971 79.2347 91.9641 88.3747C91.7401 90.2157 94.4908 90.3458 95.0388 88.7858L95.0418 88.7868Z" fill="black"/>
<path d="M33.6841 83.495C26.1031 81.813 18.609 86.7145 15.96 93.8045C13.115 101.414 17.4403 109.934 24.2603 113.732C31.4723 117.753 40.237 115.868 45.832 109.977C51.369 104.151 53.1603 94.8371 48.5903 87.8641C47.4661 86.0036 45.8669 84.4754 43.9575 83.4364C42.0481 82.3973 39.8969 81.8847 37.7241 81.951C33.6961 82.189 30.0654 84.3835 28.8814 88.3895C28.824 88.6224 28.8433 88.868 28.937 89.0887C29.0308 89.3095 29.1935 89.4937 29.4009 89.6141C29.6083 89.7345 29.8492 89.7847 30.0874 89.7567C30.3256 89.7287 30.5484 89.6241 30.7222 89.4588C31.6029 88.5533 32.6635 87.8423 33.8355 87.3709C35.0074 86.8995 36.2649 86.678 37.5273 86.7215C38.7898 86.765 40.0293 87.0719 41.166 87.6229C42.3028 88.1739 43.3121 88.9567 44.1284 89.9207C47.8614 94.6637 46.9223 101.595 43.3203 106.092C39.5803 110.749 33.2921 113.124 27.5811 110.828C22.1661 108.648 17.8494 102.779 18.7734 96.786C19.8064 90.014 26.6792 84.7949 33.4292 85.4159C34.5292 85.5159 34.757 83.733 33.689 83.495H33.6841Z" fill="black"/>
<path d="M4.45206 158.354C5.03706 156.78 6.062 155.583 6.538 153.937C7.014 152.291 7.38294 150.628 7.87394 148.998C8.828 145.815 9.98076 142.695 11.3251 139.656C14.0341 133.596 17.438 127.87 21.4682 122.595C23.4102 120.054 31.8931 108.15 35.1781 113.86C36.8781 116.813 37.748 120.502 38.81 123.721C40.01 127.367 41.1026 131.051 42.0873 134.769C44.2648 143.167 45.9902 151.675 47.2563 160.259L49.6562 157.097C41.6422 157.581 33.6285 158.061 25.6151 158.535L13.933 159.229C9.99902 159.459 5.53316 159.106 1.90616 160.729C0.195162 161.494 0.852073 164.004 2.38907 164.482C5.94907 165.582 10.251 164.648 13.933 164.41L25.954 163.63C33.8593 163.117 41.7595 162.604 49.6542 162.092C50.0358 162.082 50.41 161.988 50.7499 161.814C51.0898 161.641 51.3867 161.393 51.6181 161.09C51.8495 160.786 52.0099 160.434 52.0873 160.061C52.1647 159.687 52.1572 159.3 52.0653 158.93C50.7053 150.479 48.8351 142.119 46.4652 133.895C45.2652 129.677 43.9608 125.484 42.5522 121.317C41.4042 117.923 40.458 113.817 38.352 110.856C36.186 107.837 32.62 107.303 29.352 108.805C26.068 110.315 23.5521 113.288 21.2231 115.959C16.349 121.528 12.2431 127.724 9.01505 134.384C7.19694 138.134 5.64826 142.009 4.38028 145.979C3.78028 147.871 3.24707 149.792 2.78507 151.727C2.49862 152.718 2.33402 153.741 2.29435 154.772C2.30135 155.906 2.69399 156.972 2.70499 158.122C2.7129 158.331 2.79472 158.531 2.93546 158.686C3.0762 158.84 3.26718 158.94 3.47452 158.968C3.68186 158.995 3.89191 158.949 4.06827 158.837C4.24463 158.724 4.37552 158.553 4.4379 158.354L4.45206 158.354Z" fill="black"/>
<path d="M8.76904 140.103C13.303 135.903 17.707 131.555 22.269 127.368C24.469 125.354 26.7074 123.376 28.9834 121.434C30.1167 120.465 31.2621 119.507 32.4194 118.56C33.7467 117.649 34.9252 116.539 35.9141 115.268C36.0419 115.036 36.0994 114.772 36.0796 114.508C36.0598 114.245 35.9637 113.992 35.8027 113.782C35.6418 113.572 35.423 113.413 35.1733 113.326C34.9237 113.238 34.6539 113.225 34.397 113.289C31.741 114.278 29.365 116.948 27.25 118.804C24.9253 120.84 22.6394 122.92 20.3921 125.043C15.7677 129.322 11.4567 133.928 7.49219 138.825C7.32285 138.994 7.22793 139.224 7.22803 139.463C7.22812 139.703 7.3232 139.933 7.49268 140.102C7.66215 140.271 7.89177 140.367 8.13135 140.367C8.37093 140.367 8.60068 140.272 8.77002 140.102L8.76904 140.103Z" fill="black"/>
<path d="M3.88919 151.864C9.32519 146.716 14.5382 141.344 19.8892 136.104C22.4892 133.563 25.1148 131.05 27.7661 128.567C29.1301 127.289 30.5022 126.01 31.8882 124.748C33.3749 123.599 34.6628 122.215 35.7002 120.648C35.833 120.406 35.8836 120.127 35.8448 119.853C35.8059 119.58 35.6795 119.325 35.4844 119.13C35.2894 118.934 35.0362 118.806 34.7627 118.766C34.4892 118.726 34.2103 118.776 33.9673 118.908C32.392 119.749 30.9734 120.855 29.7735 122.178C28.4088 123.456 27.0534 124.743 25.708 126.041C23.008 128.633 20.3395 131.258 17.7022 133.917C12.3581 139.179 7.30872 144.732 2.57718 150.551C1.84818 151.461 3.00315 152.702 3.89115 151.865L3.88919 151.864Z" fill="black"/>
<path d="M2.87124 162.303C9.05824 157.835 14.3431 152.037 19.7931 146.724C22.5081 144.081 25.2014 141.405 27.8864 138.734C30.7024 135.934 33.8934 133.246 36.3864 130.17C36.7006 129.838 36.873 129.396 36.8668 128.939C36.8607 128.481 36.6762 128.044 36.3532 127.72C36.0302 127.396 35.5938 127.211 35.1364 127.203C34.679 127.196 34.2369 127.367 33.9035 127.68C30.9035 130.098 28.2793 133.189 25.5573 135.917C22.7923 138.675 20.0272 141.434 17.2902 144.229C11.9622 149.665 6.1433 154.928 1.6603 161.099C1.1483 161.799 2.16635 162.811 2.86635 162.304L2.87124 162.303Z" fill="black"/>
<path d="M11.5781 164.03C14.3231 162.403 16.8366 160.414 19.0503 158.117C21.4503 155.835 23.8205 153.525 26.1611 151.186C28.5018 148.847 30.8193 146.488 33.1133 144.111C35.3083 141.83 37.7562 139.475 39.3872 136.754C40.1242 135.526 38.5794 133.743 37.3154 134.674C34.8342 136.728 32.5453 139.004 30.478 141.474C28.2334 143.9 25.9618 146.307 23.6631 148.695C21.3644 151.082 19.0445 153.437 16.7031 155.761C14.36 157.906 12.2697 160.311 10.4731 162.93C10.0331 163.637 10.8992 164.397 11.5732 164.031L11.5781 164.03Z" fill="black"/>
<path d="M23.2042 164.238C26.7132 160.924 30.3733 157.777 33.9113 154.492C35.6433 152.892 37.3904 151.315 39.1744 149.763C40.8744 148.284 42.5456 146.898 43.4196 144.783C43.6936 144.111 42.9135 143.577 42.3365 143.7C40.1926 144.162 38.5362 145.649 36.9362 147.078C35.0955 148.717 33.2831 150.384 31.4991 152.078C28.0523 155.463 24.8079 159.048 21.7824 162.814C21.6034 163.004 21.5058 163.256 21.5099 163.518C21.514 163.779 21.6195 164.028 21.8043 164.213C21.9891 164.398 22.2383 164.504 22.4996 164.508C22.761 164.512 23.0137 164.414 23.2042 164.235V164.238Z" fill="black"/>
<path d="M35.7123 160.614L39.9359 157.473C41.2209 156.521 42.6579 155.69 43.2929 154.189C43.7479 153.106 42.4771 152.319 41.5751 152.478C40.1241 152.73 38.8601 154.166 37.7631 155.106C36.4924 156.188 35.2259 157.271 33.9633 158.354C32.7363 159.401 34.3889 161.595 35.7099 160.614H35.7123Z" fill="black"/>
<path d="M104.926 26.6334C108.894 24.5553 112.569 21.9606 115.856 18.9166C119.004 16.0216 122.412 12.9096 123.892 8.83063C123.923 8.71334 123.919 8.59001 123.88 8.47516C123.841 8.36031 123.768 8.25914 123.672 8.18512C123.576 8.1111 123.46 8.06758 123.339 8.05914C123.218 8.05071 123.097 8.0773 122.992 8.13727C119.657 10.5843 117.246 14.0427 114.257 16.9097C111.073 19.9371 107.725 22.7881 104.229 25.4498C104.074 25.5428 103.962 25.6928 103.918 25.8677C103.873 26.0426 103.899 26.2286 103.991 26.3843C104.082 26.5401 104.231 26.653 104.405 26.6998C104.579 26.7465 104.765 26.7226 104.922 26.6334H104.926Z" fill="black"/>
<path d="M106.449 32.0063C110.485 27.7973 114.759 23.7469 119.105 19.8569C121.249 17.9369 123.451 16.0808 125.682 14.2758C127.768 12.5868 130.808 10.9911 132.082 8.55707C132.201 8.33813 132.255 8.08978 132.235 7.84125C132.215 7.59273 132.124 7.35503 131.971 7.15766C131.819 6.96029 131.612 6.81202 131.377 6.72993C131.142 6.64784 130.887 6.63589 130.645 6.69575C127.901 7.14375 125.404 9.75656 123.296 11.4536C120.979 13.3236 118.747 15.2867 116.574 17.3227C112.246 21.4227 108.268 25.8773 104.683 30.6411C103.904 31.6661 105.583 32.9093 106.452 32.0063H106.449Z" fill="black"/>
<path d="M109.619 39.3047C113.272 34.9507 117.134 30.7641 121.098 26.7051C123.011 24.7421 124.982 22.8289 126.989 20.9659C128.072 19.9659 129.155 18.9659 130.245 17.9659C131.286 17.0703 132.117 15.9565 132.678 14.7032C132.767 14.5389 132.807 14.3522 132.792 14.1661C132.777 13.9799 132.708 13.8024 132.594 13.6544C132.481 13.5063 132.326 13.3944 132.15 13.3321C131.974 13.2698 131.784 13.2593 131.602 13.3028C130.35 13.5998 129.19 14.1998 128.223 15.0499C127.097 16.0029 125.985 16.9792 124.917 17.9962C122.774 20.0242 120.685 22.1103 118.65 24.2549C114.672 28.4983 110.977 32.9997 107.59 37.7286C106.731 38.9126 108.68 40.4278 109.619 39.3008V39.3047Z" fill="black"/>
<path d="M116.217 42.2073C120.246 39.5347 124.042 36.5275 127.566 33.218C130.988 29.985 134.259 26.3179 135.991 21.8909C136.391 20.8669 134.991 20.3543 134.317 20.9163C130.793 23.8553 127.971 27.5806 124.866 30.9446C121.749 34.3324 118.383 37.4818 114.795 40.3665C113.763 41.1965 115.113 42.9433 116.217 42.2073Z" fill="black"/>
<path d="M103.338 66.3928C108.312 61.9528 113.38 57.5921 118.268 53.0491C120.628 50.8621 122.96 48.6498 125.307 46.4378C127.566 44.3228 130.801 42.0546 132.237 39.2766C132.367 39.0386 132.415 38.7654 132.377 38.4973C132.339 38.2293 132.215 37.9804 132.024 37.7883C131.833 37.5962 131.585 37.4711 131.317 37.4309C131.05 37.3908 130.776 37.438 130.537 37.5657C127.692 38.8577 125.23 41.9972 122.999 44.1272C120.675 46.3522 118.336 48.5611 116.025 50.7981C111.239 55.4341 106.611 60.2488 101.918 64.9788C101.001 65.8958 102.38 67.2458 103.341 66.3938L103.338 66.3928Z" fill="black"/>
<path d="M96.5514 81.8784C98.0824 80.6154 99.7421 79.5629 101.208 78.1909C102.637 76.8399 104.045 75.4678 105.467 74.1118C108.391 71.3118 111.267 68.4511 114.131 65.5981C116.925 62.8268 119.698 60.0389 122.448 57.2329C125.162 54.4599 128.281 51.7816 130.382 48.4966C130.519 48.2437 130.569 47.9535 130.527 47.6694C130.485 47.3853 130.352 47.1228 130.148 46.9204C129.944 46.718 129.681 46.5867 129.397 46.5464C129.112 46.5061 128.822 46.559 128.57 46.6968C125.321 48.8478 122.7 51.9963 119.97 54.7593C117.134 57.6399 114.313 60.5423 111.509 63.4663C108.78 66.3033 106.058 69.1418 103.387 72.0298C101.972 73.5598 100.528 75.0696 99.1422 76.6216C97.8792 78.0366 96.9265 79.6213 95.7565 81.0903C95.6588 81.1971 95.6058 81.3372 95.609 81.4819C95.6122 81.6266 95.6712 81.7653 95.7736 81.8676C95.8759 81.97 96.0137 82.0285 96.1583 82.0317C96.303 82.0349 96.4436 81.9819 96.5504 81.8843L96.5514 81.8784Z" fill="black"/>
<path d="M104.016 84.0805C109.698 80.5575 114.416 75.6046 119.047 70.8256C121.381 68.4143 123.681 65.9672 125.947 63.4838C127.109 62.2058 128.293 60.9267 129.42 59.6137C129.995 59.0592 130.498 58.4357 130.92 57.7582C131.126 57.17 131.186 56.5407 131.094 55.9243C131.091 55.8048 131.061 55.688 131.007 55.5815C130.953 55.4749 130.876 55.3817 130.781 55.309C130.686 55.2363 130.576 55.1852 130.459 55.1606C130.342 55.1359 130.221 55.1382 130.105 55.1664C129.452 55.1635 128.812 55.3515 128.264 55.7075C127.616 56.2866 127.026 56.9274 126.502 57.6205C125.354 58.9205 124.202 60.2125 123.044 61.4975C120.856 63.9095 118.637 66.287 116.388 68.6303C111.846 73.3593 106.959 77.842 103.075 83.141C102.663 83.705 103.457 84.4195 104.013 84.0805H104.016Z" fill="black"/>
<path d="M112.421 87.9932C116.485 83.7262 120.643 79.5391 124.772 75.3301C126.765 73.3011 128.801 71.3232 130.822 69.3232C132.548 67.6232 135.594 65.4681 135.811 62.9121C135.811 62.5954 135.686 62.2912 135.463 62.0664C135.24 61.8416 134.937 61.7143 134.62 61.7119C132.086 61.7839 129.711 64.8673 128.028 66.5273C126 68.5203 124.043 70.5776 122.094 72.6426C118.015 76.9596 114.232 81.4711 110.55 86.1211C109.525 87.4211 111.215 89.2542 112.421 87.9912V87.9932Z" fill="black"/>
<path d="M121.993 87.8489C125.458 84.7309 128.945 81.6336 132.375 78.4866C134.049 76.9556 135.724 75.4182 137.349 73.8362C138.706 72.5242 140.756 70.696 141.088 68.761C141.182 68.261 140.857 67.5415 140.222 67.6145C138.273 67.8605 136.622 69.4551 135.197 70.7141C133.421 72.2951 131.732 73.9994 130.035 75.6594C126.621 78.9874 123.292 82.4019 119.921 85.7659C118.578 87.1159 120.599 89.102 121.993 87.845V87.8489Z" fill="black"/>
<path d="M110.766 12.6784C112.466 11.2054 114.189 9.74225 115.885 8.26925C117.385 6.96125 119.38 5.52523 120.276 3.72823C120.38 3.53646 120.419 3.31617 120.387 3.1003C120.356 2.88443 120.256 2.68423 120.101 2.52999C119.947 2.37574 119.747 2.27522 119.531 2.24386C119.316 2.21249 119.095 2.25219 118.904 2.35616C117.056 3.15016 115.504 5.07088 114.11 6.49288C112.543 8.10355 110.981 9.71579 109.425 11.3298C108.558 12.2178 109.85 13.4734 110.766 12.6794V12.6784Z" fill="black"/>
<path d="M15.8805 101.637C19.1515 99.2375 22.5013 96.9158 25.6563 94.3748C27.2443 93.0968 28.8185 91.8045 30.3995 90.5125C31.7065 89.4585 33.3302 88.679 33.0772 86.824C33.0352 86.6731 32.9547 86.5357 32.8433 86.4255C32.732 86.3154 32.5938 86.2364 32.4425 86.196C30.8685 85.633 29.6121 87.2195 28.5001 88.1365C26.9334 89.4371 25.3692 90.7394 23.8072 92.0427C20.6962 94.6347 17.7721 97.4796 14.7901 100.216C14.0471 100.902 15.0435 102.25 15.8805 101.637Z" fill="black"/>
<path d="M19.9233 105.673C24.1233 103.153 27.6341 99.8118 31.2651 96.5338C33.1131 94.8658 34.965 93.198 36.81 91.523C38.535 89.957 40.4341 88.3229 41.4521 86.1949C41.8061 85.4439 41.1992 84.303 40.2612 84.65C38.1908 85.5658 36.3118 86.8643 34.7231 88.4771C32.7891 90.2161 30.8902 91.9985 28.9692 93.7525C25.2952 97.1165 21.5911 100.353 18.6171 104.373C18.0321 105.167 19.1513 106.134 19.9233 105.672V105.673Z" fill="black"/>
<path d="M26.1325 110.142C28.0895 108.482 30.0606 106.964 31.8796 105.13C33.5976 103.412 35.3015 101.68 37.0705 100.005C38.8395 98.3295 40.6364 96.6913 42.4704 95.0953C44.2034 93.5953 46.4053 92.1148 47.3073 89.9488C47.7833 88.8088 46.4484 87.9208 45.4734 88.1158C43.2574 88.5548 41.2284 90.7573 39.5974 92.2223C37.7127 93.9183 35.8645 95.6568 34.0525 97.4362C32.2475 99.2112 30.4286 101.002 28.7526 102.901C27.1847 104.785 25.7694 106.791 24.5212 108.901C23.8642 109.933 25.2866 110.857 26.1316 110.142H26.1325Z" fill="black"/>
<path d="M31.7922 113.045C34.5652 110.33 37.3443 107.602 40.2253 104.995C41.6253 103.728 43.038 102.472 44.4626 101.226C45.7986 100.049 47.7763 98.8434 48.4983 97.1834C48.6394 96.922 48.7021 96.6251 48.6785 96.3289C48.6548 96.0328 48.5458 95.7492 48.365 95.5135C48.1841 95.2778 47.9394 95.0994 47.6594 94.9998C47.3795 94.9003 47.0764 94.8843 46.7873 94.953C44.9393 95.292 43.3006 97.0385 41.9006 98.2225C40.376 99.5078 38.9052 100.853 37.4885 102.259C34.6269 105.08 31.98 108.111 29.5696 111.326C28.5806 112.639 30.6692 114.135 31.7922 113.045Z" fill="black"/>
<path d="M42.7444 68.3864C46.556 64.9162 50.5752 61.6814 54.7795 58.6989C58.6855 56.0419 62.9443 54.0428 66.8943 51.4938C70.2073 49.3568 73.2762 46.4618 74.0842 42.4548C74.8282 38.8018 73.8844 35.077 70.7204 32.904C70.2874 33.928 69.8546 34.961 69.4206 35.987C73.3046 37.0183 77.1888 38.0513 81.0735 39.0866C83.0735 39.6136 85.0736 40.1422 87.0656 40.6872C87.8376 40.8972 88.3726 40.8382 88.2136 41.6872C87.9511 42.6107 87.6077 43.5091 87.1882 44.3727C84.3072 51.8587 81.4704 59.3727 78.6184 66.8727H82.6545C81.2965 63.6374 79.9316 60.4082 78.5603 57.1842C78.3261 56.7803 77.9648 56.4652 77.5324 56.2887C77.1001 56.1123 76.6216 56.0839 76.1716 56.2087C66.1319 59.976 57.024 65.8678 49.4714 73.4801C49.1394 73.8191 48.8216 74.1717 48.4826 74.4967C48.2366 74.7267 47.8902 74.8581 48.1062 74.9381C47.7162 74.8001 47.0966 73.168 46.9446 72.859C46.1396 71.1691 45.613 69.3596 45.3855 67.5016C45.3726 67.1934 45.2957 66.8917 45.1594 66.6149C45.0231 66.3381 44.8304 66.0923 44.594 65.8942C44.3575 65.6961 44.0822 65.5502 43.7859 65.4645C43.4895 65.3788 43.179 65.3558 42.8733 65.3971C42.5676 65.4385 42.2739 65.5434 42.011 65.7048C41.748 65.8661 41.5212 66.0798 41.3459 66.3337C41.1706 66.5875 41.0502 66.8754 40.9924 67.1784C40.9346 67.4814 40.9409 67.7929 41.0105 68.0934C41.3282 70.2164 41.948 72.2837 42.8513 74.2311C43.5873 75.8401 44.5692 77.8988 46.2082 78.7868C47.9262 79.7108 49.7316 79.025 51.0886 77.819C52.6556 76.425 54.0553 74.844 55.6223 73.444C61.9928 67.7862 69.3361 63.3293 77.2956 60.2897C76.5016 59.9657 75.6955 59.6479 74.9055 59.3229C76.2125 62.3769 77.5054 65.437 78.8254 68.485C79.6124 70.31 82.1036 69.473 82.6526 67.985C84.2832 63.5377 85.9165 59.0874 87.5525 54.6354C88.3315 52.5124 89.1113 50.399 89.8913 48.276C90.7935 46.2451 91.523 44.1415 92.0715 41.988C92.9015 37.431 87.5303 36.9553 84.3713 36.1813C79.686 35.0346 75.001 33.8857 70.3156 32.7331C69.9245 32.6375 69.5118 32.684 69.1521 32.8649C68.7924 33.0458 68.5092 33.3494 68.3528 33.7204C68.1963 34.0913 68.1771 34.5055 68.2986 34.8893C68.42 35.2732 68.674 35.6017 69.0154 35.8151C71.7304 37.6151 71.4926 41.6265 70.0696 44.1735C68.1856 47.5525 64.3882 49.4591 61.1462 51.2741C53.8042 55.3681 46.6134 60.3547 41.0114 66.6657C40.7968 66.8973 40.6803 67.2035 40.6863 67.5192C40.6922 67.8349 40.82 68.1357 41.0432 68.359C41.2664 68.5824 41.5673 68.7104 41.883 68.7165C42.1987 68.7226 42.5048 68.6068 42.7365 68.3923L42.7444 68.3864Z" fill="black"/>
<path d="M45.9282 67.7928C46.5062 67.9228 47.0693 68.0533 47.6533 68.1473C48.2743 68.2403 48.7442 68.3991 49.2632 67.9471C49.3849 67.8225 49.4531 67.6555 49.4531 67.4813C49.4531 67.3071 49.3849 67.1391 49.2632 67.0145C48.7442 66.5745 48.2823 66.726 47.6533 66.828C47.0693 66.914 46.5062 67.0437 45.9282 67.1737C45.8625 67.1938 45.8051 67.2346 45.7642 67.2899C45.7233 67.3452 45.7012 67.4125 45.7012 67.4813C45.7012 67.5501 45.7233 67.6165 45.7642 67.6717C45.8051 67.727 45.8625 67.7679 45.9282 67.7879V67.7928Z" fill="black"/>
<path d="M50.1592 63.6495C53.4002 63.8435 56.6493 64.4789 59.8833 64.5489C61.1833 64.5779 61.2264 62.8675 60.1724 62.4425C57.1114 61.1935 53.3862 61.2138 50.1592 61.5958C49.8949 61.6075 49.6453 61.7211 49.4624 61.9122C49.2795 62.1034 49.1777 62.3577 49.1777 62.6222C49.1777 62.8867 49.2795 63.141 49.4624 63.3321C49.6453 63.5233 49.8949 63.6369 50.1592 63.6486V63.6495Z" fill="black"/>
<path d="M56.8374 58.7114C59.4864 59.1294 62.129 59.6112 64.793 59.8872C67.327 60.1482 70.2004 60.8486 72.7124 60.2876C72.9171 60.2261 73.0996 60.1065 73.2383 59.9438C73.3769 59.7812 73.4659 59.5825 73.4941 59.3706C73.5224 59.1588 73.4886 58.9428 73.3975 58.7495C73.3063 58.5562 73.1614 58.3938 72.98 58.2808C70.72 57.2188 67.904 57.2416 65.457 56.9526C62.699 56.6276 59.9341 56.4909 57.1621 56.3179C55.8121 56.2309 55.4624 58.4973 56.8374 58.7173V58.7114Z" fill="black"/>
<path d="M65.2621 54.3357C68.1814 55.3741 71.1557 56.251 74.1713 56.9626C76.6903 57.6276 79.8241 58.8262 82.4301 58.1482C82.5487 58.1138 82.6564 58.0491 82.7426 57.9607C82.8288 57.8722 82.8906 57.7627 82.9218 57.6433C82.9531 57.5238 82.9527 57.3983 82.9208 57.279C82.889 57.1597 82.8268 57.0506 82.7402 56.9626C80.7912 55.1296 77.4849 54.6676 74.9789 54.0466C71.9864 53.2287 68.9526 52.5711 65.8901 52.0759C65.5955 52.0081 65.286 52.0561 65.0263 52.2107C64.7666 52.3652 64.5769 52.6148 64.496 52.906C64.4151 53.1972 64.4495 53.5077 64.5922 53.7741C64.735 54.0405 64.9749 54.2417 65.2621 54.3357Z" fill="black"/>
<path d="M69.6038 49.4623C72.4491 50.5295 75.3628 51.4052 78.325 52.0834C79.729 52.5014 81.1532 52.8485 82.5921 53.1234C83.8902 53.4412 85.2445 53.4536 86.5482 53.1595C86.6947 53.1157 86.8272 53.0343 86.9334 52.9242C87.0396 52.8141 87.1156 52.6787 87.1541 52.5306C87.1926 52.3826 87.1922 52.2273 87.1531 52.0795C87.1141 51.9316 87.0376 51.7966 86.931 51.6869C85.104 49.7449 81.3432 49.4419 78.8592 48.8929C75.9052 48.1823 72.9071 47.6684 69.8851 47.3548C68.5851 47.2398 68.5638 49.0543 69.6038 49.4613V49.4623Z" fill="black"/>
<path d="M73.499 43.6432C75.521 44.3222 77.535 45.0798 79.585 45.6578C81.376 46.1578 83.354 46.9141 85.209 46.6471C86.386 46.4811 86.2203 44.9566 85.5093 44.4156C84.1163 43.3546 81.7703 43.0371 80.0733 42.6471C78.0953 42.2001 76.0814 41.8961 74.0884 41.5211C73.9491 41.4827 73.8031 41.472 73.6597 41.4898C73.5163 41.5077 73.3781 41.5532 73.2525 41.6246C72.9986 41.7687 72.8125 42.0082 72.7349 42.2896C72.6573 42.571 72.6948 42.8717 72.8389 43.1256C72.983 43.3794 73.222 43.5656 73.5034 43.6432H73.499Z" fill="black"/>
<path d="M100.529 104.742C99.5597 103.785 98.6598 102.759 97.8364 101.674C97.4034 102.418 96.9704 103.154 96.5444 103.899C99.8794 104.62 103.496 104.099 106.897 103.985C110.464 103.862 114.028 103.741 117.589 103.624C121.148 103.509 124.715 103.35 128.281 103.278C130.007 103.242 131.725 103.227 133.45 103.198C135.132 103.069 136.821 103.059 138.504 103.169C139.969 103.357 140.511 104.202 140.973 105.523C141.558 107.175 142.034 108.878 142.554 110.553C143.621 113.953 144.684 117.354 145.745 120.754C147.868 127.562 149.993 134.366 152.12 141.164C153.282 144.897 154.447 148.631 155.614 152.364C156.235 154.335 156.849 156.313 157.462 158.284C157.937 160.258 158.647 162.167 159.578 163.971C160.578 165.624 163.541 165.048 163.404 162.933C163.166 159.294 161.455 155.59 160.357 152.125L156.914 141.274C154.618 134.039 152.325 126.806 150.033 119.574L146.59 108.722C145.673 105.841 145.059 102.088 142.503 100.161C139.947 98.2339 136.396 98.9769 133.45 99.1609C129.544 99.4059 125.639 99.6078 121.726 99.7888C117.589 99.9775 113.45 100.163 109.308 100.345L103.099 100.626C100.894 100.586 98.6919 100.821 96.5444 101.326C96.27 101.41 96.0296 101.58 95.8589 101.81C95.6882 102.041 95.5957 102.32 95.5957 102.607C95.5957 102.894 95.6882 103.173 95.8589 103.404C96.0296 103.635 96.27 103.805 96.5444 103.888C97.7389 104.302 98.902 104.801 100.024 105.383C100.424 105.613 100.89 105.058 100.524 104.733L100.529 104.742Z" fill="black"/>
<path d="M95.1218 105.363C96.2048 103.551 94.1112 101.89 92.3572 102.194C89.7502 102.64 88.9199 106.547 88.0759 108.569C85.3099 115.169 82.5435 121.772 79.7761 128.379C74.2531 141.579 68.8459 154.831 63.4309 168.079C62.7379 169.779 64.6658 170.924 66.0588 170.714C89.9347 167.095 114.064 165.41 138.211 165.675C145.034 165.754 151.851 165.986 158.664 166.368C161.364 166.52 161.357 162.318 158.664 162.168C134.249 160.774 109.762 161.368 85.4441 163.944C78.5854 164.673 71.746 165.554 64.926 166.587C65.799 167.467 66.68 168.341 67.554 169.222C72.015 158.335 76.5278 147.462 80.8948 136.539C83.0401 131.182 85.1824 125.83 87.3211 120.483C88.4331 117.696 89.5469 114.911 90.6629 112.129C91.1762 110.852 91.6889 109.569 92.2009 108.281C92.4609 107.637 92.6849 106.974 92.9739 106.354C93.0099 106.275 93.7679 104.966 93.8259 105.191C93.8654 105.323 93.942 105.441 94.0466 105.53C94.1513 105.62 94.2799 105.677 94.4163 105.695C94.5527 105.714 94.6912 105.692 94.8157 105.633C94.9402 105.574 95.0452 105.481 95.1179 105.364L95.1218 105.363Z" fill="black"/>
<path d="M149.76 166.281C152.241 164.931 154.586 163.342 156.76 161.538C156.957 161.33 157.082 161.064 157.116 160.779C157.15 160.494 157.09 160.207 156.946 159.959C156.802 159.711 156.581 159.516 156.317 159.404C156.053 159.292 155.76 159.269 155.481 159.338C152.863 160.402 150.358 161.725 148.003 163.287C146.097 164.442 147.829 167.424 149.757 166.287L149.76 166.281Z" fill="black"/>
</svg>
