<svg width="286" height="361" viewBox="0 0 286 361" fill="none" xmlns="http://www.w3.org/2000/svg">
<path d="M4.51904 138.452L5.01905 138.451L5.01903 138.448L4.51904 138.452ZM4.51904 138.452C5.01904 138.451 5.01904 138.451 5.01905 138.453L5.01907 138.459L5.01914 138.485L5.01944 138.587L5.02061 138.989L5.02511 140.559C5.02901 141.934 5.03467 143.951 5.04168 146.518C5.0557 151.653 5.0751 158.99 5.09667 167.798C5.13979 185.415 5.19154 208.918 5.22604 232.465C5.26054 256.011 5.27779 279.6 5.25192 297.389C5.23898 306.283 5.21526 313.727 5.17751 318.992C5.15864 321.624 5.13626 323.712 5.10993 325.165C5.09677 325.89 5.08258 326.46 5.06724 326.86C5.05959 327.06 5.05151 327.222 5.04279 327.341C5.03847 327.4 5.03362 327.455 5.02788 327.5L5.02745 327.504C5.02407 327.531 5.01383 327.614 4.98267 327.691C4.97335 327.714 4.94931 327.803 4.92346 327.992C4.89937 328.168 4.87793 328.397 4.85946 328.674C4.82255 329.229 4.799 329.955 4.78611 330.797C4.76036 332.478 4.7775 334.596 4.81197 336.675C4.84643 338.754 4.89812 340.79 4.94122 342.307C4.96276 343.066 4.98215 343.694 4.99615 344.133C5.00315 344.353 5.0088 344.525 5.0127 344.642L5.01354 344.667L11.5634 353.596L25.0019 357.981H33.3174H33.3223L264.929 353.523L276.109 350.755L281.349 344.654V314.294H281.379C281.349 314.294 281.349 314.293 281.349 314.292L281.349 314.285L281.349 314.254L281.349 314.133L281.348 313.653L281.344 311.782C281.341 310.142 281.336 307.737 281.33 304.676C281.319 298.554 281.303 289.805 281.285 279.301C281.25 258.292 281.207 230.259 281.178 202.164C281.15 174.068 281.136 145.91 281.157 124.65C281.168 114.02 281.187 105.114 281.219 98.802C281.234 95.6464 281.253 93.1384 281.274 91.3874C281.285 90.5121 281.297 89.8243 281.309 89.3386C281.313 89.1884 281.317 89.0566 281.321 88.9439C281.324 88.8746 281.326 88.8126 281.329 88.758C281.335 88.6391 281.342 88.5011 281.361 88.4168C281.405 88.2234 281.433 87.8635 281.437 87.3435C281.441 86.8358 281.422 86.2114 281.387 85.5106C281.316 84.1096 281.178 82.424 281.026 80.7958C280.874 79.1687 280.708 77.6035 280.579 76.4448C280.515 75.8655 280.461 75.3881 280.422 75.0556C280.403 74.8894 280.387 74.7594 280.377 74.671L267.408 57.649L216.249 4.92904L193.419 1.1211L31.109 4.96275L31.0972 4.96303V4.96289H12.8371L7.87383 10.2341L2.12449 33.7522L2.12708 33.7815L2.15584 34.1072C2.18099 34.3925 2.21781 34.8109 2.26448 35.3435C2.3578 36.4085 2.49051 37.9301 2.64803 39.7563C2.96305 43.4086 3.37737 48.2796 3.77444 53.1541C4.17147 58.028 4.55145 62.9074 4.79769 66.5757C4.92075 68.4091 5.0107 69.9442 5.05255 71.0259C5.07341 71.5653 5.08266 72.0002 5.07737 72.3054C5.07477 72.4554 5.06849 72.5893 5.05537 72.6935C5.04926 72.742 5.03875 72.8094 5.01674 72.876C5.00888 72.8998 4.99475 72.9386 4.97024 72.9824C4.96919 72.9904 4.96809 72.9991 4.96697 73.0086C4.95379 73.1191 4.94035 73.2932 4.92735 73.5336C4.90153 74.0111 4.87929 74.7143 4.86045 75.6148C4.82281 77.4139 4.7991 79.9813 4.78616 83.0627C4.7603 89.2247 4.77754 97.4324 4.81204 105.638C4.84654 113.844 4.89828 122.046 4.94141 128.197C4.96297 131.273 4.98237 133.836 4.99639 135.629C5.00339 136.526 5.00905 137.231 5.01296 137.711L5.01746 138.26L5.01863 138.4L5.01893 138.436L5.019 138.445L5.01902 138.447C5.01902 138.448 5.01903 138.448 4.51904 138.452Z" fill="white" stroke="black"/>
<path d="M284.892 210.835C284.904 188.358 284.904 165.88 284.892 143.4C284.892 124.9 286.341 105.491 284.318 86.9542C284.818 79.9162 281.324 74.5539 276.709 68.5079C268.685 57.9989 259.909 47.9632 251.181 38.0392C242.535 28.2082 233.8 18.3054 224.429 9.1544C221.489 6.2834 218.878 3.39949 215.849 2.31749C215.585 2.07502 215.256 1.91433 214.902 1.8546C199.484 -0.555402 183.194 1.22111 167.625 1.33311C150.359 1.45911 133.095 1.4726 115.825 1.4796C82.1653 1.4916 48.1453 -0.166769 14.5353 1.82823C13.2071 1.40187 11.7965 1.29921 10.4205 1.52843C9.18624 1.84422 8.02887 2.40803 7.01966 3.18565C6.01045 3.96328 5.17044 4.93788 4.55042 6.05089C2.02842 10.3699 1.76829 16.3992 2.26429 21.5792C-0.991713 73.9452 1.37617 127.173 1.39417 179.569C1.41217 231.262 -0.537591 283.469 1.73841 335.164C0.168409 340.877 1.08941 347.594 4.73841 352.045C8.83841 357.06 15.0385 359.205 21.2955 359.077C27.8495 360.496 34.6069 360.71 41.2374 359.708C53.4564 360.126 65.7923 359.562 77.8903 359.56L140.746 359.545C179.755 359.537 219.152 360.886 258.146 358.758C258.243 358.802 258.344 358.839 258.446 358.867C265.116 359.984 277.206 360.345 280.88 353.191C281.621 351.583 282.096 349.864 282.286 348.104C282.787 347.928 283.222 347.604 283.534 347.175C283.846 346.746 284.02 346.233 284.033 345.703C287.346 301.109 284.869 255.547 284.892 210.835ZM278.247 88.7052C278.129 89.9162 278.06 91.1395 277.969 92.3585C275.044 88.8435 270.147 87.3443 264.714 86.6993C264.195 86.6373 263.671 86.599 263.151 86.546C266.991 82.716 270.597 78.6366 274.041 74.4786C276.689 79.2656 278.344 84.0742 278.247 88.7052ZM240.847 85.8419C249.072 78.4246 256.792 70.4669 263.956 62.0206C264.218 61.7191 264.36 61.3311 264.356 60.9317C267.251 64.2852 269.91 67.8354 272.313 71.5567C272.073 71.6565 271.86 71.813 271.693 72.0128C267.459 76.9788 262.904 81.5841 258.293 86.1651C252.504 85.8451 246.638 85.8929 240.843 85.8419H240.847ZM218.106 45.9278C223.338 39.7398 228.682 33.6961 234.321 27.8761C236.402 30.1571 238.454 32.4647 240.51 34.7687C240.443 34.8084 240.38 34.853 240.319 34.9025C232.937 42.5375 225.377 49.9493 217.762 57.3243C217.847 53.5823 217.983 49.7728 218.104 45.9278H218.106ZM262.864 59.2179C262.637 59.2027 262.409 59.2406 262.199 59.3273C261.988 59.4139 261.8 59.5472 261.65 59.7179C253.071 68.5329 244.215 77.055 235.524 85.755C235.384 85.749 235.242 85.7492 235.103 85.7452C229.019 85.5522 225.749 86.4451 221.267 81.7071C220.919 81.3391 220.668 80.9765 220.379 80.6075C220.426 80.5836 220.472 80.5568 220.517 80.5275C231.994 70.6075 242.712 59.7203 253.605 49.1583C256.562 52.2873 259.761 55.6769 262.86 59.2179H262.864ZM251.337 46.7491C240.311 56.8491 228.99 66.7702 218.536 77.4542C217.147 73.8682 217.755 70.1446 217.692 65.3546C217.68 64.3976 217.699 63.4058 217.703 62.4308C226.489 54.5055 234.782 46.0503 242.534 37.1114C242.55 37.0924 242.552 37.0709 242.568 37.0519C244.068 38.7519 245.625 40.4063 247.117 42.1163C248.37 43.5643 249.804 45.1161 251.332 46.7491H251.337ZM232.058 25.3595C227.165 29.9605 222.556 34.8558 218.258 40.0177C218.325 35.9597 218.292 31.9173 218.083 27.9483C218.189 28.1609 218.345 28.3441 218.538 28.4825C218.731 28.6209 218.955 28.7102 219.191 28.7423C219.426 28.7743 219.665 28.7479 219.888 28.6661C220.111 28.5844 220.311 28.4501 220.469 28.2735C222.956 25.7085 225.323 23.0184 227.719 20.3634C228.813 21.6864 229.806 22.8778 230.664 23.8038C231.133 24.3158 231.583 24.8465 232.054 25.3595H232.058ZM225.606 17.8273C223.128 20.5433 220.606 23.2275 218.225 26.0275C218.127 26.1547 218.049 26.2955 217.991 26.4454C217.767 22.5622 217.27 18.6991 216.503 14.8858C215.938 11.9983 214.751 9.26843 213.025 6.88585C213.091 6.87585 213.155 6.86941 213.224 6.86241C217.585 8.73841 221.974 13.5173 225.604 17.8273H225.606ZM269.161 351.875C266.734 352.354 264.506 352.891 262.261 353.533C221.929 351.067 181.137 352.527 140.761 352.518L77.9054 352.505C59.6274 352.505 40.8153 351.252 22.6803 354.023C18.4753 352.588 13.5094 351.272 10.4264 348.253C8.89747 346.734 7.87355 344.782 7.49427 342.66C10.3313 288.524 8.15742 233.76 8.17542 179.57C8.19342 127.793 10.5144 75.2036 7.42737 23.4376C8.72737 19.1726 8.55031 14.6016 9.99232 10.4376C10.8733 7.89261 12.8654 7.29221 14.9664 6.70421C48.4434 8.66221 82.3214 7.01931 115.843 7.03331C132.243 7.03931 148.643 7.08284 165.043 7.16417C177.543 7.24517 190.533 8.36933 203.193 7.78233C207.005 10.6823 210.407 19.1824 210.945 22.3204C211.487 25.4884 211.006 29.2254 211.035 32.4454C211.097 39.1961 211.157 45.9464 211.216 52.6964C211.299 62.0074 208.458 76.6222 212.528 85.2872C215.405 91.4102 221.266 91.612 227.287 91.965C233.905 92.3569 244.969 91.3503 255.088 92.1192C255.343 92.3042 255.644 92.4154 255.959 92.4396C256.273 92.4637 256.588 92.3997 256.868 92.256C265.123 93.075 272.51 95.248 275.976 100.589C276.333 101.112 276.874 101.483 277.491 101.626C277.097 115.566 277.878 129.718 277.878 143.4C277.878 165.878 277.879 188.356 277.883 210.834C277.904 252.912 275.774 295.741 278.274 337.809C278.044 340.927 277.459 344.009 276.529 346.994C275.242 350.944 272.963 351.125 269.157 351.875H269.161Z" fill="#020100"/>
</svg>
