<svg width="287" height="361" viewBox="0 0 287 361" fill="none" xmlns="http://www.w3.org/2000/svg">
<path d="M279.328 350.924L285.128 327.197C285.128 327.197 281.676 288.261 282.228 288.159C282.78 288.057 282.228 222.459 282.228 222.459C282.228 222.459 281.675 34.7742 282.228 33.4072C282.781 32.0402 282.228 16.0732 282.228 16.0732L275.492 6.88965L261.824 2.42969H253.424L21.7506 6.88965L10.362 9.70898L4.89613 16.0723V46.6172C4.89613 46.6172 5.35113 270.377 4.89613 272.384C4.44113 274.391 5.88832 286.437 5.88832 286.437L20.237 350.894L70.2526 356.449L93.2907 360.292L255.649 356.449H274.125L279.328 350.924Z" fill="white"/>
<path d="M1.85491 150.077C1.84291 172.556 1.84291 195.033 1.85491 217.511C1.85491 236.011 0.407109 255.421 2.43011 273.958C1.93011 280.997 3.17892 313.465 4.81292 320.896C9.70192 343.131 10.8716 347.742 20.2426 356.896C23.1826 359.766 67.8699 357.515 70.8979 358.595C71.1625 358.838 71.4915 359 71.8451 359.06C87.2641 361.469 103.553 359.692 119.122 359.58C136.388 359.454 153.651 359.441 170.915 359.434C204.575 359.422 238.596 361.08 272.206 359.085C273.534 359.512 274.945 359.614 276.321 359.384C277.555 359.069 278.712 358.505 279.721 357.727C280.73 356.95 281.571 355.975 282.191 354.862C284.713 350.543 284.973 344.514 284.477 339.334C287.734 286.968 285.365 233.739 285.347 181.344C285.329 129.65 287.279 77.4449 285.002 25.7449C286.571 20.0319 285.65 13.315 282.002 8.86399C277.902 3.84999 271.703 1.70377 265.446 1.83177C258.892 0.412959 252.134 0.199281 245.503 1.20091C233.284 0.782906 220.949 1.34927 208.851 1.35227L145.995 1.36399C106.986 1.37199 67.5891 0.0231017 28.5951 2.1511C28.4982 2.10674 28.3971 2.06991 28.2944 2.04173C21.6234 0.924727 9.5348 0.563484 5.8598 7.71848C5.12056 9.32749 4.64554 11.0451 4.45355 12.8054C3.95343 12.9811 3.5193 13.3055 3.20745 13.7341C2.8956 14.1628 2.72069 14.6759 2.70745 15.2058C-0.599547 59.8028 1.87791 105.365 1.85491 150.077ZM17.5903 9.03684C20.0173 8.55784 22.2437 8.02064 24.4897 7.37864C64.8217 9.84464 105.614 8.38722 145.99 8.39622L208.846 8.40794C227.123 8.40794 245.936 9.66138 264.072 6.88938C268.277 8.32438 273.242 9.63991 276.325 12.6589C277.854 14.1771 278.879 16.13 279.258 18.2517C276.422 72.3877 278.596 127.152 278.576 181.343C278.558 233.119 276.237 285.709 279.325 337.475C278.025 341.74 278.201 346.312 276.761 350.475C275.879 353.021 273.887 353.62 271.785 354.208C238.309 352.25 204.431 353.894 170.908 353.879C154.508 353.874 138.107 353.83 121.707 353.748C109.207 353.667 96.219 352.543 83.559 353.13C79.747 350.23 24.1097 350.698 23.5727 347.561C23.0297 344.391 7.45388 293.461 10.7729 260.324C10.8379 259.672 9.86123 259.446 9.25823 259.287C9.65223 245.347 8.87152 231.195 8.87152 217.513C8.87152 195.035 8.86966 172.557 8.86566 150.079C8.84466 108.001 10.975 65.1732 8.47503 23.1062C8.7041 19.9874 9.28938 16.9045 10.2192 13.9187C11.5092 9.96768 13.7843 9.78684 17.5903 9.03684Z" fill="#020100"/>
</svg>
